<svg id="Layer_1" data-name="Layer 1" xmlns="http://www.w3.org/2000/svg" xmlns:xlink="http://www.w3.org/1999/xlink" viewBox="0 0 300 300"><defs><clipPath id="clip-path"><path d="M169.42,78c4.82-.9,18.27-.78,22.74-4.54A10.48,10.48,0,0,1,186.07,79a4.35,4.35,0,0,0,3.57-.19,8.1,8.1,0,0,1-5.19,4c8.48,7.33,13.34,19.61,13.34,28.69,0,9.91-3.35,31.54-20.83,41.51q-17.47,10-35.15,9.79,12.69-23.34,16.4-33.1c3.71-9.75.56-14.4-2.81-16.18,3.06-1.77,8.13-8.39,6.52-8.39,2.7-.4,3.64-6.57,1.7-12.06s-4.43-6.63-6.43-7.35C159,82.37,163.75,78.93,169.42,78Z" style="fill:none;clip-rule:evenodd"/></clipPath><clipPath id="clip-path-2"><path d="M121.73,153.88l.09-.4.21-.89c0-.19.09-.39.14-.59s.12-.52.19-.79l.15-.64c.06-.26.12-.52.19-.79s.11-.46.17-.69.13-.53.2-.8l.18-.71.21-.82c.06-.25.13-.49.19-.74s.15-.56.23-.84.13-.49.2-.74l.09-.31c-.17,4.31.14,8.83,1.82,10.85-3.21,6.82-5.85,10.93-6.33,13-.87,3.76,4.09,3.63,9.33-3.05,0,0-5.4,8.58-3.26,12.59s15.13-13.23,15.13-13.23-5.65,8.28-3.17,11.5c2.09,2.72,13.06-5.1,20.11-17.63l-.11.3-.3.76-.21.53-.3.73-.23.53-.3.68c-.07.18-.15.35-.23.52s-.2.42-.29.63l-.26.53-.27.55c-.1.19-.19.36-.28.55s-.17.32-.25.47l-.34.6-.19.34c-.18.31-.36.6-.54.88-7.66,12-18.09,18.21-20.82,16.83s0-6.49,0-6.49-6.4,8.06-11.43,7.64-.83-8.67-.83-8.67-9.12,8.93-14.27,4.47c-2.95-2.55,11.59-10.17,15.1-25.42C121.54,154.72,121.63,154.3,121.73,153.88Z" style="fill:none;clip-rule:evenodd"/></clipPath></defs><title>items</title><g id="item__4-2"><g id="main-card"><g id="parrot"><g id="Group-24"><g id="Group-23"><g id="Group-40"><g id="Group-26"><g id="Fill-41"><path d="M145,222c-4.23,8.17-5.62-4.5-5.62-4.5s-8.08,23.67-19.22,23.9c-4.45.09-.49-14.69-.49-14.69s-3.5,17.28-12.41,17.46,2.88-27.51,2.88-27.51-5.27,4.31-8.45,2.68S118.5,191.05,130,156.4s26.26,5.46,26.26,5.46S159.64,193.69,145,222Z" style="fill:#0e95b6;fill-rule:evenodd"/><path d="M107.17,244.9a3.5,3.5,0,0,1-3-1.54c-3.1-4.58,2-18.8,4.32-24.67-2,1.17-4.91,2.43-7.12,1.29a1.35,1.35,0,0,1-.67-.82c-.52-1.69,1.47-5.46,6.43-14.58,6.2-11.38,15.57-28.59,22.14-48.43,3.23-9.76,7-14.55,11.41-14.62h.1c8.69,0,15.89,19.24,16.19,20.06.08.51,3.32,32.57-11.26,60.72h0c-.77,1.49-2,3.45-3.61,3.13s-2.5-2.82-3-5c-2.54,6.35-9.57,21.53-18.9,21.71a2.3,2.3,0,0,1-1.94-.91c-.81-1.05-1-3-.93-5.12-2.09,4.39-5.34,8.71-10,8.81Zm3-29.05a.74.74,0,0,1,.46.16.78.78,0,0,1,.25.91c-2.45,5.74-8.19,21.52-5.44,25.58a1.94,1.94,0,0,0,1.83.86c6.52-.13,10-10.57,11.22-15,.22-1,.4-1.68.47-1.94a.78.78,0,0,1,.92-.55.77.77,0,0,1,.57.9c0,.15-.2,1-.53,2.18-.93,4.21-1.65,9.72-.44,11.26a.78.78,0,0,0,.7.33c10.48-.21,18.42-23.15,18.5-23.38a.79.79,0,0,1,.81-.51.77.77,0,0,1,.68.68c.32,3,1.31,6.39,2.21,6.55.27.08,1-.38,2-2.32,14.36-27.73,11.17-59.36,11.14-59.67-1.92-5.14-8.38-18.88-14.71-18.88h-.08c-3.61.06-7.06,4.76-10,13.58-6.61,20-16,37.24-22.24,48.67-3.46,6.35-6.72,12.34-6.32,13.4,2.16,1.06,6.16-1.58,7.53-2.68A.74.74,0,0,1,110.14,215.85ZM145,222h0Z" style="fill:#163150"/></g><g id="Fill-42"><path d="M104.42,216.22c-1.3-.66,1.68-5.9,6.3-14.29-.07,3,.08,7.25,1.49,7.85,2.2.93,5.87-6.41,5.87-6.41s-4.67,18.2-1.76,19.33,7.23-10,7.23-10-2.73,8.84,2,10.64S139,203.2,139,203.2s1.21,6.45,5.36,7c1.59.22,3.34-1.6,4.9-3.92A84.51,84.51,0,0,1,144,218.61c-3.87,7.38-5.14-4.05-5.14-4.05s-7.37,21.36-17.55,21.56c-3.18.07-1.66-8.06-.85-11.62-1.08,4-4.43,14-10.94,14.13-8.15.16,2.63-24.83,2.63-24.83s-4.81,3.88-7.72,2.42" style="fill:#f4d57a;fill-rule:evenodd"/></g></g><g id="Fill-54"><path d="M190.46,107c-12.8-9-37.54,22.88-42.3,36.83s-3,25.69-.08,27,5.2-3.62,5.2-3.62-2.21,10.17,1.39,13.9,7.37-4.81,7.37-4.81-1.15,12.54,5.79,13.74c4,.68.55-15.32,10.61-28.06s32.32-40.75,12-54.94" style="fill:#0e95b6;fill-rule:evenodd"/><path d="M168.07,190.73a2.19,2.19,0,0,1-.36,0c-5.34-.92-6.32-7.64-6.42-11.6-1,1.55-2.48,3.28-4.17,3.58a3.23,3.23,0,0,1-3-1.11c-2.54-2.64-2.43-8-2-11.46-1.08,1.16-2.58,2.11-4.32,1.33-3.42-1.51-5.05-13.85-.29-27.81,3.66-10.73,20-33.67,33.6-38.12,3.79-1.25,7.07-.93,9.74.94,4.77,3.33,7.57,7.66,8.34,12.86,2.17,14.71-12.28,33-20,42.86l-.17.21c-5.78,7.33-7,15.82-7.86,21.43-.51,3.46-.84,5.73-2,6.58A1.77,1.77,0,0,1,168.07,190.73ZM161.41,176l1.32.34c0,.12-1,11.91,5.22,13a.39.39,0,0,0,.35-.07c.7-.5,1-2.89,1.46-5.66.85-5.76,2.13-14.46,8.14-22.08l.17-.21c7.63-9.68,21.84-27.68,19.76-41.81-.71-4.81-3.32-8.82-7.76-11.93h0c-2.3-1.61-5.17-1.86-8.53-.76-12.22,4-28.79,25.72-32.72,37.26-4.86,14.22-2.71,25.11-.46,26.1s4.27-3.24,4.29-3.28l1.3.44c0,.1-2.08,9.85,1.22,13.27a1.88,1.88,0,0,0,1.71.71C158.82,181,160.81,177.37,161.41,176Z" style="fill:#163150"/></g><g id="Combined-Shape"><g style="clip-path:url(#clip-path)"><polygon points="197.79 74.79 178.6 73.48 197.79 73.48 197.79 74.79" style="fill:#e09957"/><polygon points="197.79 76.43 154.63 73.48 178.6 73.48 197.79 74.79 197.79 76.43" style="fill:#e19a58"/><polygon points="197.79 78.06 141.81 74.25 141.81 73.48 154.63 73.48 197.79 76.43 197.79 78.06" style="fill:#e19b58"/><polygon points="197.79 79.69 141.81 75.88 141.81 74.25 197.79 78.06 197.79 79.69" style="fill:#e29c58"/><polygon points="197.79 81.33 141.81 77.51 141.81 75.88 197.79 79.69 197.79 81.33" style="fill:#e29d58"/><polygon points="197.79 82.96 141.81 79.15 141.81 77.51 197.79 81.33 197.79 82.96" style="fill:#e39e59"/><polygon points="197.79 84.59 141.81 80.78 141.81 79.15 197.79 82.96 197.79 84.59" style="fill:#e4a059"/><polygon points="197.79 86.23 141.81 82.41 141.81 80.78 197.79 84.59 197.79 86.23" style="fill:#e4a159"/><polygon points="197.79 87.86 141.81 84.05 141.81 82.41 197.79 86.23 197.79 87.86" style="fill:#e5a25a"/><polygon points="197.79 89.5 141.81 85.68 141.81 84.05 197.79 87.86 197.79 89.5" style="fill:#e5a35a"/><polygon points="197.79 91.13 141.81 87.31 141.81 85.68 197.79 89.5 197.79 91.13" style="fill:#e6a45a"/><polygon points="197.79 92.76 141.81 88.95 141.81 87.31 197.79 91.13 197.79 92.76" style="fill:#e6a55a"/><polygon points="197.79 94.4 141.81 90.58 141.81 88.95 197.79 92.76 197.79 94.4" style="fill:#e7a65b"/><polygon points="197.79 96.03 141.81 92.22 141.81 90.58 197.79 94.4 197.79 96.03" style="fill:#e7a75b"/><polygon points="197.79 97.67 141.81 93.85 141.81 92.22 197.79 96.03 197.79 97.67" style="fill:#e8a85b"/><polygon points="197.79 99.3 141.81 95.48 141.81 93.85 197.79 97.67 197.79 99.3" style="fill:#e9a95b"/><polygon points="197.79 100.93 141.81 97.12 141.81 95.48 197.79 99.3 197.79 100.93" style="fill:#e9aa5c"/><polygon points="197.79 102.57 141.81 98.75 141.81 97.12 197.79 100.93 197.79 102.57" style="fill:#eaab5c"/><polygon points="197.79 104.2 141.81 100.39 141.81 98.75 197.79 102.57 197.79 104.2" style="fill:#eaac5c"/><polygon points="197.79 105.83 141.81 102.02 141.81 100.39 197.79 104.2 197.79 105.83" style="fill:#ebad5c"/><polygon points="197.79 107.47 141.81 103.65 141.81 102.02 197.79 105.83 197.79 107.47" style="fill:#ebae5d"/><polygon points="197.79 109.1 141.81 105.29 141.81 103.65 197.79 107.47 197.79 109.1" style="fill:#ecaf5d"/><polygon points="197.79 110.74 141.81 106.92 141.81 105.29 197.79 109.1 197.79 110.74" style="fill:#ecb05d"/><polygon points="197.79 112.37 141.81 108.55 141.81 106.92 197.79 110.74 197.79 112.37" style="fill:#edb15e"/><polygon points="197.79 114 141.81 110.19 141.81 108.55 197.79 112.37 197.79 114" style="fill:#eeb25e"/><polygon points="197.79 115.64 141.81 111.82 141.81 110.19 197.79 114 197.79 115.64" style="fill:#eeb35e"/><polygon points="197.79 117.27 141.81 113.46 141.81 111.82 197.79 115.64 197.79 117.27" style="fill:#efb45e"/><polygon points="197.79 118.91 141.81 115.09 141.81 113.46 197.79 117.27 197.79 118.91" style="fill:#efb55f"/><polygon points="197.79 120.54 141.81 116.72 141.81 115.09 197.79 118.91 197.79 120.54" style="fill:#f0b65f"/><polygon points="197.79 122.17 141.81 118.36 141.81 116.72 197.79 120.54 197.79 122.17" style="fill:#f0b75f"/><polygon points="197.79 123.81 141.81 119.99 141.81 118.36 197.79 122.17 197.79 123.81" style="fill:#f1b85f"/><polygon points="197.79 125.44 141.81 121.63 141.81 119.99 197.79 123.81 197.79 125.44" style="fill:#f2b960"/><polygon points="197.79 127.07 141.81 123.26 141.81 121.63 197.79 125.44 197.79 127.07" style="fill:#f2ba60"/><polygon points="197.79 128.71 141.81 124.89 141.81 123.26 197.79 127.07 197.79 128.71" style="fill:#f3bb60"/><polygon points="197.79 130.34 141.81 126.53 141.81 124.89 197.79 128.71 197.79 130.34" style="fill:#f3bc60"/><polygon points="197.79 131.97 141.81 128.16 141.81 126.53 197.79 130.34 197.79 131.97" style="fill:#f4bd61"/><polygon points="197.79 133.61 141.81 129.79 141.81 128.16 197.79 131.97 197.79 133.61" style="fill:#f4be61"/><polygon points="197.79 135.24 141.81 131.43 141.81 129.79 197.79 133.61 197.79 135.24" style="fill:#f5bf61"/><polygon points="197.79 136.88 141.81 133.06 141.81 131.43 197.79 135.24 197.79 136.88" style="fill:#f5c061"/><polygon points="197.79 138.51 141.81 134.69 141.81 133.06 197.79 136.88 197.79 138.51" style="fill:#f6c162"/><polygon points="197.79 140.14 141.81 136.33 141.81 134.69 197.79 138.51 197.79 140.14" style="fill:#f7c262"/><polygon points="197.79 141.78 141.81 137.96 141.81 136.33 197.79 140.14 197.79 141.78" style="fill:#f7c362"/><polygon points="197.79 143.41 141.81 139.6 141.81 137.96 197.79 141.78 197.79 143.41" style="fill:#f8c463"/><polygon points="197.79 145.04 141.81 141.23 141.81 139.6 197.79 143.41 197.79 145.04" style="fill:#f8c563"/><polygon points="197.79 146.68 141.81 142.86 141.81 141.23 197.79 145.04 197.79 146.68" style="fill:#f9c663"/><polygon points="197.79 148.31 141.81 144.5 141.81 142.86 197.79 146.68 197.79 148.31" style="fill:#f9c763"/><polygon points="197.79 149.95 141.81 146.13 141.81 144.5 197.79 148.31 197.79 149.95" style="fill:#fac864"/><polygon points="197.79 151.58 141.81 147.76 141.81 146.13 197.79 149.95 197.79 151.58" style="fill:#fbc964"/><polygon points="197.79 153.21 141.81 149.4 141.81 147.76 197.79 151.58 197.79 153.21" style="fill:#fbca64"/><polygon points="197.79 154.85 141.81 151.03 141.81 149.4 197.79 153.21 197.79 154.85" style="fill:#fccb64"/><polygon points="197.79 156.48 141.81 152.67 141.81 151.03 197.79 154.85 197.79 156.48" style="fill:#fccc65"/><polygon points="197.79 158.12 141.81 154.3 141.81 152.67 197.79 156.48 197.79 158.12" style="fill:#fdcd65"/><polygon points="197.79 159.75 141.81 155.93 141.81 154.3 197.79 158.12 197.79 159.75" style="fill:#fdce65"/><polygon points="197.79 161.38 141.81 157.57 141.81 155.93 197.79 159.75 197.79 161.38" style="fill:#fecf65"/><polygon points="195.5 162.86 141.81 159.2 141.81 157.57 197.79 161.38 197.79 162.86 195.5 162.86" style="fill:#fed066"/><polygon points="171.53 162.86 141.81 160.84 141.81 159.2 195.5 162.86 171.53 162.86" style="fill:#ffd166"/><polygon points="141.81 160.84 171.53 162.86 141.81 162.86 141.81 160.84" style="fill:#ffd166"/></g><path d="M142.43,163.51h-.63l-1.27,0,.61-1.12c8.4-15.44,13.9-26.55,16.36-33,4-10.48-.39-14.15-2.46-15.24l-1.23-.64,1.21-.7c2.56-1.47,6.39-6.44,6.44-7.41a.47.47,0,0,0,.14.3.49.49,0,0,0,.32.15l-.11-1.52a1.7,1.7,0,0,0,1.14-.93c1.07-1.78,1.42-5.94,0-10.12-1.91-5.42-4.35-6.3-6-6.88l-.84-.3.42-.78c2.06-3.86,7.31-7.16,12.77-8,1.36-.26,3.34-.43,5.64-.63,5.77-.5,13.68-1.18,16.74-3.74l1.19.91a10.93,10.93,0,0,1-3.48,4.27l2.19-1-1.27,2.13A9.05,9.05,0,0,1,186,83.08c8.65,8.09,12.61,20.23,12.61,28.36,0,5-1,30.66-21.22,42.17C165.83,160.18,154.08,163.51,142.43,163.51Zm14.36-50.09c2.55,1.84,6,6.36,2.14,16.49-2.42,6.36-7.75,17.14-15.83,32.06,11.16-.12,22.42-3.38,33.48-9.69C196.45,141,197,114.43,197,111.44c0-8.36-4.49-20.69-13.07-28.11l-1.15-1,1.47-.34a7.07,7.07,0,0,0,3.46-2,4.39,4.39,0,0,1-1.94-.35L183.94,79l1.86-.71a10.24,10.24,0,0,0,4-2.59c-4,1.56-9.82,2.06-14.74,2.49-2.26.19-4.21.36-5.5.6h0c-5.13.82-9.35,3.76-11.22,6.5,2.07.88,4.28,2.53,6,7.47,1.45,4.13,1.42,8.93-.08,11.42a3.61,3.61,0,0,1-1.28,1.32C162.77,107.36,159.26,111.49,156.79,113.42Z" style="fill:#163150"/></g><g id="Path-34"><path d="M157.19,85.66c-3.17,0-11.48,4.6-11.48,12.39q0,7.78,9.1,11.07-3.88-5.13,0-7c3.89-1.89,9.64-1.45,9.64-5.19S161.57,86.53,157.19,85.66Z" style="fill:#a95130;fill-rule:evenodd"/><path d="M154.81,109.89a.63.63,0,0,1-.26,0c-6.37-2.29-9.61-6.26-9.61-11.79,0-8.18,8.51-13.16,12.25-13.16l.15,0c4.74.94,7.88,7.84,7.88,12,0,3.09-3.05,3.85-6,4.58a20.94,20.94,0,0,0-4.06,1.3,2.39,2.39,0,0,0-1.46,1.53c-.24,1,.36,2.53,1.73,4.35a.76.76,0,0,1-.61,1.23Zm2.31-23.46c-2.74.07-10.65,4.19-10.65,11.62,0,4.21,2.09,7.31,6.37,9.41a5.15,5.15,0,0,1-.64-3.5,3.88,3.88,0,0,1,2.28-2.56,22.52,22.52,0,0,1,4.37-1.41c3-.74,4.83-1.29,4.83-3.09C163.68,93.32,160.87,87.25,157.12,86.43Z" style="fill:#163150"/></g><g id="Path-35"><path d="M155.08,102q4.32,3.81,6.84,3.12t2.8-5.12l-.27-3q.15,1.23-.3,1.5a9.27,9.27,0,0,1-2.72,1.55Z" style="fill:#b76141;fill-rule:evenodd"/><path d="M161.1,105.94c-1.79,0-3.94-1.12-6.53-3.42a.76.76,0,0,1,.28-1.3l6.35-2a6.21,6.21,0,0,0,2.06-1.13,5.35,5.35,0,0,1,.47-.33s0-.13,0-.4l0-.4a.76.76,0,0,1,1.52-.16,4.57,4.57,0,0,1,0,.52l.22,2.57c-.2,3.41-1.33,5.36-3.36,5.92A3.8,3.8,0,0,1,161.1,105.94Zm-4.46-3.68c2.14,1.69,3.88,2.4,5.08,2.07s2.08-1.85,2.23-4.42l0-.39a7.75,7.75,0,0,1-2.26,1.16Q160.35,101.1,156.64,102.26Z" style="fill:#163150"/></g></g></g><g id="Oval"><circle cx="171.29" cy="83.58" r="1.99" style="fill:#fff"/></g><ellipse cx="172.21" cy="85.41" rx="2.76" ry="2.75" style="fill:#fff"/><g id="Group-6"><ellipse cx="172.21" cy="85.41" rx="4.6" ry="4.59" style="fill:#fff"/><path d="M172.21,90.69a5.28,5.28,0,1,1,5.29-5.28A5.3,5.3,0,0,1,172.21,90.69Zm0-9.18a3.9,3.9,0,1,0,3.91,3.9A3.91,3.91,0,0,0,172.21,81.51Z" style="fill:#163150"/><ellipse cx="172.21" cy="85.41" rx="2.76" ry="2.75" style="fill:#2a455f"/><g id="Oval-Copy-16"><circle cx="170.83" cy="84.04" r="1.99" style="fill:#fff"/></g></g><g id="Path"><path d="M145,127.43a3.41,3.41,0,0,1-3-1.72,3.4,3.4,0,0,1-.34-2.61.69.69,0,1,1,1.33.36,2.07,2.07,0,0,0,1.46,2.52,2.06,2.06,0,0,0,2.54-1.45.69.69,0,1,1,1.33.35A3.45,3.45,0,0,1,145,127.43Z" style="fill:#163150"/></g><g id="Group-22"><path d="M155.9,111.05c15,4.29,5.79,43.49-2.1,56s-18.15,18.46-21,17-.44-6.31-.44-6.31-6.54,8.11-11.71,7.67-.9-8.74-.9-8.74-9.05,8.78-14.34,4.16c-3-2.65,11.58-10.06,15.19-25.88s11.42-50.69,35.26-43.89" style="fill:#0e95b6;fill-rule:evenodd"/><path d="M121.09,186.18l-.47,0a3.27,3.27,0,0,1-2.78-1.63c-.8-1.46-.46-3.57.09-5.3-3.21,2.41-9,5.69-13,2.17a1.89,1.89,0,0,1-.67-1.33c-.08-1.47,1.5-3.18,3.88-5.76,3.85-4.17,9.67-10.47,11.75-19.54l0-.26c2.79-12.21,8-34.94,20.82-42.54a18.89,18.89,0,0,1,15.34-1.66h0c3.16.91,5.49,3.26,6.92,7,5.11,13.38-2.51,40.5-8.58,50.1-7.91,12.5-18.61,19-21.95,17.3-1.66-.84-1.93-2.52-1.75-4.05C128.4,183,124.57,186.18,121.09,186.18Zm-1.83-10.07,1.21.9c-.67,1.32-2.22,5.1-1.29,6.78a1.8,1.8,0,0,0,1.57.84c3.93.32,9.3-5.22,11.05-7.38l1.29.81c0,.05-2,4.24.1,5.3s12.08-4.29,20-16.76c6.5-10.29,13-36.77,8.44-48.73-1.25-3.27-3.23-5.32-5.91-6.08h0a17.4,17.4,0,0,0-14.14,1.5c-12.28,7.26-17.37,29.57-20.1,41.56l-.06.26c-2.16,9.47-8.15,15.95-12.11,20.24-1.81,2-3.52,3.81-3.48,4.63a.32.32,0,0,0,.15.26C110.65,184.35,119.17,176.19,119.26,176.11Z" style="fill:#163150"/><g id="Group-25"><g id="Fill-59"><path d="M127.44,155.54c2.55.65,5.91-5.92,5.91-5.92s-3.6,12,.45,13.36,12.36-12.68,12.36-12.68-4.79,9.78,1.33,12.25c3.55,1.44,6.89-1.76,9.08-4.7a48.27,48.27,0,0,1-4.16,8.79c-7.36,11.47-16.95,17-19.57,15.67s-.42-5.8-.42-5.8-6.1,7.46-10.93,7.05-.84-8-.84-8-8.45,8.07-13.39,3.82c-2.83-2.43,10.82-9.26,14.19-23.81.67-2.94,1.51-6.59,2.6-10.49C123.86,150.17,124.56,154.79,127.44,155.54Z" style="fill:#ffd166;fill-rule:evenodd"/></g><g id="Fill-60"><g style="clip-path:url(#clip-path-2)"><polygon points="105.12 144.13 103.4 144.58 103.4 144.13 105.12 144.13" style="fill:#d68753"/><polygon points="109.22 144.13 103.4 145.64 103.4 144.58 105.12 144.13 109.22 144.13" style="fill:#d78853"/><polygon points="113.31 144.13 103.4 146.71 103.4 145.64 109.22 144.13 113.31 144.13" style="fill:#d78953"/><polygon points="117.41 144.13 103.4 147.77 103.4 146.71 113.31 144.13 117.41 144.13" style="fill:#d88a53"/><polygon points="121.51 144.13 103.4 148.83 103.4 147.77 117.41 144.13 121.51 144.13" style="fill:#d88b54"/><polygon points="125.61 144.13 103.4 149.9 103.4 148.83 121.51 144.13 125.61 144.13" style="fill:#d98c54"/><polygon points="129.71 144.13 103.4 150.96 103.4 149.9 125.61 144.13 129.71 144.13" style="fill:#d98d54"/><polygon points="133.81 144.13 103.4 152.03 103.4 150.96 129.71 144.13 133.81 144.13" style="fill:#da8e54"/><polygon points="137.9 144.13 103.4 153.09 103.4 152.03 133.81 144.13 137.9 144.13" style="fill:#db8f55"/><polygon points="142 144.13 103.4 154.16 103.4 153.09 137.9 144.13 142 144.13" style="fill:#db9055"/><polygon points="146.1 144.13 103.4 155.22 103.4 154.16 142 144.13 146.1 144.13" style="fill:#dc9155"/><polygon points="150.2 144.13 103.4 156.29 103.4 155.22 146.1 144.13 150.2 144.13" style="fill:#dc9256"/><polygon points="154.3 144.13 103.4 157.35 103.4 156.29 150.2 144.13 154.3 144.13" style="fill:#dd9356"/><polygon points="157.8 144.28 103.4 158.41 103.4 157.35 154.3 144.13 157.8 144.13 157.8 144.28" style="fill:#dd9456"/><polygon points="157.8 145.35 103.4 159.48 103.4 158.41 157.8 144.28 157.8 145.35" style="fill:#de9556"/><polygon points="157.8 146.41 103.4 160.54 103.4 159.48 157.8 145.35 157.8 146.41" style="fill:#de9657"/><polygon points="157.8 147.48 103.4 161.61 103.4 160.54 157.8 146.41 157.8 147.48" style="fill:#df9757"/><polygon points="157.8 148.54 103.4 162.67 103.4 161.61 157.8 147.48 157.8 148.54" style="fill:#e09857"/><polygon points="157.8 149.61 103.4 163.74 103.4 162.67 157.8 148.54 157.8 149.61" style="fill:#e09957"/><polygon points="157.8 150.67 103.4 164.8 103.4 163.74 157.8 149.61 157.8 150.67" style="fill:#e19a58"/><polygon points="157.8 151.74 103.4 165.87 103.4 164.8 157.8 150.67 157.8 151.74" style="fill:#e19b58"/><polygon points="157.8 152.8 103.4 166.93 103.4 165.87 157.8 151.74 157.8 152.8" style="fill:#e29c58"/><polygon points="157.8 153.86 103.4 168 103.4 166.93 157.8 152.8 157.8 153.86" style="fill:#e29d58"/><polygon points="157.8 154.93 103.4 169.06 103.4 168 157.8 153.86 157.8 154.93" style="fill:#e39e59"/><polygon points="157.8 155.99 103.4 170.13 103.4 169.06 157.8 154.93 157.8 155.99" style="fill:#e4a059"/><polygon points="157.8 157.06 103.4 171.19 103.4 170.13 157.8 155.99 157.8 157.06" style="fill:#e4a159"/><polygon points="157.8 158.12 103.4 172.25 103.4 171.19 157.8 157.06 157.8 158.12" style="fill:#e5a25a"/><polygon points="157.8 159.19 103.4 173.32 103.4 172.25 157.8 158.12 157.8 159.19" style="fill:#e5a35a"/><polygon points="157.8 160.25 103.4 174.38 103.4 173.32 157.8 159.19 157.8 160.25" style="fill:#e6a45a"/><polygon points="157.8 161.32 103.4 175.45 103.4 174.38 157.8 160.25 157.8 161.32" style="fill:#e6a55a"/><polygon points="157.8 162.38 103.4 176.51 103.4 175.45 157.8 161.32 157.8 162.38" style="fill:#e7a65b"/><polygon points="157.8 163.45 103.4 177.58 103.4 176.51 157.8 162.38 157.8 163.45" style="fill:#e7a75b"/><polygon points="157.8 164.51 103.4 178.64 103.4 177.58 157.8 163.45 157.8 164.51" style="fill:#e8a85b"/><polygon points="157.8 165.57 103.4 179.71 103.4 178.64 157.8 164.51 157.8 165.57" style="fill:#e9a95b"/><polygon points="157.8 166.64 103.4 180.77 103.4 179.71 157.8 165.57 157.8 166.64" style="fill:#e9aa5c"/><polygon points="157.8 167.7 103.4 181.84 103.4 180.77 157.8 166.64 157.8 167.7" style="fill:#eaab5c"/><polygon points="157.8 168.77 103.4 182.9 103.4 181.84 157.8 167.7 157.8 168.77" style="fill:#eaac5c"/><polygon points="157.8 169.83 103.4 183.97 103.4 182.9 157.8 168.77 157.8 169.83" style="fill:#ebad5c"/><polygon points="157.8 170.9 103.4 185.03 103.4 183.97 157.8 169.83 157.8 170.9" style="fill:#ebae5d"/><polygon points="157.8 171.96 107.02 185.16 103.4 185.16 103.4 185.03 157.8 170.9 157.8 171.96" style="fill:#ecaf5d"/><polygon points="157.8 173.03 111.12 185.16 107.02 185.16 157.8 171.96 157.8 173.03" style="fill:#ecb05d"/><polygon points="157.8 174.09 115.21 185.16 111.12 185.16 157.8 173.03 157.8 174.09" style="fill:#edb15e"/><polygon points="157.8 175.16 119.31 185.16 115.21 185.16 157.8 174.09 157.8 175.16" style="fill:#eeb25e"/><polygon points="157.8 176.22 123.41 185.16 119.31 185.16 157.8 175.16 157.8 176.22" style="fill:#eeb35e"/><polygon points="157.8 177.28 127.51 185.16 123.41 185.16 157.8 176.22 157.8 177.28" style="fill:#efb45e"/><polygon points="157.8 178.35 131.61 185.16 127.51 185.16 157.8 177.28 157.8 178.35" style="fill:#efb55f"/><polygon points="157.8 179.41 135.71 185.16 131.61 185.16 157.8 178.35 157.8 179.41" style="fill:#f0b65f"/><polygon points="157.8 180.48 139.8 185.16 135.71 185.16 157.8 179.41 157.8 180.48" style="fill:#f0b75f"/><polygon points="157.8 181.54 143.9 185.16 139.8 185.16 157.8 180.48 157.8 181.54" style="fill:#f1b85f"/><polygon points="157.8 182.61 148 185.16 143.9 185.16 157.8 181.54 157.8 182.61" style="fill:#f2b960"/><polygon points="157.8 183.67 152.1 185.16 148 185.16 157.8 182.61 157.8 183.67" style="fill:#f2ba60"/><polygon points="157.8 184.74 156.2 185.16 152.1 185.16 157.8 183.67 157.8 184.74" style="fill:#f3bb60"/><polygon points="156.2 185.16 157.8 184.74 157.8 185.16 156.2 185.16" style="fill:#f3bc60"/></g></g></g></g><g id="Path-Copy"><path d="M148.64,133.86a3.48,3.48,0,0,1-3-1.73,3.4,3.4,0,0,1-.34-2.61.69.69,0,0,1,.85-.48.68.68,0,0,1,.48.84,2,2,0,0,0,.21,1.56,2.07,2.07,0,0,0,3.79-.49.69.69,0,0,1,1.34.35A3.47,3.47,0,0,1,148.64,133.86Z" style="fill:#163150"/></g><g id="Path-Copy-3"><path d="M120.12,201.75a3.48,3.48,0,0,1-.9-.12,3.44,3.44,0,0,1-2.09-1.6,3.48,3.48,0,0,1-.35-2.62.69.69,0,0,1,1.34.36,2,2,0,0,0,1.46,2.53,2.08,2.08,0,0,0,2.54-1.46.69.69,0,0,1,.84-.49.69.69,0,0,1,.49.85A3.47,3.47,0,0,1,120.12,201.75Z" style="fill:#163150"/></g><g id="Path-Copy-5"><path d="M145.88,201.75a3.44,3.44,0,0,1-3.33-4.34.69.69,0,0,1,1.33.36,2.07,2.07,0,0,0,4,1.07.7.7,0,0,1,.85-.49.71.71,0,0,1,.49.85A3.48,3.48,0,0,1,145.88,201.75Z" style="fill:#163150"/></g><g id="Path-Copy-7"><path d="M182.5,132.9l-.42,0a3.5,3.5,0,0,1-2.3-1.3,3.47,3.47,0,0,1-.7-2.54.69.69,0,0,1,1.37.17,2,2,0,0,0,.42,1.52,2.07,2.07,0,0,0,3.69-1,.68.68,0,0,1,.77-.6.69.69,0,0,1,.6.77A3.46,3.46,0,0,1,182.5,132.9Z" style="fill:#163150"/></g><g id="Path-Copy-9"><path d="M177,138.41a3,3,0,0,1-.42,0,3.4,3.4,0,0,1-2.3-1.3,3.36,3.36,0,0,1-.7-2.54.7.7,0,0,1,.77-.6.71.71,0,0,1,.6.77,2,2,0,0,0,.42,1.52,2.07,2.07,0,0,0,3.69-1,.67.67,0,0,1,.77-.6.7.7,0,0,1,.6.77A3.47,3.47,0,0,1,177,138.41Z" style="fill:#163150"/></g><g id="Path-Copy-8"><path d="M175.14,129.23l-.42,0a3.45,3.45,0,0,1-3-3.84.66.66,0,0,1,.76-.6.69.69,0,0,1,.6.77,2.08,2.08,0,0,0,4.12.5.67.67,0,0,1,.76-.6.69.69,0,0,1,.6.77A3.44,3.44,0,0,1,175.14,129.23Z" style="fill:#163150"/></g><g id="Path-Copy-2"><path d="M138.52,136.61a3.35,3.35,0,0,1-.89-.12,3.46,3.46,0,0,1-2.1-1.6,3.41,3.41,0,0,1-.34-2.61.69.69,0,0,1,1.33.35,2.06,2.06,0,0,0,.21,1.57,2,2,0,0,0,1.25,1,2.07,2.07,0,0,0,2.54-1.46.7.7,0,0,1,.85-.49.69.69,0,0,1,.48.85A3.46,3.46,0,0,1,138.52,136.61Z" style="fill:#163150"/></g></g><g id="Group-69"><g id="Fill-1"><path d="M172.91,72l-15.7,7,.94,5.3s4.89-4.89,14.76-4.94,14.77,4.94,14.77,4.94l.94-5.3Z" style="fill:#78e1f2;fill-rule:evenodd"/><path d="M158.15,84.91a.78.78,0,0,1-.21,0,.7.7,0,0,1-.48-.54l-.93-5.3a.69.69,0,0,1,.4-.76l15.7-7a.64.64,0,0,1,.57,0l15.7,7a.69.69,0,0,1,.4.76l-.93,5.3a.7.7,0,0,1-1.18.37c-.05,0-4.84-4.68-14.28-4.73s-14.22,4.69-14.27,4.73A.71.71,0,0,1,158.15,84.91ZM158,79.32l.63,3.58c1.91-1.44,6.63-4.28,14.28-4.33s12.38,2.89,14.29,4.33l.63-3.58-14.92-6.6Z" style="fill:#163150"/></g><g id="Fill-5"><path d="M190.13,66.27c-.35-3.49-7.39-12.31-12.36-11s-5.53,1.27-10.5,0-11.22,7.55-11.58,11-5.5,4.6-7.45,8.73,9.94,9.21,9.94,9.21c4.08-9.53,14.73-9.21,14.73-9.21s10.66-.32,14.74,9.21c0,0,11.89-5.08,9.94-9.21S190.49,69.76,190.13,66.27Z" style="fill:#163150;fill-rule:evenodd"/></g><g id="Group-37"><g id="Fill-9"><path d="M171.07,68.2a1,1,0,0,1,1.08-1,1,1,0,0,1,1.06,1,1,1,0,0,1-1.08,1,1,1,0,0,1-1.06-1m2.15,1.36c0-.13.15-.66.32-.66s.3.53.29.66a.27.27,0,0,1-.3.24.28.28,0,0,1-.31-.24m.65-1.37a1.05,1.05,0,0,1,1.08-1,1,1,0,0,1,1.06,1,1,1,0,0,1-1.08,1,1,1,0,0,1-1.06-1m-3.78-.42a2.67,2.67,0,0,0,1.46,2.3l0,1.67h.73l0-.83h.45v.82h.56l0-.82h.45v.82h.56V70.9h.46l0,.82h.74V70A2.76,2.76,0,0,0,177,67.72c0-1.55-1.53-2.8-3.44-2.79s-3.47,1.28-3.48,2.84" style="fill:#fff;fill-rule:evenodd"/></g><g id="Fill-11"><polygon points="177.84 71.23 178.47 70.3 176.23 69 175.6 69.93 177.84 71.23" style="fill:#fff;fill-rule:evenodd"/></g><g id="Fill-13"><path d="M178.14,70.92a.67.67,0,0,0,.87-.19.56.56,0,0,0-.2-.81.65.65,0,0,0-.86.19.56.56,0,0,0,.19.81" style="fill:#fff;fill-rule:evenodd"/></g><g id="Fill-15"><path d="M177.49,71.75a.67.67,0,0,0,.87-.19.56.56,0,0,0-.19-.81.66.66,0,0,0-.87.19.56.56,0,0,0,.19.81" style="fill:#fff;fill-rule:evenodd"/></g><g id="Fill-17"><polygon points="168.62 65.82 169.25 64.9 171.48 66.2 170.85 67.13 168.62 65.82" style="fill:#fff;fill-rule:evenodd"/></g><g id="Fill-19"><path d="M168.79,65.44a.57.57,0,0,1-.19-.81.66.66,0,0,1,.87-.19.56.56,0,0,1,.19.81.67.67,0,0,1-.87.19" style="fill:#fff;fill-rule:evenodd"/></g><g id="Fill-21"><path d="M168.27,66.34a.56.56,0,0,1-.19-.81.66.66,0,0,1,.87-.19.56.56,0,0,1,.19.81.66.66,0,0,1-.87.19" style="fill:#fff;fill-rule:evenodd"/></g><g id="Fill-23"><polygon points="169.18 71.28 168.58 70.36 170.84 69.04 171.45 69.96 169.18 71.28" style="fill:#fff;fill-rule:evenodd"/></g><g id="Fill-25"><path d="M168.89,71a.65.65,0,0,1-.86-.19.57.57,0,0,1,.21-.81.65.65,0,0,1,.86.18.58.58,0,0,1-.21.82" style="fill:#fff;fill-rule:evenodd"/></g><g id="Fill-27"><path d="M169.52,71.8a.65.65,0,0,1-.86-.18.57.57,0,0,1,.21-.81.63.63,0,0,1,.86.18.57.57,0,0,1-.21.81" style="fill:#fff;fill-rule:evenodd"/></g><g id="Fill-29"><polygon points="178.51 65.76 177.9 64.84 175.64 66.18 176.25 67.09 178.51 65.76" style="fill:#fff;fill-rule:evenodd"/></g><g id="Fill-31"><path d="M178.34,65.38a.57.57,0,0,0,.21-.81.63.63,0,0,0-.86-.18.57.57,0,0,0-.21.81.65.65,0,0,0,.86.18" style="fill:#fff;fill-rule:evenodd"/></g><g id="Fill-33"><path d="M178.85,66.28a.58.58,0,0,0,.21-.82.67.67,0,0,0-.87-.18.58.58,0,0,0-.21.82.67.67,0,0,0,.87.18" style="fill:#fff;fill-rule:evenodd"/></g></g><path d="M196.22,78.18C194,76,191.09,74.67,190.83,72c-.35-3.59-7.4-12.65-12.38-11.34s-5.53,1.3-10.51,0S156.71,68.44,156.35,72c-.29,2.89-3.69,4.2-6,6.82a8.58,8.58,0,0,0-.77-.7c2-4.24,6.4-4.92,6.75-8.51S162.93,57,167.91,58.29s5.54,1.31,10.53,0,12,7.76,12.4,11.35,4.24,3.33,6.2,7.57Z" style="fill:#ffd166;fill-rule:evenodd"/><g id="Fill-65"><path d="M187.08,83.63s2.75,4.88,8.43,1.92a4.14,4.14,0,0,1-3.21-1.28c-1.16-1.31-3.84-2.49-5.22-.64" style="fill:#78e1f2;fill-rule:evenodd"/><path d="M192,87.21A6.82,6.82,0,0,1,186.47,84a.72.72,0,0,1,.05-.76A3,3,0,0,1,188.86,82a5.41,5.41,0,0,1,4,1.83,3.53,3.53,0,0,0,2.63,1,.68.68,0,0,1,.73.5.7.7,0,0,1-.35.81A8.17,8.17,0,0,1,192,87.21ZM188,83.71a5.06,5.06,0,0,0,5.06,2,4.23,4.23,0,0,1-1.25-1,4.06,4.06,0,0,0-2.86-1.36A1.64,1.64,0,0,0,188,83.71Z" style="fill:#163150"/></g><path d="M186.58,83.81s.95,5.61,7.61,5a4.56,4.56,0,0,1-2.7-2.42c-.67-1.66-2.88-3.78-4.91-2.56" style="fill:#78e1f2;fill-rule:evenodd"/><path d="M193.17,89.53a7.08,7.08,0,0,1-7.27-5.61.69.69,0,0,1,.33-.71,3.14,3.14,0,0,1,2.69-.28,5.84,5.84,0,0,1,3.22,3.18,3.88,3.88,0,0,0,2.25,2,.7.7,0,0,1-.13,1.36A10.29,10.29,0,0,1,193.17,89.53Zm-5.76-5.33a5.47,5.47,0,0,0,4.31,3.8,4.55,4.55,0,0,1-.88-1.37,4.5,4.5,0,0,0-2.36-2.38A1.88,1.88,0,0,0,187.41,84.2Z" style="fill:#163150"/><g id="Fill-67"><path d="M187.85,83.06a1.15,1.15,0,1,1-1.15-1.15,1.15,1.15,0,0,1,1.15,1.15" style="fill:#9165ff;fill-rule:evenodd"/><path d="M186.7,84.91a1.85,1.85,0,1,1,1.85-1.85A1.85,1.85,0,0,1,186.7,84.91Zm0-2.3a.45.45,0,0,0-.45.45c0,.5.9.5.9,0A.45.45,0,0,0,186.7,82.61Z" style="fill:#163150"/></g></g><g id="Group-136"><g id="Path-295"><path d="M163.34,100.45a25.62,25.62,0,0,1,1.65,6c0,1.34-5.18,13.15,4.1,13.66s7.94-3.76,8-6.19-2.54-4-7.72-4c1.31-5.3-3.39-8.41-4.38-9.53Q163.14,100.14,163.34,100.45Z" style="fill:#9f6634;fill-rule:evenodd"/></g><path d="M169.69,107.61a4.42,4.42,0,0,1,.15.48h-.26A4.15,4.15,0,0,0,169.69,107.61Zm7.36,6.52a2.59,2.59,0,0,1,0,.56c-.07,2.14,1.2,5.93-7.55,5.48-4.14-.22-5.23-2.66-5.23-5.3a7.08,7.08,0,0,0,5,2.23C175.3,117.41,176.74,115.84,177.05,114.13Z" style="fill:#744d2a;fill-rule:evenodd"/><g id="Path-296"><path d="M164,103.14c.64-1,1.79-1.37,3.46-1.27-1.27-1.88-2.14-2.88-2.58-3a6.86,6.86,0,0,0-3,.8C162.48,101.67,163.2,102.83,164,103.14Z" style="fill:#9165ff;fill-rule:evenodd"/><path d="M164.22,103.81l-.41-.16c-1-.38-1.79-1.63-2.47-3.8l-.15-.48.46-.19c2.24-.91,3-.92,3.36-.83s1.13.57,2.92,3.22l.62.92-1.11-.07c-1.47-.09-2.45.24-3,1ZM162.54,100a5.74,5.74,0,0,0,1.34,2.43,3.79,3.79,0,0,1,2.55-1.1c-1.2-1.68-1.6-1.89-1.68-1.92S164.23,99.35,162.54,100Z" style="fill:#163150"/></g><path d="M170.54,120.78c-.47,0-1,0-1.48,0a6.14,6.14,0,0,1-4.94-2.33c-2.15-3-.77-8,0-10.63a11.76,11.76,0,0,0,.31-1.28c0-.44-.4-1.8-3.08-6l-.23-.36.27-.32a3.79,3.79,0,0,1,3.71-1.48l.2,0,.38.42c1.31,1.43,5.19,5.66,4.41,10.59,3.11.09,5.39.79,6.6,2a3.43,3.43,0,0,1,1,2.55c0,.26,0,.55,0,.85,0,1.35.11,3-1.18,4.3C175.37,120.24,173.42,120.78,170.54,120.78Zm-8-20.5c2.71,4.26,3,5.59,3,6.22a7.7,7.7,0,0,1-.36,1.59c-.64,2.3-2,7.09-.14,9.66a5.07,5.07,0,0,0,4.06,1.84c3.33.18,5.53-.25,6.58-1.28s.88-2.19.83-3.43c0-.32,0-.64,0-.92a2.25,2.25,0,0,0-.68-1.72c-1.06-1.09-3.36-1.69-6.47-1.69h-.74l.18-.71c1.15-4.64-2.72-8.86-4-10.25l-.11-.12A2.59,2.59,0,0,0,162.53,100.28Z" style="fill:#163150"/><path d="M172.93,112.8a7.46,7.46,0,0,0-2-.53c-1.74-.22-3.21.09-3.28.68s1.28,1.26,3,1.48h0a8.45,8.45,0,0,0,1.56.06c1-.06,1.68-.33,1.73-.74" style="fill:#744d2a;fill-rule:evenodd"/><path d="M171.74,115.05a9.29,9.29,0,0,1-1.17-.07c-1.84-.24-3.64-1-3.51-2.09a1.07,1.07,0,0,1,.42-.69,5.35,5.35,0,0,1,3.48-.47,8.24,8.24,0,0,1,2.19.56.57.57,0,0,1,.28.73.55.55,0,0,1-.72.28,7.22,7.22,0,0,0-1.89-.49,4.26,4.26,0,0,0-2.69.27,6.11,6.11,0,0,0,2.57.81,8.07,8.07,0,0,0,1.46,0,2.18,2.18,0,0,0,1.24-.31.53.53,0,0,1,.59-.46.57.57,0,0,1,.47.64c-.08.7-.87,1.14-2.23,1.23Z" style="fill:#163150"/></g></g></g></g></svg>