<svg id="Layer_1" data-name="Layer 1" xmlns="http://www.w3.org/2000/svg" viewBox="0 0 300 300"><title>items</title><g id="item__1-1"><path d="M150,139l65.18,27.93-3.89,21.3S191,168.58,150,168.37c-41,.21-61.29,19.83-61.29,19.83l-3.88-21.3Z" style="fill:#78e1f2;fill-rule:evenodd"/><path d="M88.71,189.72a1.48,1.48,0,0,1-.46-.08,1.5,1.5,0,0,1-1-1.17l-3.89-21.29a1.52,1.52,0,0,1,.9-1.67l65.17-27.94a1.56,1.56,0,0,1,1.2,0l65.17,27.94a1.51,1.51,0,0,1,.9,1.67l-3.89,21.29a1.51,1.51,0,0,1-2.54.82c-.2-.19-20.44-19.2-60.25-19.4-39.88.2-60,19.21-60.22,19.4A1.52,1.52,0,0,1,88.71,189.72ZM150,166.85c34.24.18,54.1,13.54,60.28,18.47l3.2-17.5L150,140.62l-63.46,27.2,3.19,17.5C95.91,180.39,115.77,167,150,166.85Z" style="fill:#163150"/><path d="M78.09,115.64c1.47-14.48,30.89-51,51.64-45.76s23.08,5.26,43.84,0,46.86,31.28,48.35,45.76,23,19.08,31.13,36.18S211.54,190,211.54,190C194.48,150.51,150,151.82,150,151.82S105.52,150.51,88.47,190c0,0-49.68-21-41.52-38.16S76.6,130.11,78.09,115.64Z" style="fill:#163150;fill-rule:evenodd"/><path d="M170.27,129.14a2.54,2.54,0,0,0-3.27.48l-6.18-3.88a10.7,10.7,0,0,0,1.05-10.42l4.7-2.93,0,.08a2.54,2.54,0,1,0,2.2-3.91,2.58,2.58,0,0,0-3.55-3.55,2.53,2.53,0,0,0-.95,3.17l-5.13,3.21a15.21,15.21,0,0,0-10.58-4.25,14.76,14.76,0,0,0-10.51,4.11L132.91,108a2.59,2.59,0,0,0-1-3.18,2.53,2.53,0,0,0-3.51.78,2.57,2.57,0,0,0,0,2.72,2.51,2.51,0,0,0-2.08,1.19,2.58,2.58,0,0,0,.84,3.54,2.53,2.53,0,0,0,3.51-.79.3.3,0,0,0,0-.08l4.75,3a10.8,10.8,0,0,0-.82,4.17,11.14,11.14,0,0,0,2,6.26l-6.11,3.8a2.53,2.53,0,1,0-1.62,4.2,2.61,2.61,0,0,0,.18,2.42,2.54,2.54,0,1,0,4.32-2.68l-.06-.08L140.2,129c.19.13.37.27.57.39l.06,7.29,3,0-.06-3.59,1.85,0,.06,3.58h2.28l-.06-3.58h1.85l.06,3.59h2.28l-.06-3.58h1.85l.06,3.59,3,0-.06-7.29c.19-.12.37-.26.56-.39l6.86,4.32-.05.07a2.59,2.59,0,0,0,.85,3.54,2.53,2.53,0,0,0,3.65-3.21,2.5,2.5,0,0,0,2.42-1.17A2.59,2.59,0,0,0,170.27,129.14Zm-27.2-3.64a4.35,4.35,0,0,1-4.38-4.23,4.21,4.21,0,0,1,4.3-4.18,4.37,4.37,0,0,1,4.39,4.24A4.19,4.19,0,0,1,143.07,125.5Zm5.72,2.83a1.16,1.16,0,0,1-1.25-1c0-.57.53-2.86,1.21-2.86s1.26,2.3,1.27,2.87A1.13,1.13,0,0,1,148.79,128.33Zm5.67-2.75a4.36,4.36,0,0,1-4.39-4.23,4.2,4.2,0,0,1,4.31-4.18,4.35,4.35,0,0,1,4.38,4.23A4.21,4.21,0,0,1,154.46,125.58Z" style="fill:#fff;fill-rule:evenodd"/><path d="M53.07,165.85c9.48-9,21.39-14.46,22.48-25.32,1.48-14.77,30.9-52.06,51.67-46.69s23.08,5.37,43.86,0,46.88,31.92,48.36,46.69c1.2,11.91,15.41,17.27,25.15,28.05,1.25-1.18,2.33-2.15,3.21-2.87-8.16-17.45-26.67-20.26-28.15-35S192,78.62,171.21,84s-23.12,5.37-43.93,0S77,115.91,75.54,130.68s-17.72,13.73-25.89,31.18C50.57,162.9,51.73,164.26,53.07,165.85Z" style="fill:#ffd166;fill-rule:evenodd"/><path d="M93.38,186.49s-12,20.39-36.92,8c0,0,8.43.68,14.07-5.37,5.07-5.45,16.8-10.39,22.85-2.66" style="fill:#78e1f2;fill-rule:evenodd"/><path d="M71.68,200a35.52,35.52,0,0,1-15.89-4.12,1.52,1.52,0,0,1,.79-2.87c.08,0,7.79.52,12.84-4.89,3.37-3.62,9.86-7.4,16.14-7.12a11.7,11.7,0,0,1,9,4.56,1.53,1.53,0,0,1,.11,1.71C94.59,187.43,86.93,200,71.68,200Zm-9.15-4.59c17.19,5.7,26.58-5.41,29-8.79a8.7,8.7,0,0,0-6-2.59c-5.1-.23-10.79,2.93-13.79,6.16A18.41,18.41,0,0,1,62.53,195.41Z" style="fill:#163150"/><path d="M93.76,188.19s-4,23.35-31.6,20.72c0,0,8.12-2.38,11.21-10,2.79-6.91,12-15.72,20.39-10.67" style="fill:#78e1f2;fill-rule:evenodd"/><path d="M66.36,210.64c-1.38,0-2.82-.07-4.34-.22a1.51,1.51,0,0,1-.28-3c.07,0,7.46-2.31,10.23-9.17,1.84-4.59,6.55-10.43,12.51-12.43a11.76,11.76,0,0,1,10.06,1,1.53,1.53,0,0,1,.71,1.56C95.21,188.67,91.2,210.64,66.36,210.64Zm22.15-22.43a9.57,9.57,0,0,0-3.06.53c-4.83,1.61-9,6.6-10.67,10.69a18.34,18.34,0,0,1-6.63,8.13C86.18,206.71,91,193,92,189A8.35,8.35,0,0,0,88.51,188.21Z" style="fill:#163150"/><path d="M88.46,185.8a4.93,4.93,0,1,0,4.92-4.92,4.92,4.92,0,0,0-4.92,4.92" style="fill:#9165ff;fill-rule:evenodd"/><path d="M93.38,192.24a6.44,6.44,0,1,1,6.44-6.44A6.45,6.45,0,0,1,93.38,192.24Zm0-9.84a3.41,3.41,0,1,0,3.41,3.4A3.4,3.4,0,0,0,93.38,182.4Z" style="fill:#163150"/></g></svg>