<svg id="Layer_1" data-name="Layer 1" xmlns="http://www.w3.org/2000/svg" xmlns:xlink="http://www.w3.org/1999/xlink" viewBox="0 0 1000 1199"><defs><clipPath id="clip-path"><path id="path-1" d="M-3.65,597S-35.64,428.88-1,378.86c31-44.7,40.54-43.61,58.53-50.54,212.55-81.95,311.59,8.31,476.2-66.51,146.31-66.51,423.8-87.15,469.89,66.51L1002,597Z" style="fill:none;clip-rule:evenodd"/></clipPath><linearGradient id="linear-gradient" x1="299.6" y1="1605.09" x2="299.6" y2="1606.57" gradientTransform="matrix(1234, 0, 0, -479.22, -369212, 769759.84)" gradientUnits="userSpaceOnUse"><stop offset="0" stop-color="#84f3fb"/><stop offset="1" stop-color="#105bf8"/></linearGradient><linearGradient id="linear-gradient-2" x1="299.62" y1="1610.99" x2="299.62" y2="1612.85" gradientTransform="matrix(1249.92, 0, 0, -143.68, -373999.92, 232061.33)" gradientUnits="userSpaceOnUse"><stop offset="0" stop-color="#00cbfe"/><stop offset="1" stop-color="#057a97"/></linearGradient><mask id="mask" x="-828.87" y="210.19" width="1870.87" height="1056.89" maskUnits="userSpaceOnUse"><g id="mask-2"><path id="path-1-2" data-name="path-1" d="M-828.87,1267.08c48.68-79.45,140.33-129.52,313-122.11,429.81,18.44,594.14-60.83,605.25-229.52C95.08,828.71,84.3,787.24,56.05,752c-26.69-33.28-69-61-127.68-116-108.59-101.8-75.22-339.31,11.41-425.71,72.45,1.37,200-.12,258.9-.12h801.9V1267.08Z" style="fill:#fff;fill-rule:evenodd"/></g></mask><mask id="mask-2-2" x="-520.85" y="200.58" width="1243.96" height="718.65" maskUnits="userSpaceOnUse"><g id="mask-2-3" data-name="mask-2"><path id="path-1-3" data-name="path-1" d="M-520.85,919.23c33.1-54,95.42-88.07,212.83-83,292.25,12.54,404-41.36,411.54-156.07,3.88-59-3.45-87.18-22.65-111.12C62.72,546.38,34,527.54-5.95,490.13-79.79,420.91-57.1,259.41,1.81,200.66c49.26.93,136-.08,176-.08H723.11V919.23Z" style="fill:#fff;fill-rule:evenodd"/></g></mask><clipPath id="clip-path-2"><path d="M2041.61,878.51a2.89,2.89,0,0,1,.09.93,3.35,3.35,0,0,1-1.3,2.69,3.2,3.2,0,0,1-2.54.88,2.37,2.37,0,0,0-.9,0,8.58,8.58,0,0,1-.21,1.93,1.17,1.17,0,0,0,.63,1.09,3.17,3.17,0,0,1,2,0,1.91,1.91,0,0,1,1.35,1.63,3.86,3.86,0,0,1-.75,2.65,7.34,7.34,0,0,1-2.51,2.25,6.62,6.62,0,0,1-3.35.81,7.14,7.14,0,0,1-3.05-.63,6.63,6.63,0,0,1-1.73-1.69q-1.23-2.06-1.26-8.67a62.4,62.4,0,0,1,.63-8.71c.26-1.89.81-3.12,1.63-3.68l5.05-.52a12.11,12.11,0,0,1,2.47-.27c1.58,0,2.5.4,2.78,1.18a2.9,2.9,0,0,1,.19,1.09,2.65,2.65,0,0,1-1,2.11,4,4,0,0,1-2.69.82,5.94,5.94,0,0,1-.67,0,3.94,3.94,0,0,0-.24,1.45c0,.84-.07,1.33-.09,1.45a.72.72,0,0,0,.64.54,3.44,3.44,0,0,1,2.2-.69A3.06,3.06,0,0,1,2041.61,878.51Zm-24.14-2.6h0a1,1,0,0,0-.3-.06,4.68,4.68,0,0,0-.94.42,4.42,4.42,0,0,0-.09,1.54q0,1.66,0,3.15a5.38,5.38,0,0,0,1.95-1.14,2.13,2.13,0,0,0,.8-1.55A3.35,3.35,0,0,0,2017.47,875.91Zm8.64,14.08h0a6.09,6.09,0,0,1-1.42,1.84,4.73,4.73,0,0,1-2.63,1.33q-2.57.27-5.25-5.23a12.31,12.31,0,0,1,.09,1.36,4.54,4.54,0,0,1-.91,3,4.87,4.87,0,0,1-2.78,1,4.55,4.55,0,0,1-1.09-.12,4.23,4.23,0,0,1-2.32-1.15,5.34,5.34,0,0,1-.73-3.26v-1.21c-.06-.06,0-1.86.06-5.41a73.14,73.14,0,0,1,.7-9.15q.39-2.26,3.2-3.11a33,33,0,0,1,5.23-.79q4.62.15,6.34,3.08a13,13,0,0,1,1.27,5.38,6.71,6.71,0,0,1-1.36,4.2,22,22,0,0,1-1.72,1.6c2.27,2.46,3.41,4.51,3.41,6.17A3.61,3.61,0,0,1,2026.11,890ZM2006.9,872.8l0,0c.08.94.12,2,.12,3.17a36.28,36.28,0,0,1-2.21,12.81,7.9,7.9,0,0,1-1.8,2.8,5.94,5.94,0,0,1-2.55,1.64,16.84,16.84,0,0,1-2.42.18,9.62,9.62,0,0,1-5.62-1.57,7.77,7.77,0,0,1-3-4.2,19.3,19.3,0,0,1-.66-5.68,33.15,33.15,0,0,1,1-9.06,4.08,4.08,0,0,1,1.44-2,4.38,4.38,0,0,1,2.22-1,3,3,0,0,1,1.92.5,3.65,3.65,0,0,1,1.4,1.52,12.51,12.51,0,0,1,.09,1.54,33.9,33.9,0,0,1-.54,4.26,34.83,34.83,0,0,0-.54,4.2,9.41,9.41,0,0,0,.12,1.6,2.19,2.19,0,0,0,1,1,1.86,1.86,0,0,0,1.42-.24,4,4,0,0,0,1-2.24q0-2.06.09-5.28c.2-1.74.33-2.8.4-3.21a13.88,13.88,0,0,1,.57-2.63,3,3,0,0,1,2.48-1.72,3.61,3.61,0,0,1,2.38,1A6.34,6.34,0,0,1,2006.9,872.8Zm-19.64.33h0a6.29,6.29,0,0,1,.09,1.18,3.41,3.41,0,0,1-.73,2.29,6.34,6.34,0,0,1-2.43.71,10.49,10.49,0,0,0-2.22.53c0,.23.19,2.33.69,6.32a17.78,17.78,0,0,1,.16,2.42,12.2,12.2,0,0,1-.73,4.53c-.6,1.49-1.49,2.21-2.66,2.17-1.89-.06-3.21-.65-4-1.78a7.63,7.63,0,0,1-.87-4c0,.16,0-.89.12-3.17l.15-3.87a24,24,0,0,1,.39-3.14,1.82,1.82,0,0,1-.54.06,6.72,6.72,0,0,1-2.06-.33,3.26,3.26,0,0,1-1.9-1.33,4.68,4.68,0,0,1-.72-2.33,3.08,3.08,0,0,1,2-2.81,13.67,13.67,0,0,1,6.19-1.3,22.53,22.53,0,0,1,4,.37l3,1.11A3.47,3.47,0,0,1,1987.26,873.13Zm-19,2.24v0c.2,2.33.31,4.54.31,6.61q0,9.59-3.18,10.76a3.17,3.17,0,0,1-1.12.18,8.58,8.58,0,0,1-2-.3q-1.52-.86-4.62-9.7a20.24,20.24,0,0,1,.54,4.59,9.24,9.24,0,0,1-.72,4,2.8,2.8,0,0,1-1.2,1.19,2.59,2.59,0,0,1-1.64.41,3.89,3.89,0,0,1-3.42-3.05,20.53,20.53,0,0,1-.6-5.8,53.35,53.35,0,0,1,.63-10.27,5.65,5.65,0,0,1,2.21-3.24,3.71,3.71,0,0,1,2.23-.72,4.35,4.35,0,0,1,1.33.21c1.17.62,2.32,2.49,3.45,5.59a40.09,40.09,0,0,1,1.3,4.44c-.2-1.33-.38-2.5-.52-3.5a32.76,32.76,0,0,1-.36-3.9,3.74,3.74,0,0,1,.79-2.45,3.12,3.12,0,0,1,2.56-1.12q2.94,0,3.66,3.27A27.71,27.71,0,0,1,1968.25,875.37Zm-19.79,3.14a2.89,2.89,0,0,1,.09.93,3.35,3.35,0,0,1-1.3,2.69,3.19,3.19,0,0,1-2.53.88,2.42,2.42,0,0,0-.91,0,8.58,8.58,0,0,1-.21,1.93,1.17,1.17,0,0,0,.63,1.09,3.17,3.17,0,0,1,2,0,1.92,1.92,0,0,1,1.36,1.63,3.87,3.87,0,0,1-.76,2.65,7.34,7.34,0,0,1-2.51,2.25,6.62,6.62,0,0,1-3.35.81,7.17,7.17,0,0,1-3-.63,6.65,6.65,0,0,1-1.72-1.69Q1935,889,1935,882.35a62.4,62.4,0,0,1,.63-8.71c.26-1.89.81-3.12,1.63-3.68l5-.52a12.2,12.2,0,0,1,2.48-.27c1.57,0,2.49.4,2.78,1.18a3.12,3.12,0,0,1,.18,1.09,2.62,2.62,0,0,1-1,2.11,4,4,0,0,1-2.69.82,5.62,5.62,0,0,1-.66,0,3.94,3.94,0,0,0-.24,1.45c0,.84-.07,1.33-.09,1.45a.72.72,0,0,0,.63.54,3.45,3.45,0,0,1,2.21-.69A3.05,3.05,0,0,1,1948.46,878.51Zm-16.37-8c.76.55,1.15,1.6,1.15,3.17q0,5.08-5,16.44a5.1,5.1,0,0,1-4.08,3.2,4.46,4.46,0,0,1-.66.06,7,7,0,0,1-2.87-.6,4.43,4.43,0,0,1-2-1.6,25.43,25.43,0,0,1-3.11-7.62,31.26,31.26,0,0,1-.94-7.31,12.34,12.34,0,0,1,.37-3.59,3.52,3.52,0,0,1,1.75-2.06,4,4,0,0,1,2.14-.54,3.16,3.16,0,0,1,2.87,1.72,19.53,19.53,0,0,1,1.15,5.65l.4,3.78q.24-2.17.78-6.45t2.21-5.06a5.25,5.25,0,0,1,2.32-.52A5,5,0,0,1,1932.09,870.47Zm-26.83,6.74a1.15,1.15,0,0,0-.82-.51,1.16,1.16,0,0,0-.45.12l-.3.12a60.24,60.24,0,0,1,.42,7.13,4.76,4.76,0,0,0,1.47-1.79,5.28,5.28,0,0,0,.58-2.38A4.14,4.14,0,0,0,1905.26,877.21Zm7.55,2.72a15.52,15.52,0,0,1-1.81,7.52,10.45,10.45,0,0,1-6.56,5.38,10.16,10.16,0,0,1-4.24-.56q-1.89-.71-2-1.86-.54-8.07-.55-15.5c0-1.83,0-3.14.13-3.92q.75-1.63,4.86-1.64a14.17,14.17,0,0,1,4.14.55,9.12,9.12,0,0,1,3.44,2.9A11.55,11.55,0,0,1,1912.81,879.93Zm-25.2,2.69a46.44,46.44,0,0,0-.3-7.65q-.21-.21-.63.15c-.26,1.72-.46,3.11-.58,4.17a19.19,19.19,0,0,0-.21,3.21.52.52,0,0,0,.52.33,4.72,4.72,0,0,0,.61-.11A4.68,4.68,0,0,1,1887.61,882.62Zm7.65,7.91v0a2.19,2.19,0,0,1-1.78,1.82,6.83,6.83,0,0,1-1.58.18,3.89,3.89,0,0,1-2.41-.7,7.1,7.1,0,0,1-.79-1.15,4.51,4.51,0,0,1-.39-2,16.77,16.77,0,0,0-2.75.12,8.09,8.09,0,0,1,.12.82,5.53,5.53,0,0,1-.69,2.56,3,3,0,0,1-2.57,1.24,8.72,8.72,0,0,1-2-.3l-.06-.06c-1.71-.84-2.57-3-2.57-6.31,0-.23,0-.75.06-1.57a45,45,0,0,1,.88-7.44,18.11,18.11,0,0,1,3.2-6.83,6.12,6.12,0,0,1,5.17-2.32,6.63,6.63,0,0,1,5.47,2.26,8,8,0,0,1,1.54,3.12,45,45,0,0,1,1.66,11.21A28.36,28.36,0,0,1,1895.26,890.53Zm-36.56-14.62h0a1,1,0,0,0-.3-.06,1.25,1.25,0,0,0-1,2q0,1.66,0,3.15a5.38,5.38,0,0,0,2-1.14,2.13,2.13,0,0,0,.8-1.55A3.35,3.35,0,0,0,1858.7,875.91Zm8.64,14.08h0a6.09,6.09,0,0,1-1.42,1.84,4.73,4.73,0,0,1-2.63,1.33q-2.57.27-5.26-5.23a10.47,10.47,0,0,1,.1,1.36,4.54,4.54,0,0,1-.91,3,4.87,4.87,0,0,1-2.78,1,4.55,4.55,0,0,1-1.09-.12A4.23,4.23,0,0,1,1851,892a5.34,5.34,0,0,1-.73-3.26v-1.21c-.06-.06,0-1.86.06-5.41a73.14,73.14,0,0,1,.7-9.15c.26-1.51,1.32-2.55,3.2-3.11a33,33,0,0,1,5.22-.79c3.09.1,5.2,1.13,6.35,3.08a13,13,0,0,1,1.27,5.38,6.71,6.71,0,0,1-1.36,4.2,22,22,0,0,1-1.72,1.6c2.27,2.46,3.41,4.51,3.41,6.17A3.61,3.61,0,0,1,1867.34,890Zm-19.22-17.19,0,0c.08.94.12,2,.12,3.17a36.28,36.28,0,0,1-2.21,12.81,7.9,7.9,0,0,1-1.8,2.8,5.94,5.94,0,0,1-2.55,1.64,16.84,16.84,0,0,1-2.42.18,9.62,9.62,0,0,1-5.62-1.57,7.77,7.77,0,0,1-3-4.2,19.3,19.3,0,0,1-.66-5.68,33.15,33.15,0,0,1,1-9.06,4.08,4.08,0,0,1,1.44-2,4.31,4.31,0,0,1,2.22-1,3,3,0,0,1,1.92.5,3.65,3.65,0,0,1,1.4,1.52,12.51,12.51,0,0,1,.09,1.54,33.9,33.9,0,0,1-.54,4.26,34.83,34.83,0,0,0-.54,4.2,9.41,9.41,0,0,0,.12,1.6,2.21,2.21,0,0,0,1,1,1.84,1.84,0,0,0,1.42-.24,3.91,3.91,0,0,0,1-2.24q0-2.06.09-5.28c.2-1.74.33-2.8.39-3.21a14.57,14.57,0,0,1,.58-2.63,3,3,0,0,1,2.48-1.72,3.61,3.61,0,0,1,2.38,1A6.23,6.23,0,0,1,1848.12,872.8Zm-28.34,12.9v0c.59-.1.88-1.22.88-3.36a16.31,16.31,0,0,0-.33-3.39c-.22-1-.46-1.58-.73-1.62-.44-.12-.84.36-1.2,1.45a11.14,11.14,0,0,0-.55,3.6C1817.85,884.78,1818.5,885.9,1819.78,885.7Zm7.5,2.17,0,0a7.39,7.39,0,0,1-2.77,3.87,7.61,7.61,0,0,1-4.57,1.42,8.75,8.75,0,0,1-7.47-3.62,12.33,12.33,0,0,1-2.26-7.5,18.19,18.19,0,0,1,.36-3.74q1.67-7.89,7-8.89a5.56,5.56,0,0,1,1-.09,8.16,8.16,0,0,1,4.7,1.6,7.84,7.84,0,0,1,3.06,3.9,26.11,26.11,0,0,1,1.69,7.77,18.41,18.41,0,0,1-.87,5.25Zm-33.81-17.94h0a3.51,3.51,0,0,1,1.63-.4,2.83,2.83,0,0,1,2.69,1.49,7.37,7.37,0,0,1,1.27,2.65,28.21,28.21,0,0,0,.91,2.75q1.32-5.67,3.11-7.43a4.85,4.85,0,0,1,1.78-.33,3.31,3.31,0,0,1,2.27.75,3.89,3.89,0,0,1,1.6,3.48,18.85,18.85,0,0,1-1.54,5.41c-.51,1.12-1.35,2.79-2.54,5q0,1.31,0,3.84a10.06,10.06,0,0,1-.7,3.72,4.27,4.27,0,0,1-2.63,2.41,6.34,6.34,0,0,1-.69.06,3.4,3.4,0,0,1-3.35-1.9,9.58,9.58,0,0,1-.43-3.17c0-.63,0-1.21,0-1.76,0-.72,0-1.26,0-1.63q-5-8.46-5-12A3,3,0,0,1,1793.47,869.93Zm-11.12,3.2h0a6.29,6.29,0,0,1,.09,1.18,3.46,3.46,0,0,1-.72,2.29,6.42,6.42,0,0,1-2.44.71,10.49,10.49,0,0,0-2.22.53c0,.23.19,2.33.7,6.32a19.53,19.53,0,0,1,.15,2.42,12,12,0,0,1-.73,4.53c-.6,1.49-1.49,2.21-2.65,2.17-1.9-.06-3.22-.65-4-1.78a7.53,7.53,0,0,1-.88-4c0,.16,0-.89.12-3.17l.15-3.87a22.24,22.24,0,0,1,.4-3.14,1.9,1.9,0,0,1-.55.06,6.66,6.66,0,0,1-2-.33,3.29,3.29,0,0,1-1.91-1.33,4.68,4.68,0,0,1-.72-2.33,3.08,3.08,0,0,1,2-2.81,13.71,13.71,0,0,1,6.2-1.3,22.53,22.53,0,0,1,4,.37l3,1.11A3.47,3.47,0,0,1,1782.35,873.13Zm-27.28,2.78h0a1,1,0,0,0-.3-.06,1.25,1.25,0,0,0-1,2q0,1.66,0,3.15a5.55,5.55,0,0,0,2-1.14,2.13,2.13,0,0,0,.8-1.55A3.38,3.38,0,0,0,1755.07,875.91Zm8.64,14.08h0a6.25,6.25,0,0,1-1.42,1.84,4.73,4.73,0,0,1-2.63,1.33q-2.57.27-5.26-5.23a12.31,12.31,0,0,1,.09,1.36,4.54,4.54,0,0,1-.9,3,4.89,4.89,0,0,1-2.78,1,4.49,4.49,0,0,1-1.09-.12,4.31,4.31,0,0,1-2.33-1.15,5.42,5.42,0,0,1-.72-3.26v-1.21c-.06-.06,0-1.86.06-5.41a75.55,75.55,0,0,1,.69-9.15c.27-1.51,1.33-2.55,3.21-3.11a33,33,0,0,1,5.22-.79c3.09.1,5.2,1.13,6.35,3.08a13.13,13.13,0,0,1,1.27,5.38,6.77,6.77,0,0,1-1.36,4.2,22,22,0,0,1-1.72,1.6c2.27,2.46,3.41,4.51,3.41,6.17A3.61,3.61,0,0,1,1763.71,890Zm-27.16-7.37a46.44,46.44,0,0,0-.3-7.65c-.15-.14-.36-.09-.64.15q-.39,2.58-.57,4.17a18,18,0,0,0-.21,3.21.52.52,0,0,0,.51.33,4.74,4.74,0,0,0,.62-.11A4.39,4.39,0,0,1,1736.55,882.62Zm7.64,7.91v0a2.17,2.17,0,0,1-1.78,1.82,6.75,6.75,0,0,1-1.57.18,3.9,3.9,0,0,1-2.42-.7,8.86,8.86,0,0,1-.79-1.15,4.51,4.51,0,0,1-.39-2,16.82,16.82,0,0,0-2.75.12,8.09,8.09,0,0,1,.12.82,5.53,5.53,0,0,1-.69,2.56,2.94,2.94,0,0,1-2.57,1.24,8.64,8.64,0,0,1-2-.3l-.06-.06c-1.72-.84-2.57-3-2.57-6.31,0-.23,0-.75.06-1.57a44.1,44.1,0,0,1,.87-7.44,18.28,18.28,0,0,1,3.21-6.83,6.11,6.11,0,0,1,5.16-2.32,6.63,6.63,0,0,1,5.47,2.26A7.88,7.88,0,0,1,1743,874a45,45,0,0,1,1.66,11.21A28.36,28.36,0,0,1,1744.19,890.53Zm-18.91-17.4h0a6.29,6.29,0,0,1,.09,1.18,3.41,3.41,0,0,1-.73,2.29,6.34,6.34,0,0,1-2.43.71,10.49,10.49,0,0,0-2.22.53c0,.23.19,2.33.7,6.32a19.53,19.53,0,0,1,.15,2.42,12.2,12.2,0,0,1-.73,4.53c-.6,1.49-1.49,2.21-2.66,2.17-1.89-.06-3.21-.65-4-1.78a7.63,7.63,0,0,1-.87-4c0,.16,0-.89.12-3.17l.15-3.87a24,24,0,0,1,.39-3.14,1.82,1.82,0,0,1-.54.06,6.72,6.72,0,0,1-2.06-.33,3.26,3.26,0,0,1-1.9-1.33,4.68,4.68,0,0,1-.72-2.33,3.08,3.08,0,0,1,2-2.81,13.67,13.67,0,0,1,6.19-1.3,22.53,22.53,0,0,1,4,.37l3,1.11A3.47,3.47,0,0,1,1725.28,873.13ZM1697.15,887h0c.72-.18,1.1-.55,1.12-1.09a.83.83,0,0,0-.26-.57,14,14,0,0,0-1.92-1.3,14.37,14.37,0,0,1-2-1.48,8.23,8.23,0,0,1-1.6-2.3,8.62,8.62,0,0,1-.94-3.87,7,7,0,0,1,2.24-5.07,8.08,8.08,0,0,1,5.92-2.48,6.9,6.9,0,0,1,3.59.94,7.79,7.79,0,0,1,2.15,2.23,2.77,2.77,0,0,1,.51,1.36,3.25,3.25,0,0,1-.72,1.85l0,0a2.64,2.64,0,0,1-2,1.35,4.56,4.56,0,0,1-1-.15c-.65-.16-1-.72-1.12-1.69,0-.38-.33-.57-.88-.57a1.37,1.37,0,0,0-.75.21,2.39,2.39,0,0,0-.34,1.21,2.07,2.07,0,0,0,1,1.72q3.57,2.53,4.2,3.14a6.86,6.86,0,0,1,2.42,4.5c0,.39,0,.9.09,1.54q.06,3.9-4.69,6.08a8.14,8.14,0,0,1-3.38.81,5,5,0,0,1-.66-.06l-.06,0q-5.8-.93-6.26-4.38c-.08-.52-.13-.89-.16-1.1s-.05-.28-.05-.2a2.24,2.24,0,0,1,.48-1.42,1.41,1.41,0,0,1,1.09-.6,5.79,5.79,0,0,1,1.6.71,5,5,0,0,0,1.85.71,2.67,2.67,0,0,0,.51-.06Zm216.51-42.53a1.13,1.13,0,0,0-.82-.52,1.16,1.16,0,0,0-.45.12l-.3.12a60.39,60.39,0,0,1,.42,7.13,4.54,4.54,0,0,0,1.46-1.78,5.18,5.18,0,0,0,.59-2.39A4.13,4.13,0,0,0,1913.66,844.47Zm7.55,2.71a15.58,15.58,0,0,1-1.81,7.53,10.45,10.45,0,0,1-6.56,5.38,10.16,10.16,0,0,1-4.24-.56q-1.89-.72-2-1.86-.54-8.07-.55-15.5,0-2.74.12-3.93.76-1.63,4.87-1.63a14.53,14.53,0,0,1,4.14.54,9.21,9.21,0,0,1,3.44,2.9A11.65,11.65,0,0,1,1921.21,847.18Zm-17.55-4.56v0c.2,2.34.3,4.54.3,6.62q0,9.57-3.17,10.75a3,3,0,0,1-1.12.19,8.22,8.22,0,0,1-2-.31q-1.5-.84-4.62-9.69a20.26,20.26,0,0,1,.55,4.59,9.23,9.23,0,0,1-.73,4,2.83,2.83,0,0,1-1.19,1.19,2.7,2.7,0,0,1-1.65.41,3.87,3.87,0,0,1-3.41-3.05,20.17,20.17,0,0,1-.61-5.81c0-5.09.21-8.52.64-10.27a5.56,5.56,0,0,1,2.2-3.23,3.75,3.75,0,0,1,2.24-.73,4.16,4.16,0,0,1,1.33.22c1.17.62,2.31,2.48,3.44,5.59a35.17,35.17,0,0,1,1.3,4.44q-.3-2-.51-3.51a32.41,32.41,0,0,1-.36-3.9,3.76,3.76,0,0,1,.78-2.44,3.1,3.1,0,0,1,2.57-1.12q2.92,0,3.65,3.26A24.56,24.56,0,0,1,1903.66,842.62Zm-27.8,7.25a46.29,46.29,0,0,0-.3-7.64c-.14-.14-.35-.09-.64.15q-.39,2.57-.57,4.17a19.09,19.09,0,0,0-.21,3.2.53.53,0,0,0,.51.34,4.74,4.74,0,0,0,.62-.11A5.47,5.47,0,0,1,1875.86,849.87Zm7.64,7.92v0a2.15,2.15,0,0,1-1.78,1.81,6.75,6.75,0,0,1-1.57.18,4,4,0,0,1-2.42-.69A8.7,8.7,0,0,1,1877,858a4.54,4.54,0,0,1-.39-2,16.73,16.73,0,0,0-2.75.12q.06.27.12.81a5.47,5.47,0,0,1-.7,2.57,2.93,2.93,0,0,1-2.57,1.24,8.72,8.72,0,0,1-2-.3l-.06-.06c-1.71-.85-2.57-3-2.57-6.32,0-.22,0-.74.06-1.57A42.78,42.78,0,0,1,1867,845a18,18,0,0,1,3.2-6.83,6.12,6.12,0,0,1,5.17-2.33,6.65,6.65,0,0,1,5.47,2.27,8.11,8.11,0,0,1,1.54,3.11,45.57,45.57,0,0,1,1.66,11.21A27.64,27.64,0,0,1,1883.5,857.79ZM1847,843.17h0a1,1,0,0,0-.31-.06,4.47,4.47,0,0,0-.93.42,4.38,4.38,0,0,0-.09,1.54c0,1.11,0,2.15,0,3.14a5.53,5.53,0,0,0,2-1.13,2.13,2.13,0,0,0,.8-1.56A3.37,3.37,0,0,0,1847,843.17Zm8.64,14.08h0a6.38,6.38,0,0,1-1.42,1.84,4.79,4.79,0,0,1-2.63,1.33c-1.71.18-3.47-1.56-5.26-5.23a12.17,12.17,0,0,1,.09,1.36,4.49,4.49,0,0,1-.9,3,4.83,4.83,0,0,1-2.78,1,4.49,4.49,0,0,1-1.09-.12,4.34,4.34,0,0,1-2.33-1.15,5.42,5.42,0,0,1-.72-3.26v-1.21c-.06-.06,0-1.87.06-5.41a75.37,75.37,0,0,1,.69-9.15c.26-1.52,1.33-2.55,3.21-3.12a34.45,34.45,0,0,1,5.22-.78q4.62.15,6.35,3.08a13.09,13.09,0,0,1,1.27,5.38,6.77,6.77,0,0,1-1.36,4.2,23.27,23.27,0,0,1-1.73,1.6q3.42,3.69,3.42,6.16A3.85,3.85,0,0,1,1855.59,857.25Zm-19.16-11.49a3,3,0,0,1,.09.94,3.35,3.35,0,0,1-1.3,2.69,3.19,3.19,0,0,1-2.53.88,2.44,2.44,0,0,0-.91,0,8.63,8.63,0,0,1-.21,1.93,1.18,1.18,0,0,0,.63,1.09,3.17,3.17,0,0,1,2,0,1.91,1.91,0,0,1,1.36,1.63,3.83,3.83,0,0,1-.76,2.64,7.14,7.14,0,0,1-2.51,2.25,6.52,6.52,0,0,1-3.35.82,7,7,0,0,1-3-.64,6.48,6.48,0,0,1-1.72-1.69q-1.25-2.06-1.27-8.67a62.16,62.16,0,0,1,.63-8.7c.26-1.89.81-3.12,1.63-3.69l5-.51a12.13,12.13,0,0,1,2.48-.27c1.57,0,2.49.39,2.78,1.18a3.06,3.06,0,0,1,.18,1.08,2.65,2.65,0,0,1-1,2.12,4.06,4.06,0,0,1-2.69.82,5.62,5.62,0,0,1-.66,0,4.12,4.12,0,0,0-.25,1.45c0,.84-.07,1.32-.09,1.45a.74.74,0,0,0,.64.54,3.45,3.45,0,0,1,2.2-.7A3.08,3.08,0,0,1,1836.43,845.76Zm-15-5.37h0a6.17,6.17,0,0,1,.09,1.17,3.44,3.44,0,0,1-.73,2.3,6.55,6.55,0,0,1-2.43.71,9.78,9.78,0,0,0-2.22.53c0,.22.19,2.33.69,6.31a18,18,0,0,1,.16,2.42,12.16,12.16,0,0,1-.73,4.53c-.6,1.49-1.49,2.22-2.66,2.18a4.61,4.61,0,0,1-4-1.78,7.63,7.63,0,0,1-.87-4c0,.16,0-.9.12-3.17l.15-3.87a23.75,23.75,0,0,1,.39-3.14,1.82,1.82,0,0,1-.54.06,6.44,6.44,0,0,1-2.06-.34A3.22,3.22,0,0,1,1805,843a4.64,4.64,0,0,1-.72-2.32,3.07,3.07,0,0,1,2-2.81,13.54,13.54,0,0,1,6.19-1.3,23.47,23.47,0,0,1,4,.36l3,1.12A3.45,3.45,0,0,1,1821.48,840.39ZM1803,852.68v.46q0,.3,0,.42,0,4.41-3.36,6a9.3,9.3,0,0,1-4,.88,6.85,6.85,0,0,1-4.68-1.6q-3.81-3.36-3.78-9.43a33.43,33.43,0,0,1,.64-6,11.85,11.85,0,0,1,2.08-4.81,5.63,5.63,0,0,1,2.29-1.76,7.52,7.52,0,0,1,3.21-.68,7.05,7.05,0,0,1,3.73,1,7.4,7.4,0,0,1,2.71,2.79,5.16,5.16,0,0,1,.6,2.36,4.07,4.07,0,0,1-.6,2.27,2.93,2.93,0,0,1-2.18,1.54,4.11,4.11,0,0,1-3.74-1.91q0-.09-.12-.72c0-.32-.2-.47-.46-.45l-.3.54c-.2,4.27-.3,6.45-.3,6.56,0,.58,0,1.15.06,1.72a1.2,1.2,0,0,0,.72,1.12,5.44,5.44,0,0,0,2.41-1.55c1.13-1,1.91-1.51,2.34-1.51a2.44,2.44,0,0,1,1,.22A2.36,2.36,0,0,1,1803,852.68Zm-25.75-2.81a45.19,45.19,0,0,0-.3-7.64q-.21-.21-.63.15c-.26,1.71-.46,3.1-.58,4.17a19.09,19.09,0,0,0-.21,3.2.53.53,0,0,0,.52.34,5.05,5.05,0,0,0,.62-.11A5.51,5.51,0,0,1,1777.24,849.87Zm7.65,7.92v0a2.16,2.16,0,0,1-1.78,1.81,6.83,6.83,0,0,1-1.58.18,4,4,0,0,1-2.41-.69,8.16,8.16,0,0,1-.79-1.15,4.54,4.54,0,0,1-.39-2,16.77,16.77,0,0,0-2.75.12q.06.27.12.81a5.57,5.57,0,0,1-.69,2.57,2.94,2.94,0,0,1-2.57,1.24,8.72,8.72,0,0,1-2-.3l-.06-.06c-1.71-.85-2.56-3-2.56-6.32,0-.22,0-.74.06-1.57a44,44,0,0,1,.87-7.43,18.19,18.19,0,0,1,3.2-6.83,6.12,6.12,0,0,1,5.17-2.33,6.64,6.64,0,0,1,5.47,2.27,8,8,0,0,1,1.54,3.11,45.1,45.1,0,0,1,1.66,11.21A28.47,28.47,0,0,1,1784.89,857.79Zm-28.1-14.62h0a1,1,0,0,0-.3-.06,4.68,4.68,0,0,0-.94.42,4.38,4.38,0,0,0-.09,1.54c0,1.11,0,2.15,0,3.14a5.36,5.36,0,0,0,2-1.13,2.13,2.13,0,0,0,.8-1.56A3.33,3.33,0,0,0,1756.79,843.17Zm8.64,14.08h0a6.21,6.21,0,0,1-1.42,1.84,4.79,4.79,0,0,1-2.63,1.33q-2.56.27-5.25-5.23a12.17,12.17,0,0,1,.09,1.36,4.49,4.49,0,0,1-.91,3,4.81,4.81,0,0,1-2.78,1,4.55,4.55,0,0,1-1.09-.12,4.3,4.3,0,0,1-2.32-1.15,5.34,5.34,0,0,1-.73-3.26v-1.21c-.06-.06,0-1.87.06-5.41a73,73,0,0,1,.7-9.15c.26-1.52,1.33-2.55,3.2-3.12a34.65,34.65,0,0,1,5.23-.78q4.62.15,6.34,3.08a12.94,12.94,0,0,1,1.27,5.38,6.71,6.71,0,0,1-1.36,4.2c-.14.18-.72.71-1.72,1.6q3.4,3.69,3.41,6.16A3.85,3.85,0,0,1,1765.43,857.25Zm-27.16-7.38a46.29,46.29,0,0,0-.3-7.64c-.14-.14-.36-.09-.64.15q-.39,2.57-.57,4.17a19.09,19.09,0,0,0-.21,3.2.53.53,0,0,0,.51.34,4.74,4.74,0,0,0,.62-.11A5.47,5.47,0,0,1,1738.27,849.87Zm7.64,7.92v0a2.15,2.15,0,0,1-1.78,1.81,6.75,6.75,0,0,1-1.57.18,4,4,0,0,1-2.42-.69,8.7,8.7,0,0,1-.78-1.15,4.54,4.54,0,0,1-.4-2,16.82,16.82,0,0,0-2.75.12,5.7,5.7,0,0,1,.13.81,5.59,5.59,0,0,1-.7,2.57,2.93,2.93,0,0,1-2.57,1.24,8.64,8.64,0,0,1-2-.3l-.06-.06c-1.71-.85-2.57-3-2.57-6.32,0-.22,0-.74.06-1.57a42.78,42.78,0,0,1,.88-7.43,18,18,0,0,1,3.2-6.83,6.12,6.12,0,0,1,5.17-2.33,6.62,6.62,0,0,1,5.46,2.27,8,8,0,0,1,1.55,3.11,45.57,45.57,0,0,1,1.66,11.21A27.64,27.64,0,0,1,1745.91,857.79Zm-35.68-19.4h0a4.59,4.59,0,0,1,3.36-1.33,5,5,0,0,1,2.47.46,3.91,3.91,0,0,1,.94,2.75c-.12,1-.21,2.3-.27,4,.24.89.6,1.33,1.08,1.33a2.26,2.26,0,0,0,.85-.27c.22-.1.39-.51.51-1.24-.12-1-.2-2.49-.24-4.32a3.6,3.6,0,0,1,2-2.72,4.88,4.88,0,0,1,1.78-.27,6.41,6.41,0,0,1,1.42.06,2.58,2.58,0,0,1,1.81,2.06q.15.51.33,1a8.25,8.25,0,0,1,.31,2q.18,4.23.18,6.34a36.26,36.26,0,0,1-1.54,9.85,3.14,3.14,0,0,1-2.66,2.12,2.79,2.79,0,0,1-2.24-.28,3.19,3.19,0,0,1-1.33-2.5,10,10,0,0,1,0-1.73,13.53,13.53,0,0,0,.07-1.72.89.89,0,0,0-1-.75,1.94,1.94,0,0,0-1.91,2c.1.4.25,1.12.43,2.15a3,3,0,0,1-.09,1.57,2.34,2.34,0,0,1-1.18,1.18,5.61,5.61,0,0,1-2,.24,3,3,0,0,1-2.29-1,6.41,6.41,0,0,1-1.27-2.69,18.24,18.24,0,0,1-.67-4.62q-.09-3.66-.09-6.25C1709.05,842,1709.45,839.54,1710.23,838.39Zm-2.84,14.29v.46q0,.3,0,.42,0,4.41-3.35,6a9.3,9.3,0,0,1-4,.88,6.85,6.85,0,0,1-4.68-1.6q-3.81-3.36-3.78-9.43a33.34,33.34,0,0,1,.63-6,11.87,11.87,0,0,1,2.09-4.81,5.53,5.53,0,0,1,2.28-1.76,7.59,7.59,0,0,1,3.22-.68,7.08,7.08,0,0,1,3.73,1,7.3,7.3,0,0,1,2.7,2.79,5,5,0,0,1,.61,2.36,4,4,0,0,1-.61,2.27,2.92,2.92,0,0,1-2.17,1.54,4.14,4.14,0,0,1-3.75-1.91q0-.09-.12-.72t-.45-.45l-.3.54c-.21,4.27-.31,6.45-.31,6.56,0,.58,0,1.15.06,1.72a1.21,1.21,0,0,0,.73,1.12,5.48,5.48,0,0,0,2.4-1.55c1.14-1,1.92-1.51,2.34-1.51a2.48,2.48,0,0,1,1,.22A2.36,2.36,0,0,1,1707.39,852.68Zm167.72-42.26h0a1.1,1.1,0,0,0-.31-.06,4.23,4.23,0,0,0-.93.43,4.38,4.38,0,0,0-.09,1.54c0,1.1,0,2.15,0,3.14a5.4,5.4,0,0,0,1.94-1.13,2.15,2.15,0,0,0,.81-1.56A3.38,3.38,0,0,0,1875.11,810.42Zm8.64,14.08h0a6.3,6.3,0,0,1-1.42,1.84,4.76,4.76,0,0,1-2.63,1.33c-1.71.19-3.47-1.56-5.26-5.22a12,12,0,0,1,.09,1.36,4.46,4.46,0,0,1-.91,3,4.84,4.84,0,0,1-2.77,1,4.49,4.49,0,0,1-1.09-.12,4.35,4.35,0,0,1-2.33-1.14,5.48,5.48,0,0,1-.72-3.27V822q-.09-.09.06-5.4a75.75,75.75,0,0,1,.69-9.16q.39-2.26,3.2-3.11a35.85,35.85,0,0,1,5.23-.79q4.62.15,6.35,3.09a13,13,0,0,1,1.26,5.37,6.67,6.67,0,0,1-1.36,4.2,20.1,20.1,0,0,1-1.72,1.6q3.42,3.69,3.42,6.17A3.61,3.61,0,0,1,1883.75,824.5Zm-19.22-17.19,0,0c.08,1,.12,2,.12,3.17a36.2,36.2,0,0,1-2.2,12.81,8.18,8.18,0,0,1-1.8,2.8,6.06,6.06,0,0,1-2.55,1.64,15.65,15.65,0,0,1-2.42.19,9.6,9.6,0,0,1-5.62-1.58,7.73,7.73,0,0,1-3-4.19,19,19,0,0,1-.67-5.69,33.11,33.11,0,0,1,1.06-9.06,4,4,0,0,1,1.44-2,4.25,4.25,0,0,1,2.22-1,3,3,0,0,1,1.91.5,3.61,3.61,0,0,1,1.41,1.52,12.68,12.68,0,0,1,.09,1.55,34.34,34.34,0,0,1-.54,4.26,33.23,33.23,0,0,0-.55,4.19,9.61,9.61,0,0,0,.12,1.61,2.27,2.27,0,0,0,1,1,1.85,1.85,0,0,0,1.42-.24,4,4,0,0,0,1-2.23c0-1.37,0-3.14.09-5.29.2-1.73.33-2.8.39-3.2a13.52,13.52,0,0,1,.57-2.63,3,3,0,0,1,2.48-1.72,3.68,3.68,0,0,1,2.39,1A6.39,6.39,0,0,1,1864.53,807.31Zm-28.34,12.9v0c.58-.1.88-1.22.88-3.35a15.73,15.73,0,0,0-.34-3.4q-.33-1.56-.72-1.62c-.44-.12-.85.37-1.21,1.45a11.43,11.43,0,0,0-.54,3.6C1834.26,819.3,1834.9,820.41,1836.19,820.21Zm7.49,2.18,0,0a7.33,7.33,0,0,1-2.76,3.86,7.64,7.64,0,0,1-4.58,1.42,8.7,8.7,0,0,1-7.46-3.62,12.31,12.31,0,0,1-2.27-7.49,17.66,17.66,0,0,1,.37-3.75q1.65-7.89,7-8.88a5.53,5.53,0,0,1,1-.09,8.07,8.07,0,0,1,4.7,1.6,7.87,7.87,0,0,1,3.07,3.9,26.06,26.06,0,0,1,1.69,7.76,18.22,18.22,0,0,1-.88,5.26Zm-33.81-17.95h0a3.47,3.47,0,0,1,1.63-.39,2.83,2.83,0,0,1,2.69,1.48,7.37,7.37,0,0,1,1.26,2.66c.53,1.69.83,2.61.91,2.75.89-3.79,1.92-6.27,3.11-7.44a4.9,4.9,0,0,1,1.79-.33,3.24,3.24,0,0,1,2.26.76,3.83,3.83,0,0,1,1.6,3.47,18.45,18.45,0,0,1-1.54,5.41q-.75,1.7-2.54,5,0,1.31,0,3.84a10.28,10.28,0,0,1-.69,3.72,4.29,4.29,0,0,1-2.63,2.42,6.34,6.34,0,0,1-.69.06,3.42,3.42,0,0,1-3.36-1.91,9.84,9.84,0,0,1-.42-3.17c0-.62,0-1.21,0-1.75,0-.73,0-1.27,0-1.63q-4.95-8.46-5-12A3,3,0,0,1,1809.87,804.44ZM1798.21,813a3,3,0,0,1,.09.94,3.37,3.37,0,0,1-1.3,2.69,3.21,3.21,0,0,1-2.53.87,2.42,2.42,0,0,0-.91,0,8.7,8.7,0,0,1-.21,1.94,1.17,1.17,0,0,0,.63,1.08,3.17,3.17,0,0,1,2,0,1.94,1.94,0,0,1,1.36,1.64,3.86,3.86,0,0,1-.76,2.64,7.14,7.14,0,0,1-2.51,2.25,6.62,6.62,0,0,1-3.35.82,7.14,7.14,0,0,1-3-.64,6.48,6.48,0,0,1-1.72-1.69q-1.24-2.06-1.27-8.67a62.16,62.16,0,0,1,.63-8.7c.26-1.9.81-3.13,1.63-3.69l5-.51a12.2,12.2,0,0,1,2.48-.27c1.57,0,2.49.39,2.78,1.17a3.16,3.16,0,0,1,.18,1.09,2.64,2.64,0,0,1-1,2.12,4.06,4.06,0,0,1-2.69.81,5.62,5.62,0,0,1-.66,0,4,4,0,0,0-.24,1.45c-.05.85-.08,1.33-.1,1.45a.74.74,0,0,0,.64.55,3.39,3.39,0,0,1,2.2-.7A3.06,3.06,0,0,1,1798.21,813Zm-25,8.49h0c.72-.18,1.09-.54,1.11-1.09a.82.82,0,0,0-.25-.57,14,14,0,0,0-1.92-1.3,13.81,13.81,0,0,1-2-1.48,8.5,8.5,0,0,1-1.6-2.3,8.7,8.7,0,0,1-.93-3.86,7,7,0,0,1,2.23-5.08,8.09,8.09,0,0,1,5.92-2.48,7,7,0,0,1,3.6.94,7.84,7.84,0,0,1,2.14,2.24,2.64,2.64,0,0,1,.52,1.35,3.21,3.21,0,0,1-.73,1.85l0,0a2.64,2.64,0,0,1-2,1.36,4.73,4.73,0,0,1-1-.15c-.64-.16-1-.73-1.12-1.7q-.06-.57-.87-.57a1.4,1.4,0,0,0-.76.21,2.51,2.51,0,0,0-.33,1.21,2,2,0,0,0,1,1.72q3.55,2.53,4.2,3.14a6.86,6.86,0,0,1,2.41,4.51c0,.38.05.89.09,1.54q.06,3.9-4.68,6.07a8.19,8.19,0,0,1-3.38.82,5.23,5.23,0,0,1-.67-.06l-.06,0c-3.86-.63-6-2.09-6.25-4.39-.08-.52-.14-.89-.17-1.1s0-.28,0-.19a2.2,2.2,0,0,1,.48-1.42,1.38,1.38,0,0,1,1.09-.61,6.31,6.31,0,0,1,1.6.71,5.08,5.08,0,0,0,1.84.71,2.85,2.85,0,0,0,.52-.06Zm-15.65-1.3v0c.58-.1.87-1.22.87-3.35a16.41,16.41,0,0,0-.33-3.4c-.22-1-.46-1.58-.73-1.62-.44-.12-.84.37-1.2,1.45a11.14,11.14,0,0,0-.55,3.6C1755.64,819.3,1756.29,820.41,1757.58,820.21Zm7.49,2.18,0,0a7.35,7.35,0,0,1-2.77,3.86,7.59,7.59,0,0,1-4.57,1.42,8.72,8.72,0,0,1-7.47-3.62,12.3,12.3,0,0,1-2.26-7.49,18.36,18.36,0,0,1,.36-3.75q1.66-7.89,7-8.88a5.64,5.64,0,0,1,1-.09,8.07,8.07,0,0,1,4.7,1.6,7.8,7.8,0,0,1,3.06,3.9,26.06,26.06,0,0,1,1.69,7.76,18.53,18.53,0,0,1-.87,5.26Zm-27.13-2.18v0c.58-.1.87-1.22.87-3.35a16.41,16.41,0,0,0-.33-3.4q-.33-1.56-.72-1.62c-.45-.12-.85.37-1.21,1.45a11.14,11.14,0,0,0-.55,3.6C1736,819.3,1736.65,820.41,1737.94,820.21Zm7.49,2.18,0,0a7.33,7.33,0,0,1-2.76,3.86,7.64,7.64,0,0,1-4.58,1.42,8.7,8.7,0,0,1-7.46-3.62,12.31,12.31,0,0,1-2.27-7.49,18.36,18.36,0,0,1,.36-3.75q1.66-7.89,7-8.88a5.64,5.64,0,0,1,1-.09,8.07,8.07,0,0,1,4.7,1.6,7.8,7.8,0,0,1,3.06,3.9,26.14,26.14,0,0,1,1.7,7.76,18.57,18.57,0,0,1-.88,5.26Zm-35.2-16.74h0a4.55,4.55,0,0,1,3.36-1.33,5.16,5.16,0,0,1,2.47.45,3.93,3.93,0,0,1,.94,2.75q-.18,1.49-.27,4c.24.89.6,1.33,1.08,1.33a2.26,2.26,0,0,0,.85-.27c.22-.1.39-.52.51-1.24q-.18-1.57-.24-4.32a3.59,3.59,0,0,1,2-2.72,4.88,4.88,0,0,1,1.78-.27,6.41,6.41,0,0,1,1.42.06,2.57,2.57,0,0,1,1.81,2.05c.1.34.21.69.33,1a8.17,8.17,0,0,1,.31,2q.18,4.23.18,6.35a36.32,36.32,0,0,1-1.54,9.85,3.12,3.12,0,0,1-2.66,2.11,2.83,2.83,0,0,1-2.24-.27,3.21,3.21,0,0,1-1.33-2.51,9.88,9.88,0,0,1,0-1.72,13.53,13.53,0,0,0,.07-1.72.9.9,0,0,0-1-.76,2,2,0,0,0-1.91,2.06c.1.4.25,1.12.43,2.14a3,3,0,0,1-.09,1.57,2.27,2.27,0,0,1-1.18,1.18,5.61,5.61,0,0,1-2,.24,3,3,0,0,1-2.29-1,6.48,6.48,0,0,1-1.27-2.69,18.24,18.24,0,0,1-.67-4.62q-.09-3.66-.09-6.26C1709.05,809.29,1709.45,806.8,1710.23,805.65Zm-2.84,14.29v.45c0,.2,0,.35,0,.43q0,4.41-3.35,6a9.43,9.43,0,0,1-4,.87,6.8,6.8,0,0,1-4.68-1.6q-3.81-3.35-3.78-9.42a33.44,33.44,0,0,1,.63-6,11.82,11.82,0,0,1,2.09-4.8,5.55,5.55,0,0,1,2.28-1.77,7.75,7.75,0,0,1,3.22-.68,7.17,7.17,0,0,1,3.73,1,7.33,7.33,0,0,1,2.7,2.8,5,5,0,0,1,.61,2.36,4,4,0,0,1-.61,2.26,2.89,2.89,0,0,1-2.17,1.54,4.13,4.13,0,0,1-3.75-1.9c0-.06-.06-.3-.12-.73s-.19-.47-.45-.45l-.3.55q-.32,6.4-.31,6.55c0,.59,0,1.16.06,1.72a1.19,1.19,0,0,0,.73,1.12,5.43,5.43,0,0,0,2.4-1.54c1.14-1,1.92-1.51,2.34-1.51a2.64,2.64,0,0,1,1,.21A2.37,2.37,0,0,1,1707.39,819.94Z" style="fill:none;clip-rule:evenodd"/></clipPath><clipPath id="clip-path-4"><rect x="1681.93" y="795.47" width="369.41" height="109.52" style="fill:none"/></clipPath></defs><title>home-bg--mobile</title><rect x="-12" y="-7.46" width="1041" height="540" style="fill:#fff"/><rect x="-2" y="196.54" width="1003" height="184" style="fill:#fff"/><rect id="bg__sand" y="551.78" width="1000" height="648.76" style="fill:#ffd166"/><g style="clip-path:url(#clip-path)"><polygon id="bg__sky" points="0 204.61 1001 204.61 1001 559.39 0 562.54 0 204.61" style="fill-rule:evenodd;fill:url(#linear-gradient)"/></g><path id="Rectangle-Copy-8" d="M0,462.54v112c151.94-10.13,187-9.5,256.26-9.18,121.81.56,148.84,6.38,237.46,12.8,4.4.32,109.28,8.11,149.53,11l15.82,1.15c96.53,6.94,158.32,10.88,175.5,10.88q112.53,0,154.37-1.12,7.74-.21,13.06-.45h-.16l-1.31-.11-1-136.62Z" style="fill-rule:evenodd;fill:url(#linear-gradient-2)"/><path d="M834.57,602.71c-16.34,0-73.78-3.56-175.61-10.89l-15.82-1.14c-30.52-2.21-98.43-7.24-131.06-9.65l-18.47-1.37c-23-1.67-41.47-3.26-59.32-4.8-49.11-4.24-87.91-7.58-178-8l-8.19,0c-63.72-.31-102.18-.5-248,9.22l-1.6.11V461L1001,461.4,1002,598.13h.09l0,3c-3.56.16-8,.31-13.09.45C961.2,602.33,909.25,602.71,834.57,602.71Zm-616.84-39c9.82,0,19.73,0,30.35.1l8.19,0c90.25.42,129.1,3.77,178.28,8,17.84,1.54,36.28,3.13,59.28,4.8L512.3,578c32.63,2.42,100.54,7.45,131.05,9.66l15.83,1.14c101.75,7.32,159.12,10.88,175.39,10.88,74.65,0,126.58-.38,154.33-1.12,3.78-.1,7.18-.21,10.12-.33L998,464.4,1.5,464v108.9C121.93,564.93,168.72,563.72,217.73,563.72Z" style="fill:#163150"/><path d="M322.56,510h0L226,508.72a1,1,0,1,1,0-1.92h0l96.56,1.29a1,1,0,0,1,0,1.92Z" style="fill:#163150"/><path d="M638.49,542.85h0l-96.56-1.29a1,1,0,0,1,0-1.93h0l96.56,1.29a1,1,0,0,1,0,1.93Z" style="fill:#163150"/><path d="M471,485.59H409.33a1,1,0,0,1,0-1.92H471a1,1,0,1,1,0,1.92Z" style="fill:#163150"/><path d="M758.59,532.94H719.15a1,1,0,0,1,0-1.93h39.44a1,1,0,0,1,0,1.93Z" style="fill:#163150"/><path d="M985.87,490.68H946.43a1,1,0,0,1,0-1.93h39.44a1,1,0,0,1,0,1.93Z" style="fill:#163150"/><path d="M813.51,508.49H568.33a1,1,0,0,1,0-1.93H813.51a1,1,0,0,1,0,1.93Z" style="fill:#163150"/><g style="mask:url(#mask)"><g id="bg__cloud-1"><polygon points="797.54 250.04 773.59 245.45 765.6 268.5 742.55 276.49 747.14 300.44 731.2 318.89 747.14 337.35 742.55 361.3 765.6 369.29 773.59 392.34 797.54 387.75 816 403.69 834.45 387.75 858.4 392.34 866.39 369.29 889.44 361.3 884.85 337.35 900.79 318.89 884.85 300.44 889.44 276.49 866.39 268.5 858.4 245.45 834.45 250.04 816 234.1 797.54 250.04" style="fill:#ffd166;fill-rule:evenodd"/><path d="M816,404.75l-18.68-16.14-24.26,4.65L765,369.92l-23.34-8.09,4.65-24.25-16.14-18.69,16.14-18.68L741.63,276,765,267.87l8.08-23.34,24.26,4.65L816,233l18.69,16.15,24.26-4.65L867,267.87,890.36,276l-4.64,24.26,16.13,18.68-16.13,18.69,4.64,24.25L867,369.92l-8.08,23.34-24.26-4.65Zm-18.22-17.86L816,402.63l18.23-15.74,23.65,4.53,7.89-22.76,22.76-7.89L884,337.12l15.74-18.23L884,300.67,888.52,277l-22.76-7.89-7.89-22.76-23.65,4.53L816,235.16,797.77,250.9l-23.65-4.53-7.88,22.76L743.47,277,748,300.67l-15.74,18.22L748,337.12l-4.53,23.65,22.76,7.88,7.89,22.77Z" style="fill:#163150"/><path d="M816,405.57l-18.86-16.29L772.64,394l-8.16-23.57-23.56-8.16,4.69-24.48-16.29-18.87L745.61,300l-4.69-24.49,23.56-8.16,8.17-23.56,24.48,4.69L816,232.22l18.87,16.29,24.48-4.69,8.16,23.56,23.57,8.16L886.38,300l16.29,18.86-16.29,18.87,4.69,24.48-23.56,8.17L859.34,394l-24.48-4.69Zm-18-19.36,18,15.58,18-15.58,23.41,4.49,7.81-22.54,22.53-7.81-4.48-23.41,15.58-18.05-15.58-18,4.49-23.42-22.54-7.8-7.81-22.54L834,251.58,816,236l-18,15.59-23.42-4.49-7.8,22.54-22.54,7.8,4.49,23.42-15.59,18,15.59,18.05-4.49,23.41,22.54,7.81,7.8,22.54Z" style="fill:#16314f"/><path d="M876.83,318.89A60.84,60.84,0,1,1,816,258.05a60.84,60.84,0,0,1,60.84,60.84" style="fill:#ffefad;fill-rule:evenodd"/><path d="M816,381.16a62.27,62.27,0,1,1,62.27-62.27A62.33,62.33,0,0,1,816,381.16Zm0-121.68a59.41,59.41,0,1,0,59.42,59.41A59.48,59.48,0,0,0,816,259.48Z" style="fill:#163150"/><path d="M816,380a61.15,61.15,0,1,1,61.15-61.15A61.21,61.21,0,0,1,816,380Zm0-121.68a60.53,60.53,0,1,0,60.53,60.53A60.61,60.61,0,0,0,816,258.36Z" style="fill:#16314f"/><path d="M851.66,269.62a60.83,60.83,0,0,1-75.27,95.44,60.83,60.83,0,1,0,75.27-95.44" style="fill:#16314f;fill-rule:evenodd"/><path d="M816.11,298.74c3.29-3.06,6.57-6,9.75-9.11,3.66-3.54,7.74-3.61,11.42,0q6.26,6.06,12.45,12.17a6.83,6.83,0,0,1,.73,9.35,4.63,4.63,0,0,1-7.37.67c-2.07-1.94-4.07-3.94-6.11-5.91-3.35-3.22-7.61-3.26-11-.07-2.06,1.95-4.07,3.94-6.12,5.9-2.74,2.63-5,2.61-7.79-.07-1.93-1.86-3.85-3.75-5.8-5.6a7.49,7.49,0,0,0-10.67-.12c-1.83,1.67-3.57,3.42-5.28,5.19-2.66,2.76-4.88,3.46-7.08,2.15a6.71,6.71,0,0,1-2.49-8.15,10,10,0,0,1,2.09-3q6.23-6.22,12.59-12.33c3.62-3.49,7.6-3.45,11.25,0,3.15,3,6.31,6,9.4,8.91" style="fill:#ffd166;fill-rule:evenodd"/><path d="M837.88,327.74c-.94,1.71-1.56,3.69-2.88,5.07-4.21,4.4-8.66,8.61-13.06,12.85-3.94,3.78-8.12,3.74-12.06-.05q-6.54-6.28-13-12.61c-2.82-2.76-3.26-6.3-1.26-9.36s5.45-3.57,8.22-.92c2.1,2,4.14,4.08,6.26,6.08,3.54,3.36,8.1,3.33,11.65,0,1.85-1.76,3.72-3.49,5.51-5.3s3.46-3.2,6.19-2.22c2.18.77,3.89,3.52,4.45,6.49" style="fill:#ffd166;fill-rule:evenodd"/><path d="M608,426.45H1006.6v-.05l1.28-.13a36.33,36.33,0,0,0,14-67.92l-.93-.51.22-1a80.38,80.38,0,0,0-141.91-66.46l-.42.55h-.69a41.36,41.36,0,0,0-40.64,35.44l-.4,2.74-2-1.91a53.94,53.94,0,0,0-75.92,1.51l-1.09,1.13-1-1.19a53.94,53.94,0,0,0-94.53,28.77l-.09.72-.63.36a36.52,36.52,0,0,0-11.58,10.3l-.8,1.1-1.14-.75a24.37,24.37,0,0,0-37.72,20.39c0,.2,0,.4,0,.59l0,1.47h-1.47a17.44,17.44,0,0,0-2.32,34.73Z" style="fill:#fff;fill-rule:evenodd"/><path d="M1006.6,427.88H607.87l-1.24-.17a18.87,18.87,0,0,1,2.51-37.58h0c0-.21,0-.42,0-.63a25.8,25.8,0,0,1,39.94-21.58h0a38.33,38.33,0,0,1,12-10.71h0a55.37,55.37,0,0,1,97-29.53h0a55.35,55.35,0,0,1,77.93-1.55h0a43,43,0,0,1,42-36.67,81.82,81.82,0,0,1,144.43,67.64A37.76,37.76,0,0,1,1008,427.69v.13ZM608.06,425h398.08l.32,0,1.28-.13a34.9,34.9,0,0,0,13.42-65.25l-1.85-1,.45-2.07a79,79,0,0,0-77.17-95.64,78.51,78.51,0,0,0-62.22,30.36l-.85,1.09h-1.38a40.14,40.14,0,0,0-39.24,34.21l-.79,5.49-4-3.82a52.5,52.5,0,0,0-73.91,1.47L758,331.91l-2-2.37a52.5,52.5,0,0,0-92,28l-.17,1.45-1.27.71a35.4,35.4,0,0,0-11.12,9.9l-1.6,2.2-2.28-1.49A22.94,22.94,0,0,0,612,389.5c0,.19,0,.37,0,.56l.07,2.93h-2.93a16,16,0,0,0-2.15,31.9Z" style="fill:#2a455f"/><path d="M719.18,425.88q-11.82-.09-26.68-.29H604.66S587,419.25,590.27,409q3.24-10.25,16.36-14.75l5.34-4.12,2-11.33,16.21-12.58q16.44.91,19.72,6.8c-12.62,30.1,26.1,51.84,87.24,51,33.26-3.93,62.15-10.2,82.14-22.32,23.86-14.47,32.2-43.89,19.75-67.69-1.36-12,1.52-23.14,14.22-33.75q12.71-10.61,26.84-7.78Q866.61,329.65,887,359.9C902.6,383,962.1,409,999.63,366.22q-.09,12.78,0,59.83-323.8,3.78-282.27,0Z" style="fill:#d3e6f2;fill-rule:evenodd;opacity:0.284853994846344;isolation:isolate"/></g></g><g style="mask:url(#mask-2-2)"><g id="bg__cloud-3"><path d="M-151.33,387H119.73v0l.87-.09a24.7,24.7,0,0,0,9.5-46.18l-.63-.35.15-.7a54.65,54.65,0,0,0-96.49-45.19l-.29.37h-.47a28.12,28.12,0,0,0-27.63,24.1l-.27,1.86-1.36-1.3a36.58,36.58,0,0,0-25.3-10.11A36.57,36.57,0,0,0-48.52,320.5l-.74.76-.69-.8A36.58,36.58,0,0,0-77.8,307.64,36.69,36.69,0,0,0-114.23,340l0,.49-.44.24a24.94,24.94,0,0,0-7.87,7l-.54.75-.78-.51a16.43,16.43,0,0,0-9.08-2.71,16.57,16.57,0,0,0-16.57,16.57c0,.14,0,.27,0,.4l0,1h-1a11.86,11.86,0,0,0-11.86,11.86,11.86,11.86,0,0,0,10.28,11.76Z" style="fill:#fff;fill-rule:evenodd"/><path d="M119.73,388H-151.39l-.85-.12a12.86,12.86,0,0,1-11.12-12.72,12.84,12.84,0,0,1,12.83-12.83h0c0-.14,0-.29,0-.43A17.56,17.56,0,0,1-133,344.32a17.44,17.44,0,0,1,9.62,2.87,25.93,25.93,0,0,1,8.18-7.28h0A37.62,37.62,0,0,1-77.8,306.67a37.66,37.66,0,0,1,28.59,13.15,37.36,37.36,0,0,1,27-11.44,37.48,37.48,0,0,1,26,10.39h0a29.25,29.25,0,0,1,28.59-24.93,55.63,55.63,0,0,1,98.2,46h0a25.67,25.67,0,0,1-9.87,48v.09Zm-271-1.95H119.41l.22,0,.88-.08a23.73,23.73,0,0,0,9.12-44.37l-1.26-.7.3-1.41a53.7,53.7,0,0,0-52.46-65A53.38,53.38,0,0,0,33.9,295l-.58.74h-.94A27.3,27.3,0,0,0,5.7,319.05l-.54,3.73-2.72-2.6a35.58,35.58,0,0,0-24.63-9.85,35.42,35.42,0,0,0-25.63,10.85l-1.48,1.52-1.39-1.61A35.67,35.67,0,0,0-77.8,308.62a35.67,35.67,0,0,0-35.46,31.51l-.12,1-.86.49a23.9,23.9,0,0,0-7.56,6.73l-1.09,1.5-1.55-1a15.5,15.5,0,0,0-8.55-2.55,15.62,15.62,0,0,0-15.6,15.6c0,.13,0,.25,0,.38l.05,2h-2a10.91,10.91,0,0,0-10.9,10.89,10.92,10.92,0,0,0,9.44,10.8Z" style="fill:#2a455f"/><path id="Path-13" d="M5.15,322.93c0,14.12,22.35,58.58,71.06,54.33q48.71-4.25,51.66-36,12.56,3.9,13.81,17.3c1.25,13.4-3.2,20.87-17.07,26.65q-67.31,1.17-179,.8,18.53-2.24,29.62-6.58c10.92-4.28,23-15.41,26.84-24.81q10.2-25.27-14.23-42.84A39.48,39.48,0,0,1,5.15,322.93Z" style="fill:#f3f8fc;fill-rule:evenodd"/></g></g><g id="bg__tree"><path d="M155.16,451.58l97.67-86s-48-33.28-97.67,86" style="fill:#059767;fill-rule:evenodd"/><path d="M155.84,452.34l-1.62-1.16c11.89-28.54,24.71-50.77,38.11-66.05C203,373,214,365.22,225,362c17-5,27.92,2.43,28.38,2.75l1.07.74-1,.86Zm80.58-90A38.28,38.28,0,0,0,225.53,364c-29.71,8.77-52.95,49.57-67.69,83.92l93.26-82.14A31.93,31.93,0,0,0,236.42,362.33Z" style="fill:#163150"/><path d="M162,455.65,56.82,378.25s77.36-17.92,105.13,77.4" style="fill:#08aa75;fill-rule:evenodd"/><path d="M163.77,458.25,54.44,377.76l2.15-.5a88.15,88.15,0,0,1,42.7,3,84.34,84.34,0,0,1,35.25,22.4c12.46,13.09,22,30.82,28.38,52.72ZM59.33,378.83,160.09,453c-6.26-20.22-15.33-36.67-27-48.93A82.41,82.41,0,0,0,98.75,382.2,88,88,0,0,0,59.33,378.83Z" style="fill:#163150"/><path d="M161.65,448.86,102.26,339.59s64.6-4,59.39,109.27" style="fill:#059767;fill-rule:evenodd"/><path d="M162.5,452.55,100.61,338.68l1.59-.1c.77-.05,19-1,35.49,15.25,8.29,8.16,14.64,19.28,18.88,33,5.17,16.78,7.22,37.65,6.09,62ZM104,340.62l56.8,104.51c.75-22.57-1.32-42-6.16-57.67-4.14-13.43-10.31-24.26-18.36-32.18C123.22,342.45,108.78,340.79,104,340.62Z" style="fill:#163150"/><path d="M159.68,449,210.8,330.68S146.42,338.75,159.68,449" style="fill:#059767;fill-rule:evenodd"/><path d="M159.12,452.86l-.45-3.75c-3-25.27-2.22-47.26,2.42-65.37,3.73-14.54,9.93-26.63,18.43-35.93C194,331.92,210,329.76,210.68,329.67l1.76-.22Zm50-120.82a46.69,46.69,0,0,0-7.88,2.61,59.22,59.22,0,0,0-20.3,14.64c-8.25,9.06-14.27,20.85-17.9,35.07-4.32,16.93-5.25,37.34-2.76,60.72Z" style="fill:#163150"/><path d="M166.63,439.39,276,425.28S212.64,387,166.63,439.39" style="fill:#08aa75;fill-rule:evenodd"/><path d="M164.09,440.74l1.77-2c10.63-12.09,23.06-20.37,37-24.61a82.94,82.94,0,0,1,35.87-2.43,111.37,111.37,0,0,1,37.81,12.73l2.49,1.51Zm61.8-27.94a77,77,0,0,0-22.51,3.26c-12.73,3.89-24.2,11.27-34.15,22l103.52-13.35a111.1,111.1,0,0,0-34.4-11A90.19,90.19,0,0,0,225.89,412.8Z" style="fill:#163150"/><path d="M168.05,457,43.26,447.86S92.4,394.1,168.05,457" style="fill:#059767;fill-rule:evenodd"/><path d="M171.14,458.25l-130-9.53,1.42-1.55c.51-.56,12.74-13.73,34.52-19.31a80.29,80.29,0,0,1,39.85.19c17,4.25,34.45,13.73,51.82,28.17ZM45.58,447l119.33,8.75C148.63,442.67,132.34,434,116.46,430a78.54,78.54,0,0,0-38.82-.24A76,76,0,0,0,45.58,447Z" style="fill:#163150"/><path d="M158.56,441.05l107.83,33.6s-10.1-47.93-87.66-37.09c-6.28.88-13,1.8-20.17,3.49" style="fill:#059767;fill-rule:evenodd"/><path d="M267.75,476.14l-113-35.22,3.62-.86c7-1.64,13.42-2.55,19.67-3.42l.6-.09c17.82-2.49,33.57-2.07,46.81,1.24,10.64,2.67,19.7,7.21,26.91,13.48,12.34,10.73,15,22.67,15.08,23.17ZM162.52,441.22l102.38,31.9a47.36,47.36,0,0,0-14-20.4c-19.92-17.23-50.15-17.21-72-14.15l-.6.08C173.2,439.36,168,440.09,162.52,441.22Z" style="fill:#163150"/><path d="M162,442.75c-.22-.05,90.27,82.81,90.27,82.81s19.13-59-90.27-82.81" style="fill:#08aa75;fill-rule:evenodd"/><path d="M252.7,527.38l-1.16-1.07S229,505.64,206.38,485c-11.29-10.35-22.58-20.7-31-28.47l-10.22-9.39-2.86-2.65c-1.37-1.27-1.58-1.46-1.22-2.16l.36-.69.76.17c23.91,5.21,43.58,12.53,58.46,21.77,12.16,7.55,21.21,16.41,26.91,26.33,11,19.09,5.88,35.33,5.66,36Zm-87.31-82.81c11.77,10.86,59,54.12,86.26,79.09.95-4.49,2.69-17.89-5.92-32.84-5.54-9.62-14.36-18.23-26.22-25.58C205.59,456.61,187.4,449.66,165.39,444.57Z" style="fill:#163150"/><path d="M167.37,449.71,60.21,518.77s12.33-73.23,107.16-69.06" style="fill:#08aa75;fill-rule:evenodd"/><path d="M58.83,520.88l.38-2.27A85.75,85.75,0,0,1,77.45,482a88,88,0,0,1,32.76-24.22c16.17-7,35.42-10.07,57.21-9.12l3.19.14Zm100.91-70.32c-18.37,0-34.73,3.06-48.72,9.12a85.57,85.57,0,0,0-49.28,56.9l102.35-66C162.63,450.58,161.18,450.56,159.74,450.56Z" style="fill:#163150"/><path d="M157.88,447.5,96.74,569.68S66.42,511.53,142,457.78c4.85-3.45,10.13-6.88,15.89-10.28" style="fill:#059767;fill-rule:evenodd"/><path d="M96.76,571.92l-.92-1.77c-.31-.6-7.69-15-5.82-36.35a84.89,84.89,0,0,1,12.15-36.38c8.68-14.51,21.88-28.13,39.23-40.47,4.94-3.52,10.31-7,16-10.32l3-1.76ZM155.4,450.18c-4.5,2.74-8.81,5.57-12.82,8.43-17.12,12.17-30.13,25.58-38.67,39.85A83.18,83.18,0,0,0,92,534a72.47,72.47,0,0,0,4.75,33.34Z" style="fill:#163150"/><path d="M153.81,440l65.65,131s23.69-77-65.65-131" style="fill:#059767;fill-rule:evenodd"/><path d="M219.69,573.77,151.32,437.34l3,1.83c20.51,12.38,36.74,27,48.26,43.53a114.13,114.13,0,0,1,18.55,42.88c5.23,26-.64,45.56-.7,45.76Zm-63.37-131,62.83,125.35a104.39,104.39,0,0,0,0-42.25,112.09,112.09,0,0,0-18.24-42.08C190.1,468.39,175.12,454.6,156.32,442.78Z" style="fill:#163150"/><path d="M151.56,451s3.81,66.09-23.3,131.24c-32.4,77.84-10.81,135.4-10.81,135.4h43S129,672.23,148.91,603.86c23.42-80.35,19.59-154.32,19.59-154.32Z" style="fill:#ae723b;fill-rule:evenodd"/><path d="M162.41,718.67H116.75l-.25-.66c-.06-.14-5.47-14.81-6.81-38.81-1.24-22.11.82-57,17.63-97.33,26.7-64.17,23.26-130.14,23.22-130.79l0-1,19-1.66,0,1.06c0,.74,3.58,75.06-19.63,154.65-10.23,35.09-6.56,64-1.69,82,5.28,19.51,13,30.83,13.11,31Zm-44.24-2H158.6c-2.33-3.79-8.09-14.16-12.37-30-4.95-18.29-8.66-47.54,1.7-83.09,21.61-74.11,19.93-143.6,19.59-152.92l-14.9,1.3c.32,8.51,1.68,70.39-23.42,130.7-16.65,40-18.7,74.47-17.48,96.35C112.87,699.87,117.13,713.56,118.17,716.64Z" style="fill:#163150"/><path d="M144.31,675.36A149.87,149.87,0,0,1,142,652.57l-29.44-14.33a207.77,207.77,0,0,0-1.34,47.51c9.46-3,21.69-6.82,33.13-10.39" style="fill:#6d4e2d;fill-rule:evenodd;opacity:0.30000000000000004"/><path d="M149.87,603.58c.19-.68.36-1.35.55-2L127.72,586a249.9,249.9,0,0,0-11.89,42.12c8.74.58,18.76,1.28,28.74,2a175.77,175.77,0,0,1,5.3-26.51" style="fill:#6d4e2d;fill-rule:evenodd;opacity:0.30000000000000004"/><path d="M118,717.66h42.56a80.92,80.92,0,0,1-6.07-11.25c-15.25-3.59-29.83-7-41.41-9.8,2.06,13.41,4.92,21,4.92,21" style="fill:#6d4e2d;fill-rule:evenodd;opacity:0.30000000000000004"/><path d="M168.73,485l-16.87-2.88c-.34,4.59-.8,9.59-1.44,14.93,6.3-1.73,12.5-3.41,17.89-4.85q.25-3.74.42-7.2" style="fill:#6d4e2d;fill-rule:evenodd;opacity:0.30000000000000004"/><path d="M160.59,557.63c-7-3.69-13.73-7.3-19.5-10.35-2.29,8.44-5,17.09-8.31,25.77l24.08,2.74q2.08-9.24,3.73-18.16" style="fill:#6d4e2d;fill-rule:evenodd;opacity:0.30000000000000004"/><path d="M164.66,521.74l-18.15-3.64c-1,5.69-2.16,11.59-3.55,17.64l20.21-2.13q.83-6.08,1.49-11.87" style="fill:#6d4e2d;fill-rule:evenodd;opacity:0.30000000000000004"/><path d="M170.24,719.46h-65a3.22,3.22,0,0,1,0-6.39h65a3.22,3.22,0,0,1,0,6.39" style="fill:#f3c65c;fill-rule:evenodd"/><path d="M140,443.46a14.25,14.25,0,1,0,15.12,13.32A14.25,14.25,0,0,0,140,443.46" style="fill:#91523a;fill-rule:evenodd"/><path d="M140.9,473a15.28,15.28,0,0,1-.94-30.52h0a15.28,15.28,0,0,1,1.93,30.49Zm-.81-28.48a13.22,13.22,0,1,0,9.57,3.27,13.12,13.12,0,0,0-9.57-3.27Z" style="fill:#163150"/><path d="M147.48,425.81a14.25,14.25,0,1,0,15.12,13.33,14.25,14.25,0,0,0-15.12-13.33" style="fill:#a35e44;fill-rule:evenodd"/><path d="M148.37,455.31a15.27,15.27,0,0,1-1-30.51h0a15.27,15.27,0,0,1,1.93,30.48C149,455.3,148.7,455.31,148.37,455.31Zm-.82-28.48a13.24,13.24,0,1,0,14,12.37,13.25,13.25,0,0,0-14-12.37Z" style="fill:#163150"/><path d="M165.12,443.46a14.25,14.25,0,1,0,15.11,13.33,14.26,14.26,0,0,0-15.11-13.33" style="fill:#91523a;fill-rule:evenodd"/><path d="M166,473a15.28,15.28,0,0,1-15.2-14.31,15.3,15.3,0,0,1,14.26-16.21h0A15.28,15.28,0,0,1,167,472.93Zm-.81-28.48a13.23,13.23,0,1,0,14,12.37,13.25,13.25,0,0,0-14-12.37Z" style="fill:#163150"/><path d="M171.9,425.81A14.25,14.25,0,1,0,187,439.14a14.26,14.26,0,0,0-15.11-13.33" style="fill:#a35e44;fill-rule:evenodd"/><path d="M172.77,455.31a15.27,15.27,0,0,1-.93-30.51h0a15.27,15.27,0,0,1,1.92,30.48Q173.27,455.31,172.77,455.31ZM172,426.83a13.24,13.24,0,1,0,14,12.37,13.25,13.25,0,0,0-14-12.37Z" style="fill:#163150"/></g><g id="bg__shells"><circle cx="963.56" cy="767.9" r="1.22" style="fill:#163150"/><path d="M963.56,769.73a1.83,1.83,0,1,1,1.82-1.83A1.83,1.83,0,0,1,963.56,769.73Zm0-2.44a.61.61,0,0,0-.61.61.61.61,0,0,0,.61.61.62.62,0,0,0,.61-.61A.61.61,0,0,0,963.56,767.29Z" style="fill:#979797"/><path d="M910.79,788.09c10.6-7.49,29.08-16.51,38.05-26.57s22.38-9.66,33.22,3.46,29.34,10.78,35.75,16.42q-3.51,6.69-40.56,3.25,5.16,17.26-3.89,23.43c-9.46-1.7-19-20-24.52-20S900.19,795.58,910.79,788.09Z" style="fill:#a682ff;fill-rule:evenodd"/><path d="M973.36,809.29h-.22c-5.58-1-10.89-7-15.58-12.33-3.33-3.76-6.76-7.64-8.72-7.64-1.31,0-5.2.49-9.69,1.05-23.4,2.94-30.08,3-31.12.35-.66-1.7,1.32-3.09,2.06-3.62h0c3.46-2.44,7.72-5,12.23-7.77,9.22-5.6,19.66-11.94,25.61-18.62,4.43-5,9.89-7.56,15.71-7.42,6.87.13,13.56,3.91,19.36,10.93,6.4,7.75,15.84,9.94,23.43,11.7,5.09,1.18,9.49,2.2,12.19,4.58a1.22,1.22,0,0,1,.27,1.48c-1.64,3.12-7.6,6.9-40,4.06,3,11.09,1.33,18.85-4.86,23.05A1.19,1.19,0,0,1,973.36,809.29Zm-24.52-22.42c3.06,0,6.36,3.74,10.54,8.47s9.11,10.3,13.71,11.43c5.16-3.84,6.16-11.16,3-21.77a1.21,1.21,0,0,1,1.28-1.56c27.93,2.59,36.35.29,38.73-1.81-2.35-1.52-6-2.38-10.21-3.34-8-1.85-17.84-4.14-24.76-12.53-5.33-6.46-11.39-9.93-17.53-10-5.11-.08-9.9,2.19-13.84,6.62-6.19,6.94-16.8,13.38-26.16,19.07-4.48,2.72-8.7,5.29-12.1,7.68h0a7.7,7.7,0,0,0-.93.77c3.26,1.24,20.66-1,28.28-1.91C943.61,787.34,947.37,786.87,948.84,786.87Z" style="fill:#163150"/><path d="M927.46,765.29c11.51,0,16.76-2.39,21.38-3.77q-5,5.65-15.75,12.92Q916,765.29,927.46,765.29Z" style="fill:#9165ff;fill-rule:evenodd"/><path d="M933.09,775.65a1.17,1.17,0,0,1-.57-.14c-9.63-5.14-11.3-7.41-10.84-9.25s3.35-2.19,5.78-2.19a53.65,53.65,0,0,0,18.83-3c.76-.25,1.49-.49,2.2-.7a1.22,1.22,0,0,1,1.26,2c-3.38,3.83-8.75,8.25-16,13.13A1.32,1.32,0,0,1,933.09,775.65Zm-9-8.74c.29.53,1.74,2.24,8.89,6.1a104,104,0,0,0,11.45-8.83,55.27,55.27,0,0,1-17,2.33A8.79,8.79,0,0,0,924.13,766.91Z" style="fill:#163150"/><path d="M934.49,806.68l2.66-8.32,7.69,6.69h9.38l-4.3,6.35,4.3,6-11-2.44-6.08,5.11-2.66-6.67-9-4.87Z" style="fill:#f4d57a;fill-rule:evenodd"/><path d="M937.15,821.33a1,1,0,0,1-.29,0,1.21,1.21,0,0,1-.84-.73l-2.5-6.26-8.59-4.66a1.23,1.23,0,0,1,.33-2.27l8.29-1.73L936,798a1.23,1.23,0,0,1,.84-.8,1.17,1.17,0,0,1,1.12.25l7.35,6.39h8.92a1.22,1.22,0,0,1,1,1.91l-3.83,5.64,3.81,5.35a1.22,1.22,0,0,1-1.26,1.9l-10.4-2.31L937.94,821A1.2,1.2,0,0,1,937.15,821.33ZM929,809.08l6.06,3.29a1.19,1.19,0,0,1,.55.62l2,5.1,4.78-4a1.21,1.21,0,0,1,1-.26l7.9,1.75-2.46-3.46a1.2,1.2,0,0,1,0-1.39l3-4.44h-7.08a1.24,1.24,0,0,1-.8-.3l-6.29-5.47-2.1,6.55a1.21,1.21,0,0,1-.91.82Z" style="fill:#163150"/><path d="M900.93,804.65l2-6.29,5.85,5.06H916l-3.27,4.8,3.27,4.57-8.36-1.85L903,814.81l-2-5-6.83-3.69Z" style="fill:#fbb444;fill-rule:evenodd"/><path d="M903,816a1,1,0,0,1-.3,0,1.22,1.22,0,0,1-.83-.72L900,810.63l-6.45-3.48a1.21,1.21,0,0,1,.33-2.26l6.14-1.28L901.8,798a1.23,1.23,0,0,1,.83-.8,1.19,1.19,0,0,1,1.13.25l5.51,4.76H916a1.22,1.22,0,0,1,1.08.65,1.24,1.24,0,0,1-.07,1.26l-2.8,4.09,2.78,3.88a1.2,1.2,0,0,1,0,1.38,1.22,1.22,0,0,1-1.28.52l-7.78-1.72-4.17,3.49A1.24,1.24,0,0,1,903,816Zm-5.35-9.44,3.9,2.1a1.23,1.23,0,0,1,.55.62l1.41,3.49L906.8,810a1.24,1.24,0,0,1,1.05-.26l5.26,1.17-1.42-2a1.22,1.22,0,0,1,0-1.4l2-2.89h-4.83a1.21,1.21,0,0,1-.79-.3l-4.46-3.85L902.09,805a1.22,1.22,0,0,1-.91.82Z" style="fill:#163150"/><circle cx="963.56" cy="766.68" r="1.22" style="fill:#163150"/><circle cx="964.17" cy="774.6" r="1.83" style="fill:#163150"/><circle cx="950.15" cy="767.9" r="1.22" style="fill:#163150"/><circle cx="938.58" cy="775.82" r="1.83" style="fill:#163150"/><circle cx="923.95" cy="784.35" r="1.83" style="fill:#163150"/><ellipse cx="968.43" cy="785.57" rx="2.44" ry="3.05" style="fill:#163150"/><ellipse cx="972.09" cy="798.97" rx="2.44" ry="3.05" style="fill:#163150"/></g><g style="clip-path:url(#clip-path-2)"><g style="clip-path:url(#clip-path-4)"><path d="M1302.79,878.51a2.89,2.89,0,0,1,.09.93,3.35,3.35,0,0,1-1.3,2.69,3.19,3.19,0,0,1-2.53.88,2.42,2.42,0,0,0-.91,0,8.58,8.58,0,0,1-.21,1.93,1.17,1.17,0,0,0,.63,1.09,3.17,3.17,0,0,1,2,0,1.92,1.92,0,0,1,1.36,1.63,3.87,3.87,0,0,1-.76,2.65,7.34,7.34,0,0,1-2.51,2.25,6.62,6.62,0,0,1-3.35.81,7.17,7.17,0,0,1-3-.63,6.65,6.65,0,0,1-1.72-1.69q-1.24-2.06-1.27-8.67a62.4,62.4,0,0,1,.63-8.71c.26-1.89.81-3.12,1.63-3.68l5-.52a12.2,12.2,0,0,1,2.48-.27c1.57,0,2.49.4,2.78,1.18a3.12,3.12,0,0,1,.18,1.09,2.62,2.62,0,0,1-1,2.11,4,4,0,0,1-2.69.82,5.62,5.62,0,0,1-.66,0,3.94,3.94,0,0,0-.24,1.45c0,.84-.07,1.33-.09,1.45a.72.72,0,0,0,.63.54,3.45,3.45,0,0,1,2.21-.69A3.05,3.05,0,0,1,1302.79,878.51Zm-24.14-2.6h0a1,1,0,0,0-.3-.06,4.68,4.68,0,0,0-.94.42,4.42,4.42,0,0,0-.09,1.54q0,1.66,0,3.15a5.38,5.38,0,0,0,2-1.14,2.1,2.1,0,0,0,.8-1.55A3.35,3.35,0,0,0,1278.65,875.91Zm8.64,14.08h0a6.09,6.09,0,0,1-1.42,1.84,4.7,4.7,0,0,1-2.62,1.33q-2.58.27-5.26-5.23a12.31,12.31,0,0,1,.09,1.36,4.49,4.49,0,0,1-.91,3,4.84,4.84,0,0,1-2.78,1,4.46,4.46,0,0,1-1.08-.12A4.27,4.27,0,0,1,1271,892a5.41,5.41,0,0,1-.73-3.26v-1.21c-.06-.06,0-1.86.06-5.41a75.14,75.14,0,0,1,.7-9.15q.39-2.26,3.2-3.11a33.19,33.19,0,0,1,5.23-.79c3.08.1,5.2,1.13,6.34,3.08a13,13,0,0,1,1.27,5.38,6.71,6.71,0,0,1-1.36,4.2,20.1,20.1,0,0,1-1.72,1.6c2.28,2.46,3.41,4.51,3.41,6.17A3.61,3.61,0,0,1,1287.29,890Zm-19.21-17.19,0,0c.08.94.12,2,.12,3.17a36.28,36.28,0,0,1-2.21,12.81,8,8,0,0,1-1.79,2.8,6,6,0,0,1-2.56,1.64,16.7,16.7,0,0,1-2.41.18,9.6,9.6,0,0,1-5.62-1.57,7.72,7.72,0,0,1-3.05-4.2,18.92,18.92,0,0,1-.67-5.68,32.73,32.73,0,0,1,1.06-9.06,4.05,4.05,0,0,1,1.43-2,4.38,4.38,0,0,1,2.22-1,3,3,0,0,1,1.92.5,3.67,3.67,0,0,1,1.41,1.52,12.51,12.51,0,0,1,.09,1.54,32.68,32.68,0,0,1-.55,4.26,34.83,34.83,0,0,0-.54,4.2,9.41,9.41,0,0,0,.12,1.6,2.19,2.19,0,0,0,1,1,1.85,1.85,0,0,0,1.42-.24,4,4,0,0,0,1-2.24c0-1.37,0-3.13.1-5.28.2-1.74.33-2.8.39-3.21a13.88,13.88,0,0,1,.57-2.63,3,3,0,0,1,2.48-1.72,3.64,3.64,0,0,1,2.39,1A6.32,6.32,0,0,1,1268.08,872.8Zm-19.64.33h0a6.29,6.29,0,0,1,.09,1.18,3.46,3.46,0,0,1-.72,2.29,6.5,6.5,0,0,1-2.44.71,10.49,10.49,0,0,0-2.22.53c0,.23.19,2.33.7,6.32a19.53,19.53,0,0,1,.15,2.42,12,12,0,0,1-.73,4.53c-.6,1.49-1.49,2.21-2.66,2.17-1.89-.06-3.21-.65-4-1.78a7.53,7.53,0,0,1-.88-4c0,.16,0-.89.12-3.17l.15-3.87a22.24,22.24,0,0,1,.4-3.14,1.94,1.94,0,0,1-.55.06,6.66,6.66,0,0,1-2-.33,3.29,3.29,0,0,1-1.91-1.33,4.68,4.68,0,0,1-.72-2.33,3.08,3.08,0,0,1,2-2.81,13.68,13.68,0,0,1,6.2-1.3,22.42,22.42,0,0,1,4,.37l3,1.11A3.47,3.47,0,0,1,1248.44,873.13Zm-19,2.24v0c.2,2.33.3,4.54.3,6.61q0,9.59-3.17,10.76a3.25,3.25,0,0,1-1.12.18,8.57,8.57,0,0,1-2-.3q-1.5-.86-4.62-9.7a20.24,20.24,0,0,1,.54,4.59,9.24,9.24,0,0,1-.72,4,2.83,2.83,0,0,1-1.19,1.19,2.64,2.64,0,0,1-1.65.41,3.87,3.87,0,0,1-3.41-3.05,20.09,20.09,0,0,1-.61-5.8q0-7.65.64-10.27a5.59,5.59,0,0,1,2.2-3.24,3.74,3.74,0,0,1,2.24-.72,4.44,4.44,0,0,1,1.33.21c1.16.62,2.31,2.49,3.44,5.59a38,38,0,0,1,1.3,4.44c-.2-1.33-.37-2.5-.51-3.5a31.23,31.23,0,0,1-.37-3.9,3.79,3.79,0,0,1,.79-2.45,3.13,3.13,0,0,1,2.57-1.12q2.92,0,3.65,3.27C1229.2,873,1229.31,873.94,1229.44,875.37Zm-19.79,3.14a2.89,2.89,0,0,1,.09.93,3.38,3.38,0,0,1-1.3,2.69,3.21,3.21,0,0,1-2.54.88,2.41,2.41,0,0,0-.91,0,8.58,8.58,0,0,1-.21,1.93,1.16,1.16,0,0,0,.64,1.09,3.14,3.14,0,0,1,2,0,1.91,1.91,0,0,1,1.36,1.63,3.87,3.87,0,0,1-.76,2.65,7.4,7.4,0,0,1-2.5,2.25,6.69,6.69,0,0,1-3.36.81,7.2,7.2,0,0,1-3-.63,6.65,6.65,0,0,1-1.72-1.69q-1.25-2.06-1.27-8.67a61,61,0,0,1,.64-8.71c.26-1.89.8-3.12,1.63-3.68l5-.52a12.2,12.2,0,0,1,2.48-.27c1.57,0,2.5.4,2.78,1.18a3.12,3.12,0,0,1,.18,1.09,2.62,2.62,0,0,1-1,2.11,4,4,0,0,1-2.69.82,5.62,5.62,0,0,1-.66,0,3.94,3.94,0,0,0-.24,1.45c0,.84-.07,1.33-.09,1.45a.72.72,0,0,0,.63.54,3.47,3.47,0,0,1,2.21-.69A3.07,3.07,0,0,1,1209.65,878.51Zm-16.38-8c.77.55,1.15,1.6,1.15,3.17q0,5.08-5,16.44a5.08,5.08,0,0,1-4.08,3.2,4.46,4.46,0,0,1-.66.06,7,7,0,0,1-2.87-.6,4.34,4.34,0,0,1-2-1.6,25.44,25.44,0,0,1-3.12-7.62,31.23,31.23,0,0,1-.93-7.31,12.79,12.79,0,0,1,.36-3.59,3.56,3.56,0,0,1,1.75-2.06A4,4,0,0,1,1180,870a3.17,3.17,0,0,1,2.87,1.72,20.25,20.25,0,0,1,1.15,5.65l.39,3.78q.24-2.17.78-6.45c.37-2.85,1.1-4.54,2.21-5.06a5.26,5.26,0,0,1,2.33-.52A5,5,0,0,1,1193.27,870.47Zm-26.83,6.74a1.13,1.13,0,0,0-.81-.51,1.16,1.16,0,0,0-.46.12l-.3.12a60.24,60.24,0,0,1,.42,7.13,4.58,4.58,0,0,0,1.47-1.79,5.3,5.3,0,0,0,.59-2.38A4.09,4.09,0,0,0,1166.44,877.21Zm7.55,2.72a15.52,15.52,0,0,1-1.81,7.52,10.43,10.43,0,0,1-6.55,5.38,10.19,10.19,0,0,1-4.25-.56q-1.89-.71-2-1.86-.54-8.07-.54-15.5c0-1.83,0-3.14.12-3.92q.75-1.63,4.86-1.64a14.17,14.17,0,0,1,4.14.55,9.22,9.22,0,0,1,3.45,2.9A11.6,11.6,0,0,1,1174,879.93Zm-25.19,2.69a45.6,45.6,0,0,0-.31-7.65q-.21-.21-.63.15-.39,2.58-.57,4.17a18.6,18.6,0,0,0-.22,3.21.54.54,0,0,0,.52.33,5.05,5.05,0,0,0,.62-.11A4.39,4.39,0,0,1,1148.8,882.62Zm7.64,7.91v0a2.19,2.19,0,0,1-1.78,1.82,6.81,6.81,0,0,1-1.57.18,3.9,3.9,0,0,1-2.42-.7,7.88,7.88,0,0,1-.79-1.15,4.51,4.51,0,0,1-.39-2,16.82,16.82,0,0,0-2.75.12,8.09,8.09,0,0,1,.12.82,5.53,5.53,0,0,1-.69,2.56,2.94,2.94,0,0,1-2.57,1.24,8.64,8.64,0,0,1-2-.3l-.07-.06c-1.71-.84-2.56-3-2.56-6.31,0-.23,0-.75.06-1.57a44.1,44.1,0,0,1,.87-7.44,18.28,18.28,0,0,1,3.21-6.83,6.1,6.1,0,0,1,5.16-2.32,6.63,6.63,0,0,1,5.47,2.26,7.88,7.88,0,0,1,1.54,3.12,45,45,0,0,1,1.66,11.21A28.36,28.36,0,0,1,1156.44,890.53Zm-36.56-14.62h0a1,1,0,0,0-.3-.06,4.68,4.68,0,0,0-.94.42,4.42,4.42,0,0,0-.09,1.54q0,1.66,0,3.15a5.38,5.38,0,0,0,2-1.14,2.1,2.1,0,0,0,.8-1.55A3.35,3.35,0,0,0,1119.88,875.91Zm8.64,14.08h0a6.09,6.09,0,0,1-1.42,1.84,4.7,4.7,0,0,1-2.63,1.33q-2.57.27-5.25-5.23a12.31,12.31,0,0,1,.09,1.36,4.49,4.49,0,0,1-.91,3,4.84,4.84,0,0,1-2.78,1,4.61,4.61,0,0,1-1.09-.12,4.27,4.27,0,0,1-2.32-1.15,5.34,5.34,0,0,1-.73-3.26v-1.21c-.06-.06,0-1.86.06-5.41a75.14,75.14,0,0,1,.7-9.15q.39-2.26,3.2-3.11a33.19,33.19,0,0,1,5.23-.79q4.62.15,6.34,3.08a13,13,0,0,1,1.27,5.38,6.71,6.71,0,0,1-1.36,4.2,20.1,20.1,0,0,1-1.72,1.6c2.28,2.46,3.41,4.51,3.41,6.17A3.61,3.61,0,0,1,1128.52,890Zm-19.21-17.19,0,0c.08.94.12,2,.12,3.17a36.28,36.28,0,0,1-2.21,12.81,8,8,0,0,1-1.79,2.8,6,6,0,0,1-2.56,1.64,16.7,16.7,0,0,1-2.41.18,9.6,9.6,0,0,1-5.62-1.57,7.78,7.78,0,0,1-3.06-4.2,19.3,19.3,0,0,1-.66-5.68,32.73,32.73,0,0,1,1.06-9.06,4.05,4.05,0,0,1,1.43-2,4.38,4.38,0,0,1,2.22-1,3,3,0,0,1,1.92.5,3.67,3.67,0,0,1,1.41,1.52,12.51,12.51,0,0,1,.09,1.54,32.68,32.68,0,0,1-.55,4.26,34.83,34.83,0,0,0-.54,4.2,9.41,9.41,0,0,0,.12,1.6,2.19,2.19,0,0,0,1,1,1.85,1.85,0,0,0,1.42-.24,4,4,0,0,0,1-2.24q0-2.06.09-5.28c.21-1.74.34-2.8.4-3.21a13.88,13.88,0,0,1,.57-2.63,3,3,0,0,1,2.48-1.72,3.64,3.64,0,0,1,2.39,1A6.42,6.42,0,0,1,1109.31,872.8ZM1081,885.7v0q.87-.15.87-3.36a16.31,16.31,0,0,0-.33-3.39q-.33-1.56-.72-1.62c-.45-.12-.85.36-1.21,1.45a11.42,11.42,0,0,0-.55,3.6C1079,884.78,1079.68,885.9,1081,885.7Zm7.49,2.17,0,0a7.32,7.32,0,0,1-2.76,3.87,7.64,7.64,0,0,1-4.58,1.42,8.73,8.73,0,0,1-7.46-3.62,12.34,12.34,0,0,1-2.27-7.5,18.19,18.19,0,0,1,.36-3.74q1.67-7.89,7-8.89a5.64,5.64,0,0,1,1-.09,8.14,8.14,0,0,1,4.7,1.6,7.84,7.84,0,0,1,3.06,3.9,26.19,26.19,0,0,1,1.7,7.77,18.45,18.45,0,0,1-.88,5.25Zm-33.81-17.94h0a3.54,3.54,0,0,1,1.63-.4A2.83,2.83,0,0,1,1059,871a7.21,7.21,0,0,1,1.27,2.65c.53,1.7.83,2.61.91,2.75q1.32-5.67,3.11-7.43a4.85,4.85,0,0,1,1.78-.33,3.31,3.31,0,0,1,2.27.75,3.86,3.86,0,0,1,1.6,3.48,18.85,18.85,0,0,1-1.54,5.41c-.5,1.12-1.35,2.79-2.54,5q0,1.31,0,3.84a10.28,10.28,0,0,1-.69,3.72,4.3,4.3,0,0,1-2.63,2.41,6.47,6.47,0,0,1-.7.06,3.4,3.4,0,0,1-3.35-1.9,9.88,9.88,0,0,1-.42-3.17c0-.63,0-1.21,0-1.76,0-.72,0-1.26,0-1.63q-5-8.46-5-12A3,3,0,0,1,1054.65,869.93Zm-11.12,3.2h0a6.29,6.29,0,0,1,.09,1.18,3.46,3.46,0,0,1-.72,2.29,6.34,6.34,0,0,1-2.43.71,10.49,10.49,0,0,0-2.22.53c0,.23.19,2.33.69,6.32a19.53,19.53,0,0,1,.15,2.42,12.22,12.22,0,0,1-.72,4.53c-.61,1.49-1.49,2.21-2.66,2.17-1.89-.06-3.21-.65-4-1.78a7.62,7.62,0,0,1-.88-4c0,.16,0-.89.13-3.17l.15-3.87a24,24,0,0,1,.39-3.14,1.82,1.82,0,0,1-.54.06A6.72,6.72,0,0,1,1029,877a3.23,3.23,0,0,1-1.9-1.33,4.6,4.6,0,0,1-.73-2.33,3.09,3.09,0,0,1,2-2.81,13.64,13.64,0,0,1,6.19-1.3,22.53,22.53,0,0,1,4,.37l3,1.11A3.45,3.45,0,0,1,1043.53,873.13Zm-27.28,2.78h0a1,1,0,0,0-.3-.06,4.68,4.68,0,0,0-.94.42,4.42,4.42,0,0,0-.09,1.54q0,1.66,0,3.15a5.38,5.38,0,0,0,2-1.14,2.13,2.13,0,0,0,.8-1.55A3.35,3.35,0,0,0,1016.25,875.91Zm8.64,14.08h0a6.09,6.09,0,0,1-1.42,1.84,4.7,4.7,0,0,1-2.63,1.33q-2.56.27-5.25-5.23a12.31,12.31,0,0,1,.09,1.36,4.54,4.54,0,0,1-.91,3,4.87,4.87,0,0,1-2.78,1,4.61,4.61,0,0,1-1.09-.12,4.23,4.23,0,0,1-2.32-1.15,5.34,5.34,0,0,1-.73-3.26v-1.21c-.06-.06,0-1.86.06-5.41a73.14,73.14,0,0,1,.7-9.15q.39-2.26,3.2-3.11A33.19,33.19,0,0,1,1017,869q4.62.15,6.34,3.08a13,13,0,0,1,1.27,5.38,6.71,6.71,0,0,1-1.36,4.2,20.1,20.1,0,0,1-1.72,1.6c2.27,2.46,3.41,4.51,3.41,6.17A3.61,3.61,0,0,1,1024.89,890Zm-27.16-7.37a46.44,46.44,0,0,0-.3-7.65c-.14-.14-.35-.09-.64.15q-.39,2.58-.57,4.17a19.19,19.19,0,0,0-.21,3.21.52.52,0,0,0,.51.33,4.74,4.74,0,0,0,.62-.11A4.39,4.39,0,0,1,997.73,882.62Zm7.64,7.91v0a2.17,2.17,0,0,1-1.78,1.82,6.75,6.75,0,0,1-1.57.18,3.92,3.92,0,0,1-2.42-.7,7.51,7.51,0,0,1-.78-1.15,4.51,4.51,0,0,1-.4-2,16.66,16.66,0,0,0-2.74.12,8.09,8.09,0,0,1,.12.82,5.55,5.55,0,0,1-.7,2.56,2.93,2.93,0,0,1-2.57,1.24,8.64,8.64,0,0,1-2-.3l-.06-.06c-1.71-.84-2.57-3-2.57-6.31,0-.23,0-.75.06-1.57a42.92,42.92,0,0,1,.88-7.44,18.11,18.11,0,0,1,3.2-6.83,6.12,6.12,0,0,1,5.17-2.32,6.61,6.61,0,0,1,5.46,2.26,8,8,0,0,1,1.55,3.12,45.51,45.51,0,0,1,1.66,11.21A27.53,27.53,0,0,1,1005.37,890.53Zm-18.91-17.4h0a6.29,6.29,0,0,1,.09,1.18,3.46,3.46,0,0,1-.72,2.29,6.5,6.5,0,0,1-2.44.71,10.49,10.49,0,0,0-2.22.53c0,.23.19,2.33.7,6.32a19.53,19.53,0,0,1,.15,2.42,12,12,0,0,1-.73,4.53c-.6,1.49-1.49,2.21-2.65,2.17-1.9-.06-3.22-.65-4-1.78a7.53,7.53,0,0,1-.88-4c0,.16,0-.89.12-3.17l.15-3.87a22.24,22.24,0,0,1,.4-3.14,1.9,1.9,0,0,1-.55.06,6.66,6.66,0,0,1-2.05-.33A3.29,3.29,0,0,1,970,875.7a4.68,4.68,0,0,1-.72-2.33,3.08,3.08,0,0,1,2-2.81,13.71,13.71,0,0,1,6.2-1.3,22.53,22.53,0,0,1,4,.37l3,1.11A3.47,3.47,0,0,1,986.46,873.13ZM958.33,887h0c.73-.18,1.1-.55,1.12-1.09a.83.83,0,0,0-.26-.57,14,14,0,0,0-1.92-1.3,14.37,14.37,0,0,1-2-1.48,8.44,8.44,0,0,1-1.6-2.3,8.62,8.62,0,0,1-.94-3.87,7,7,0,0,1,2.24-5.07,8.08,8.08,0,0,1,5.92-2.48,7,7,0,0,1,3.6.94,7.78,7.78,0,0,1,2.14,2.23,2.77,2.77,0,0,1,.51,1.36,3.25,3.25,0,0,1-.72,1.85l0,0a2.64,2.64,0,0,1-2,1.35,4.56,4.56,0,0,1-1-.15c-.65-.16-1-.72-1.12-1.69,0-.38-.33-.57-.88-.57a1.37,1.37,0,0,0-.75.21,2.48,2.48,0,0,0-.33,1.21,2.06,2.06,0,0,0,1,1.72q3.57,2.53,4.2,3.14a6.86,6.86,0,0,1,2.42,4.5c0,.39,0,.9.09,1.54q.06,3.9-4.68,6.08a8.21,8.21,0,0,1-3.39.81,5,5,0,0,1-.66-.06l-.06,0c-3.87-.62-6-2.08-6.26-4.38-.08-.52-.13-.89-.16-1.1s-.05-.28-.05-.2a2.19,2.19,0,0,1,.49-1.42,1.38,1.38,0,0,1,1.08-.6,5.79,5.79,0,0,1,1.61.71,5,5,0,0,0,1.84.71,2.67,2.67,0,0,0,.51-.06Zm216.51-42.53a1.11,1.11,0,0,0-.82-.52,1.16,1.16,0,0,0-.45.12l-.3.12a60.39,60.39,0,0,1,.42,7.13,4.56,4.56,0,0,0,1.47-1.78,5.31,5.31,0,0,0,.59-2.39A4.14,4.14,0,0,0,1174.84,844.47Zm7.55,2.71a15.58,15.58,0,0,1-1.81,7.53,10.45,10.45,0,0,1-6.56,5.38,10.16,10.16,0,0,1-4.24-.56q-1.89-.72-2-1.86-.54-8.07-.54-15.5,0-2.74.12-3.93.75-1.63,4.86-1.63a14.53,14.53,0,0,1,4.14.54,9.31,9.31,0,0,1,3.45,2.9A11.64,11.64,0,0,1,1182.39,847.18Zm-17.55-4.56v0c.2,2.34.3,4.54.3,6.62q0,9.57-3.17,10.75a3,3,0,0,1-1.12.19,8.08,8.08,0,0,1-2-.31q-1.52-.84-4.62-9.69a20.24,20.24,0,0,1,.54,4.59,9.09,9.09,0,0,1-.73,4,2.83,2.83,0,0,1-1.19,1.19,2.67,2.67,0,0,1-1.65.41,3.87,3.87,0,0,1-3.41-3.05,20.61,20.61,0,0,1-.6-5.81,53.42,53.42,0,0,1,.63-10.27,5.58,5.58,0,0,1,2.21-3.23,3.72,3.72,0,0,1,2.23-.73,4.12,4.12,0,0,1,1.33.22q1.75.93,3.44,5.59a35.17,35.17,0,0,1,1.3,4.44q-.3-2-.51-3.51a32.41,32.41,0,0,1-.36-3.9,3.76,3.76,0,0,1,.78-2.44,3.11,3.11,0,0,1,2.57-1.12c2,0,3.17,1.09,3.66,3.26A28.1,28.1,0,0,1,1164.84,842.62Zm-27.8,7.25a46.29,46.29,0,0,0-.3-7.64q-.21-.21-.63.15c-.27,1.71-.46,3.1-.58,4.17a19.09,19.09,0,0,0-.21,3.2.53.53,0,0,0,.51.34,4.47,4.47,0,0,0,.62-.11A6,6,0,0,1,1137,849.87Zm7.65,7.92v0a2.16,2.16,0,0,1-1.79,1.81,6.69,6.69,0,0,1-1.57.18,4,4,0,0,1-2.41-.69,8.16,8.16,0,0,1-.79-1.15,4.54,4.54,0,0,1-.39-2,16.77,16.77,0,0,0-2.75.12q.06.27.12.81a5.47,5.47,0,0,1-.7,2.57,2.93,2.93,0,0,1-2.56,1.24,8.72,8.72,0,0,1-2-.3l-.06-.06c-1.71-.85-2.57-3-2.57-6.32,0-.22,0-.74.06-1.57a44.85,44.85,0,0,1,.88-7.43,18,18,0,0,1,3.2-6.83,6.12,6.12,0,0,1,5.17-2.33,6.64,6.64,0,0,1,5.47,2.27,8,8,0,0,1,1.54,3.11,45.1,45.1,0,0,1,1.66,11.21A28.47,28.47,0,0,1,1144.69,857.79Zm-36.56-14.62h0a1,1,0,0,0-.3-.06,4.43,4.43,0,0,0-.94.42,4.38,4.38,0,0,0-.09,1.54c0,1.11,0,2.15,0,3.14a5.44,5.44,0,0,0,2-1.13,2.13,2.13,0,0,0,.8-1.56A3.33,3.33,0,0,0,1108.13,843.17Zm8.64,14.08h0a6.38,6.38,0,0,1-1.42,1.84,4.79,4.79,0,0,1-2.63,1.33q-2.57.27-5.26-5.23a12.44,12.44,0,0,1,.1,1.36,4.49,4.49,0,0,1-.91,3,4.81,4.81,0,0,1-2.78,1,4.55,4.55,0,0,1-1.09-.12,4.3,4.3,0,0,1-2.32-1.15,5.34,5.34,0,0,1-.73-3.26v-1.21c-.06-.06,0-1.87.06-5.41a73,73,0,0,1,.7-9.15c.26-1.52,1.32-2.55,3.2-3.12a34.67,34.67,0,0,1,5.22-.78c3.09.1,5.2,1.13,6.35,3.08a12.94,12.94,0,0,1,1.27,5.38,6.71,6.71,0,0,1-1.36,4.2c-.14.18-.72.71-1.72,1.6q3.4,3.69,3.41,6.16A3.85,3.85,0,0,1,1116.77,857.25Zm-19.15-11.49a3,3,0,0,1,.09.94,3.38,3.38,0,0,1-1.3,2.69,3.21,3.21,0,0,1-2.54.88,2.41,2.41,0,0,0-.91,0,8.63,8.63,0,0,1-.21,1.93,1.17,1.17,0,0,0,.64,1.09,3.14,3.14,0,0,1,2,0,1.9,1.9,0,0,1,1.36,1.63,3.83,3.83,0,0,1-.76,2.64,7.2,7.2,0,0,1-2.5,2.25,6.59,6.59,0,0,1-3.36.82,7,7,0,0,1-3.05-.64,6.48,6.48,0,0,1-1.72-1.69q-1.25-2.06-1.27-8.67a62.16,62.16,0,0,1,.63-8.7c.27-1.89.81-3.12,1.64-3.69l5-.51a12.2,12.2,0,0,1,2.48-.27c1.57,0,2.5.39,2.78,1.18a3.06,3.06,0,0,1,.18,1.08,2.62,2.62,0,0,1-1,2.12,4.06,4.06,0,0,1-2.69.82,5.62,5.62,0,0,1-.66,0,3.94,3.94,0,0,0-.24,1.45c0,.84-.07,1.32-.09,1.45a.72.72,0,0,0,.63.54,3.48,3.48,0,0,1,2.21-.7A3.1,3.1,0,0,1,1097.62,845.76Zm-15-5.37h0a6.17,6.17,0,0,1,.09,1.17,3.49,3.49,0,0,1-.72,2.3,6.71,6.71,0,0,1-2.44.71,9.78,9.78,0,0,0-2.22.53c0,.22.19,2.33.7,6.31a19.77,19.77,0,0,1,.15,2.42,12,12,0,0,1-.73,4.53c-.6,1.49-1.49,2.22-2.66,2.18a4.58,4.58,0,0,1-3.95-1.78,7.53,7.53,0,0,1-.88-4c0,.16,0-.9.12-3.17l.15-3.87a22.05,22.05,0,0,1,.4-3.14,1.94,1.94,0,0,1-.55.06,6.38,6.38,0,0,1-2.05-.34,3.25,3.25,0,0,1-1.91-1.33,4.64,4.64,0,0,1-.72-2.32,3.07,3.07,0,0,1,2-2.81,13.55,13.55,0,0,1,6.2-1.3,23.35,23.35,0,0,1,4,.36l3,1.12A3.46,3.46,0,0,1,1082.66,840.39Zm-18.49,12.29v.46q0,.3,0,.42,0,4.41-3.35,6a9.3,9.3,0,0,1-4,.88,6.86,6.86,0,0,1-4.69-1.6q-3.8-3.36-3.77-9.43a33.34,33.34,0,0,1,.63-6,11.73,11.73,0,0,1,2.09-4.81,5.53,5.53,0,0,1,2.28-1.76,7.56,7.56,0,0,1,3.22-.68,7.1,7.1,0,0,1,3.73,1,7.3,7.3,0,0,1,2.7,2.79,5.17,5.17,0,0,1,.61,2.36,4.08,4.08,0,0,1-.61,2.27,2.92,2.92,0,0,1-2.17,1.54,4.14,4.14,0,0,1-3.75-1.91q0-.09-.12-.72t-.45-.45l-.31.54c-.2,4.27-.3,6.45-.3,6.56,0,.58,0,1.15.06,1.72a1.19,1.19,0,0,0,.73,1.12,5.48,5.48,0,0,0,2.4-1.55c1.14-1,1.92-1.51,2.34-1.51a2.52,2.52,0,0,1,1,.22A2.37,2.37,0,0,1,1064.17,852.68Zm-25.74-2.81a46.29,46.29,0,0,0-.3-7.64c-.15-.14-.36-.09-.64.15q-.39,2.57-.57,4.17a17.93,17.93,0,0,0-.21,3.2.53.53,0,0,0,.51.34,4.74,4.74,0,0,0,.62-.11A5.47,5.47,0,0,1,1038.43,849.87Zm7.64,7.92v0a2.15,2.15,0,0,1-1.78,1.81,6.75,6.75,0,0,1-1.57.18,4,4,0,0,1-2.42-.69,8.7,8.7,0,0,1-.78-1.15,4.4,4.4,0,0,1-.4-2,16.82,16.82,0,0,0-2.75.12q.06.27.12.81a5.57,5.57,0,0,1-.69,2.57,2.94,2.94,0,0,1-2.57,1.24,8.64,8.64,0,0,1-2-.3l-.06-.06c-1.72-.85-2.57-3-2.57-6.32,0-.22,0-.74.06-1.57a44,44,0,0,1,.87-7.43,18.21,18.21,0,0,1,3.21-6.83,6.12,6.12,0,0,1,5.16-2.33,6.64,6.64,0,0,1,5.47,2.27,7.84,7.84,0,0,1,1.54,3.11,45.1,45.1,0,0,1,1.66,11.21A28.47,28.47,0,0,1,1046.07,857.79ZM1018,843.17h0a1,1,0,0,0-.3-.06,4.68,4.68,0,0,0-.94.42,4.38,4.38,0,0,0-.09,1.54c0,1.11,0,2.15,0,3.14a5.36,5.36,0,0,0,2-1.13,2.1,2.1,0,0,0,.8-1.56A3.33,3.33,0,0,0,1018,843.17Zm8.64,14.08h0a6.21,6.21,0,0,1-1.42,1.84,4.77,4.77,0,0,1-2.62,1.33q-2.58.27-5.26-5.23a12.17,12.17,0,0,1,.09,1.36,4.44,4.44,0,0,1-.91,3,4.79,4.79,0,0,1-2.78,1,4.46,4.46,0,0,1-1.08-.12,4.34,4.34,0,0,1-2.33-1.15,5.41,5.41,0,0,1-.73-3.26v-1.21c-.06-.06,0-1.87.06-5.41a75,75,0,0,1,.7-9.15c.26-1.52,1.33-2.55,3.2-3.12a34.88,34.88,0,0,1,5.23-.78q4.62.15,6.34,3.08a12.94,12.94,0,0,1,1.27,5.38,6.71,6.71,0,0,1-1.36,4.2,22.08,22.08,0,0,1-1.72,1.6c2.28,2.46,3.41,4.51,3.41,6.16A3.85,3.85,0,0,1,1026.61,857.25Zm-27.16-7.38a46.29,46.29,0,0,0-.3-7.64q-.21-.21-.63.15c-.27,1.71-.46,3.1-.58,4.17a19.09,19.09,0,0,0-.21,3.2.53.53,0,0,0,.51.34,4.74,4.74,0,0,0,.62-.11A6,6,0,0,1,999.45,849.87Zm7.65,7.92v0a2.18,2.18,0,0,1-1.79,1.81,6.69,6.69,0,0,1-1.57.18,4,4,0,0,1-2.41-.69,8.16,8.16,0,0,1-.79-1.15,4.54,4.54,0,0,1-.39-2,16.73,16.73,0,0,0-2.75.12q.06.27.12.81a5.47,5.47,0,0,1-.7,2.57,2.93,2.93,0,0,1-2.56,1.24,8.72,8.72,0,0,1-2-.3l-.06-.06c-1.71-.85-2.57-3-2.57-6.32,0-.22,0-.74.06-1.57a43.79,43.79,0,0,1,.88-7.43,18,18,0,0,1,3.2-6.83,6.12,6.12,0,0,1,5.17-2.33,6.64,6.64,0,0,1,5.47,2.27,8,8,0,0,1,1.54,3.11,45.1,45.1,0,0,1,1.66,11.21A28.47,28.47,0,0,1,1007.1,857.79Zm-35.69-19.4h0a4.59,4.59,0,0,1,3.36-1.33,5.07,5.07,0,0,1,2.48.46,4,4,0,0,1,.93,2.75c-.12,1-.21,2.3-.27,4,.24.89.6,1.33,1.09,1.33a2.28,2.28,0,0,0,.84-.27c.23-.1.4-.51.52-1.24-.12-1-.2-2.49-.24-4.32a3.59,3.59,0,0,1,2-2.72,4.92,4.92,0,0,1,1.78-.27,6.36,6.36,0,0,1,1.42.06,2.61,2.61,0,0,1,1.82,2.06q.15.51.33,1a8.74,8.74,0,0,1,.3,2q.18,4.23.18,6.34a35.88,35.88,0,0,1-1.54,9.85,3.13,3.13,0,0,1-2.66,2.12,2.76,2.76,0,0,1-2.23-.28,3.16,3.16,0,0,1-1.33-2.5,9.68,9.68,0,0,1,0-1.73,14.12,14.12,0,0,0,.08-1.72.9.9,0,0,0-1-.75,1.94,1.94,0,0,0-1.9,2c.1.4.24,1.12.42,2.15a3,3,0,0,1-.09,1.57,2.3,2.3,0,0,1-1.18,1.18,5.58,5.58,0,0,1-2,.24,3,3,0,0,1-2.3-1,6.54,6.54,0,0,1-1.27-2.69,18.25,18.25,0,0,1-.66-4.62q-.09-3.66-.09-6.25Q970.24,840.12,971.41,838.39Zm-2.84,14.29v.46q0,.3,0,.42c0,2.94-1.11,4.93-3.35,6a9.3,9.3,0,0,1-4,.88,6.85,6.85,0,0,1-4.68-1.6q-3.81-3.36-3.78-9.43a32.55,32.55,0,0,1,.64-6,11.71,11.71,0,0,1,2.08-4.81,5.67,5.67,0,0,1,2.28-1.76,7.59,7.59,0,0,1,3.22-.68,7.08,7.08,0,0,1,3.73,1,7.4,7.4,0,0,1,2.71,2.79,5.16,5.16,0,0,1,.6,2.36,4.07,4.07,0,0,1-.6,2.27,2.93,2.93,0,0,1-2.18,1.54,4.14,4.14,0,0,1-3.75-1.91q0-.09-.12-.72t-.45-.45l-.3.54c-.2,4.27-.3,6.45-.3,6.56,0,.58,0,1.15.06,1.72a1.2,1.2,0,0,0,.72,1.12,5.43,5.43,0,0,0,2.4-1.55c1.14-1,1.92-1.51,2.35-1.51a2.44,2.44,0,0,1,1,.22A2.36,2.36,0,0,1,968.57,852.68Zm167.72-42.26h0a1,1,0,0,0-.3-.06,4.19,4.19,0,0,0-.94.43,4.38,4.38,0,0,0-.09,1.54c0,1.1,0,2.15,0,3.14a5.53,5.53,0,0,0,2-1.13,2.17,2.17,0,0,0,.8-1.56A3.38,3.38,0,0,0,1136.29,810.42Zm8.64,14.08h0a6.13,6.13,0,0,1-1.42,1.84,4.73,4.73,0,0,1-2.63,1.33c-1.71.19-3.46-1.56-5.26-5.22a12,12,0,0,1,.09,1.36,4.51,4.51,0,0,1-.9,3,4.89,4.89,0,0,1-2.78,1,4.55,4.55,0,0,1-1.09-.12,4.39,4.39,0,0,1-2.33-1.14,5.48,5.48,0,0,1-.72-3.27V822q-.09-.09.06-5.4a75.75,75.75,0,0,1,.69-9.16c.27-1.51,1.33-2.55,3.21-3.11a35.64,35.64,0,0,1,5.22-.79c3.09.1,5.2,1.13,6.35,3.09a13.05,13.05,0,0,1,1.27,5.37,6.73,6.73,0,0,1-1.36,4.2,22,22,0,0,1-1.72,1.6q3.4,3.69,3.41,6.17A3.61,3.61,0,0,1,1144.93,824.5Zm-19.22-17.19,0,0c.08,1,.12,2,.12,3.17a36.2,36.2,0,0,1-2.2,12.81,7.9,7.9,0,0,1-1.8,2.8,6,6,0,0,1-2.55,1.64,15.55,15.55,0,0,1-2.42.19,9.62,9.62,0,0,1-5.62-1.58,7.73,7.73,0,0,1-3-4.19,19.38,19.38,0,0,1-.66-5.69,33.15,33.15,0,0,1,1-9.06,4,4,0,0,1,1.44-2,4.25,4.25,0,0,1,2.22-1,3.09,3.09,0,0,1,1.92.5,3.65,3.65,0,0,1,1.4,1.52,12.68,12.68,0,0,1,.09,1.55,34.34,34.34,0,0,1-.54,4.26,35.36,35.36,0,0,0-.55,4.19,9.54,9.54,0,0,0,.13,1.61,2.24,2.24,0,0,0,1,1,1.84,1.84,0,0,0,1.42-.24,3.88,3.88,0,0,0,1-2.23c0-1.37,0-3.14.09-5.29.2-1.73.33-2.8.39-3.2a13.4,13.4,0,0,1,.58-2.63,2.93,2.93,0,0,1,2.47-1.72,3.66,3.66,0,0,1,2.39,1A6.29,6.29,0,0,1,1125.71,807.31Zm-28.34,12.9v0c.59-.1.88-1.22.88-3.35a16.41,16.41,0,0,0-.33-3.4c-.22-1-.47-1.58-.73-1.62-.44-.12-.84.37-1.21,1.45a11.43,11.43,0,0,0-.54,3.6C1095.44,819.3,1096.08,820.41,1097.37,820.21Zm7.5,2.18,0,0a7.4,7.4,0,0,1-2.77,3.86,7.62,7.62,0,0,1-4.58,1.42,8.7,8.7,0,0,1-7.46-3.62,12.3,12.3,0,0,1-2.26-7.49,18.36,18.36,0,0,1,.36-3.75q1.66-7.89,7-8.88a5.56,5.56,0,0,1,1-.09,8,8,0,0,1,4.69,1.6,7.82,7.82,0,0,1,3.07,3.9,26.06,26.06,0,0,1,1.69,7.76,18.53,18.53,0,0,1-.87,5.26Zm-33.81-17.95h0a3.5,3.5,0,0,1,1.63-.39,2.83,2.83,0,0,1,2.69,1.48,7.52,7.52,0,0,1,1.27,2.66c.52,1.69.82,2.61.9,2.75q1.34-5.69,3.12-7.44a4.81,4.81,0,0,1,1.78-.33,3.24,3.24,0,0,1,2.26.76,3.84,3.84,0,0,1,1.61,3.47,18.8,18.8,0,0,1-1.55,5.41q-.75,1.7-2.53,5,0,1.31,0,3.84a10.27,10.27,0,0,1-.7,3.72,4.29,4.29,0,0,1-2.63,2.42,6.34,6.34,0,0,1-.69.06,3.43,3.43,0,0,1-3.36-1.91,9.84,9.84,0,0,1-.42-3.17c0-.62,0-1.21,0-1.75,0-.73,0-1.27,0-1.63q-5-8.46-5-12A3,3,0,0,1,1071.06,804.44ZM1059.4,813a3,3,0,0,1,.09.94,3.4,3.4,0,0,1-1.3,2.69,3.23,3.23,0,0,1-2.54.87,2.41,2.41,0,0,0-.91,0,8.7,8.7,0,0,1-.21,1.94,1.16,1.16,0,0,0,.64,1.08,3.14,3.14,0,0,1,2,0,1.92,1.92,0,0,1,1.36,1.64,3.86,3.86,0,0,1-.76,2.64,7.2,7.2,0,0,1-2.5,2.25,6.69,6.69,0,0,1-3.36.82,7.17,7.17,0,0,1-3-.64,6.48,6.48,0,0,1-1.72-1.69q-1.25-2.06-1.27-8.67a62.16,62.16,0,0,1,.63-8.7c.27-1.9.81-3.13,1.64-3.69l5-.51a12.2,12.2,0,0,1,2.48-.27c1.57,0,2.5.39,2.78,1.17a3.16,3.16,0,0,1,.18,1.09,2.64,2.64,0,0,1-1,2.12,4.06,4.06,0,0,1-2.69.81,5.62,5.62,0,0,1-.66,0,4,4,0,0,0-.24,1.45c0,.85-.07,1.33-.09,1.45a.73.73,0,0,0,.63.55,3.42,3.42,0,0,1,2.21-.7A3.08,3.08,0,0,1,1059.4,813Zm-25,8.49h0c.72-.18,1.1-.54,1.12-1.09a.83.83,0,0,0-.26-.57,14,14,0,0,0-1.92-1.3,13.61,13.61,0,0,1-2-1.48,8.08,8.08,0,0,1-1.6-2.3,8.58,8.58,0,0,1-.94-3.86,7,7,0,0,1,2.24-5.08,8.08,8.08,0,0,1,5.92-2.48,6.92,6.92,0,0,1,3.59.94,7.85,7.85,0,0,1,2.15,2.24,2.71,2.71,0,0,1,.51,1.35,3.25,3.25,0,0,1-.72,1.85l0,0a2.65,2.65,0,0,1-2,1.36,4.56,4.56,0,0,1-1-.15c-.65-.16-1-.73-1.12-1.7,0-.38-.34-.57-.88-.57a1.37,1.37,0,0,0-.75.21,2.42,2.42,0,0,0-.34,1.21,2.06,2.06,0,0,0,1,1.72q3.57,2.53,4.2,3.14a6.88,6.88,0,0,1,2.42,4.51c0,.38,0,.89.09,1.54q.06,3.9-4.69,6.07a8.16,8.16,0,0,1-3.38.82,5,5,0,0,1-.66-.06l-.06,0q-5.8-.95-6.26-4.39c-.08-.52-.13-.89-.16-1.1s-.05-.28-.05-.19a2.2,2.2,0,0,1,.48-1.42,1.39,1.39,0,0,1,1.09-.61,6.16,6.16,0,0,1,1.6.71,5,5,0,0,0,1.85.71,2.67,2.67,0,0,0,.51-.06Zm-15.65-1.3v0c.58-.1.87-1.22.87-3.35a16.41,16.41,0,0,0-.33-3.4q-.33-1.56-.72-1.62c-.45-.12-.85.37-1.21,1.45a11.42,11.42,0,0,0-.55,3.6C1016.82,819.3,1017.47,820.41,1018.76,820.21Zm7.49,2.18,0,0a7.33,7.33,0,0,1-2.76,3.86,7.64,7.64,0,0,1-4.58,1.42,8.7,8.7,0,0,1-7.46-3.62,12.31,12.31,0,0,1-2.27-7.49,18.36,18.36,0,0,1,.36-3.75q1.66-7.89,7-8.88a5.72,5.72,0,0,1,1-.09,8.07,8.07,0,0,1,4.7,1.6,7.87,7.87,0,0,1,3.07,3.9,26.38,26.38,0,0,1,1.69,7.76,18.22,18.22,0,0,1-.88,5.26Zm-27.13-2.18v0c.58-.1.88-1.22.88-3.35a15.73,15.73,0,0,0-.34-3.4q-.33-1.56-.72-1.62c-.44-.12-.85.37-1.21,1.45a11.43,11.43,0,0,0-.54,3.6C997.19,819.3,997.83,820.41,999.12,820.21Zm7.49,2.18,0,0a7.33,7.33,0,0,1-2.76,3.86,7.64,7.64,0,0,1-4.58,1.42,8.7,8.7,0,0,1-7.46-3.62,12.31,12.31,0,0,1-2.27-7.49,17.66,17.66,0,0,1,.37-3.75q1.65-7.89,7-8.88a5.72,5.72,0,0,1,1-.09,8.07,8.07,0,0,1,4.7,1.6,7.87,7.87,0,0,1,3.07,3.9,26.38,26.38,0,0,1,1.69,7.76,18.22,18.22,0,0,1-.88,5.26Zm-35.2-16.74h0a4.55,4.55,0,0,1,3.36-1.33,5.21,5.21,0,0,1,2.48.45,4,4,0,0,1,.93,2.75q-.18,1.49-.27,4c.24.89.6,1.33,1.09,1.33a2.28,2.28,0,0,0,.84-.27c.23-.1.4-.52.52-1.24q-.18-1.57-.24-4.32a3.57,3.57,0,0,1,2-2.72,4.92,4.92,0,0,1,1.78-.27,6.36,6.36,0,0,1,1.42.06,2.59,2.59,0,0,1,1.82,2.05c.1.34.21.69.33,1a8.65,8.65,0,0,1,.3,2q.18,4.23.18,6.35a35.94,35.94,0,0,1-1.54,9.85,3.11,3.11,0,0,1-2.66,2.11,2.8,2.8,0,0,1-2.23-.27,3.18,3.18,0,0,1-1.33-2.51,9.57,9.57,0,0,1,0-1.72,14.12,14.12,0,0,0,.08-1.72.91.91,0,0,0-1-.76,2,2,0,0,0-1.9,2.06c.1.4.24,1.12.42,2.14a3,3,0,0,1-.09,1.57,2.23,2.23,0,0,1-1.18,1.18,5.58,5.58,0,0,1-2,.24,3,3,0,0,1-2.3-1A6.6,6.6,0,0,1,971,824a18.25,18.25,0,0,1-.66-4.62q-.09-3.66-.09-6.26C970.24,809.29,970.63,806.8,971.41,805.65Zm-2.84,14.29v.45c0,.2,0,.35,0,.43,0,2.94-1.11,4.93-3.35,6a9.43,9.43,0,0,1-4,.87,6.8,6.8,0,0,1-4.68-1.6q-3.81-3.35-3.78-9.42a32.65,32.65,0,0,1,.64-6,11.67,11.67,0,0,1,2.08-4.8,5.68,5.68,0,0,1,2.28-1.77,7.75,7.75,0,0,1,3.22-.68,7.17,7.17,0,0,1,3.73,1,7.43,7.43,0,0,1,2.71,2.8,5.13,5.13,0,0,1,.6,2.36,4,4,0,0,1-.6,2.26,2.91,2.91,0,0,1-2.18,1.54,4.13,4.13,0,0,1-3.75-1.9c0-.06-.06-.3-.12-.73s-.19-.47-.45-.45l-.3.55q-.3,6.4-.3,6.55c0,.59,0,1.16.06,1.72a1.18,1.18,0,0,0,.72,1.12,5.37,5.37,0,0,0,2.4-1.54c1.14-1,1.92-1.51,2.35-1.51a2.59,2.59,0,0,1,1,.21A2.37,2.37,0,0,1,968.57,819.94Zm-25.46-26.4h369.41V903.06H943.11Z" style="fill:#fff;fill-rule:evenodd"/></g></g></svg>