<svg id="Layer_1" data-name="Layer 1" xmlns="http://www.w3.org/2000/svg" xmlns:xlink="http://www.w3.org/1999/xlink" viewBox="0 0 300 300"><defs><linearGradient id="linear-gradient" x1="-216.89" y1="74.2" x2="-216.89" y2="75.39" gradientTransform="matrix(3.24, -5.19, -5.19, -3.24, 1287.62, -653.64)" gradientUnits="userSpaceOnUse"><stop offset="0" stop-color="#e7b360"/><stop offset="1" stop-color="#ffc94d"/></linearGradient><linearGradient id="linear-gradient-2" x1="-204.51" y1="124.1" x2="-206.23" y2="122.54" gradientTransform="matrix(12.26, -12.26, -12.97, -12.97, 4269.11, -740.76)" gradientUnits="userSpaceOnUse"><stop offset="0" stop-color="#c86e4c"/><stop offset="1" stop-color="#ffd166"/></linearGradient></defs><title>items</title><g id="item__2-2"><polygon points="156.1 203.86 185.68 228.26 192.7 220.33 166.14 193.85 156.1 203.86" style="fill:#2a455f;fill-rule:evenodd"/><path d="M185.85,230.45,153.74,204l12.4-12.37,28.75,28.65Zm-27.39-26.7,27,22.31,5-5.67-24.38-24.3Z" style="fill:#163150"/><circle cx="195.99" cy="229.47" r="9.52" style="fill:#2a455f"/><path d="M196,240.58a11,11,0,0,1-5.86-1.69,11.11,11.11,0,0,1-3.54-15.3h0a11.11,11.11,0,1,1,11.92,16.71A11.38,11.38,0,0,1,196,240.58Zm-6.71-15.31a7.94,7.94,0,1,0,5-3.53,7.94,7.94,0,0,0-5,3.53Z" style="fill:#163150"/><circle cx="195.99" cy="229.47" r="4.76" style="fill:url(#linear-gradient)"/><path d="M139.23,186.54c2.65-4.24,8.64-9.49,9.71-8.81s-11.11-11.18-15.07-20-21.08-49.23-12.81-71.44c-11-10.32-15.15-19.79-19.06-27.93q-2.73-3.91-6.71,31.05l1.4,2.89-2.21,2.68q2.47,22.89,6.1,33.56a138.13,138.13,0,0,0,11,23.57l1.48.92.28,4.35Q133.61,183.47,139.23,186.54Z" style="fill:#e3edff;fill-rule:evenodd"/><path d="M139.23,188.13a1.6,1.6,0,0,1-.76-.2c-4-2.16-12.6-11.85-26.36-29.62a1.67,1.67,0,0,1-.33-.87l-.23-3.54-.79-.49a1.58,1.58,0,0,1-.53-.56A139.52,139.52,0,0,1,99.08,129c-2.44-7.19-4.52-18.6-6.17-33.9a1.58,1.58,0,0,1,.35-1.18L94.82,92l-1-2a1.63,1.63,0,0,1-.15-.87c3.64-31.88,5.63-32.39,7.23-32.79a2.16,2.16,0,0,1,2.36,1,1.27,1.27,0,0,1,.13.22l.66,1.39c3.71,7.75,7.91,16.54,18.06,26.07a1.6,1.6,0,0,1,.4,1.71c-8.06,21.65,9.22,62.31,12.77,70.24,2.86,6.41,10.28,14.54,13.44,18,1.79,2,2.39,2.62,1.47,3.73a1.67,1.67,0,0,1-1.55.52c-1.38.56-5.87,4.51-8.11,8.09A1.58,1.58,0,0,1,139.23,188.13Zm-24.31-31.38c14.2,18.32,20.83,25.25,23.9,27.61,1.68-2.2,4.79-5.69,7.46-7.33-3.34-3.66-10.83-11.92-13.86-18.7-5-11.25-20.65-49.27-13.2-71.65-9.86-9.49-14.11-18.18-17.79-25.89-.89,2.72-2.4,9.83-4.51,28.3l1.2,2.47a1.58,1.58,0,0,1-.21,1.7l-1.78,2.16c1.62,14.74,3.62,25.69,6,32.56a135.83,135.83,0,0,0,10.69,22.94l1.14.71a1.6,1.6,0,0,1,.74,1.25Z" style="fill:#163150"/><path d="M146.86,213c.06,0-.34,9.79-6.53,2.57q-6.2-7.23,3.43-6.89,24.62-23.74,28.07-26.8c-2.16-2.91.67-10.1,6.67-3.88s.78,8.17-3.22,6.69C170.33,189.4,146.8,212.92,146.86,213Z" style="fill:#78e1f2;fill-rule:evenodd"/><path d="M144.19,219.78c-2.31,0-4.34-2.37-5.06-3.22-1.62-1.88-3.62-4.65-2.48-7,1.06-2.18,4.06-2.51,6.48-2.48,14.43-13.92,23.41-22.5,26.74-25.56a6.25,6.25,0,0,1,1.56-6.56c.82-.69,3.83-2.6,8.21,1.93,3.82,4,3.51,6.47,2.58,7.89-1.26,1.94-4.06,2.3-6.51,1.7C170,192,151.38,210.59,148.44,213.6c0,.25-.06.51-.1.78-.4,2.94-1.52,4.76-3.23,5.27A3.3,3.3,0,0,1,144.19,219.78Zm-1.27-9.57c-3,0-3.4.68-3.41.69s-.31.87,2,3.59c1.66,1.94,2.55,2.15,2.68,2.11.49-.18,1.05-2.26,1.06-3.51-.08-.8.1-1,12.81-13.67,3-3,12.91-12.86,16.09-15.92l.72-.69.93.35c1.76.65,3.41.34,3.74-.15s-.11-1.79-2.21-3.95c-.62-.65-2.75-2.67-3.88-1.72a3.06,3.06,0,0,0-.37,3.56l.86,1.17-1.09,1c-2.28,2-11.71,11-28,26.75l-.49.47-.67,0Z" style="fill:#163150"/><path d="M157.66,205.16c-1.57,2.51-1.11,16.37,3.47,22.9s14.15,10.84,25.24,4.48a14.69,14.69,0,0,0,3.11,4.08q-12.36,9-24.84,3.15t-13.91-30.85l5.37-5.06A13.45,13.45,0,0,1,157.66,205.16Z" style="fill:#2a455f;fill-rule:evenodd"/><path d="M174.46,243.67A24.39,24.39,0,0,1,164,241.2c-8.85-4.16-13.84-15-14.82-32.19l0-.74,6.79-6.4,1,.65a12.3,12.3,0,0,1,1.79,1.47l1,.89L159,206c-1.13,1.82-.9,15,3.43,21.15s13.13,9.76,23.15,4l1.48-.85.74,1.54a13.19,13.19,0,0,0,2.79,3.63l1.34,1.31-1.52,1.11C185.15,241.74,179.81,243.67,174.46,243.67Zm-22.1-34.11c1,15.52,5.36,25.2,13,28.77,7.33,3.45,14.45,2.81,21.74-2a15.71,15.71,0,0,1-1.3-1.7c-11.18,5.64-21,1.33-25.93-5.7-4.13-5.88-5.21-17.18-4.24-22.44Z" style="fill:#163150"/><path id="Fill-9-Copy" d="M150.31,199.09l4.71,5.09,1.84-1.79-2.4-2.48,1.64-1.84,2.4,2.49,1.15-1-2.4-2.48,1.63-1.84,2.4,2.48,1.16-1L160,194.26l1.64-1.83,2.4,2.48,1.62-1.46-4.92-5a11.68,11.68,0,0,0-2.73-11c-4.57-4.66-12.52-4.13-17.75,1.17s-5.77,13.38-1.2,18C141.9,199.48,146.36,200.05,150.31,199.09Z" style="fill-rule:evenodd;fill:url(#linear-gradient-2)"/><path d="M143.12,195.17a4.25,4.25,0,0,1,.17-5.94,4.1,4.1,0,0,1,5.85-.16A4.24,4.24,0,0,1,149,195a4.1,4.1,0,0,1-5.85.17m10.21-1.91c-.38-.4-1.58-2.38-1.12-2.85s2.41.76,2.8,1.16a1.13,1.13,0,0,1-.13,1.56,1.09,1.09,0,0,1-1.55.13m-2.13-6.17a4.25,4.25,0,0,1,.18-5.94,4.08,4.08,0,0,1,5.84-.16,4.24,4.24,0,0,1-.17,5.93,4.1,4.1,0,0,1-5.85.17M139,196.46a11.44,11.44,0,0,0,11.06,2.82l5,5.09,2-2.08-2.44-2.53,1.28-1.29,2.44,2.52L160,199.4l-2.44-2.52,1.28-1.3,2.44,2.52,1.57-1.59L160.4,194l1.28-1.3,2.44,2.52,2-2.07-5-5.09a11.84,11.84,0,0,0-2.74-11.24c-4.65-4.73-12.76-4.17-18.11,1.26s-5.93,13.66-1.29,18.39" style="fill:#163150;fill-rule:evenodd"/></g></svg>