<svg style="width:192px;height:66px" viewBox="0 0 1000 348" width="1000" xmlns="http://www.w3.org/2000/svg"><g fill="none" fill-rule="evenodd"><path d="m166.742422 43.9572383c0-3.3971344 1.457703-6.2364878 4.373154-8.5181452 2.915452-2.2816574 6.553373-3.422469 10.913874-3.422469 4.309797 0 7.852651.9887034 10.628668 2.9661398 2.776016 1.9774364 4.37949 4.6520059 4.81047 8.0237885h-6.464664c-.430979-1.6478637-1.419683-2.9661349-2.96614-3.9548531-1.546456-.9887182-3.56189-1.4830699-6.046362-1.4830699-2.433767 0-4.487228.564068-6.160444 1.6922208-1.673215 1.1281528-2.50981 2.6048701-2.50981 4.430196 0 1.3943462.583081 2.5541714 1.749262 3.4795102 1.16618.9253389 2.953451 1.6795421 5.361868 2.2626323l6.312554 1.5210974c3.853466.9380147 6.724508 2.2879751 8.613213 4.0499217 1.888706 1.7619465 2.833044 4.113286 2.833044 7.0540889 0 3.6760037-1.571785 6.6611274-4.715402 8.9554607-3.143616 2.2943333-7.047727 3.4414827-11.712449 3.4414827-4.563315 0-8.302642-1.0140547-11.218093-3.0421947-2.915451-2.0281399-4.550615-4.7407364-4.905539-8.1378708h6.730856c.557738 1.723919 1.647847 3.0992307 3.270359 4.1259766 1.622512 1.0267458 3.739351 1.540111 6.350581 1.540111 2.763341 0 5.032289-.5957571 6.806911-1.7872893 1.774623-1.1915323 2.66192-2.7252901 2.66192-4.6013195 0-1.419698-.538716-2.6048745-1.616165-3.5555651-1.07745-.9506906-2.706275-1.6922181-4.886526-2.2246049l-7.035075-1.7112345c-3.828114-.9380147-6.648454-2.2816373-8.461104-4.030908s-2.718961-4.106948-2.718961-7.0731026zm73.126755-11.218093v40.9935736h-6.2365v-6.4266363h-.608438c-1.01407 2.2816574-2.598531 4.0435776-4.75343 5.2858133-2.154898 1.2422357-4.804116 1.8633442-7.947733 1.8633442-4.588667 0-8.068142-1.3182712-10.438531-3.9548531-2.370388-2.6365819-3.555565-6.3759088-3.555565-11.2180929v-26.5431488h6.540719v24.9459965c0 3.6760037.728852 6.394938 2.186577 8.1568846 1.457726 1.7619466 3.821741 2.6429066 7.092116 2.6429066 3.625301 0 6.394938-1.0140547 8.308995-3.0421947 1.914057-2.0281399 2.871071-4.8421419 2.871071-8.4420903v-24.2615027zm10.571626 40.9935736v-40.9935736h6.236499v6.4646637h.608439c.938015-2.2816574 2.395719-4.0499154 4.373155-5.304827 1.977437-1.2549116 4.335114-1.8823579 7.073103-1.8823579 2.788692 0 5.140032.6654734 7.054089 1.9964402 1.914057 1.3309669 3.340071 3.0611978 4.278086 5.1907447h.608439c1.115477-2.1802504 2.775992-3.923157 4.981594-5.2287721s4.728063-1.9584128 7.567459-1.9584128c4.183039 0 7.402663 1.1534873 9.658968 3.4604964 2.256306 2.3070092 3.384442 5.6153629 3.384442 9.9251602v28.3304382h-6.540719v-26.8093408c0-3.0168582-.716176-5.27313-2.14855-6.7688832-1.432373-1.4957532-3.593578-2.2436186-6.483677-2.2436186-2.839396 0-5.133695.925325-6.882966 2.7760027-1.74927 1.8506777-2.623893 4.0815981-2.623893 6.6928283v26.3530116h-6.540718v-27.8360815c0-2.4337679-.779555-4.3731477-2.338687-5.8181974-1.559133-1.4450497-3.631607-2.1675637-6.217486-2.1675637-2.687285 0-4.943557 1.0140548-6.768883 3.0421947s-2.737975 4.4872227-2.737975 7.3773221v25.4023258zm66.015625 0v-40.9935736h6.236499v6.4646637h.608439c.938015-2.2816574 2.395719-4.0499154 4.373155-5.304827 1.977437-1.2549116 4.335114-1.8823579 7.073103-1.8823579 2.788692 0 5.140032.6654734 7.054089 1.9964402 1.914057 1.3309669 3.340071 3.0611978 4.278086 5.1907447h.608439c1.115477-2.1802504 2.775992-3.923157 4.981594-5.2287721s4.728063-1.9584128 7.567459-1.9584128c4.183039 0 7.402663 1.1534873 9.658968 3.4604964 2.256306 2.3070092 3.384442 5.6153629 3.384442 9.9251602v28.3304382h-6.540719v-26.8093408c0-3.0168582-.716176-5.27313-2.14855-6.7688832-1.432373-1.4957532-3.593578-2.2436186-6.483677-2.2436186-2.839396 0-5.133695.925325-6.882966 2.7760027-1.74927 1.8506777-2.623893 4.0815981-2.623893 6.6928283v26.3530116h-6.540718v-27.8360815c0-2.4337679-.779555-4.3731477-2.338687-5.8181974-1.559133-1.4450497-3.631607-2.1675637-6.217486-2.1675637-2.687285 0-4.943557 1.0140548-6.768883 3.0421947s-2.737975 4.4872227-2.737975 7.3773221v25.4023258zm82.367422-35.9359249c-3.270376 0-5.957621 1.1027845-8.061816 3.3083867s-3.283034 5.1210097-3.536552 8.7463098h22.588296c-.076055-3.6253001-1.115461-6.5407076-3.118249-8.7463098-2.002789-2.2056022-4.626655-3.3083867-7.871679-3.3083867zm10.799791 25.3262709h6.540719c-.988719 3.5238931-2.991477 6.2935302-6.008335 8.3089943-3.016858 2.015464-6.768861 3.0231809-11.25612 3.0231809-5.678792 0-10.17866-1.9076905-13.499739-5.7231287-3.32108-3.8154383-4.981594-8.9681041-4.981594-15.4581519 0-6.4393443 1.67319-11.59201 5.019621-15.4581518s7.833623-5.7991836 13.461712-5.7991836c5.526681 0 9.874441 1.8443121 13.043409 5.5329916 3.168969 3.6886795 4.75343 8.7145884 4.75343 15.0778775v2.5098106h-29.471262v.3042195c.177463 4.0562798 1.324612 7.2759037 3.441483 9.6589681 2.116871 2.3830645 4.91186 3.5745788 8.385049 3.5745788 2.636582 0 4.842151-.4753382 6.616774-1.4260288 1.774622-.9506906 3.092893-2.3260023 3.954853-4.1259765zm15.591248 10.609654s0-1.3816496 0-4.1449903 0-6.1794376 0-10.2483934c0-4.0689557 0-8.1378505 0-12.2068062 0-4.0689558 0-7.4850527 0-10.2483934s0-4.1449903 0-4.1449903h6.236499v6.0843894h.608439c.608442-2.0027882 1.977416-3.6379515 4.106963-4.9055389 2.129547-1.2675875 4.550602-1.9013717 7.26324-1.9013717.532386 0 1.10913.0190135 1.730248.0570411s1.134483.0823925 1.540111.133096v6.5407186c-.253518-.0760552-.849275-.1584472-1.78729-.2471783-.938014-.0887311-1.736582-.133096-2.395728-.133096-3.118265 0-5.691429.9380007-7.719569 2.8140301s-3.042195 4.2590581-3.042195 7.1491575v25.4023258z" fill="#ffd166" fill-rule="nonzero" transform="translate(525.345622 244.239631)"/><path d="m137.138747 36.4554594-47.8508609-9.1706212-15.9493862 46.0531134-46.0507779 15.9519617 9.1652886 47.8504797-31.84471567 36.868978 31.84471567 36.868978-9.1679915 47.85048 46.050778 15.951961 15.9493861 46.050411 47.8535638-9.167918 36.869273 31.844461 36.871975-31.844461 47.850861 9.167918 15.952089-46.047708 46.048075-15.954664-9.165289-47.85048 31.842013-36.868978-31.842013-36.868978 9.167992-47.8504797-46.053481-15.9492588-15.949386-46.0531135-47.850861 9.1679184-36.871975-31.84716447z" fill="#ffd166" stroke="#163150" stroke-width="1.3"/><path d="m347.957759 174.009802-32.696689 37.858885 9.409519 49.140449-47.281602 16.380372-16.383137 47.284347-49.140292-9.412265-37.858968 32.699536-37.858985-32.69955-49.1433535 9.412319-16.3775426-47.286997-47.2871825-16.377607 9.4151167-49.140691-32.69938772-37.858798 32.69947822-37.861677-9.4123193-49.1405779 47.2869606-16.3803053 16.3776434-47.2872883 49.1406917 9.4151167 37.85888-32.69945915 37.858985 32.69954975 49.143353-9.4123193 16.377543 47.2869972 47.287027 16.3775529-9.412366 49.1408214zm-40.115065-35.875885 8.91656-46.5522814-44.806234-15.5183465-15.518356-44.8062639-46.555155 8.9166072-35.872919-30.98414568-35.873024 30.98423618-46.5524115-8.9192149-15.5182559 44.8059728-44.8063006 15.5209993 8.9166072 46.5525249-30.98421718 35.875632 30.98430768 35.873106-8.9192149 46.552412 44.8060786 15.518293 15.5183568 44.806263 46.5551548-8.916607 35.872919 30.984146 35.872936-30.98416 46.55281 8.916662 15.523573-44.803509 44.800849-15.520933-8.914003-46.552655 30.981602-35.873018z" fill="#16314f" fill-rule="nonzero"/><path d="m295.54802 174.00972c0 67.124085-54.416534 121.540619-121.540619 121.540619-67.126788 0-121.5406195-54.416534-121.5406195-121.540619 0-67.126788 54.4138315-121.5433221 121.5406195-121.5433221 67.124085 0 121.540619 54.4165341 121.540619 121.5433221" fill="#fff1b6" stroke="#163150" stroke-width="1.5"/><path d="m295.54802 174.00972h3.456221c0-69.035177-55.963507-124.9995433-124.99684-124.9995433-69.035115 0-124.9968407 55.9634453-124.9968407 124.9995433 0 69.033825 55.9621557 124.99684 124.9968407 124.99684 69.032903 0 124.99684-55.963937 124.99684-124.99684zm0 0h-3.456221c0 65.215267-52.869131 118.084398-118.084398 118.084398-65.217025 0-118.0843983-52.868186-118.0843983-118.084398 0-65.218509 52.8669673-118.0871009 118.0843983-118.0871009 65.215673 0 118.084398 52.8695369 118.084398 118.0871009z" fill="#163150" fill-rule="nonzero"/><path d="m245.259953 75.5713313c25.961025 22.2882123 42.427871 55.3246027 42.427871 92.2256877 0 67.124085-54.416534 121.540619-121.540619 121.540619-26.623158 0-51.230188-8.58611-71.2509317-23.10169 21.2612307 18.255956 48.8870467 29.314931 79.1100467 29.314931 67.126787 0 121.540619-54.416534 121.540619-121.540619 0-40.50363-19.826158-76.3534102-50.286986-98.4389287" fill="#16314f" opacity=".167271"/><g fill="#ffd166" transform="translate(101.382488 110.599078)"><path d="m71.3884902 23.7974257c6.5402354-6.1791865 13.079588-12.1830095 19.4132618-18.38811182 7.2817386-7.13375116 15.417971-7.26937709 22.748261-.06306174 8.297775 8.15828846 16.587605 16.32780706 24.800636 24.56729826 5.420036 5.4362674 5.906427 12.7566122 1.440635 18.8684177-3.893775 5.3300126-9.870821 5.917437-14.678234 1.3424375-4.110929-3.9141471-8.103571-7.9449152-12.167715-11.9065745-6.671764-6.5048615-15.1557975-6.5800173-21.8558091-.1503115-4.0959229 3.9288326-8.1071024 7.9414597-12.1774257 11.897072-5.4641729 5.3092801-9.9688053 5.2669509-15.5141904-.1338982-3.8566998-3.7560608-7.6666142-7.5596339-11.5497962-11.2897789-6.3186671-6.0694763-14.7894592-6.218924-21.2634889-.2436083-3.633366 3.3535023-7.0972456 6.8927344-10.5063951 10.4682485-5.3043966 5.5641186-9.719872 6.9868951-14.11327889 4.3417575-5.08282835-3.0606539-7.47947284-10.5183524-4.94776883-16.4513389.93482376-2.1933391 2.45313998-4.2881982 4.14977008-6.0064146 8.27747164-8.3794365 16.66705144-16.654346 25.09105824-24.89297333 7.2075883-7.04909293 15.1266666-6.96357085 22.3942814.0596063 6.2692336 6.05824613 12.579956 12.07589093 18.7361986 17.98123403"/><path d="m114.738943 82.3297602c-1.871183 3.4390701-3.11153 7.4405364-5.729942 10.2145643-8.395444 8.8931055-17.2458 17.3868415-26.0259648 25.9306055-7.8427964 7.63289-16.1689373 7.562159-24.0170648-.089707-8.6699907-8.453195-17.3230998-16.924503-25.9184565-25.4501539-5.6179904-5.5730704-6.5047142-12.7134321-2.5144572-18.8937525 4.1421907-6.4166647 10.8432636-7.1990165 16.358188-1.8545274 4.1901697 4.0609837 8.2612803 8.2384145 12.4745511 12.2761088 7.0626927 6.7703188 16.1387283 6.7185645 23.2085291-.0707308 3.6846127-3.5382658 7.414539-7.0385784 10.9747617-10.6915661 3.401181-3.4899617 6.8929894-6.4572056 12.3332794-4.4836434 4.329664 1.5707416 7.748615 7.1024086 8.856576 13.1128025"/></g><g fill="#067997" fill-rule="nonzero" transform="translate(396.313364 110.599078)"><path d="m79.5497535 30.3579319-29.2279096 37.8877597c-.1748018.226815-.4432192.3603634-.7282848.3623508h-3.5712276c-.2835726.0001461-.5517207-.1300143-.7282848-.353513l-29.2279096-37.5872735c-.245116-.3108366-.658122-.4323314-1.0308066-.3032347-.3726846.1290968-.6241314.4807559-.6275768.8776933v70.4904995c0 .517386-.4164193.936809-.9300986.936809h-11.89824239c-.51367927 0-.9300986-.419423-.9300986-.936809l.16671579-98.30313755c-.00001104-.2499962.09918478-.48962657.27551448-.66556871.1763297-.17594215.41516436-.27359929.66335863-.27128258h8.56392669c.2850656.00202913.553483.13557752.7282848.3623926l36.1159039 46.76977464c.1762791.2270459.4465109.3597225.732672.3597225.2861612 0 .556393-.1326766.732672-.3597225l35.9755118-46.76977464c.176695-.2292592.4489099-.3623926.7370592-.3623926h8.5463777c.4930115.0281939.8774527.43948587.8774527.93685129v98.30313755c0 .517386-.4164205.936809-.9300998.936809h-11.7052031c-.5136792 0-.9300986-.419423-.9300986-.936809v-70.7998234c-.0078842-.392363-.2577408-.7381906-.6259842-.8664274-.3682435-.1282369-.776815-.0116999-1.0236246.2919687z"/><path d="m134.408022 128.705259h-12.082508c-.317005.018627-.619267-.136709-.790337-.406164s-.184252-.610978-.034467-.892997l12.986282-28.3782588c.113684-.2404133.113684-.5196399 0-.7600531l-29.078743-64.4365886c-.145276-.28136-.129742-.6195515.040706-.8861995s.469675-.4208694.784099-.4041231h12.898537c.383983-.0256609.739758.2036777.877451.5656209l19.82163 48.678745c.755874 1.5100123 1.206249 3.1562789 1.324952 4.8431286h.666863c.082267-1.6436898.413682-3.2650333.982746-4.8077773v-.0707026l19.812855-48.6080424c.137693-.3619432.493468-.5912818.877451-.5656209h11.924566c.313411-.0182815.61264.1334781.784685.3979682s.19069.601407.048894.8835166l-41.020858 94.290764c-.134214.339494-.462026.560783-.824804.556784z"/><path d="m270.930701 91.674768c.288563.3617231.250244.8866236-.087745 1.2019443l-.763383.7688909c-1.236274 1.1056141-2.537236 2.1355949-3.895884 3.0844012-2.05609 1.5100869-4.247506 2.8237719-6.545788 3.9239946-2.979912 1.330414-6.091907 2.337704-9.283437 3.004861-3.970757.901347-8.029733 1.34901-12.100057 1.334853-14.694388 0-26.686225-5.0084427-35.975511-15.0246454-9.289287-10.0162027-13.931005-22.4274562-13.925161-37.2337605 0-14.9123582 4.612475-27.3766387 13.837415-37.3928413 9.224941-10.01620273 21.243101-15.02430407 36.054483-15.02430407 6.224805-.05925721 12.407685 1.03107792 18.242217 3.21696863 5.527944 2.11518633 9.39458 4.23037266 11.599909 6.34555899l2.720099 2.60715865c.35423.3122726.400693.8504504.105294 1.21962l-6.800249 9.0764472c-.150766.228101-.398053.3728595-.669458.3918911-.271405.0190317-.536222-.0898168-.716915-.2946751l-.377304-.3446752c-.497223-.4477831-1.573563-1.2549712-3.229022-2.4215643-1.648007-1.1623802-3.36518-2.2219588-5.141866-3.1727795-2.188533-1.1007176-4.497259-1.9401101-6.879219-2.5011047-2.844898-.7275112-5.769166-1.092713-8.704319-1.0870526-10.50017 0-19.119669 3.7855355-25.858496 11.3566063-6.738828 7.5710709-10.108242 16.9214906-10.108242 28.0512594 0 11.0178229 3.369414 20.3122698 10.108242 27.8833407 6.738827 7.5710708 15.358326 11.3566063 25.858496 11.3566063 4.544977.0178391 9.049345-.8619109 13.258292-2.589483 4.176669-1.7145382 7.203877-3.402563 9.081623-5.0640743l.061422-.0530269 1.877746-1.8912948c.180749-.2014206.443386-.3079853.712284-.2890093.268899.018976.514217.1613866.665315.3862254z"/><path d="m321.015633 42.6425099c0 .4880997-.392848.8837826-.877451.8837826h-6.440494c-4.820993-.080801-9.44918 1.9046275-12.731822 5.4617764-3.508115 3.6342344-5.407106 8.5434776-5.264709 13.6102519v39.1427312c0 .488099-.392848.883782-.877451.883782h-11.740301c-.484603 0-.877452-.395683-.877452-.883782v-68.2722053c0-.4880997.392849-.8837826.877452-.8837826h8.41476c.484603 0 .877451.3956829.877451.8837826l.359755 10.9589041h.824805c1.595276-3.7073505 4.325398-6.8039954 7.791769-8.8378259 3.73006-2.1681872 7.978651-3.265508 12.284321-3.1727795h6.440494c.484603 0 .877452.3956829.877452.8837826z"/><path d="m356.99992 128.705259h-12.064959c-.321155.024083-.629602-.130968-.803565-.40394-.173963-.272971-.185484-.619992-.030014-.904059l13.021381-28.360583c.11649-.2428688.11649-.5260221 0-.7688909l-29.069969-64.4277507c-.150818-.2834565-.136862-.6270565.036442-.8971565.173305-.2701001.478598-.4240627.797137-.402004h12.880988c.386258-.0243713.742754.209023.877452.5744587l19.742659 48.6787451c.877451 2.0061864 2.114658 3.6146707 2.114658 4.8431285h-.877452c0-1.2284578 1.114364-2.8369421 1.754904-4.8431285l19.821629-48.6787451c.134698-.3654357.491194-.59883.877452-.5744587h11.907016c.323528-.0379191.641289.1077833.825345.3784433.184056.2706599.204117.6217377.052107.9118793l-41.029632 94.3172775c-.135357.342552-.467616.564482-.833579.556784z"/><path d="m419.193682 93.8135219v33.9726031c0 .488099-.392848.883782-.877451.883782h-11.801723c-.484603 0-.877451-.395683-.877451-.883782v-94.3261162c0-.4880996.392848-.8837826.877451-.8837826h9.037751c.484603 0 .877451.395683.877451.8837826l.078971 9.2708794h.675637c.304543.0055923.590179-.1482919.754609-.40654l.561569-.8837826c.798126-1.0172755 1.678591-1.9661711 2.632354-2.8369421 1.456814-1.4080257 3.070333-2.6417248 4.808434-3.6765356 2.270842-1.2589623 4.695708-2.2127315 7.212652-2.8369421 3.161954-.851786 6.4228-1.2738504 9.695839-1.2549713 8.827829-.1988886 17.302805 3.4898794 23.208592 10.101635 6.188958 6.7344234 9.283437 15.6105465 9.283437 26.6283695 0 10.7939313-3.06523 19.6140816-9.195692 26.4604507-5.71552 6.6624143-14.073168 10.4245913-22.813739 10.2695533-3.208187.024351-6.407607-.340629-9.529123-1.087052-2.41711-.514338-4.738655-1.409094-6.87922-2.651348-1.480978-.9285141-2.894335-1.9622153-4.229316-3.093239-.89019-.7204077-1.68884-1.5485672-2.377894-2.4657535l-.052647-.0795404-.640539-1.1224039zm5.466523-7.7596112c4.216703 4.8113358 10.421654 7.3641769 16.776873 6.9023421 4.698325-.2052205 9.163063-2.1208219 12.565106-5.3910738 5.083369-4.9373988 7.625053-11.5893357 7.625053-19.9558109 0-7.3471793-2.015213-13.4128738-6.045641-18.1970835-3.737132-4.6456148-9.393913-7.2938392-15.329078-7.1763146-5.945002-.1034814-11.63554 2.4263048-15.565989 6.9200176-4.200068 4.619237-6.300102 10.7674179-6.300102 18.4445427 0 7.6771247 2.100034 13.8282516 6.300102 18.4533804z"/><path d="m491.609755 31.6129032v-19.5050817c0-.5125047.412491-.9279717.921324-.9279717h11.740301c.508834 0 .921324.415467.921324.9279717v19.5050817c0 .5125047.412491.9279717.921325.9279717h18.040402c.508834 0 .921325.4154671.921325.9279718v8.9880689c0 .5125046-.412491.9279717-.921325.9279717h-18.031628c-.508833 0-.921324.4154671-.921324.9279717v37.7993814c0 7.0113419 3.217322 10.5170128 9.651967 10.5170128 1.549782-.0177093 3.08803-.270968 4.562747-.7512152 1.303128-.370247 2.555717-.9016144 3.729169-1.5819708l.447501-.2297835c.227913-.1156436.49324-.1308911.732734-.0421081.239493.088783.431697.2736423.530796.5105129l3.509806 8.1484754c.18319.3836077.068856.8442421-.27201 1.0958905-.594179.4399076-1.215495.8413636-1.860197 1.2019446-1.426997.752775-2.922641 1.365412-4.466229 1.82943-3.265255 1.077506-6.691216 1.576868-10.12579 1.475917-6.586736-.206216-11.523863-2.147592-14.811381-5.8241277-3.509806-3.8945353-5.264709-9.291501-5.264709-16.190897v-38.0026514c0-.5125046-.412491-.9279717-.921325-.9279717h-10.871624c-.508833 0-.921324-.4154671-.921324-.9279717v-8.935042c0-.5125046.412491-.9279717.921324-.9279717h10.915497c.245878.0000112.48156-.0989692.654597-.2749138.173036-.1759446.269069-.4142547.266727-.6618958z"/><path d="m592.604423 94.3172779c-6.849971 6.6755041-15.247182 10.0132571-25.191632 10.0132571-10.055595 0-18.452805-3.337753-25.191633-10.0132571-6.738828-6.6755044-10.108241-15.4691412-10.108241-26.3809102 0-11.017823 3.398662-19.949919 10.195986-26.7962882 6.797324-6.8463691 15.168212-10.2695536 25.112662-10.2695536 9.456352-.2051379 18.57527 3.5410479 25.191633 10.3490941 6.849971 6.8993961 10.274957 15.8020327 10.274957 26.7079098 0 10.9058772-3.42791 19.7024599-10.283732 26.3897481zm-9.651966-7.9540433c4.200068-4.619237 6.300102-10.8233907 6.300102-18.6124613 0-7.6594491-2.100034-13.8930623-6.300102-18.7008396-3.859973-4.6291509-9.582299-7.2643171-15.583539-7.1763146-6.001272-.088485-11.734437 2.4995406-15.662509 7.0702607-4.252715 4.7135071-6.379073 10.9736338-6.379073 18.78038s2.100034 14.0109 6.300102 18.6124614c4.027941 4.4157422 9.708962 6.9289875 15.662509 6.9289875s11.634569-2.5132453 15.66251-6.9289875z"/></g></g></svg>
