<svg xmlns="http://www.w3.org/2000/svg" xmlns:xlink="http://www.w3.org/1999/xlink" id="Layer_1" data-name="Layer 1" viewBox="0 0 983.66 1709.6"><defs><clipPath id="clip-path"><path id="path-1" d="M-215.1,654.52S-260.34,416.76-211.34,346c43.79-63.22,57.33-61.67,82.76-71.48,300.58-115.89,456.33,41,673.42-94.05,228.5-142.19,599.31-123.24,664.5,94.05l-2.38,380Z" style="fill:none;clip-rule:evenodd"/></clipPath><linearGradient id="linear-gradient" x1="293.95" x2="293.95" y1="1910.4" y2="1912.61" gradientTransform="matrix(1234, 0, 0, -479.22, -362233.34, 916115.82)" gradientUnits="userSpaceOnUse"><stop offset="0" stop-color="#84f3fb"/><stop offset="1" stop-color="#105bf8"/></linearGradient><linearGradient id="linear-gradient-2" x1="294" x2="294" y1="1917.15" y2="1920.52" gradientTransform="matrix(1249.92, 0, 0, -143.68, -366931.16, 276153.64)" gradientUnits="userSpaceOnUse"><stop offset="0" stop-color="#00cbfe"/><stop offset="1" stop-color="#057a97"/></linearGradient><mask id="mask" width="1561.86" height="882.33" x="-524.52" y="164.92" maskUnits="userSpaceOnUse"><g id="mask-2"><path id="path-1-2" d="M-524.52,1047.25c40.63-66.33,117.15-108.13,261.29-102,358.82,15.4,496-50.77,505.28-191.61,4.77-72.41-4.23-107-27.81-136.43-22.28-27.78-57.58-50.9-106.59-96.84-90.66-85-62.8-283.27,9.52-355.4,60.49,1.15,167-.1,216.14-.1h669.45v882.33Z" data-name="path-1" style="fill:#fff;fill-rule:evenodd"/></g></mask><mask id="mask-2-2" width="1508.01" height="871.19" x="-644.39" y="98.57" maskUnits="userSpaceOnUse"><g id="mask-2-3" data-name="mask-2"><path id="path-1-3" d="M-644.39,969.76c40.12-65.48,115.67-106.76,258-100.65C-32.1,884.31,103.36,819,112.51,679.92c4.71-71.5-4.18-105.69-27.46-134.72-22-27.43-56.86-50.26-105.25-95.62-89.51-83.91-62-279.69,9.41-350.91,59.72,1.13,164.89-.1,213.41-.1h661V969.76Z" data-name="path-1" style="fill:#fff;fill-rule:evenodd"/></g></mask><clipPath id="clip-path-2"><path d="M2036,1183.27a3,3,0,0,1,.09.94,3.35,3.35,0,0,1-1.3,2.69,3.23,3.23,0,0,1-2.54.88,2.37,2.37,0,0,0-.9,0,8.63,8.63,0,0,1-.21,1.93,1.18,1.18,0,0,0,.63,1.09,3.17,3.17,0,0,1,2,0,1.9,1.9,0,0,1,1.35,1.63,3.83,3.83,0,0,1-.75,2.64,7.14,7.14,0,0,1-2.51,2.25,6.52,6.52,0,0,1-3.35.82,7,7,0,0,1-3-.64,6.46,6.46,0,0,1-1.73-1.69q-1.23-2.05-1.26-8.67a62.16,62.16,0,0,1,.63-8.7c.26-1.89.81-3.12,1.63-3.69l5-.51a12.11,12.11,0,0,1,2.47-.27c1.58,0,2.5.39,2.78,1.18a2.85,2.85,0,0,1,.19,1.08,2.65,2.65,0,0,1-1,2.12,4.08,4.08,0,0,1-2.69.82,5.62,5.62,0,0,1-.66,0,3.7,3.7,0,0,0-.25,1.45c0,.84-.07,1.32-.09,1.45a.72.72,0,0,0,.64.54,3.45,3.45,0,0,1,2.2-.7A3.08,3.08,0,0,1,2036,1183.27Zm-24.14-2.59h0a1,1,0,0,0-.3-.06,4.68,4.68,0,0,0-.94.42,4.38,4.38,0,0,0-.09,1.54c0,1.11,0,2.15,0,3.14a5.36,5.36,0,0,0,2-1.13,2.13,2.13,0,0,0,.8-1.56A3.33,3.33,0,0,0,2011.81,1180.68Zm8.64,14.08h0a6.21,6.21,0,0,1-1.42,1.84,4.76,4.76,0,0,1-2.63,1.33q-2.56.27-5.25-5.23a12.17,12.17,0,0,1,.09,1.36,4.49,4.49,0,0,1-.91,3,4.81,4.81,0,0,1-2.78,1,4.55,4.55,0,0,1-1.09-.12,4.3,4.3,0,0,1-2.32-1.15,5.34,5.34,0,0,1-.73-3.26v-1.21c-.06-.06,0-1.87.06-5.41a73.34,73.34,0,0,1,.7-9.16c.26-1.51,1.33-2.54,3.2-3.11a34.88,34.88,0,0,1,5.23-.78q4.62.15,6.34,3.08a12.94,12.94,0,0,1,1.27,5.38,6.71,6.71,0,0,1-1.36,4.2c-.14.18-.72.71-1.72,1.6q3.4,3.69,3.41,6.16A3.85,3.85,0,0,1,2020.45,1194.76Zm-19.21-17.2,0,0q.12,1.42.12,3.18a36.28,36.28,0,0,1-2.21,12.81,7.86,7.86,0,0,1-1.8,2.79,5.88,5.88,0,0,1-2.55,1.65,16.84,16.84,0,0,1-2.42.18,9.62,9.62,0,0,1-5.62-1.57,7.84,7.84,0,0,1-3-4.2,19.3,19.3,0,0,1-.66-5.68,32.75,32.75,0,0,1,1.06-9.07,4,4,0,0,1,1.43-2,4.4,4.4,0,0,1,2.22-1,3.07,3.07,0,0,1,1.92.5,3.61,3.61,0,0,1,1.4,1.53,12.4,12.4,0,0,1,.09,1.54,34.34,34.34,0,0,1-.54,4.26,34.35,34.35,0,0,0-.54,4.2,9.49,9.49,0,0,0,.12,1.6,2.28,2.28,0,0,0,1,1,1.86,1.86,0,0,0,1.42-.24,4,4,0,0,0,1-2.24c0-1.37,0-3.13.09-5.29.2-1.73.33-2.8.4-3.2a13.7,13.7,0,0,1,.57-2.63,2.93,2.93,0,0,1,2.48-1.72,3.61,3.61,0,0,1,2.38,1A6.37,6.37,0,0,1,2001.24,1177.56Zm-19.64.34h0a6.17,6.17,0,0,1,.09,1.17,3.44,3.44,0,0,1-.73,2.3,6.55,6.55,0,0,1-2.43.71,9.78,9.78,0,0,0-2.22.53c0,.22.19,2.33.7,6.31a19.77,19.77,0,0,1,.15,2.42,12.16,12.16,0,0,1-.73,4.53c-.6,1.49-1.49,2.22-2.66,2.18a4.61,4.61,0,0,1-4-1.78,7.63,7.63,0,0,1-.87-4c0,.16,0-.9.12-3.17l.15-3.87a23.75,23.75,0,0,1,.39-3.14,1.82,1.82,0,0,1-.54.06,6.44,6.44,0,0,1-2.06-.34,3.22,3.22,0,0,1-1.9-1.33,4.64,4.64,0,0,1-.72-2.32,3.07,3.07,0,0,1,2-2.81,13.54,13.54,0,0,1,6.19-1.3,23.47,23.47,0,0,1,4,.36l3,1.12A3.45,3.45,0,0,1,1981.6,1177.9Zm-19,2.23v0c.2,2.34.31,4.54.31,6.62q0,9.57-3.18,10.75a3,3,0,0,1-1.12.19,8.15,8.15,0,0,1-2-.31q-1.52-.84-4.62-9.69a20.24,20.24,0,0,1,.54,4.59,9.24,9.24,0,0,1-.72,4,2.8,2.8,0,0,1-1.2,1.19,2.66,2.66,0,0,1-1.64.41,3.89,3.89,0,0,1-3.42-3,20.61,20.61,0,0,1-.6-5.81,53.42,53.42,0,0,1,.63-10.27,5.63,5.63,0,0,1,2.21-3.23,3.72,3.72,0,0,1,2.23-.73,4.08,4.08,0,0,1,1.33.22q1.75.93,3.45,5.59a38.85,38.85,0,0,1,1.3,4.44c-.2-1.33-.38-2.5-.52-3.51a32.41,32.41,0,0,1-.36-3.9,3.71,3.71,0,0,1,.79-2.44,3.09,3.09,0,0,1,2.56-1.12q2.94,0,3.66,3.26A28.1,28.1,0,0,1,1962.59,1180.13Zm-19.79,3.14a3,3,0,0,1,.09.94,3.35,3.35,0,0,1-1.3,2.69,3.22,3.22,0,0,1-2.53.88,2.42,2.42,0,0,0-.91,0,8.63,8.63,0,0,1-.21,1.93,1.18,1.18,0,0,0,.63,1.09,3.17,3.17,0,0,1,2,0,1.91,1.91,0,0,1,1.36,1.63,3.85,3.85,0,0,1-.76,2.64,7.14,7.14,0,0,1-2.51,2.25,6.52,6.52,0,0,1-3.35.82,7,7,0,0,1-3-.64,6.48,6.48,0,0,1-1.72-1.69q-1.24-2.05-1.27-8.67a62.16,62.16,0,0,1,.63-8.7c.26-1.89.81-3.12,1.63-3.69l5-.51a12.2,12.2,0,0,1,2.48-.27c1.57,0,2.49.39,2.78,1.18a3.06,3.06,0,0,1,.18,1.08,2.62,2.62,0,0,1-1,2.12,4.06,4.06,0,0,1-2.69.82,5.62,5.62,0,0,1-.66,0,3.94,3.94,0,0,0-.24,1.45c0,.84-.07,1.32-.09,1.45a.72.72,0,0,0,.63.54,3.46,3.46,0,0,1,2.21-.7A3.08,3.08,0,0,1,1942.8,1183.27Zm-16.37-8c.76.54,1.15,1.6,1.15,3.17q0,5.07-5,16.44a5.1,5.1,0,0,1-4.08,3.2,4.46,4.46,0,0,1-.66.06,6.85,6.85,0,0,1-2.87-.61,4.36,4.36,0,0,1-2-1.6,25.26,25.26,0,0,1-3.11-7.61,31.39,31.39,0,0,1-.94-7.31,12.84,12.84,0,0,1,.37-3.6,3.5,3.5,0,0,1,1.75-2.05,4,4,0,0,1,2.14-.55,3.19,3.19,0,0,1,2.87,1.73,19.44,19.44,0,0,1,1.15,5.65l.4,3.77q.24-2.17.78-6.45c.36-2.85,1.1-4.53,2.21-5.06a5.39,5.39,0,0,1,2.32-.51A4.94,4.94,0,0,1,1926.43,1175.24ZM1899.6,1182a1.13,1.13,0,0,0-.82-.52,1.16,1.16,0,0,0-.45.12l-.3.12a60.39,60.39,0,0,1,.42,7.13,4.65,4.65,0,0,0,1.47-1.78,5.29,5.29,0,0,0,.58-2.39A4.13,4.13,0,0,0,1899.6,1182Zm7.55,2.71a15.58,15.58,0,0,1-1.81,7.53,10.45,10.45,0,0,1-6.56,5.38,10.16,10.16,0,0,1-4.24-.56q-1.89-.72-2-1.86-.54-8.07-.55-15.5c0-1.83,0-3.14.13-3.93q.75-1.63,4.86-1.63a14.53,14.53,0,0,1,4.14.54,9.21,9.21,0,0,1,3.44,2.9A11.59,11.59,0,0,1,1907.15,1184.69Zm-25.2,2.69a46.29,46.29,0,0,0-.3-7.64q-.21-.21-.63.15c-.26,1.71-.46,3.1-.58,4.17a19.09,19.09,0,0,0-.21,3.2.52.52,0,0,0,.52.33,4,4,0,0,0,.61-.1A6,6,0,0,1,1882,1187.38Zm7.65,7.92v0a2.16,2.16,0,0,1-1.78,1.81,6.83,6.83,0,0,1-1.58.18,4,4,0,0,1-2.41-.69,8.16,8.16,0,0,1-.79-1.15,4.54,4.54,0,0,1-.39-2,16.77,16.77,0,0,0-2.75.12q.06.27.12.81a5.57,5.57,0,0,1-.69,2.57,2.94,2.94,0,0,1-2.57,1.24,8.72,8.72,0,0,1-2-.3l-.06-.06c-1.71-.85-2.57-2.95-2.57-6.32,0-.22,0-.74.06-1.57a44.85,44.85,0,0,1,.88-7.43,18.19,18.19,0,0,1,3.2-6.83,6.12,6.12,0,0,1,5.17-2.33,6.64,6.64,0,0,1,5.47,2.27,8,8,0,0,1,1.54,3.11,45.1,45.1,0,0,1,1.66,11.21A28.47,28.47,0,0,1,1889.6,1195.3ZM1853,1180.68h0a1,1,0,0,0-.3-.06,4.43,4.43,0,0,0-.94.42,4.38,4.38,0,0,0-.09,1.54c0,1.11,0,2.15,0,3.14a5.36,5.36,0,0,0,2-1.13,2.13,2.13,0,0,0,.8-1.56A3.33,3.33,0,0,0,1853,1180.68Zm8.64,14.08h0a6.21,6.21,0,0,1-1.42,1.84,4.79,4.79,0,0,1-2.63,1.33q-2.56.27-5.26-5.23a10.36,10.36,0,0,1,.1,1.36,4.49,4.49,0,0,1-.91,3,4.81,4.81,0,0,1-2.78,1,4.55,4.55,0,0,1-1.09-.12,4.3,4.3,0,0,1-2.32-1.15,5.34,5.34,0,0,1-.73-3.26v-1.21c-.06-.06,0-1.87.06-5.41a73.34,73.34,0,0,1,.7-9.16c.26-1.51,1.32-2.54,3.2-3.11a34.67,34.67,0,0,1,5.22-.78c3.09.1,5.2,1.13,6.35,3.08a12.94,12.94,0,0,1,1.27,5.38,6.71,6.71,0,0,1-1.36,4.2c-.14.18-.72.71-1.72,1.6q3.4,3.69,3.41,6.16A3.85,3.85,0,0,1,1861.68,1194.76Zm-19.21-17.2,0,0q.12,1.42.12,3.18a36.28,36.28,0,0,1-2.21,12.81,7.86,7.86,0,0,1-1.8,2.79,5.88,5.88,0,0,1-2.55,1.65,16.84,16.84,0,0,1-2.42.18,9.62,9.62,0,0,1-5.62-1.57,7.84,7.84,0,0,1-3-4.2,19.3,19.3,0,0,1-.66-5.68,33.18,33.18,0,0,1,1-9.07,4.05,4.05,0,0,1,1.44-2,4.33,4.33,0,0,1,2.22-1,3.09,3.09,0,0,1,1.92.5,3.61,3.61,0,0,1,1.4,1.53,12.4,12.4,0,0,1,.09,1.54,34.34,34.34,0,0,1-.54,4.26,34.35,34.35,0,0,0-.54,4.2,9.49,9.49,0,0,0,.12,1.6,2.3,2.3,0,0,0,1,1,1.84,1.84,0,0,0,1.42-.24,3.91,3.91,0,0,0,1-2.24c0-1.37,0-3.13.09-5.29.2-1.73.33-2.8.39-3.2a14.37,14.37,0,0,1,.58-2.63,2.93,2.93,0,0,1,2.48-1.72,3.61,3.61,0,0,1,2.38,1A6.37,6.37,0,0,1,1842.47,1177.56Zm-28.35,12.91v0c.59-.1.88-1.21.88-3.35a16.41,16.41,0,0,0-.33-3.4c-.22-1-.46-1.57-.73-1.61-.44-.12-.84.36-1.2,1.45a11,11,0,0,0-.55,3.59C1812.19,1189.55,1812.84,1190.67,1814.12,1190.47Zm7.5,2.17,0,0a7.47,7.47,0,0,1-2.77,3.87,7.68,7.68,0,0,1-4.57,1.42,8.73,8.73,0,0,1-7.47-3.63,12.28,12.28,0,0,1-2.26-7.49,18.36,18.36,0,0,1,.36-3.75q1.66-7.87,7-8.88a5.56,5.56,0,0,1,1-.09,8.09,8.09,0,0,1,4.7,1.6,7.84,7.84,0,0,1,3.06,3.9,26.06,26.06,0,0,1,1.69,7.76,18.48,18.48,0,0,1-.87,5.26Zm-33.81-18h0a3.5,3.5,0,0,1,1.63-.39,2.82,2.82,0,0,1,2.69,1.48,7.44,7.44,0,0,1,1.27,2.66c.52,1.69.82,2.61.91,2.75.88-3.79,1.92-6.26,3.11-7.43a4.86,4.86,0,0,1,1.78-.34,3.31,3.31,0,0,1,2.27.76,3.87,3.87,0,0,1,1.6,3.47,18.67,18.67,0,0,1-1.54,5.41c-.51,1.13-1.35,2.79-2.54,5q0,1.29,0,3.84a10,10,0,0,1-.7,3.71,4.26,4.26,0,0,1-2.63,2.42,6.34,6.34,0,0,1-.69.06,3.41,3.41,0,0,1-3.35-1.9,9.64,9.64,0,0,1-.43-3.18c0-.62,0-1.21,0-1.75,0-.72,0-1.27,0-1.63q-5-8.46-5-12A3,3,0,0,1,1787.81,1174.69Zm-11.12,3.21h0a6.17,6.17,0,0,1,.09,1.17,3.49,3.49,0,0,1-.72,2.3,6.63,6.63,0,0,1-2.44.71,9.78,9.78,0,0,0-2.22.53c0,.22.19,2.33.7,6.31a19.77,19.77,0,0,1,.15,2.42,12,12,0,0,1-.73,4.53c-.6,1.49-1.49,2.22-2.65,2.18-1.9-.06-3.22-.66-4-1.78a7.53,7.53,0,0,1-.88-4c0,.16,0-.9.12-3.17l.15-3.87a23.6,23.6,0,0,1,.4-3.14,1.9,1.9,0,0,1-.55.06,6.38,6.38,0,0,1-2-.34,3.25,3.25,0,0,1-1.91-1.33,4.64,4.64,0,0,1-.72-2.32,3.07,3.07,0,0,1,2-2.81,13.58,13.58,0,0,1,6.2-1.3,23.47,23.47,0,0,1,4,.36l3,1.12A3.46,3.46,0,0,1,1776.69,1177.9Zm-27.28,2.78h0a1,1,0,0,0-.3-.06,4.43,4.43,0,0,0-.94.42,4.38,4.38,0,0,0-.09,1.54c0,1.11,0,2.15,0,3.14a5.53,5.53,0,0,0,2-1.13,2.13,2.13,0,0,0,.8-1.56A3.37,3.37,0,0,0,1749.41,1180.68Zm8.64,14.08h0a6.38,6.38,0,0,1-1.42,1.84,4.79,4.79,0,0,1-2.63,1.33q-2.57.27-5.26-5.23a12.17,12.17,0,0,1,.09,1.36,4.49,4.49,0,0,1-.9,3,4.83,4.83,0,0,1-2.78,1,4.55,4.55,0,0,1-1.09-.12,4.38,4.38,0,0,1-2.33-1.15,5.42,5.42,0,0,1-.72-3.26v-1.21c-.06-.06,0-1.87.06-5.41a75.75,75.75,0,0,1,.69-9.16c.27-1.51,1.33-2.54,3.21-3.11a34.67,34.67,0,0,1,5.22-.78c3.09.1,5.2,1.13,6.35,3.08a13.09,13.09,0,0,1,1.27,5.38,6.77,6.77,0,0,1-1.36,4.2c-.14.18-.72.71-1.72,1.6q3.4,3.69,3.41,6.16A3.85,3.85,0,0,1,1758.05,1194.76Zm-27.16-7.38a46.29,46.29,0,0,0-.3-7.64c-.15-.14-.36-.09-.64.15q-.39,2.56-.57,4.17a17.93,17.93,0,0,0-.21,3.2.52.52,0,0,0,.51.33,4.07,4.07,0,0,0,.62-.1A5.47,5.47,0,0,1,1730.89,1187.38Zm7.64,7.92v0a2.15,2.15,0,0,1-1.78,1.81,6.75,6.75,0,0,1-1.57.18,4,4,0,0,1-2.42-.69,8.7,8.7,0,0,1-.78-1.15,4.4,4.4,0,0,1-.4-2,16.82,16.82,0,0,0-2.75.12q.06.27.12.81a5.57,5.57,0,0,1-.69,2.57,2.94,2.94,0,0,1-2.57,1.24,8.64,8.64,0,0,1-2-.3l-.06-.06c-1.72-.85-2.57-2.95-2.57-6.32,0-.22,0-.74.06-1.57a44,44,0,0,1,.87-7.43,18.21,18.21,0,0,1,3.21-6.83,6.12,6.12,0,0,1,5.16-2.33,6.64,6.64,0,0,1,5.47,2.27,7.84,7.84,0,0,1,1.54,3.11A45.1,45.1,0,0,1,1739,1190,28.47,28.47,0,0,1,1738.53,1195.3Zm-18.91-17.4h0a6.17,6.17,0,0,1,.09,1.17,3.44,3.44,0,0,1-.73,2.3,6.55,6.55,0,0,1-2.43.71,9.78,9.78,0,0,0-2.22.53c0,.22.19,2.33.7,6.31a19.77,19.77,0,0,1,.15,2.42,12,12,0,0,1-.73,4.53c-.6,1.49-1.49,2.22-2.66,2.18a4.61,4.61,0,0,1-4-1.78,7.63,7.63,0,0,1-.87-4c0,.16,0-.9.12-3.17l.15-3.87a23.75,23.75,0,0,1,.39-3.14,1.82,1.82,0,0,1-.54.06,6.34,6.34,0,0,1-2-.34,3.22,3.22,0,0,1-1.91-1.33,4.64,4.64,0,0,1-.72-2.32,3.07,3.07,0,0,1,2-2.81,13.54,13.54,0,0,1,6.19-1.3,23.47,23.47,0,0,1,4,.36l3,1.12A3.45,3.45,0,0,1,1719.62,1177.9Zm-28.13,13.86h0c.72-.18,1.1-.54,1.12-1.08a.85.85,0,0,0-.26-.58,15.11,15.11,0,0,0-1.92-1.3,12.93,12.93,0,0,1-2-1.48,8.17,8.17,0,0,1-1.6-2.29,8.62,8.62,0,0,1-.94-3.87,7,7,0,0,1,2.24-5.08,8.07,8.07,0,0,1,5.92-2.47,7,7,0,0,1,3.59.93,8,8,0,0,1,2.15,2.24,2.74,2.74,0,0,1,.51,1.36,3.23,3.23,0,0,1-.72,1.84l0,0a2.63,2.63,0,0,1-2,1.36,4.56,4.56,0,0,1-1-.15c-.65-.16-1-.73-1.12-1.69,0-.38-.33-.58-.88-.58a1.3,1.3,0,0,0-.75.22,2.38,2.38,0,0,0-.34,1.2,2.09,2.09,0,0,0,1,1.73q3.57,2.54,4.2,3.14a6.86,6.86,0,0,1,2.42,4.5c0,.38.05.9.09,1.54q.06,3.9-4.69,6.07a8,8,0,0,1-3.38.82,5,5,0,0,1-.66-.06l-.06,0q-5.81-.94-6.26-4.38c-.08-.53-.13-.89-.16-1.1s0-.28,0-.2a2.22,2.22,0,0,1,.48-1.42,1.42,1.42,0,0,1,1.09-.61,6.16,6.16,0,0,1,1.6.71,4.86,4.86,0,0,0,1.85.71,2.67,2.67,0,0,0,.51-.06ZM1908,1149.23a1.15,1.15,0,0,0-.82-.51,1.16,1.16,0,0,0-.45.12l-.3.12a60.39,60.39,0,0,1,.42,7.13,4.61,4.61,0,0,0,1.46-1.78,5.21,5.21,0,0,0,.59-2.39A4.16,4.16,0,0,0,1908,1149.23Zm7.55,2.72a15.52,15.52,0,0,1-1.81,7.52,10.42,10.42,0,0,1-6.56,5.38,10,10,0,0,1-4.24-.56q-1.89-.7-2-1.86-.54-8.06-.55-15.49,0-2.76.12-3.93.77-1.63,4.87-1.63a14.53,14.53,0,0,1,4.14.54,9.12,9.12,0,0,1,3.44,2.9A11.63,11.63,0,0,1,1915.55,1152Zm-17.55-4.56v0q.3,3.5.3,6.62,0,9.57-3.17,10.75a3.25,3.25,0,0,1-1.12.18,8.5,8.5,0,0,1-2-.3q-1.52-.84-4.63-9.7a20.26,20.26,0,0,1,.55,4.59,9.17,9.17,0,0,1-.73,4,2.85,2.85,0,0,1-1.19,1.2,2.69,2.69,0,0,1-1.65.4,3.86,3.86,0,0,1-3.41-3,20.09,20.09,0,0,1-.61-5.8c0-5.09.21-8.52.64-10.27a5.53,5.53,0,0,1,2.2-3.23,3.69,3.69,0,0,1,2.24-.73,4.44,4.44,0,0,1,1.33.21c1.17.63,2.31,2.49,3.44,5.59a36.19,36.19,0,0,1,1.3,4.44c-.2-1.33-.37-2.49-.51-3.5a32.41,32.41,0,0,1-.36-3.9,3.79,3.79,0,0,1,.78-2.45,3.14,3.14,0,0,1,2.57-1.11c2,0,3.17,1.08,3.65,3.26A24.25,24.25,0,0,1,1898,1147.39Zm-27.8,7.25a46.29,46.29,0,0,0-.3-7.64c-.14-.15-.35-.09-.64.15q-.39,2.56-.57,4.17a19.09,19.09,0,0,0-.21,3.2.52.52,0,0,0,.51.33,4.07,4.07,0,0,0,.62-.1A5.47,5.47,0,0,1,1870.2,1154.64Zm7.64,7.92v0a2.16,2.16,0,0,1-1.78,1.81,6.75,6.75,0,0,1-1.57.18,4,4,0,0,1-2.42-.69,8.7,8.7,0,0,1-.78-1.15,4.59,4.59,0,0,1-.39-2,16.73,16.73,0,0,0-2.75.12c0,.18.08.46.12.82a5.47,5.47,0,0,1-.7,2.57,3,3,0,0,1-2.57,1.24,8.29,8.29,0,0,1-2-.31l-.06-.06c-1.71-.84-2.57-2.95-2.57-6.31,0-.22,0-.75.06-1.57a42.78,42.78,0,0,1,.88-7.43,18,18,0,0,1,3.2-6.83,6.12,6.12,0,0,1,5.17-2.33,6.65,6.65,0,0,1,5.47,2.27,8,8,0,0,1,1.54,3.11,45.57,45.57,0,0,1,1.66,11.21A27.71,27.71,0,0,1,1877.84,1162.56Zm-36.55-14.63h0a1,1,0,0,0-.31-.06,4.23,4.23,0,0,0-.93.43,4.38,4.38,0,0,0-.09,1.54c0,1.1,0,2.15,0,3.14a5.53,5.53,0,0,0,2-1.13,2.17,2.17,0,0,0,.8-1.56A3.38,3.38,0,0,0,1841.29,1147.93Zm8.64,14.08h0a6.13,6.13,0,0,1-1.42,1.84,4.73,4.73,0,0,1-2.63,1.33c-1.71.19-3.47-1.56-5.26-5.22a12,12,0,0,1,.09,1.36,4.51,4.51,0,0,1-.9,3,4.89,4.89,0,0,1-2.78,1,4.49,4.49,0,0,1-1.09-.12,4.35,4.35,0,0,1-2.33-1.14,5.48,5.48,0,0,1-.72-3.27v-1.21q-.09-.09.06-5.4a75.75,75.75,0,0,1,.69-9.16q.39-2.26,3.21-3.11a35.4,35.4,0,0,1,5.22-.79q4.62.15,6.35,3.09a13.05,13.05,0,0,1,1.27,5.37,6.73,6.73,0,0,1-1.36,4.2,21.09,21.09,0,0,1-1.73,1.6q3.42,3.69,3.42,6.17A3.61,3.61,0,0,1,1849.93,1162Zm-19.16-11.48a3,3,0,0,1,.09.94,3.38,3.38,0,0,1-1.3,2.69,3.21,3.21,0,0,1-2.53.87,2.44,2.44,0,0,0-.91,0,8.7,8.7,0,0,1-.21,1.94,1.17,1.17,0,0,0,.63,1.08,3.17,3.17,0,0,1,2,0,1.94,1.94,0,0,1,1.36,1.64,3.86,3.86,0,0,1-.76,2.64,7.14,7.14,0,0,1-2.51,2.25,6.62,6.62,0,0,1-3.35.82,7.14,7.14,0,0,1-3-.64,6.48,6.48,0,0,1-1.72-1.69q-1.24-2.05-1.27-8.67a62.16,62.16,0,0,1,.63-8.7c.26-1.9.81-3.13,1.63-3.69l5-.51a12.16,12.16,0,0,1,2.48-.28c1.57,0,2.49.4,2.78,1.18a3.16,3.16,0,0,1,.18,1.09,2.67,2.67,0,0,1-1,2.12,4.06,4.06,0,0,1-2.69.81,5.62,5.62,0,0,1-.66,0,4.16,4.16,0,0,0-.25,1.45c0,.85-.07,1.33-.09,1.45a.74.74,0,0,0,.64.55,3.39,3.39,0,0,1,2.2-.7A3.06,3.06,0,0,1,1830.77,1150.53Zm-15-5.38h0a6.36,6.36,0,0,1,.09,1.18,3.46,3.46,0,0,1-.73,2.3,6.55,6.55,0,0,1-2.43.71,9.78,9.78,0,0,0-2.22.53q-.06.33.69,6.31a17.88,17.88,0,0,1,.16,2.42,12.2,12.2,0,0,1-.73,4.53c-.6,1.49-1.49,2.22-2.66,2.18-1.89-.07-3.21-.66-4-1.79a7.58,7.58,0,0,1-.87-4c0,.17,0-.89.12-3.17l.15-3.87a24.19,24.19,0,0,1,.39-3.14,1.82,1.82,0,0,1-.54.06,6.72,6.72,0,0,1-2.06-.33,3.22,3.22,0,0,1-1.9-1.33,4.65,4.65,0,0,1-.72-2.33,3.09,3.09,0,0,1,2-2.81,13.67,13.67,0,0,1,6.19-1.29,23.47,23.47,0,0,1,4,.36l3,1.12A3.45,3.45,0,0,1,1815.82,1145.15Zm-18.49,12.3v.45c0,.2,0,.35,0,.43q0,4.41-3.36,6a9.43,9.43,0,0,1-4,.87,6.8,6.8,0,0,1-4.68-1.6q-3.81-3.35-3.78-9.42a33.53,33.53,0,0,1,.64-6.05,11.81,11.81,0,0,1,2.08-4.8,5.65,5.65,0,0,1,2.29-1.77,7.67,7.67,0,0,1,3.21-.68,7.14,7.14,0,0,1,3.73,1,7.43,7.43,0,0,1,2.71,2.8,5.13,5.13,0,0,1,.6,2.36,4,4,0,0,1-.6,2.26,2.91,2.91,0,0,1-2.18,1.54,4.1,4.1,0,0,1-3.74-1.9c0-.06-.06-.3-.12-.73s-.2-.47-.46-.45l-.3.55q-.3,6.4-.3,6.55c0,.59,0,1.16.06,1.72a1.18,1.18,0,0,0,.72,1.12,5.39,5.39,0,0,0,2.41-1.54c1.13-1,1.91-1.51,2.34-1.51a2.59,2.59,0,0,1,1,.21A2.37,2.37,0,0,1,1797.33,1157.45Zm-25.75-2.81a44.14,44.14,0,0,0-.3-7.64c-.14-.15-.35-.09-.63.15-.26,1.71-.46,3.1-.58,4.17a19.09,19.09,0,0,0-.21,3.2.52.52,0,0,0,.52.33,4.27,4.27,0,0,0,.62-.1A5.51,5.51,0,0,1,1771.58,1154.64Zm7.65,7.92v0a2.18,2.18,0,0,1-1.78,1.81,6.83,6.83,0,0,1-1.58.18,4,4,0,0,1-2.41-.69,8.16,8.16,0,0,1-.79-1.15,4.59,4.59,0,0,1-.39-2,16.77,16.77,0,0,0-2.75.12c0,.18.08.46.12.82a5.57,5.57,0,0,1-.69,2.57,3,3,0,0,1-2.57,1.24,8.29,8.29,0,0,1-2-.31l-.06-.06c-1.71-.84-2.56-2.95-2.56-6.31,0-.22,0-.75.06-1.57a44,44,0,0,1,.87-7.43,18.12,18.12,0,0,1,3.2-6.83,6.12,6.12,0,0,1,5.17-2.33,6.64,6.64,0,0,1,5.47,2.27,7.9,7.9,0,0,1,1.54,3.11,45.1,45.1,0,0,1,1.66,11.21A28.54,28.54,0,0,1,1779.23,1162.56Zm-28.1-14.63h0a1,1,0,0,0-.3-.06,1.26,1.26,0,0,0-1,2c0,1.1,0,2.15,0,3.14a5.36,5.36,0,0,0,2-1.13,2.17,2.17,0,0,0,.8-1.56A3.35,3.35,0,0,0,1751.13,1147.93Zm8.64,14.08h0a6,6,0,0,1-1.42,1.84,4.73,4.73,0,0,1-2.63,1.33c-1.71.19-3.46-1.56-5.25-5.22a12,12,0,0,1,.09,1.36,4.51,4.51,0,0,1-.91,3,4.87,4.87,0,0,1-2.78,1,4.55,4.55,0,0,1-1.09-.12,4.31,4.31,0,0,1-2.32-1.14,5.39,5.39,0,0,1-.73-3.27v-1.21q-.09-.09.06-5.4a73.34,73.34,0,0,1,.7-9.16q.39-2.26,3.2-3.11a35.85,35.85,0,0,1,5.23-.79q4.62.15,6.34,3.09a12.9,12.9,0,0,1,1.27,5.37,6.67,6.67,0,0,1-1.36,4.2,22,22,0,0,1-1.72,1.6q3.4,3.69,3.41,6.17A3.61,3.61,0,0,1,1759.77,1162Zm-27.16-7.37a46.29,46.29,0,0,0-.3-7.64c-.14-.15-.36-.09-.64.15q-.39,2.56-.57,4.17a19.09,19.09,0,0,0-.21,3.2.52.52,0,0,0,.51.33,4.07,4.07,0,0,0,.62-.1A5.47,5.47,0,0,1,1732.61,1154.64Zm7.64,7.92v0a2.16,2.16,0,0,1-1.78,1.81,6.75,6.75,0,0,1-1.57.18,4,4,0,0,1-2.42-.69,8.7,8.7,0,0,1-.78-1.15,4.58,4.58,0,0,1-.4-2,16.66,16.66,0,0,0-2.74.12c0,.18.08.46.12.82a5.59,5.59,0,0,1-.7,2.57,3,3,0,0,1-2.57,1.24,8.22,8.22,0,0,1-2-.31l-.06-.06c-1.71-.84-2.57-2.95-2.57-6.31,0-.22,0-.75.06-1.57a42.78,42.78,0,0,1,.88-7.43,18,18,0,0,1,3.2-6.83,6.12,6.12,0,0,1,5.17-2.33,6.62,6.62,0,0,1,5.46,2.27,7.92,7.92,0,0,1,1.55,3.11,45.57,45.57,0,0,1,1.66,11.21A27.71,27.71,0,0,1,1740.25,1162.56Zm-35.68-19.4h0a4.55,4.55,0,0,1,3.36-1.33,5.16,5.16,0,0,1,2.47.45,3.93,3.93,0,0,1,.94,2.75q-.18,1.48-.27,4c.24.89.6,1.33,1.08,1.33a2.26,2.26,0,0,0,.85-.27c.22-.1.39-.52.51-1.24q-.18-1.57-.24-4.32a3.59,3.59,0,0,1,2-2.72,4.88,4.88,0,0,1,1.78-.27,6.41,6.41,0,0,1,1.42.06,2.57,2.57,0,0,1,1.81,2c.1.34.21.69.33,1a8.17,8.17,0,0,1,.31,2q.18,4.23.18,6.35a36.32,36.32,0,0,1-1.54,9.85,3.12,3.12,0,0,1-2.66,2.11,2.83,2.83,0,0,1-2.24-.27,3.21,3.21,0,0,1-1.33-2.51,9.88,9.88,0,0,1,0-1.72,13.53,13.53,0,0,0,.07-1.72.9.9,0,0,0-1-.76,2,2,0,0,0-1.91,2.06c.1.4.25,1.12.43,2.14a3,3,0,0,1-.09,1.57,2.27,2.27,0,0,1-1.18,1.18,5.61,5.61,0,0,1-2,.24,3,3,0,0,1-2.29-1,6.48,6.48,0,0,1-1.27-2.69,18.24,18.24,0,0,1-.67-4.62q-.09-3.66-.09-6.26C1703.39,1146.8,1703.79,1144.31,1704.57,1143.16Zm-2.84,14.29v.45c0,.2,0,.35,0,.43q0,4.41-3.35,6a9.43,9.43,0,0,1-4,.87,6.8,6.8,0,0,1-4.68-1.6q-3.81-3.35-3.78-9.42a33.44,33.44,0,0,1,.63-6.05,11.82,11.82,0,0,1,2.09-4.8,5.55,5.55,0,0,1,2.28-1.77,7.75,7.75,0,0,1,3.22-.68,7.17,7.17,0,0,1,3.73,1,7.33,7.33,0,0,1,2.7,2.8,5,5,0,0,1,.61,2.36,4,4,0,0,1-.61,2.26,2.89,2.89,0,0,1-2.17,1.54,4.13,4.13,0,0,1-3.75-1.9c0-.06-.06-.3-.12-.73s-.19-.47-.45-.45l-.3.55q-.32,6.4-.31,6.55c0,.59,0,1.16.06,1.72a1.19,1.19,0,0,0,.73,1.12,5.43,5.43,0,0,0,2.4-1.54c1.14-1,1.92-1.51,2.34-1.51a2.64,2.64,0,0,1,1,.21A2.37,2.37,0,0,1,1701.73,1157.45Zm167.72-42.26h0a1.1,1.1,0,0,0-.31-.06,4.47,4.47,0,0,0-.93.42,4.42,4.42,0,0,0-.09,1.54c0,1.11,0,2.16,0,3.14a5.4,5.4,0,0,0,1.94-1.13,2.11,2.11,0,0,0,.81-1.55A3.36,3.36,0,0,0,1869.45,1115.19Zm8.64,14.08h0a6.43,6.43,0,0,1-1.42,1.84,4.76,4.76,0,0,1-2.63,1.33c-1.71.18-3.47-1.56-5.26-5.23a12.31,12.31,0,0,1,.09,1.36,4.44,4.44,0,0,1-.91,3,4.78,4.78,0,0,1-2.77,1,4.49,4.49,0,0,1-1.09-.12,4.27,4.27,0,0,1-2.33-1.15,5.42,5.42,0,0,1-.72-3.26v-1.21c-.06-.06,0-1.86.06-5.41a75.37,75.37,0,0,1,.69-9.15q.39-2.27,3.2-3.11a33.19,33.19,0,0,1,5.23-.79q4.62.15,6.35,3.08a13.1,13.1,0,0,1,1.26,5.38,6.71,6.71,0,0,1-1.36,4.2,22.08,22.08,0,0,1-1.72,1.6q3.42,3.69,3.42,6.16A3.58,3.58,0,0,1,1878.09,1129.27Zm-19.22-17.19,0,0c.08.94.12,2,.12,3.17a36.28,36.28,0,0,1-2.2,12.81,8.05,8.05,0,0,1-1.8,2.79,6,6,0,0,1-2.55,1.65,16.94,16.94,0,0,1-2.42.18,9.6,9.6,0,0,1-5.62-1.57,7.79,7.79,0,0,1-3-4.2,18.92,18.92,0,0,1-.67-5.68,33.06,33.06,0,0,1,1.06-9.06,4,4,0,0,1,1.44-2,4.31,4.31,0,0,1,2.22-1,3,3,0,0,1,1.91.49,3.69,3.69,0,0,1,1.41,1.53,12.51,12.51,0,0,1,.09,1.54,33.9,33.9,0,0,1-.54,4.26,33.53,33.53,0,0,0-.55,4.2,9.41,9.41,0,0,0,.12,1.6,2.29,2.29,0,0,0,1,1,1.85,1.85,0,0,0,1.42-.24,4,4,0,0,0,1-2.24c0-1.37,0-3.13.09-5.29.2-1.73.33-2.79.39-3.2a13.7,13.7,0,0,1,.57-2.63,3,3,0,0,1,2.48-1.72,3.64,3.64,0,0,1,2.39,1A6.32,6.32,0,0,1,1858.87,1112.08Zm-28.34,12.9v0c.58-.1.88-1.22.88-3.36a15.8,15.8,0,0,0-.34-3.4c-.22-1-.46-1.57-.72-1.61-.44-.12-.85.36-1.21,1.45a11.41,11.41,0,0,0-.54,3.59C1828.6,1124.06,1829.24,1125.18,1830.53,1125Zm7.49,2.17,0,0a7.36,7.36,0,0,1-2.76,3.87,7.64,7.64,0,0,1-4.58,1.42,8.73,8.73,0,0,1-7.46-3.62,12.34,12.34,0,0,1-2.27-7.5,17.5,17.5,0,0,1,.37-3.74q1.65-7.89,7-8.89a5.53,5.53,0,0,1,1-.09,8.14,8.14,0,0,1,4.7,1.6,7.92,7.92,0,0,1,3.07,3.9,26,26,0,0,1,1.69,7.77,18.11,18.11,0,0,1-.88,5.25Zm-33.8-17.94h0a3.36,3.36,0,0,1,1.63-.4,2.85,2.85,0,0,1,2.69,1.48,7.46,7.46,0,0,1,1.26,2.66c.53,1.7.83,2.61.91,2.75.89-3.78,1.92-6.26,3.11-7.43a4.9,4.9,0,0,1,1.79-.33,3.28,3.28,0,0,1,2.26.75,3.86,3.86,0,0,1,1.6,3.48,18.53,18.53,0,0,1-1.54,5.41c-.5,1.12-1.35,2.79-2.54,5q0,1.31,0,3.84a10.18,10.18,0,0,1-.69,3.71,4.26,4.26,0,0,1-2.63,2.42,6.34,6.34,0,0,1-.69.06,3.41,3.41,0,0,1-3.36-1.9,9.88,9.88,0,0,1-.42-3.17c0-.63,0-1.21,0-1.76,0-.72,0-1.27,0-1.63q-5-8.46-5-12A3,3,0,0,1,1804.22,1109.21Zm-11.67,8.58a2.89,2.89,0,0,1,.09.93,3.35,3.35,0,0,1-1.3,2.69,3.19,3.19,0,0,1-2.53.88,2.42,2.42,0,0,0-.91,0,8.58,8.58,0,0,1-.21,1.93,1.17,1.17,0,0,0,.63,1.09,3.17,3.17,0,0,1,2,0,1.92,1.92,0,0,1,1.36,1.63,3.87,3.87,0,0,1-.76,2.65,7.34,7.34,0,0,1-2.51,2.25,6.62,6.62,0,0,1-3.35.81,7.14,7.14,0,0,1-3-.63,6.65,6.65,0,0,1-1.72-1.69q-1.24-2.05-1.27-8.68a62.37,62.37,0,0,1,.63-8.7c.26-1.89.81-3.12,1.63-3.68l5-.52a12.2,12.2,0,0,1,2.48-.27c1.57,0,2.49.39,2.78,1.18a3.08,3.08,0,0,1,.18,1.09,2.62,2.62,0,0,1-1,2.11,4,4,0,0,1-2.69.82,5.62,5.62,0,0,1-.66,0,3.94,3.94,0,0,0-.24,1.45c0,.84-.08,1.33-.1,1.45a.74.74,0,0,0,.64.54,3.44,3.44,0,0,1,2.2-.69A3.06,3.06,0,0,1,1792.55,1117.79Zm-25,8.49h0c.72-.18,1.09-.55,1.11-1.09a.82.82,0,0,0-.25-.57,13.09,13.09,0,0,0-1.92-1.3,14.59,14.59,0,0,1-2-1.48,9.17,9.17,0,0,1-2.53-6.17,7,7,0,0,1,2.23-5.07,8.06,8.06,0,0,1,5.92-2.48,7,7,0,0,1,3.6.94,7.78,7.78,0,0,1,2.14,2.23,2.67,2.67,0,0,1,.52,1.36,3.18,3.18,0,0,1-.73,1.84l0,0a2.61,2.61,0,0,1-2,1.36,4.73,4.73,0,0,1-1-.15c-.64-.16-1-.72-1.12-1.69q-.06-.57-.87-.57a1.4,1.4,0,0,0-.76.21,2.48,2.48,0,0,0-.33,1.21,2.05,2.05,0,0,0,1,1.72q3.56,2.54,4.2,3.14a6.84,6.84,0,0,1,2.41,4.5c0,.39,0,.9.09,1.54,0,2.6-1.52,4.63-4.68,6.08a8.17,8.17,0,0,1-3.38.81,5.23,5.23,0,0,1-.67-.06l-.06,0c-3.86-.62-6-2.08-6.25-4.38-.08-.52-.14-.89-.17-1.1s0-.28,0-.2a2.22,2.22,0,0,1,.48-1.42,1.39,1.39,0,0,1,1.09-.6,5.93,5.93,0,0,1,1.6.71,5.08,5.08,0,0,0,1.84.71,2.85,2.85,0,0,0,.52-.06Zm-15.65-1.3v0q.87-.15.87-3.36a16.48,16.48,0,0,0-.33-3.4c-.22-1-.46-1.57-.73-1.61-.44-.12-.84.36-1.2,1.45a11.12,11.12,0,0,0-.55,3.59C1750,1124.06,1750.63,1125.18,1751.92,1125Zm7.49,2.17,0,0a7.37,7.37,0,0,1-2.77,3.87,7.59,7.59,0,0,1-4.57,1.42,8.75,8.75,0,0,1-7.47-3.62,12.33,12.33,0,0,1-2.26-7.5,18.19,18.19,0,0,1,.36-3.74q1.66-7.89,7-8.89a5.64,5.64,0,0,1,1-.09,8.14,8.14,0,0,1,4.7,1.6,7.84,7.84,0,0,1,3.06,3.9,26,26,0,0,1,1.69,7.77,18.41,18.41,0,0,1-.87,5.25Zm-27.13-2.17v0q.87-.15.87-3.36a16.48,16.48,0,0,0-.33-3.4c-.22-1-.46-1.57-.72-1.61-.45-.12-.85.36-1.21,1.45a11.12,11.12,0,0,0-.55,3.59C1730.34,1124.06,1731,1125.18,1732.28,1125Zm7.49,2.17,0,0a7.36,7.36,0,0,1-2.76,3.87,7.64,7.64,0,0,1-4.58,1.42,8.73,8.73,0,0,1-7.46-3.62,12.34,12.34,0,0,1-2.27-7.5,18.19,18.19,0,0,1,.36-3.74q1.67-7.89,7-8.89a5.64,5.64,0,0,1,1-.09,8.14,8.14,0,0,1,4.7,1.6,7.84,7.84,0,0,1,3.06,3.9,26.13,26.13,0,0,1,1.7,7.77,18.45,18.45,0,0,1-.88,5.25Zm-35.2-16.73h0a4.55,4.55,0,0,1,3.36-1.33,5.16,5.16,0,0,1,2.47.45,3.91,3.91,0,0,1,.94,2.75c-.12,1-.21,2.3-.27,4,.24.88.6,1.33,1.08,1.33a2.14,2.14,0,0,0,.85-.28q.33-.15.51-1.23c-.12-1-.2-2.49-.24-4.33a3.59,3.59,0,0,1,2-2.71,4.59,4.59,0,0,1,1.78-.28,6.41,6.41,0,0,1,1.42.06,2.6,2.6,0,0,1,1.81,2.06c.1.34.21.68.33,1a8.17,8.17,0,0,1,.31,2q.18,4.23.18,6.34a36.21,36.21,0,0,1-1.54,9.85,3.13,3.13,0,0,1-2.66,2.12,2.83,2.83,0,0,1-2.24-.27,3.22,3.22,0,0,1-1.33-2.51,9.87,9.87,0,0,1,0-1.72,13.58,13.58,0,0,0,.07-1.72.89.89,0,0,0-1-.76,1.94,1.94,0,0,0-1.91,2c.1.41.25,1.12.43,2.15a3,3,0,0,1-.09,1.57,2.3,2.3,0,0,1-1.18,1.18,5.61,5.61,0,0,1-2,.24,3,3,0,0,1-2.29-1,6.41,6.41,0,0,1-1.27-2.69,18.17,18.17,0,0,1-.67-4.62q-.09-3.66-.09-6.25C1703.39,1114.06,1703.79,1111.56,1704.57,1110.42Zm-2.84,14.29v.45q0,.3,0,.42c0,2.94-1.12,4.94-3.35,6a9.3,9.3,0,0,1-4,.88,6.8,6.8,0,0,1-4.68-1.6q-3.81-3.36-3.78-9.43a33.43,33.43,0,0,1,.63-6,11.82,11.82,0,0,1,2.09-4.8,5.47,5.47,0,0,1,2.28-1.77,7.75,7.75,0,0,1,3.22-.68,7.17,7.17,0,0,1,3.73,1,7.33,7.33,0,0,1,2.7,2.8,5,5,0,0,1,.61,2.35,4,4,0,0,1-.61,2.27,2.89,2.89,0,0,1-2.17,1.54,4.13,4.13,0,0,1-3.75-1.9c0-.06-.06-.31-.12-.73s-.19-.47-.45-.45l-.3.54q-.32,6.4-.31,6.56c0,.58,0,1.16.06,1.72a1.2,1.2,0,0,0,.73,1.12,5.53,5.53,0,0,0,2.4-1.54c1.14-1,1.92-1.51,2.34-1.51a2.64,2.64,0,0,1,1,.21A2.37,2.37,0,0,1,1701.73,1124.71Z" style="fill:none;clip-rule:evenodd"/></clipPath><clipPath id="clip-path-4"><rect width="369.41" height="109.52" x="1676.27" y="1100.23" style="fill:none"/></clipPath></defs><title>home-bg--mobile</title><rect width="1418.38" height="536.47" x="-206.59" y="-149.83" style="fill:#fff"/><rect id="bg__sand" width="1000" height="1337.76" x="-5.66" y="377.55" style="fill:#ffd166"/><g style="clip-path:url(#clip-path)"><polygon id="bg__sky" points="-5.66 71.31 1001.34 71.31 1001.34 601.07 -5.66 605.78 -5.66 71.31" style="fill-rule:evenodd;fill:url(#linear-gradient)"/></g><path id="Rectangle-Copy-8" d="M-359.35,455V657.21C-85,638.92-21.61,639.05,103.42,639.63c220,1,268.79,12.52,428.83,24.12,7.94.58,197.35,14.64,270,19.9l28.58,2.07c174.32,12.53,285.91,19.64,316.92,19.64q203.25,0,278.78-2c9.32-.25,17.2-.52,23.59-.82l-.28,0-2.38-.18-1.9-246.73Z" style="fill-rule:evenodd;fill:url(#linear-gradient-2)"/><path d="M1147.77,708.07c-29.5,0-133.23-6.43-317.11-19.65l-28.58-2.06c-55.12-4-177.75-13.08-236.69-17.44l-33.34-2.47c-41.56-3-74.89-5.88-107.12-8.66-88.7-7.66-158.76-13.7-321.52-14.45l-14.79-.07c-115.08-.56-184.53-.9-447.79,16.65l-2.89.19V452.25l1810.33.64,1.9,246.93h.17l-.07,5.41c-6.43.29-14.39.57-23.65.82C1376.46,707.39,1282.64,708.07,1147.77,708.07ZM32.26,640c17.76,0,35.68.09,54.86.19l14.81.07c163.17.76,233.4,6.87,322.32,14.61,32.25,2.8,65.6,4.7,107.17,7.74l33.39,2.49c59,4.41,181.77,13.57,236.94,17.6l28.61,2.09c184,13.34,287.68,19.82,317.08,19.82,135,0,230.85-.68,281-2,6.85-.18,13-.38,18.3-.6L1444.89,456l-1803.55-.65V656.85C-140.94,642.25-56.34,640,32.26,640Z" style="fill:#163150"/><path d="M137.16,584h0l-174.37-1.06c-1,0-1.73-.36-1.72-.8s.79-.78,1.74-.78h0l174.37,1.06c1,0,1.73.37,1.72.8S138.11,584,137.16,584Z" style="fill:#163150"/><path d="M668.69,623h0L494.3,621.92c-1,0-1.73-.37-1.72-.81s.79-.78,1.74-.78h0l174.37,1.06c.95,0,1.72.37,1.71.81S669.64,623,668.69,623Z" style="fill:#163150"/><path d="M530.26,493.89H418.85c-1,0-1.74-.35-1.74-.79s.78-.79,1.74-.79H530.26c1,0,1.74.35,1.74.79S531.22,493.89,530.26,493.89Z" style="fill:#163150"/><path d="M932.56,626.83H861.35c-1,0-1.74-.36-1.74-.8s.78-.79,1.74-.79h71.21c1,0,1.74.36,1.74.79S933.52,626.83,932.56,626.83Z" style="fill:#163150"/><path d="M1114.75,536.72H672c-1,0-1.74-.35-1.74-.79s.77-.79,1.74-.79h442.76c1,0,1.74.35,1.74.79S1115.71,536.72,1114.75,536.72Z" style="fill:#163150"/><g style="mask:url(#mask)"><g id="bg__cloud-1"><polygon points="833.26 198.19 813.26 194.36 806.6 213.6 787.35 220.27 791.18 240.26 777.87 255.67 791.18 271.08 787.35 291.07 806.59 297.74 813.26 316.98 833.26 313.15 848.66 326.46 864.07 313.15 884.07 316.98 890.73 297.74 909.98 291.07 906.15 271.08 919.45 255.67 906.15 240.26 909.98 220.27 890.73 213.6 884.07 194.36 864.07 198.19 848.66 184.88 833.26 198.19" style="fill:#ffd166;fill-rule:evenodd"/><path d="M848.66,327.35l-15.6-13.48-20.25,3.88-6.74-19.48-19.49-6.75,3.88-20.25L777,255.67l13.47-15.6-3.88-20.25,19.49-6.75,6.74-19.48,20.25,3.88L848.66,184l15.6,13.48,20.25-3.88,6.75,19.48,19.49,6.75-3.88,20.25,13.47,15.6-13.47,15.6,3.88,20.25-19.49,6.75-6.75,19.48-20.25-3.88Zm-15.21-14.92,15.21,13.14,15.22-13.14,19.74,3.79,6.59-19,19-6.58-3.78-19.75,13.14-15.21-13.14-15.21,3.78-19.75-19-6.58-6.59-19-19.74,3.78-15.22-13.14-15.21,13.14-19.75-3.78-6.58,19-19,6.58,3.78,19.75-13.14,15.21,13.14,15.21-3.78,19.75,19,6.58,6.58,19Z" style="fill:#163150"/><path d="M848.66,328l-15.75-13.6-20.44,3.91-6.81-19.67L786,291.86l3.92-20.44L776.3,255.67l13.61-15.75L786,219.48l19.67-6.81L812.47,193l20.44,3.91,15.75-13.6,15.75,13.6L884.85,193l6.82,19.67,19.67,6.81-3.92,20.44L921,255.67l-13.6,15.75,3.92,20.44-19.67,6.81-6.82,19.67-20.44-3.91ZM833.6,311.87l15.06,13,15.07-13,19.54,3.74,6.52-18.81,18.81-6.52-3.74-19.55,13-15.06-13-15.06,3.75-19.55-18.82-6.52-6.51-18.81-19.55,3.74-15.07-13-15.06,13-19.55-3.74-6.52,18.81-18.81,6.52,3.74,19.55-13,15.06,13,15.06-3.74,19.55,18.81,6.52,6.52,18.81Z" style="fill:#16314f"/><path d="M899.45,255.67a50.79,50.79,0,1,1-50.79-50.79,50.79,50.79,0,0,1,50.79,50.79" style="fill:#ffefad;fill-rule:evenodd"/><path d="M848.66,307.65a52,52,0,1,1,52-52A52,52,0,0,1,848.66,307.65Zm0-101.58a49.6,49.6,0,1,0,49.6,49.6A49.66,49.66,0,0,0,848.66,206.07Z" style="fill:#163150"/><path d="M848.66,306.72a51.05,51.05,0,1,1,51.05-51.05A51.11,51.11,0,0,1,848.66,306.72Zm0-101.58a50.53,50.53,0,1,0,50.54,50.53A50.59,50.59,0,0,0,848.66,205.14Z" style="fill:#16314f"/><path d="M878.44,214.53a50.78,50.78,0,0,1-62.84,79.68,50.78,50.78,0,1,0,62.84-79.68" style="fill:#16314f;fill-rule:evenodd"/><path d="M848.76,238.84c2.74-2.55,5.49-5,8.14-7.6,3.05-3,6.46-3,9.53,0,3.48,3.38,7,6.76,10.4,10.16a5.7,5.7,0,0,1,.6,7.81,3.86,3.86,0,0,1-6.15.56c-1.72-1.62-3.4-3.29-5.1-4.93a6.23,6.23,0,0,0-9.16-.06c-1.72,1.62-3.4,3.28-5.1,4.92-2.29,2.2-4.18,2.18-6.51-.06-1.61-1.55-3.21-3.12-4.84-4.67a6.25,6.25,0,0,0-8.91-.1c-1.52,1.39-3,2.85-4.4,4.33-2.23,2.31-4.08,2.89-5.92,1.8a5.6,5.6,0,0,1-2.07-6.81,8.31,8.31,0,0,1,1.74-2.48c3.47-3.47,7-6.89,10.51-10.3,3-2.91,6.34-2.88,9.39,0,2.63,2.5,5.27,5,7.85,7.43" style="fill:#ffd166;fill-rule:evenodd"/><path d="M866.93,263.06c-.78,1.42-1.3,3.08-2.4,4.22C861,271,857.3,274.48,853.62,278c-3.28,3.16-6.77,3.13-10.06,0q-5.46-5.24-10.87-10.52a5.92,5.92,0,0,1-1.05-7.82c1.74-2.65,4.54-3,6.86-.77,1.75,1.68,3.46,3.41,5.22,5.08a6.68,6.68,0,0,0,9.73,0c1.55-1.46,3.11-2.91,4.6-4.42s2.89-2.67,5.17-1.86c1.82.65,3.25,2.94,3.71,5.43" style="fill:#ffd166;fill-rule:evenodd"/><path d="M675,345.46h332.78v0l1.08-.11a30.33,30.33,0,0,0,11.66-56.7l-.77-.43.19-.86a67.85,67.85,0,0,0,1.5-14.2,67.09,67.09,0,0,0-120-41.28l-.36.45h-.57a34.53,34.53,0,0,0-33.93,29.59l-.33,2.29-1.68-1.6a45,45,0,0,0-63.38,1.26l-.91.94-.85-1a45,45,0,0,0-78.91,24l-.08.6-.52.3a30.54,30.54,0,0,0-9.67,8.6l-.67.92-1-.62a20.34,20.34,0,0,0-31.49,17c0,.17,0,.33,0,.5l0,1.22H676a14.57,14.57,0,0,0-2,29Z" style="fill:#fff;fill-rule:evenodd"/><path d="M1007.79,346.65H674.92l-1-.14a15.75,15.75,0,0,1,2.1-31.37h0v-.53a21.54,21.54,0,0,1,33.34-18h0a31.86,31.86,0,0,1,10-8.94h0a46.23,46.23,0,0,1,81-24.66h0a46.23,46.23,0,0,1,65.06-1.29h0a35.91,35.91,0,0,1,35.1-30.61,68.31,68.31,0,0,1,120.57,56.47A31.52,31.52,0,0,1,1009,346.5v.11Zm-332.71-2.38H1007.4l.27,0,1.07-.11a29.13,29.13,0,0,0,11.2-54.47l-1.54-.86.37-1.72a66,66,0,0,0-64.42-79.85,65.52,65.52,0,0,0-51.94,25.35l-.71.91h-1.16a33.5,33.5,0,0,0-32.75,28.56l-.66,4.58-3.35-3.19a43.82,43.82,0,0,0-61.7,1.22l-1.82,1.88-1.7-2a43.84,43.84,0,0,0-76.83,23.38l-.14,1.2-1.06.6a29.64,29.64,0,0,0-9.29,8.26l-1.33,1.84-1.9-1.25a19.16,19.16,0,0,0-29.65,16c0,.16,0,.32,0,.47l.06,2.44H676a13.38,13.38,0,0,0-1.79,26.63Z" style="fill:#2a455f"/><path d="M767.84,345q-9.87-.08-22.27-.24H672.23s-14.71-5.3-12-13.85q2.7-8.56,13.66-12.32l4.46-3.44,1.67-9.46,13.53-10.5q13.73.76,16.47,5.68c-10.54,25.12,21.78,43.28,72.82,42.56,27.77-3.29,51.89-8.52,68.58-18.64,19.92-12.08,26.88-36.64,16.49-56.5-1.14-10,1.26-19.32,11.87-28.18q10.61-8.85,22.4-6.49-11.26,31,5.8,56.3c13,19.24,62.67,41,94,5.27q-.08,10.68,0,49.95-270.3,3.15-235.64,0Z" style="fill:#d3e6f2;fill-rule:evenodd;opacity:.284853994846344;isolation:isolate"/></g></g><g style="mask:url(#mask-2-2)"><g id="bg__cloud-3"><path d="M-196.43,324.54H132.16v0l1.06-.1a30,30,0,0,0,11.52-56L144,268l.19-.86a66.26,66.26,0,0,0-117-54.78l-.35.45h-.57A34.08,34.08,0,0,0-7.24,242l-.32,2.26-1.66-1.58a44.31,44.31,0,0,0-30.66-12.26A44.32,44.32,0,0,0-71.8,244l-.9.92-.84-1a44.33,44.33,0,0,0-33.76-15.53,44.48,44.48,0,0,0-44.16,39.25l-.07.6-.52.29a30,30,0,0,0-9.54,8.49l-.66.91-.94-.62a20,20,0,0,0-11-3.28,20.09,20.09,0,0,0-20.09,20.09c0,.16,0,.32,0,.49l0,1.2h-1.21a14.38,14.38,0,0,0-14.38,14.38,14.39,14.39,0,0,0,12.46,14.26Z" style="fill:#fff;fill-rule:evenodd"/><path d="M132.16,325.72H-196.51l-1-.13A15.6,15.6,0,0,1-211,310.16a15.57,15.57,0,0,1,15.56-15.55h0v-.52a21.28,21.28,0,0,1,21.26-21.27,21.25,21.25,0,0,1,11.66,3.48,31.41,31.41,0,0,1,9.91-8.83h0a45.61,45.61,0,0,1,45.33-40.28,45.61,45.61,0,0,1,34.66,15.94,45.27,45.27,0,0,1,32.76-13.87A45.43,45.43,0,0,1-8.41,241.85h0a35.46,35.46,0,0,1,34.66-30.22,67.43,67.43,0,0,1,120.57,41.49,68.11,68.11,0,0,1-1.51,14.26h0a31.13,31.13,0,0,1-12,58.19v.11Zm-328.51-2.35H131.78l.26,0,1.06-.1a28.77,28.77,0,0,0,11.06-53.79l-1.52-.85.36-1.7a65.13,65.13,0,0,0-63.6-78.84,64.7,64.7,0,0,0-51.29,25l-.7.9H26.27a33.09,33.09,0,0,0-32.34,28.2l-.65,4.53L-10,243.56a43.08,43.08,0,0,0-29.85-11.94,42.93,42.93,0,0,0-31.07,13.15l-1.8,1.85-1.68-2a43.25,43.25,0,0,0-32.87-15.12,43.26,43.26,0,0,0-43,38.21l-.14,1.19-1,.59a28.91,28.91,0,0,0-9.17,8.16L-162,279.5l-1.88-1.23a18.83,18.83,0,0,0-10.36-3.09,18.93,18.93,0,0,0-18.91,18.91c0,.15,0,.31,0,.46l0,2.41h-2.41a13.22,13.22,0,0,0-13.21,13.2,13.23,13.23,0,0,0,11.44,13.09Z" style="fill:#2a455f"/><path id="Path-13" d="M-6.74,246.89c0,17.12,27.1,71,86.14,65.87q59-5.14,62.62-43.68,15.24,4.73,16.75,21c1.51,16.24-3.88,25.3-20.69,32.3q-81.59,1.44-217,1,22.46-2.71,35.9-8c13.24-5.19,27.94-18.68,32.54-30.08q12.36-30.63-17.25-51.93A47.88,47.88,0,0,1-6.74,246.89Z" style="fill:#f3f8fc;fill-rule:evenodd"/></g></g><g id="bg__tree"><path d="M157.41,347.09,6.79,214.44s74.05-51.32,150.62,132.65" style="fill:#059767;fill-rule:evenodd"/><path d="M5.76,215.62l-1.51-1.33,1.65-1.14c.71-.49,17.62-11.91,43.77-4.24,17.07,5,34,17,50.43,35.71,20.67,23.56,40.44,57.84,58.76,101.86l-2.48,1.78Zm3.7-.92L153.29,341.36C130.56,288.4,94.71,225.47,48.9,212a59.09,59.09,0,0,0-16.8-2.5A49.11,49.11,0,0,0,9.46,214.7Z" style="fill:#163150"/><path d="M147,353.37,309.08,234S189.78,206.36,147,353.37" style="fill:#08aa75;fill-rule:evenodd"/><path d="M145.45,352.93c9.84-33.78,24.56-61.13,43.77-81.31a130,130,0,0,1,54.37-34.56c35.19-11.47,65.54-4.66,65.84-4.59l3.33.77L144.15,357.38Zm99-112.83a127,127,0,0,0-53,33.75c-18,18.91-31.95,44.28-41.61,75.47L305.21,234.9A135.64,135.64,0,0,0,244.42,240.1Z" style="fill:#163150"/><path d="M147.42,342.9,239,174.39s-99.62-6.16-91.58,168.51" style="fill:#059767;fill-rule:evenodd"/><path d="M145.85,343c-1.73-37.61,1.43-69.8,9.4-95.68,6.54-21.22,16.33-38.36,29.12-50.95,25.42-25,53.54-23.59,54.73-23.52l2.45.15L146.11,348.6Zm40.72-144.39c-12.41,12.22-21.94,28.92-28.32,49.63-7.46,24.23-10.65,54.12-9.49,88.93L236.36,176C229,176.23,206.68,178.78,186.57,198.58Z" style="fill:#163150"/><path d="M150.44,343.1,71.61,160.64s99.29,12.44,78.83,182.46" style="fill:#059767;fill-rule:evenodd"/><path d="M69.08,158.74l2.72.34c1,.13,25.66,3.47,48.05,28,13.11,14.33,22.67,33,28.43,55.42,7.16,27.92,8.41,61.84,3.72,100.81l-.69,5.77Zm80.47,178.33c3.83-36.06,2.4-67.54-4.27-93.65-5.6-21.92-14.89-40.12-27.59-54.08a91.47,91.47,0,0,0-31.32-22.58,72.28,72.28,0,0,0-12.15-4Z" style="fill:#163150"/><path d="M139.73,328.29-28.91,306.53s97.68-59,168.64,21.76" style="fill:#08aa75;fill-rule:evenodd"/><path d="M-33.57,307.51l3.85-2.33a171.12,171.12,0,0,1,58.3-19.63c19.56-2.74,38.17-1.48,55.32,3.74,21.45,6.53,40.63,19.3,57,38l2.75,3.13Zm62.69-18.87a171.32,171.32,0,0,0-53,16.95l159.64,20.6c-15.34-16.5-33-27.88-52.67-33.88a118.62,118.62,0,0,0-34.7-5A139.21,139.21,0,0,0,29.12,288.64Z" style="fill:#163150"/><path d="M137.54,355.46,330,341.35s-75.79-82.9-192.46,14.11" style="fill:#059767;fill-rule:evenodd"/><path d="M136.54,354.25c26.79-22.28,53.68-36.89,79.91-43.44,21.06-5.26,41.74-5.36,61.46-.31,33.6,8.62,52.46,28.93,53.25,29.79l2.18,2.39L132.77,357.39ZM277,313.51c-19.2-4.9-39.34-4.78-59.87.37-24.49,6.13-49.61,19.47-74.72,39.65l184-13.49A117.14,117.14,0,0,0,277,313.51Z" style="fill:#163150"/><path d="M152.18,330.86-14.13,382.68s15.59-73.93,135.2-57.21c9.69,1.36,20.1,2.78,31.11,5.39" style="fill:#059767;fill-rule:evenodd"/><path d="M-15.66,382.36c.16-.78,4.22-19.19,23.25-35.74,11.13-9.68,25.1-16.68,41.51-20.79,20.42-5.11,44.7-5.75,72.18-1.91l.94.13c9.63,1.35,19.59,2.74,30.33,5.28l5.58,1.32L-16.21,385Zm137.44-55.2-.93-.13c-33.7-4.72-80.33-4.76-111,21.82a73,73,0,0,0-21.62,31.47l157.9-49.2C137.62,329.37,129.59,328.25,121.78,327.16Z" style="fill:#163150"/><path d="M147,333.48c.34-.08-139.22,127.71-139.22,127.71S-21.77,370.25,147,333.48" style="fill:#08aa75;fill-rule:evenodd"/><path d="M6.24,461.68c-.35-1.06-8.17-26.11,8.73-55.54,8.79-15.31,22.75-29,41.49-40.61,22.95-14.25,53.29-25.55,90.16-33.59l1.17-.25.56,1.06c.56,1.08.23,1.38-1.88,3.34l-4.41,4.08L126.3,354.66c-13,12-30.46,27.94-47.87,43.89-34.81,31.91-69.64,63.8-69.64,63.8L7,464Zm51.94-93.52c-18.29,11.34-31.9,24.62-40.44,39.46-13.27,23-10.59,43.71-9.13,50.63,42.06-38.51,114.88-105.22,133-122C107.7,344.13,79.64,354.85,58.18,368.16Z" style="fill:#163150"/><path d="M138.59,344.21,303.85,450.72s-19-112.93-165.26-106.51" style="fill:#08aa75;fill-rule:evenodd"/><path d="M133.59,342.86l4.93-.22c33.6-1.47,63.28,3.26,88.22,14.06a135.71,135.71,0,0,1,50.53,37.35c23,27.44,28.08,56.13,28.13,56.41L306,454Zm10.06,2.74L301.49,447.33a132,132,0,0,0-76-87.75c-21.57-9.34-46.8-14.06-75.14-14.06C148.14,345.52,145.9,345.55,143.65,345.6Z" style="fill:#163150"/><path d="M153.23,340.81l94.28,188.42s46.77-89.68-69.78-172.58q-11.22-8-24.5-15.84" style="fill:#059767;fill-rule:evenodd"/><path d="M149.44,336.75l4.59,2.7c8.71,5.15,17,10.5,24.61,15.92,26.76,19,47.12,40,60.51,62.41,10.74,18,17,36.84,18.74,56.11,2.88,32.86-8.5,55.14-9,56.07l-1.42,2.72Zm98,188.83a111.54,111.54,0,0,0,7.32-51.41c-1.65-18.8-7.81-37.23-18.31-54.77-13.16-22-33.23-42.69-59.63-61.47-6.19-4.4-12.82-8.76-19.77-13Z" style="fill:#163150"/><path d="M159.51,329.29l-101.26,202s-36.53-118.79,101.26-202" style="fill:#059767;fill-rule:evenodd"/><path d="M56.75,531.79c-.09-.3-9.16-30.54-1.08-70.57a175.73,175.73,0,0,1,28.6-66.14c17.77-25.44,42.81-48,74.42-67.13l4.65-2.81L57.9,535.53Zm30.16-135a172.49,172.49,0,0,0-28.13,64.89c-6.26,30.88-2.14,55.78,0,65.17l96.89-193.33C126.63,351.75,103.53,373,86.91,396.79Z" style="fill:#163150"/><path d="M163,346.22s-5.87,101.94,35.94,202.41c50,120,16.66,208.81,16.66,208.81H149.24s48.57-70.06,17.83-175.5C130.94,458,136.85,344,136.85,344Z" style="fill:#ae723b;fill-rule:evenodd"/><path d="M148,756.55c.12-.17,12.08-17.64,20.22-47.73,7.52-27.81,13.17-72.33-2.61-126.44C129.77,459.63,135.23,345,135.29,343.86l.08-1.62,29.26,2.55-.09,1.52c-.06,1-5.36,102.76,35.82,201.71,25.93,62.29,29.1,116,27.19,150.12-2.07,37-10.42,59.63-10.51,59.85l-.38,1H146.24Zm76.47-58.73c1.87-33.74-1.29-86.91-27-148.59-38.71-93-36.62-188.44-36.12-201.57l-23-2c-.52,14.38-3.1,121.55,30.22,235.85,16,54.82,10.25,99.94,2.63,128.14-6.6,24.4-15.5,40.39-19.09,46.23h62.35C216.07,751.12,222.64,730,224.42,697.82Z" style="fill:#163150"/><path d="M174.15,692.21a229.65,229.65,0,0,0,3.62-35.14c16-7.81,31.88-15.52,45.42-22.11a321.84,321.84,0,0,1,2.06,73.28c-14.58-4.58-33.46-10.51-51.1-16" style="fill:#6d4e2d;fill-rule:evenodd;opacity:.30000000000000004"/><path d="M165.58,581.51c-.29-1-.56-2.08-.84-3.12,12.06-8.3,24.17-16.6,35-24a383.61,383.61,0,0,1,18.35,64.95c-13.48.89-28.94,2-44.32,3.09a273.79,273.79,0,0,0-8.18-40.89" style="fill:#6d4e2d;fill-rule:evenodd;opacity:.30000000000000004"/><path d="M214.69,757.44H149.05a124.5,124.5,0,0,0,9.36-17.35c23.52-5.53,46-10.84,63.85-15.1-3.17,20.68-7.57,32.45-7.57,32.45" style="fill:#6d4e2d;fill-rule:evenodd;opacity:.30000000000000004"/><path d="M136.49,398.64c8-1.36,17.08-2.91,26-4.45.52,7.08,1.24,14.79,2.23,23-9.72-2.67-19.29-5.25-27.61-7.49-.24-3.83-.46-7.54-.64-11.09" style="fill:#6d4e2d;fill-rule:evenodd;opacity:.30000000000000004"/><path d="M149.05,510.65c10.71-5.7,21.18-11.25,30.07-16,3.53,13,7.77,26.35,12.81,39.74l-37.13,4.23q-3.21-14.25-5.75-28" style="fill:#6d4e2d;fill-rule:evenodd;opacity:.30000000000000004"/><path d="M142.77,455.3l28-5.62c1.52,8.77,3.33,17.88,5.47,27.21l-31.17-3.28q-1.29-9.37-2.3-18.31" style="fill:#6d4e2d;fill-rule:evenodd;opacity:.30000000000000004"/><path d="M134.17,760.23H234.48a5,5,0,0,0,0-9.85H134.17a5,5,0,0,0,0,9.85" style="fill:#f3c65c;fill-rule:evenodd"/><path d="M180.76,334.57a22,22,0,1,1-23.3,20.55,22,22,0,0,1,23.3-20.55" style="fill:#91523a;fill-rule:evenodd"/><path d="M177.89,380a23.55,23.55,0,0,1,3-47h0a23.55,23.55,0,0,1-1.45,47.06C178.9,380.06,178.4,380.05,177.89,380Zm2.77-43.87A20.4,20.4,0,0,0,159,355.22a20.44,20.44,0,0,0,19.07,21.66,20.41,20.41,0,0,0,21.64-19.08,20.42,20.42,0,0,0-19.07-21.66Z" style="fill:#163150"/><path d="M169.26,307.35A22,22,0,1,1,146,327.9a22,22,0,0,1,23.31-20.55" style="fill:#a35e44;fill-rule:evenodd"/><path d="M166.39,352.8a23.55,23.55,0,0,1,3-47h0a23.55,23.55,0,0,1-1.47,47C167.39,352.84,166.89,352.83,166.39,352.8Zm2.77-43.88a20.41,20.41,0,1,0,19.07,21.66,20.43,20.43,0,0,0-19.07-21.66Z" style="fill:#163150"/><path d="M142.06,334.57a22,22,0,1,1-23.3,20.55,22,22,0,0,1,23.3-20.55" style="fill:#91523a;fill-rule:evenodd"/><path d="M139.19,380a23.55,23.55,0,0,1,3-47h0a23.55,23.55,0,0,1-1.44,47.06C140.21,380.06,139.7,380.05,139.19,380ZM142,336.14A20.42,20.42,0,1,0,161,357.8,20.44,20.44,0,0,0,142,336.14Z" style="fill:#163150"/><path d="M131.61,307.35A22,22,0,1,1,108.3,327.9a22,22,0,0,1,23.31-20.55" style="fill:#a35e44;fill-rule:evenodd"/><path d="M128.73,352.8a23.55,23.55,0,0,1,3-47h0A23.55,23.55,0,0,1,145.78,347a23.32,23.32,0,0,1-15.52,5.88C129.75,352.84,129.24,352.83,128.73,352.8Zm2.78-43.88a20.42,20.42,0,1,0,19.06,21.66,20.45,20.45,0,0,0-19.06-21.66Z" style="fill:#163150"/></g><g id="bg__shells"><circle cx="964.9" cy="1130.66" r="1.22" style="fill:#163150"/><path d="M964.9,1132.49a1.83,1.83,0,1,1,1.82-1.83A1.83,1.83,0,0,1,964.9,1132.49Zm0-2.44a.61.61,0,0,0-.61.61.61.61,0,0,0,.61.61.61.61,0,0,0,.61-.61A.62.62,0,0,0,964.9,1130.05Z" style="fill:#979797"/><path d="M912.13,1150.86c10.6-7.5,29.08-16.52,38-26.58s22.38-9.66,33.22,3.47,29.34,10.77,35.75,16.42q-3.51,6.69-40.56,3.25,5.16,17.26-3.89,23.42c-9.46-1.7-19-20-24.52-20S901.53,1158.35,912.13,1150.86Z" style="fill:#a682ff;fill-rule:evenodd"/><path d="M974.7,1172.06l-.22,0c-5.58-1-10.89-7-15.58-12.32-3.33-3.76-6.76-7.65-8.72-7.65-1.31,0-5.2.49-9.69,1.06-23.4,2.94-30.08,3-31.12.34-.66-1.69,1.32-3.08,2.06-3.61h0c3.46-2.45,7.72-5,12.24-7.78,9.21-5.59,19.65-11.94,25.6-18.61,4.43-5,9.89-7.57,15.71-7.43,6.87.13,13.56,3.91,19.36,10.93,6.4,7.76,15.84,10,23.43,11.71,5.09,1.18,9.49,2.2,12.19,4.57a1.22,1.22,0,0,1,.27,1.48c-1.64,3.13-7.6,6.91-40,4.06,3,11.1,1.33,18.85-4.86,23.06A1.19,1.19,0,0,1,974.7,1172.06Zm-24.52-22.42c3.06,0,6.36,3.73,10.54,8.47s9.11,10.29,13.71,11.43c5.16-3.84,6.16-11.16,3-21.77a1.22,1.22,0,0,1,.22-1.12,1.17,1.17,0,0,1,1.06-.44c27.93,2.59,36.36.29,38.73-1.82-2.35-1.52-6-2.37-10.21-3.34-8-1.84-17.84-4.13-24.76-12.52-5.33-6.46-11.39-9.93-17.53-10-5.11-.08-9.9,2.19-13.84,6.61-6.19,7-16.8,13.39-26.16,19.08-4.48,2.71-8.7,5.28-12.1,7.68h0a6.85,6.85,0,0,0-.93.77c3.26,1.24,20.66-.95,28.28-1.91C945,1150.11,948.71,1149.64,950.18,1149.64Z" style="fill:#163150"/><path d="M928.8,1128.06c11.51,0,16.76-2.39,21.38-3.78q-5,5.67-15.75,12.92Q917.3,1128.06,928.8,1128.06Z" style="fill:#9165ff;fill-rule:evenodd"/><path d="M934.43,1138.42a1.3,1.3,0,0,1-.57-.14c-9.63-5.14-11.3-7.42-10.84-9.25s3.35-2.19,5.78-2.19a53.36,53.36,0,0,0,18.83-3l2.2-.7a1.22,1.22,0,0,1,1.26,2c-3.38,3.83-8.75,8.25-16,13.12A1.24,1.24,0,0,1,934.43,1138.42Zm-9-8.75c.29.53,1.74,2.24,8.89,6.11a104,104,0,0,0,11.45-8.83,55.27,55.27,0,0,1-17,2.33A8.91,8.91,0,0,0,925.47,1129.67Z" style="fill:#163150"/><path d="M935.83,1169.45l2.66-8.32,7.69,6.69h9.38l-4.3,6.34,4.3,6-11-2.43-6.08,5.11-2.66-6.67-9-4.88Z" style="fill:#f4d57a;fill-rule:evenodd"/><path d="M938.5,1184.1a1,1,0,0,1-.3,0,1.23,1.23,0,0,1-.84-.73l-2.5-6.26-8.59-4.67a1.22,1.22,0,0,1,.33-2.26l8.29-1.74,2.44-7.64a1.24,1.24,0,0,1,.84-.81,1.2,1.2,0,0,1,1.12.26l7.35,6.39h8.92a1.23,1.23,0,0,1,1.08.65,1.22,1.22,0,0,1-.07,1.25l-3.83,5.65,3.81,5.35a1.24,1.24,0,0,1,0,1.38,1.23,1.23,0,0,1-1.29.51l-10.4-2.3-5.61,4.72A1.2,1.2,0,0,1,938.5,1184.1Zm-8.15-12.26,6.06,3.3a1.15,1.15,0,0,1,.55.62l2,5.1,4.78-4a1.24,1.24,0,0,1,1.05-.25l7.9,1.75-2.46-3.46a1.2,1.2,0,0,1,0-1.39l3-4.44h-7.08a1.24,1.24,0,0,1-.8-.3l-6.29-5.48-2.1,6.56a1.21,1.21,0,0,1-.91.82Z" style="fill:#163150"/><path d="M902.27,1167.42l2-6.29,5.85,5.06h7.14L914,1171l3.27,4.57-8.36-1.85-4.63,3.87-2-5-6.83-3.68Z" style="fill:#fbb444;fill-rule:evenodd"/><path d="M904.3,1178.8a1,1,0,0,1-.3,0,1.21,1.21,0,0,1-.83-.73l-1.86-4.64-6.45-3.47a1.22,1.22,0,0,1,.33-2.27l6.14-1.28,1.81-5.62a1.27,1.27,0,0,1,.83-.8,1.22,1.22,0,0,1,1.13.26l5.51,4.76h6.68a1.22,1.22,0,0,1,1,1.9l-2.79,4.1,2.77,3.88a1.2,1.2,0,0,1,0,1.38,1.24,1.24,0,0,1-1.28.52l-7.78-1.72-4.17,3.48A1.2,1.2,0,0,1,904.3,1178.8Zm-5.35-9.44,3.9,2.1a1.15,1.15,0,0,1,.55.62l1.41,3.49,3.33-2.79a1.21,1.21,0,0,1,1.05-.26l5.26,1.16-1.42-2a1.22,1.22,0,0,1,0-1.4l2-2.89h-4.84a1.21,1.21,0,0,1-.79-.3l-4.46-3.86-1.47,4.54a1.21,1.21,0,0,1-.91.82Z" style="fill:#163150"/><circle cx="964.9" cy="1129.44" r="1.22" style="fill:#163150"/><circle cx="965.51" cy="1137.37" r="1.83" style="fill:#163150"/><circle cx="951.49" cy="1130.66" r="1.22" style="fill:#163150"/><circle cx="939.92" cy="1138.58" r="1.83" style="fill:#163150"/><circle cx="925.29" cy="1147.11" r="1.83" style="fill:#163150"/><ellipse cx="969.77" cy="1148.33" rx="2.44" ry="3.05" style="fill:#163150"/><ellipse cx="973.43" cy="1161.74" rx="2.44" ry="3.05" style="fill:#163150"/></g><g style="clip-path:url(#clip-path-2)"><g style="clip-path:url(#clip-path-4)"><path d="M1297.13,1183.27a3,3,0,0,1,.09.94,3.37,3.37,0,0,1-1.29,2.69,3.26,3.26,0,0,1-2.54.88,2.42,2.42,0,0,0-.91,0,8.63,8.63,0,0,1-.21,1.93,1.18,1.18,0,0,0,.63,1.09,3.17,3.17,0,0,1,2,0,1.91,1.91,0,0,1,1.36,1.63,3.85,3.85,0,0,1-.76,2.64,7.14,7.14,0,0,1-2.51,2.25,6.52,6.52,0,0,1-3.35.82,7,7,0,0,1-3.05-.64,6.48,6.48,0,0,1-1.72-1.69q-1.25-2.05-1.27-8.67a62.16,62.16,0,0,1,.63-8.7c.26-1.89.81-3.12,1.63-3.69l5-.51a12.2,12.2,0,0,1,2.48-.27c1.57,0,2.5.39,2.78,1.18a3.06,3.06,0,0,1,.18,1.08,2.62,2.62,0,0,1-1,2.12,4.06,4.06,0,0,1-2.69.82,5.62,5.62,0,0,1-.66,0,3.94,3.94,0,0,0-.24,1.45c0,.84-.07,1.32-.09,1.45a.72.72,0,0,0,.63.54,3.46,3.46,0,0,1,2.21-.7A3.08,3.08,0,0,1,1297.13,1183.27Zm-24.14-2.59h0a1,1,0,0,0-.3-.06,4.68,4.68,0,0,0-.94.42,4.38,4.38,0,0,0-.09,1.54c0,1.11,0,2.15,0,3.14a5.36,5.36,0,0,0,1.95-1.13,2.1,2.1,0,0,0,.8-1.56A3.33,3.33,0,0,0,1273,1180.68Zm8.64,14.08h0a6.21,6.21,0,0,1-1.42,1.84,4.77,4.77,0,0,1-2.62,1.33q-2.58.27-5.26-5.23a12.17,12.17,0,0,1,.09,1.36,4.44,4.44,0,0,1-.91,3,4.79,4.79,0,0,1-2.78,1,4.46,4.46,0,0,1-1.08-.12,4.34,4.34,0,0,1-2.33-1.15,5.41,5.41,0,0,1-.73-3.26v-1.21c-.06-.06,0-1.87.06-5.41a77.45,77.45,0,0,1,.7-9.16c.26-1.51,1.33-2.54,3.2-3.11a34.88,34.88,0,0,1,5.23-.78c3.08.1,5.2,1.13,6.34,3.08a12.94,12.94,0,0,1,1.27,5.38,6.71,6.71,0,0,1-1.36,4.2,22.08,22.08,0,0,1-1.72,1.6c2.28,2.46,3.41,4.51,3.41,6.16A3.85,3.85,0,0,1,1281.63,1194.76Zm-19.21-17.2,0,0q.12,1.42.12,3.18a36.28,36.28,0,0,1-2.21,12.81,8,8,0,0,1-1.79,2.79A6,6,0,0,1,1256,1198a16.7,16.7,0,0,1-2.41.18,9.6,9.6,0,0,1-5.62-1.57,7.79,7.79,0,0,1-3-4.2,18.92,18.92,0,0,1-.67-5.68,32.75,32.75,0,0,1,1.06-9.07,4,4,0,0,1,1.43-2,4.4,4.4,0,0,1,2.22-1,3.06,3.06,0,0,1,1.92.5,3.57,3.57,0,0,1,1.41,1.53,12.4,12.4,0,0,1,.09,1.54,33.1,33.1,0,0,1-.55,4.26,34.35,34.35,0,0,0-.54,4.2,9.49,9.49,0,0,0,.12,1.6,2.28,2.28,0,0,0,1,1,1.85,1.85,0,0,0,1.42-.24,4,4,0,0,0,1-2.24c0-1.37,0-3.13.1-5.29.2-1.73.33-2.8.39-3.2a13.7,13.7,0,0,1,.57-2.63,3,3,0,0,1,2.48-1.72,3.64,3.64,0,0,1,2.39,1A6.35,6.35,0,0,1,1262.42,1177.56Zm-19.64.34h0a6.17,6.17,0,0,1,.09,1.17,3.49,3.49,0,0,1-.72,2.3,6.71,6.71,0,0,1-2.44.71,9.78,9.78,0,0,0-2.22.53c0,.22.19,2.33.7,6.31a19.77,19.77,0,0,1,.15,2.42,12,12,0,0,1-.73,4.53c-.6,1.49-1.49,2.22-2.66,2.18a4.58,4.58,0,0,1-4-1.78,7.53,7.53,0,0,1-.88-4c0,.16,0-.9.12-3.17l.15-3.87a22.05,22.05,0,0,1,.4-3.14,1.94,1.94,0,0,1-.55.06,6.38,6.38,0,0,1-2-.34,3.25,3.25,0,0,1-1.91-1.33,4.64,4.64,0,0,1-.72-2.32,3.07,3.07,0,0,1,2-2.81,13.55,13.55,0,0,1,6.2-1.3,23.35,23.35,0,0,1,4,.36l3,1.12A3.46,3.46,0,0,1,1242.78,1177.9Zm-19,2.23v0c.2,2.34.3,4.54.3,6.62q0,9.57-3.17,10.75a3,3,0,0,1-1.12.19,8.15,8.15,0,0,1-2-.31q-1.5-.84-4.62-9.69a20.24,20.24,0,0,1,.54,4.59,9.24,9.24,0,0,1-.72,4,2.83,2.83,0,0,1-1.19,1.19,2.7,2.7,0,0,1-1.65.41,3.87,3.87,0,0,1-3.41-3,20.17,20.17,0,0,1-.61-5.81c0-5.09.21-8.52.64-10.27a5.56,5.56,0,0,1,2.2-3.23,3.75,3.75,0,0,1,2.24-.73,4.16,4.16,0,0,1,1.33.22q1.74.93,3.44,5.59a36.91,36.91,0,0,1,1.3,4.44q-.3-2-.51-3.51a30.91,30.91,0,0,1-.37-3.9,3.76,3.76,0,0,1,.79-2.44,3.1,3.1,0,0,1,2.57-1.12q2.93,0,3.65,3.26C1223.54,1177.76,1223.65,1178.7,1223.78,1180.13Zm-19.79,3.14a3,3,0,0,1,.09.94,3.38,3.38,0,0,1-1.3,2.69,3.24,3.24,0,0,1-2.54.88,2.41,2.41,0,0,0-.91,0,8.63,8.63,0,0,1-.21,1.93,1.17,1.17,0,0,0,.64,1.09,3.14,3.14,0,0,1,2,0,1.9,1.9,0,0,1,1.36,1.63,3.85,3.85,0,0,1-.76,2.64,7.2,7.2,0,0,1-2.5,2.25,6.59,6.59,0,0,1-3.36.82,7.06,7.06,0,0,1-3-.64,6.63,6.63,0,0,1-1.72-1.69q-1.24-2.05-1.27-8.67a60.81,60.81,0,0,1,.64-8.7c.26-1.89.8-3.12,1.63-3.69l5-.51a12.2,12.2,0,0,1,2.48-.27c1.57,0,2.5.39,2.78,1.18a3.06,3.06,0,0,1,.18,1.08,2.62,2.62,0,0,1-1,2.12,4,4,0,0,1-2.68.82,5.7,5.7,0,0,1-.67,0,3.94,3.94,0,0,0-.24,1.45c0,.84-.07,1.32-.09,1.45a.72.72,0,0,0,.63.54,3.48,3.48,0,0,1,2.21-.7A3.09,3.09,0,0,1,1204,1183.27Zm-16.38-8c.77.54,1.15,1.6,1.15,3.17q0,5.07-5,16.44a5.08,5.08,0,0,1-4.08,3.2,4.46,4.46,0,0,1-.66.06,6.88,6.88,0,0,1-2.87-.61,4.28,4.28,0,0,1-2-1.6,25.27,25.27,0,0,1-3.12-7.61,31.36,31.36,0,0,1-.93-7.31,12.92,12.92,0,0,1,.36-3.6,3.54,3.54,0,0,1,1.75-2.05,4.06,4.06,0,0,1,2.15-.55,3.2,3.2,0,0,1,2.87,1.73,20.16,20.16,0,0,1,1.15,5.65l.39,3.77q.24-2.17.78-6.45c.37-2.85,1.1-4.53,2.21-5.06a5.4,5.4,0,0,1,2.33-.51A4.91,4.91,0,0,1,1187.61,1175.24Zm-26.83,6.74a1.12,1.12,0,0,0-.81-.52,1.16,1.16,0,0,0-.46.12l-.3.12a60.39,60.39,0,0,1,.42,7.13,4.47,4.47,0,0,0,1.47-1.78,5.31,5.31,0,0,0,.59-2.39A4.09,4.09,0,0,0,1160.78,1182Zm7.55,2.71a15.58,15.58,0,0,1-1.81,7.53,10.43,10.43,0,0,1-6.55,5.38,10.19,10.19,0,0,1-4.25-.56q-1.89-.72-2-1.86-.54-8.07-.54-15.5,0-2.75.12-3.93.75-1.63,4.86-1.63a14.53,14.53,0,0,1,4.14.54,9.31,9.31,0,0,1,3.45,2.9A11.64,11.64,0,0,1,1168.33,1184.69Zm-25.19,2.69a45.46,45.46,0,0,0-.31-7.64q-.21-.21-.63.15-.39,2.56-.57,4.17a18.5,18.5,0,0,0-.22,3.2.54.54,0,0,0,.52.33,4.07,4.07,0,0,0,.62-.1A5.47,5.47,0,0,1,1143.14,1187.38Zm7.64,7.92v0a2.16,2.16,0,0,1-1.78,1.81,6.81,6.81,0,0,1-1.57.18,4,4,0,0,1-2.42-.69,9.21,9.21,0,0,1-.79-1.15,4.54,4.54,0,0,1-.39-2,16.82,16.82,0,0,0-2.75.12q.06.27.12.81a5.57,5.57,0,0,1-.69,2.57,2.94,2.94,0,0,1-2.57,1.24,8.64,8.64,0,0,1-2-.3l-.06-.06c-1.72-.85-2.57-2.95-2.57-6.32,0-.22,0-.74.06-1.57a44,44,0,0,1,.87-7.43,18.21,18.21,0,0,1,3.21-6.83,6.1,6.1,0,0,1,5.16-2.33,6.64,6.64,0,0,1,5.47,2.27,7.84,7.84,0,0,1,1.54,3.11,45.1,45.1,0,0,1,1.66,11.21A28.47,28.47,0,0,1,1150.78,1195.3Zm-36.56-14.62h0a1,1,0,0,0-.3-.06,4.68,4.68,0,0,0-.94.42,4.38,4.38,0,0,0-.09,1.54c0,1.11,0,2.15,0,3.14a5.36,5.36,0,0,0,1.95-1.13,2.1,2.1,0,0,0,.8-1.56A3.33,3.33,0,0,0,1114.22,1180.68Zm8.64,14.08h0a6.21,6.21,0,0,1-1.42,1.84,4.76,4.76,0,0,1-2.63,1.33q-2.57.27-5.25-5.23a12.17,12.17,0,0,1,.09,1.36,4.44,4.44,0,0,1-.91,3,4.79,4.79,0,0,1-2.78,1,4.61,4.61,0,0,1-1.09-.12,4.34,4.34,0,0,1-2.32-1.15,5.34,5.34,0,0,1-.73-3.26v-1.21c-.06-.06,0-1.87.06-5.41a75.34,75.34,0,0,1,.7-9.16c.26-1.51,1.33-2.54,3.2-3.11a34.88,34.88,0,0,1,5.23-.78q4.62.15,6.34,3.08a12.94,12.94,0,0,1,1.27,5.38,6.71,6.71,0,0,1-1.36,4.2,22.08,22.08,0,0,1-1.72,1.6c2.28,2.46,3.41,4.51,3.41,6.16A3.85,3.85,0,0,1,1122.86,1194.76Zm-19.21-17.2,0,0q.12,1.42.12,3.18a36.28,36.28,0,0,1-2.21,12.81,8,8,0,0,1-1.79,2.79,6,6,0,0,1-2.56,1.65,16.7,16.7,0,0,1-2.41.18,9.6,9.6,0,0,1-5.62-1.57,7.86,7.86,0,0,1-3.06-4.2,19.3,19.3,0,0,1-.66-5.68,32.75,32.75,0,0,1,1.06-9.07,4,4,0,0,1,1.43-2,4.4,4.4,0,0,1,2.22-1,3.06,3.06,0,0,1,1.92.5,3.64,3.64,0,0,1,1.41,1.53,12.4,12.4,0,0,1,.09,1.54,33.1,33.1,0,0,1-.55,4.26,34.35,34.35,0,0,0-.54,4.2,9.49,9.49,0,0,0,.12,1.6,2.28,2.28,0,0,0,1,1,1.85,1.85,0,0,0,1.42-.24,4,4,0,0,0,1-2.24c0-1.37,0-3.13.09-5.29.21-1.73.34-2.8.4-3.2a13.7,13.7,0,0,1,.57-2.63,3,3,0,0,1,2.48-1.72,3.64,3.64,0,0,1,2.39,1A6.45,6.45,0,0,1,1103.65,1177.56Zm-28.34,12.91v0c.58-.1.87-1.21.87-3.35a16.41,16.41,0,0,0-.33-3.4c-.22-1-.46-1.57-.72-1.61-.45-.12-.85.36-1.21,1.45a11.31,11.31,0,0,0-.55,3.59C1073.37,1189.55,1074,1190.67,1075.31,1190.47Zm7.49,2.17,0,0a7.39,7.39,0,0,1-2.76,3.87,7.71,7.71,0,0,1-4.58,1.42,8.71,8.71,0,0,1-7.46-3.63,12.29,12.29,0,0,1-2.27-7.49,18.36,18.36,0,0,1,.36-3.75q1.67-7.87,7-8.88a5.64,5.64,0,0,1,1-.09,8.07,8.07,0,0,1,4.7,1.6,7.84,7.84,0,0,1,3.06,3.9,26.14,26.14,0,0,1,1.7,7.76,18.52,18.52,0,0,1-.88,5.26Zm-33.81-18h0a3.53,3.53,0,0,1,1.63-.39,2.82,2.82,0,0,1,2.69,1.48,7.27,7.27,0,0,1,1.27,2.66c.53,1.69.83,2.61.91,2.75.88-3.79,1.92-6.26,3.11-7.43a4.86,4.86,0,0,1,1.78-.34,3.31,3.31,0,0,1,2.27.76,3.85,3.85,0,0,1,1.6,3.47,18.67,18.67,0,0,1-1.54,5.41q-.75,1.7-2.54,5,0,1.29,0,3.84a10.22,10.22,0,0,1-.69,3.71,4.29,4.29,0,0,1-2.63,2.42,6.47,6.47,0,0,1-.7.06,3.41,3.41,0,0,1-3.35-1.9,10,10,0,0,1-.42-3.18c0-.62,0-1.21,0-1.75,0-.72,0-1.27,0-1.63q-5-8.46-5-12A3,3,0,0,1,1049,1174.69Zm-11.12,3.21h0a6.17,6.17,0,0,1,.09,1.17,3.49,3.49,0,0,1-.72,2.3,6.55,6.55,0,0,1-2.43.71,9.78,9.78,0,0,0-2.22.53c0,.22.19,2.33.69,6.31a19.77,19.77,0,0,1,.15,2.42,12.18,12.18,0,0,1-.72,4.53c-.61,1.49-1.49,2.22-2.66,2.18a4.61,4.61,0,0,1-4-1.78,7.62,7.62,0,0,1-.88-4c0,.16,0-.9.13-3.17l.15-3.87a23.75,23.75,0,0,1,.39-3.14,1.82,1.82,0,0,1-.54.06,6.44,6.44,0,0,1-2.06-.34,3.19,3.19,0,0,1-1.9-1.33,4.57,4.57,0,0,1-.73-2.32,3.08,3.08,0,0,1,2-2.81,13.51,13.51,0,0,1,6.19-1.3,23.47,23.47,0,0,1,4,.36l3,1.12A3.43,3.43,0,0,1,1037.87,1177.9Zm-27.28,2.78h0a1,1,0,0,0-.3-.06,4.68,4.68,0,0,0-.94.42,4.38,4.38,0,0,0-.09,1.54c0,1.11,0,2.15,0,3.14a5.36,5.36,0,0,0,2-1.13,2.13,2.13,0,0,0,.8-1.56A3.33,3.33,0,0,0,1010.59,1180.68Zm8.64,14.08h0a6.21,6.21,0,0,1-1.42,1.84,4.76,4.76,0,0,1-2.63,1.33q-2.56.27-5.25-5.23a12.17,12.17,0,0,1,.09,1.36,4.49,4.49,0,0,1-.91,3,4.81,4.81,0,0,1-2.78,1,4.61,4.61,0,0,1-1.09-.12,4.3,4.3,0,0,1-2.32-1.15,5.34,5.34,0,0,1-.73-3.26v-1.21c-.06-.06,0-1.87.06-5.41a73.34,73.34,0,0,1,.7-9.16c.26-1.51,1.33-2.54,3.2-3.11a34.88,34.88,0,0,1,5.23-.78q4.62.15,6.34,3.08a12.94,12.94,0,0,1,1.27,5.38,6.71,6.71,0,0,1-1.36,4.2,22.08,22.08,0,0,1-1.72,1.6q3.4,3.69,3.41,6.16A3.85,3.85,0,0,1,1019.23,1194.76Zm-27.16-7.38a46.29,46.29,0,0,0-.3-7.64c-.14-.14-.35-.09-.64.15q-.39,2.56-.57,4.17a19.09,19.09,0,0,0-.21,3.2.52.52,0,0,0,.51.33,4.07,4.07,0,0,0,.62-.1A5.47,5.47,0,0,1,992.07,1187.38Zm7.64,7.92v0a2.15,2.15,0,0,1-1.78,1.81,6.75,6.75,0,0,1-1.57.18,4,4,0,0,1-2.42-.69,8.7,8.7,0,0,1-.78-1.15,4.54,4.54,0,0,1-.39-2,16.73,16.73,0,0,0-2.75.12q.06.27.12.81a5.59,5.59,0,0,1-.7,2.57,2.93,2.93,0,0,1-2.57,1.24,8.64,8.64,0,0,1-2-.3l-.06-.06c-1.71-.85-2.57-2.95-2.57-6.32,0-.22,0-.74.06-1.57a42.78,42.78,0,0,1,.88-7.43,18,18,0,0,1,3.2-6.83,6.12,6.12,0,0,1,5.17-2.33,6.62,6.62,0,0,1,5.46,2.27,8,8,0,0,1,1.55,3.11,45.57,45.57,0,0,1,1.66,11.21A27.64,27.64,0,0,1,999.71,1195.3Zm-18.91-17.4h0a6.17,6.17,0,0,1,.09,1.17,3.49,3.49,0,0,1-.72,2.3,6.63,6.63,0,0,1-2.44.71,9.78,9.78,0,0,0-2.22.53c0,.22.19,2.33.7,6.31a19.77,19.77,0,0,1,.15,2.42,12,12,0,0,1-.73,4.53c-.6,1.49-1.49,2.22-2.65,2.18-1.9-.06-3.22-.66-4-1.78a7.53,7.53,0,0,1-.88-4c0,.16,0-.9.12-3.17l.15-3.87a22.05,22.05,0,0,1,.4-3.14,1.9,1.9,0,0,1-.55.06,6.38,6.38,0,0,1-2-.34,3.25,3.25,0,0,1-1.91-1.33,4.64,4.64,0,0,1-.72-2.32,3.07,3.07,0,0,1,2-2.81,13.58,13.58,0,0,1,6.2-1.3,23.47,23.47,0,0,1,4,.36l3,1.12A3.46,3.46,0,0,1,980.8,1177.9Zm-28.13,13.86h0c.73-.18,1.1-.54,1.12-1.08a.85.85,0,0,0-.26-.58,15.11,15.11,0,0,0-1.92-1.3,12.93,12.93,0,0,1-2-1.48A8.38,8.38,0,0,1,948,1185a8.62,8.62,0,0,1-.94-3.87,7,7,0,0,1,2.24-5.08,8.07,8.07,0,0,1,5.92-2.47,7,7,0,0,1,3.6.93,8,8,0,0,1,2.14,2.24,2.74,2.74,0,0,1,.51,1.36,3.23,3.23,0,0,1-.72,1.84l0,0a2.63,2.63,0,0,1-2,1.36,4.56,4.56,0,0,1-1-.15c-.65-.16-1-.73-1.12-1.69,0-.38-.33-.58-.88-.58a1.3,1.3,0,0,0-.75.22,2.47,2.47,0,0,0-.33,1.2,2.08,2.08,0,0,0,1,1.73q3.57,2.54,4.2,3.14a6.86,6.86,0,0,1,2.42,4.5c0,.38.05.9.09,1.54q.06,3.9-4.68,6.07a8.08,8.08,0,0,1-3.39.82,5,5,0,0,1-.66-.06l-.06,0c-3.87-.63-6-2.09-6.26-4.38-.08-.53-.13-.89-.16-1.1s0-.28,0-.2a2.17,2.17,0,0,1,.49-1.42,1.39,1.39,0,0,1,1.08-.61,6.15,6.15,0,0,1,1.61.71,4.83,4.83,0,0,0,1.84.71,2.67,2.67,0,0,0,.51-.06Zm216.51-42.53a1.13,1.13,0,0,0-.82-.51,1.16,1.16,0,0,0-.45.12l-.3.12a60.39,60.39,0,0,1,.42,7.13,4.63,4.63,0,0,0,1.47-1.78,5.34,5.34,0,0,0,.59-2.39A4.17,4.17,0,0,0,1169.18,1149.23Zm7.55,2.72a15.52,15.52,0,0,1-1.81,7.52,10.39,10.39,0,0,1-6.56,5.38,10,10,0,0,1-4.24-.56q-1.89-.7-2-1.86-.54-8.06-.54-15.49,0-2.76.12-3.93.75-1.63,4.86-1.63a14.53,14.53,0,0,1,4.14.54,9.22,9.22,0,0,1,3.45,2.9A11.62,11.62,0,0,1,1176.73,1152Zm-17.55-4.56v0q.3,3.5.3,6.62,0,9.57-3.17,10.75a3.21,3.21,0,0,1-1.12.18,8.5,8.5,0,0,1-2-.3q-1.51-.84-4.62-9.7a20.24,20.24,0,0,1,.54,4.59,9,9,0,0,1-.73,4,2.85,2.85,0,0,1-1.19,1.2,2.66,2.66,0,0,1-1.65.4,3.86,3.86,0,0,1-3.41-3,20.53,20.53,0,0,1-.6-5.8,53.42,53.42,0,0,1,.63-10.27,5.55,5.55,0,0,1,2.21-3.23,3.66,3.66,0,0,1,2.23-.73,4.4,4.4,0,0,1,1.33.21q1.76.94,3.44,5.59a36.19,36.19,0,0,1,1.3,4.44c-.2-1.33-.37-2.49-.51-3.5a32.41,32.41,0,0,1-.36-3.9,3.79,3.79,0,0,1,.78-2.45,3.14,3.14,0,0,1,2.57-1.11c2,0,3.17,1.08,3.66,3.26A27.71,27.71,0,0,1,1159.18,1147.39Zm-27.8,7.25a46.29,46.29,0,0,0-.3-7.64c-.14-.15-.35-.09-.63.15-.26,1.71-.46,3.1-.58,4.17a19.09,19.09,0,0,0-.21,3.2.52.52,0,0,0,.52.33,4,4,0,0,0,.61-.1A6,6,0,0,1,1131.38,1154.64Zm7.65,7.92v0a2.18,2.18,0,0,1-1.78,1.81,6.83,6.83,0,0,1-1.58.18,4,4,0,0,1-2.41-.69,8.16,8.16,0,0,1-.79-1.15,4.59,4.59,0,0,1-.39-2,16.77,16.77,0,0,0-2.75.12c0,.18.08.46.12.82a5.47,5.47,0,0,1-.7,2.57,3,3,0,0,1-2.56,1.24,8.29,8.29,0,0,1-2-.31l-.06-.06c-1.71-.84-2.57-2.95-2.57-6.31,0-.22,0-.75.06-1.57a44.85,44.85,0,0,1,.88-7.43,18,18,0,0,1,3.2-6.83,6.12,6.12,0,0,1,5.17-2.33,6.64,6.64,0,0,1,5.47,2.27,7.9,7.9,0,0,1,1.54,3.11,45.1,45.1,0,0,1,1.66,11.21A28.54,28.54,0,0,1,1139,1162.56Zm-36.56-14.63h0a1,1,0,0,0-.3-.06,4.19,4.19,0,0,0-.94.43,4.38,4.38,0,0,0-.09,1.54c0,1.1,0,2.15,0,3.14a5.36,5.36,0,0,0,1.95-1.13,2.17,2.17,0,0,0,.8-1.56A3.35,3.35,0,0,0,1102.47,1147.93Zm8.64,14.08h0a6.13,6.13,0,0,1-1.42,1.84,4.73,4.73,0,0,1-2.63,1.33c-1.71.19-3.46-1.56-5.26-5.22a10.24,10.24,0,0,1,.1,1.36,4.51,4.51,0,0,1-.91,3,4.87,4.87,0,0,1-2.78,1,4.55,4.55,0,0,1-1.09-.12,4.31,4.31,0,0,1-2.32-1.14,5.39,5.39,0,0,1-.73-3.27v-1.21q-.09-.09.06-5.4a73.34,73.34,0,0,1,.7-9.16c.26-1.51,1.32-2.55,3.2-3.11a35.64,35.64,0,0,1,5.22-.79c3.09.1,5.2,1.13,6.35,3.09a12.9,12.9,0,0,1,1.27,5.37,6.67,6.67,0,0,1-1.36,4.2,22,22,0,0,1-1.72,1.6q3.4,3.69,3.41,6.17A3.61,3.61,0,0,1,1111.11,1162ZM1092,1150.53a3,3,0,0,1,.09.94,3.41,3.41,0,0,1-1.3,2.69,3.23,3.23,0,0,1-2.54.87,2.41,2.41,0,0,0-.91,0,8.7,8.7,0,0,1-.21,1.94,1.16,1.16,0,0,0,.64,1.08,3.14,3.14,0,0,1,2,0,1.92,1.92,0,0,1,1.36,1.64,3.86,3.86,0,0,1-.76,2.64,7.2,7.2,0,0,1-2.5,2.25,6.69,6.69,0,0,1-3.36.82,7.17,7.17,0,0,1-3-.64,6.48,6.48,0,0,1-1.72-1.69q-1.24-2.05-1.27-8.67a62.16,62.16,0,0,1,.63-8.7c.27-1.9.81-3.13,1.64-3.69l5-.51a12.24,12.24,0,0,1,2.48-.28c1.57,0,2.5.4,2.78,1.18a3.16,3.16,0,0,1,.18,1.09,2.64,2.64,0,0,1-1,2.12,4.06,4.06,0,0,1-2.69.81,5.62,5.62,0,0,1-.66,0,4,4,0,0,0-.24,1.45c0,.85-.07,1.33-.09,1.45a.73.73,0,0,0,.63.55,3.42,3.42,0,0,1,2.21-.7A3.08,3.08,0,0,1,1092,1150.53Zm-15-5.38h0a6.36,6.36,0,0,1,.09,1.18,3.51,3.51,0,0,1-.72,2.3,6.71,6.71,0,0,1-2.44.71,9.78,9.78,0,0,0-2.22.53q-.06.33.7,6.31a19.65,19.65,0,0,1,.15,2.42,12,12,0,0,1-.73,4.53c-.6,1.49-1.49,2.22-2.66,2.18-1.89-.07-3.21-.66-4-1.79a7.48,7.48,0,0,1-.88-4c0,.17,0-.89.12-3.17l.15-3.87a22.44,22.44,0,0,1,.4-3.14,1.94,1.94,0,0,1-.55.06,6.66,6.66,0,0,1-2-.33,3.25,3.25,0,0,1-1.91-1.33,4.65,4.65,0,0,1-.72-2.33,3.09,3.09,0,0,1,2-2.81,13.68,13.68,0,0,1,6.2-1.29,23.35,23.35,0,0,1,4,.36c.67.24,1.68.61,3,1.12A3.46,3.46,0,0,1,1077,1145.15Zm-18.49,12.3v.45c0,.2,0,.35,0,.43q0,4.41-3.35,6a9.43,9.43,0,0,1-4,.87,6.81,6.81,0,0,1-4.69-1.6q-3.8-3.35-3.77-9.42a33.44,33.44,0,0,1,.63-6.05,11.69,11.69,0,0,1,2.09-4.8,5.55,5.55,0,0,1,2.28-1.77,7.75,7.75,0,0,1,3.22-.68,7.17,7.17,0,0,1,3.73,1,7.33,7.33,0,0,1,2.7,2.8,5.13,5.13,0,0,1,.61,2.36,4,4,0,0,1-.61,2.26,2.89,2.89,0,0,1-2.17,1.54,4.13,4.13,0,0,1-3.75-1.9c0-.06-.06-.3-.12-.73s-.19-.47-.45-.45l-.31.55q-.3,6.4-.3,6.55c0,.59,0,1.16.06,1.72a1.17,1.17,0,0,0,.73,1.12,5.43,5.43,0,0,0,2.4-1.54c1.14-1,1.92-1.51,2.34-1.51a2.68,2.68,0,0,1,1,.21A2.37,2.37,0,0,1,1058.51,1157.45Zm-25.74-2.81a46.29,46.29,0,0,0-.3-7.64c-.15-.15-.36-.09-.64.15q-.39,2.56-.57,4.17a17.93,17.93,0,0,0-.21,3.2.52.52,0,0,0,.51.33,4.07,4.07,0,0,0,.62-.1A5.47,5.47,0,0,1,1032.77,1154.64Zm7.64,7.92v0a2.16,2.16,0,0,1-1.78,1.81,6.75,6.75,0,0,1-1.57.18,4,4,0,0,1-2.42-.69,8.7,8.7,0,0,1-.78-1.15,4.45,4.45,0,0,1-.4-2,16.82,16.82,0,0,0-2.75.12c0,.18.08.46.12.82a5.57,5.57,0,0,1-.69,2.57,3,3,0,0,1-2.57,1.24,8.22,8.22,0,0,1-2-.31l-.06-.06c-1.72-.84-2.57-2.95-2.57-6.31,0-.22,0-.75.06-1.57a44,44,0,0,1,.87-7.43,18.14,18.14,0,0,1,3.21-6.83,6.12,6.12,0,0,1,5.16-2.33,6.64,6.64,0,0,1,5.47,2.27,7.77,7.77,0,0,1,1.54,3.11,45.1,45.1,0,0,1,1.66,11.21A28.54,28.54,0,0,1,1040.41,1162.56Zm-28.1-14.63h0a1,1,0,0,0-.3-.06,1.26,1.26,0,0,0-1,2c0,1.1,0,2.15,0,3.14a5.36,5.36,0,0,0,1.95-1.13,2.13,2.13,0,0,0,.8-1.56A3.35,3.35,0,0,0,1012.31,1147.93ZM1021,1162h0a6,6,0,0,1-1.42,1.84,4.7,4.7,0,0,1-2.62,1.33c-1.72.19-3.47-1.56-5.26-5.22a12,12,0,0,1,.09,1.36,4.46,4.46,0,0,1-.91,3,4.84,4.84,0,0,1-2.78,1,4.46,4.46,0,0,1-1.08-.12,4.35,4.35,0,0,1-2.33-1.14,5.47,5.47,0,0,1-.73-3.27v-1.21q-.09-.09.06-5.4a75.34,75.34,0,0,1,.7-9.16q.39-2.26,3.2-3.11a35.85,35.85,0,0,1,5.23-.79c3.08.1,5.2,1.13,6.34,3.09a12.9,12.9,0,0,1,1.27,5.37,6.67,6.67,0,0,1-1.36,4.2,20.1,20.1,0,0,1-1.72,1.6c2.28,2.46,3.41,4.52,3.41,6.17A3.61,3.61,0,0,1,1021,1162Zm-27.16-7.37a46.29,46.29,0,0,0-.3-7.64c-.14-.15-.35-.09-.63.15-.27,1.71-.46,3.1-.58,4.17a19.09,19.09,0,0,0-.21,3.2.52.52,0,0,0,.51.33,4.07,4.07,0,0,0,.62-.1A6,6,0,0,1,993.79,1154.64Zm7.65,7.92v0a2.17,2.17,0,0,1-1.79,1.81,6.69,6.69,0,0,1-1.57.18,4,4,0,0,1-2.41-.69,8.16,8.16,0,0,1-.79-1.15,4.59,4.59,0,0,1-.39-2,16.77,16.77,0,0,0-2.75.12c0,.18.08.46.12.82a5.47,5.47,0,0,1-.7,2.57,3,3,0,0,1-2.56,1.24,8.29,8.29,0,0,1-2-.31l-.06-.06c-1.71-.84-2.57-2.95-2.57-6.31,0-.22,0-.75.06-1.57a43.79,43.79,0,0,1,.88-7.43,18,18,0,0,1,3.2-6.83,6.12,6.12,0,0,1,5.17-2.33,6.64,6.64,0,0,1,5.47,2.27,7.9,7.9,0,0,1,1.54,3.11,45.1,45.1,0,0,1,1.66,11.21A28.54,28.54,0,0,1,1001.44,1162.56Zm-35.69-19.4h0a4.55,4.55,0,0,1,3.36-1.33,5.21,5.21,0,0,1,2.48.45,4,4,0,0,1,.93,2.75q-.18,1.48-.27,4c.24.89.6,1.33,1.09,1.33a2.28,2.28,0,0,0,.84-.27c.23-.1.4-.52.52-1.24q-.18-1.57-.24-4.32a3.57,3.57,0,0,1,2-2.72,4.92,4.92,0,0,1,1.78-.27,6.36,6.36,0,0,1,1.42.06,2.59,2.59,0,0,1,1.82,2c.1.34.21.69.33,1a8.65,8.65,0,0,1,.3,2q.18,4.23.18,6.35a35.94,35.94,0,0,1-1.54,9.85,3.11,3.11,0,0,1-2.66,2.11,2.8,2.8,0,0,1-2.23-.27,3.18,3.18,0,0,1-1.33-2.51,9.57,9.57,0,0,1,0-1.72,14.12,14.12,0,0,0,.08-1.72.91.91,0,0,0-1-.76,2,2,0,0,0-1.9,2.06c.1.4.24,1.12.42,2.14a3,3,0,0,1-.09,1.57,2.23,2.23,0,0,1-1.18,1.18,5.58,5.58,0,0,1-2,.24,3,3,0,0,1-2.3-1,6.6,6.6,0,0,1-1.27-2.69,18.25,18.25,0,0,1-.66-4.62q-.09-3.66-.09-6.26C964.58,1146.8,965,1144.31,965.75,1143.16Zm-2.84,14.29v.45c0,.2,0,.35,0,.43,0,2.94-1.11,4.93-3.35,6a9.43,9.43,0,0,1-4,.87,6.8,6.8,0,0,1-4.68-1.6q-3.81-3.35-3.78-9.42a32.65,32.65,0,0,1,.64-6.05,11.67,11.67,0,0,1,2.08-4.8,5.68,5.68,0,0,1,2.28-1.77,7.75,7.75,0,0,1,3.22-.68,7.17,7.17,0,0,1,3.73,1,7.43,7.43,0,0,1,2.71,2.8,5.13,5.13,0,0,1,.6,2.36,4,4,0,0,1-.6,2.26,2.91,2.91,0,0,1-2.18,1.54,4.13,4.13,0,0,1-3.75-1.9c0-.06-.06-.3-.12-.73s-.19-.47-.45-.45l-.3.55q-.3,6.4-.3,6.55c0,.59,0,1.16.06,1.72a1.18,1.18,0,0,0,.72,1.12,5.37,5.37,0,0,0,2.4-1.54c1.14-1,1.92-1.51,2.35-1.51a2.59,2.59,0,0,1,1,.21A2.37,2.37,0,0,1,962.91,1157.45Zm167.72-42.26h0a1,1,0,0,0-.3-.06,1.25,1.25,0,0,0-1,2c0,1.11,0,2.16,0,3.14a5.53,5.53,0,0,0,2-1.13,2.13,2.13,0,0,0,.8-1.55A3.36,3.36,0,0,0,1130.63,1115.19Zm8.64,14.08h0a6.25,6.25,0,0,1-1.42,1.84,4.73,4.73,0,0,1-2.63,1.33q-2.57.27-5.26-5.23a12.31,12.31,0,0,1,.09,1.36,4.49,4.49,0,0,1-.9,3,4.83,4.83,0,0,1-2.78,1,4.55,4.55,0,0,1-1.09-.12,4.31,4.31,0,0,1-2.33-1.15,5.42,5.42,0,0,1-.72-3.26v-1.21c-.06-.06,0-1.86.06-5.41a75.37,75.37,0,0,1,.69-9.15c.27-1.51,1.33-2.55,3.21-3.11a33,33,0,0,1,5.22-.79c3.09.1,5.2,1.13,6.35,3.08a13.13,13.13,0,0,1,1.27,5.38,6.77,6.77,0,0,1-1.36,4.2c-.14.18-.72.71-1.72,1.6q3.4,3.69,3.41,6.16A3.58,3.58,0,0,1,1139.27,1129.27Zm-19.22-17.19,0,0c.08.94.12,2,.12,3.17A36.28,36.28,0,0,1,1118,1128a7.77,7.77,0,0,1-1.8,2.79,5.93,5.93,0,0,1-2.55,1.65,16.84,16.84,0,0,1-2.42.18,9.62,9.62,0,0,1-5.62-1.57,7.79,7.79,0,0,1-3-4.2,19.3,19.3,0,0,1-.66-5.68,33.1,33.1,0,0,1,1-9.06,4,4,0,0,1,1.44-2,4.31,4.31,0,0,1,2.22-1,3.08,3.08,0,0,1,1.92.49,3.73,3.73,0,0,1,1.4,1.53,12.51,12.51,0,0,1,.09,1.54,33.9,33.9,0,0,1-.54,4.26,34.83,34.83,0,0,0-.54,4.2,9.41,9.41,0,0,0,.12,1.6,2.25,2.25,0,0,0,1,1,1.84,1.84,0,0,0,1.42-.24,3.91,3.91,0,0,0,1-2.24c0-1.37,0-3.13.09-5.29.2-1.73.33-2.79.39-3.2a13.58,13.58,0,0,1,.58-2.63,3,3,0,0,1,2.47-1.72,3.62,3.62,0,0,1,2.39,1A6.23,6.23,0,0,1,1120.05,1112.08Zm-28.34,12.9v0c.59-.1.88-1.22.88-3.36a16.48,16.48,0,0,0-.33-3.4c-.22-1-.47-1.57-.73-1.61-.44-.12-.84.36-1.21,1.45a11.41,11.41,0,0,0-.54,3.59C1089.78,1124.06,1090.42,1125.18,1091.71,1125Zm7.5,2.17,0,0a7.43,7.43,0,0,1-2.77,3.87,7.62,7.62,0,0,1-4.58,1.42,8.73,8.73,0,0,1-7.46-3.62,12.33,12.33,0,0,1-2.26-7.5,18.19,18.19,0,0,1,.36-3.74q1.67-7.89,7-8.89a5.56,5.56,0,0,1,1-.09,8.11,8.11,0,0,1,4.69,1.6,7.86,7.86,0,0,1,3.07,3.9,26,26,0,0,1,1.69,7.77,18.41,18.41,0,0,1-.87,5.25Zm-33.81-17.94h0a3.39,3.39,0,0,1,1.63-.4,2.85,2.85,0,0,1,2.69,1.48A7.61,7.61,0,0,1,1071,1113c.52,1.7.82,2.61.9,2.75q1.33-5.67,3.12-7.43a4.81,4.81,0,0,1,1.78-.33,3.26,3.26,0,0,1,2.26.75,3.87,3.87,0,0,1,1.61,3.48,18.89,18.89,0,0,1-1.55,5.41c-.5,1.12-1.34,2.79-2.53,5q0,1.31,0,3.84a10.17,10.17,0,0,1-.7,3.71,4.26,4.26,0,0,1-2.63,2.42,6.34,6.34,0,0,1-.69.06,3.42,3.42,0,0,1-3.36-1.9,9.88,9.88,0,0,1-.42-3.17c0-.63,0-1.21,0-1.76,0-.72,0-1.27,0-1.63q-4.95-8.46-5-12A3,3,0,0,1,1065.4,1109.21Zm-11.66,8.58a2.89,2.89,0,0,1,.09.93,3.38,3.38,0,0,1-1.3,2.69,3.21,3.21,0,0,1-2.54.88,2.41,2.41,0,0,0-.91,0,8.58,8.58,0,0,1-.21,1.93,1.16,1.16,0,0,0,.64,1.09,3.14,3.14,0,0,1,2,0,1.91,1.91,0,0,1,1.36,1.63,3.87,3.87,0,0,1-.76,2.65,7.4,7.4,0,0,1-2.5,2.25,6.69,6.69,0,0,1-3.36.81,7.17,7.17,0,0,1-3-.63,6.65,6.65,0,0,1-1.72-1.69q-1.24-2.05-1.27-8.68a62.37,62.37,0,0,1,.63-8.7c.27-1.89.81-3.12,1.64-3.68l5-.52a12.2,12.2,0,0,1,2.48-.27c1.57,0,2.5.39,2.78,1.18a3.08,3.08,0,0,1,.18,1.09,2.62,2.62,0,0,1-1,2.11,4,4,0,0,1-2.69.82,5.62,5.62,0,0,1-.66,0,3.94,3.94,0,0,0-.24,1.45c0,.84-.07,1.33-.09,1.45a.72.72,0,0,0,.63.54,3.47,3.47,0,0,1,2.21-.69A3.08,3.08,0,0,1,1053.74,1117.79Zm-25,8.49h0c.72-.18,1.1-.55,1.12-1.09a.83.83,0,0,0-.26-.57,13.09,13.09,0,0,0-1.92-1.3,14.37,14.37,0,0,1-2-1.48,8.23,8.23,0,0,1-1.6-2.3,8.62,8.62,0,0,1-.94-3.87,7,7,0,0,1,2.24-5.07,8,8,0,0,1,5.92-2.48,6.9,6.9,0,0,1,3.59.94,7.79,7.79,0,0,1,2.15,2.23,2.74,2.74,0,0,1,.51,1.36,3.23,3.23,0,0,1-.72,1.84l0,0a2.63,2.63,0,0,1-2,1.36,4.56,4.56,0,0,1-1-.15c-.65-.16-1-.72-1.12-1.69,0-.38-.34-.57-.88-.57a1.37,1.37,0,0,0-.75.21,2.39,2.39,0,0,0-.34,1.21,2.07,2.07,0,0,0,1,1.72q3.57,2.54,4.2,3.14a6.86,6.86,0,0,1,2.42,4.5c0,.39.05.9.09,1.54q.06,3.9-4.69,6.08a8.14,8.14,0,0,1-3.38.81,5,5,0,0,1-.66-.06l-.06,0q-5.81-.93-6.26-4.38c-.08-.52-.13-.89-.16-1.1s0-.28,0-.2a2.22,2.22,0,0,1,.48-1.42,1.41,1.41,0,0,1,1.09-.6,5.79,5.79,0,0,1,1.6.71,5,5,0,0,0,1.85.71,2.67,2.67,0,0,0,.51-.06Zm-15.65-1.3v0q.87-.15.87-3.36a16.48,16.48,0,0,0-.33-3.4c-.22-1-.46-1.57-.72-1.61-.45-.12-.85.36-1.21,1.45a11.41,11.41,0,0,0-.54,3.59C1011.17,1124.06,1011.81,1125.18,1013.1,1125Zm7.49,2.17,0,0a7.36,7.36,0,0,1-2.76,3.87,7.64,7.64,0,0,1-4.58,1.42,8.73,8.73,0,0,1-7.46-3.62,12.34,12.34,0,0,1-2.27-7.5,18.19,18.19,0,0,1,.36-3.74q1.67-7.89,7-8.89a5.72,5.72,0,0,1,1-.09,8.14,8.14,0,0,1,4.7,1.6,7.92,7.92,0,0,1,3.07,3.9,26.37,26.37,0,0,1,1.69,7.77,18.11,18.11,0,0,1-.88,5.25ZM993.46,1125v0c.58-.1.88-1.22.88-3.36a15.8,15.8,0,0,0-.34-3.4c-.22-1-.46-1.57-.72-1.61-.44-.12-.85.36-1.21,1.45a11.41,11.41,0,0,0-.54,3.59C991.53,1124.06,992.17,1125.18,993.46,1125Zm7.49,2.17,0,0a7.36,7.36,0,0,1-2.76,3.87,7.64,7.64,0,0,1-4.58,1.42,8.73,8.73,0,0,1-7.46-3.62,12.34,12.34,0,0,1-2.27-7.5,17.5,17.5,0,0,1,.37-3.74q1.65-7.89,7-8.89a5.72,5.72,0,0,1,1-.09,8.14,8.14,0,0,1,4.7,1.6,7.92,7.92,0,0,1,3.07,3.9,26.37,26.37,0,0,1,1.69,7.77,18.11,18.11,0,0,1-.88,5.25Zm-35.2-16.73h0a4.55,4.55,0,0,1,3.36-1.33,5.21,5.21,0,0,1,2.48.45,4,4,0,0,1,.93,2.75c-.12,1-.21,2.3-.27,4,.24.88.6,1.33,1.09,1.33a2.16,2.16,0,0,0,.84-.28c.23-.1.4-.51.52-1.23-.12-1-.2-2.49-.24-4.33a3.57,3.57,0,0,1,2-2.71,4.63,4.63,0,0,1,1.78-.28,6.36,6.36,0,0,1,1.42.06,2.62,2.62,0,0,1,1.82,2.06c.1.34.21.68.33,1a8.65,8.65,0,0,1,.3,2q.18,4.23.18,6.34a35.82,35.82,0,0,1-1.54,9.85,3.12,3.12,0,0,1-2.66,2.12,2.8,2.8,0,0,1-2.23-.27,3.2,3.2,0,0,1-1.33-2.51,9.57,9.57,0,0,1,0-1.72,14.19,14.19,0,0,0,.08-1.72.9.9,0,0,0-1-.76,1.94,1.94,0,0,0-1.9,2c.1.41.24,1.12.42,2.15a3,3,0,0,1-.09,1.57,2.27,2.27,0,0,1-1.18,1.18,5.58,5.58,0,0,1-2,.24,3,3,0,0,1-2.3-1,6.54,6.54,0,0,1-1.27-2.69,18.18,18.18,0,0,1-.66-4.62q-.09-3.66-.09-6.25Q964.58,1112.13,965.75,1110.42Zm-2.84,14.29v.45q0,.3,0,.42c0,2.94-1.11,4.94-3.35,6a9.3,9.3,0,0,1-4,.88,6.8,6.8,0,0,1-4.68-1.6q-3.81-3.36-3.78-9.43a32.64,32.64,0,0,1,.64-6,11.67,11.67,0,0,1,2.08-4.8,5.6,5.6,0,0,1,2.28-1.77,7.75,7.75,0,0,1,3.22-.68,7.17,7.17,0,0,1,3.73,1,7.43,7.43,0,0,1,2.71,2.8,5.12,5.12,0,0,1,.6,2.35,4.07,4.07,0,0,1-.6,2.27,2.91,2.91,0,0,1-2.18,1.54,4.13,4.13,0,0,1-3.75-1.9c0-.06-.06-.31-.12-.73s-.19-.47-.45-.45l-.3.54q-.3,6.4-.3,6.56c0,.58,0,1.16.06,1.72a1.19,1.19,0,0,0,.72,1.12,5.47,5.47,0,0,0,2.4-1.54c1.14-1,1.92-1.51,2.35-1.51a2.59,2.59,0,0,1,1,.21A2.37,2.37,0,0,1,962.91,1124.71Zm-25.46-26.4h369.41v109.52H937.45Z" style="fill:#fff;fill-rule:evenodd"/></g></g></svg>