<?xml version="1.0" encoding="UTF-8"?>
<svg width="1160px" height="633px" viewBox="0 0 1160 633" version="1.1" xmlns="http://www.w3.org/2000/svg" xmlns:xlink="http://www.w3.org/1999/xlink">
    <!-- Generator: Sketch 56.3 (81716) - https://sketch.com -->
    <title>ill__week--2-2</title>
    <desc>Created with Sketch.</desc>
    <defs>
        <filter x="-11.5%" y="-11.9%" width="122.8%" height="123.7%" filterUnits="objectBoundingBox" id="filter-1">
            <feOffset dx="0" dy="5" in="SourceAlpha" result="shadowOffsetOuter1"></feOffset>
            <feGaussianBlur stdDeviation="7" in="shadowOffsetOuter1" result="shadowBlurOuter1"></feGaussianBlur>
            <feColorMatrix values="0 0 0 0 0.0062833811   0 0 0 0 0.0133333518   0 0 0 0 0.0214277627  0 0 0 0.368771853 0" type="matrix" in="shadowBlurOuter1" result="shadowMatrixOuter1"></feColorMatrix>
            <feMerge>
                <feMergeNode in="shadowMatrixOuter1"></feMergeNode>
                <feMergeNode in="SourceGraphic"></feMergeNode>
            </feMerge>
        </filter>
        <linearGradient x1="50%" y1="138.080853%" x2="50%" y2="-93.1348022%" id="linearGradient-2">
            <stop stop-color="#00CBFE" offset="0%"></stop>
            <stop stop-color="#057A97" offset="100%"></stop>
        </linearGradient>
        <linearGradient x1="50%" y1="126.319556%" x2="50%" y2="-93.1348022%" id="linearGradient-3">
            <stop stop-color="#00CBFE" offset="0%"></stop>
            <stop stop-color="#057A97" offset="100%"></stop>
        </linearGradient>
    </defs>
    <g id="ill__week--2-2" stroke="none" stroke-width="1" fill="none" fill-rule="evenodd">
        <g id="Group" transform="translate(1.000000, 2.000000)">
            <g id="Group-49" filter="url(#filter-1)" transform="translate(675.000000, 260.718476)">
                <g id="flamingo" transform="translate(162.500000, 158.000000) scale(-1, 1) translate(-162.500000, -158.000000) ">
                    <polygon id="Clip-2" points="1 198.132455 317.696117 198.132455 317.696117 315.999727 1 315.999727"></polygon>
                    <path d="M244.400793,206.802867 C223.598126,171.766247 187.62444,129.30931 178.868919,89.4595927 C165.192498,27.2129769 222,-1.16573418e-14 251.134167,0.45377935 C280.268333,0.9075587 311.18004,15.7419427 322.132965,53.2739481 C333.08589,90.8059535 292.641042,121.908474 283.986856,124.502333 C278.2174,126.231572 275.332671,125.192836 275.332671,121.386126 C276.350658,105.963026 275.45068,92.0114184 272.632736,79.5313027 C268.405821,60.8111291 257.240224,56.2036961 246.295015,60.8245503 C235.349806,65.4454046 236.480291,82.4954049 239.496291,89.4595927 C249.743292,113.120748 308.794502,162 316.927723,212.132455 C318.617322,222.546999 320.256848,237.811549 317.686904,252.984338 C317.693041,253.185576 317.696117,253.387071 317.696117,253.588818 C317.696117,297.980636 246.802893,315.999727 159.349152,315.999727 C71.8954103,315.999727 0.999453448,297.230636 0.999453448,253.588818 C0.999453448,222.961545 71.8954103,198.132455 159.349152,198.132455 C190.651921,198.132455 219.832996,201.313498 244.400801,206.802868 Z" id="Combined-Shape" stroke="#163150" stroke-width="2" fill="#E7A3A2"></path>
                    <g id="eye" transform="translate(257.000000, 12.000000)">
                        <ellipse id="Oval" stroke="#163150" stroke-width="1.8" fill="#FFFFFF" cx="6.00746269" cy="5.98930481" rx="6.00746269" ry="5.98930481"></ellipse>
                        <ellipse id="Oval" fill="#2A455F" cx="6.00746269" cy="5.98930481" rx="3.60447761" ry="3.59358289"></ellipse>
                        <ellipse id="Oval-Copy-16" fill="#FFFFFF" cx="4.20522388" cy="4.19251337" rx="1.80223881" ry="1.79679144"></ellipse>
                    </g>
                </g>
                <path d="M246,230.405205 C246,220.792766 209.96036,213 165.498635,213 C121.042371,213 85,220.792766 85,230.405205 C85,244.105785 121.042371,250 165.498635,250 C209.96036,250 246,244.342424 246,230.405205" id="Fill-4" stroke="#163150" stroke-width="2" fill="#B698FF" transform="translate(165.500000, 231.500000) scale(-1, 1) translate(-165.500000, -231.500000) "></path>
                <path d="M164.897092,250 C186.688972,250 206.455615,248.682474 221,245.761119 C206.461103,242.818557 186.702693,241 164.897092,241 C143.195771,241 123.522432,242.8 109,245.718704 C123.52792,248.640059 143.206748,250 164.897092,250" id="Fill-6" stroke="#163150" stroke-width="2" fill="#9165FF" stroke-linecap="round" stroke-linejoin="round" transform="translate(165.000000, 245.500000) scale(-1, 1) translate(-165.000000, -245.500000) "></path>
                <path d="M167.021657,296 C165.169017,296.002649 163.316376,295.92915 161.452821,295.776706 C157.035405,295.414653 153.485647,292.997332 152.620717,289.760628 C151.965881,287.32153 152.522492,283.488662 158.87986,279.114075 C162.028531,276.947198 165.002579,275.036209 167.867488,273.337551 C159.851201,275.308429 151.690304,276.710366 143.485752,277.524306 C128.713738,278.977965 104.703076,277.279307 103.085085,266.512977 C101.843625,258.267412 114.160003,252.387444 141.845933,248.015579 C142.541696,247.906691 143.191076,248.380355 143.300215,249.069073 C143.409354,249.760514 142.937327,250.408399 142.244292,250.52001 C117.325045,254.453599 104.653964,259.857181 105.598019,266.134591 C106.814923,274.227713 128.238982,276.484423 143.234731,274.998098 C155.499268,273.789438 167.662851,271.236007 179.387148,267.419473 C180.033799,267.204418 180.724105,267.53925 180.966941,268.170802 C181.207047,268.805076 180.909642,269.515572 180.290276,269.785071 C174.003849,272.523611 167.657394,276.149591 160.3205,281.199286 C156.309628,283.959604 154.448802,286.768922 155.073625,289.11002 C155.643878,291.244231 158.416018,292.983721 161.660186,293.250498 C194.112778,295.896483 225.192942,273.411051 233.94592,266.453089 C234.48616,266.025702 235.263778,266.101924 235.711249,266.62731 C236.150535,267.149974 236.095966,267.931248 235.580282,268.385856 C230.068744,273.283107 225.525817,279.065075 222.08247,285.571151 C221.34578,286.964921 220.573618,288.731634 221.1466,290.043738 C222.259822,292.591724 227.091967,291.511007 228.046937,291.271453 C249.400055,285.856983 268.461246,273.209607 281.713494,255.654093 C282.141866,255.090596 282.935855,254.987152 283.495195,255.403649 C284.054534,255.822869 284.166402,256.617754 283.743487,257.175806 C270.141992,275.194097 250.586946,288.173581 228.674488,293.726884 C223.776859,294.962766 220.087948,293.971883 218.816475,291.059121 C217.809664,288.753411 218.832845,286.284369 219.834199,284.386991 C221.427634,281.381674 223.244805,278.523356 225.277525,275.828371 C212.10986,284.495879 190.254701,296 167.021657,296" id="Fill-17" fill="#163150" transform="translate(193.500000, 272.000000) scale(-1, 1) translate(-193.500000, -272.000000) "></path>
                <path d="M7.30388276,89.4799008 L49.6091739,100.108354 L49.6091739,119.271499 C49.7989725,126.245944 46.9336291,127.989555 41.0131435,124.502333 C37.4302892,122.391997 29.3664936,118.089103 21.890022,109.982317 C18.6380088,106.456138 13.7759624,99.6219995 7.30388276,89.4799008 Z" id="Path-130" fill="#163150"></path>
                <path d="M6.79957199,89.4799008 L49.6180172,99.3395011 C50.7240911,84.4435035 52.5361886,74.9622084 55.0543098,70.8956159 C55.7117623,54.6459598 30.133328,30.2045509 11.1111477,34.242112 C-0.723140771,55.7694078 -2.16033267,74.1820041 6.79957199,89.4799008 Z" id="Path-131" stroke="#163150" stroke-width="2" fill="#A682FF"></path>
                <path d="M24.4123702,285.664435 C18.3367023,281.361346 14.3928814,277.262413 12.5809075,273.367635 C3.2458097,253.302153 6.72176202,227.019056 9.09384299,212.397758 C14.4786003,179.206588 42.1825483,146.564742 63.2654133,121.427046 C45.6438726,145.896576 25.5760202,178.583103 19.380235,216.930448 C16.6207895,234.009382 13.9743528,262.078953 24.4123702,285.664435 Z M85.8705683,91.1383212 C86.106885,90.6577002 86.3253675,90.1864991 86.5252752,89.724896 C89.541275,82.7607083 90.6717595,65.7107079 79.7265505,61.0898537 C68.7813415,56.4689994 57.6157442,61.0764325 53.3888292,79.796606 C50.5708859,92.2767218 49.6709077,106.228329 50.6888946,121.651429 C50.6888946,124.504557 49.0683997,125.802776 45.8274098,125.546086 C35.5401987,100.74936 31.9684722,82.6833473 35.1122305,71.3480491 C40.0513642,53.5392515 46.3585996,43.6092893 63.8585132,43.6092893 C81.3584268,43.6092893 98.6236236,72.4590917 87.4500292,88.8698463 C86.9515281,89.6019993 86.4243592,90.3582644 85.8705683,91.1383212 Z" id="Combined-Shape" fill="#9165FF" style="mix-blend-mode: darken;" opacity="0.415132068"></path>
            </g>
            <g id="krak-2" transform="translate(1049.851290, 112.000000) rotate(-10.000000) translate(-1049.851290, -112.000000) translate(957.851290, 15.000000)">
                <g id="krak" transform="translate(91.668048, 96.758018) rotate(54.000000) translate(-91.668048, -96.758018) translate(13.168048, 40.758018)">
                    <path d="M129.205142,61.2092643 C90.9726521,41.0395507 73.3715217,-2.17602549 37.1535786,0.0854259716 C13.0082832,1.59306028 0.623757029,14.577181 -6.39488462e-13,39.037788 C14.1646462,33.6673601 23.8980709,32.6583802 29.200274,36.0108484 C37.1535786,41.0395507 57.4531261,72.7550677 68.1991414,88.2246299 C78.9451566,103.694192 111.272044,116.983816 119.85778,108.876672 C126.679906,102.43483 156.767953,75.6561618 156.679452,59.9151189 C154.770645,56.2714641 135.875072,64.2286929 129.205142,61.2092643 Z" id="Path-188" stroke="#163150" stroke-width="1.6" fill="#A682FF" stroke-linejoin="round"></path>
                    <path d="M42.6105695,13.1301463 C29.1009571,5.07476422 14.897434,13.7106448 1.13686838e-13,39.037788 C14.1646462,33.6673601 23.8980709,32.6583802 29.200274,36.0108484 C37.1535786,41.0395507 57.4531261,72.7550677 68.1991414,88.2246299 C78.9451566,103.694192 110.510418,114.059153 119.85778,108.876672 C124.014868,104.59649 131.209747,99.2779444 135.082813,93.1929336 C68.9585069,98.475332 62.8749881,25.2132194 42.6105695,13.1301463 Z" id="Path-188" fill="#9165FF"></path>
                    <g id="Group-7-Copy-4" transform="translate(106.899939, 100.396510) rotate(-2.000000) translate(-106.899939, -100.396510) translate(98.399939, 94.396510)" fill="#532CB2" stroke="#163150">
                        <ellipse id="Oval-Copy-19" stroke-width="1.19000794" transform="translate(8.398080, 5.511240) rotate(-77.000000) translate(-8.398080, -5.511240) " cx="8.39808" cy="5.51124" rx="3.67416" ry="7.61076"></ellipse>
                        <ellipse id="Oval-Copy-19" stroke-width="0.665127936" transform="translate(8.398080, 6.036120) rotate(-77.000000) translate(-8.398080, -6.036120) " cx="8.39808" cy="6.03612" rx="3.67416" ry="7.61076"></ellipse>
                    </g>
                    <g id="Group-7-Copy-5" transform="translate(80.373967, 87.009808) rotate(30.000000) translate(-80.373967, -87.009808) translate(72.873967, 81.509808)" fill="#532CB2" stroke="#163150">
                        <ellipse id="Oval-Copy-19" stroke-width="1.05778483" transform="translate(7.464960, 4.898880) rotate(-77.000000) translate(-7.464960, -4.898880) " cx="7.46496" cy="4.89888" rx="3.26592" ry="6.76512"></ellipse>
                        <ellipse id="Oval-Copy-19" stroke-width="0.591224832" transform="translate(7.464960, 5.365440) rotate(-77.000000) translate(-7.464960, -5.365440) " cx="7.46496" cy="5.36544" rx="3.26592" ry="6.76512"></ellipse>
                    </g>
                    <g id="Group-7-Copy-6" transform="translate(63.005633, 67.482800) rotate(46.000000) translate(-63.005633, -67.482800) translate(56.005633, 62.482800)" fill="#532CB2" stroke="#163150">
                        <ellipse id="Oval-Copy-19" stroke-width="0.952006349" transform="translate(6.718464, 4.408992) rotate(-77.000000) translate(-6.718464, -4.408992) " cx="6.718464" cy="4.408992" rx="2.939328" ry="6.088608"></ellipse>
                        <ellipse id="Oval-Copy-19" stroke-width="0.532102349" transform="translate(6.718464, 4.828896) rotate(-77.000000) translate(-6.718464, -4.828896) " cx="6.718464" cy="4.828896" rx="2.939328" ry="6.088608"></ellipse>
                    </g>
                    <g id="Group-7-Copy-7" transform="translate(50.938636, 47.669466) rotate(46.000000) translate(-50.938636, -47.669466) translate(44.938636, 43.169466)" fill="#532CB2" stroke="#163150">
                        <ellipse id="Oval-Copy-19" stroke-width="0.856805714" transform="translate(6.046618, 3.968093) rotate(-77.000000) translate(-6.046618, -3.968093) " cx="6.0466176" cy="3.9680928" rx="2.6453952" ry="5.4797472"></ellipse>
                        <ellipse id="Oval-Copy-19" stroke-width="0.5" transform="translate(6.046618, 4.346006) rotate(-77.000000) translate(-6.046618, -4.346006) " cx="6.0466176" cy="4.3460064" rx="2.6453952" ry="5.4797472"></ellipse>
                    </g>
                    <g id="Group-7-Copy-9" transform="translate(38.330534, 30.328066) rotate(46.000000) translate(-38.330534, -30.328066) translate(32.830534, 26.328066)" fill="#532CB2" stroke="#163150">
                        <ellipse id="Oval-Copy-19" stroke-width="0.771125143" transform="translate(5.441956, 3.571284) rotate(-77.000000) translate(-5.441956, -3.571284) " cx="5.44195584" cy="3.57128352" rx="2.38085568" ry="4.93177248"></ellipse>
                        <ellipse id="Oval-Copy-19" stroke-width="0.5" transform="translate(5.441956, 3.911406) rotate(-77.000000) translate(-5.441956, -3.911406) " cx="5.44195584" cy="3.91140576" rx="2.38085568" ry="4.93177248"></ellipse>
                    </g>
                    <g id="Group-7-Copy-8" transform="translate(20.913270, 25.807205) rotate(-33.000000) translate(-20.913270, -25.807205) translate(15.913270, 22.307205)" fill="#532CB2" stroke="#163150">
                        <ellipse id="Oval-Copy-19" stroke-width="0.685444571" transform="translate(4.837294, 3.174474) rotate(-77.000000) translate(-4.837294, -3.174474) " cx="4.83729408" cy="3.17447424" rx="2.11631616" ry="4.38379776"></ellipse>
                        <ellipse id="Oval-Copy-19" stroke-width="0.5" transform="translate(4.837294, 3.476805) rotate(-77.000000) translate(-4.837294, -3.476805) " cx="4.83729408" cy="3.47680512" rx="2.11631616" ry="4.38379776"></ellipse>
                    </g>
                    <path d="M129.205142,61.2092643 C95.7303809,44.7039084 73.3715217,-2.17602549 37.1535786,0.0854259716 C13.0082832,1.59306028 0.623757029,14.577181 2.4158453e-13,39.037788 C14.1646462,33.6673601 23.8980709,32.6583802 29.200274,36.0108484 C37.1535786,41.0395507 57.4531261,72.7550677 68.1991414,88.2246299 C78.9451566,103.694192 114.107971,116.790606 119.85778,108.876672 C124.589763,102.363657 154.679832,81.3326584 156.679059,59.9151189 C154.609606,56.6932377 135.130814,64.1310276 129.205142,61.2092643 Z" id="Path-188" stroke="#163150" stroke-width="1.6" stroke-linejoin="round"></path>
                </g>
            </g>
            <path d="M1030.95103,176.507858 C1027.22369,179.315723 1029.71338,181.487475 1038.42009,183.023115" id="Path-225" stroke="#163150" stroke-width="2" stroke-linecap="round"></path>
            <path d="M1038,188.142071 C1050.23737,193.342041 1090.40789,188.895121 1098.33312,180.647201" id="Path-224" stroke="#163150" stroke-width="2" stroke-linecap="round"></path>
            <path d="M562.5,509.718476 C616.457436,473.286549 703.395663,465.202858 703.395663,533.122734 C688.13848,520.621824 657.116451,515.595357 661.013278,546.269482 C664.910104,576.943606 726.585791,567.394662 769.585791,550.474021 C812.585791,533.553381 807.817277,588.643329 906.585791,564.469434 C972.431467,548.353504 1038.06954,558.545456 1103.5,595.04529 L562,590.828727 C562.387239,551.006613 562.553905,523.969863 562.5,509.718476 Z" id="Path-60-Copy-2" fill="url(#linearGradient-2)" transform="translate(832.750000, 538.560339) scale(-1, 1) translate(-832.750000, -538.560339) "></path>
            <path d="M562,509.718476 L562,509.718476 C615.957436,473.286549 702.895663,465.202858 702.895663,533.122734 C687.63848,520.621824 656.616451,515.595357 660.513278,546.269482 C664.410104,576.943606 726.085791,567.394662 769.085791,550.474021 C812.085791,533.553381 807.317277,588.643329 906.085791,564.469434 C971.931467,548.353504 1037.56954,558.545456 1103,595.04529" id="Path" stroke="#163150" stroke-width="2" stroke-linecap="round" stroke-linejoin="round" transform="translate(832.500000, 538.560339) scale(-1, 1) translate(-832.500000, -538.560339) "></path>
            <path d="M359.47635,544.643088 C413.433786,508.211161 500.372013,500.12747 500.372013,568.047346 C485.11483,555.546436 454.092801,550.519969 457.989628,581.194094 C461.886454,611.868218 523.562141,602.319274 566.562141,585.398633 C609.562141,568.477993 604.793627,623.567941 703.562141,599.394046 C769.407817,583.278116 835.045887,593.470068 900.47635,629.969902 L0,620.157159 C54.4830718,566.594308 121.017388,555.785734 199.602948,587.731436 C215.866239,594.342603 284.41908,605.636787 298.729665,597.719704 C303.041559,595.334224 311.992619,591.071507 309.054306,580.814236 C306.115992,570.556965 291.036682,570.556965 282.729919,573.484951 C288.97635,513.119102 352.686703,530.690248 359.47635,544.643088 Z" id="Path-60-Copy-4" fill="url(#linearGradient-3)"></path>
            <path d="M0,620.157159 C54.4830718,566.594308 121.017388,555.785734 199.602948,587.731436 C215.866239,594.342603 284.41908,605.636787 298.729665,597.719704 C303.041559,595.334224 311.992619,591.071507 309.054306,580.814236 C306.115992,570.556965 291.036682,570.556965 282.729919,573.484951 C288.97635,513.119102 352.686703,530.690248 359.47635,544.643088 L359.47635,544.643088 C413.433786,508.211161 500.372013,500.12747 500.372013,568.047346 C485.11483,555.546436 454.092801,550.519969 457.989628,581.194094 C461.886454,611.868218 523.562141,602.319274 566.562141,585.398633 C609.562141,568.477993 604.793627,623.567941 703.562141,599.394046 C769.407817,583.278116 835.045887,593.470068 900.47635,629.969902" id="Path-Copy" stroke="#163150" stroke-width="2" stroke-linecap="round" stroke-linejoin="round"></path>
        </g>
    </g>
</svg>