<svg id="Layer_1" data-name="Layer 1" xmlns="http://www.w3.org/2000/svg" xmlns:xlink="http://www.w3.org/1999/xlink" viewBox="0 0 864.51 806.65"><defs><linearGradient id="linear-gradient" x1="1709.14" y1="-750.04" x2="1709.14" y2="-748.17" gradientTransform="translate(553505.25 -186046.14) rotate(180) scale(323.87 248.89)" gradientUnits="userSpaceOnUse"><stop offset="0" stop-color="#f4d57a"/><stop offset="1" stop-color="#e3edff"/></linearGradient><linearGradient id="linear-gradient-2" x1="1707.47" y1="-747.49" x2="1707.47" y2="-745.62" gradientTransform="translate(805923.4 -300869.94) rotate(180) scale(472.02 403.92)" xlink:href="#linear-gradient"/><linearGradient id="linear-gradient-3" x1="1709.12" y1="-751.07" x2="1709.12" y2="-749.2" gradientTransform="translate(570644.62 -162798.02) rotate(180) scale(333.81 217.41)" xlink:href="#linear-gradient"/><linearGradient id="linear-gradient-4" x1="1707.67" y1="-746.76" x2="1707.69" y2="-745.89" gradientTransform="translate(784877.76 -293373.75) rotate(180) scale(459.51 393.65)" xlink:href="#linear-gradient"/></defs><title>week__bg--3-1</title><g id="ship"><g id="ship-2" data-name="ship"><g id="Group-57"><g id="Path-77-Copy"><path d="M172.36,663.94,170,313.79,131.16,331.2l2.14,324q11-19.39,15.54,8.77Q161.84,668.13,172.36,663.94Z" style="fill:#9f6634;fill-rule:evenodd"/><path d="M161.22,667.07a41.07,41.07,0,0,1-12.67-2.14l-.59-.19-.1-.63c-2.09-13.07-4.83-15.49-6.27-15.77s-3.7.8-7.43,7.36l-1.83,3.22-2.18-328.41L171,312.21l2.41,352.44-.65.26A30.77,30.77,0,0,1,161.22,667.07Zm-11.49-3.94c7.91,2.44,15.18,2.47,21.63.08L169,315.36l-36.82,16.52,2.12,319.79c2.78-4.08,5.31-5.85,7.68-5.39C145.47,647,147.94,652.33,149.73,663.13Z" style="fill:#163150"/></g><g id="Group-55"><g id="Group-54"><g id="Path-87"><path d="M-166.83,206.09a2.75,2.75,0,0,1-2.3-1.23,2.76,2.76,0,0,1,.77-3.82c39.27-26,87.59-38.45,143.6-36.82,40.47,1.18,84.33,9.4,134.09,25.15a2.76,2.76,0,0,1-1.66,5.26C58.4,179,15,170.89-24.92,169.73c-54.85-1.59-102.09,10.49-140.39,35.9A2.68,2.68,0,0,1-166.83,206.09Z" style="fill:#163150"/></g><g id="Path-82"><path d="M41.54,175.72c-17.93-5.37-140.46-26.29-208.37,27.62,26.23,16.72,56.39,56.55,47.52,159.8Q45.17,349.63,82.74,334.86,103.91,239.43,41.54,175.72Z" style="fill-rule:evenodd;fill:url(#linear-gradient)"/><path d="M-120.6,364.43l.12-1.39c4-46.09.41-83.71-10.53-111.82-8.12-20.87-20.39-36.64-36.46-46.89l-1.39-.89,1.29-1C-100,148.79,22.2,168.69,41.88,174.58l.29.09.21.22c20.84,21.29,34.89,45.57,41.78,72.17s6.79,56.21-.27,88.05l-.13.62-.59.23c-25,9.84-93.13,19.38-202.38,28.35Zm-44.21-161.18c15.83,10.53,27.93,26.37,36,47.11,11,28.17,14.59,65.67,10.8,111.48C-10.65,353,56.54,343.62,81.73,334c6.84-31.25,6.89-60.29.14-86.34s-20.54-50-41-70.89C20.67,170.86-98.11,151.76-164.81,203.25Z" style="fill:#163150"/></g></g><g id="Path-85"><path d="M-165.45,623.3a2.76,2.76,0,0,1-2.18-1.07,2.76,2.76,0,0,1,.49-3.87c27.74-21.46,59.61-38.46,94.72-50.51a406.62,406.62,0,0,1,92.84-19.73c55-5.32,101.22.6,118,4.46a2.76,2.76,0,0,1-1.24,5.37c-16.44-3.8-61.87-9.6-116.19-4.34a401.28,401.28,0,0,0-91.58,19.45c-34.54,11.86-65.87,28.56-93.14,49.66A2.72,2.72,0,0,1-165.45,623.3Z" style="fill:#163150"/></g><g id="Path-86"><path d="M-213.85,348.41a2.75,2.75,0,0,1-2.35-1.32,2.75,2.75,0,0,1,.92-3.78C-183.71,324-138.84,311-81.94,304.57c56.67-6.4,127-6.44,208.91-.13a2.75,2.75,0,0,1-.43,5.49c-81.6-6.28-151.53-6.24-207.86.12-56.1,6.34-100.21,19.11-131.09,38A2.8,2.8,0,0,1-213.85,348.41Z" style="fill:#163150"/></g><g id="Path-81"><path d="M137.76,555.27c-18-5.8-174.6-31.25-303.21,65.27,61.06-127.89,15.85-228.16-48.4-274.88,88.37-57,294.24-47.4,356.41-27.91C169.41,363.79,155.9,519.73,137.76,555.27Z" style="fill-rule:evenodd;fill:url(#linear-gradient-2)"/><path d="M-164.74,621.48l-1.78-1.45c14.52-30.4,23.64-60.67,27.13-90a213.47,213.47,0,0,0-4.42-77.12c-10.79-43.24-35.91-81-70.73-106.33l-1.4-1,1.45-.94c52.12-33.61,140.55-41.26,188.63-42.82a803.5,803.5,0,0,1,99,2.86c29.11,2.72,53.88,7,69.73,11.92l.44.14.23.4c17,29.19,15.9,96,14.63,123.34-2.33,50.08-10.31,97.5-19.4,115.31l-.46.89-1-.31c-7.37-2.37-50-10.84-109.66-5.68A404.73,404.73,0,0,0-66,569.92,349.59,349.59,0,0,0-164.74,621.48Zm-47-275.75c34.55,25.64,59.47,63.44,70.25,106.64a215.9,215.9,0,0,1,4.46,78c-3.35,28.19-11.87,57.26-25.35,86.47a352.65,352.65,0,0,1,95.68-49.12,406.14,406.14,0,0,1,94.25-19.33c57.77-5,99.9,2.76,109.61,5.49,17.57-36.47,30.85-189.12,4.62-235.11C101.65,306.31,26.89,302.48-25.78,304.2-73.17,305.74-159.94,313.2-211.76,345.73Z" style="fill:#163150"/></g></g><g id="Group-53"><g id="Group-59"><g id="Group-24"><g id="Path-67"><path d="M110.63,72.1c-4-9.18-5.78-35.54,1.62-41.3s-3.39-14.22-21-10-15.36,3.93-25.92,5.42q-10.58,1.49-17.16.64L45.74,40.15l5.17,5.94-7.47,1q-3.61,31.73.78,34.3C48.62,84,114.61,81.28,110.63,72.1Z" style="fill:#163150;fill-rule:evenodd"/><path d="M55.83,83c-6.06,0-10.73-.3-11.94-1-2-1.19-4.4-6.12-1.11-34.95l.06-.51,6.76-.95L45,40.34l2.65-14.2.62.08c4.32.55,10,.34,17-.64A123.9,123.9,0,0,0,83.62,22l7.51-1.82c12-2.91,21.48.06,23.67,4.6,1.09,2.25.31,4.64-2.14,6.54-3.09,2.41-4.84,9.27-4.82,18.85,0,8.19,1.42,17.1,3.4,21.67a2.76,2.76,0,0,1-1,3.36c-5,4.45-25.94,6.41-34.7,7C69,82.73,61.73,83,55.83,83ZM44.05,47.73c-3,26.79-1,32.26.51,33.13,3.48,2,57,.25,64.81-6.66.92-.82.83-1.41.65-1.83h0c-4.12-9.5-5.93-36.06,1.82-42.1,1.94-1.51,2.56-3.25,1.76-4.91-1.92-4-10.93-6.6-22.15-3.89L83.93,23.3a125.35,125.35,0,0,1-18.47,3.6,69.66,69.66,0,0,1-16.71.71L46.45,40l5.77,6.63Z" style="fill:#163150"/></g><g id="Group-58"><polygon id="Path-98" points="75.58 59.81 73.83 47.25 61.87 54.39 75.58 59.81" style="fill:#9165ff;fill-rule:evenodd"/><polygon id="Path-99" points="73.88 47.6 71.74 32.37 61.9 54.66 73.88 47.6" style="fill:#a682ff;fill-rule:evenodd"/><polygon id="Path-101" points="86.98 51.05 73.88 47.58 75.6 59.81 86.98 51.05" style="fill:#7f51f0;fill-rule:evenodd"/><polygon id="Path-102" points="86.99 51.13 71.74 32.37 73.88 47.6 86.99 51.13" style="fill:#8757ff;fill-rule:evenodd"/><polygon id="Path-103" points="87.32 53.44 75.83 62.38 62.57 56.92 77.19 72.06 87.32 53.44" style="fill:#8757ff;fill-rule:evenodd"/><polygon id="Path-104" points="75.95 62.36 62.57 56.92 77.32 72.04 75.95 62.36" style="fill:#7855ce;fill-rule:evenodd"/></g><g id="Path-96"><path d="M114,101a6.67,6.67,0,0,1-6.59-5.74c-.16-1.18-.51-3.64-.75-77.67a6.67,6.67,0,0,1,6.64-6.69h0A6.66,6.66,0,0,1,120,17.49c.2,62,.49,74.23.64,76a6.67,6.67,0,0,1-5.69,7.43A6,6,0,0,1,114,101Z" style="fill:#9f6634"/></g></g></g><g id="Path-87-Copy"><path d="M-7.19,120.36A2.74,2.74,0,0,1-9.57,119a2.74,2.74,0,0,1,1-3.76c31.06-18.07,70.51-28,114.06-28.77a349,349,0,0,1,114.45,17.83,2.76,2.76,0,0,1-1.76,5.23A343.44,343.44,0,0,0,105.58,92C63,92.7,24.45,102.39-5.8,120A2.81,2.81,0,0,1-7.19,120.36Z" style="fill:#163150"/></g><g id="Path-83"><path d="M209,101.93C183.75,94,55.32,68-7.19,117.61,30,145.83,48.94,217.24,48.94,252.87c51.19-2.91,154.11-10.4,200.52,6.32C270,220.79,234.33,109.82,209,101.93Z" style="fill-rule:evenodd;fill:url(#linear-gradient-3)"/><path d="M250,260.64l-1-.34c-43-15.49-134.27-10.12-188.81-6.91L49,254.05l-1.25.07v-1.25c0-37.64-19.82-107.13-55.66-134.32l-1.21-.92,1.19-.95C54.31,67.32,181.3,92,209.4,100.8c8.84,2.76,19.3,17.51,28.71,40.46,15.93,38.85,25.69,93.58,12.4,118.48Zm-95.57-13.17c36.34,0,71.68,2.36,94.43,10.26,5.58-11.26,7-29.25,4-52.14a265.18,265.18,0,0,0-16.93-63.43c-9-22-19.19-36.59-27.24-39.1-14.87-4.64-53.5-12.45-93.84-13.66C78.11,88.29,27.67,92.33-5.27,117.61c35.29,28,55,96.05,55.39,134l10-.58C86.24,249.5,120.78,247.47,154.46,247.47Z" style="fill:#163150"/></g></g><g id="Group-56"><g id="Path-84"><path d="M-17.58,257.15a2.76,2.76,0,0,1-2.4-1.39A2.76,2.76,0,0,1-19,252c67.26-38.58,138.75-55.27,212.48-49.63,59.22,4.54,104,22.55,123,30.25,1.9.76,3.56,1.43,5,2a2.76,2.76,0,0,1-2,5.14c-1.44-.56-3.12-1.24-5-2-18.86-7.6-63-25.39-121.41-29.86-72.61-5.57-143,10.89-209.31,48.91A2.77,2.77,0,0,1-17.58,257.15Z" style="fill:#163150"/></g><g id="Path-84-Copy"><path d="M48.78,514.24a2.76,2.76,0,0,1-1.38-5.15c.72-.41,2-1.22,3.72-2.34A414.71,414.71,0,0,1,157,457.83C227.42,436.65,299.53,435,371.32,453A2.76,2.76,0,1,1,370,458.3c-70.82-17.7-142-16.08-211.41,4.81A408.58,408.58,0,0,0,54.1,511.39c-1.81,1.16-3.12,2-4,2.48A2.7,2.7,0,0,1,48.78,514.24Z" style="fill:#163150"/></g><g id="Path-80"><path d="M349.57,449.11c6.07-36.24,16.48-153.55-39.47-214.47-88.34-48-222.52-41.57-317.29,16.12,65.93,79.07,70.06,218.92,56.13,261.7C155.13,443.42,243.67,435.47,349.57,449.11Z" style="fill-rule:evenodd;fill:url(#linear-gradient-4)"/><path d="M46.79,515.27l1-3.18c6.38-19.59,9.68-64.46,1.84-116.7C43.43,353.88,28.35,295.22-8.1,251.51l-.87-1,1.17-.71c45.93-28,103.32-45,161.61-47.88s113.88,8.36,156.86,31.74l.17.09.13.14c24.23,26.39,38.8,65.81,43.3,117.19,3.27,37.36.32,75.27-3.54,98.28l-.19,1.12-1.12-.14C247.88,437.21,158,442.94,49.59,513.45ZM-5.41,251.06c20.2,24.59,46.2,69.32,57.4,144,7.51,50,4.84,93.48-1,114.69,107.45-69,196.85-74.78,297.6-61.93,3.74-23,6.53-60,3.33-96.57-4.45-50.75-18.76-89.65-42.56-115.64-42.57-23.11-97.77-34.25-155.43-31.36C96.52,207.1,40,223.72-5.41,251.06Z" style="fill:#163150"/></g><g id="Path-97"><path d="M77.32,386.43h-.08a1.19,1.19,0,0,1-1.1-1.26c3.32-45.71-18.86-116.47-57.17-149a1.18,1.18,0,1,1,1.53-1.8c38.85,33,61.36,104.63,58,150.92A1.18,1.18,0,0,1,77.32,386.43Z" style="fill:#163150"/></g><g id="Path-97-Copy"><path d="M79,285.81a1.17,1.17,0,0,1-1.14-.9C71.46,259.33,53.05,233.28,37.6,228a1.18,1.18,0,1,1,.76-2.23c16.11,5.46,35.23,32.27,41.74,58.54a1.18,1.18,0,0,1-.86,1.43A1.43,1.43,0,0,1,79,285.81Z" style="fill:#163150"/></g><g id="Path-105"><path d="M234,186.27a1.18,1.18,0,0,1-1.18-1.18c0-27.38-17.94-69.57-36.92-86.82a1.18,1.18,0,0,1,1.59-1.75c19.73,17.94,37.69,60.15,37.69,88.57A1.18,1.18,0,0,1,234,186.27Z" style="fill:#163150"/></g></g><g id="Path-77"><path d="M43.57,670.64l-2.4-118.56L2.36,558,4.5,667.67q11-6.57,15.55,3A97.14,97.14,0,0,0,43.57,670.64Z" style="fill:#9f6634;fill-rule:evenodd"/><path d="M32.42,672.83a116.36,116.36,0,0,1-12.48-.71l-.63-.07-.31-.67C18,669.32,15.06,663,5,669l-1.69,1L1.12,556.67l41.23-6.27L44.81,672l-1.11.15A85.87,85.87,0,0,1,32.42,672.83Zm-11.66-3.6a97.93,97.93,0,0,0,21.57.08L40,553.75,3.6,559.28,5.67,665.41C10.77,662.85,17,662,20.76,669.23Z" style="fill:#163150"/></g></g></g></g></svg>