<svg xmlns="http://www.w3.org/2000/svg" xmlns:xlink="http://www.w3.org/1999/xlink" width="1920" height="1080" version="1.1" viewBox="0 0 1920 1080"><title>ill__week--2-3</title><desc>Created with Sketch.</desc><defs><linearGradient id="linearGradient-1" x1="23.025%" x2="101.336%" y1="45.641%" y2="60.057%"><stop offset="0%" stop-color="#C49EFF"/><stop offset="100%" stop-color="#9165FF"/></linearGradient><filter id="filter-2" width="104%" height="108.6%" x="-2%" y="-4.3%" filterUnits="objectBoundingBox"><feOffset dx="0" dy="5" in="SourceAlpha" result="shadowOffsetOuter1"/><feGaussianBlur in="shadowOffsetOuter1" result="shadowBlurOuter1" stdDeviation="7"/><feColorMatrix in="shadowBlurOuter1" result="shadowMatrixOuter1" type="matrix" values="0 0 0 0 0.0062833811 0 0 0 0 0.0133333518 0 0 0 0 0.0214277627 0 0 0 0.368771853 0"/><feMerge><feMergeNode in="shadowMatrixOuter1"/><feMergeNode in="SourceGraphic"/></feMerge></filter><linearGradient id="linearGradient-3" x1="23.025%" x2="50%" y1="15.192%" y2="88.002%"><stop offset="0%" stop-color="#C49EFF"/><stop offset="100%" stop-color="#9165FF"/></linearGradient><linearGradient id="linearGradient-4" x1="21.982%" x2="87.544%" y1="32.341%" y2="94.194%"><stop offset="0%" stop-color="#A682FF"/><stop offset="100%" stop-color="#7F51F0"/></linearGradient><path id="path-5" d="M331.123598,555 C299.919411,464.740753 252.702895,135.210086 245.75435,91.2129769 C238.805806,47.2158675 194.493854,-24.1501242 108.53558,9 C22.5773069,42.1501242 15.2318425,73.1532206 3.25588098,114.211318 C-8.72008054,155.269415 19.6513461,228.621189 88.1820029,238.108838 C133.869107,244.433938 160.099549,237.719062 166.873327,217.96421 C111.133892,389.942185 109.57839,494.371588 162.206821,531.252417 C164.037812,532.535535 267.960358,626.433808 279.908533,619 C291.856708,611.566192 362.327786,645.259247 331.123598,555 Z"/><linearGradient id="linearGradient-7" x1="82.314%" x2="-11.048%" y1="63.542%" y2="-27.604%"><stop offset="0%" stop-color="#7F51F0"/><stop offset="100%" stop-color="#9165FF"/></linearGradient><linearGradient id="linearGradient-8" x1="23.025%" x2="50%" y1="42.583%" y2="58.097%"><stop offset="0%" stop-color="#C49EFF"/><stop offset="100%" stop-color="#9165FF"/></linearGradient><linearGradient id="linearGradient-9" x1="283.649%" x2="-54.457%" y1="65.961%" y2="51.381%"><stop offset="0%" stop-color="#7F51F0"/><stop offset="100%" stop-color="#9165FF"/></linearGradient><linearGradient id="linearGradient-10" x1="35.118%" x2="51.03%" y1="4.203%" y2="36.522%"><stop offset="0%" stop-color="#C49EFF"/><stop offset="100%" stop-color="#9165FF"/></linearGradient><linearGradient id="linearGradient-11" x1="114.788%" x2="-7.628%" y1="74.203%" y2="56.227%"><stop offset="0%" stop-color="#7F51F0"/><stop offset="100%" stop-color="#9165FF"/></linearGradient><linearGradient id="linearGradient-12" x1="192.805%" x2="-54.457%" y1="56.227%" y2="56.227%"><stop offset="0%" stop-color="#7F51F0"/><stop offset="100%" stop-color="#9165FF"/></linearGradient><linearGradient id="linearGradient-13" x1="157.928%" x2="50%" y1="-.348%" y2="64.812%"><stop offset="0%" stop-color="#C49EFF"/><stop offset="100%" stop-color="#9165FF"/></linearGradient><linearGradient id="linearGradient-14" x1="79.814%" x2="102.6%" y1="2.887%" y2="58.453%"><stop offset="0%" stop-color="#C49EFF"/><stop offset="81.128%" stop-color="#9265FF"/><stop offset="100%" stop-color="#9165FF"/></linearGradient><linearGradient id="linearGradient-15" x1="140.02%" x2="-168.641%" y1="54.576%" y2="43.969%"><stop offset="0%" stop-color="#7F51F0"/><stop offset="100%" stop-color="#9165FF"/></linearGradient><linearGradient id="linearGradient-16" x1="255.568%" x2="50%" y1="407.075%" y2="12.323%"><stop offset="0%" stop-color="#057A97"/><stop offset="100%" stop-color="#00AED9"/></linearGradient><path id="path-17" d="M0.178761398,219.035367 C13.583997,219.479731 17.1602306,207.973436 15.962483,204.095967 C14.7647353,200.218497 8.33189252,195.872502 7.40976346,202.40933 C6.48763441,208.946159 6.48763441,213.858273 0.178761398,219.035367 Z"/></defs><g id="ill__week--2-3" fill="none" fill-rule="evenodd" stroke="none" stroke-width="1"><g id="Group" transform="translate(298.892162, 30.000000)"><path id="Path" stroke="#163150" stroke-linecap="round" stroke-linejoin="round" stroke-width="2" d="M1416.10784,438.036697 C1450.12587,436.923388 1467.99266,461.582981 1524.83337,452.03211 C1600.30789,439.350223 1624.43625,445.126086 1681.36549,465.9164" transform="translate(1548.736666, 451.958200) scale(-1, 1) rotate(-6.000000) translate(-1548.736666, -451.958200)"/><g id="summmer" transform="translate(236.107838, 338.000000)"><g id="Group-10"><g id="Group-11"><path id="Path-3-Copy" stroke="#163150" stroke-linecap="round" stroke-width="2" d="M998,13.2447358 C1026.66562,1.22753928 1045.25054,-2.12353812 1062.62527,1.22753928 C1080,4.57861669 1098.65075,15.0140568 1113.27342,15.0140568 C1127.89609,15.0140568 1142.64395,11.516047 1162,11.516047"/><path id="Path-3-Copy-2" stroke="#163150" stroke-linecap="round" stroke-width="2" d="M0,28.2447358 C28.6656249,16.2275393 47.2505392,12.8764619 64.6252696,16.2275393 C82,19.5786167 100.650752,30.0140568 115.273422,30.0140568 C129.896092,30.0140568 144.643947,26.516047 164,26.516047"/></g></g></g><g id="Group-7" fill="#532CB2" stroke="#163150" transform="translate(739.107838, 195.000000)"><ellipse id="Oval-Copy-19" cx="16" cy="10.5" stroke-width="2.267" rx="7" ry="14.5" transform="translate(16.000000, 10.500000) rotate(-77.000000) translate(-16.000000, -10.500000)"/><ellipse id="Oval-Copy-19" cx="16" cy="11.5" stroke-width="1.267" rx="7" ry="14.5" transform="translate(16.000000, 11.500000) rotate(-77.000000) translate(-16.000000, -11.500000)"/></g><path id="dio-kraka" fill="url(#linearGradient-1)" d="M789.373847,249.013343 C789.373847,224 684.98809,187.506151 594.107838,252.253075 C503.227586,317 446.048825,235.746031 446.048825,201.425926 C446.048825,167.10582 452.992594,182.802559 472.033829,215.443528 C483.433468,234.985079 501.63105,255.018152 521.200517,255 C543.927455,254.978919 568.862901,232.140741 587.588341,216.826963 C622.43768,188.326963 686.544992,162.92036 714.326415,158.037037 C742.107838,153.153714 846.027173,148 837.628354,225 C829.229535,302 789.373847,274.026685 789.373847,249.013343 Z"/><g id="octopus" filter="url(#filter-2)" transform="translate(0.000000, 0.747583)"><path id="krak" fill="#9165FF" stroke="#163150" stroke-width="2" d="M1260.42364,640.639954 C1316.10784,592.46091 1356.07557,531.254444 1406.03229,548.252417 C1455.989,565.250389 1528.10784,517.148025 1572.10784,486.172186 C1616.10784,455.196347 1632.50186,277.295275 1691.89431,277.295275 C1731.48928,277.295275 1761.18468,298.614323 1780.9805,341.252417 L1682.09797,543.944725 L1640.61447,645.633304 C1590.94338,635.862125 1551.44117,626.618775 1522.10784,617.903256 C1478.10784,604.829976 1414.69055,730.80637 1389.47923,736.163282 C1364.26791,741.520194 1204.73943,688.818998 1260.42364,640.639954 Z"/><path id="Path-182" fill="url(#linearGradient-3)" stroke="#163150" stroke-width="2" d="M1059.95277,456.799016 C1106.3595,440.171518 1152.0177,374.488756 1185.16401,328.252417 C1191.06665,323.937795 1198.63976,323.599433 1211.42364,319.319197 C1224.20751,315.03896 1240.50984,307.842724 1246.25216,304.011299 C1316.10784,257.401829 1459.99389,220.134265 1552.10784,267.804506 C1644.22179,315.474747 1651.78512,391.990525 1632.60784,445.10895 C1613.43056,498.227374 1499.10784,596.231227 1350.98371,547.244035 C1202.85958,498.256844 1393.21105,718.644931 1443.81166,708.326899 C1469.15266,703.159585 1410.18782,746.743017 1338.41524,791.54402 C1326.32371,799.091647 1313.86867,806.673831 1301.39199,814.06329 C1240.04778,850.395112 1140.52255,791.54402 1118.76574,791.54402 C1066.31761,791.54402 961.189677,862.411581 977.21224,730.505991 C993.234803,598.600401 999.07005,478.613244 1059.95277,456.799016 Z"/><g id="eyes" transform="translate(1166.332133, 321.252417)"><path id="Path-179" stroke="#163150" stroke-linecap="round" stroke-width="2" d="M149.459908,137.612073 C154.60354,125.546848 151.375473,115.676158 139.775705,108"/><path id="Path" stroke="#163150" stroke-linecap="round" stroke-width="2" d="M36.7757055,2.62383803 C49.6277565,-1.84840297 57.9801747,-0.302620318 63.1911369,4.98418346"/><path id="Path-192" fill="#E3EDFF" stroke="#163150" stroke-linejoin="round" stroke-width="3" d="M29.7581001,59.2158675 C29.7581001,40.3197812 33.1949679,11.5001983 39.1339447,4.1054478 C45.0729216,-3.28930269 7.38525295,5.30427044 8.48074906,22.1781385 C9.57624516,39.0520067 19.1481957,53.9989991 29.7581001,59.2158675 Z"/><path id="Path-192" fill="#E3EDFF" stroke="#163150" stroke-linejoin="round" stroke-width="2" d="M30.7581001,58.2158675 C30.7581001,39.3197812 34.1949679,10.5001983 40.1339447,3.1054478 C46.0729216,-4.28930269 8.38525295,4.30427044 9.48074906,21.1781385 C10.5762452,38.0520067 20.1481957,52.9989991 30.7581001,58.2158675 Z"/><path id="Path-181" fill="#E3EDFF" stroke="#163150" stroke-linejoin="round" stroke-width="2" d="M76.8299561,124.937302 C88.6888285,124.937302 104.637054,149.533692 144.430719,121.845967 C145.154551,151.149043 122.409466,159.880063 111.178942,159.880063 C99.9484187,159.880063 82.5922847,145.485747 76.8299561,140.956576 C71.0676274,136.427405 64.9710837,124.937302 76.8299561,124.937302 Z" transform="translate(107.241167, 140.863015) rotate(21.000000) translate(-107.241167, -140.863015)"/><path id="Path-181" fill="#E3EDFF" stroke="#163150" stroke-linejoin="round" stroke-width="2" d="M77.8299561,123.937302 C89.6888285,123.937302 106.228952,131.097084 145.430719,120.845967 C146.154551,150.149043 123.409466,158.880063 112.178942,158.880063 C100.948419,158.880063 83.5922847,144.485747 77.8299561,139.956576 C72.0676274,135.427405 65.9710837,123.937302 77.8299561,123.937302 Z" transform="translate(108.241167, 139.863015) rotate(21.000000) translate(-108.241167, -139.863015)"/><path id="Oval" fill="#2A455F" d="M89.5082904,139.565711 C95.7235239,141.757008 99.3638382,145.572401 101.944234,143.857108 C103.240881,142.995175 104.017773,137.105203 104.017773,135.073423 C104.017773,128.998291 97.7497599,124.073423 90.0177734,124.073423 C82.2857869,124.073423 76.0177734,128.998291 76.0177734,135.073423 C82.3210557,136.640792 82.5578482,137.115202 89.5082904,139.565711 Z" transform="translate(90.017773, 134.180637) rotate(37.000000) translate(-90.017773, -134.180637)"/><path id="Oval-Copy-9" fill="#2A455F" d="M14.2250534,34.4918278 C18.6182236,36.9642998 21.1964679,39.4747531 24.163644,40.4689652 C25.1869751,39.8550388 25.5656408,31.5855749 24.768973,30.277099 C21.8748915,25.5237553 18.7230405,21.2886731 14.3860021,20.472005 C10.0489636,19.6553368 5,22.2274672 5,26.5545841 C9.58080688,30.4803805 9.38573116,31.7682618 14.2250534,34.4918278 Z" transform="translate(15.098722, 30.395130) rotate(37.000000) translate(-15.098722, -30.395130)"/></g><path id="Path-185" stroke="#163150" stroke-linecap="round" stroke-width="2" d="M1270.71513,337.252417 C1308.36448,308.787149 1551.26264,242.558896 1624.10784,350.578361"/><g id="Group-23" fill="#7F51F0" transform="translate(1277.484587, 297.252417)"><ellipse id="Oval" cx="15" cy="41.5" rx="14" ry="3.5" transform="translate(15.000000, 41.500000) rotate(-19.000000) translate(-15.000000, -41.500000)"/><ellipse id="Oval-Copy-29" cx="56" cy="26.5" rx="14" ry="3.5" transform="translate(56.000000, 26.500000) rotate(-16.000000) translate(-56.000000, -26.500000)"/><ellipse id="Oval-Copy-32" cx="99" cy="16.5" rx="14" ry="3.5" transform="translate(99.000000, 16.500000) rotate(-9.000000) translate(-99.000000, -16.500000)"/><ellipse id="Oval-Copy-35" cx="140" cy="9.5" rx="14" ry="3.5" transform="translate(140.000000, 9.500000) rotate(-5.000000) translate(-140.000000, -9.500000)"/><ellipse id="Oval-Copy-38" cx="183" cy="4.5" rx="14" ry="3.5" transform="translate(183.000000, 4.500000) rotate(-1.000000) translate(-183.000000, -4.500000)"/><ellipse id="Oval-Copy-39" cx="226.623" cy="4.5" rx="14" ry="3.5" transform="translate(226.623251, 4.500000) rotate(3.000000) translate(-226.623251, -4.500000)"/><ellipse id="Oval-Copy-40" cx="269.623" cy="11.5" rx="14" ry="3.5" transform="translate(269.623251, 11.500000) rotate(16.000000) translate(-269.623251, -11.500000)"/><ellipse id="Oval-Copy-41" cx="305.623" cy="26.5" rx="14" ry="3.5" transform="translate(305.623251, 26.500000) rotate(28.000000) translate(-305.623251, -26.500000)"/><ellipse id="Oval-Copy-42" cx="333.623" cy="49.5" rx="14" ry="3.5" transform="translate(333.623251, 49.500000) rotate(43.000000) translate(-333.623251, -49.500000)"/></g><g id="Group-25" fill="#532CB2" transform="translate(1380.107838, 456.252417)"><ellipse id="Oval-Copy-43" cx="15" cy="63.5" rx="14" ry="3.5" transform="translate(15.000000, 63.500000) rotate(3.000000) translate(-15.000000, -63.500000)"/><ellipse id="Oval-Copy-44" cx="54" cy="63.5" rx="14" ry="3.5" transform="translate(54.000000, 63.500000) rotate(-2.000000) translate(-54.000000, -63.500000)"/><ellipse id="Oval-Copy-45" cx="96" cy="62.5" rx="14" ry="3.5" transform="translate(96.000000, 62.500000) rotate(-2.000000) translate(-96.000000, -62.500000)"/><ellipse id="Oval-Copy-46" cx="135" cy="58.5" rx="14" ry="3.5" transform="translate(135.000000, 58.500000) rotate(-10.000000) translate(-135.000000, -58.500000)"/><ellipse id="Oval-Copy-47" cx="172" cy="50.5" rx="14" ry="3.5" transform="translate(172.000000, 50.500000) rotate(-20.000000) translate(-172.000000, -50.500000)"/><ellipse id="Oval-Copy-48" cx="204" cy="34.5" rx="14" ry="3.5" transform="translate(204.000000, 34.500000) rotate(-34.000000) translate(-204.000000, -34.500000)"/><ellipse id="Oval-Copy-49" cx="232" cy="12.5" rx="14" ry="3.5" transform="translate(232.000000, 12.500000) rotate(-45.000000) translate(-232.000000, -12.500000)"/></g><path id="Path-186" stroke="#163150" stroke-linecap="round" stroke-width="2" d="M1378.53131,506.917824 C1509.57289,518.280071 1610.27424,491.141239 1640.61447,420.867802"/><path id="krak" fill="url(#linearGradient-4)" stroke="#163150" stroke-linejoin="round" stroke-width="2" d="M1086.8393,442.282861 C992.141483,456.490947 979.997284,279.553794 961.107838,172.252417 C942.218392,64.9510395 883.352921,-4.74758311 817.352921,0.25241689 C751.352921,5.25241689 670.607838,40.2524169 627.107838,134.338698 C594.39859,205.08563 620.348409,303.160544 679.336619,316.252417 C743.096498,330.403316 825.920189,315.012684 833.589315,248.26576 C836.007004,227.223818 842.834398,217.182047 833.589315,193.252417 C824.344232,169.322787 797.019847,209.470418 783.871881,224.89764 C769.394371,241.884888 753.918604,257.16235 742.107838,248.26576 C709.195279,223.474008 715.107838,197.243363 742.107838,170.919968 C769.107838,144.596573 819.94785,139.618735 838.955158,147.252417 C857.962465,154.886099 865.693629,389.814767 845.357838,449.935814 C825.022047,510.05686 811.088936,600.987197 825.022047,608.252417 C834.310787,613.095897 899.339384,679.638385 1020.10784,807.879883 C1091.24016,796.274472 1126.63315,787.265343 1126.2868,780.852494 C1018.93998,879.319874 863.64981,825.851355 992.907256,596.109314 C1011.55023,531.252417 1021.65547,512.980002 1086.8393,442.282861 Z"/><g id="Group-73" transform="translate(661.107838, 78.252417)"><mask id="mask-6" fill="#fff"><use xlink:href="#path-5"/></mask><path id="krak" fill="url(#linearGradient-7)" stroke="#163150" stroke-linejoin="round" stroke-width="2" d="M424.024078,365.282861 C329.326257,379.490947 317.182058,202.553794 298.292612,95.2524169 C279.403166,-12.0489605 220.537695,-81.7475831 154.537695,-76.7475831 C88.5376949,-71.7475831 7.79261191,-36.7475831 -35.7073881,57.3386981 C-68.4166363,128.08563 -42.4668177,226.160544 16.5213932,239.252417 C80.2812716,253.403316 163.104963,238.012684 170.774089,171.26576 C173.191778,150.223818 180.019172,140.182047 170.774089,116.252417 C161.529006,92.3227873 134.204621,132.470418 121.056655,147.89764 C106.579145,164.884888 91.3575561,176.385742 79.2926119,168.18343 C58.2379635,153.869498 52.2926119,120.243363 79.2926119,93.9199679 C106.292612,67.5965727 157.132623,62.6187352 176.139931,70.2524169 C195.147239,77.8860986 202.878403,312.814767 182.542612,372.935814 C162.206821,433.05686 148.27371,523.987197 162.206821,531.252417 C171.495561,536.095897 236.524158,602.638385 357.292612,730.879883 C471.186227,667.541087 527.958695,632.665265 527.610016,626.252417 C420.266699,724.719797 200.834584,748.851355 330.09203,519.109314 C348.735006,454.252417 358.840239,435.980002 424.024078,365.282861 Z" mask="url(#mask-6)"/><ellipse id="Oval" cx="224" cy="206" fill="#532CB2" stroke="#163150" stroke-width="3" mask="url(#mask-6)" rx="14" ry="23" transform="translate(224.000000, 206.000000) rotate(-7.000000) translate(-224.000000, -206.000000)"/><ellipse id="Oval" cx="223" cy="206" fill="#532CB2" stroke="#163150" stroke-width="2" mask="url(#mask-6)" rx="14" ry="23" transform="translate(223.000000, 206.000000) rotate(-7.000000) translate(-223.000000, -206.000000)"/><ellipse id="Oval-Copy-10" cx="212.5" cy="135.5" fill="#532CB2" stroke="#163150" stroke-width="2.8" mask="url(#mask-6)" rx="12.5" ry="20.5" transform="translate(212.500000, 135.500000) rotate(-7.000000) translate(-212.500000, -135.500000)"/><ellipse id="Oval-Copy-10" cx="211.5" cy="135.5" fill="#532CB2" stroke="#163150" stroke-width="1.8" mask="url(#mask-6)" rx="12.5" ry="20.5" transform="translate(211.500000, 135.500000) rotate(-7.000000) translate(-211.500000, -135.500000)"/><ellipse id="Oval-Copy-11" cx="197.5" cy="63.5" fill="#532CB2" stroke="#163150" stroke-width="2.8" mask="url(#mask-6)" rx="12.5" ry="20.5" transform="translate(197.500000, 63.500000) rotate(-21.000000) translate(-197.500000, -63.500000)"/><ellipse id="Oval-Copy-11" cx="196.5" cy="63.5" fill="#532CB2" stroke="#163150" stroke-width="1.8" mask="url(#mask-6)" rx="12.5" ry="20.5" transform="translate(196.500000, 63.500000) rotate(-21.000000) translate(-196.500000, -63.500000)"/><ellipse id="Oval-Copy-12" cx="127" cy="47" fill="#532CB2" stroke="#163150" stroke-width="1.584" mask="url(#mask-6)" rx="9" ry="18" transform="translate(127.000000, 47.000000) rotate(-111.000000) translate(-127.000000, -47.000000)"/><g id="Group-9" fill="#532CB2" stroke="#163150" mask="url(#mask-6)"><g id="Oval-Copy-12" transform="translate(106.000000, 31.000000)"><ellipse cx="21" cy="15" stroke-width="2.584" rx="9" ry="18" transform="translate(21.000000, 15.000000) rotate(-111.000000) translate(-21.000000, -15.000000)"/><ellipse cx="21" cy="16" stroke-width="1.584" rx="9" ry="18" transform="translate(21.000000, 16.000000) rotate(-111.000000) translate(-21.000000, -16.000000)"/></g></g><ellipse id="Oval-Copy-13" cx="64" cy="71" fill="#532CB2" stroke="#163150" stroke-width="2.584" mask="url(#mask-6)" rx="9" ry="18" transform="translate(64.000000, 71.000000) rotate(-125.000000) translate(-64.000000, -71.000000)"/><ellipse id="Oval-Copy-13" cx="64" cy="72" fill="#532CB2" stroke="#163150" stroke-width="1.584" mask="url(#mask-6)" rx="9" ry="18" transform="translate(64.000000, 72.000000) rotate(-125.000000) translate(-64.000000, -72.000000)"/><ellipse id="Oval-Copy-14" cx="46.554" cy="159.616" fill="#532CB2" stroke="#163150" stroke-width="2.584" mask="url(#mask-6)" rx="9" ry="18" transform="translate(46.554146, 159.616039) rotate(-12.000000) translate(-46.554146, -159.616039)"/><ellipse id="Oval-Copy-14" cx="47.554" cy="159.616" fill="#532CB2" stroke="#163150" stroke-width="1.584" mask="url(#mask-6)" rx="9" ry="18" transform="translate(47.554146, 159.616039) rotate(-12.000000) translate(-47.554146, -159.616039)"/><ellipse id="Oval-Copy-17" cx="104" cy="195" fill="#532CB2" stroke="#163150" stroke-width="2.584" mask="url(#mask-6)" rx="9" ry="18" transform="translate(104.000000, 195.000000) rotate(-94.000000) translate(-104.000000, -195.000000)"/><ellipse id="Oval-Copy-17" cx="104" cy="194" fill="#532CB2" stroke="#163150" stroke-width="1.584" mask="url(#mask-6)" rx="9" ry="18" transform="translate(104.000000, 194.000000) rotate(-94.000000) translate(-104.000000, -194.000000)"/></g><g id="krak" transform="translate(229.530130, 384.478345) rotate(-6.000000) translate(-229.530130, -384.478345) translate(21.030130, 179.978345)"><path id="Path-190" fill="url(#linearGradient-8)" d="M52.5013399,156.049761 C73.0710673,129.870381 76.6032004,100.406648 150.226641,152.43148 C223.850083,204.456312 295.611461,180.761605 324.174142,169.021375 C334.421125,145.921375 325.020727,79.6396533 312.950067,82.025272 C300.879407,84.4108906 258.062143,114.946158 229.934014,114.946158 C201.805886,114.946158 183.069363,77.867365 123.58425,66.3906025 C64.0991365,54.91384 22.5928213,164.760052 22.5928213,181.760052 C22.5928213,198.760052 31.9316124,182.229141 52.5013399,156.049761 Z" transform="translate(175.571423, 127.115122) rotate(28.000000) translate(-175.571423, -127.115122)"/><path id="Path-190" fill="url(#linearGradient-9)" d="M28.3847228,153.785817 C48.9544502,127.606437 52.4865833,98.1427038 126.110024,150.167536 C199.733465,202.192368 271.494844,178.497661 300.057525,166.757431 C310.304508,143.657431 285.069642,138.409599 272.998982,140.795217 C260.928322,143.180836 244.638207,159.296317 216.510078,159.296317 C188.38195,159.296317 141.972628,118.979491 82.4875143,107.502729 C23.0024008,96.0259661 18.0331432,222.486204 18.0331432,239.486204 C18.0331432,256.486204 7.81499538,179.965197 28.3847228,153.785817 Z" transform="translate(158.973023, 174.346384) rotate(28.000000) translate(-158.973023, -174.346384)"/><g id="Group-9-Copy-2" fill="#532CB2" stroke="#163150" transform="translate(159.914083, 150.901844) rotate(76.000000) translate(-159.914083, -150.901844) translate(146.414083, 140.901844)"><ellipse id="Oval-Copy-12" cx="13.608" cy="9.72" stroke-width="1.674" rx="5.832" ry="11.664" transform="translate(13.608000, 9.720000) rotate(-111.000000) translate(-13.608000, -9.720000)"/><ellipse id="Oval-Copy-12" cx="13.608" cy="10.368" stroke-width="1.026" rx="5.832" ry="11.664" transform="translate(13.608000, 10.368000) rotate(-111.000000) translate(-13.608000, -10.368000)"/></g><g id="Group-9-Copy-3" fill="#532CB2" stroke="#163150" transform="translate(140.673194, 118.714297) rotate(76.000000) translate(-140.673194, -118.714297) translate(129.673194, 110.714297)"><ellipse id="Oval-Copy-12" cx="10.886" cy="7.776" stroke-width="1.34" rx="4.666" ry="9.331" transform="translate(10.886400, 7.776000) rotate(-111.000000) translate(-10.886400, -7.776000)"/><ellipse id="Oval-Copy-12" cx="10.886" cy="8.294" stroke-width=".821" rx="4.666" ry="9.331" transform="translate(10.886400, 8.294400) rotate(-111.000000) translate(-10.886400, -8.294400)"/></g><g id="Group-9-Copy-4" fill="#532CB2" stroke="#163150" transform="translate(120.360138, 91.944356) rotate(66.000000) translate(-120.360138, -91.944356) translate(111.360138, 85.444356)"><ellipse id="Oval-Copy-12" cx="8.709" cy="6.221" stroke-width="1.072" rx="3.732" ry="7.465" transform="translate(8.709120, 6.220800) rotate(-111.000000) translate(-8.709120, -6.220800)"/><ellipse id="Oval-Copy-12" cx="8.709" cy="6.636" stroke-width=".657" rx="3.732" ry="7.465" transform="translate(8.709120, 6.635520) rotate(-111.000000) translate(-8.709120, -6.635520)"/></g><path id="Path-190" stroke="#163150" stroke-linejoin="round" stroke-width="2" d="M52.5013399,156.049761 C73.0710673,129.870381 76.6032004,100.406648 150.226641,152.43148 C223.850083,204.456312 295.611461,180.761605 324.174142,169.021375 C334.421125,145.921375 325.020727,79.6396533 312.950067,82.025272 C300.879407,84.4108906 258.062143,114.946158 229.934014,114.946158 C201.805886,114.946158 183.069363,77.867365 123.58425,66.3906025 C64.0991365,54.91384 22.5928213,164.760052 22.5928213,181.760052 C22.5928213,198.760052 31.9316124,182.229141 52.5013399,156.049761 Z" transform="translate(175.571423, 127.115122) rotate(28.000000) translate(-175.571423, -127.115122)"/><path id="Path-191" fill="url(#linearGradient-10)" d="M317.863436,148.370309 C314.086595,119.883943 285.513827,110.19864 251.863436,130.884987 C215.236282,153.40128 216.864872,233.230849 258.163298,277.884987 C285.695582,307.654413 301.428401,324.469334 305.361757,328.329749 L306.820467,393.550394 C298.8404,416.865993 278.265624,413.271719 245.096139,382.767572 C195.341913,337.011351 153.863436,282.884987 153.863436,217.884987 C153.863436,152.884987 197.510381,92.9955014 231.419015,70.8849874 C265.327648,48.7744734 324.592931,52.5565519 347.698676,65.2003993 C370.804422,77.8442466 427.229398,124.970705 414.817099,163.927846 C402.4048,202.884987 377.733347,223.148024 349.231665,230.884987 C320.729983,238.621951 252.528685,232.600399 250.295981,220.486428 C248.063277,208.372457 324.605776,199.223598 317.863436,148.370309 Z"/><path id="Path-191" fill="url(#linearGradient-11)" d="M395.449889,143.977367 C392.493393,112.165387 366.076179,85.0380257 346.822266,73.5388918 C317.708661,56.1511938 276.573826,61.6508197 255.709854,67.4670034 C203.957328,81.8938913 132.475997,179.202876 188.873344,318.755973 C226.471576,411.791371 265.301047,414.98263 305.361757,328.329749 L306.820467,393.550394 C298.8404,416.865993 278.265624,413.271719 245.096139,382.767572 C195.341913,337.011351 153.863436,282.884987 153.863436,217.884987 C153.863436,152.884987 197.510381,92.9955014 231.419015,70.8849874 C265.327648,48.7744734 324.592931,52.5565519 347.698676,65.2003993 C370.804422,77.8442466 427.229398,124.970705 414.817099,163.927846 C402.4048,202.884987 377.733347,223.148024 349.231665,230.884987 C320.729983,238.621951 252.528685,232.600399 250.295981,220.486428 C249.487586,216.100325 253.084975,195.308532 273.536913,198.137501 C332.378718,206.276661 398.48879,176.676023 395.449889,143.977367 Z"/><g id="Group-9" fill="#532CB2" stroke="#163150" transform="translate(318.079704, 216.671091) rotate(22.000000) translate(-318.079704, -216.671091) translate(297.079704, 201.171091)"><ellipse id="Oval-Copy-12" cx="21" cy="15" stroke-width="2.584" rx="9" ry="18" transform="translate(21.000000, 15.000000) rotate(-111.000000) translate(-21.000000, -15.000000)"/><ellipse id="Oval-Copy-12" cx="21" cy="16" stroke-width="1.584" rx="9" ry="18" transform="translate(21.000000, 16.000000) rotate(-111.000000) translate(-21.000000, -16.000000)"/></g><g id="Group-9-Copy" fill="#532CB2" stroke="#163150" transform="translate(245.292636, 212.372852) rotate(32.000000) translate(-245.292636, -212.372852) translate(228.792636, 199.872852)"><ellipse id="Oval-Copy-12" cx="16.8" cy="12" stroke-width="2.067" rx="7.2" ry="14.4" transform="translate(16.800000, 12.000000) rotate(-111.000000) translate(-16.800000, -12.000000)"/><ellipse id="Oval-Copy-12" cx="16.8" cy="12.8" stroke-width="1.267" rx="7.2" ry="14.4" transform="translate(16.800000, 12.800000) rotate(-111.000000) translate(-16.800000, -12.800000)"/></g><path id="Shape" stroke="#163150" stroke-linecap="round" stroke-linejoin="round" stroke-width="2" d="M317.863436,148.370309 C314.086595,119.883943 285.513827,110.19864 251.863436,130.884987 C215.236282,153.40128 216.864872,233.230849 258.163298,277.884987 C285.695582,307.654413 301.428401,324.469334 305.361757,328.329749 L306.820467,393.550394 C298.8404,416.865993 278.265624,413.271719 245.096139,382.767572 C195.341913,337.011351 153.863436,282.884987 153.863436,217.884987 C153.863436,152.884987 197.510381,92.9955014 231.419015,70.8849874 C265.327648,48.7744734 324.592931,52.5565519 347.698676,65.2003993 C370.804422,77.8442466 427.229398,124.970705 414.817099,163.927846 C402.4048,202.884987 377.733347,223.148024 349.231665,230.884987 C331.033156,235.825089 294.529564,235.557512 269.934874,231.565072"/></g><path id="dio-kraka" fill="url(#linearGradient-1)" d="M789.373847,248.26576 C789.373847,223.252417 684.98809,186.758568 594.107838,251.505492 C503.227586,316.252417 446.048825,234.998448 446.048825,200.678343 C446.048825,166.358237 452.992594,182.054975 472.033829,214.695945 C483.433468,234.237496 501.63105,254.270569 521.200517,254.252417 C543.927455,254.231336 568.862901,231.393158 587.588341,216.07938 C622.43768,187.57938 686.544992,162.172777 714.326415,157.289454 C742.107838,152.406131 846.027173,147.252417 837.628354,224.252417 C829.229535,301.252417 789.373847,273.279102 789.373847,248.26576 Z"/><path id="dio-kraka" fill="url(#linearGradient-12)" d="M789.373847,248.26576 C782.727703,223.252417 684.98809,186.758568 594.107838,251.505492 C503.227586,316.252417 446.048825,234.998448 446.048825,200.678343 C446.048825,166.358237 452.992594,182.054975 472.033829,214.695945 C483.433468,234.237496 501.63105,254.270569 521.200517,254.252417 C545.52807,262.48867 567.794032,242.565712 594.107838,227.934243 C634.144792,205.672186 687.326415,186.13574 715.107838,181.252417 C742.889261,176.369094 841.288355,185.534095 837.628354,224.252417 C829.229535,301.252417 789.373847,273.279102 789.373847,248.26576 Z"/><ellipse id="Oval-Copy-18" cx="805" cy="225.5" fill="#532CB2" stroke="#163150" stroke-width="2.267" rx="7" ry="14.5" transform="translate(805.000000, 225.500000) rotate(-39.000000) translate(-805.000000, -225.500000)"/><ellipse id="Oval-Copy-18" cx="804" cy="225.5" fill="#532CB2" stroke="#163150" stroke-width="1.267" rx="7" ry="14.5" transform="translate(804.000000, 225.500000) rotate(-39.000000) translate(-804.000000, -225.500000)"/><g id="Group-7" fill="#532CB2" stroke="#163150" transform="translate(728.107838, 206.252417) rotate(-8.000000) translate(-728.107838, -206.252417) translate(712.107838, 195.252417)"><ellipse id="Oval-Copy-19" cx="16" cy="10.5" stroke-width="2.267" rx="7" ry="14.5" transform="translate(16.000000, 10.500000) rotate(-77.000000) translate(-16.000000, -10.500000)"/><ellipse id="Oval-Copy-19" cx="16" cy="11.5" stroke-width="1.267" rx="7" ry="14.5" transform="translate(16.000000, 11.500000) rotate(-77.000000) translate(-16.000000, -11.500000)"/></g><g id="Group-20" fill="#532CB2" stroke="#163150" transform="translate(629.107838, 209.252417)"><ellipse id="Oval-Copy-21" cx="12.5" cy="10" stroke-width="1.95" rx="5.5" ry="11" transform="translate(12.500000, 10.000000) rotate(-112.000000) translate(-12.500000, -10.000000)"/><ellipse id="Oval-Copy-21" cx="12.5" cy="11" stroke-width=".95" rx="5.5" ry="11" transform="translate(12.500000, 11.000000) rotate(-112.000000) translate(-12.500000, -11.000000)"/></g><g id="Group-15" fill="#532CB2" stroke="#163150" transform="translate(590.107838, 248.252417) rotate(-7.000000) translate(-590.107838, -248.252417) translate(581.107838, 240.252417)"><ellipse id="Oval-Copy-22" cx="9" cy="7.5" stroke-width="1.665" rx="4" ry="7.5" transform="translate(9.000000, 7.500000) rotate(-112.000000) translate(-9.000000, -7.500000)"/><ellipse id="Oval-Copy-22" cx="9" cy="8.5" stroke-width=".665" rx="4" ry="7.5" transform="translate(9.000000, 8.500000) rotate(-112.000000) translate(-9.000000, -8.500000)"/></g><g id="Group-18" fill="#532CB2" stroke="#163150" transform="translate(540.107838, 256.252417)"><ellipse id="Oval-Copy-26" cx="8" cy="5.5" stroke-width="1.665" rx="4" ry="7.5" transform="translate(8.000000, 5.500000) rotate(-98.000000) translate(-8.000000, -5.500000)"/><ellipse id="Oval-Copy-26" cx="8" cy="6.5" stroke-width=".665" rx="4" ry="7.5" transform="translate(8.000000, 6.500000) rotate(-98.000000) translate(-8.000000, -6.500000)"/></g><g id="Group-19" fill="#532CB2" stroke="#163150" transform="translate(509.607838, 262.752417) rotate(-11.000000) translate(-509.607838, -262.752417) translate(500.107838, 254.252417)"><ellipse id="Oval-Copy-27" cx="10" cy="8.5" stroke-width="1.665" rx="4" ry="7.5" transform="translate(10.000000, 8.500000) rotate(-56.000000) translate(-10.000000, -8.500000)"/><ellipse id="Oval-Copy-27" cx="9" cy="8.5" stroke-width=".665" rx="4" ry="7.5" transform="translate(9.000000, 8.500000) rotate(-56.000000) translate(-9.000000, -8.500000)"/></g><ellipse id="Oval-Copy-28" cx="474.5" cy="238" fill="#532CB2" stroke="#163150" stroke-width="1.599" rx="3.5" ry="7" transform="translate(474.500000, 238.000000) rotate(-39.000000) translate(-474.500000, -238.000000)"/><ellipse id="Oval-Copy-28" cx="474.5" cy="239" fill="#532CB2" stroke="#163150" stroke-width=".599" rx="3.5" ry="7" transform="translate(474.500000, 239.000000) rotate(-39.000000) translate(-474.500000, -239.000000)"/><path id="krak2" fill="#9165FF" d="M1448.10784,707.489386 C1572.10784,617.903256 1745.40819,554.953852 1788.25801,643.603134 C1831.10784,732.252417 1845.78797,828.691826 1831.10784,857.972121 C1816.42771,887.252417 1788.25801,867.679898 1788.25801,811.466157 C1788.25801,755.252417 1671.10784,721.500407 1621.60784,785.252417 C1572.10784,849.004427 1353.36882,892.838635 1279.18462,857.972121 C1229.72849,834.727779 1225.02348,794.250529 1265.0696,736.540372 C1304.42842,776.897135 1365.44117,767.213472 1448.10784,707.489386 Z"/><path id="Path" stroke="#163150" stroke-linecap="round" stroke-width="2" d="M1382.82348,746.306989 C1402.83305,737.416235 1424.59451,724.477034 1448.10784,707.489386 L1448.10784,707.489386 C1572.10784,617.903256 1745.40819,554.953852 1788.25801,643.603134 C1831.10784,732.252417 1845.78797,828.691826 1831.10784,857.972121 C1816.42771,887.252417 1788.25801,867.679898 1788.25801,811.466157 C1788.25801,755.252417 1671.10784,721.500407 1621.60784,785.252417 C1572.10784,849.004427 1353.36882,892.838635 1279.18462,857.972121 C1229.72849,834.727779 1225.02348,794.250529 1265.0696,736.540372"/></g><path id="Path-193" fill="url(#linearGradient-13)" d="M991.423636,609.250027 C940.107838,624.856388 879.107838,736.856201 808.107838,761.241833 C737.107838,785.627466 650.98809,757.002771 577.107838,745.001385 C503.227586,733 942.949708,880.69105 1002.42364,854.890764 C1061.89756,829.090478 987.9544,697.714468 991.423636,609.250027 Z"/><path id="krak" stroke="#163150" stroke-linecap="round" stroke-linejoin="round" stroke-width="2" d="M991.423636,609.250027 C940.107838,624.856388 879.107838,736.856201 808.107838,761.241833 C737.107838,785.627466 650.98809,757.002771 577.107838,745.001385 C503.227586,733 942.949708,880.69105 1002.42364,854.890764"/><path id="Shape" stroke="#163150" stroke-linecap="round" stroke-linejoin="round" stroke-width="2" d="M789.373847,249.013343 C789.373847,224 684.98809,187.506151 594.107838,252.253075 C503.227586,317 446.048825,235.746031 446.048825,201.425926 C446.048825,167.10582 452.992594,182.802559 472.033829,215.443528 C483.433468,234.985079 501.63105,255.018152 521.200517,255 C543.927455,254.978919 568.862901,232.140741 587.588341,216.826963 C622.43768,188.326963 686.544992,162.92036 714.326415,158.037037 C742.107838,153.153714 846.027173,148 837.628354,225 C835.227135,242.817199 833.000238,255.567371 830.947662,263.250513"/><g id="krak" transform="translate(717.362596, 625.000000)"><path fill="url(#linearGradient-14)" d="M441.324252,65.600686 C403.022078,114.91258 394.465141,151.035524 328.546846,175.403512 C262.628551,199.7715 183.786678,143.58813 135.626843,152.24522 C87.4670084,160.90231 -0.994383494,272.148691 0.00845386545,291.633874 C2.58706556,341.736437 51.0203015,345.885094 109.922663,306.96975 C144.820072,263.975188 162.398283,275.633582 224.008454,302.219101 C285.618625,328.80462 418.824252,394.062468 545.324252,212.605394 C545.999233,205.439323 555.585546,201.213241 556.210703,194.740753 C556.701575,189.658572 568.135771,184.058888 568.002378,179.372142 C567.778386,171.647363 541.734721,179.490127 543.06104,172.740753 C556.25088,105.620252 558.33128,64.5375728 545.324252,23.1082369 C529.324252,-27.8541621 481.313234,14.1171203 441.324252,65.600686 Z"/><path fill="url(#linearGradient-15)" d="M403.241315,311.705621 C308.47219,338.128165 203.356442,242.246423 155.196607,250.903512 C107.036772,259.560602 83.7421537,318.45655 36.6905575,320.744331 C22.0836166,321.454561 15.9003131,318.45655 8.95045287,315.301532 C2.00059267,312.146514 20.6268639,329.998887 29.5163326,331.948703 C49.6319919,336.360873 78.2652814,327.885005 109.922663,306.96975 C144.820072,263.975188 162.398283,275.633582 224.008454,302.219101 C285.618625,328.80462 418.824252,394.062468 545.324252,212.605394 C517.923623,238.888464 498.01044,285.283077 403.241315,311.705621 Z"/><g id="Group-7" fill="#532CB2" stroke="#163150" transform="translate(292.500000, 315.000000) rotate(7.000000) translate(-292.500000, -315.000000) translate(275.000000, 303.000000)"><ellipse id="Oval-Copy-19" cx="17.6" cy="11.55" stroke-width="2.494" rx="7.7" ry="15.95" transform="translate(17.600000, 11.550000) rotate(-77.000000) translate(-17.600000, -11.550000)"/><ellipse id="Oval-Copy-19" cx="17.6" cy="12.65" stroke-width="1.394" rx="7.7" ry="15.95" transform="translate(17.600000, 12.650000) rotate(-77.000000) translate(-17.600000, -12.650000)"/></g><g id="Group-7-Copy" fill="#532CB2" stroke="#163150" transform="translate(237.008454, 294.403512) rotate(7.000000) translate(-237.008454, -294.403512) translate(221.008454, 283.403512)"><ellipse id="Oval-Copy-19" cx="16" cy="10.5" stroke-width="2.267" rx="7" ry="14.5" transform="translate(16.000000, 10.500000) rotate(-77.000000) translate(-16.000000, -10.500000)"/><ellipse id="Oval-Copy-19" cx="16" cy="11.5" stroke-width="1.267" rx="7" ry="14.5" transform="translate(16.000000, 11.500000) rotate(-77.000000) translate(-16.000000, -11.500000)"/></g><g id="Group-7-Copy-2" fill="#532CB2" stroke="#163150" transform="translate(182.500000, 271.000000) rotate(7.000000) translate(-182.500000, -271.000000) translate(168.000000, 261.000000)"><ellipse id="Oval-Copy-19" cx="14.4" cy="9.45" stroke-width="2.04" rx="6.3" ry="13.05" transform="translate(14.400000, 9.450000) rotate(-77.000000) translate(-14.400000, -9.450000)"/><ellipse id="Oval-Copy-19" cx="14.4" cy="10.35" stroke-width="1.14" rx="6.3" ry="13.05" transform="translate(14.400000, 10.350000) rotate(-77.000000) translate(-14.400000, -10.350000)"/></g><g id="Group-7-Copy-3" fill="#532CB2" stroke="#163150" transform="translate(130.000000, 274.000000) rotate(-47.000000) translate(-130.000000, -274.000000) translate(117.000000, 265.000000)"><ellipse id="Oval-Copy-19" cx="12.96" cy="8.505" stroke-width="1.836" rx="5.67" ry="11.745" transform="translate(12.960000, 8.505000) rotate(-77.000000) translate(-12.960000, -8.505000)"/><ellipse id="Oval-Copy-19" cx="12.96" cy="9.315" stroke-width="1.026" rx="5.67" ry="11.745" transform="translate(12.960000, 9.315000) rotate(-77.000000) translate(-12.960000, -9.315000)"/></g><g id="Group-7-Copy-4" fill="#532CB2" stroke="#163150" transform="translate(91.000000, 307.000000) rotate(-47.000000) translate(-91.000000, -307.000000) translate(79.000000, 299.000000)"><ellipse id="Oval-Copy-19" cx="11.664" cy="7.654" stroke-width="1.653" rx="5.103" ry="10.57" transform="translate(11.664000, 7.654500) rotate(-77.000000) translate(-11.664000, -7.654500)"/><ellipse id="Oval-Copy-19" cx="11.664" cy="8.383" stroke-width=".924" rx="5.103" ry="10.57" transform="translate(11.664000, 8.383500) rotate(-77.000000) translate(-11.664000, -8.383500)"/></g></g><path id="Path" stroke="#163150" stroke-linecap="round" stroke-width="2" d="M1158.68685,690.600686 C1120.38467,739.91258 1111.82774,776.035524 1045.90944,800.403512 C979.991147,824.7715 901.149274,768.58813 852.989439,777.24522 C804.829605,785.90231 716.368213,897.148691 717.37105,916.633874 C719.949662,966.736437 768.382898,970.885094 827.285259,931.96975 C862.182668,888.975188 879.760879,900.633582 941.37105,927.219101 C1001.94922,953.359299 1137.60226,1017.79479 1262.92005,835.200387 C1265.05495,832.08973 1280.73199,808.352889 1282.86047,805.097434"/><g id="krak" transform="translate(439.107838, 804.000000)"><path id="Path-188" fill="#A682FF" stroke="#163150" stroke-linejoin="round" stroke-width="2" d="M161.506427,76.5115803 C113.715815,51.2994383 91.7144021,-2.72003186 46.4419733,0.106782464 C16.260354,1.99132535 0.779696286,18.2214762 -6.39488462e-13,48.7972351 C17.7058078,42.0842001 29.8725886,40.8229752 36.5003425,45.0135605 C46.4419733,51.2994383 71.8164076,90.9438346 85.2489267,110.280787 C98.6814458,129.61774 138.138023,142.573941 149.822225,136.095841 C161.506427,129.61774 209.297039,101.723722 161.506427,76.5115803 Z"/><path id="Path-188" fill="#9165FF" d="M53.2632119,16.4126829 C36.3761964,6.34345527 18.6217925,17.138306 1.13686838e-13,48.7972351 C17.7058078,42.0842001 29.8725886,40.8229752 36.5003425,45.0135605 C46.4419733,51.2994383 71.8164076,90.9438346 85.2489267,110.280787 C98.6814458,129.61774 138.138023,142.573941 149.822225,136.095841 C156.082707,132.624826 168.983127,125.260279 173.82446,117.654016 C91.1690767,124.257014 78.5937351,31.5165242 53.2632119,16.4126829 Z"/><g id="Group-7-Copy-4" fill="#532CB2" stroke="#163150" transform="translate(133.500000, 125.500000) rotate(-2.000000) translate(-133.500000, -125.500000) translate(123.000000, 118.000000)"><ellipse id="Oval-Copy-19" cx="10.498" cy="6.889" stroke-width="1.488" rx="4.593" ry="9.513" transform="translate(10.497600, 6.889050) rotate(-77.000000) translate(-10.497600, -6.889050)"/><ellipse id="Oval-Copy-19" cx="10.498" cy="7.545" stroke-width=".831" rx="4.593" ry="9.513" transform="translate(10.497600, 7.545150) rotate(-77.000000) translate(-10.497600, -7.545150)"/></g><g id="Group-7-Copy-5" fill="#532CB2" stroke="#163150" transform="translate(100.763212, 108.500000) rotate(30.000000) translate(-100.763212, -108.500000) translate(91.263212, 102.000000)"><ellipse id="Oval-Copy-19" cx="9.331" cy="6.124" stroke-width="1.322" rx="4.082" ry="8.456" transform="translate(9.331200, 6.123600) rotate(-77.000000) translate(-9.331200, -6.123600)"/><ellipse id="Oval-Copy-19" cx="9.331" cy="6.707" stroke-width=".739" rx="4.082" ry="8.456" transform="translate(9.331200, 6.706800) rotate(-77.000000) translate(-9.331200, -6.706800)"/></g><g id="Group-7-Copy-6" fill="#532CB2" stroke="#163150" transform="translate(78.763212, 84.000000) rotate(46.000000) translate(-78.763212, -84.000000) translate(70.263212, 78.000000)"><ellipse id="Oval-Copy-19" cx="8.398" cy="5.511" stroke-width="1.19" rx="3.674" ry="7.611" transform="translate(8.398080, 5.511240) rotate(-77.000000) translate(-8.398080, -5.511240)"/><ellipse id="Oval-Copy-19" cx="8.398" cy="6.036" stroke-width=".665" rx="3.674" ry="7.611" transform="translate(8.398080, 6.036120) rotate(-77.000000) translate(-8.398080, -6.036120)"/></g><g id="Group-7-Copy-7" fill="#532CB2" stroke="#163150" transform="translate(63.763212, 59.500000) rotate(46.000000) translate(-63.763212, -59.500000) translate(56.263212, 54.000000)"><ellipse id="Oval-Copy-19" cx="7.558" cy="4.96" stroke-width="1.071" rx="3.307" ry="6.85" transform="translate(7.558272, 4.960116) rotate(-77.000000) translate(-7.558272, -4.960116)"/><ellipse id="Oval-Copy-19" cx="7.558" cy="5.433" stroke-width=".599" rx="3.307" ry="6.85" transform="translate(7.558272, 5.432508) rotate(-77.000000) translate(-7.558272, -5.432508)"/></g><g id="Group-7-Copy-9" fill="#532CB2" stroke="#163150" transform="translate(48.000000, 38.000000) rotate(46.000000) translate(-48.000000, -38.000000) translate(41.000000, 33.000000)"><ellipse id="Oval-Copy-19" cx="6.802" cy="4.464" stroke-width=".964" rx="2.976" ry="6.165" transform="translate(6.802445, 4.464104) rotate(-77.000000) translate(-6.802445, -4.464104)"/><ellipse id="Oval-Copy-19" cx="6.802" cy="4.889" stroke-width=".539" rx="2.976" ry="6.165" transform="translate(6.802445, 4.889257) rotate(-77.000000) translate(-6.802445, -4.889257)"/></g><g id="Group-7-Copy-8" fill="#532CB2" stroke="#163150" transform="translate(26.000000, 32.500000) rotate(-33.000000) translate(-26.000000, -32.500000) translate(20.000000, 28.000000)"><ellipse id="Oval-Copy-19" cx="6.047" cy="3.968" stroke-width=".857" rx="2.645" ry="5.48" transform="translate(6.046618, 3.968093) rotate(-77.000000) translate(-6.046618, -3.968093)"/><ellipse id="Oval-Copy-19" cx="6.047" cy="4.346" stroke-width=".5" rx="2.645" ry="5.48" transform="translate(6.046618, 4.346006) rotate(-77.000000) translate(-6.046618, -4.346006)"/></g><path id="Path-188" stroke="#163150" stroke-linejoin="round" stroke-width="2" d="M161.506427,76.5115803 C113.715815,51.2994383 91.7144021,-2.72003186 46.4419733,0.106782464 C16.260354,1.99132535 0.779696286,18.2214762 2.4158453e-13,48.7972351 C17.7058078,42.0842001 29.8725886,40.8229752 36.5003425,45.0135605 C46.4419733,51.2994383 71.8164076,90.9438346 85.2489267,110.280787 C98.6814458,129.61774 138.138023,142.573941 149.822225,136.095841 C161.506427,129.61774 209.297039,101.723722 161.506427,76.5115803 Z"/></g><g id="krakovi" transform="translate(485.048825, 720.611068)"><path id="Path" stroke="#163150" stroke-linecap="round" stroke-linejoin="round" stroke-width="2" d="M775.374811,28.3889319 C829.332247,-8.04299555 916.270474,-16.1266859 916.270474,51.7931902 C901.013291,39.2922796 869.991262,34.2658132 873.888089,64.9399375 C877.784915,95.6140618 939.460602,86.0651176 982.460602,69.1444771 C1013.11448,57.0820774 1021.15537,84.0696272 1056.41027,87.9399046 C1091.66516,91.8101821 1113.40869,85.5471151 1136.05901,78.3344891" transform="translate(955.716912, 44.934233) scale(-1, 1) translate(-955.716912, -44.934233)"/><mask id="mask-18" fill="#fff"><use xlink:href="#path-17"/></mask><use id="Path-62-Copy" fill="url(#linearGradient-16)" stroke="#163150" stroke-linejoin="round" stroke-width="2" xlink:href="#path-17"/><path id="Path-94" stroke="#979797" stroke-width="3" d="M748.711613,77.1296848 C756.628493,72.2127536 773.695063,48.307735 773.695063,44.8483335" mask="url(#mask-18)"/><path id="Path-108" stroke="#979797" d="M708.361018,56.6899904 C712.243354,53.425457 729.857461,53.425457 761.203338,56.6899904" mask="url(#mask-18)"/><path id="Path-124" stroke="#163150" d="M734.782178,-36.4767611 C739.431092,-40.9368486 745.896412,-50.6870327 742.663752,-58.6843475" mask="url(#mask-18)"/><path id="Path-184" stroke="#979797" mask="url(#mask-18)"/><path id="dio-kraka" fill="url(#linearGradient-1)" d="M304.325022,-471.597725 C304.325022,-496.611068 199.939265,-533.104917 109.059013,-468.357993 C18.1787614,-403.611068 -39,-484.865037 -39,-519.185142 C-39,-553.505248 -32.056231,-537.80851 -13.0149956,-505.16754 C-1.61535676,-485.625989 16.5822246,-465.592916 36.1516915,-465.611068 C58.8786303,-465.632149 83.8140759,-488.470327 102.539516,-503.784105 C137.388855,-532.284105 201.496167,-557.690708 229.27759,-562.574031 C257.059013,-567.457354 360.978347,-572.611068 352.579529,-495.611068 C344.18071,-418.611068 304.325022,-446.584383 304.325022,-471.597725 Z" mask="url(#mask-18)"/></g><path id="Path-187" stroke="#163150" stroke-linecap="round" stroke-width="2" d="M696.116245,925.956733 C698.447946,960.703161 732.272857,982.887762 758.190348,982.053156"/><path id="Path-187-Copy" stroke="#163150" stroke-linecap="round" stroke-width="2" d="M1086.81548,915.958817 C1103.24143,961.901053 1180.87296,990.174237 1200.46096,988.326275" transform="translate(1143.638222, 952.185243) rotate(-52.000000) translate(-1143.638222, -952.185243)"/><path id="Path-189" stroke="#163150" stroke-linecap="round" stroke-width="2" d="M605.925197,873.353056 C632.783693,870.741307 644.371915,904.22587 632.783693,918.202965"/></g></g></svg>