<svg xmlns="http://www.w3.org/2000/svg" xmlns:xlink="http://www.w3.org/1999/xlink" id="character-choice-text" data-name="Character Choice Text" viewBox="0 0 1000 257.783"><defs><filter id="InnerShadow" name="InnerShadow"><feOffset dx="2" dy="3"/><feGaussianBlur result="offset-blur" stdDeviation="1"/><feComposite in="SourceGraphic" in2="offset-blur" operator="out" result="inverse"/><feFlood flood-color="#000" flood-opacity=".4" result="color"/><feComposite in="color" in2="inverse" operator="in" result="shadow"/><feComposite in="shadow" in2="SourceGraphic"/></filter></defs><title>Character Choice Text</title><path d="M1059.4071,272.3378a8.3154,8.3154,0,0,1,.259,2.6749,9.6358,9.6358,0,0,1-3.7108,7.68,9.1814,9.1814,0,0,1-7.2478,2.5023,6.8044,6.8044,0,0,0-2.5888-.0863,24.5018,24.5018,0,0,1-.6039,5.5224,3.3594,3.3594,0,0,0,1.8119,3.1064,8.9358,8.9358,0,0,1,5.7813,0,5.4639,5.4639,0,0,1,3.8831,4.6595,11.07,11.07,0,0,1-2.1574,7.55,20.781,20.781,0,0,1-7.1615,6.4284,18.9013,18.9013,0,0,1-9.5781,2.33,20.3628,20.3628,0,0,1-8.7148-1.8121q-1.64-.7766-4.9183-4.8321-3.5382-5.8675-3.6246-24.7644a176.6229,176.6229,0,0,1,1.8121-24.8507q1.1222-8.1111,4.66-10.5271l14.41-1.4668a34.5556,34.5556,0,0,1,7.0757-.7766q6.7305,0,7.9383,3.3652a8.79,8.79,0,0,1,.5175,3.1063,7.5337,7.5337,0,0,1-2.7608,6.04q-2.7617,2.33-7.68,2.33a16.1794,16.1794,0,0,1-1.8983-.0863,11.2732,11.2732,0,0,0-.69,4.1418q-.1725,3.624-.2591,4.1418a2.0774,2.0774,0,0,0,1.8125,1.5531,9.8208,9.8208,0,0,1,6.2991-1.9846A8.7671,8.7671,0,0,1,1059.4071,272.3378Zm-68.9434-7.4207h-.0863a2.844,2.844,0,0,0-.8631-.1725,12.8727,12.8727,0,0,0-2.675,1.208q-.345.3451-.2586,4.4006.0858,4.7459.0864,8.9739a15.4283,15.4283,0,0,0,5.5651-3.2358,6.0833,6.0833,0,0,0,2.2867-4.4438Q994.5189,268.4549,990.4637,264.9171Zm24.6778,40.21h-.0864A17.7592,17.7592,0,0,1,1011,310.3905a13.5807,13.5807,0,0,1-7.5069,3.7966q-7.3346.7767-15.0139-14.9277a34.6287,34.6287,0,0,1,.2585,3.883q0,5.35-2.5887,8.4561a13.83,13.83,0,0,1-7.9382,2.7612,12.8321,12.8321,0,0,1-3.1063-.3451q-5.091-1.2943-6.6439-3.279-2.0711-2.5885-2.071-9.319v-3.4515q-.2592-.2588.1727-15.4454a214.4077,214.4077,0,0,1,1.9841-26.145q1.1223-6.4716,9.1468-8.8876,3.7964-1.1217,14.9275-2.2435,13.202.4315,18.12,8.8013a37.1076,37.1076,0,0,1,3.6245,15.3592,19.21,19.21,0,0,1-3.883,11.9939,62.71,62.71,0,0,1-4.9183,4.5732q9.75,10.5272,9.75,17.6026A10.3929,10.3929,0,0,1,1015.1415,305.127Zm-54.8783-49.0975.0858-.0862q.3458,4.0554.3455,9.06a103.5448,103.5448,0,0,1-6.299,36.5858,22.7221,22.7221,0,0,1-5.1339,7.9816,17.0943,17.0943,0,0,1-7.2913,4.7026,47.6493,47.6493,0,0,1-6.903.5177q-9.5781,0-16.05-4.4869a22.2559,22.2559,0,0,1-8.715-11.9939q-1.8986-5.8675-1.8983-16.222,0-15.5318,3.02-25.8862a11.4926,11.4926,0,0,1,4.0987-5.695,12.3754,12.3754,0,0,1,6.3424-2.8474,8.7022,8.7022,0,0,1,5.4789,1.4237,10.4128,10.4128,0,0,1,4.0128,4.3575,35.5931,35.5931,0,0,1,.2586,4.4007,96.85,96.85,0,0,1-1.5529,12.1665,98.0924,98.0924,0,0,0-1.5535,11.9939,26.8908,26.8908,0,0,0,.3455,4.5732,6.4439,6.4439,0,0,0,2.8472,2.9338q2.8474.3451,4.0557-.69a11.2392,11.2392,0,0,0,2.7609-6.3853q-.0858-5.8675.2591-15.1.8631-7.4208,1.1216-9.1465a38.6679,38.6679,0,0,1,1.6392-7.5069q3.1067-5.0048,7.0757-4.9184a10.4285,10.4285,0,0,1,6.8166,2.8475A18.1172,18.1172,0,0,1,960.2632,256.0295Zm-92.1551,41.9568q.0066.4969.3455-9.0813l.4313-11.0448a67.9537,67.9537,0,0,1,1.1215-8.9739,5.2294,5.2294,0,0,1-1.5528.1726,18.97,18.97,0,0,1-5.8678-.9491q-3.9687-1.2944-5.4358-3.7967a13.26,13.26,0,0,1-2.0711-6.6441q0-5.1772,5.695-8.0247,7.3345-3.71,17.689-3.71a66.5219,66.5219,0,0,1,11.39,1.0355q2.8474,1.0354,8.6286,3.1926,4.8318,2.5024,5.695,6.8167h.0864a17.791,17.791,0,0,1,.2585,3.3652q-.0858,4.3144-2.0705,6.5578-.7773.8629-6.9465,2.0278t-6.3418,1.51q-.1725.9492,1.9846,18.034a55.6834,55.6834,0,0,1,.4313,6.903,34.6469,34.6469,0,0,1-2.071,12.9431q-2.5885,6.3854-7.5934,6.2127-8.111-.2589-11.3036-5.091-2.4135-3.62-2.5017-11.4583ZM849.9015,263.364v-.0863q.8631,10.0094.8632,18.8969,0,27.3531-9.06,30.7182a9.0623,9.0623,0,0,1-3.1926.5177,24.25,24.25,0,0,1-5.6086-.8628q-4.3146-2.416-13.202-27.6982a57.46,57.46,0,0,1,1.5535,13.1156q0,7.1619-2.0712,11.39a8.0788,8.0788,0,0,1-3.4083,3.4084,7.59,7.59,0,0,1-4.7026,1.1649q-7.1621-.69-9.7507-8.715-1.7253-5.35-1.7256-16.5672,0-21.8307,1.8119-29.3377a15.96,15.96,0,0,1,6.299-9.2327,10.5953,10.5953,0,0,1,6.3854-2.0709,12.4611,12.4611,0,0,1,3.7967.6041q5.0041,2.6748,9.8365,15.9631a107.9264,107.9264,0,0,1,3.7108,12.6842q-.863-5.695-1.4671-10.0093a92.1636,92.1636,0,0,1-1.0352-11.1311,10.7243,10.7243,0,0,1,2.2432-6.9892,8.9041,8.9041,0,0,1,7.3343-3.1927q8.37,0,10.4411,9.3191A78.8587,78.8587,0,0,1,849.9015,263.364Zm-56.5181,8.9738a8.3126,8.3126,0,0,1,.2591,2.6749,9.6367,9.6367,0,0,1-3.71,7.68,9.183,9.183,0,0,1-7.2484,2.5023,6.8033,6.8033,0,0,0-2.5886-.0863,24.511,24.511,0,0,1-.604,5.5224,3.36,3.36,0,0,0,1.812,3.1064,8.9359,8.9359,0,0,1,5.7813,0,5.4632,5.4632,0,0,1,3.883,4.6595,11.0672,11.0672,0,0,1-2.1574,7.55,20.78,20.78,0,0,1-7.1615,6.4284,18.9017,18.9017,0,0,1-9.578,2.33,20.3637,20.3637,0,0,1-8.715-1.8121q-1.6395-.7766-4.9183-4.8321-3.538-5.8675-3.6244-24.7644a176.5383,176.5383,0,0,1,1.8125-24.8507q1.1214-8.1111,4.6592-10.5271l14.41-1.4668a34.56,34.56,0,0,1,7.0757-.7766q6.7305,0,7.9382,3.3652a8.7875,8.7875,0,0,1,.5182,3.1063,7.5339,7.5339,0,0,1-2.7614,6.04q-2.7617,2.33-7.68,2.33a16.1825,16.1825,0,0,1-1.8984-.0863,11.274,11.274,0,0,0-.69,4.1418q-.1725,3.624-.2586,4.1418a2.0758,2.0758,0,0,0,1.812,1.5531,9.82,9.82,0,0,1,6.2989-1.9846A8.7661,8.7661,0,0,1,793.3834,272.3378Zm-46.7679-22.9524q3.2791,2.33,3.2791,9.06,0,14.4963-14.2372,46.94a14.569,14.569,0,0,1-11.6491,9.1465,12.82,12.82,0,0,1-1.8983.1726,19.962,19.962,0,0,1-8.1973-1.7258,12.5107,12.5107,0,0,1-5.6944-4.5732,72.001,72.001,0,0,1-8.8877-21.7444,88.8365,88.8365,0,0,1-2.6751-20.8815q0-7.0756,1.0353-10.2682a10.0713,10.0713,0,0,1,5.0046-5.8675,11.4324,11.4324,0,0,1,6.1268-1.5532q5.8676.3451,8.1974,4.9184,1.9844,4.0555,3.2785,16.1357l1.1221,10.7859q.69-6.2127,2.2433-18.4223t6.2989-14.4531a15.3645,15.3645,0,0,1,6.6439-1.4669A14.09,14.09,0,0,1,746.6155,249.3854Zm-76.6229,19.2421a3.25,3.25,0,0,0-2.33-1.4669,3.3445,3.3445,0,0,0-1.2944.3451,5.5841,5.5841,0,0,1-.863.3452,171.0789,171.0789,0,0,1,1.2085,20.3638,13.1414,13.1414,0,0,0,4.1845-5.091,15.095,15.095,0,0,0,1.6827-6.8167A11.8058,11.8058,0,0,0,669.9926,268.6275Zm21.572,7.7658a44.4441,44.4441,0,0,1-5.1774,21.4855A29.7818,29.7818,0,0,1,667.663,313.238a28.8938,28.8938,0,0,1-12.1232-1.5963q-5.3931-2.0279-5.6521-5.3067-1.553-23.0388-1.5529-44.2654,0-7.852.3449-11.2173,2.1576-4.6594,13.8923-4.66a41.1625,41.1625,0,0,1,11.8212,1.5532,26.3742,26.3742,0,0,1,9.8371,8.2835Q691.5649,265.6937,691.5646,276.3933Zm-71.9633,7.68q.6039-6.9892-.8631-21.8307-.6039-.6041-1.8119.4315-1.1222,7.3344-1.64,11.9076-.8624,8.0247-.604,9.1464a1.4975,1.4975,0,0,0,1.467.9492,12.5559,12.5559,0,0,0,1.7691-.302A14.0165,14.0165,0,0,1,619.6013,284.0729Zm21.83,22.6072v.0863a6.1939,6.1939,0,0,1-5.091,5.1773,19.1657,19.1657,0,0,1-4.487.5177,11.2872,11.2872,0,0,1-6.903-1.9846,23.5252,23.5252,0,0,1-2.2432-3.2789,12.93,12.93,0,0,1-1.1221-5.7813,47.5629,47.5629,0,0,0-7.8519.3452q.1725.7765.3449,2.33a15.8063,15.8063,0,0,1-1.9847,7.3344,8.4124,8.4124,0,0,1-7.3342,3.5378,24.6447,24.6447,0,0,1-5.7812-.8629l-.1726-.1725q-7.3344-3.6241-7.3344-18.0341,0-.949.1726-4.4869a124.8058,124.8058,0,0,1,2.5023-21.2267,51.5883,51.5883,0,0,1,9.1465-19.5008q5.0908-6.6442,14.7551-6.6442,10.3543,0,15.6179,6.4715a22.6335,22.6335,0,0,1,4.4006,8.8876q4.7461,18.2067,4.7461,32.0126A80.6434,80.6434,0,0,1,641.4318,306.68Zm-104.4076-41.763h-.0863a2.8407,2.8407,0,0,0-.8629-.1725,12.8657,12.8657,0,0,0-2.6749,1.208q-.3451.3451-.2589,4.4006.0864,4.7459.0863,8.9739a15.4318,15.4318,0,0,0,5.5655-3.2358,6.085,6.085,0,0,0,2.2867-4.4438Q541.08,268.4549,537.0242,264.9171Zm24.6781,40.21h-.0863a17.759,17.759,0,0,1-4.0555,5.2635,13.58,13.58,0,0,1-7.507,3.7966q-7.3344.7767-15.014-14.9277a34.5206,34.5206,0,0,1,.2589,3.883q0,5.35-2.5886,8.4561a13.8324,13.8324,0,0,1-7.9384,2.7612,12.8323,12.8323,0,0,1-3.1064-.3451q-5.0908-1.2943-6.6441-3.279-2.0709-2.5885-2.0709-9.319v-3.4515q-.2589-.2588.1726-15.4454a214.3261,214.3261,0,0,1,1.9846-26.145q1.1217-6.4716,9.1465-8.8876,3.7965-1.1217,14.9276-2.2435,13.2021.4315,18.12,8.8013a37.1047,37.1047,0,0,1,3.624,15.3592,19.2074,19.2074,0,0,1-3.8829,11.9939,62.6587,62.6587,0,0,1-4.9184,4.5732q9.75,10.5272,9.75,17.6026A10.3762,10.3762,0,0,1,561.7023,305.127Zm-54.8787-49.0975.0863-.0862q.3451,4.0554.3451,9.06a103.5425,103.5425,0,0,1-6.2989,36.5858,22.72,22.72,0,0,1-5.1341,7.9816,17.0908,17.0908,0,0,1-7.2913,4.7026,47.6427,47.6427,0,0,1-6.9029.5177q-9.5779,0-16.0495-4.4869a22.2533,22.2533,0,0,1-8.7149-11.9939q-1.8984-5.8675-1.8984-16.222,0-15.5318,3.02-25.8862a11.4893,11.4893,0,0,1,4.0986-5.695,12.3756,12.3756,0,0,1,6.3421-2.8474,8.703,8.703,0,0,1,5.4793,1.4237,10.4135,10.4135,0,0,1,4.0123,4.3575,35.5135,35.5135,0,0,1,.2589,4.4007,96.8126,96.8126,0,0,1-1.5532,12.1665A98.1529,98.1529,0,0,0,475.07,282.002a26.9343,26.9343,0,0,0,.3452,4.5732,6.4444,6.4444,0,0,0,2.8475,2.9338q2.8474.3451,4.0555-.69a11.2428,11.2428,0,0,0,2.7612-6.3853q-.0864-5.8675.2588-15.1.8628-7.4208,1.1217-9.1465a38.6493,38.6493,0,0,1,1.64-7.5069q3.1063-5.0048,7.0755-4.9184a10.43,10.43,0,0,1,6.8168,2.8475A18.1154,18.1154,0,0,1,506.8236,256.0295Zm-80.9374,36.8447v-.0863q2.5023-.4314,2.5023-9.5779a46.5017,46.5017,0,0,0-.9491-9.7073q-.9492-4.4437-2.0709-4.6164-1.8984-.5177-3.4515,4.1418a32.3144,32.3144,0,0,0-1.5532,10.2682Q420.3638,293.7371,425.8862,292.8742Zm21.3993,6.2127.0862.0863a21.1322,21.1322,0,0,1-7.8953,11.0447,21.8433,21.8433,0,0,1-13.0725,4.0555q-13.72,0-21.3129-10.3544-6.4716-8.8014-6.4716-21.3993a51.95,51.95,0,0,1,1.0355-10.7q4.7457-22.521,20.1049-25.3684a15.9073,15.9073,0,0,1,2.9338-.2589,23.0826,23.0826,0,0,1,13.4177,4.5732,22.4239,22.4239,0,0,1,8.7581,11.1311q4.8321,14.2374,4.8321,22.1758a52.4138,52.4138,0,0,1-2.5024,15.014ZM350.73,247.8323h.0864a9.9491,9.9491,0,0,1,4.6594-1.1218q5.35,0,7.68,4.2281,1.8984,2.0709,3.6241,7.5933,2.2434,7.2481,2.5886,7.8521,3.7967-16.2221,8.8876-21.2267a13.7981,13.7981,0,0,1,5.0909-.9491,9.3568,9.3568,0,0,1,6.4715,2.1572q4.5734,3.02,4.5732,9.923a53.1688,53.1688,0,0,1-4.4006,15.4454q-2.1572,4.8321-7.2481,14.2374,0,3.71-.0863,10.9585a29.0767,29.0767,0,0,1-1.9846,10.6133,12.2227,12.2227,0,0,1-7.507,6.903,18.246,18.246,0,0,1-1.9846.1726q-6.903,0-9.5779-5.4361a28.0382,28.0382,0,0,1-1.208-9.06q0-2.6749.0863-5.0046.0863-3.1064,0-4.66-14.1512-24.1605-14.1511-34.3423Q346.3294,250.0758,350.73,247.8323Zm-67.8216,50.154q.006.4969.345-9.0813l.4314-11.0448a67.9494,67.9494,0,0,1,1.1218-8.9739,5.2338,5.2338,0,0,1-1.5532.1726,18.9685,18.9685,0,0,1-5.8675-.9491q-3.9692-1.2944-5.4361-3.7967a13.2611,13.2611,0,0,1-2.0709-6.6441q0-5.1772,5.6949-8.0247,7.3346-3.71,17.6889-3.71a66.52,66.52,0,0,1,11.39,1.0355q2.8474,1.0354,8.6287,3.1926,4.8321,2.5024,5.6949,6.8167h.0863a17.7448,17.7448,0,0,1,.2589,3.3652q-.0863,4.3144-2.0709,6.5578-.7766.8629-6.9461,2.0278t-6.3421,1.51q-.1726.9492,1.9845,18.034a55.5871,55.5871,0,0,1,.4315,6.903,34.6491,34.6491,0,0,1-2.0709,12.9431q-2.5886,6.3854-7.5933,6.2127-8.111-.2589-11.3036-5.091-2.4133-3.62-2.5021-11.4583Zm-41.8495-33.0692h-.0862a2.8407,2.8407,0,0,0-.8629-.1725,12.8657,12.8657,0,0,0-2.6749,1.208q-.3451.3451-.2589,4.4006.0864,4.7459.0863,8.9739a15.4309,15.4309,0,0,0,5.5655-3.2358,6.0847,6.0847,0,0,0,2.2867-4.4438Q245.1145,268.4549,241.0589,264.9171Zm24.6782,40.21h-.0863a17.759,17.759,0,0,1-4.0555,5.2635,13.58,13.58,0,0,1-7.507,3.7966q-7.3344.7767-15.0139-14.9277a34.5417,34.5417,0,0,1,.2588,3.883q0,5.35-2.5886,8.4561a13.8324,13.8324,0,0,1-7.9384,2.7612,12.8315,12.8315,0,0,1-3.1063-.3451q-5.091-1.2943-6.6442-3.279-2.0709-2.5885-2.0709-9.319v-3.4515q-.2588-.2588.1726-15.4454a214.3669,214.3669,0,0,1,1.9846-26.145q1.1217-6.4716,9.1465-8.8876,3.7967-1.1217,14.9276-2.2435,13.2021.4315,18.12,8.8013a37.1047,37.1047,0,0,1,3.624,15.3592,19.2074,19.2074,0,0,1-3.8829,11.9939,62.638,62.638,0,0,1-4.9184,4.5732q9.7506,10.5272,9.75,17.6026A10.39,10.39,0,0,1,265.7371,305.127Zm-77.5722-21.0541q.6041-6.9892-.8628-21.8307-.6042-.6041-1.8121.4315-1.1217,7.3344-1.6395,11.9076-.8628,8.0247-.604,9.1464a1.4974,1.4974,0,0,0,1.4669.9492,12.5456,12.5456,0,0,0,1.7689-.302A14.0308,14.0308,0,0,1,188.1649,284.0729ZM209.9956,306.68v.0863a6.1942,6.1942,0,0,1-5.0909,5.1773,19.1663,19.1663,0,0,1-4.487.5177,11.2868,11.2868,0,0,1-6.903-1.9846,23.5767,23.5767,0,0,1-2.2435-3.2789,12.9348,12.9348,0,0,1-1.1217-5.7813,47.5666,47.5666,0,0,0-7.8521.3452q.1725.7765.3451,2.33a15.811,15.811,0,0,1-1.9846,7.3344,8.413,8.413,0,0,1-7.3344,3.5378,24.644,24.644,0,0,1-5.7812-.8629l-.1726-.1725q-7.3346-3.6241-7.3344-18.0341,0-.949.1726-4.4869a124.8161,124.8161,0,0,1,2.5023-21.2267,51.5881,51.5881,0,0,1,9.1464-19.5008q5.091-6.6442,14.7552-6.6442,10.3544,0,15.6179,6.4715a22.64,22.64,0,0,1,4.4007,8.8876q4.7458,18.2067,4.7458,32.0126A80.6354,80.6354,0,0,1,209.9956,306.68Zm-90.0838-8.6938q.006.4969.3451-9.0813l.4314-11.0448a67.9508,67.9508,0,0,1,1.1217-8.9739,5.2326,5.2326,0,0,1-1.5531.1726,18.9691,18.9691,0,0,1-5.8676-.9491q-3.9691-1.2944-5.4361-3.7967a13.2611,13.2611,0,0,1-2.0709-6.6441q0-5.1772,5.695-8.0247,7.3346-3.71,17.6889-3.71a66.5192,66.5192,0,0,1,11.39,1.0355q2.8474,1.0354,8.6287,3.1926,4.8321,2.5024,5.695,6.8167h.0862a17.7365,17.7365,0,0,1,.2589,3.3652q-.0863,4.3144-2.0709,6.5578-.7765.8629-6.9461,2.0278t-6.3421,1.51q-.1727.9492,1.9846,18.034a55.6063,55.6063,0,0,1,.4314,6.903,34.6491,34.6491,0,0,1-2.0709,12.9431q-2.5886,6.3854-7.5932,6.2127-8.1111-.2589-11.3036-5.091-2.4134-3.62-2.5022-11.4583Zm-44.2654-1.4018h.0863q3.1064-.7765,3.1926-3.1063a2.3688,2.3688,0,0,0-.7335-1.6395,41.7566,41.7566,0,0,0-5.4792-3.71A38.8116,38.8116,0,0,1,66.9314,283.9a23.8725,23.8725,0,0,1-4.5733-6.5578,24.7764,24.7764,0,0,1-2.6749-11.0448q0-8.111,6.3853-14.4962a23.08,23.08,0,0,1,16.9123-7.0756,19.9582,19.9582,0,0,1,10.2682,2.6749,22.5633,22.5633,0,0,1,6.1263,6.3853,7.7819,7.7819,0,0,1,1.4669,3.8829q.0864,2.1572-2.0709,5.2635l.0863.0863q-2.7612,3.8829-5.7812,3.8829a13.13,13.13,0,0,1-2.8475-.4314q-2.7612-.69-3.1926-4.8321-.1726-1.6395-2.5024-1.6395a3.9312,3.9312,0,0,0-2.1571.6041,7.1064,7.1064,0,0,0-.9492,3.4515,5.8864,5.8864,0,0,0,2.7612,4.9183q10.182,7.2482,11.9939,8.9739,6.4716,6.1264,6.903,12.8568.0862,1.64.2589,4.4006.1725,11.1312-13.3746,17.3438a23.2557,23.2557,0,0,1-9.6641,2.33,14.2735,14.2735,0,0,1-1.8983-.1725l-.1726-.0863q-16.5672-2.6749-17.8615-12.5117-.3451-2.2434-.4746-3.1495t-.1294-.5608a6.2976,6.2976,0,0,1,1.3806-4.0555,3.9571,3.9571,0,0,1,3.1063-1.7258q.7767,0,4.5733,2.0278t5.2635,2.0277a7.6744,7.6744,0,0,0,1.4669-.1726ZM693.9805,175.1137a3.2507,3.2507,0,0,0-2.33-1.4669,3.3419,3.3419,0,0,0-1.2943.3452,5.5713,5.5713,0,0,1-.8631.3451,171,171,0,0,1,1.208,20.3638,13.1363,13.1363,0,0,0,4.185-5.091,15.1011,15.1011,0,0,0,1.6827-6.8166A11.8088,11.8088,0,0,0,693.9805,175.1137Zm21.572,7.7659a44.4446,44.4446,0,0,1-5.1774,21.4855,29.7817,29.7817,0,0,1-18.7242,15.3591,28.8938,28.8938,0,0,1-12.1232-1.5963q-5.3929-2.0277-5.6521-5.3067-1.553-23.0388-1.5529-44.2654,0-7.852.3449-11.2173,2.1569-4.6594,13.8923-4.66a41.1662,41.1662,0,0,1,11.8213,1.5532,26.38,26.38,0,0,1,9.8371,8.2835Q715.552,172.18,715.5525,182.88ZM665.42,169.85v-.0863q.8622,10.0094.8625,18.8969,0,27.3533-9.06,30.7182a9.0652,9.0652,0,0,1-3.1927.5178,24.2487,24.2487,0,0,1-5.6087-.8629q-4.3145-2.416-13.2019-27.6982a57.4932,57.4932,0,0,1,1.5529,13.1156q0,7.1619-2.0711,11.39a8.0764,8.0764,0,0,1-3.4083,3.4083,7.59,7.59,0,0,1-4.7026,1.1649q-7.1613-.69-9.75-8.715-1.7262-5.35-1.7256-16.5671,0-21.8308,1.812-29.3377a15.9571,15.9571,0,0,1,6.2989-9.2328,10.5942,10.5942,0,0,1,6.3854-2.0709,12.4623,12.4623,0,0,1,3.7966.6041q5.0045,2.6748,9.8366,15.9631a108.0734,108.0734,0,0,1,3.71,12.6842q-.8631-5.6949-1.4671-10.0093a92.16,92.16,0,0,1-1.0352-11.1311,10.724,10.724,0,0,1,2.2432-6.9892A8.905,8.905,0,0,1,654.03,152.42q8.37,0,10.44,9.3191A78.9979,78.9979,0,0,1,665.42,169.85Zm-79.3845,20.7089q.604-6.9893-.8629-21.8306-.6041-.6042-1.812.4314-1.1217,7.3344-1.6394,11.9076-.8629,8.0248-.6041,9.1465a1.4975,1.4975,0,0,0,1.4669.9491,12.532,12.532,0,0,0,1.7689-.302A14.0082,14.0082,0,0,1,586.0353,190.5591Zm21.8306,22.6073v.0862a6.1939,6.1939,0,0,1-5.0909,5.1773,19.1589,19.1589,0,0,1-4.4869.5177,11.2868,11.2868,0,0,1-6.903-1.9846,23.5723,23.5723,0,0,1-2.2434-3.2789,12.9329,12.9329,0,0,1-1.1218-5.7812,47.5546,47.5546,0,0,0-7.8521.3451q.1725.7766.3451,2.33a15.8107,15.8107,0,0,1-1.9846,7.3344,8.413,8.413,0,0,1-7.3344,3.5378,24.6484,24.6484,0,0,1-5.7812-.8628l-.1726-.1726q-7.3345-3.6242-7.3345-18.0341,0-.949.1726-4.4869a124.8144,124.8144,0,0,1,2.5024-21.2267,51.5888,51.5888,0,0,1,9.1464-19.5008q5.091-6.6442,14.7551-6.6442,10.3547,0,15.618,6.4716a22.64,22.64,0,0,1,4.4007,8.8876q4.7457,18.2067,4.7458,32.0125A80.6534,80.6534,0,0,1,607.8659,213.1664ZM503.4585,171.4033h-.0864a2.84,2.84,0,0,0-.8628-.1725,12.8657,12.8657,0,0,0-2.6749,1.208q-.3451.3452-.2589,4.4007.0863,4.7457.0863,8.9738a15.4318,15.4318,0,0,0,5.5655-3.2358,6.0849,6.0849,0,0,0,2.2866-4.4438Q507.5139,174.9411,503.4585,171.4033Zm24.6781,40.21H528.05a17.7607,17.7607,0,0,1-4.0555,5.2635,13.58,13.58,0,0,1-7.507,3.7966q-7.3344.7767-15.014-14.9276a34.5175,34.5175,0,0,1,.2589,3.8829q0,5.35-2.5887,8.4562a13.8324,13.8324,0,0,1-7.9384,2.7611,12.8315,12.8315,0,0,1-3.1063-.3451q-5.091-1.2943-6.6441-3.279-2.0709-2.5885-2.0709-9.3189v-3.4516q-.2589-.2588.1726-15.4454a214.3261,214.3261,0,0,1,1.9846-26.145q1.1217-6.4716,9.1464-8.8876,3.7967-1.1217,14.9277-2.2434,13.202.4314,18.12,8.8013A37.1027,37.1027,0,0,1,527.36,175.89a19.2059,19.2059,0,0,1-3.8829,11.9939,62.6268,62.6268,0,0,1-4.9183,4.5732q9.75,10.5272,9.75,17.6026A10.3865,10.3865,0,0,1,528.1366,211.6132ZM473.4305,178.824a8.3017,8.3017,0,0,1,.2588,2.675,9.6355,9.6355,0,0,1-3.71,7.68,9.1821,9.1821,0,0,1-7.2482,2.5024,6.8006,6.8006,0,0,0-2.5885-.0863,24.4934,24.4934,0,0,1-.6041,5.5223,3.36,3.36,0,0,0,1.812,3.1064,8.9359,8.9359,0,0,1,5.7813,0,5.4638,5.4638,0,0,1,3.883,4.66,11.07,11.07,0,0,1-2.1572,7.55,20.7806,20.7806,0,0,1-7.1619,6.4284,18.9013,18.9013,0,0,1-9.5779,2.33,20.3634,20.3634,0,0,1-8.715-1.8121q-1.6395-.7765-4.9183-4.832-3.5379-5.8677-3.6241-24.7645a176.5012,176.5012,0,0,1,1.812-24.8507q1.1217-8.1111,4.6595-10.5271l14.41-1.4668a34.556,34.556,0,0,1,7.0755-.7766q6.7305,0,7.9385,3.3652a8.7967,8.7967,0,0,1,.5177,3.1063,7.5332,7.5332,0,0,1-2.7612,6.04q-2.7612,2.33-7.68,2.33a16.177,16.177,0,0,1-1.8983-.0863,11.2694,11.2694,0,0,0-.69,4.1418q-.1725,3.624-.2588,4.1418a2.0768,2.0768,0,0,0,1.812,1.5532,9.8213,9.8213,0,0,1,6.299-1.9846A8.7668,8.7668,0,0,1,473.4305,178.824Zm-78.78,25.6484q.006.4973.3451-9.0812l.4314-11.0448a67.9469,67.9469,0,0,1,1.1217-8.9738,5.2366,5.2366,0,0,1-1.5531.1725,18.9661,18.9661,0,0,1-5.8676-.9491q-3.9692-1.2944-5.436-3.7966a13.2607,13.2607,0,0,1-2.0709-6.6442q0-5.1773,5.6949-8.0247,7.3344-3.71,17.6889-3.71a66.5183,66.5183,0,0,1,11.39,1.0355q2.8474,1.0355,8.6287,3.1926,4.8322,2.5024,5.695,6.8167h.0863a17.7459,17.7459,0,0,1,.2588,3.3652q-.0863,4.3145-2.0709,6.5579-.7765.8628-6.9461,2.0277t-6.3421,1.51q-.1725.9492,1.9846,18.034a55.5887,55.5887,0,0,1,.4315,6.9031,34.6489,34.6489,0,0,1-2.0709,12.943q-2.5887,6.3853-7.5933,6.2127-8.111-.2589-11.3036-5.0909-2.4134-3.62-2.5022-11.4584Zm-16.74-5.8886v1.2943q.0863.8629.0863,1.2081,0,12.5979-9.5779,17.0848a26.7506,26.7506,0,0,1-11.4762,2.5023q-8.1973,0-13.3745-4.5732-10.8721-9.5779-10.7859-26.9216a94.7275,94.7275,0,0,1,1.8121-17.2574,33.554,33.554,0,0,1,5.9537-13.72,15.9286,15.9286,0,0,1,6.5147-5.0478,21.9445,21.9445,0,0,1,9.19-1.9415,20.3564,20.3564,0,0,1,10.6565,2.977,20.99,20.99,0,0,1,7.7227,7.9815,14.6057,14.6057,0,0,1,1.7257,6.73,11.52,11.52,0,0,1-1.7257,6.4716q-2.416,3.9691-6.2127,4.4006-6.04.6041-10.7-5.4361-.0862-.2589-.3452-2.0709-.1725-1.3806-1.2942-1.2943l-.8629,1.5532q-.8629,18.293-.8629,18.7243,0,2.5023.1726,4.9184a3.3782,3.3782,0,0,0,2.0709,3.1926q1.9847-.0863,6.86-4.4007t6.6873-4.3143a7.4556,7.4556,0,0,1,2.8474.604Q377.9106,192.7163,377.9105,198.5838Zm-73.5167-8.0247q.604-6.9893-.8629-21.8306-.604-.6042-1.812.4314-1.1217,7.3344-1.6395,11.9076-.8628,8.0248-.604,9.1465a1.4974,1.4974,0,0,0,1.4669.9491,12.532,12.532,0,0,0,1.7689-.302A14.0082,14.0082,0,0,1,304.3938,190.5591Zm21.8307,22.6073v.0862a6.1941,6.1941,0,0,1-5.091,5.1773,19.1589,19.1589,0,0,1-4.4869.5177,11.2866,11.2866,0,0,1-6.903-1.9846,23.5531,23.5531,0,0,1-2.2434-3.2789,12.9329,12.9329,0,0,1-1.1218-5.7812,47.5542,47.5542,0,0,0-7.8521.3451q.1725.7766.3451,2.33a15.8107,15.8107,0,0,1-1.9846,7.3344,8.413,8.413,0,0,1-7.3344,3.5378,24.6477,24.6477,0,0,1-5.7812-.8628l-.1726-.1726q-7.3345-3.6242-7.3345-18.0341,0-.949.1726-4.4869a124.8041,124.8041,0,0,1,2.5024-21.2267,51.5888,51.5888,0,0,1,9.1464-19.5008q5.091-6.6442,14.7551-6.6442,10.3546,0,15.618,6.4716a22.6382,22.6382,0,0,1,4.4006,8.8876q4.746,18.2067,4.7459,32.0125A80.6372,80.6372,0,0,1,326.2245,213.1664Zm-80.2472-41.7631h-.0862a2.8407,2.8407,0,0,0-.8629-.1725,12.8632,12.8632,0,0,0-2.6749,1.208q-.3451.3452-.2589,4.4007.0863,4.7457.0863,8.9738a15.4326,15.4326,0,0,0,5.5655-3.2358,6.0847,6.0847,0,0,0,2.2867-4.4438Q250.0329,174.9411,245.9773,171.4033Zm24.6782,40.21h-.0863a17.7607,17.7607,0,0,1-4.0555,5.2635,13.58,13.58,0,0,1-7.507,3.7966q-7.3344.7767-15.014-14.9276a34.5175,34.5175,0,0,1,.2589,3.8829q0,5.35-2.5886,8.4562a13.8329,13.8329,0,0,1-7.9384,2.7611,12.8323,12.8323,0,0,1-3.1064-.3451q-5.091-1.2943-6.6441-3.279-2.0709-2.5885-2.0709-9.3189v-3.4516q-.2589-.2588.1726-15.4454a214.3465,214.3465,0,0,1,1.9846-26.145q1.1217-6.4716,9.1464-8.8876,3.7968-1.1217,14.9277-2.2434,13.2021.4314,18.12,8.8013a37.1043,37.1043,0,0,1,3.624,15.3591,19.2072,19.2072,0,0,1-3.8829,11.9939,62.638,62.638,0,0,1-4.9184,4.5732q9.7506,10.5272,9.75,17.6026A10.39,10.39,0,0,1,270.6555,211.6132Zm-77.5722-21.0541q.604-6.9893-.8629-21.8306-.6041-.6042-1.812.4314-1.1218,7.3344-1.6395,11.9076-.8628,8.0248-.604,9.1465a1.4974,1.4974,0,0,0,1.4669.9491,12.532,12.532,0,0,0,1.7689-.302A14.0046,14.0046,0,0,1,193.0833,190.5591Zm21.8306,22.6073v.0862a6.194,6.194,0,0,1-5.0909,5.1773,19.16,19.16,0,0,1-4.4869.5177,11.2868,11.2868,0,0,1-6.903-1.9846,23.5671,23.5671,0,0,1-2.2435-3.2789,12.9343,12.9343,0,0,1-1.1217-5.7812,47.5562,47.5562,0,0,0-7.8522.3451q.1727.7766.3452,2.33a15.8119,15.8119,0,0,1-1.9846,7.3344,8.413,8.413,0,0,1-7.3344,3.5378,24.6491,24.6491,0,0,1-5.7813-.8628l-.1726-.1726q-7.3344-3.6242-7.3344-18.0341,0-.949.1726-4.4869a124.8041,124.8041,0,0,1,2.5024-21.2267,51.5888,51.5888,0,0,1,9.1464-19.5008q5.091-6.6442,14.7551-6.6442,10.3545,0,15.618,6.4716a22.6382,22.6382,0,0,1,4.4006,8.8876q4.746,18.2067,4.7458,32.0125A80.6372,80.6372,0,0,1,214.9139,213.1664ZM113.0087,157.77h-.0862a12.9837,12.9837,0,0,1,9.5778-3.7967q4.8321,0,7.0756,1.2943,2.5023,2.5025,2.6749,7.8522-.5178,4.228-.7766,11.3036,1.0355,3.7967,3.1063,3.7967a6.5455,6.5455,0,0,0,2.4161-.7766q.9492-.4315,1.4668-3.5378-.5177-4.487-.69-12.3391.3451-4.4869,5.695-7.7659,1.0355-.6039,5.091-.7766a18.1243,18.1243,0,0,1,4.0555.1727q3.8829,1.0355,5.1772,5.8674.4314,1.467.9492,2.9339a24.65,24.65,0,0,1,.8628,5.7812q.5178,12.08.5178,18.12a102.8373,102.8373,0,0,1-4.4007,28.13q-1.3806,4.7458-7.5932,6.04-3.9693.863-6.3853-.7766-3.2789-2.1571-3.7966-7.1618a27.6169,27.6169,0,0,1,.1294-4.9184,39.3444,39.3444,0,0,0,.2157-4.9183,2.5675,2.5675,0,0,0-2.7612-2.1572,5.5416,5.5416,0,0,0-5.4361,5.8675q.4314,1.7258,1.208,6.1264a8.3967,8.3967,0,0,1-.2589,4.487,6.4158,6.4158,0,0,1-3.3651,3.3651,15.87,15.87,0,0,1-5.695.69,8.6007,8.6007,0,0,1-6.5578-2.7612q-2.1573-2.33-3.6241-7.68a51.7979,51.7979,0,0,1-1.8983-13.202q-.2589-10.4407-.2589-17.8614Q109.6435,162.6883,113.0087,157.77Zm-8.111,40.8138v1.2943q.0864.8629.0863,1.2081,0,12.5979-9.5779,17.0848A26.7506,26.7506,0,0,1,83.93,220.6733q-8.1972,0-13.3745-4.5732Q59.6832,206.5222,59.77,189.1785a94.7355,94.7355,0,0,1,1.812-17.2574,33.553,33.553,0,0,1,5.9539-13.72,15.9283,15.9283,0,0,1,6.5146-5.0478,21.9445,21.9445,0,0,1,9.19-1.9415,20.3564,20.3564,0,0,1,10.6565,2.977,20.99,20.99,0,0,1,7.7227,7.9815,14.607,14.607,0,0,1,1.7258,6.73,11.5207,11.5207,0,0,1-1.7258,6.4716q-2.416,3.9691-6.2127,4.4006-6.04.6041-10.7-5.4361-.0863-.2589-.3451-2.0709-.1727-1.3806-1.2943-1.2943l-.8629,1.5532q-.8629,18.293-.8629,18.7243,0,2.5023.1726,4.9184a3.3782,3.3782,0,0,0,2.0709,3.1926q1.9846-.0863,6.86-4.4007t6.6873-4.3143a7.4561,7.4561,0,0,1,2.8475.604Q104.8978,192.7163,104.8977,198.5838ZM583.8781,77.89h-.0862a2.8388,2.8388,0,0,0-.8629-.1726,12.869,12.869,0,0,0-2.675,1.208q-.3451.3452-.2588,4.4007.0862,4.7457.0863,8.9738a15.4326,15.4326,0,0,0,5.5655-3.2358,6.0849,6.0849,0,0,0,2.2866-4.4437Q587.9336,81.4273,583.8781,77.89Zm24.6781,40.21H608.47a17.76,17.76,0,0,1-4.0554,5.2636,13.5807,13.5807,0,0,1-7.507,3.7966q-7.3344.7766-15.014-14.9277a34.519,34.519,0,0,1,.2589,3.8829q0,5.35-2.5886,8.4562a13.8324,13.8324,0,0,1-7.9385,2.7612,12.8312,12.8312,0,0,1-3.1063-.3452q-5.091-1.2943-6.6441-3.2789-2.0709-2.5885-2.0709-9.319v-3.4516q-.2589-.2587.1726-15.4453a214.3485,214.3485,0,0,1,1.9846-26.1451q1.1217-6.4716,9.1464-8.8876,3.7966-1.1216,14.9277-2.2434,13.2021.4314,18.12,8.8013A37.0993,37.0993,0,0,1,607.78,82.3765,19.2058,19.2058,0,0,1,603.8968,94.37a62.5952,62.5952,0,0,1-4.9184,4.5732q9.75,10.5271,9.75,17.6026A10.3929,10.3929,0,0,1,608.5562,118.0994ZM553.6776,69.0019l.0863-.0862q.3451,4.0555.3451,9.06a103.5424,103.5424,0,0,1-6.299,36.5857,22.7168,22.7168,0,0,1-5.134,7.9816,17.0926,17.0926,0,0,1-7.2913,4.7027,47.6572,47.6572,0,0,1-6.903.5177q-9.578,0-16.0494-4.487a22.2531,22.2531,0,0,1-8.715-11.9939q-1.8984-5.8676-1.8983-16.222,0-15.5318,3.02-25.8861a11.4893,11.4893,0,0,1,4.0987-5.695,12.3736,12.3736,0,0,1,6.3421-2.8474,8.7013,8.7013,0,0,1,5.4792,1.4237,10.4131,10.4131,0,0,1,4.0124,4.3575,35.5319,35.5319,0,0,1,.2588,4.4006,96.8082,96.8082,0,0,1-1.5532,12.1665,98.1684,98.1684,0,0,0-1.5531,11.9939,26.9354,26.9354,0,0,0,.3451,4.5733,6.4453,6.4453,0,0,0,2.8475,2.9337q2.8475.3452,4.0555-.69a11.2428,11.2428,0,0,0,2.7612-6.3852q-.0862-5.8675.2588-15.1.8629-7.4206,1.1218-9.1464a38.6339,38.6339,0,0,1,1.6395-7.507q3.1063-5.0048,7.0755-4.9184a10.431,10.431,0,0,1,6.8167,2.8475A18.1162,18.1162,0,0,1,553.6776,69.0019ZM472.74,105.8466V105.76q2.5023-.4316,2.5023-9.578a46.487,46.487,0,0,0-.9492-9.7072q-.949-4.4439-2.0709-4.6164-1.8982-.5178-3.4515,4.1418a32.3163,32.3163,0,0,0-1.5531,10.2682Q467.2178,106.71,472.74,105.8466Zm21.3992,6.2127.0863.0863A21.1326,21.1326,0,0,1,486.33,123.19a21.844,21.844,0,0,1-13.0725,4.0555q-13.72,0-21.3129-10.3545-6.4716-8.8013-6.4716-21.3992a51.9515,51.9515,0,0,1,1.0354-10.7q4.7459-22.521,20.105-25.3684a15.9151,15.9151,0,0,1,2.9338-.2589,23.0823,23.0823,0,0,1,13.4176,4.5732A22.4245,22.4245,0,0,1,491.7234,74.87q4.8321,14.2375,4.832,22.1758a52.4128,52.4128,0,0,1-2.5023,15.014ZM397.584,60.8047h.0863A9.9506,9.9506,0,0,1,402.33,59.683q5.35,0,7.68,4.228,1.8982,2.0711,3.624,7.5933,2.2435,7.2481,2.5886,7.8522Q420.0187,63.1343,425.11,58.13a13.797,13.797,0,0,1,5.091-.9491,9.3574,9.3574,0,0,1,6.4715,2.1571q4.5734,3.02,4.5732,9.923a53.1756,53.1756,0,0,1-4.4006,15.4455q-2.1573,4.8321-7.2482,14.2373,0,3.71-.0862,10.9585a29.0772,29.0772,0,0,1-1.9847,10.6134,12.2223,12.2223,0,0,1-7.5069,6.9029,18.2219,18.2219,0,0,1-1.9846.1726q-6.903,0-9.5779-5.4361a28.035,28.035,0,0,1-1.208-9.06q0-2.6748.0863-5.0046.0863-3.1064,0-4.66-14.1513-24.16-14.1511-34.3423Q393.1834,63.0481,397.584,60.8047ZM364.2771,85.31a8.3036,8.3036,0,0,1,.2589,2.6749,9.6356,9.6356,0,0,1-3.71,7.6795,9.1818,9.1818,0,0,1-7.2481,2.5024,6.8012,6.8012,0,0,0-2.5886-.0863,24.4982,24.4982,0,0,1-.604,5.5224,3.3593,3.3593,0,0,0,1.812,3.1063,8.9359,8.9359,0,0,1,5.7813,0,5.4637,5.4637,0,0,1,3.8829,4.6595,11.0694,11.0694,0,0,1-2.1572,7.55,20.7784,20.7784,0,0,1-7.1618,6.4284,18.9013,18.9013,0,0,1-9.5779,2.33,20.3645,20.3645,0,0,1-8.715-1.812q-1.6395-.7767-4.9184-4.8321-3.5378-5.8677-3.6241-24.7644a176.5039,176.5039,0,0,1,1.8121-24.8508q1.1217-8.111,4.6595-10.5271l14.41-1.4668a34.5615,34.5615,0,0,1,7.0755-.7766q6.73,0,7.9384,3.3652a8.7948,8.7948,0,0,1,.5178,3.1063,7.5335,7.5335,0,0,1-2.7612,6.04q-2.7613,2.33-7.68,2.33a16.1758,16.1758,0,0,1-1.8983-.0863,11.2673,11.2673,0,0,0-.69,4.1418q-.1725,3.624-.2589,4.1418a2.077,2.077,0,0,0,1.812,1.5532,9.8215,9.8215,0,0,1,6.299-1.9846A8.7666,8.7666,0,0,1,364.2771,85.31Zm-71.36,24.2467h.0863q3.1063-.7766,3.1926-3.1064a2.3688,2.3688,0,0,0-.7334-1.6394,41.7648,41.7648,0,0,0-5.4793-3.71,38.82,38.82,0,0,1-5.7812-4.228,23.873,23.873,0,0,1-4.5732-6.5579,24.7748,24.7748,0,0,1-2.675-11.0447q0-8.1111,6.3853-14.4963a23.08,23.08,0,0,1,16.9123-7.0756,19.958,19.958,0,0,1,10.2682,2.675,22.5642,22.5642,0,0,1,6.1264,6.3852,7.7842,7.7842,0,0,1,1.4669,3.8829q.0863,2.1573-2.0709,5.2636l.0862.0862q-2.7612,3.883-5.7812,3.883a13.1244,13.1244,0,0,1-2.8474-.4315q-2.7614-.69-3.1927-4.8321-.1725-1.6394-2.5023-1.6394a3.9315,3.9315,0,0,0-2.1572.604,7.1063,7.1063,0,0,0-.9491,3.4515,5.8865,5.8865,0,0,0,2.7611,4.9184q10.182,7.2481,11.994,8.9738,6.4715,6.1265,6.9029,12.8568.0864,1.6395.2589,4.4007.1725,11.131-13.3745,17.3437a23.2562,23.2562,0,0,1-9.6642,2.33,14.2565,14.2565,0,0,1-1.8983-.1725l-.1726-.0863q-16.5672-2.6749-17.8614-12.5116-.3453-2.2436-.4746-3.15t-.1294-.5609a6.2975,6.2975,0,0,1,1.38-4.0555,3.9571,3.9571,0,0,1,3.1064-1.7257q.7765,0,4.5732,2.0277t5.2635,2.0278a7.6824,7.6824,0,0,0,1.4669-.1726Zm-44.6968-3.71V105.76q2.5023-.4316,2.5023-9.578a46.4939,46.4939,0,0,0-.9491-9.7072q-.9492-4.4439-2.0709-4.6164-1.8984-.5178-3.4515,4.1418a32.3135,32.3135,0,0,0-1.5532,10.2682Q242.6984,106.71,248.2208,105.8466Zm21.3992,6.2127.0863.0863A21.132,21.132,0,0,1,261.811,123.19a21.844,21.844,0,0,1-13.0725,4.0555q-13.72,0-21.3129-10.3545-6.4716-8.8013-6.4716-21.3992a51.9513,51.9513,0,0,1,1.0355-10.7q4.7459-22.521,20.1049-25.3684a15.9151,15.9151,0,0,1,2.9338-.2589,23.0826,23.0826,0,0,1,13.4177,4.5732A22.4243,22.4243,0,0,1,267.204,74.87q4.8321,14.2375,4.8321,22.1758a52.4128,52.4128,0,0,1-2.5023,15.014Zm-77.4859-6.2127V105.76q2.5025-.4316,2.5023-9.578a46.5007,46.5007,0,0,0-.9491-9.7072q-.9492-4.4439-2.0709-4.6164-1.8984-.5178-3.4515,4.1418a32.3135,32.3135,0,0,0-1.5531,10.2682Q186.6118,106.71,192.1341,105.8466Zm21.3992,6.2127.0863.0863a21.1318,21.1318,0,0,1-7.8952,11.0448,21.8445,21.8445,0,0,1-13.0726,4.0555q-13.72,0-21.3129-10.3545-6.4716-8.8013-6.4716-21.3992a51.9513,51.9513,0,0,1,1.0355-10.7q4.7458-22.521,20.1049-25.3684a15.9151,15.9151,0,0,1,2.9338-.2589,23.0826,23.0826,0,0,1,13.4177,4.5732A22.4248,22.4248,0,0,1,211.1173,74.87q4.8321,14.2375,4.8321,22.1758a52.4128,52.4128,0,0,1-2.5023,15.014ZM113.0087,64.2562h-.0862A12.9837,12.9837,0,0,1,122.5,60.46q4.8321,0,7.0756,1.2944,2.5023,2.5023,2.6749,7.8521-.5178,4.2281-.7766,11.3036,1.0355,3.7967,3.1063,3.7967a6.5455,6.5455,0,0,0,2.4161-.7766q.9492-.4316,1.4668-3.5378-.5177-4.487-.69-12.3391.3451-4.487,5.695-7.7658,1.0355-.604,5.091-.7766a18.1263,18.1263,0,0,1,4.0555.1726q3.8829,1.0355,5.1772,5.8675.4314,1.4669.9492,2.9338a24.65,24.65,0,0,1,.8628,5.7812q.5178,12.08.5178,18.12a102.8374,102.8374,0,0,1-4.4007,28.13q-1.3806,4.7457-7.5932,6.04-3.9693.8628-6.3853-.7766-3.2789-2.1573-3.7966-7.1619a27.6169,27.6169,0,0,1,.1294-4.9184,39.3444,39.3444,0,0,0,.2157-4.9183,2.5675,2.5675,0,0,0-2.7612-2.1572,5.5416,5.5416,0,0,0-5.4361,5.8676q.4314,1.7256,1.208,6.1263a8.3967,8.3967,0,0,1-.2589,4.487,6.416,6.416,0,0,1-3.3651,3.3652,15.8718,15.8718,0,0,1-5.695.69,8.601,8.601,0,0,1-6.5578-2.7612q-2.1573-2.33-3.6241-7.68a51.7978,51.7978,0,0,1-1.8983-13.2019q-.2589-10.4409-.2589-17.8615Q109.6435,69.1744,113.0087,64.2562Zm-8.111,40.8139v1.2942q.0864.8629.0863,1.2081,0,12.5979-9.5779,17.0848A26.7493,26.7493,0,0,1,83.93,127.16q-8.1972,0-13.3745-4.5733Q59.6832,113.0085,59.77,95.6647a94.7355,94.7355,0,0,1,1.812-17.2574,33.553,33.553,0,0,1,5.9539-13.72A15.9283,15.9283,0,0,1,74.05,59.64a21.9445,21.9445,0,0,1,9.19-1.9415,20.3564,20.3564,0,0,1,10.6565,2.977,20.991,20.991,0,0,1,7.7227,7.9815,14.6071,14.6071,0,0,1,1.7258,6.73,11.5206,11.5206,0,0,1-1.7258,6.4715q-2.416,3.9692-6.2127,4.4006-6.04.6041-10.7-5.4361-.0863-.2588-.3451-2.0709-.1727-1.3806-1.2943-1.2943l-.8629,1.5532q-.8629,18.2929-.8629,18.7243,0,2.5023.1726,4.9184a3.3782,3.3782,0,0,0,2.0709,3.1926q1.9846-.0862,6.86-4.4006t6.6873-4.3144a7.458,7.458,0,0,1,2.8475.604Q104.8978,99.2025,104.8977,105.07Z" transform="translate(-59.6832 -57.1807)" style="fill:#d6a758;filter:url(#InnerShadow)"/></svg>