<svg xmlns="http://www.w3.org/2000/svg" xmlns:xlink="http://www.w3.org/1999/xlink" id="Layer_1" data-name="Layer 1" viewBox="0 0 617.96 220.97"><defs><linearGradient id="linear-gradient" x1="-53.75" x2="-53.75" y1="-213.49" y2="-210.62" gradientTransform="matrix(191.85, 0, 0, -60.04, 10620.19, -12622.56)" gradientUnits="userSpaceOnUse"><stop offset="0" stop-color="#d2981c"/><stop offset="1" stop-color="#ffce5b"/></linearGradient><filter id="f1" width="200%" height="200%" name="f1"><feOffset dx="1" dy="2" in="SourceAlpha" result="offOut"/><feGaussianBlur in="offOut" result="blurOut" stdDeviation="4"/><feComponentTransfer><feFuncA slope=".2" type="linear"/></feComponentTransfer><feMerge><feMergeNode/><feMergeNode in="SourceGraphic"/></feMerge></filter><linearGradient id="linear-gradient-2" x1="-53.7" x2="-53.7" y1="-214.55" y2="-212.08" gradientTransform="matrix(185.13, 0, 0, -53.32, 10249.73, -11262.18)" gradientUnits="userSpaceOnUse"><stop offset="0" stop-color="#057a97"/><stop offset="1" stop-color="#00aed9"/></linearGradient><linearGradient id="linear-gradient-3" x1="309.34" x2="308.17" y1="37.85" y2="191.43" gradientUnits="userSpaceOnUse"><stop offset="0" stop-color="#be914a"/><stop offset="1" stop-color="#ffe9b6"/></linearGradient><linearGradient id="linear-gradient-5" x1="-29.74" x2="-29.74" y1="-230.81" y2="-230.15" gradientTransform="matrix(15.7, 0, 0, -20.66, 979.82, -4650.89)" xlink:href="#linear-gradient"/><linearGradient id="New_Gradient_Swatch" x1="104" x2="101.25" y1="167.25" y2="67.58" gradientUnits="userSpaceOnUse"><stop offset="0" stop-color="#ca9522"/><stop offset="1" stop-color="#eabc52"/></linearGradient><linearGradient id="New_Gradient_Swatch-2" x1="133.49" x2="130.74" y1="166.44" y2="66.76" xlink:href="#New_Gradient_Swatch"/><linearGradient id="New_Gradient_Swatch-3" x1="167.78" x2="165.03" y1="165.49" y2="65.82" xlink:href="#New_Gradient_Swatch"/><linearGradient id="New_Gradient_Swatch-4" x1="201.25" x2="198.5" y1="164.57" y2="64.89" xlink:href="#New_Gradient_Swatch"/><linearGradient id="New_Gradient_Swatch-5" x1="225.1" x2="222.35" y1="163.91" y2="64.24" xlink:href="#New_Gradient_Swatch"/><linearGradient id="New_Gradient_Swatch-6" x1="248.9" x2="246.15" y1="163.26" y2="63.58" xlink:href="#New_Gradient_Swatch"/><linearGradient id="New_Gradient_Swatch-7" x1="275.77" x2="273.02" y1="162.51" y2="62.84" xlink:href="#New_Gradient_Swatch"/><linearGradient id="New_Gradient_Swatch-8" x1="301.96" x2="299.21" y1="161.79" y2="62.12" xlink:href="#New_Gradient_Swatch"/><linearGradient id="New_Gradient_Swatch-9" x1="342.19" x2="339.44" y1="160.68" y2="61.01" xlink:href="#New_Gradient_Swatch"/><linearGradient id="New_Gradient_Swatch-10" x1="371.53" x2="368.78" y1="159.87" y2="60.2" xlink:href="#New_Gradient_Swatch"/><linearGradient id="New_Gradient_Swatch-11" x1="403.18" x2="400.43" y1="159" y2="59.32" xlink:href="#New_Gradient_Swatch"/><linearGradient id="New_Gradient_Swatch-12" x1="433.87" x2="431.12" y1="158.15" y2="58.48" xlink:href="#New_Gradient_Swatch"/><linearGradient id="New_Gradient_Swatch-13" x1="123.61" x2="120.95" y1="165.21" y2="68.77" xlink:href="#New_Gradient_Swatch"/><linearGradient id="New_Gradient_Swatch-14" x1="160.51" x2="157.85" y1="164.19" y2="67.76" xlink:href="#New_Gradient_Swatch"/><linearGradient id="New_Gradient_Swatch-15" x1="197.58" x2="194.92" y1="163.17" y2="66.73" xlink:href="#New_Gradient_Swatch"/><linearGradient id="New_Gradient_Swatch-16" x1="232.48" x2="229.82" y1="162.21" y2="65.77" xlink:href="#New_Gradient_Swatch"/><linearGradient id="New_Gradient_Swatch-17" x1="267.6" x2="264.94" y1="161.24" y2="64.8" xlink:href="#New_Gradient_Swatch"/><linearGradient id="New_Gradient_Swatch-18" x1="305.87" x2="303.21" y1="160.18" y2="63.75" xlink:href="#New_Gradient_Swatch"/><linearGradient id="New_Gradient_Swatch-19" x1="343.44" x2="340.78" y1="159.15" y2="62.71" xlink:href="#New_Gradient_Swatch"/><linearGradient id="New_Gradient_Swatch-20" x1="381.81" x2="379.15" y1="158.09" y2="61.65" xlink:href="#New_Gradient_Swatch"/><linearGradient id="New_Gradient_Swatch-21" x1="416.41" x2="413.75" y1="157.13" y2="60.7" xlink:href="#New_Gradient_Swatch"/></defs><title>map__week-button--raw</title><path d="M569.51,207.15H48.29A38.79,38.79,0,0,1,9.55,168.41V49.6A38.78,38.78,0,0,1,48.29,10.86H569.51A38.77,38.77,0,0,1,608.25,49.6V168.41A38.78,38.78,0,0,1,569.51,207.15ZM48.29,23.86A25.77,25.77,0,0,0,22.55,49.6V168.41a25.77,25.77,0,0,0,25.74,25.74H569.51a25.77,25.77,0,0,0,25.74-25.74V49.6a25.76,25.76,0,0,0-25.74-25.74Z" style="fill:url(#linear-gradient);filter:url(#f1)"/><path id="background" d="M51.94,23.78H566.32c18.29,0,33.12,15.3,33.12,34.17V162.1c0,18.87-14.83,34.16-33.12,34.16H51.94c-18.29,0-33.12-15.29-33.12-34.16V58C18.82,39.08,33.65,23.78,51.94,23.78Z" style="fill-rule:evenodd;fill:url(#linear-gradient-2)"/><path id="inner_border" d="M567.9,23.47H49.69c-17.42,0-27.54,10.5-27.54,27.16V166.8c0,16.66,9.9,28.16,27.33,28.16H567.9c17.43,0,27.55-10.5,27.55-27.16V50.63C595.45,34,585.33,23.47,567.9,23.47Zm13.55,135.22c0,14.07-9.63,22.94-26.2,22.94H62.14c-16.57,0-26-9.72-26-23.78V59.74c0-14.07,9.62-22.94,26.2-22.94h492.9c16.57,0,26.2,8.87,26.2,22.94Z" data-name="inner border" style="fill:url(#linear-gradient-3)"/><path id="outer_border" d="M569.51,207.15H48.29A38.79,38.79,0,0,1,9.55,168.41V49.6A38.78,38.78,0,0,1,48.29,10.86H569.51A38.77,38.77,0,0,1,608.25,49.6V168.41A38.78,38.78,0,0,1,569.51,207.15ZM48.29,23.86A25.77,25.77,0,0,0,22.55,49.6V168.41a25.77,25.77,0,0,0,25.74,25.74H569.51a25.77,25.77,0,0,0,25.74-25.74V49.6a25.76,25.76,0,0,0-25.74-25.74Z" data-name="outer border" style="fill:url(#linear-gradient)"/><path d="M62.76,181.69c-16.57,0-26-9.71-26-23.78V59.8c0-14.07,9.62-22.93,26.2-22.93h492.9C572.45,36.87,62.76,181.69,62.76,181.69Z" style="fill:#fff;opacity:.336681544780731;isolation:isolate"/><g style="filter:url(#f1)"><path d="M501,83.57a5.29,5.29,0,0,0-8.55,4.17v45.48a5.3,5.3,0,0,0,8.38,4.31l30.34-21.76a5.3,5.3,0,0,0,.18-8.47Z" style="fill:#fff;fill-rule:evenodd"/><path d="M497.81,145.52a11.48,11.48,0,0,1-2-.17,12.27,12.27,0,0,1-10.3-12.13V87.74a12.3,12.3,0,0,1,19.87-9.68l30.34,23.72A12.32,12.32,0,0,1,537.81,119a12.57,12.57,0,0,1-2.52,2.42L505,143.21A12.16,12.16,0,0,1,497.81,145.52Zm0-63.07a5.3,5.3,0,0,0-5.29,5.29v45.48a5.3,5.3,0,0,0,8.38,4.31l30.34-21.76a5.3,5.3,0,0,0,.18-8.47L501,83.57A5.32,5.32,0,0,0,497.78,82.45Z" style="fill:url(#linear-gradient-5)"/></g><g style="filter:url(#f1)"><path d="M114.15,84.63v.72c0,.32,0,.54,0,.67q0,7-5.3,9.45a14.69,14.69,0,0,1-6.35,1.39,10.74,10.74,0,0,1-7.4-2.53q-6-5.31-6-14.9a52.23,52.23,0,0,1,1-9.55,18.6,18.6,0,0,1,3.3-7.6,8.69,8.69,0,0,1,3.6-2.79,12.11,12.11,0,0,1,5.09-1.08,11.29,11.29,0,0,1,5.9,1.65,11.61,11.61,0,0,1,4.27,4.42,8.09,8.09,0,0,1,1,3.72,6.42,6.42,0,0,1-1,3.59,4.6,4.6,0,0,1-3.44,2.43q-3.35.33-5.92-3a11.13,11.13,0,0,1-.19-1.14c-.07-.51-.3-.75-.72-.72l-.48.86q-.47,10.13-.47,10.36c0,.93,0,1.83.09,2.73a1.87,1.87,0,0,0,1.15,1.76q1.09,0,3.8-2.43c1.79-1.59,3-2.39,3.7-2.39a4.14,4.14,0,0,1,1.57.33Q114.15,81.4,114.15,84.63Z" style="fill:#fff"/><path d="M143.9,88.5l0,0a11.7,11.7,0,0,1-4.37,6.11,12.09,12.09,0,0,1-7.24,2.25,13.77,13.77,0,0,1-11.79-5.73A19.45,19.45,0,0,1,117,79.33a28.17,28.17,0,0,1,.58-5.92q2.63-12.47,11.12-14a8.44,8.44,0,0,1,1.63-.15,12.74,12.74,0,0,1,7.42,2.54,12.36,12.36,0,0,1,4.85,6.16q2.67,7.88,2.68,12.27a29.18,29.18,0,0,1-1.39,8.31Zm-11.85-3.44v0q1.39-.23,1.39-5.3a25.73,25.73,0,0,0-.53-5.37q-.53-2.46-1.14-2.55c-.7-.2-1.34.57-1.91,2.29a18,18,0,0,0-.86,5.68Q129,85.54,132.05,85.06Z" style="fill:#fff"/><path d="M182.68,90.51a6.52,6.52,0,0,1-1,3.87,3.69,3.69,0,0,1-2.1,1.43c-.45.13-1.1.29-2,.48a7.59,7.59,0,0,1-1.29.24,4.32,4.32,0,0,1-3.49-1.84,7.25,7.25,0,0,1-1.43-4.57,48.71,48.71,0,0,1,.52-4.87,13.36,13.36,0,0,0,0-4.68c-.16.48-.65,1.93-1.48,4.35q-1.62,4.59-2.91,5.59a2.68,2.68,0,0,1-1.72.57,2.84,2.84,0,0,1-1.58-.53q-2.58-2.67-4-10.36a12.39,12.39,0,0,0-.24,2.44c0,.47.13,2,.38,4.53a15.59,15.59,0,0,1,0,4.35,6.85,6.85,0,0,1-2,3.73,6.51,6.51,0,0,1-3.2,1,5.28,5.28,0,0,1-3.87-1.86A28.31,28.31,0,0,1,149,89.89a21.71,21.71,0,0,1-.72-6.45q0-4,.67-14a10.72,10.72,0,0,1,2.13-6,9.5,9.5,0,0,1,5.08-3.37q6.36-.18,9.65,10.94a25.26,25.26,0,0,1,1.48-5.44c1.21-3.31,2.58-5.34,4.11-6.07a14,14,0,0,1,3.82-.67,5,5,0,0,1,4,1.63,8.77,8.77,0,0,1,2.53,4.29,27.28,27.28,0,0,1,.62,5.64c0,2.36.07,4.71.1,7.07q.19,7.83.19,13Z" style="fill:#fff"/><path d="M209.66,64.43l0,0a14.65,14.65,0,0,1,2.53,8,13.52,13.52,0,0,1-2.92,8.31q-2.43,3.25-10.69,4.54a12.93,12.93,0,0,0,.19,2.91c.25,1.43.38,2.25.38,2.44a8.67,8.67,0,0,1-1,3.72,3.73,3.73,0,0,1-2,1.68,8.27,8.27,0,0,1-3.37.66,6.3,6.3,0,0,1-4.41-1.5,5.8,5.8,0,0,1-1.79-4.18,40.46,40.46,0,0,1-1-9.84V71c0-.29.06-1.46.19-3.53a15.43,15.43,0,0,1,.95-4.73,4.43,4.43,0,0,1,2.87-3,31.8,31.8,0,0,1,7.78-1.1q8.46,0,12.28,5.73Zm-9.21,8.64a4.89,4.89,0,0,0,.57-2.19c0-1.79-1.16-2.77-3.49-3a27.66,27.66,0,0,0-.24,3c0,1,0,1.72.05,2.2.07.73.14,1.8.24,3.2.29-.25.65-.62,1.1-1.1A8.6,8.6,0,0,0,200.4,73Z" style="fill:#fff"/><path d="M233.07,89.41h0c-.35,2.74-1.36,4.55-3,5.44a18.4,18.4,0,0,1-7,1.39q-10.12,0-10.13-10.94V82.48c0-.35,0-.89.05-1.62,0-.57,0-1,0-1.24a79.09,79.09,0,0,1,.81-15.43,7.41,7.41,0,0,1,2-3.34,6.28,6.28,0,0,1,3.46-1.1c.35,0,.74,0,1.15,0a4.22,4.22,0,0,1,3,.86,14.26,14.26,0,0,1,1.43,2.25,32.9,32.9,0,0,1,.82,8c0,2-.2,5.14-.58,9.41-.25,3-.28,4.54-.09,4.73a9.89,9.89,0,0,1,4.49-.91,2.39,2.39,0,0,1,.95.14,3.45,3.45,0,0,1,2.05,2.15,12.09,12.09,0,0,1,.63,3.15Z" style="fill:#fff"/><path d="M257.14,73.7a4.84,4.84,0,0,1,.14,1.48,5.35,5.35,0,0,1-2.06,4.25,5.07,5.07,0,0,1-4,1.38,3.93,3.93,0,0,0-1.43,0,14.07,14.07,0,0,1-.33,3.06,1.85,1.85,0,0,0,1,1.72,5,5,0,0,1,3.2,0,3,3,0,0,1,2.15,2.58,6.11,6.11,0,0,1-1.2,4.18,11.44,11.44,0,0,1-4,3.56,10.46,10.46,0,0,1-5.3,1.29,11.32,11.32,0,0,1-4.83-1,10.31,10.31,0,0,1-2.72-2.67q-1.95-3.25-2-13.71a96.39,96.39,0,0,1,1-13.75q.61-4.5,2.58-5.83l8-.81a19,19,0,0,1,3.92-.43c2.48,0,4,.62,4.39,1.86a4.67,4.67,0,0,1,.29,1.72,4.16,4.16,0,0,1-1.53,3.34,6.38,6.38,0,0,1-4.25,1.29h-1a6.18,6.18,0,0,0-.38,2.27c-.06,1.33-.11,2.09-.14,2.28a1.14,1.14,0,0,0,1,.85,5.44,5.44,0,0,1,3.49-1.1A4.86,4.86,0,0,1,257.14,73.7Z" style="fill:#fff"/><path d="M286.6,65.19h0a9.56,9.56,0,0,1,.14,1.87,5.5,5.5,0,0,1-1.14,3.63c-.29.32-1.57.69-3.85,1.12a16.77,16.77,0,0,0-3.51.83c-.06.36.3,3.68,1.1,10a30.49,30.49,0,0,1,.24,3.82,19,19,0,0,1-1.15,7.16c-1,2.36-2.35,3.5-4.2,3.44q-4.48-.14-6.26-2.82-1.33-2-1.38-6.35c0,.26.06-1.42.19-5l.24-6.12a37.36,37.36,0,0,1,.62-5,3.07,3.07,0,0,1-.86.09,10.51,10.51,0,0,1-3.25-.52,5.14,5.14,0,0,1-3-2.11,7.35,7.35,0,0,1-1.14-3.67q0-2.86,3.15-4.45a21.61,21.61,0,0,1,9.79-2.05,36.87,36.87,0,0,1,6.3.57l4.78,1.77A5.48,5.48,0,0,1,286.6,65.19Z" style="fill:#fff"/><path d="M310.24,73.7a4.55,4.55,0,0,1,.15,1.48,5.35,5.35,0,0,1-2.06,4.25,5.08,5.08,0,0,1-4,1.38,3.93,3.93,0,0,0-1.43,0,13.69,13.69,0,0,1-.34,3.06,1.86,1.86,0,0,0,1,1.72,5,5,0,0,1,3.2,0,3,3,0,0,1,2.15,2.58,6.16,6.16,0,0,1-1.2,4.18,11.44,11.44,0,0,1-4,3.56,10.48,10.48,0,0,1-5.3,1.29,11.28,11.28,0,0,1-4.83-1,10.31,10.31,0,0,1-2.72-2.67c-1.31-2.17-2-6.74-2-13.71a98,98,0,0,1,1-13.75q.62-4.5,2.58-5.83l8-.81a19,19,0,0,1,3.92-.43c2.48,0,3.95.62,4.39,1.86a4.88,4.88,0,0,1,.29,1.72,4.16,4.16,0,0,1-1.53,3.34,6.4,6.4,0,0,1-4.25,1.29h-1a6.18,6.18,0,0,0-.38,2.27c-.07,1.33-.11,2.09-.15,2.28a1.16,1.16,0,0,0,1,.85,5.43,5.43,0,0,1,3.48-1.1A4.84,4.84,0,0,1,310.24,73.7Z" style="fill:#fff"/><path d="M328.68,60.13h.05a5.51,5.51,0,0,1,2.57-.62,4.47,4.47,0,0,1,4.25,2.34,11.65,11.65,0,0,1,2,4.2c.83,2.68,1.31,4.13,1.43,4.35q2.1-9,4.92-11.75a7.63,7.63,0,0,1,2.82-.52,5.14,5.14,0,0,1,3.58,1.19q2.54,1.68,2.53,5.49a29.4,29.4,0,0,1-2.43,8.55q-1.2,2.67-4,7.88,0,2.06,0,6.07a16.2,16.2,0,0,1-1.1,5.87A6.77,6.77,0,0,1,341.1,97a9,9,0,0,1-1.1.1,5.4,5.4,0,0,1-5.31-3,15.73,15.73,0,0,1-.66-5V86.3c0-1.14,0-2,0-2.57q-7.78-13.38-7.79-19Q326.24,61.38,328.68,60.13Z" style="fill:#fff"/><path d="M382.12,88.5l.05,0a11.7,11.7,0,0,1-4.37,6.11,12.09,12.09,0,0,1-7.24,2.25,13.77,13.77,0,0,1-11.79-5.73,19.45,19.45,0,0,1-3.59-11.85,28.17,28.17,0,0,1,.58-5.92q2.63-12.47,11.12-14a8.51,8.51,0,0,1,1.63-.15,12.76,12.76,0,0,1,7.42,2.54,12.36,12.36,0,0,1,4.85,6.16q2.67,7.88,2.68,12.27a29.18,29.18,0,0,1-1.39,8.31Zm-11.85-3.44v0q1.39-.23,1.39-5.3a25.73,25.73,0,0,0-.53-5.37q-.53-2.46-1.14-2.55c-.7-.2-1.34.57-1.91,2.29a18,18,0,0,0-.86,5.68Q367.22,85.54,370.27,85.06Z" style="fill:#fff"/><path d="M415.07,64.67l.05,0c.13,1.5.19,3.17.19,5a57.42,57.42,0,0,1-3.48,20.25A12.66,12.66,0,0,1,409,94.3a9.45,9.45,0,0,1-4,2.61,26.55,26.55,0,0,1-3.82.28,15.2,15.2,0,0,1-8.89-2.48,12.29,12.29,0,0,1-4.82-6.64,30.34,30.34,0,0,1-1.05-9A52.28,52.28,0,0,1,388,64.76a6.43,6.43,0,0,1,2.27-3.15A6.79,6.79,0,0,1,393.82,60a4.72,4.72,0,0,1,3,.79,5.64,5.64,0,0,1,2.22,2.41,18.65,18.65,0,0,1,.15,2.43,54.33,54.33,0,0,1-.86,6.74,52.91,52.91,0,0,0-.86,6.64,14.74,14.74,0,0,0,.19,2.53,3.57,3.57,0,0,0,1.58,1.62,2.89,2.89,0,0,0,2.24-.38A6.2,6.2,0,0,0,403,79.28c0-2.19,0-5,.14-8.35.32-2.74.53-4.43.62-5.07a21.7,21.7,0,0,1,.91-4.15c1.15-1.85,2.45-2.76,3.92-2.72a5.77,5.77,0,0,1,3.77,1.57A10,10,0,0,1,415.07,64.67Z" style="fill:#fff"/><path d="M445.45,91.84h-.05a9.89,9.89,0,0,1-2.24,2.92,7.55,7.55,0,0,1-4.16,2.1q-4.06.44-8.31-8.26a17.55,17.55,0,0,1,.14,2.12,6.93,6.93,0,0,1-1.43,4.63A7.68,7.68,0,0,1,425,96.86a7,7,0,0,1-1.72-.19c-1.88-.48-3.11-1.08-3.68-1.81-.76-1-1.15-2.67-1.15-5.15v-1.9q-.13-.15.1-8.53a118.27,118.27,0,0,1,1.1-14.44q.61-3.57,5.06-4.9A54.77,54.77,0,0,1,433,58.7q7.31.24,10,4.87a20.56,20.56,0,0,1,2,8.5,10.63,10.63,0,0,1-2.15,6.64,33.44,33.44,0,0,1-2.72,2.53q5.39,5.83,5.39,9.74A5.94,5.94,0,0,1,445.45,91.84ZM431.79,69.59h-.05a1.42,1.42,0,0,0-.48-.1,7.79,7.79,0,0,0-1.48.67,7.27,7.27,0,0,0-.14,2.44c0,1.75.05,3.4.05,5a8.54,8.54,0,0,0,3.08-1.79A3.37,3.37,0,0,0,434,73.31C434,72.14,433.28,70.89,431.79,69.59Z" style="fill:#fff"/><path d="M102.54,100a13.81,13.81,0,0,1-9.46-3.31c-4.69-4.13-7-9.93-7-17.24A55.83,55.83,0,0,1,87.12,69.3,21.66,21.66,0,0,1,91,60.46a11.86,11.86,0,0,1,4.83-3.8,15.39,15.39,0,0,1,6.37-1.35,14.43,14.43,0,0,1,7.49,2.09,14.83,14.83,0,0,1,5.4,5.58,11.3,11.3,0,0,1,1.34,5.15A9.59,9.59,0,0,1,115,73.42a7.73,7.73,0,0,1-4.84,3.72,7.57,7.57,0,0,1,2.33.51c3,1,4.79,3.51,4.79,7v.57c0,.38,0,.65,0,.82,0,7.39-3.85,10.75-7.08,12.26A17.86,17.86,0,0,1,102.54,100Zm-.38-38.45a8.9,8.9,0,0,0-3.8.8A5.78,5.78,0,0,0,96,64.1a15.39,15.39,0,0,0-2.76,6.34,49.79,49.79,0,0,0-1,9c0,5.52,1.58,9.63,4.92,12.57a7.69,7.69,0,0,0,5.35,1.76,11.71,11.71,0,0,0,5-1.09c1.63-.77,3.51-2.22,3.51-6.65,0-.06,0-.19,0-.36s0-.21,0-.31v-.72c0-.93-.17-1-.5-1.09a1.42,1.42,0,0,1-.29-.1l-.09,0a15,15,0,0,0-2,1.54c-2.5,2.21-4.16,3.14-5.72,3.21a3.1,3.1,0,0,1-1.31-.23,4.93,4.93,0,0,1-3.06-4.41c-.07-1-.1-2-.1-3,0-.13,0-.31.48-10.51a3.12,3.12,0,0,1,.38-1.36l.48-.86a3.11,3.11,0,0,1,2.48-1.58,3.74,3.74,0,0,1,4,3.42,1,1,0,0,0,0,.18,3.08,3.08,0,0,0,2.7,1.28c.14,0,.55-.07,1.1-1a3.28,3.28,0,0,0,.51-1.89A4.87,4.87,0,0,0,109.6,66a8.35,8.35,0,0,0-3.14-3.24A8.16,8.16,0,0,0,102.16,61.51ZM101.79,82Zm2.61-5.61c-.1,2.15-.15,3.23-.17,3.76a12.85,12.85,0,0,1,4.31-2.84A8.73,8.73,0,0,1,104.4,76.43ZM99.71,70.5v0Z" style="fill:url(#New_Gradient_Swatch)"/><path d="M132.34,100A16.82,16.82,0,0,1,118,93a22.58,22.58,0,0,1-4.18-13.68,32.37,32.37,0,0,1,.64-6.56c2-9.62,6.6-15.15,13.6-16.45a11.89,11.89,0,0,1,2.19-.2,15.8,15.8,0,0,1,9.2,3.1,15.5,15.5,0,0,1,6,7.69c1.91,5.64,2.84,10,2.84,13.28a31.64,31.64,0,0,1-1.29,8.43,3.38,3.38,0,0,1-.15.88,14.75,14.75,0,0,1-5.52,7.68A15.13,15.13,0,0,1,132.34,100Zm-2.05-37.68a5.9,5.9,0,0,0-1.06.09c-1.6.29-6.46,1.19-8.66,11.63a25.5,25.5,0,0,0-.51,5.28,16.33,16.33,0,0,0,3,10,10.76,10.76,0,0,0,9.3,4.47,9,9,0,0,0,5.43-1.67,8.39,8.39,0,0,0,3-3.88,3.55,3.55,0,0,1,.12-.65,26.24,26.24,0,0,0,1.26-7.42c0-2.57-.85-6.37-2.51-11.28a9.41,9.41,0,0,0-3.7-4.62A9.69,9.69,0,0,0,130.29,62.33Zm1.33,25.87A5.08,5.08,0,0,1,128.28,87c-2.14-1.83-2.38-5-2.38-7.23a20.94,20.94,0,0,1,1-6.66c1.54-4.63,4.24-4.64,5.5-4.35,2.58.53,3.22,3.5,3.53,4.94a29.34,29.34,0,0,1,.59,6c0,2.11,0,6.82-3.06,8.1a3,3,0,0,1-.95.32A7.11,7.11,0,0,1,131.62,88.2Zm.43-3.14h0Zm-2.52-11.33Z" style="fill:url(#New_Gradient_Swatch-2)"/><path d="M176.33,99.63a7.33,7.33,0,0,1-5.93-3,9.45,9.45,0,0,1-1.63-3.15,5.89,5.89,0,0,1-5.66,0,10.08,10.08,0,0,1-2.58,4,2.89,2.89,0,0,1-.62.47,9.58,9.58,0,0,1-4.74,1.36,8.3,8.3,0,0,1-6.12-2.83,3.28,3.28,0,0,1-.42-.56A27,27,0,0,1,146,90.79a24.48,24.48,0,0,1-.85-7.35c0-2.74.22-7.4.68-14.25a13.84,13.84,0,0,1,2.76-7.63,12.53,12.53,0,0,1,6.7-4.46,3.17,3.17,0,0,1,.75-.12q5.58-.15,9.23,5.29c1.33-2.84,2.9-4.66,4.76-5.55a2.58,2.58,0,0,1,.46-.18,16.5,16.5,0,0,1,4.7-.8,8,8,0,0,1,6.24,2.57A12,12,0,0,1,184.76,64a29.52,29.52,0,0,1,.73,6.34l.1,7.14c.13,5.2.19,9.6.19,13v.05a9.45,9.45,0,0,1-1.59,5.68,6.85,6.85,0,0,1-3.84,2.62c-.41.12-1.12.29-2.06.5A8.41,8.41,0,0,1,176.33,99.63Zm0-6.21h0Zm-4.33-16h.16A3.1,3.1,0,0,1,175,79.9a16.22,16.22,0,0,1,0,5.8c-.45,3.32-.49,4.23-.49,4.42a4.13,4.13,0,0,0,.78,2.66c.41.53.71.63.92.64l.69-.15c.83-.18,1.42-.33,1.83-.44a.68.68,0,0,0,.45-.3,3.56,3.56,0,0,0,.4-2v-.05c0-3.38-.06-7.73-.19-12.92l-.1-7.1a23.39,23.39,0,0,0-.51-4.87,5.75,5.75,0,0,0-1.64-2.82l-.26-.27c-.12-.15-.45-.54-1.65-.54a9.91,9.91,0,0,0-2.61.45c-.35.25-1.28,1.18-2.41,4.25a22.18,22.18,0,0,0-1.31,4.74,3.1,3.1,0,0,1-6.05.52c-1.15-3.88-3.16-8.47-6.23-8.71a6.26,6.26,0,0,0-3.07,2.15,7.53,7.53,0,0,0-1.49,4.27c-.44,6.61-.67,11.26-.67,13.83a18.6,18.6,0,0,0,.56,5.47,22.73,22.73,0,0,0,1.83,3.51,1.92,1.92,0,0,0,1.39.67,3.05,3.05,0,0,0,1.31-.36,3.54,3.54,0,0,0,.89-1.78,12.69,12.69,0,0,0,0-3.46c-.35-3.53-.4-4.45-.4-4.86a15.46,15.46,0,0,1,.3-3,3.1,3.1,0,0,1,6.09,0c.85,4.57,1.87,6.88,2.62,8a22.52,22.52,0,0,0,1.63-3.78c.81-2.37,1.3-3.81,1.46-4.29A3.11,3.11,0,0,1,172,77.47Z" style="fill:url(#New_Gradient_Swatch-3)"/><path d="M192.8,99.86a9.28,9.28,0,0,1-6.5-2.31,8.71,8.71,0,0,1-2.78-6,44.7,44.7,0,0,1-1.08-10.33V71c0-.27,0-.91.2-3.72a18.67,18.67,0,0,1,1.17-5.69c1.32-3.26,3.43-4.42,5-4.82a35,35,0,0,1,8.55-1.19c6.58,0,11.51,2.3,14.66,6.83a3.14,3.14,0,0,1,.51.82h0a17.54,17.54,0,0,1,2.74,9.25,16.64,16.64,0,0,1-3.54,10.18c-1.81,2.42-5.07,4.13-9.9,5.21a17.79,17.79,0,0,1,.4,2.81A11.79,11.79,0,0,1,201,95.76a6.71,6.71,0,0,1-3.52,3.17A11.3,11.3,0,0,1,192.8,99.86Zm4.54-38.06a29.15,29.15,0,0,0-7,1c-.16,0-.47.41-.75,1.12a12.37,12.37,0,0,0-.74,3.78c-.17,2.71-.18,3.23-.18,3.33V81.24a38.46,38.46,0,0,0,1,9.13,2.52,2.52,0,0,1,.08.55,2.71,2.71,0,0,0,.79,2,3.13,3.13,0,0,0,2.32.69,5.06,5.06,0,0,0,2.11-.4,2.29,2.29,0,0,0,.49-.27,5.84,5.84,0,0,0,.61-2.18c0-.18-.1-.68-.34-2,0,0,0-.06,0-.1a15.47,15.47,0,0,1-.21-3.68,3.1,3.1,0,0,1,2.61-2.73c6.1-1,8.07-2.5,8.69-3.34a10.43,10.43,0,0,0,2.3-6.45,11.48,11.48,0,0,0-2-6.34c-.06-.09-.11-.18-.16-.27C204.89,63.14,201.77,61.8,197.34,61.8Zm.24,17.67a3,3,0,0,1-1.17-.23,3.1,3.1,0,0,1-1.92-2.66c-.1-1.37-.17-2.42-.24-3.14s-.06-1.4-.06-2.47a31.78,31.78,0,0,1,.26-3.42,3.1,3.1,0,0,1,3.34-2.72c4.67.38,6.33,3.37,6.33,6a7.94,7.94,0,0,1-.9,3.58,3.92,3.92,0,0,1-.42.64,13.25,13.25,0,0,1-1.89,2.33c-.5.54-.92.95-1.27,1.26A3.11,3.11,0,0,1,197.58,79.47Z" style="fill:url(#New_Gradient_Swatch-4)"/><path d="M223,99.34c-8.53,0-13.23-5-13.23-14V82.48c0-.38,0-1,.05-1.75,0-.53,0-.89,0-1.11a81,81,0,0,1,.86-16,3.37,3.37,0,0,1,.12-.48,10.29,10.29,0,0,1,3-4.72A9.11,9.11,0,0,1,219,56.66c.41,0,.89-.06,1.4-.06a7.17,7.17,0,0,1,5.09,1.71,13,13,0,0,1,2,3,3,3,0,0,1,.31.75,35.76,35.76,0,0,1,.91,8.8c0,2.12-.2,5.28-.59,9.69,0,.17,0,.33,0,.49.44,0,.88-.05,1.35-.05a5.31,5.31,0,0,1,2.11.37,6.48,6.48,0,0,1,3.77,3.87,14.08,14.08,0,0,1,.8,3.68,3.07,3.07,0,0,1,0,.53v.09a3.12,3.12,0,0,1-.19,1.07c-.59,3.37-2.1,5.72-4.5,7a2.2,2.2,0,0,1-.31.15A21.65,21.65,0,0,1,223,99.34ZM216.82,65a78.5,78.5,0,0,0-.71,14.54c0,.37,0,.84-.05,1.49s-.05,1.13-.05,1.45V85.3c0,5.57,2,7.84,7,7.84a15.61,15.61,0,0,0,5.61-1.08,4.31,4.31,0,0,0,1.27-2.85,7.48,7.48,0,0,0-.36-1.73,2.05,2.05,0,0,0-.17-.32,7.06,7.06,0,0,0-3.06.58,3.09,3.09,0,0,1-3.57-.58C221.57,86,221.55,84.67,222,80c.38-4.16.56-7.24.56-9.14a31.09,31.09,0,0,0-.62-6.87c-.32-.56-.53-.89-.65-1.08a3.34,3.34,0,0,0-.83-.08,7.83,7.83,0,0,0-.87,0,3.68,3.68,0,0,0-1.79.42A4.66,4.66,0,0,0,216.82,65ZM229,87l.3.12Zm0,0Zm0,0Zm0,0Z" style="fill:url(#New_Gradient_Swatch-5)"/><path d="M245.34,100.25A14.4,14.4,0,0,1,239.2,99a12.14,12.14,0,0,1-3.82-3.53,2.71,2.71,0,0,1-.24-.35c-1.64-2.72-2.42-7.57-2.45-15.29a99.72,99.72,0,0,1,1-14.19c.54-4,1.82-6.55,3.9-8a3.1,3.1,0,0,1,1.43-.52l7.82-.8a22,22,0,0,1,4.39-.46c4.88,0,6.67,2.13,7.31,3.91a7.85,7.85,0,0,1,.47,2.77,7.24,7.24,0,0,1-2.63,5.71,6.84,6.84,0,0,1-.74.56,8.23,8.23,0,0,1,4,3.09,3,3,0,0,1,.48,1,7.54,7.54,0,0,1,.25,2.37,8.46,8.46,0,0,1-3.16,6.53,9.43,9.43,0,0,1-1.7,1.18,5.94,5.94,0,0,1,3.36,4.81A9.14,9.14,0,0,1,257.17,94a14.61,14.61,0,0,1-5,4.52A13.57,13.57,0,0,1,245.34,100.25Zm-3.42-6.87a8.31,8.31,0,0,0,3.42.67,7.39,7.39,0,0,0,3.76-.88A8.34,8.34,0,0,0,252,90.56a3,3,0,0,0,.69-2,1.37,1.37,0,0,0-.2-.09,2.38,2.38,0,0,0-1.27.1,3.08,3.08,0,0,1-2.34-.3,5,5,0,0,1-2.56-4.41,3.15,3.15,0,0,1,0-.53,21,21,0,0,0,.31-2.21,3.1,3.1,0,0,1,2.8-3.4,7.29,7.29,0,0,1,2.24.06,2.17,2.17,0,0,0,1.45-.65,2.3,2.3,0,0,0,1-1.91V75a1.43,1.43,0,0,0-1.1-.46,2.23,2.23,0,0,0-1.56.43,3.11,3.11,0,0,1-2.6.6,4.22,4.22,0,0,1-3.36-3.23,2.83,2.83,0,0,1,0-1.16h0s0-.38.1-1.91a8.71,8.71,0,0,1,.68-3.45,3.1,3.1,0,0,1,2.8-1.78h1a3.66,3.66,0,0,0,2.25-.56,1.06,1.06,0,0,0,.43-1,2.88,2.88,0,0,0,0-.32,5.92,5.92,0,0,0-1.56-.16,16.2,16.2,0,0,0-3.28.36l-.32.05-6.87.7a9,9,0,0,0-.93,3.28,94.54,94.54,0,0,0-1,13.31c0,8.16,1,11,1.47,12A12,12,0,0,0,241.92,93.38Zm4.78-12.24a.83.83,0,0,1,0,.13S246.71,81.18,246.7,81.14Zm6.05-19.25h0Z" style="fill:url(#New_Gradient_Swatch-6)"/><path d="M274.42,100.15h-.25c-4-.13-7-1.54-8.73-4.21-1.24-1.85-1.86-4.48-1.9-8v0c0-.11,0-.21,0-.31,0-.48.08-2.08.18-4.81l.24-6.13c0-.67.1-1.31.16-1.93a13.23,13.23,0,0,1-1.5-.39,8.13,8.13,0,0,1-4.73-3.49,10.31,10.31,0,0,1-1.57-5.24c0-1.79.63-5.1,4.86-7.22A24.61,24.61,0,0,1,272.37,56a40.13,40.13,0,0,1,6.83.62,2.94,2.94,0,0,1,.53.14c1.06.38,2.66,1,4.8,1.78a2.17,2.17,0,0,1,.35.15,8.58,8.58,0,0,1,4.6,5.26,3.63,3.63,0,0,1,.21.66,12.44,12.44,0,0,1,.2,2.47A8.49,8.49,0,0,1,288,72.74c-.88,1-2.19,1.47-5.59,2.12l-.79.15c.16,1.4.42,3.64.88,7.23a35,35,0,0,1,.26,4.21,22.06,22.06,0,0,1-1.37,8.33C279.48,99.39,276.3,100.15,274.42,100.15Zm-4.69-12.46a.81.81,0,0,1,0,.16c0,3.09.61,4.29.86,4.66s.89,1.35,3.78,1.44c.43,0,.82-.49,1.23-1.5a16.3,16.3,0,0,0,.92-6,26.49,26.49,0,0,0-.22-3.44c-1.25-9.93-1.18-10.3-1.07-10.92a3.08,3.08,0,0,1,.28-.84c.79-1.56,2-1.79,5.71-2.49a23.18,23.18,0,0,0,2.29-.51,4.41,4.41,0,0,0,.17-1.26c0-.35,0-.62,0-.82s-.07-.24-.1-.37-.17-.87-1.39-1.55l-4.29-1.59a33.66,33.66,0,0,0-5.51-.48A18.55,18.55,0,0,0,264,63.9c-1.45.73-1.45,1.35-1.45,1.68a4.51,4.51,0,0,0,.72,2.11s.25.38,1.29.72a7.66,7.66,0,0,0,2.29.37h.1a3.1,3.1,0,0,1,3.8,3.63,34.68,34.68,0,0,0-.57,4.55l-.37,9.8C269.78,87,269.77,87.33,269.73,87.69Zm-3-18.85Z" style="fill:url(#New_Gradient_Swatch-7)"/><path d="M298.45,100.25a14.37,14.37,0,0,1-6.14-1.3,12.14,12.14,0,0,1-3.82-3.53,2.71,2.71,0,0,1-.24-.35c-1.64-2.72-2.42-7.57-2.46-15.29a101.35,101.35,0,0,1,1-14.19c.54-4,1.82-6.55,3.9-8a3.1,3.1,0,0,1,1.43-.52l7.82-.8a22,22,0,0,1,4.39-.46c4.88,0,6.67,2.13,7.31,3.91a7.85,7.85,0,0,1,.47,2.77,7.24,7.24,0,0,1-2.63,5.71,8,8,0,0,1-.74.56,8.23,8.23,0,0,1,4,3.09,3.18,3.18,0,0,1,.48,1,7.84,7.84,0,0,1,.25,2.37,8.43,8.43,0,0,1-3.17,6.53A9,9,0,0,1,308.63,83,6,6,0,0,1,312,87.79,9.14,9.14,0,0,1,310.28,94a14.61,14.61,0,0,1-5,4.52A13.57,13.57,0,0,1,298.45,100.25ZM295,93.38a8.28,8.28,0,0,0,3.42.67,7.33,7.33,0,0,0,3.75-.88,8.29,8.29,0,0,0,2.94-2.61,3,3,0,0,0,.69-2,1.37,1.37,0,0,0-.2-.09,2.38,2.38,0,0,0-1.27.1,3.08,3.08,0,0,1-2.34-.3,5,5,0,0,1-2.57-4.41,3.17,3.17,0,0,1,.05-.53,16.72,16.72,0,0,0,.3-2.21,3.13,3.13,0,0,1,.63-2.21,3.09,3.09,0,0,1,2.18-1.19,7.21,7.21,0,0,1,2.23.06,2.16,2.16,0,0,0,1.45-.65,2.29,2.29,0,0,0,1-1.91V75a1.44,1.44,0,0,0-1.11-.46,2.28,2.28,0,0,0-1.56.43,3.09,3.09,0,0,1-2.59.6,4.24,4.24,0,0,1-3.37-3.23,3,3,0,0,1,0-1.16h0s0-.38.11-1.91a8.72,8.72,0,0,1,.67-3.45,3.13,3.13,0,0,1,2.81-1.78h1a3.7,3.7,0,0,0,2.25-.56,1.06,1.06,0,0,0,.43-1,2.88,2.88,0,0,0,0-.32,5.92,5.92,0,0,0-1.56-.16,16.2,16.2,0,0,0-3.28.36l-.32.05-6.87.7a9,9,0,0,0-.93,3.28,93.06,93.06,0,0,0-1,13.31c0,8.16,1,11,1.47,12A12,12,0,0,0,295,93.38Zm10.88-4.81Zm-6.1-7.43s0,.1,0,.13S299.82,81.18,299.81,81.14Zm6.05-19.25h0Z" style="fill:url(#New_Gradient_Swatch-8)"/><path d="M340,100.2a8.51,8.51,0,0,1-8.09-4.74,3.65,3.65,0,0,1-.14-.35,18.19,18.19,0,0,1-.84-6V86.3c0-.76,0-1.31,0-1.7-5.33-9.24-7.81-15.57-7.81-19.88,0-4.56,2.59-6.56,4.13-7.35l.38-.17a8.74,8.74,0,0,1,3.65-.79A7.6,7.6,0,0,1,338.09,60c.23.29.45.6.67.94a14.82,14.82,0,0,1,3-4.54,3.1,3.1,0,0,1,1-.67,10.58,10.58,0,0,1,4-.74,8.2,8.2,0,0,1,5.47,1.83c1.75,1.22,3.74,3.57,3.74,8,0,.12,0,.23,0,.34a32.57,32.57,0,0,1-2.68,9.45c-.79,1.78-2,4.21-3.75,7.43,0,1.32,0,3.1-.05,5.31a19.07,19.07,0,0,1-1.35,7.06,9.89,9.89,0,0,1-6,5.53,3.6,3.6,0,0,1-.63.15A12.94,12.94,0,0,1,340,100.2Zm-2.44-7.32c.31.57.85,1.12,2.44,1.12l.36,0a3.64,3.64,0,0,0,2.05-2,13,13,0,0,0,.84-4.71c0-2.61.05-4.62.05-6a3.09,3.09,0,0,1,.37-1.48c1.83-3.38,3.14-6,3.91-7.66a27,27,0,0,0,2.16-7.45c0-2-.81-2.52-1.14-2.74-.12-.09-.24-.18-.35-.28a2.29,2.29,0,0,0-1.52-.4,5.22,5.22,0,0,0-1.06.11c-.88,1.15-2.26,3.78-3.66,9.77a3.1,3.1,0,0,1-5.7.84c-.22-.37-.37-.63-1.71-5a8.62,8.62,0,0,0-1.33-3,3.14,3.14,0,0,1-.43-.6c-.22-.4-.49-.74-1.54-.74a2.5,2.5,0,0,0-1.15.27,1.42,1.42,0,0,1-.25.12c-.26.18-.56.57-.56,1.72,0,2.19,1.28,7,7.37,17.44a3.15,3.15,0,0,1,.41,1.4c0,.66,0,1.59,0,2.83v2.68A13.21,13.21,0,0,0,337.56,92.88Z" style="fill:url(#New_Gradient_Swatch-9)"/><path d="M370.56,100a16.82,16.82,0,0,1-14.3-7,22.58,22.58,0,0,1-4.18-13.68,32.3,32.3,0,0,1,.64-6.56c2-9.62,6.6-15.15,13.6-16.45a11.89,11.89,0,0,1,2.19-.2,15.8,15.8,0,0,1,9.2,3.1,15.5,15.5,0,0,1,6,7.69c1.91,5.64,2.84,10,2.84,13.28a31.64,31.64,0,0,1-1.29,8.43,3.38,3.38,0,0,1-.15.88,14.79,14.79,0,0,1-5.51,7.68A15.18,15.18,0,0,1,370.56,100Zm-2.05-37.68a5.9,5.9,0,0,0-1.06.09c-1.6.29-6.46,1.19-8.66,11.63a25.43,25.43,0,0,0-.51,5.28,16.33,16.33,0,0,0,3,10,10.76,10.76,0,0,0,9.3,4.47A9,9,0,0,0,376,92.14a8.45,8.45,0,0,0,3-3.88,3.55,3.55,0,0,1,.12-.65,26.24,26.24,0,0,0,1.26-7.42c0-2.57-.85-6.37-2.51-11.28a9.41,9.41,0,0,0-3.7-4.62A9.69,9.69,0,0,0,368.51,62.33Zm1.33,25.87A5.08,5.08,0,0,1,366.5,87c-2.14-1.83-2.38-5-2.38-7.23a20.9,20.9,0,0,1,1-6.66c1.54-4.63,4.25-4.64,5.5-4.35,2.58.53,3.22,3.5,3.53,4.94a29.27,29.27,0,0,1,.59,6c0,2.11,0,6.82-3.06,8.1a3.33,3.33,0,0,1-.95.32A7.11,7.11,0,0,1,369.84,88.2Zm.43-3.14h0Zm-2.52-11.33Z" style="fill:url(#New_Gradient_Swatch-10)"/><path d="M401.13,100.29a18.33,18.33,0,0,1-10.65-3,15.38,15.38,0,0,1-6-8.24,32.8,32.8,0,0,1-1.2-9.93,55.29,55.29,0,0,1,1.79-15.19,9.52,9.52,0,0,1,3.32-4.72A9.92,9.92,0,0,1,393.49,57a8,8,0,0,1,5,1.24,8.9,8.9,0,0,1,3.08,3.14c.07-.25.15-.48.23-.69a2.51,2.51,0,0,1,.28-.57c2.19-3.53,4.8-4.22,6.61-4.18a8.85,8.85,0,0,1,5.77,2.35,12.9,12.9,0,0,1,3.26,4.68,3.17,3.17,0,0,1,.49,1.44c.14,1.59.2,3.36.2,5.28A60.76,60.76,0,0,1,414.73,91a15.51,15.51,0,0,1-3.53,5.5,12.51,12.51,0,0,1-5.38,3.41,3.15,3.15,0,0,1-.42.09A28.48,28.48,0,0,1,401.13,100.29Zm-6.9-37.17h-.12a3.89,3.89,0,0,0-1.87.92A3.35,3.35,0,0,0,391,65.65a49.31,49.31,0,0,0-1.54,13.44,27.55,27.55,0,0,0,.9,8,9.23,9.23,0,0,0,3.62,5,12.15,12.15,0,0,0,7.14,1.94,22.59,22.59,0,0,0,3.13-.22,6.66,6.66,0,0,0,2.5-1.73,9.4,9.4,0,0,0,2.16-3.34,54.56,54.56,0,0,0,3.29-19.16c0-1.48,0-2.86-.13-4.11a6.77,6.77,0,0,0-1.74-2.65,2.62,2.62,0,0,0-1.79-.79h0c-.15,0-.54.26-1,1a22.18,22.18,0,0,0-.65,3.22c-.06.44-.22,1.62-.59,4.87-.13,3.25-.17,6-.14,8.08a3.4,3.4,0,0,1,0,.45,9.24,9.24,0,0,1-2.33,5.24,2,2,0,0,1-.26.24,5.8,5.8,0,0,1-4.63,1.11,3.13,3.13,0,0,1-1.28-.46,6.43,6.43,0,0,1-2.85-3.21,4.6,4.6,0,0,1-.13-.5,19,19,0,0,1-.23-3.06,48.27,48.27,0,0,1,.9-7.15,49.41,49.41,0,0,0,.82-6.23c0-.51,0-1-.06-1.46a2.94,2.94,0,0,0-.84-.75A1.92,1.92,0,0,0,394.23,63.12Z" style="fill:url(#New_Gradient_Swatch-11)"/><path d="M438.62,100a8.86,8.86,0,0,1-6.37-3.26,7.47,7.47,0,0,1-.48.63,2.9,2.9,0,0,1-.61.55A10.77,10.77,0,0,1,425,100a10.09,10.09,0,0,1-2.47-.28c-2.63-.67-4.34-1.59-5.37-2.91-1.23-1.53-1.81-3.78-1.81-7.06V88c-.11-1.33,0-3.76.1-8.76a119.87,119.87,0,0,1,1.14-14.85c.43-2.52,2-5.81,7.23-7.37a56.13,56.13,0,0,1,8.84-1.36,2.84,2.84,0,0,1,.41,0c6,.2,10.22,2.35,12.61,6.4l.16.31a23.72,23.72,0,0,1,2.27,9.8,13.75,13.75,0,0,1-2.81,8.52,9.62,9.62,0,0,1-.84.88c2.8,3.52,4.17,6.64,4.17,9.47a8.94,8.94,0,0,1-.13,1.37,3.19,3.19,0,0,1-.57,1.35A13.8,13.8,0,0,1,445.28,97a10.58,10.58,0,0,1-5.93,2.92A6,6,0,0,1,438.62,100ZM430.69,85.5a3.11,3.11,0,0,1,2.79,1.73c2.6,5.34,4.54,6.64,5.19,6.55a4.65,4.65,0,0,0,2.4-1.32,7.67,7.67,0,0,0,1.37-1.64c-.05-1-.75-3.34-4.57-7.47a3.11,3.11,0,0,1,.23-4.44c1.92-1.69,2.32-2.11,2.38-2.18a7.56,7.56,0,0,0,1.44-4.7,17.58,17.58,0,0,0-1.67-7c-.54-.88-2.05-3-7.17-3.18a49.21,49.21,0,0,0-7.48,1.1c-2.59.78-2.8,2-2.89,2.46a117.23,117.23,0,0,0-1,14c-.17,5.85-.16,7.46-.14,7.9a3.29,3.29,0,0,1,.05.54v1.9c0,2.44.42,3.15.46,3.21h0a7,7,0,0,0,2,.74,3.72,3.72,0,0,0,1,.1,4.28,4.28,0,0,0,2.23-.71,4.56,4.56,0,0,0,.49-2.33,16.34,16.34,0,0,0-.12-1.77,3.11,3.11,0,0,1,2.21-3.33A3.26,3.26,0,0,1,430.69,85.5Zm14.76,6.34h0Zm-24.76-6.19Zm0,0h0Zm0,0Zm0,0h0Zm0,0h0Zm0,0Zm0,0h0Zm0,0h0Zm0,0h0Zm0,0h0Zm0,0h0Zm9-4.93a3.09,3.09,0,0,1-3.1-3.11c0-1.54,0-3.18,0-4.91-.05-2.27,0-3.61,1.06-4.69a3,3,0,0,1,.76-.55,6.2,6.2,0,0,1,2.9-1,4.7,4.7,0,0,1,1.26.19,3.21,3.21,0,0,1,1.31.67c2.19,1.92,3.3,4,3.3,6.06a6.36,6.36,0,0,1-2.26,4.74,11.61,11.61,0,0,1-4.18,2.45A3.18,3.18,0,0,1,429.69,80.67Z" style="fill:url(#New_Gradient_Swatch-12)"/><path d="M140,157.21v.06a4.3,4.3,0,0,1-3.53,3.58,13.16,13.16,0,0,1-3.1.36,7.87,7.87,0,0,1-4.78-1.37,17.09,17.09,0,0,1-1.55-2.27,8.93,8.93,0,0,1-.78-4,32.72,32.72,0,0,0-5.43.24,16.2,16.2,0,0,1,.24,1.61,11,11,0,0,1-1.37,5.07,5.82,5.82,0,0,1-5.08,2.45,17,17,0,0,1-4-.6l-.12-.12q-5.07-2.5-5.07-12.47c0-.44,0-1.47.12-3.11A86,86,0,0,1,107.23,132a35.56,35.56,0,0,1,6.33-13.5q3.52-4.59,10.21-4.59,7.15,0,10.8,4.47a15.67,15.67,0,0,1,3.05,6.15,89.3,89.3,0,0,1,3.28,22.15A56.38,56.38,0,0,1,140,157.21Zm-15.11-15.64a90.55,90.55,0,0,0-.6-15.11c-.27-.27-.69-.18-1.25.3-.52,3.39-.9,6.13-1.13,8.24a37.33,37.33,0,0,0-.42,6.33,1,1,0,0,0,1,.66,8.72,8.72,0,0,0,1.23-.21A9.41,9.41,0,0,1,124.84,141.57Z" style="fill:#fff"/><path d="M174.63,136.25a30.73,30.73,0,0,1-3.58,14.87,20.62,20.62,0,0,1-13,10.63,19.88,19.88,0,0,1-8.39-1.11c-2.49-.93-3.79-2.16-3.91-3.67q-1.08-15.94-1.08-30.63,0-5.43.24-7.76,1.5-3.22,9.61-3.22a28.71,28.71,0,0,1,8.18,1.07,18.29,18.29,0,0,1,6.81,5.74A22.93,22.93,0,0,1,174.63,136.25Zm-14.92-5.37a2.28,2.28,0,0,0-1.61-1,2.32,2.32,0,0,0-.9.24,4.49,4.49,0,0,1-.6.23,118,118,0,0,1,.84,14.09,9,9,0,0,0,2.89-3.52,10.39,10.39,0,0,0,1.17-4.72A8.2,8.2,0,0,0,159.71,130.88Z" style="fill:#fff"/><path d="M212.72,117.57q2.26,1.61,2.27,6.27,0,10-9.85,32.47a10.05,10.05,0,0,1-8.06,6.33,8.8,8.8,0,0,1-1.31.12,13.73,13.73,0,0,1-5.67-1.19,8.65,8.65,0,0,1-3.95-3.17,49.91,49.91,0,0,1-6.14-15,61.22,61.22,0,0,1-1.86-14.45,25.07,25.07,0,0,1,.72-7.1,7,7,0,0,1,3.46-4.06,7.9,7.9,0,0,1,4.24-1.08,6.26,6.26,0,0,1,5.67,3.41q1.38,2.81,2.27,11.16l.78,7.46q.48-4.29,1.55-12.74t4.36-10a10.56,10.56,0,0,1,4.6-1A9.75,9.75,0,0,1,212.72,117.57Z" style="fill:#fff"/><path d="M245.08,133.45a5.71,5.71,0,0,1,.18,1.85,6.66,6.66,0,0,1-2.57,5.31,6.31,6.31,0,0,1-5,1.73,4.91,4.91,0,0,0-1.79-.06,16.92,16.92,0,0,1-.42,3.83,2.32,2.32,0,0,0,1.25,2.14,6.29,6.29,0,0,1,4,0,3.8,3.8,0,0,1,2.69,3.23,7.66,7.66,0,0,1-1.49,5.22,14.42,14.42,0,0,1-5,4.45,13.13,13.13,0,0,1-6.63,1.61,14.17,14.17,0,0,1-6-1.25,13.14,13.14,0,0,1-3.4-3.34q-2.44-4.06-2.51-17.14a121.44,121.44,0,0,1,1.26-17.19c.51-3.74,1.59-6.17,3.22-7.29l10-1a23.77,23.77,0,0,1,4.9-.54q4.65,0,5.49,2.33a6.06,6.06,0,0,1,.36,2.15,5.23,5.23,0,0,1-1.91,4.18,8,8,0,0,1-5.32,1.61h-1.31a7.63,7.63,0,0,0-.48,2.84c-.08,1.66-.14,2.6-.18,2.84a1.45,1.45,0,0,0,1.26,1.07,6.75,6.75,0,0,1,4.36-1.38A6.06,6.06,0,0,1,245.08,133.45Z" style="fill:#fff"/><path d="M284.19,127.24v-.06q.58,6.93.59,13.07,0,18.93-6.27,21.26a6.21,6.21,0,0,1-2.21.36,16.79,16.79,0,0,1-3.88-.6q-3-1.67-9.13-19.16a39.71,39.71,0,0,1,1.07,9.1,18.11,18.11,0,0,1-1.43,7.9,5.59,5.59,0,0,1-2.36,2.37,5.36,5.36,0,0,1-3.25.81c-3.31-.32-5.55-2.34-6.75-6q-1.19-3.7-1.19-11.48,0-15.12,1.25-20.33a11,11,0,0,1,4.36-6.39,7.31,7.31,0,0,1,4.42-1.44A8.65,8.65,0,0,1,262,117q3.45,1.84,6.8,11.05a74.17,74.17,0,0,1,2.57,8.77c-.4-2.63-.74-4.93-1-6.92a65.15,65.15,0,0,1-.71-7.71,7.37,7.37,0,0,1,1.55-4.83,6.15,6.15,0,0,1,5.07-2.21q5.79,0,7.23,6.45A53.94,53.94,0,0,1,284.19,127.24Z" style="fill:#fff"/><path d="M321.74,122.82h.06a12.23,12.23,0,0,1,.18,2.33,6.86,6.86,0,0,1-1.44,4.54c-.35.4-2,.86-4.8,1.4a20.65,20.65,0,0,0-4.39,1q-.12.66,1.37,12.48a38.46,38.46,0,0,1,.3,4.78,24,24,0,0,1-1.43,9q-1.8,4.42-5.26,4.3c-3.74-.12-6.34-1.29-7.82-3.52q-1.67-2.51-1.73-7.94,0,.48.24-6.27l.3-7.64a46.74,46.74,0,0,1,.78-6.21,3.64,3.64,0,0,1-1.08.12,13.07,13.07,0,0,1-4.06-.66,6.42,6.42,0,0,1-3.76-2.62,9.16,9.16,0,0,1-1.43-4.6q0-3.58,3.94-5.55A26.86,26.86,0,0,1,304,115.18a45.89,45.89,0,0,1,7.88.72c1.31.47,3.3,1.21,6,2.2A6.84,6.84,0,0,1,321.74,122.82Z" style="fill:#fff"/><path d="M360.54,122.17l.06-.07q.24,2.82.24,6.27a71.55,71.55,0,0,1-4.36,25.32,15.63,15.63,0,0,1-3.55,5.52,11.74,11.74,0,0,1-5,3.25,33,33,0,0,1-4.78.36,19,19,0,0,1-11.1-3.1,15.37,15.37,0,0,1-6-8.3,37.78,37.78,0,0,1-1.32-11.23,65.19,65.19,0,0,1,2.09-17.91,8,8,0,0,1,2.84-3.94,8.57,8.57,0,0,1,4.39-2,6,6,0,0,1,3.79,1,7.14,7.14,0,0,1,2.77,3,24.53,24.53,0,0,1,.18,3,68.07,68.07,0,0,1-1.07,8.42,67.42,67.42,0,0,0-1.08,8.29,18.61,18.61,0,0,0,.24,3.17,4.49,4.49,0,0,0,2,2,3.62,3.62,0,0,0,2.81-.48,7.81,7.81,0,0,0,1.91-4.42q-.06-4.11.18-10.44c.4-3.43.65-5.54.77-6.33a26.78,26.78,0,0,1,1.14-5.2c1.43-2.3,3.06-3.44,4.89-3.4a7.24,7.24,0,0,1,4.72,2A12.49,12.49,0,0,1,360.54,122.17Z" style="fill:#fff"/><path d="M398.51,156.14h-.06a12.32,12.32,0,0,1-2.8,3.64,9.32,9.32,0,0,1-5.2,2.62q-5.07.54-10.38-10.32a23.06,23.06,0,0,1,.18,2.65,8.64,8.64,0,0,1-1.8,5.78A9.63,9.63,0,0,1,373,162.4a8.92,8.92,0,0,1-2.15-.23c-2.35-.6-3.88-1.35-4.59-2.27q-1.44-1.78-1.44-6.43v-2.38q-.18-.18.12-10.66a149.45,149.45,0,0,1,1.37-18.05q.78-4.45,6.33-6.13a68.44,68.44,0,0,1,10.33-1.55q9.13.3,12.54,6.09A25.69,25.69,0,0,1,398,131.42a13.31,13.31,0,0,1-2.69,8.3,43,43,0,0,1-3.4,3.16q6.74,7.29,6.74,12.18A7.22,7.22,0,0,1,398.51,156.14Zm-17.07-27.83h-.06a2,2,0,0,0-.6-.12,9,9,0,0,0-1.85.84,8.64,8.64,0,0,0-.18,3.05q.06,3.27.06,6.2a10.61,10.61,0,0,0,3.85-2.23,4.21,4.21,0,0,0,1.59-3.08Q384.25,130.76,381.44,128.31Z" style="fill:#fff"/><path d="M429.14,133.45a5.71,5.71,0,0,1,.18,1.85,6.66,6.66,0,0,1-2.57,5.31,6.31,6.31,0,0,1-5,1.73,4.91,4.91,0,0,0-1.79-.06,16.92,16.92,0,0,1-.42,3.83,2.32,2.32,0,0,0,1.25,2.14,6.29,6.29,0,0,1,4,0,3.79,3.79,0,0,1,2.69,3.23A7.66,7.66,0,0,1,426,156.7a14.42,14.42,0,0,1-5,4.45,13.12,13.12,0,0,1-6.62,1.61,14.17,14.17,0,0,1-6-1.25,13,13,0,0,1-3.41-3.34q-2.44-4.06-2.51-17.14a121.44,121.44,0,0,1,1.26-17.19q.78-5.61,3.22-7.29l10-1a23.85,23.85,0,0,1,4.9-.54q4.65,0,5.49,2.33a6.06,6.06,0,0,1,.36,2.15,5.23,5.23,0,0,1-1.91,4.18,8,8,0,0,1-5.31,1.61h-1.32a7.63,7.63,0,0,0-.48,2.84c-.08,1.66-.14,2.6-.17,2.84a1.42,1.42,0,0,0,1.25,1.07,6.77,6.77,0,0,1,4.36-1.38A6.06,6.06,0,0,1,429.14,133.45Z" style="fill:#fff"/><path d="M114.57,165.94a19.3,19.3,0,0,1-4.72-.69,2.91,2.91,0,0,1-1.13-.55c-4.21-2.31-6.34-7.34-6.34-14.95,0-.51,0-1.57.12-3.25a90.25,90.25,0,0,1,1.81-15.23,38.75,38.75,0,0,1,6.86-14.62c2.94-3.84,7.18-5.78,12.6-5.78,5.7,0,10.12,1.88,13.13,5.58a18.69,18.69,0,0,1,3.62,7.3,92.68,92.68,0,0,1,3.38,22.89,59.69,59.69,0,0,1-1,10.94,2,2,0,0,1,0,.24,7.25,7.25,0,0,1-5.77,6,16.34,16.34,0,0,1-3.8.44,10.8,10.8,0,0,1-6.57-2,3.1,3.1,0,0,1-.6-.6,16.29,16.29,0,0,1-1.87-2.79,10.39,10.39,0,0,1-.48-1.18,15.13,15.13,0,0,1-1.49,4.2l-.21.35A8.82,8.82,0,0,1,114.57,165.94Zm-2.74-6.38a12.82,12.82,0,0,0,2.74.38,2.86,2.86,0,0,0,2.52-1,8,8,0,0,0,.93-3.34c-.08-.67-.14-1-.17-1.12a3,3,0,0,1,2.58-3.62,35.45,35.45,0,0,1,5.93-.26,3,3,0,0,1,2.85,3,6,6,0,0,0,.46,2.66l.06.12h0s.19.32.9,1.28a5.5,5.5,0,0,0,2.69.58,9.92,9.92,0,0,0,2.4-.28c.87-.2,1.12-.51,1.25-1.08l0-.21a52.9,52.9,0,0,0,.9-10,86.52,86.52,0,0,0-3.19-21.39,12.65,12.65,0,0,0-2.46-5c-1.85-2.27-4.62-3.37-8.48-3.37-3.51,0-6.07,1.12-7.83,3.42a32.86,32.86,0,0,0-5.79,12.36,84.15,84.15,0,0,0-1.66,14.14c-.1,2.05-.11,2.73-.11,3,0,3.7.59,8.4,3.4,9.79ZM140,157.27h0ZM122.45,145a4,4,0,0,1-3.74-2.42,2.31,2.31,0,0,1-.19-.56c-.17-.7-.25-1.73.35-7.33.25-2.16.63-5,1.15-8.37a3,3,0,0,1,1-1.83c2-1.73,4.13-1.32,5.32-.14a3,3,0,0,1,.87,1.83,92.43,92.43,0,0,1,.6,15.66,3,3,0,0,1-2.77,2.73l-.76.15A8.91,8.91,0,0,1,122.45,145Zm2.57-.43h0Z" style="fill:url(#New_Gradient_Swatch-13)"/><path d="M156.5,164.8a22.12,22.12,0,0,1-7.85-1.35c-4.56-1.71-5.69-4.34-5.84-6.24-.72-10.68-1.09-21.06-1.09-30.87,0-3.76.08-6.4.26-8.06a2.91,2.91,0,0,1,.26-1c2.3-5,9.85-5,12.33-5a31.41,31.41,0,0,1,9,1.2,2.74,2.74,0,0,1,.4.15,21.43,21.43,0,0,1,7.94,6.64,26,26,0,0,1,5.68,15.9,33.85,33.85,0,0,1-3.94,16.3,23.56,23.56,0,0,1-14.77,12.08,2.78,2.78,0,0,1-.63.11C157.68,164.78,157.09,164.8,156.5,164.8Zm1.6-3.05Zm-9.32-5.06a4.29,4.29,0,0,0,2,1.14,16.88,16.88,0,0,0,6.82.94,17.52,17.52,0,0,0,10.82-9.06,27.9,27.9,0,0,0,3.23-13.46A19.87,19.87,0,0,0,167.17,124a15.49,15.49,0,0,0-5.49-4.73,25.88,25.88,0,0,0-7.11-.89c-4.65,0-6.21.85-6.69,1.26-.1,1.49-.16,3.75-.16,6.72C147.72,136,148.08,146.2,148.78,156.69Zm8.66-9.26a3,3,0,0,1-3-2.94,118.8,118.8,0,0,0-.8-13.69,3,3,0,0,1,.68-2.41,3.07,3.07,0,0,1,1.41-.92,1.6,1.6,0,0,0,.25-.11c2.38-1.06,4.35-.43,6,1.61l0,0a11.16,11.16,0,0,1,2.46,7.2,13.47,13.47,0,0,1-1.48,6.06,12.08,12.08,0,0,1-3.88,4.65A3,3,0,0,1,157.44,147.43Zm-.85-20.09Zm0,0h0Zm0,0Z" style="fill:url(#New_Gradient_Swatch-14)"/><path d="M195.77,165.76a16.86,16.86,0,0,1-6.89-1.45,11.67,11.67,0,0,1-5.26-4.3,53,53,0,0,1-6.53-15.94,65,65,0,0,1-1.94-15.16,27.56,27.56,0,0,1,.87-8,9.93,9.93,0,0,1,4.9-5.78,10.84,10.84,0,0,1,5.83-1.42,9.18,9.18,0,0,1,8.17,5c.1.2.19.42.28.64,1.07-3.13,2.62-5.11,4.72-6.11a13.73,13.73,0,0,1,5.88-1.3,12.67,12.67,0,0,1,8.83,3.31c2.23,1.69,3.36,4.57,3.36,8.59,0,7.17-3.3,18.19-10.1,33.68a13.14,13.14,0,0,1-10.34,8.09A12.52,12.52,0,0,1,195.77,165.76Zm-9.56-46.1a5.15,5.15,0,0,0-2.45.73,4,4,0,0,0-2,2.37,21.47,21.47,0,0,0-.57,6.15,58.87,58.87,0,0,0,1.77,13.74,47.32,47.32,0,0,0,5.76,14.14,5.91,5.91,0,0,0,2.63,2,10.78,10.78,0,0,0,4.46.93,6.19,6.19,0,0,0,.85-.08,7.11,7.11,0,0,0,5.77-4.57c6.37-14.51,9.6-25,9.6-31.27,0-2-.37-3.37-1-3.83l-.31-.25a6.79,6.79,0,0,0-4.87-1.82,7.6,7.6,0,0,0-3.32.73c-.18.08-1.82,1-2.66,7.66-.73,5.71-1.23,9.87-1.55,12.7a3,3,0,0,1-3,2.67h0a3,3,0,0,1-3-2.69l-.78-7.46c-.73-6.8-1.55-9.28-2-10.16s-1.09-1.6-3.15-1.72Z" style="fill:url(#New_Gradient_Swatch-15)"/><path d="M230.33,165.76a17.13,17.13,0,0,1-7.3-1.53c-1.24-.59-2.57-1.84-4.46-4.18a2.62,2.62,0,0,1-.24-.34c-2-3.25-2.89-9.18-2.94-18.67a125.88,125.88,0,0,1,1.28-17.61c.65-4.67,2.12-7.73,4.51-9.35a2.9,2.9,0,0,1,1.39-.51l9.81-1a26.88,26.88,0,0,1,5.36-.57c5.59,0,7.61,2.35,8.31,4.32a9,9,0,0,1,.54,3.16,8.21,8.21,0,0,1-3,6.47,9.31,9.31,0,0,1-3.09,1.71,9.09,9.09,0,0,1,7,4,2.82,2.82,0,0,1,.47,1,8.81,8.81,0,0,1,.28,2.71,9.69,9.69,0,0,1-3.64,7.52,9.94,9.94,0,0,1-4,2.18,7.74,7.74,0,0,1,1.29.4,6.71,6.71,0,0,1,4.5,5.67,10.58,10.58,0,0,1-2,7.22,17.38,17.38,0,0,1-6,5.38A16,16,0,0,1,230.33,165.76Zm-7-9.3a12.21,12.21,0,0,0,2.25,2.36,11.14,11.14,0,0,0,4.7.94,10.28,10.28,0,0,0,5.14-1.21,11.58,11.58,0,0,0,4-3.52,4.79,4.79,0,0,0,1-3.21c0-.25-.05-.48-.8-.77a3.3,3.3,0,0,0-2.13.1,3,3,0,0,1-2.27-.29,5.36,5.36,0,0,1-2.76-4.75,3,3,0,0,1,0-.52,22.72,22.72,0,0,0,.4-3,3,3,0,0,1,2.71-3.34,8.2,8.2,0,0,1,2.6.08,3.4,3.4,0,0,0,2.5-1,3.71,3.71,0,0,0,1.54-3,1.21,1.21,0,0,1,0-.19c0-.13,0-.26,0-.38a2.83,2.83,0,0,0-2.25-1.09,3.88,3.88,0,0,0-2.5.73A3,3,0,0,1,235,135a4.37,4.37,0,0,1-3.54-3.37,3,3,0,0,1,0-1.12s0-.43.15-2.5a10,10,0,0,1,.76-4,3,3,0,0,1,2.71-1.72h1.31a5.21,5.21,0,0,0,3.38-.91,2.21,2.21,0,0,0,.85-1.88,3.24,3.24,0,0,0-.15-1,5.57,5.57,0,0,0-2.7-.43,21.29,21.29,0,0,0-4.28.47,1.81,1.81,0,0,1-.31,0l-9,.92c-.46.59-1.13,1.92-1.53,4.81A119.74,119.74,0,0,0,221.39,141C221.44,151.26,222.62,155.07,223.38,156.46Zm9.53-13.77s0,.06,0,.08S232.92,142.72,232.91,142.69Zm7.51-24.31Z" style="fill:url(#New_Gradient_Swatch-16)"/><path d="M257.8,165.31a7.5,7.5,0,0,1-.82,0c-3.11-.3-7.28-2-9.26-8.1-.9-2.8-1.34-6.85-1.34-12.4,0-10.42.44-17.3,1.34-21a14,14,0,0,1,5.49-8.11,10.36,10.36,0,0,1,6.2-2,11.62,11.62,0,0,1,3.53.56,3.89,3.89,0,0,1,.51.21,11.74,11.74,0,0,1,3.93,3.77,9.32,9.32,0,0,1,1.52-2.65,9.17,9.17,0,0,1,7.4-3.32c5.29,0,8.9,3.12,10.16,8.8a49.24,49.24,0,0,1,.69,5.77,1,1,0,0,1,0,.17c.41,4.69.61,9.18.61,13.33,0,14.34-2.61,22-8.22,24.07a9.37,9.37,0,0,1-3.26.55,19.48,19.48,0,0,1-4.6-.69,2.78,2.78,0,0,1-.74-.29c-1.15-.64-2.49-1.95-4.44-5.79a15.24,15.24,0,0,1-.89,2.33,8.54,8.54,0,0,1-3.55,3.64A8.44,8.44,0,0,1,257.8,165.31Zm1.61-45.7a4.31,4.31,0,0,0-2.65.86,8,8,0,0,0-3.21,4.69c-.78,3.21-1.17,9.81-1.17,19.61,0,4.84.35,8.4,1.05,10.56,1,3.24,2.7,3.83,4.18,4a2.37,2.37,0,0,0,1.46-.42,2.87,2.87,0,0,0,1.15-1.06,15.46,15.46,0,0,0,1.14-6.61,37.19,37.19,0,0,0-1-8.42,3,3,0,0,1,5.75-1.68c4.68,13.32,6.92,16.61,7.64,17.39a12,12,0,0,0,2.54.37,3.43,3.43,0,0,0,1.16-.17c1-.38,4.32-2.82,4.32-18.45,0-3.91-.19-8.15-.56-12.58a1.1,1.1,0,0,1,0-.18c-.3-3.51-.51-4.78-.6-5.23-.76-3.38-2.26-4.08-4.3-4.08a3.13,3.13,0,0,0-2.74,1.1,4.5,4.5,0,0,0-.88,2.94,61,61,0,0,0,.69,7.3c.27,2,.61,4.27,1,6.88a3,3,0,0,1-5.89,1.14,72.72,72.72,0,0,0-2.46-8.42c-2.45-6.74-4.34-8.73-5.2-9.32A5.9,5.9,0,0,0,259.41,119.61Z" style="fill:url(#New_Gradient_Swatch-17)"/><path d="M306.5,165.65h-.27c-4.75-.15-8.19-1.79-10.22-4.87-1.45-2.17-2.18-5.3-2.23-9.55v0c0-.11,0-.22,0-.32,0-.4.07-1.75.22-6.06l.3-7.65c.08-1.12.17-2.17.28-3.16a16.69,16.69,0,0,1-2.56-.61,9.34,9.34,0,0,1-5.43-4,12.18,12.18,0,0,1-1.84-6.11c0-2.48,1-5.92,5.6-8.24A29.93,29.93,0,0,1,304,112.18a49.63,49.63,0,0,1,8.39.76,2.73,2.73,0,0,1,.51.14l6,2.21.33.15a9.86,9.86,0,0,1,5.33,6.11,3,3,0,0,1,.23.68,15,15,0,0,1,.24,2.92,9.8,9.8,0,0,1-2.19,6.52c-.82.92-2,1.53-6.5,2.37-.72.13-1.3.25-1.77.35.18,1.67.52,4.63,1.18,9.85a42.38,42.38,0,0,1,.32,5.15,27.11,27.11,0,0,1-1.65,10.08C312.22,164.78,308.62,165.65,306.5,165.65ZM299.77,151a1.09,1.09,0,0,1,0,.18c0,3.95.79,5.65,1.23,6.31.34.51,1.36,2,5.42,2.18.41,0,1.38.05,2.38-2.42a21.34,21.34,0,0,0,1.21-7.83,36.37,36.37,0,0,0-.27-4.41c-1.56-12.27-1.47-12.74-1.35-13.39a2.91,2.91,0,0,1,.27-.8c.78-1.56,2-1.79,6.51-2.65a29.48,29.48,0,0,0,3.35-.77,5.29,5.29,0,0,0,.45-2.28,12,12,0,0,0-.06-1.24,3.17,3.17,0,0,1-.12-.44,3.72,3.72,0,0,0-2.23-2.56q-3.6-1.35-5.52-2a42.59,42.59,0,0,0-7.1-.63,24.07,24.07,0,0,0-10.89,2.24c-2.29,1.15-2.29,2.32-2.29,2.88a6.29,6.29,0,0,0,1,3.08,3.84,3.84,0,0,0,2.1,1.29,10.1,10.1,0,0,0,3.13.51h.26a3,3,0,0,1,2.8.64,3,3,0,0,1,.95,2.85,44.61,44.61,0,0,0-.72,5.81L300,145c-.08,2.09-.13,3.67-.17,4.72C299.83,150.13,299.82,150.54,299.77,151Zm12.83-16.14Zm-15.38-6.64-.08,0Z" style="fill:url(#New_Gradient_Swatch-18)"/><path d="M343.11,165.82a22,22,0,0,1-12.81-3.64,18.38,18.38,0,0,1-7.18-9.84,40.35,40.35,0,0,1-1.46-12.15,68.54,68.54,0,0,1,2.21-18.75,10.93,10.93,0,0,1,3.85-5.45,11.58,11.58,0,0,1,5.93-2.6,9,9,0,0,1,5.7,1.42,10.18,10.18,0,0,1,3.89,4.25,2.91,2.91,0,0,1,.28.94c.08.62.13,1.25.17,1.91a25,25,0,0,1,1.08-4.48,2.81,2.81,0,0,1,.27-.55c2.52-4.06,5.49-4.84,7.51-4.82a10.19,10.19,0,0,1,6.64,2.73,15.1,15.1,0,0,1,3.88,5.61,3,3,0,0,1,.52,1.45c.17,2,.25,4.15.25,6.52a75,75,0,0,1-4.55,26.37,18.68,18.68,0,0,1-4.21,6.57,14.86,14.86,0,0,1-6.34,4l-.42.09A35.86,35.86,0,0,1,343.11,165.82Zm-8.63-46.47h-.22a5.71,5.71,0,0,0-2.81,1.33,5,5,0,0,0-1.82,2.45,62.47,62.47,0,0,0-2,17,35.5,35.5,0,0,0,1.17,10.31,12.35,12.35,0,0,0,4.86,6.74,16.24,16.24,0,0,0,9.42,2.58,30.68,30.68,0,0,0,4.11-.29,9.18,9.18,0,0,0,3.56-2.41,12.65,12.65,0,0,0,2.89-4.48,69,69,0,0,0,4.17-24.27c0-1.93-.06-3.72-.17-5.33a9.66,9.66,0,0,0-2.46-3.77,4.25,4.25,0,0,0-2.8-1.21c-.81,0-1.54.87-2.1,1.72a25.16,25.16,0,0,0-.88,4.29c-.09.56-.28,2.05-.76,6.14-.15,4.1-.21,7.52-.17,10.18a3.11,3.11,0,0,1,0,.43,10.74,10.74,0,0,1-2.68,6.07,1.88,1.88,0,0,1-.25.24,6.44,6.44,0,0,1-5.12,1.18,3.13,3.13,0,0,1-1.23-.44A7.26,7.26,0,0,1,336,144.3a4.21,4.21,0,0,1-.12-.48,21.5,21.5,0,0,1-.29-3.69,60.93,60.93,0,0,1,1.12-8.79,60.44,60.44,0,0,0,1-7.92c0-.74,0-1.46-.09-2.13a4.44,4.44,0,0,0-1.44-1.38A3.23,3.23,0,0,0,334.48,119.35Zm7.21,22.93.07.06a5.41,5.41,0,0,0,.74-2.1c0-2.17,0-4.79.09-7.83a63.15,63.15,0,0,0-1,7.72A17.26,17.26,0,0,0,341.69,142.28Z" style="fill:url(#New_Gradient_Swatch-19)"/><path d="M390,165.43c-2.82,0-5.49-1.55-8.06-4.68a10,10,0,0,1-1.15,1.7,3.45,3.45,0,0,1-.6.54A12.62,12.62,0,0,1,373,165.4a12.33,12.33,0,0,1-2.88-.32c-3.08-.79-5.06-1.84-6.23-3.33-1.4-1.75-2.07-4.39-2.07-8.28v-2.22c-.15-1.48-.06-4.39.12-10.91a150.61,150.61,0,0,1,1.41-18.44c.51-2.9,2.37-6.7,8.43-8.52a69.37,69.37,0,0,1,10.89-1.66,2.68,2.68,0,0,1,.4,0c7.16.24,12.21,2.78,15,7.57a3,3,0,0,1,.15.31A28.79,28.79,0,0,1,401,131.46a16.28,16.28,0,0,1-3.33,10.11,15,15,0,0,1-1.55,1.57c3.72,4.5,5.53,8.42,5.53,11.92a9.74,9.74,0,0,1-.16,1.57,3,3,0,0,1-.58,1.34,16,16,0,0,1-3.19,4,12.35,12.35,0,0,1-6.91,3.42A5.78,5.78,0,0,1,390,165.43Zm-9.89-16.35a3,3,0,0,1,2.69,1.68c3.24,6.62,6,8.82,7.38,8.66a6.52,6.52,0,0,0,3.49-1.87,9.76,9.76,0,0,0,2-2.47v0c0-1.68-1-4.81-5.94-10.12a3,3,0,0,1,.22-4.29c2.49-2.2,3-2.72,3-2.8a10.26,10.26,0,0,0,2-6.45,22.74,22.74,0,0,0-2.18-9.21c-1.73-2.81-4.93-4.27-9.77-4.46a61.41,61.41,0,0,0-9.58,1.42c-3.37,1-4,2.63-4.22,3.77a144,144,0,0,0-1.33,17.62c-.21,7.43-.2,9.45-.17,10a3.66,3.66,0,0,1,0,.57v2.38c0,3.42.65,4.39.77,4.56s.57.61,3,1.23a6.27,6.27,0,0,0,1.41.14,6.36,6.36,0,0,0,3.42-1.11,6.27,6.27,0,0,0,.87-3.56,22,22,0,0,0-.16-2.31,3,3,0,0,1,2.13-3.22A2.77,2.77,0,0,1,380.07,149.08Zm18.44,7.06h0ZM367,149Zm0,0Zm0,0h0Zm0,0Zm0,0h0Zm0,0Zm0,0Zm0,0h0Zm0,0h0Zm0,0Zm0,0h0Zm0,0h0Zm0,0Zm0,0h0Zm11.91-7.69a3,3,0,0,1-1.74-.56,3,3,0,0,1-1.26-2.44q0-2.9-.06-6.15c-.06-2.89,0-4.18,1.06-5.22a3,3,0,0,1,.74-.54c1.73-.9,2.4-1.18,3.23-1.18a4.47,4.47,0,0,1,1.35.22,3,3,0,0,1,1.28.64c2.55,2.22,3.84,4.55,3.84,6.92a7.14,7.14,0,0,1-2.55,5.28,13.74,13.74,0,0,1-4.92,2.87A2.9,2.9,0,0,1,378.81,141.28Z" style="fill:url(#New_Gradient_Swatch-20)"/><path d="M414.4,165.76a17.07,17.07,0,0,1-7.3-1.53c-1.25-.59-2.58-1.84-4.47-4.18a2.62,2.62,0,0,1-.24-.34c-2-3.25-2.89-9.18-2.94-18.67a124.51,124.51,0,0,1,1.29-17.61c.64-4.67,2.11-7.73,4.5-9.35a2.9,2.9,0,0,1,1.39-.51l9.82-1a26.71,26.71,0,0,1,5.35-.57c5.59,0,7.61,2.35,8.31,4.32a9,9,0,0,1,.54,3.16,8.21,8.21,0,0,1-3,6.47,9.31,9.31,0,0,1-3.09,1.71,9.06,9.06,0,0,1,7,4,2.82,2.82,0,0,1,.47,1,8.81,8.81,0,0,1,.28,2.71,9.69,9.69,0,0,1-3.64,7.52,9.94,9.94,0,0,1-4,2.18,7.74,7.74,0,0,1,1.29.4,6.7,6.7,0,0,1,4.5,5.67,10.58,10.58,0,0,1-2,7.22,17.29,17.29,0,0,1-6,5.38A16,16,0,0,1,414.4,165.76Zm-7-9.3a12.21,12.21,0,0,0,2.25,2.36,11.15,11.15,0,0,0,4.71.94,10.25,10.25,0,0,0,5.13-1.21,11.58,11.58,0,0,0,4-3.52,4.79,4.79,0,0,0,1-3.21c0-.25-.05-.48-.8-.77a3.3,3.3,0,0,0-2.13.1,3,3,0,0,1-2.26-.29,5.35,5.35,0,0,1-2.77-4.75,3,3,0,0,1,0-.52,20.64,20.64,0,0,0,.4-3,3,3,0,0,1,2.71-3.34,8.2,8.2,0,0,1,2.6.08,3.37,3.37,0,0,0,2.5-1,3.71,3.71,0,0,0,1.54-3,1.21,1.21,0,0,1,0-.19v-.38a2.86,2.86,0,0,0-2.26-1.09,3.88,3.88,0,0,0-2.5.73,3,3,0,0,1-2.51.58,4.4,4.4,0,0,1-3.54-3.37,2.81,2.81,0,0,1,0-1.12s0-.43.14-2.5a10,10,0,0,1,.76-4,3,3,0,0,1,2.71-1.72h1.32a5.25,5.25,0,0,0,3.38-.91,2.22,2.22,0,0,0,.84-1.88,3.24,3.24,0,0,0-.15-1,5.53,5.53,0,0,0-2.7-.43,21.29,21.29,0,0,0-4.28.47,1.67,1.67,0,0,1-.31,0l-9,.92c-.46.59-1.13,1.92-1.53,4.81A121.28,121.28,0,0,0,405.45,141C405.5,151.26,406.68,155.07,407.44,156.46ZM417,142.69a.19.19,0,0,0,0,.08A.19.19,0,0,1,417,142.69Zm7.5-24.31Z" style="fill:url(#New_Gradient_Swatch-21)"/></g></svg>