<svg xmlns="http://www.w3.org/2000/svg" xmlns:xlink="http://www.w3.org/1999/xlink" id="Layer_1" data-name="Layer 1" viewBox="0 0 617.96 220.97" style="-webkit-transform:translateZ(0)"><defs><linearGradient id="linear-gradient" x1="-53.75" x2="-53.75" y1="275.37" y2="278.24" gradientTransform="matrix(191.85, 0, 0, -60.04, 10620.19, 16728.56)" gradientUnits="userSpaceOnUse"><stop offset="0" stop-color="#d2981c"/><stop offset="1" stop-color="#ffce5b"/></linearGradient><filter id="f1" width="200%" height="200%" name="f1"><feOffset dx="1" dy="2" in="SourceAlpha" result="offOut"/><feGaussianBlur in="offOut" result="blurOut" stdDeviation="4"/><feComponentTransfer><feFuncA slope=".2" type="linear"/></feComponentTransfer><feMerge><feMergeNode/><feMergeNode in="SourceGraphic"/></feMerge></filter><linearGradient id="linear-gradient-2" x1="-53.7" x2="-53.7" y1="275.32" y2="277.79" gradientTransform="matrix(185.13, 0, 0, -53.32, 10249.73, 14857.44)" gradientUnits="userSpaceOnUse"><stop offset="0" stop-color="#057a97"/><stop offset="1" stop-color="#00aed9"/></linearGradient><linearGradient id="linear-gradient-3" x1="309.34" x2="308.17" y1="39.33" y2="192.91" gradientUnits="userSpaceOnUse"><stop offset="0" stop-color="#be914a"/><stop offset="1" stop-color="#ffe9b6"/></linearGradient><linearGradient id="linear-gradient-5" x1="-29.7" x2="-29.7" y1="273.34" y2="274.01" gradientTransform="matrix(15.7, 0, 0, -20.66, 979.82, 5764.36)" gradientUnits="userSpaceOnUse" xlink:href="#linear-gradient"/><linearGradient id="New_Gradient_Swatch" x1="116.09" x2="116.09" y1="159.92" y2="66.69" gradientUnits="userSpaceOnUse"><stop offset="0" stop-color="#ca9522"/><stop offset="1" stop-color="#eabc52"/></linearGradient><linearGradient id="New_Gradient_Swatch-2" x1="149.14" x2="149.14" y1="159.92" y2="66.69" xlink:href="#New_Gradient_Swatch"/><linearGradient id="New_Gradient_Swatch-3" x1="184.83" x2="184.83" y1="159.92" y2="66.69" xlink:href="#New_Gradient_Swatch"/><linearGradient id="New_Gradient_Swatch-4" x1="221.57" x2="221.57" y1="159.92" y2="66.69" xlink:href="#New_Gradient_Swatch"/><linearGradient id="New_Gradient_Swatch-5" x1="256.68" x2="256.68" y1="159.92" y2="66.69" xlink:href="#New_Gradient_Swatch"/><linearGradient id="New_Gradient_Swatch-6" x1="306.67" x2="306.67" y1="159.92" y2="66.69" xlink:href="#New_Gradient_Swatch"/><linearGradient id="New_Gradient_Swatch-7" x1="342.16" x2="342.16" y1="159.92" y2="66.69" xlink:href="#New_Gradient_Swatch"/><linearGradient id="New_Gradient_Swatch-8" x1="379.74" x2="379.74" y1="159.92" y2="66.69" xlink:href="#New_Gradient_Swatch"/><linearGradient id="New_Gradient_Swatch-9" x1="416.85" x2="416.85" y1="159.92" y2="66.69" xlink:href="#New_Gradient_Swatch"/><linearGradient id="New_Gradient_Swatch-10" x1="119.83" x2="119.83" y1="158.67" y2="62.87" xlink:href="#New_Gradient_Swatch"/><linearGradient id="New_Gradient_Swatch-11" x1="157.21" x2="157.21" y1="158.67" y2="62.87" xlink:href="#New_Gradient_Swatch"/><linearGradient id="New_Gradient_Swatch-12" x1="194.95" x2="194.95" y1="158.67" y2="62.87" xlink:href="#New_Gradient_Swatch"/><linearGradient id="New_Gradient_Swatch-13" x1="231.02" x2="231.02" y1="158.67" y2="62.87" xlink:href="#New_Gradient_Swatch"/><linearGradient id="New_Gradient_Swatch-14" x1="267.07" x2="267.07" y1="158.67" y2="62.87" xlink:href="#New_Gradient_Swatch"/><linearGradient id="New_Gradient_Swatch-15" x1="305.73" x2="305.73" y1="158.67" y2="62.87" xlink:href="#New_Gradient_Swatch"/><linearGradient id="New_Gradient_Swatch-16" x1="344.48" x2="344.48" y1="158.67" y2="62.87" xlink:href="#New_Gradient_Swatch"/><linearGradient id="New_Gradient_Swatch-17" x1="384.29" x2="384.29" y1="158.67" y2="62.87" xlink:href="#New_Gradient_Swatch"/><linearGradient id="New_Gradient_Swatch-18" x1="419.3" x2="419.3" y1="158.67" y2="62.87" xlink:href="#New_Gradient_Swatch"/></defs><title>map__week-button--raw</title><path d="M569.51,208.63H48.29A38.79,38.79,0,0,1,9.55,169.89V51.08A38.79,38.79,0,0,1,48.29,12.34H569.51a38.78,38.78,0,0,1,38.74,38.74V169.89A38.78,38.78,0,0,1,569.51,208.63ZM48.29,25.34A25.77,25.77,0,0,0,22.55,51.08V169.89a25.77,25.77,0,0,0,25.74,25.74H569.51a25.77,25.77,0,0,0,25.74-25.74V51.08a25.76,25.76,0,0,0-25.74-25.74Z" style="fill:url(#linear-gradient);filter:url(#f1)"/><path id="background" d="M51.94,25.27H566.32c18.29,0,33.12,15.29,33.12,34.16V163.58c0,18.87-14.83,34.16-33.12,34.16H51.94c-18.29,0-33.12-15.29-33.12-34.16V59.43C18.82,40.56,33.65,25.27,51.94,25.27Z" style="fill-rule:evenodd;fill:url(#linear-gradient-2)"/><path id="inner_border" d="M567.9,25H49.69c-17.42,0-27.54,10.5-27.54,27.16V168.28c0,16.66,9.9,28.16,27.33,28.16H567.9c17.43,0,27.55-10.5,27.55-27.16V52.11C595.45,35.45,585.33,25,567.9,25Zm13.55,135.22c0,14.07-9.63,22.94-26.2,22.94H62.14c-16.57,0-26-9.71-26-23.78V61.22c0-14.07,9.62-22.93,26.2-22.93h492.9c16.57,0,26.2,8.86,26.2,22.93Z" data-name="inner border" style="fill:url(#linear-gradient-3)"/><path id="outer_border" d="M569.51,208.63H48.29A38.79,38.79,0,0,1,9.55,169.89V51.08A38.79,38.79,0,0,1,48.29,12.34H569.51a38.78,38.78,0,0,1,38.74,38.74V169.89A38.78,38.78,0,0,1,569.51,208.63ZM48.29,25.34A25.77,25.77,0,0,0,22.55,51.08V169.89a25.77,25.77,0,0,0,25.74,25.74H569.51a25.77,25.77,0,0,0,25.74-25.74V51.08a25.76,25.76,0,0,0-25.74-25.74Z" data-name="outer border" style="fill:url(#linear-gradient)"/><path d="M62.76,183.17c-16.57,0-26-9.71-26-23.78V61.28c0-14.07,9.62-22.93,26.2-22.93h492.9C572.45,38.35,62.76,183.17,62.76,183.17Z" style="fill:#fff;opacity:.336681544780731;isolation:isolate"/><g style="filter:url(#f1)"><path d="M501.74,83.57a5.29,5.29,0,0,0-8.55,4.17v45.48a5.29,5.29,0,0,0,8.37,4.31l30.35-21.76a5.6,5.6,0,0,0,1.08-1,5.3,5.3,0,0,0-.91-7.43Z" style="fill:#fff;fill-rule:evenodd"/><path d="M498.51,145.52a11.59,11.59,0,0,1-2-.17,12.28,12.28,0,0,1-10.29-12.13V87.74a12.29,12.29,0,0,1,19.86-9.68l30.34,23.72A12.31,12.31,0,0,1,538.5,119a12.52,12.52,0,0,1-2.51,2.42l-30.35,21.75A12.16,12.16,0,0,1,498.51,145.52Zm0-63.07a5.29,5.29,0,0,0-5.29,5.29v45.48a5.29,5.29,0,0,0,8.37,4.31l30.35-21.76a5.6,5.6,0,0,0,1.08-1,5.3,5.3,0,0,0-.91-7.43L501.74,83.57A5.34,5.34,0,0,0,498.48,82.45Z" style="fill:url(#linear-gradient-5)"/></g><g style="filter:url(#f1)"><path d="M112.21,90h.06c1.37-.34,2.07-1,2.11-2a1.56,1.56,0,0,0-.48-1.08,26.38,26.38,0,0,0-3.62-2.45,25.89,25.89,0,0,1-3.81-2.79,15.76,15.76,0,0,1-3-4.33A16.29,16.29,0,0,1,101.69,70a13.18,13.18,0,0,1,4.21-9.56,15.23,15.23,0,0,1,11.16-4.67,13.13,13.13,0,0,1,6.77,1.77,14.74,14.74,0,0,1,4,4.21,5.12,5.12,0,0,1,1,2.56,6.08,6.08,0,0,1-1.36,3.47l0,.06q-1.82,2.56-3.81,2.56a8.58,8.58,0,0,1-1.88-.28c-1.21-.31-1.92-1.37-2.11-3.19q-.11-1.08-1.65-1.08a2.56,2.56,0,0,0-1.42.4,4.64,4.64,0,0,0-.63,2.27,3.88,3.88,0,0,0,1.83,3.25q6.7,4.78,7.91,5.92,4.28,4,4.55,8.48c0,.72.1,1.69.17,2.91q.12,7.33-8.84,11.44a15.46,15.46,0,0,1-6.39,1.54A9,9,0,0,1,114,102l-.12,0q-11-1.77-11.8-8.26c-.16-1-.26-1.68-.32-2.08s-.08-.52-.08-.37a4.13,4.13,0,0,1,.91-2.67,2.63,2.63,0,0,1,2.06-1.14,11.4,11.4,0,0,1,3,1.34,9.44,9.44,0,0,0,3.49,1.33,4.71,4.71,0,0,0,1-.11Z" style="fill:#fff"/><path d="M165.22,63.89h.06a11.91,11.91,0,0,1,.17,2.22,6.5,6.5,0,0,1-1.37,4.32c-.34.38-1.87.83-4.58,1.34s-4.11.85-4.18,1q-.12.62,1.31,11.9a38.46,38.46,0,0,1,.28,4.55,22.89,22.89,0,0,1-1.37,8.54c-1.14,2.81-2.81,4.17-5,4.1-3.56-.12-6.05-1.23-7.45-3.36-1.07-1.59-1.62-4.12-1.66-7.57q0,.45.23-6l.29-7.29a44.94,44.94,0,0,1,.74-5.92,3.31,3.31,0,0,1-1,.12,12.44,12.44,0,0,1-3.87-.63,6.11,6.11,0,0,1-3.59-2.51,8.71,8.71,0,0,1-1.36-4.38q0-3.42,3.76-5.29a25.47,25.47,0,0,1,11.67-2.45,44.39,44.39,0,0,1,7.51.68l5.69,2.11A6.5,6.5,0,0,1,165.22,63.89Z" style="fill:#fff"/><path d="M200.86,96.68v0a4.07,4.07,0,0,1-3.36,3.42,12.49,12.49,0,0,1-3,.34A7.37,7.37,0,0,1,190,99.18,15,15,0,0,1,188.51,97a8.47,8.47,0,0,1-.74-3.82,31.77,31.77,0,0,0-5.18.23c.07.34.15.86.22,1.54a10.34,10.34,0,0,1-1.31,4.84,5.53,5.53,0,0,1-4.84,2.33,16.26,16.26,0,0,1-3.81-.57l-.11-.11q-4.85-2.38-4.84-11.9c0-.42,0-1.4.11-3a82.52,82.52,0,0,1,1.65-14,33.91,33.91,0,0,1,6-12.87q3.36-4.38,9.73-4.38,6.84,0,10.31,4.27a15,15,0,0,1,2.9,5.86,85,85,0,0,1,3.13,21.12A53,53,0,0,1,200.86,96.68Zm-14.4-14.92a88,88,0,0,0-.57-14.4c-.27-.27-.67-.17-1.2.28q-.74,4.85-1.08,7.86a36.26,36.26,0,0,0-.4,6,1,1,0,0,0,1,.63,9,9,0,0,0,1.17-.2A9.54,9.54,0,0,1,186.46,81.76Z" style="fill:#fff"/><path d="M237.64,95.65h-.06a11.64,11.64,0,0,1-2.68,3.48,8.94,8.94,0,0,1-5,2.5q-4.83.51-9.9-9.85a23.25,23.25,0,0,1,.17,2.53,8.29,8.29,0,0,1-1.71,5.52,9.21,9.21,0,0,1-5.24,1.8,8.57,8.57,0,0,1-2.05-.23q-3.36-.84-4.38-2.15c-.91-1.14-1.37-3.18-1.37-6.14V90.84c-.11-.11-.08-3.5.12-10.16a140.6,140.6,0,0,1,1.3-17.21q.75-4.26,6-5.85a66.38,66.38,0,0,1,9.85-1.48q8.72.28,11.95,5.81a24.5,24.5,0,0,1,2.4,10.13A12.72,12.72,0,0,1,234.56,80a40.13,40.13,0,0,1-3.24,3q6.44,6.94,6.43,11.62A7.43,7.43,0,0,1,237.64,95.65ZM221.36,69.12h-.06a2.08,2.08,0,0,0-.57-.11,8.85,8.85,0,0,0-1.77.8,8.23,8.23,0,0,0-.17,2.9c0,2.09.06,4.06.06,5.92a10.08,10.08,0,0,0,3.67-2.13A4,4,0,0,0,224,73.56Q224,71.46,221.36,69.12Z" style="fill:#fff"/><path d="M272.76,63.89h.06a11.1,11.1,0,0,1,.17,2.22,6.56,6.56,0,0,1-1.36,4.32c-.35.38-1.87.83-4.59,1.34s-4.11.85-4.18,1q-.12.62,1.31,11.9a36.44,36.44,0,0,1,.28,4.55,22.91,22.91,0,0,1-1.36,8.54c-1.14,2.81-2.81,4.17-5,4.1-3.57-.12-6.06-1.23-7.46-3.36-1.07-1.59-1.62-4.12-1.65-7.57q0,.45.22-6l.29-7.29a44.94,44.94,0,0,1,.74-5.92,3.31,3.31,0,0,1-1,.12,12.44,12.44,0,0,1-3.87-.63,6.08,6.08,0,0,1-3.58-2.51,8.73,8.73,0,0,1-1.37-4.38q0-3.42,3.76-5.29A25.47,25.47,0,0,1,255.8,56.6a44.39,44.39,0,0,1,7.51.68l5.7,2.11A6.51,6.51,0,0,1,272.76,63.89Z" style="fill:#fff"/><path d="M293.71,57.85h.06a6.61,6.61,0,0,1,3.08-.74,5.32,5.32,0,0,1,5.06,2.79,13.82,13.82,0,0,1,2.39,5q1.49,4.78,1.71,5.18,2.5-10.7,5.87-14a9,9,0,0,1,3.35-.63,6.15,6.15,0,0,1,4.27,1.42c2,1.33,3,3.51,3,6.55a35.11,35.11,0,0,1-2.9,10.19q-1.42,3.19-4.78,9.39,0,2.46-.06,7.23a19.25,19.25,0,0,1-1.31,7,8.08,8.08,0,0,1-5,4.55,11.6,11.6,0,0,1-1.31.12q-4.56,0-6.32-3.59a18.54,18.54,0,0,1-.8-6v-3.3c0-1.37,0-2.39,0-3.08Q290.8,70,290.81,63.32,290.81,59.33,293.71,57.85Z" style="fill:#fff"/><path d="M357.42,91.67l.06,0A14,14,0,0,1,352.27,99a14.38,14.38,0,0,1-8.63,2.68q-9,0-14.06-6.83a23.18,23.18,0,0,1-4.27-14.12,34.6,34.6,0,0,1,.68-7.06q3.13-14.87,13.27-16.74a10.83,10.83,0,0,1,1.93-.17,15.2,15.2,0,0,1,8.86,3,14.85,14.85,0,0,1,5.78,7.34Q359,76.52,359,81.76a34.66,34.66,0,0,1-1.65,9.91Zm-14.12-4.1v-.06c1.1-.19,1.65-2.29,1.65-6.32a31.16,31.16,0,0,0-.62-6.4c-.42-2-.88-3-1.37-3.05-.84-.23-1.59.68-2.28,2.73a21.43,21.43,0,0,0-1,6.78Q339.66,88.14,343.3,87.57Z" style="fill:#fff"/><path d="M396.7,63.26l.06-.06q.23,2.68.23,6a68.34,68.34,0,0,1-4.16,24.14,14.92,14.92,0,0,1-3.39,5.26,11.27,11.27,0,0,1-4.81,3.11,31,31,0,0,1-4.55.34,18.16,18.16,0,0,1-10.59-3,14.71,14.71,0,0,1-5.75-7.91,36.06,36.06,0,0,1-1.25-10.71,62,62,0,0,1,2-17.08,7.62,7.62,0,0,1,2.7-3.75,8.09,8.09,0,0,1,4.19-1.88,5.69,5.69,0,0,1,3.61.94,6.82,6.82,0,0,1,2.65,2.87,24.2,24.2,0,0,1,.17,2.9,64,64,0,0,1-1,8,63.75,63.75,0,0,0-1,7.92,17.9,17.9,0,0,0,.23,3,4.25,4.25,0,0,0,1.88,1.94,3.43,3.43,0,0,0,2.67-.46,7.39,7.39,0,0,0,1.83-4.21c0-2.62,0-5.94.17-10q.56-4.91.74-6a25.1,25.1,0,0,1,1.08-5q2-3.3,4.67-3.25a6.89,6.89,0,0,1,4.49,1.88A12,12,0,0,1,396.7,63.26Z" style="fill:#fff"/><path d="M432.91,95.65h-.06a11.75,11.75,0,0,1-2.67,3.48,9,9,0,0,1-5,2.5q-4.83.51-9.9-9.85a23.25,23.25,0,0,1,.17,2.53,8.29,8.29,0,0,1-1.71,5.52,9.21,9.21,0,0,1-5.24,1.8,8.57,8.57,0,0,1-2.05-.23q-3.36-.84-4.38-2.15c-.91-1.14-1.37-3.18-1.37-6.14V90.84q-.17-.16.12-10.16a140.2,140.2,0,0,1,1.31-17.21q.74-4.26,6-5.85a66.38,66.38,0,0,1,9.85-1.48q8.71.28,12,5.81a24.47,24.47,0,0,1,2.39,10.13A12.71,12.71,0,0,1,429.84,80a43.39,43.39,0,0,1-3.25,3Q433,90,433,94.63A6.11,6.11,0,0,1,432.91,95.65ZM416.63,69.12h-.06A2.08,2.08,0,0,0,416,69a8.64,8.64,0,0,0-1.76.8,8,8,0,0,0-.17,2.9c0,2.09.05,4.06.05,5.92a10.21,10.21,0,0,0,3.68-2.13,4,4,0,0,0,1.5-2.94Q419.3,71.46,416.63,69.12Z" style="fill:#fff"/><path d="M115.26,105a11.74,11.74,0,0,1-1.66-.15,2.36,2.36,0,0,1-.51-.12c-8.44-1.43-13.1-5-13.84-10.65-.14-.89-.24-1.58-.3-2a2.82,2.82,0,0,1-.12-.83,7,7,0,0,1,1.54-4.47,5.39,5.39,0,0,1,4.29-2.2,3.7,3.7,0,0,1,.93.12,14,14,0,0,1-1.09-.94,18.66,18.66,0,0,1-3.61-5.12A19.32,19.32,0,0,1,98.83,70a16,16,0,0,1,5-11.58,18,18,0,0,1,13.18-5.51,16.09,16.09,0,0,1,8.22,2.16,17.35,17.35,0,0,1,4.93,5,8,8,0,0,1,1.49,4.07,8.12,8.12,0,0,1-1.49,4.67,2.63,2.63,0,0,1-.35.66,8.1,8.1,0,0,1-5.17,3.69,34.57,34.57,0,0,1,3,2.43c3.37,3.19,5.2,6.68,5.44,10.37,0,.75.09,1.7.17,2.9v.14c.07,4.2-1.7,10.06-10.51,14.09A18.34,18.34,0,0,1,115.26,105Zm-.52-5.77.52,0a12.58,12.58,0,0,0,5.2-1.28c7.14-3.27,7.19-7.31,7.17-8.73-.07-1.2-.13-2.15-.16-2.87-.15-2.2-1.34-4.35-3.67-6.55-.39-.38-1.9-1.61-7.6-5.67a6.69,6.69,0,0,1-3-5.58,7.52,7.52,0,0,1,1-3.65,3,3,0,0,1,1-1,5.4,5.4,0,0,1,3-.84c3,0,4.32,2,4.5,3.64a3.14,3.14,0,0,0,.15.76,5.44,5.44,0,0,0,1,.15c.12,0,.53-.18,1.14-.91a2.27,2.27,0,0,1,.27-.48,4,4,0,0,0,.85-1.73,2.42,2.42,0,0,0-.49-1.09A11.94,11.94,0,0,0,122.35,60a10.25,10.25,0,0,0-5.29-1.35,12.37,12.37,0,0,0-9.14,3.83A10.35,10.35,0,0,0,104.55,70a13.39,13.39,0,0,0,1.47,6,12.85,12.85,0,0,0,2.43,3.53A22.35,22.35,0,0,0,111.81,82c3.16,2,3.79,2.5,4.17,2.9a4.4,4.4,0,0,1,1.26,3v.1c0,1.11-.54,3.79-4.28,4.72a2.89,2.89,0,0,1-.88.08,7.28,7.28,0,0,1-.9.06c-1.18,0-2.63-.5-4.83-1.67-.76-.4-1.27-.65-1.61-.81a1.33,1.33,0,0,0-.17.49l0,.24c.06.39.16,1.07.31,2,.4,3,3.57,4.93,9.44,5.87A2.74,2.74,0,0,1,114.74,99.18Zm8.05-31.63Z" style="fill:url(#New_Gradient_Swatch)"/><path d="M150.69,104.72h-.25c-4.53-.15-7.81-1.71-9.75-4.64C139.31,98,138.61,95,138.56,91v0a3,3,0,0,1,0-.31c0-.37.07-1.66.21-5.77l.29-7.3c.07-1.07.16-2.07.27-3A16.47,16.47,0,0,1,136.9,74a8.83,8.83,0,0,1-5.17-3.78A11.53,11.53,0,0,1,130,64.34c0-2.36.92-5.65,5.34-7.85a28.41,28.41,0,0,1,12.95-2.75,47.07,47.07,0,0,1,8,.72,3.92,3.92,0,0,1,.49.13c1.26.46,3.16,1.16,5.71,2.12a1.83,1.83,0,0,1,.32.14,9.44,9.44,0,0,1,5.09,5.82,2.9,2.9,0,0,1,.21.65,13.74,13.74,0,0,1,.23,2.79,9.36,9.36,0,0,1-2.08,6.22c-.79.87-1.95,1.45-6.2,2.25l-1.69.33c.17,1.6.49,4.42,1.12,9.4a38.54,38.54,0,0,1,.31,4.91,25.71,25.71,0,0,1-1.58,9.62C156.14,103.89,152.71,104.72,150.69,104.72Zm-6.41-14a1,1,0,0,0,0,.17c0,3.77.75,5.38,1.17,6s1.29,2,5.16,2.09c.4,0,1.32,0,2.27-2.32a20.09,20.09,0,0,0,1.16-7.46,34.82,34.82,0,0,0-.26-4.2c-1.48-11.71-1.4-12.15-1.29-12.77a2.85,2.85,0,0,1,.26-.76c.75-1.5,1.9-1.72,6.21-2.53a27.43,27.43,0,0,0,3.19-.74,5,5,0,0,0,.43-2.17,9,9,0,0,0-.06-1.19c0-.13-.08-.27-.11-.41A3.56,3.56,0,0,0,160.29,62L155,60.06a40.57,40.57,0,0,0-6.77-.6,22.91,22.91,0,0,0-10.38,2.14c-2.19,1.09-2.19,2.21-2.19,2.74a6.1,6.1,0,0,0,1,2.94,3.62,3.62,0,0,0,2,1.23,9.72,9.72,0,0,0,3,.48h.25a2.86,2.86,0,0,1,3.58,3.32,41.32,41.32,0,0,0-.69,5.54l-.28,7.21c-.07,2-.12,3.5-.16,4.5C144.33,89.92,144.32,90.32,144.28,90.73ZM141.84,69l-.08,0Z" style="fill:url(#New_Gradient_Swatch-2)"/><path d="M176.66,105a18.84,18.84,0,0,1-4.5-.65,3,3,0,0,1-1.08-.53c-4-2.2-6-7-6-14.26,0-.48,0-1.5.11-3.1a84.6,84.6,0,0,1,1.73-14.52A37.12,37.12,0,0,1,173.42,58c2.8-3.66,6.84-5.52,12-5.52,5.44,0,9.65,1.8,12.53,5.33a17.86,17.86,0,0,1,3.45,7,88.21,88.21,0,0,1,3.22,21.83A57,57,0,0,1,203.71,97a2.23,2.23,0,0,1,0,.23,6.91,6.91,0,0,1-5.5,5.67,15.48,15.48,0,0,1-3.63.42,10.26,10.26,0,0,1-6.26-1.87,2.57,2.57,0,0,1-.57-.57,16.2,16.2,0,0,1-1.79-2.66,10.06,10.06,0,0,1-.45-1.12,14.49,14.49,0,0,1-1.43,4,2.63,2.63,0,0,1-.2.33A8.39,8.39,0,0,1,176.66,105Zm-2.61-6.08a11.87,11.87,0,0,0,2.61.36,2.7,2.7,0,0,0,2.4-1,7.64,7.64,0,0,0,.89-3.18,8.7,8.7,0,0,0-.16-1.07,2.85,2.85,0,0,1,2.46-3.46,34.2,34.2,0,0,1,5.66-.24,2.86,2.86,0,0,1,2.72,2.85,5.71,5.71,0,0,0,.44,2.54.61.61,0,0,0,.05.12h0s.18.3.86,1.21a5.11,5.11,0,0,0,2.56.56,10,10,0,0,0,2.29-.26c.83-.2,1.07-.49,1.19-1l0-.2a50.67,50.67,0,0,0,.86-9.54,82.61,82.61,0,0,0-3-20.4,11.93,11.93,0,0,0-2.35-4.77c-1.76-2.17-4.41-3.22-8.09-3.22-3.34,0-5.78,1.06-7.46,3.26a31.36,31.36,0,0,0-5.52,11.79,78.92,78.92,0,0,0-1.58,13.49c-.1,1.94-.11,2.59-.11,2.81,0,3.53.56,8,3.24,9.34Zm26.81-2.19h0ZM184.18,85a3.82,3.82,0,0,1-3.57-2.31,3.35,3.35,0,0,1-.19-.53c-.15-.66-.23-1.65.35-7,.23-2.06.6-4.74,1.09-8a2.9,2.9,0,0,1,1-1.74c1.94-1.66,3.95-1.27,5.08-.14a2.84,2.84,0,0,1,.82,1.75A88.71,88.71,0,0,1,189.31,82a2.86,2.86,0,0,1-2.64,2.6l-.73.15A8.16,8.16,0,0,1,184.18,85Zm2.45-.4h0Z" style="fill:url(#New_Gradient_Swatch-3)"/><path d="M229.48,104.52c-2.69,0-5.24-1.48-7.69-4.47a9,9,0,0,1-1.09,1.62,3.12,3.12,0,0,1-.57.52,12,12,0,0,1-6.86,2.3,11.21,11.21,0,0,1-2.74-.31c-2.95-.75-4.83-1.75-5.94-3.17-1.33-1.65-2-4.24-2-7.9V91c-.14-1.42-.06-4.2.12-10.41A141.43,141.43,0,0,1,204.07,63c.48-2.77,2.26-6.4,8-8.13a66,66,0,0,1,10.38-1.58,2.42,2.42,0,0,1,.38,0c6.83.23,11.65,2.66,14.33,7.22a2.64,2.64,0,0,1,.15.29A27.46,27.46,0,0,1,240,72.12a15.52,15.52,0,0,1-3.18,9.64,12.74,12.74,0,0,1-1.48,1.5c3.55,4.29,5.28,8,5.28,11.37a9.65,9.65,0,0,1-.15,1.49,2.86,2.86,0,0,1-.56,1.28,15.13,15.13,0,0,1-3,3.81,11.75,11.75,0,0,1-6.59,3.26A7,7,0,0,1,229.48,104.52Zm-9.43-15.6a2.86,2.86,0,0,1,2.57,1.6c3.08,6.32,5.66,8.41,7,8.27A6.3,6.3,0,0,0,233,97a9.35,9.35,0,0,0,1.91-2.37v0c0-1.6-1-4.59-5.67-9.65a2.85,2.85,0,0,1,.21-4.09c2.38-2.1,2.84-2.6,2.91-2.68a9.72,9.72,0,0,0,1.92-6.14,21.45,21.45,0,0,0-2.07-8.78c-1.65-2.68-4.7-4.08-9.32-4.26a60.67,60.67,0,0,0-9.13,1.35c-3.22,1-3.84,2.52-4,3.6a141.6,141.6,0,0,0-1.27,16.8c-.2,7.09-.18,9-.16,9.54a3.19,3.19,0,0,1,.05.54v2.27c0,3.26.62,4.19.74,4.35s.54.58,2.85,1.17a5.83,5.83,0,0,0,1.35.14,6.09,6.09,0,0,0,3.26-1.06,6,6,0,0,0,.83-3.4,20.07,20.07,0,0,0-.16-2.2,2.88,2.88,0,0,1,2.85-3.19Zm17.59,6.73h0Zm-30.09-6.77Zm0,0Zm0,0h0Zm0,0h0Zm0,0Zm0,0h0Zm0,0h0Zm0,0h0Zm0,0Zm0,0Zm0,0h0Zm0,0Zm0,0h0Zm0,0h0Zm0,0Zm0,0h0Zm0,0h0Zm11.36-7.32a2.85,2.85,0,0,1-1.66-.53,2.88,2.88,0,0,1-1.2-2.33c0-1.84,0-3.8-.06-5.87-.06-2.75,0-4,1-5a2.76,2.76,0,0,1,.71-.52c1.64-.86,2.28-1.12,3.08-1.12a4.35,4.35,0,0,1,1.28.2,3,3,0,0,1,1.23.62c2.42,2.11,3.65,4.33,3.65,6.59a6.77,6.77,0,0,1-2.43,5,13.08,13.08,0,0,1-4.69,2.74A2.91,2.91,0,0,1,218.85,81.49Zm2.83-10.91Z" style="fill:url(#New_Gradient_Swatch-4)"/><path d="M258.23,104.72H258c-4.53-.15-7.81-1.71-9.75-4.64C246.85,98,246.15,95,246.11,91v0c0-.11,0-.21,0-.31,0-.37.07-1.66.22-5.77l.28-7.3c.07-1.07.16-2.07.27-3a16.47,16.47,0,0,1-2.45-.59,8.83,8.83,0,0,1-5.17-3.78,11.53,11.53,0,0,1-1.76-5.83c0-2.36.93-5.65,5.34-7.85a28.41,28.41,0,0,1,13-2.75,47,47,0,0,1,8,.72,3.92,3.92,0,0,1,.49.13c1.26.46,3.16,1.16,5.72,2.12a2.12,2.12,0,0,1,.31.14,9.41,9.41,0,0,1,5.09,5.82,2.93,2.93,0,0,1,.22.65,14.59,14.59,0,0,1,.22,2.79,9.36,9.36,0,0,1-2.08,6.22c-.78.87-1.95,1.45-6.2,2.25l-1.69.33c.17,1.6.5,4.42,1.13,9.4a40.44,40.44,0,0,1,.3,4.91,25.93,25.93,0,0,1-1.57,9.62C263.69,103.89,260.26,104.72,258.23,104.72Zm-6.41-14s0,.11,0,.17c0,3.77.75,5.38,1.17,6s1.29,2,5.17,2.09c.39,0,1.31,0,2.26-2.32a20.09,20.09,0,0,0,1.16-7.46,34.82,34.82,0,0,0-.26-4.2c-1.48-11.71-1.4-12.15-1.29-12.77a2.85,2.85,0,0,1,.26-.76c.75-1.5,1.91-1.72,6.21-2.53a27.43,27.43,0,0,0,3.19-.74,5,5,0,0,0,.43-2.17,11.69,11.69,0,0,0-.05-1.19,2.77,2.77,0,0,1-.12-.41A3.54,3.54,0,0,0,267.83,62l-5.25-1.94a40.78,40.78,0,0,0-6.78-.6,22.94,22.94,0,0,0-10.38,2.14c-2.19,1.09-2.19,2.21-2.19,2.74a6,6,0,0,0,1,2.94,3.59,3.59,0,0,0,2,1.23,9.72,9.72,0,0,0,3,.48h.25A2.86,2.86,0,0,1,253,72.31a44.87,44.87,0,0,0-.69,5.54l-.28,7.21c-.07,2-.12,3.5-.16,4.5C251.88,89.92,251.86,90.32,251.82,90.73ZM249.38,69l-.08,0Z" style="fill:url(#New_Gradient_Swatch-5)"/><path d="M307.21,104.78c-5.24,0-7.73-2.82-8.89-5.19a3.05,3.05,0,0,1-.13-.32,20.82,20.82,0,0,1-1-6.92v-3.3c0-.94,0-1.69,0-2.26C291,75.94,288,68.26,288,63.32c0-4.75,2.43-7,4.46-8a3.2,3.2,0,0,1,.39-.16,9.47,9.47,0,0,1,4.05-.89,8.09,8.09,0,0,1,7.4,4,11.8,11.8,0,0,1,1.57,2.58A19.61,19.61,0,0,1,309.87,54a3,3,0,0,1,1-.62,12.1,12.1,0,0,1,4.4-.82,9.06,9.06,0,0,1,6,2c1.93,1.33,4.13,3.93,4.13,8.82,0,.1,0,.21,0,.31a38.4,38.4,0,0,1-3.13,11c-.95,2.12-2.43,5-4.54,9q0,2.4-.06,6.54a22.1,22.1,0,0,1-1.54,8.09,10.89,10.89,0,0,1-6.65,6.14,2.86,2.86,0,0,1-.58.13A15.35,15.35,0,0,1,307.21,104.78Zm-3.68-7.56c.5.93,1.36,1.83,3.68,1.83,0,0,.17,0,.64,0a5.15,5.15,0,0,0,3-2.91,16.53,16.53,0,0,0,1.07-5.92c0-3.13.05-5.53.05-7.16a2.84,2.84,0,0,1,.35-1.36c2.19-4.05,3.77-7.15,4.69-9.2a32.75,32.75,0,0,0,2.65-9.17c0-2.59-1-3.53-1.73-4a2.85,2.85,0,0,1-.33-.25,3.44,3.44,0,0,0-2.37-.7,6.2,6.2,0,0,0-1.74.24c-1.25,1.49-3,4.82-4.69,12.18a2.86,2.86,0,0,1-5.27.77c-.2-.34-.39-.67-2-5.75-.85-2.74-1.52-3.66-1.77-3.93a2.73,2.73,0,0,1-.39-.55A2.5,2.5,0,0,0,296.85,60a3.75,3.75,0,0,0-1.76.42l-.31.14c-.47.28-1.11.91-1.11,2.79,0,2.71,1.54,8.59,8.89,21.22a2.9,2.9,0,0,1,.39,1.28c0,.77,0,1.85,0,3.31v3.22A16.62,16.62,0,0,0,303.53,97.22Z" style="fill:url(#New_Gradient_Swatch-6)"/><path d="M343.64,104.55c-7,0-12.47-2.69-16.37-8a26.06,26.06,0,0,1-4.82-15.81,36.76,36.76,0,0,1,.75-7.65c2.33-11.11,7.56-17.48,15.54-19a12.91,12.91,0,0,1,2.45-.22,18.12,18.12,0,0,1,10.5,3.53,17.67,17.67,0,0,1,6.84,8.76c2.25,6.63,3.34,11.72,3.34,15.56a36.65,36.65,0,0,1-1.53,9.93,2.88,2.88,0,0,1-.14.91,16.79,16.79,0,0,1-6.26,8.74A17.31,17.31,0,0,1,343.64,104.55Zm-2.45-44.92a7.69,7.69,0,0,0-1.4.12c-5.56,1-9.16,5.78-11,14.52a31.65,31.65,0,0,0-.62,6.47,20.21,20.21,0,0,0,3.72,12.42c2.79,3.81,6.64,5.67,11.75,5.67a11.52,11.52,0,0,0,7-2.14,10.89,10.89,0,0,0,3.9-5.13,3,3,0,0,1,.12-.72,31.73,31.73,0,0,0,1.53-9.08c0-3.16-1-7.77-3-13.71a11.92,11.92,0,0,0-4.72-5.92A12.33,12.33,0,0,0,341.19,59.63Zm1.57,30.84a5.15,5.15,0,0,1-3.42-1.24c-1.73-1.48-2.54-4-2.54-8A24.2,24.2,0,0,1,338,73.57c1.58-4.76,4.14-5,5.61-4.62,2.53.52,3.19,3.58,3.54,5.24a33.57,33.57,0,0,1,.69,7c0,2.53,0,7.58-3.16,8.89a2.58,2.58,0,0,1-.91.31A5.63,5.63,0,0,1,342.76,90.47Zm.54-2.9h0Z" style="fill:url(#New_Gradient_Swatch-7)"/><path d="M380.08,104.89a21,21,0,0,1-12.22-3.47A17.48,17.48,0,0,1,361,92a38.28,38.28,0,0,1-1.4-11.58,65,65,0,0,1,2.11-17.88,10.43,10.43,0,0,1,3.67-5.19,11,11,0,0,1,5.66-2.49,8.58,8.58,0,0,1,5.43,1.35,9.71,9.71,0,0,1,3.71,4.06,2.94,2.94,0,0,1,.27.89c.07.59.12,1.2.16,1.83a24.27,24.27,0,0,1,1-4.28,2.53,2.53,0,0,1,.26-.52c2.4-3.87,5.22-4.63,7.16-4.6a9.73,9.73,0,0,1,6.33,2.6,14.65,14.65,0,0,1,3.71,5.36,2.9,2.9,0,0,1,.49,1.38c.16,1.86.24,4,.24,6.22a71.45,71.45,0,0,1-4.34,25.14,17.89,17.89,0,0,1-4,6.26,14.06,14.06,0,0,1-6.05,3.85,2.74,2.74,0,0,1-.39.09A35.51,35.51,0,0,1,380.08,104.89Zm-8.23-44.31h-.22A5.48,5.48,0,0,0,369,61.85a4.83,4.83,0,0,0-1.74,2.34,59.6,59.6,0,0,0-1.87,16.26,33.58,33.58,0,0,0,1.11,9.82,11.77,11.77,0,0,0,4.64,6.43,15.44,15.44,0,0,0,9,2.47,29.64,29.64,0,0,0,3.92-.28,8.87,8.87,0,0,0,3.4-2.3,12.39,12.39,0,0,0,2.75-4.27,65.76,65.76,0,0,0,4-23.14c0-1.84-.06-3.55-.17-5.09a9.2,9.2,0,0,0-2.35-3.59A4.05,4.05,0,0,0,389,59.34h0c-.73,0-1.46.84-2,1.65a25.11,25.11,0,0,0-.84,4.09c-.08.54-.27,2-.72,5.86-.15,3.9-.2,7.17-.16,9.7a2.83,2.83,0,0,1,0,.41,10.23,10.23,0,0,1-2.56,5.79l-.24.23a6.13,6.13,0,0,1-4.88,1.12,2.93,2.93,0,0,1-1.18-.42,6.85,6.85,0,0,1-3.05-3.4,4.05,4.05,0,0,1-.12-.47,20.57,20.57,0,0,1-.27-3.5A57.88,57.88,0,0,1,374,72a58.31,58.31,0,0,0,1-7.56c0-.7,0-1.38-.09-2a4.23,4.23,0,0,0-1.37-1.32A3.1,3.1,0,0,0,371.85,60.58Zm6.87,21.86.07.06a5,5,0,0,0,.7-2c0-2.07,0-4.57.09-7.47a59.61,59.61,0,0,0-1,7.37A17.81,17.81,0,0,0,378.72,82.44Z" style="fill:url(#New_Gradient_Swatch-8)"/><path d="M424.75,104.52c-2.69,0-5.24-1.48-7.69-4.47a9.38,9.38,0,0,1-1.09,1.62,3.12,3.12,0,0,1-.57.52,12,12,0,0,1-6.86,2.3,11.27,11.27,0,0,1-2.74-.31c-2.95-.75-4.83-1.75-5.94-3.17-1.32-1.65-2-4.24-2-7.9V91c-.14-1.42-.06-4.2.12-10.41A141.79,141.79,0,0,1,399.34,63c.48-2.76,2.26-6.39,8-8.12a66,66,0,0,1,10.38-1.58,2.48,2.48,0,0,1,.38,0c6.83.23,11.65,2.66,14.33,7.22a1.59,1.59,0,0,1,.15.29,27.46,27.46,0,0,1,2.64,11.33,15.58,15.58,0,0,1-3.17,9.64,13.75,13.75,0,0,1-1.48,1.5c3.54,4.29,5.27,8,5.27,11.37a8.63,8.63,0,0,1-.15,1.49,2.84,2.84,0,0,1-.55,1.28,15.41,15.41,0,0,1-3,3.81,11.78,11.78,0,0,1-6.59,3.26A7.16,7.16,0,0,1,424.75,104.52Zm-9.43-15.6a2.86,2.86,0,0,1,2.57,1.6c3.08,6.32,5.65,8.41,7,8.27A6.32,6.32,0,0,0,428.26,97a9.52,9.52,0,0,0,1.9-2.37v0c0-1.6-1-4.59-5.67-9.65a2.85,2.85,0,0,1,.21-4.09c2.38-2.1,2.85-2.6,2.92-2.68a9.78,9.78,0,0,0,1.92-6.14,21.64,21.64,0,0,0-2.08-8.78c-1.64-2.68-4.7-4.08-9.32-4.26A60.67,60.67,0,0,0,409,60.36c-3.21,1-3.84,2.52-4,3.6a137.41,137.41,0,0,0-1.27,16.8c-.21,7.08-.19,9-.17,9.53a2.57,2.57,0,0,1,.06.55v2.27c0,3.26.61,4.19.73,4.35s.54.58,2.86,1.17a5.68,5.68,0,0,0,1.34.14,6.15,6.15,0,0,0,3.27-1.06,6.1,6.1,0,0,0,.82-3.4,19.6,19.6,0,0,0-.15-2.2,2.87,2.87,0,0,1,2.84-3.19Zm17.59,6.73h0ZM402.84,88.9m0,0Zm0,0Zm-.07-.07.07.07Zm0,0h0Zm0,0Zm0,0h0Zm11.37-7.32a2.85,2.85,0,0,1-1.66-.53,2.88,2.88,0,0,1-1.2-2.33c0-1.84,0-3.8-.05-5.87-.06-2.76,0-4,1-5a2.52,2.52,0,0,1,.7-.51c1.65-.86,2.29-1.12,3.08-1.12a4.25,4.25,0,0,1,1.28.2,3,3,0,0,1,1.23.62c2.42,2.11,3.65,4.33,3.65,6.59a6.81,6.81,0,0,1-2.42,5,13.11,13.11,0,0,1-4.69,2.74A3,3,0,0,1,414.12,81.49Z" style="fill:url(#New_Gradient_Swatch-9)"/><path d="M137,159.68v.06a4.37,4.37,0,0,1-3.6,3.67,13.84,13.84,0,0,1-3.18.36,8,8,0,0,1-4.88-1.4,16.46,16.46,0,0,1-1.59-2.32A9.19,9.19,0,0,1,123,156a33.29,33.29,0,0,0-5.56.25,16.47,16.47,0,0,1,.24,1.65,11.25,11.25,0,0,1-1.4,5.19,6,6,0,0,1-5.19,2.5,17.21,17.21,0,0,1-4.09-.61l-.13-.12q-5.19-2.56-5.19-12.77c0-.44,0-1.5.12-3.17a88,88,0,0,1,1.78-15A36.49,36.49,0,0,1,110,120q3.6-4.7,10.44-4.7,7.34,0,11.06,4.58a16.09,16.09,0,0,1,3.11,6.29A91.35,91.35,0,0,1,138,148.87,57.17,57.17,0,0,1,137,159.68Zm-15.45-16a92.66,92.66,0,0,0-.61-15.45c-.28-.29-.71-.19-1.28.3q-.8,5.19-1.16,8.43a38.46,38.46,0,0,0-.43,6.47,1.06,1.06,0,0,0,1,.68,8.18,8.18,0,0,0,1.25-.22A10.1,10.1,0,0,1,121.57,143.68Z" style="fill:#fff"/><path d="M172.51,138.24a31.5,31.5,0,0,1-3.67,15.21,21.07,21.07,0,0,1-13.25,10.87,20.27,20.27,0,0,1-8.58-1.13q-3.82-1.44-4-3.76-1.11-16.31-1.1-31.33c0-3.7.08-6.35.24-7.93q1.53-3.3,9.84-3.3a28.85,28.85,0,0,1,8.36,1.1,18.54,18.54,0,0,1,7,5.86A23.5,23.5,0,0,1,172.51,138.24Zm-15.27-5.49a2.28,2.28,0,0,0-1.65-1,2.41,2.41,0,0,0-.92.24,3.36,3.36,0,0,1-.61.25,122,122,0,0,1,.86,14.41,9.37,9.37,0,0,0,3-3.6,10.76,10.76,0,0,0,1.19-4.83A8.35,8.35,0,0,0,157.24,132.75Z" style="fill:#fff"/><path d="M211.47,119.13c1.55,1.1,2.32,3.23,2.32,6.41q0,10.26-10.08,33.22a10.3,10.3,0,0,1-8.24,6.48,9.28,9.28,0,0,1-1.35.12,14.23,14.23,0,0,1-5.8-1.22,9,9,0,0,1-4-3.24A50.92,50.92,0,0,1,178,145.51a63,63,0,0,1-1.89-14.78,25.8,25.8,0,0,1,.73-7.27,7.13,7.13,0,0,1,3.54-4.15,8.17,8.17,0,0,1,4.34-1.1,6.4,6.4,0,0,1,5.8,3.48q1.41,2.88,2.32,11.42l.8,7.64q.48-4.4,1.58-13t4.46-10.23a11,11,0,0,1,4.71-1A10,10,0,0,1,211.47,119.13Z" style="fill:#fff"/><path d="M244.57,135.37a6,6,0,0,1,.18,1.9,6.81,6.81,0,0,1-2.62,5.43,6.46,6.46,0,0,1-5.13,1.77,4.94,4.94,0,0,0-1.84-.06,17,17,0,0,1-.42,3.91,2.37,2.37,0,0,0,1.28,2.2,6.29,6.29,0,0,1,4.09,0,3.86,3.86,0,0,1,2.75,3.3,7.85,7.85,0,0,1-1.53,5.34,14.68,14.68,0,0,1-5.07,4.55,13.34,13.34,0,0,1-6.77,1.65,14.46,14.46,0,0,1-6.17-1.28,13.28,13.28,0,0,1-3.48-3.42q-2.51-4.16-2.57-17.53a125.93,125.93,0,0,1,1.28-17.59q.8-5.75,3.3-7.45l10.2-1a24.21,24.21,0,0,1,5-.55c3.17,0,5.05.8,5.62,2.38a6.35,6.35,0,0,1,.36,2.2,5.35,5.35,0,0,1-1.95,4.28,8.2,8.2,0,0,1-5.44,1.65h-1.34a7.67,7.67,0,0,0-.49,2.9q-.12,2.55-.18,2.91a1.47,1.47,0,0,0,1.28,1.09,6.94,6.94,0,0,1,4.46-1.41A6.2,6.2,0,0,1,244.57,135.37Z" style="fill:#fff"/><path d="M284.57,129V129q.62,7.08.61,13.37,0,19.36-6.41,21.75a6.54,6.54,0,0,1-2.26.36,17,17,0,0,1-4-.61q-3.06-1.71-9.34-19.6a41,41,0,0,1,1.09,9.31,18.56,18.56,0,0,1-1.46,8.08,5.71,5.71,0,0,1-2.41,2.42,5.34,5.34,0,0,1-3.33.83c-3.38-.33-5.68-2.38-6.9-6.18Q249,154.91,249,147q0-15.47,1.28-20.79a11.3,11.3,0,0,1,4.46-6.54,7.48,7.48,0,0,1,4.52-1.47,8.63,8.63,0,0,1,2.68.43q3.54,1.89,7,11.3a76.56,76.56,0,0,1,2.62,9c-.41-2.68-.75-5-1-7.08a64.75,64.75,0,0,1-.73-7.88,7.62,7.62,0,0,1,1.59-5,6.32,6.32,0,0,1,5.19-2.26q5.92,0,7.39,6.6A56,56,0,0,1,284.57,129Z" style="fill:#fff"/><path d="M323,124.5h.07a12.81,12.81,0,0,1,.18,2.38,7,7,0,0,1-1.47,4.65q-.54.6-4.91,1.43c-2.91.55-4.41.91-4.49,1.07q-.12.67,1.4,12.76a38.22,38.22,0,0,1,.31,4.89,24.47,24.47,0,0,1-1.47,9.16q-1.83,4.51-5.37,4.4-5.75-.19-8-3.61c-1.14-1.71-1.73-4.41-1.77-8.12q0,.5.24-6.41l.31-7.82a47.09,47.09,0,0,1,.79-6.35,3.75,3.75,0,0,1-1.1.12,13.34,13.34,0,0,1-4.15-.67,6.58,6.58,0,0,1-3.85-2.69,9.35,9.35,0,0,1-1.47-4.7c0-2.44,1.35-4.34,4-5.68a27.47,27.47,0,0,1,12.52-2.63,47,47,0,0,1,8.06.74c1.34.49,3.38,1.24,6.1,2.26A7,7,0,0,1,323,124.5Z" style="fill:#fff"/><path d="M362.68,123.83l.06-.06c.16,1.91.25,4,.25,6.41a73.34,73.34,0,0,1-4.46,25.9,16.1,16.1,0,0,1-3.64,5.65,11.88,11.88,0,0,1-5.16,3.32,32.86,32.86,0,0,1-4.88.37,19.43,19.43,0,0,1-11.36-3.18,15.73,15.73,0,0,1-6.17-8.48A38.71,38.71,0,0,1,326,142.27,66.81,66.81,0,0,1,328.11,124a8.16,8.16,0,0,1,2.91-4,8.71,8.71,0,0,1,4.48-2,6.12,6.12,0,0,1,3.88,1,7.38,7.38,0,0,1,2.84,3.09,25.34,25.34,0,0,1,.19,3.11,68.84,68.84,0,0,1-1.1,8.61,68.17,68.17,0,0,0-1.1,8.49,19.48,19.48,0,0,0,.24,3.24,4.66,4.66,0,0,0,2,2.08,3.72,3.72,0,0,0,2.87-.49,7.93,7.93,0,0,0,2-4.52q-.06-4.22.18-10.69.61-5.25.8-6.47a26.85,26.85,0,0,1,1.16-5.32q2.19-3.54,5-3.48a7.38,7.38,0,0,1,4.82,2A12.7,12.7,0,0,1,362.68,123.83Z" style="fill:#fff"/><path d="M401.52,158.58h-.06a12.59,12.59,0,0,1-2.87,3.73,9.62,9.62,0,0,1-5.31,2.68q-5.19.56-10.63-10.56a24.43,24.43,0,0,1,.19,2.71,8.9,8.9,0,0,1-1.84,5.92,9.83,9.83,0,0,1-5.62,1.93,9.18,9.18,0,0,1-2.19-.24c-2.41-.61-4-1.38-4.71-2.32-1-1.21-1.46-3.41-1.46-6.58v-2.43q-.18-.18.12-10.91a150.89,150.89,0,0,1,1.4-18.46q.79-4.56,6.48-6.27a68.73,68.73,0,0,1,10.56-1.58q9.35.3,12.83,6.23A26.23,26.23,0,0,1,401,133.3a13.6,13.6,0,0,1-2.74,8.49,47.34,47.34,0,0,1-3.49,3.23q6.9,7.46,6.91,12.46A7.92,7.92,0,0,1,401.52,158.58Zm-17.46-28.46H384a2.09,2.09,0,0,0-.61-.12,8.75,8.75,0,0,0-1.9.85,9,9,0,0,0-.18,3.12q.06,3.36.06,6.35a10.89,10.89,0,0,0,3.94-2.29,4.32,4.32,0,0,0,1.62-3.15Q386.93,132.63,384.06,130.12Z" style="fill:#fff"/><path d="M432.85,135.37a5.75,5.75,0,0,1,.19,1.9,6.82,6.82,0,0,1-2.63,5.43,6.46,6.46,0,0,1-5.13,1.77,4.9,4.9,0,0,0-1.83-.06,17.29,17.29,0,0,1-.43,3.91,2.38,2.38,0,0,0,1.28,2.2,6.29,6.29,0,0,1,4.09,0,3.86,3.86,0,0,1,2.75,3.3,7.79,7.79,0,0,1-1.52,5.34,14.87,14.87,0,0,1-5.07,4.55,13.41,13.41,0,0,1-6.78,1.65,14.49,14.49,0,0,1-6.17-1.28,13.59,13.59,0,0,1-3.48-3.42q-2.5-4.16-2.57-17.53a124.56,124.56,0,0,1,1.29-17.59c.53-3.83,1.62-6.31,3.29-7.45l10.2-1a24.21,24.21,0,0,1,5-.55c3.18,0,5.05.8,5.62,2.38a6.34,6.34,0,0,1,.37,2.2,5.36,5.36,0,0,1-2,4.28,8.15,8.15,0,0,1-5.43,1.65h-1.35a7.88,7.88,0,0,0-.49,2.9q-.12,2.55-.18,2.91a1.47,1.47,0,0,0,1.28,1.09,6.94,6.94,0,0,1,4.46-1.41A6.2,6.2,0,0,1,432.85,135.37Z" style="fill:#fff"/><path d="M111.07,168.48a20.23,20.23,0,0,1-4.81-.7,2.94,2.94,0,0,1-1.11-.54c-4.26-2.34-6.43-7.45-6.43-15.2,0-.51,0-1.59.13-3.31a91,91,0,0,1,1.84-15.56,39.71,39.71,0,0,1,7-14.9c3-3.9,7.28-5.87,12.78-5.87,5.79,0,10.28,1.91,13.34,5.67a18.89,18.89,0,0,1,3.68,7.42,94.46,94.46,0,0,1,3.45,23.38A60.26,60.26,0,0,1,140,160a1.87,1.87,0,0,1,0,.25,7.3,7.3,0,0,1-5.8,6,16.46,16.46,0,0,1-3.87.45,10.89,10.89,0,0,1-6.63-2,3,3,0,0,1-.59-.59,16.59,16.59,0,0,1-1.91-2.83,10.23,10.23,0,0,1-.64-1.71,14.87,14.87,0,0,1-1.61,4.8,3.79,3.79,0,0,1-.2.34A8.89,8.89,0,0,1,111.07,168.48Zm-2.85-6.27a13.51,13.51,0,0,0,2.85.39,3,3,0,0,0,2.68-1.11,8.39,8.39,0,0,0,1-3.49c-.08-.7-.14-1-.17-1.17a2.92,2.92,0,0,1,.47-2.33,3,3,0,0,1,2-1.22,36.94,36.94,0,0,1,6.05-.26,2.94,2.94,0,0,1,2.8,2.93,6.43,6.43,0,0,0,.48,2.78l.06.13h0s.19.32,1,1.34a5.55,5.55,0,0,0,2.83.63,10.62,10.62,0,0,0,2.49-.28c1-.23,1.24-.6,1.38-1.22a.76.76,0,0,1,0-.21,54.65,54.65,0,0,0,.92-10.25A89.2,89.2,0,0,0,131.8,127a13.2,13.2,0,0,0-2.55-5.17c-1.92-2.36-4.79-3.5-8.78-3.5-3.62,0-6.28,1.16-8.11,3.55a33.81,33.81,0,0,0-5.94,12.7,86.27,86.27,0,0,0-1.7,14.49c-.1,2.09-.12,2.79-.12,3,0,5.56,1.2,9,3.56,10.13Zm28.8-2.47h0Zm-17.89-12.69a4,4,0,0,1-3.72-2.4,2.72,2.72,0,0,1-.18-.55c-.16-.7-.25-1.74.37-7.45.25-2.21.64-5.09,1.17-8.56a2.94,2.94,0,0,1,1-1.79c2-1.73,4.1-1.32,5.27-.15a3,3,0,0,1,.85,1.79,95.57,95.57,0,0,1,.61,16,2.94,2.94,0,0,1-2.72,2.68l-.79.16A9.05,9.05,0,0,1,119.13,147.05Zm2.62-.44h0Z" style="fill:url(#New_Gradient_Swatch-10)"/><path d="M154,167.31a22.64,22.64,0,0,1-8-1.37c-4.6-1.73-5.74-4.36-5.89-6.27-.74-10.92-1.11-21.53-1.11-31.57,0-3.84.08-6.53.26-8.23a2.8,2.8,0,0,1,.26-.94c1.55-3.37,5.64-5,12.5-5a32.29,32.29,0,0,1,9.21,1.22,2.5,2.5,0,0,1,.38.15,21.61,21.61,0,0,1,8.07,6.75,26.43,26.43,0,0,1,5.8,16.19,34.61,34.61,0,0,1-4,16.61,24,24,0,0,1-15,12.3,3.11,3.11,0,0,1-.61.1C155.16,167.29,154.55,167.31,154,167.31Zm1.63-3h0Zm-9.65-5.09a4.76,4.76,0,0,0,2.1,1.21,17.59,17.59,0,0,0,7.05,1,18.13,18.13,0,0,0,11.16-9.34,28.79,28.79,0,0,0,3.32-13.83,20.44,20.44,0,0,0-4.6-12.63,16.1,16.1,0,0,0-5.66-4.89,27,27,0,0,0-7.32-.91c-4.91,0-6.49.91-7,1.35-.12,1.54-.17,3.87-.17,6.94,0,9.91.37,20.38,1.09,31.14Zm9-9.68a3.08,3.08,0,0,1-1.35-.32,3,3,0,0,1-1.59-2.57,120.86,120.86,0,0,0-.82-14,2.94,2.94,0,0,1,2.05-3.27l.26-.11a5.21,5.21,0,0,1,2.12-.5,5,5,0,0,1,3.91,2.11l0,0a11.24,11.24,0,0,1,2.49,7.28,13.73,13.73,0,0,1-1.5,6.14,12.38,12.38,0,0,1-3.92,4.71A3,3,0,0,1,154.92,149.55Zm-.87-20.29Zm0,0h0Zm0,0Z" style="fill:url(#New_Gradient_Swatch-11)"/><path d="M194.12,168.3a17.06,17.06,0,0,1-7-1.48,11.75,11.75,0,0,1-5.32-4.34,54.11,54.11,0,0,1-6.66-16.27,65.71,65.71,0,0,1-2-15.48,28,28,0,0,1,.88-8.17,10,10,0,0,1,4.95-5.84,10.89,10.89,0,0,1,5.89-1.44,9.26,9.26,0,0,1,8.25,5.08,8.82,8.82,0,0,1,.42,1c1.08-3.36,2.68-5.47,4.87-6.51a13.77,13.77,0,0,1,6-1.32,12.84,12.84,0,0,1,9,3.36c2.25,1.69,3.39,4.61,3.39,8.68,0,7.32-3.38,18.57-10.32,34.4a13.32,13.32,0,0,1-10.48,8.2A11.69,11.69,0,0,1,194.12,168.3Zm-9.77-47.16a5.41,5.41,0,0,0-2.57.76,4.18,4.18,0,0,0-2.15,2.49,22.77,22.77,0,0,0-.58,6.34,60.31,60.31,0,0,0,1.81,14.09,48.24,48.24,0,0,0,5.91,14.5,6.07,6.07,0,0,0,2.75,2.13,11.1,11.1,0,0,0,4.6,1,5.76,5.76,0,0,0,.9-.09,7.36,7.36,0,0,0,6-4.75c6.52-14.86,9.83-25.64,9.83-32,0-2.06-.39-3.53-1.08-4a2.42,2.42,0,0,1-.31-.25,7.08,7.08,0,0,0-5.07-1.89,7.88,7.88,0,0,0-3.45.76c-.2.09-1.93,1.09-2.8,7.94-.73,5.74-1.26,10.12-1.58,13a3,3,0,0,1-2.92,2.62h0a3,3,0,0,1-2.92-2.64l-.79-7.63c-.75-7-1.6-9.54-2-10.44s-1.16-1.71-3.33-1.83Z" style="fill:url(#New_Gradient_Swatch-12)"/><path d="M229.49,168.3a17.48,17.48,0,0,1-7.42-1.56c-1.25-.59-2.6-1.86-4.52-4.24a2.35,2.35,0,0,1-.23-.32c-2-3.31-2.95-9.36-3-19a128.87,128.87,0,0,1,1.31-18c.65-4.73,2.14-7.83,4.55-9.48a3,3,0,0,1,1.36-.5l10-1a27.81,27.81,0,0,1,5.46-.58c4.53,0,7.35,1.46,8.38,4.33a9,9,0,0,1,.54,3.19,8.25,8.25,0,0,1-3,6.52,9.52,9.52,0,0,1-4,2h.37a9.14,9.14,0,0,1,7.57,4.09,2.89,2.89,0,0,1,.46,1,8.61,8.61,0,0,1,.28,2.73,10.62,10.62,0,0,1-8.39,10,7,7,0,0,1,2,.51,6.75,6.75,0,0,1,4.52,5.7,10.68,10.68,0,0,1-2,7.29,17.58,17.58,0,0,1-6.06,5.47A16.34,16.34,0,0,1,229.49,168.3ZM222.26,159a11.91,11.91,0,0,0,2.35,2.46,11.61,11.61,0,0,0,4.88,1,10.49,10.49,0,0,0,5.31-1.26,12,12,0,0,0,4.1-3.64,5,5,0,0,0,1-3.37c0-.28-.06-.57-.9-.89a3.44,3.44,0,0,0-2.26.1,2.92,2.92,0,0,1-2.22-.29,5.29,5.29,0,0,1-2.76-4.75,2.74,2.74,0,0,1,0-.5,22.05,22.05,0,0,0,.41-3,2.9,2.9,0,0,1,.59-2.16,3,3,0,0,1,2.06-1.13,8.32,8.32,0,0,1,2.63.09,3.66,3.66,0,0,0,2.66-1.08,3.92,3.92,0,0,0,1.62-3.22c0-.06,0-.12,0-.18a3.53,3.53,0,0,0,0-.46,3,3,0,0,0-2.44-1.19,4.06,4.06,0,0,0-2.63.77,3,3,0,0,1-2.46.57,4.35,4.35,0,0,1-3.53-3.34,3.13,3.13,0,0,1,0-1.1s0-.49.14-2.57a10.3,10.3,0,0,1,.77-4,2.94,2.94,0,0,1,2.66-1.68h1.34a5.46,5.46,0,0,0,3.54-1,2.4,2.4,0,0,0,.91-2,3.39,3.39,0,0,0-.18-1.17s-.62-.47-2.86-.47a21.26,21.26,0,0,0-4.41.49l-.3,0-9.26.94c-.5.62-1.21,2-1.63,5a122.72,122.72,0,0,0-1.25,17.16C220.26,153.64,221.48,157.55,222.26,159Zm10-14.16a.2.2,0,0,1,0,.07Z" style="fill:url(#New_Gradient_Swatch-13)"/><path d="M257.58,167.84a7.7,7.7,0,0,1-.83-.05c-3.13-.3-7.36-2-9.36-8.19-.92-2.85-1.36-7-1.36-12.65,0-10.64.44-17.67,1.36-21.48a14.26,14.26,0,0,1,5.57-8.22,10.43,10.43,0,0,1,6.27-2,11.63,11.63,0,0,1,3.57.57,2.41,2.41,0,0,1,.5.21,11.87,11.87,0,0,1,4.11,4,9.74,9.74,0,0,1,1.63-2.92,9.24,9.24,0,0,1,7.47-3.35c5.34,0,9,3.16,10.26,8.9a49.14,49.14,0,0,1,.71,5.9c0,.05,0,.11,0,.17.41,4.79.62,9.37.62,13.62,0,14.61-2.65,22.39-8.33,24.5a9.21,9.21,0,0,1-3.28.55,19.77,19.77,0,0,1-4.68-.7,2.69,2.69,0,0,1-.73-.28c-1.18-.67-2.58-2-4.64-6.16a14.49,14.49,0,0,1-1,2.67,9.41,9.41,0,0,1-7.89,4.93Zm1.65-46.75a4.57,4.57,0,0,0-2.79.91,8.33,8.33,0,0,0-3.34,4.86c-.79,3.3-1.19,10.06-1.19,20.09,0,5,.36,8.62,1.08,10.84,1.09,3.41,2.92,4,4.38,4.15a2.5,2.5,0,0,0,1.57-.44,3.16,3.16,0,0,0,1.24-1.14,16,16,0,0,0,1.18-6.82,38.09,38.09,0,0,0-1-8.64,2.94,2.94,0,0,1,5.64-1.65c4.84,13.78,7.14,17.1,7.87,17.87a12.59,12.59,0,0,0,2.67.38,3.55,3.55,0,0,0,1.23-.18c1.06-.39,4.5-2.92,4.5-19,0-4-.19-8.35-.58-12.88,0-.06,0-.12,0-.18a50.25,50.25,0,0,0-.61-5.37c-.84-3.76-2.67-4.28-4.52-4.28a3.31,3.31,0,0,0-2.91,1.18,4.69,4.69,0,0,0-.93,3.09,62.88,62.88,0,0,0,.71,7.48q.42,3,1,7a2.94,2.94,0,0,1-5.77,1.12,73.25,73.25,0,0,0-2.52-8.63c-2.53-7-4.5-9-5.39-9.61A6.07,6.07,0,0,0,259.23,121.09Z" style="fill:url(#New_Gradient_Swatch-14)"/><path d="M307.4,168.18h-.27c-4.81-.15-8.3-1.8-10.36-4.92-1.46-2.2-2.21-5.38-2.25-9.7v0c0-.11,0-.21,0-.32,0-.4.08-1.78.23-6.2l.31-7.82c.08-1.19.18-2.31.3-3.35a17.7,17.7,0,0,1-2.73-.64,9.47,9.47,0,0,1-5.48-4A12.29,12.29,0,0,1,285.3,125c0-2.5,1-6,5.65-8.31a30.58,30.58,0,0,1,13.84-2.94,50.91,50.91,0,0,1,8.56.78,4.07,4.07,0,0,1,.5.13l6.13,2.27.33.15a10,10,0,0,1,5.39,6.17,3.29,3.29,0,0,1,.23.69,15.25,15.25,0,0,1,.24,2.95,10,10,0,0,1-2.2,6.59c-.83.92-2.06,1.53-6.58,2.38-.79.15-1.43.27-1.93.38.18,1.69.53,4.74,1.22,10.2a42.05,42.05,0,0,1,.33,5.25A27.65,27.65,0,0,1,315.33,162C313.16,167.3,309.53,168.18,307.4,168.18Zm-7-14.89c0,.06,0,.12,0,.19,0,3.87.71,5.68,1.27,6.52.36.55,1.43,2.16,5.65,2.3.45,0,1.5,0,2.56-2.56a21.88,21.88,0,0,0,1.25-8.06,38.09,38.09,0,0,0-.28-4.52c-1.59-12.54-1.5-13-1.38-13.66a3.18,3.18,0,0,1,.26-.79c.78-1.54,2-1.78,6.57-2.64a29.06,29.06,0,0,0,3.49-.81,5.4,5.4,0,0,0,.5-2.44c0-.56,0-1-.06-1.3a3.19,3.19,0,0,1-.13-.44c-.14-.7-.54-1.73-2.35-2.71-2.47-.93-4.36-1.62-5.66-2.1a44,44,0,0,0-7.3-.65,24.78,24.78,0,0,0-11.2,2.31c-2.13,1.07-2.42,2.15-2.42,3.06a6.59,6.59,0,0,0,1.07,3.22,4,4,0,0,0,2.22,1.38,10.8,10.8,0,0,0,3.24.52h.3a2.94,2.94,0,0,1,3.68,3.42,44.75,44.75,0,0,0-.74,6l-.3,7.73-.18,4.83C300.45,152.43,300.43,152.85,300.39,153.29Zm-2.45-23.17-.07,0Z" style="fill:url(#New_Gradient_Swatch-15)"/><path d="M344.85,168.36a22.46,22.46,0,0,1-13-3.7,18.69,18.69,0,0,1-7.29-10A41.17,41.17,0,0,1,323,142.27a70,70,0,0,1,2.25-19.14,11.12,11.12,0,0,1,3.9-5.51,11.7,11.7,0,0,1,6-2.64,9.08,9.08,0,0,1,5.74,1.43,10.33,10.33,0,0,1,3.94,4.31,3,3,0,0,1,.27.91,30.57,30.57,0,0,1,.21,3.4s0-.07,0-.11a29.73,29.73,0,0,1,1.31-5.89,3.36,3.36,0,0,1,.26-.54c2.55-4.1,5.52-4.91,7.57-4.87a10.29,10.29,0,0,1,6.71,2.76,15.47,15.47,0,0,1,4,5.71,3,3,0,0,1,.51,1.43c.17,2,.26,4.24.26,6.66a76.67,76.67,0,0,1-4.65,26.93,19,19,0,0,1-4.28,6.67,15,15,0,0,1-6.43,4.09,3,3,0,0,1-.41.09A36.05,36.05,0,0,1,344.85,168.36ZM336,120.82h-.24a6,6,0,0,0-2.94,1.39,5.33,5.33,0,0,0-1.91,2.57,64.25,64.25,0,0,0-2,17.48,36.11,36.11,0,0,0,1.2,10.58,12.76,12.76,0,0,0,5,7,16.67,16.67,0,0,0,9.71,2.67,31.21,31.21,0,0,0,4.24-.3,9.47,9.47,0,0,0,3.7-2.51,13.12,13.12,0,0,0,3-4.62,70.63,70.63,0,0,0,4.28-24.87c0-2-.06-3.82-.18-5.48a9.91,9.91,0,0,0-2.56-3.92,4.51,4.51,0,0,0-2.94-1.28c-.86,0-1.68.94-2.28,1.84a26,26,0,0,0-.91,4.43c-.09.56-.28,2.09-.77,6.29-.16,4.19-.22,7.7-.18,10.42,0,.14,0,.28,0,.42a10.9,10.9,0,0,1-2.72,6.14l-.24.23a6.4,6.4,0,0,1-5.14,1.17,2.93,2.93,0,0,1-1.21-.43,7.22,7.22,0,0,1-3.22-3.58,2.59,2.59,0,0,1-.12-.48,21,21,0,0,1-.29-3.74,62.21,62.21,0,0,1,1.14-9,63.11,63.11,0,0,0,1.06-8.13c0-.77,0-1.52-.11-2.22a4.59,4.59,0,0,0-1.52-1.48A3.54,3.54,0,0,0,336,120.82Zm7.26,23.65.2.18h0a5.54,5.54,0,0,0,.85-2.32c0-2.68,0-6.05.17-10-.1.59-.2,1.22-.31,1.91a61.82,61.82,0,0,0-1.06,8A17,17,0,0,0,343.28,144.47Zm-.11-.12Z" style="fill:url(#New_Gradient_Swatch-16)"/><path d="M392.77,168c-2.89,0-5.63-1.62-8.27-4.89a10,10,0,0,1-1.25,1.89,2.88,2.88,0,0,1-.58.52,12.78,12.78,0,0,1-7.29,2.45,12,12,0,0,1-2.9-.33c-3.14-.79-5.14-1.86-6.31-3.35-1.4-1.75-2.09-4.5-2.09-8.4v-2.27c-.15-1.49-.07-4.44.12-11.15a151.93,151.93,0,0,1,1.44-18.85c.51-2.93,2.4-6.77,8.53-8.62a72.43,72.43,0,0,1,11.12-1.69,2.54,2.54,0,0,1,.39,0c7.27.24,12.41,2.82,15.26,7.68a2.69,2.69,0,0,1,.16.29,29.26,29.26,0,0,1,2.81,12.1,16.53,16.53,0,0,1-3.37,10.27,15.26,15.26,0,0,1-1.66,1.67c3.83,4.62,5.71,8.63,5.71,12.21a10.05,10.05,0,0,1-.17,1.58,2.78,2.78,0,0,1-.58,1.32,16,16,0,0,1-3.24,4.07,12.47,12.47,0,0,1-7,3.46A7.89,7.89,0,0,1,392.77,168Zm-10.12-16.47a2.93,2.93,0,0,1,2.64,1.65c4.21,8.59,6.93,9,7.68,8.93a6.86,6.86,0,0,0,3.65-1.94,9.82,9.82,0,0,0,2.08-2.6.28.28,0,0,0,0-.06c0-1.75-1.07-5-6.12-10.45a2.94,2.94,0,0,1,.21-4.2c2.57-2.27,3.07-2.8,3.14-2.88a10.61,10.61,0,0,0,2.09-6.68,23.3,23.3,0,0,0-2.24-9.48c-1.79-2.92-5.1-4.44-10.11-4.64a63.37,63.37,0,0,0-9.83,1.46c-3.52,1.06-4.2,2.76-4.41,4a149.81,149.81,0,0,0-1.36,18c-.22,7.64-.2,9.7-.18,10.25a2.76,2.76,0,0,1,.06.57v2.43c0,3.54.68,4.57.82,4.74s.57.66,3.13,1.31a6.22,6.22,0,0,0,1.47.15,6.63,6.63,0,0,0,3.59-1.17,6.48,6.48,0,0,0,.93-3.74,21,21,0,0,0-.17-2.37,3,3,0,0,1,2.09-3.16A3,3,0,0,1,382.65,151.49Zm18.87,7.09h0Zm-32.36-7.18Zm0,0h0Zm0,0h0Zm0,0Zm0,0h0Zm0,0h0Zm0,0h0Zm0,0h0Zm0,0h0Zm0,0Zm0,0h0Zm0,0Zm0,0Zm0,0h0Zm12.28-8.08a2.94,2.94,0,0,1-2.94-2.94q0-3-.06-6.3c-.06-2.92,0-4.22,1.05-5.25a2.91,2.91,0,0,1,.72-.53c1.74-.9,2.42-1.18,3.25-1.18a4.77,4.77,0,0,1,1.34.21,3,3,0,0,1,1.26.64c2.57,2.24,3.88,4.59,3.88,7a7.16,7.16,0,0,1-2.57,5.31,13.85,13.85,0,0,1-5,2.91A2.83,2.83,0,0,1,381.37,143.26Z" style="fill:url(#New_Gradient_Swatch-17)"/><path d="M417.77,168.3a17.43,17.43,0,0,1-7.41-1.56c-1.26-.59-2.61-1.86-4.53-4.24a3.71,3.71,0,0,1-.23-.32c-2-3.31-2.94-9.36-3-19a128.87,128.87,0,0,1,1.31-18c.66-4.73,2.15-7.83,4.56-9.48a2.88,2.88,0,0,1,1.36-.5l10.05-1a27.63,27.63,0,0,1,5.45-.58c4.53,0,7.35,1.46,8.39,4.33a9.2,9.2,0,0,1,.54,3.19,8.28,8.28,0,0,1-3,6.52,9.62,9.62,0,0,1-4,2h.37a9.14,9.14,0,0,1,7.57,4.09,2.71,2.71,0,0,1,.46,1,8.91,8.91,0,0,1,.29,2.73,10.62,10.62,0,0,1-8.4,10,7,7,0,0,1,2,.51,6.76,6.76,0,0,1,4.53,5.7,10.7,10.7,0,0,1-2,7.29,17.63,17.63,0,0,1-6.05,5.47A16.38,16.38,0,0,1,417.77,168.3ZM410.55,159a12.12,12.12,0,0,0,2.34,2.46,11.61,11.61,0,0,0,4.88,1,10.49,10.49,0,0,0,5.31-1.26,11.9,11.9,0,0,0,4.1-3.64,5,5,0,0,0,1-3.37c0-.28-.06-.57-.89-.89a3.48,3.48,0,0,0-2.27.1,2.92,2.92,0,0,1-2.22-.29,5.29,5.29,0,0,1-2.76-4.75,2.74,2.74,0,0,1,0-.5,22.05,22.05,0,0,0,.41-3,2.94,2.94,0,0,1,2.66-3.29,8.26,8.26,0,0,1,2.62.09,3.68,3.68,0,0,0,2.67-1.08,4,4,0,0,0,1.62-3.22v-.18a3.53,3.53,0,0,0,0-.46,3,3,0,0,0-2.44-1.19,4.06,4.06,0,0,0-2.63.77,2.94,2.94,0,0,1-2.46.57,4.34,4.34,0,0,1-3.52-3.34,2.91,2.91,0,0,1,0-1.1s.05-.49.15-2.57a10.14,10.14,0,0,1,.76-4,2.94,2.94,0,0,1,2.66-1.68h1.35a5.5,5.5,0,0,0,3.54-1,2.43,2.43,0,0,0,.91-2,3.39,3.39,0,0,0-.18-1.17,5.48,5.48,0,0,0-2.87-.47,21.09,21.09,0,0,0-4.4.49l-.31,0-9.26.94c-.5.62-1.2,2-1.62,5a122.87,122.87,0,0,0-1.26,17.16C408.54,153.64,409.76,157.55,410.55,159Zm10-14.16a.15.15,0,0,0,0,.07Z" style="fill:url(#New_Gradient_Swatch-18)"/></g></svg>