<svg xmlns="http://www.w3.org/2000/svg" xmlns:xlink="http://www.w3.org/1999/xlink" id="adventure-map" data-name="Adventure Map" viewBox="0 0 418.755 44.324"><defs><filter id="InnerShadow" name="InnerShadow"><feOffset dx="2" dy="3"/><feGaussianBlur result="offset-blur" stdDeviation="1"/><feComposite in="SourceGraphic" in2="offset-blur" operator="out" result="inverse"/><feFlood flood-color="#000" flood-opacity=".4" result="color"/><feComposite in="color" in2="inverse" operator="in" result="shadow"/><feComposite in="shadow" in2="SourceGraphic"/></filter></defs><title>Adventure Map</title><path d="M49.8382,63.2549v.0539a3.8706,3.8706,0,0,1-3.1813,3.2353,11.9746,11.9746,0,0,1-2.804.3235,7.0532,7.0532,0,0,1-4.3137-1.24,14.7182,14.7182,0,0,1-1.4019-2.0491,8.0813,8.0813,0,0,1-.701-3.6127,29.7236,29.7236,0,0,0-4.9069.2157q.1078.4853.2157,1.4559a9.8808,9.8808,0,0,1-1.24,4.5833,5.2573,5.2573,0,0,1-4.5833,2.2108,15.4063,15.4063,0,0,1-3.6128-.5392l-.1078-.1079q-4.5834-2.2647-4.5834-11.27,0-.5931.1079-2.8039a77.9974,77.9974,0,0,1,1.5637-13.2647A32.24,32.24,0,0,1,26.0049,28.26q3.1814-4.152,9.2206-4.152,6.4706,0,9.76,4.0442a14.1476,14.1476,0,0,1,2.75,5.5539A80.6465,80.6465,0,0,1,50.701,53.7108,50.3876,50.3876,0,0,1,49.8382,63.2549ZM36.1961,49.1275a82.1409,82.1409,0,0,0-.5392-13.6422q-.3775-.3774-1.1324.27-.701,4.5834-1.0245,7.4412a33.8887,33.8887,0,0,0-.3775,5.7157.9358.9358,0,0,0,.9167.5931,7.8372,7.8372,0,0,0,1.1054-.1887A8.76,8.76,0,0,1,36.1961,49.1275Zm44.9706-4.7991a27.7766,27.7766,0,0,1-3.2353,13.4265,18.6106,18.6106,0,0,1-11.701,9.598,18.0548,18.0548,0,0,1-7.576-.9975q-3.37-1.2672-3.5319-3.3162-.9705-14.3972-.9705-27.6617,0-4.9069.2156-7.01,1.348-2.9116,8.6814-2.9117a25.7238,25.7238,0,0,1,7.3873.9706,16.4808,16.4808,0,0,1,6.147,5.1764A20.7294,20.7294,0,0,1,81.1667,44.3284Zm-13.48-4.8529a2.0315,2.0315,0,0,0-1.4559-.9167,2.0889,2.0889,0,0,0-.8088.2157,3.5019,3.5019,0,0,1-.5392.2157,106.9714,106.9714,0,0,1,.7549,12.7255,8.2117,8.2117,0,0,0,2.6152-3.1814,9.4371,9.4371,0,0,0,1.0514-4.26A7.379,7.379,0,0,0,67.6863,39.4755ZM115.5686,27.451q2.049,1.4559,2.049,5.6617,0,9.059-8.897,29.3334a9.1045,9.1045,0,0,1-7.2794,5.7157,8.0119,8.0119,0,0,1-1.1863.1078,12.4737,12.4737,0,0,1-5.1225-1.0784,7.8179,7.8179,0,0,1-3.5589-2.8579A45.0052,45.0052,0,0,1,86.02,50.7451a55.5178,55.5178,0,0,1-1.6716-13.049,22.779,22.779,0,0,1,.6471-6.4167,6.2924,6.2924,0,0,1,3.1275-3.6667,7.1428,7.1428,0,0,1,3.8284-.9705,5.6594,5.6594,0,0,1,5.1225,3.0735q1.24,2.5343,2.0491,10.0833l.7009,6.74q.4314-3.8823,1.402-11.5122t3.9363-9.0319a9.6016,9.6016,0,0,1,4.1519-.9167A8.8057,8.8057,0,0,1,115.5686,27.451Zm29.2255,14.3431a5.19,5.19,0,0,1,.1618,1.6716,6.0216,6.0216,0,0,1-2.3186,4.799,5.7379,5.7379,0,0,1-4.53,1.5637,4.2516,4.2516,0,0,0-1.6176-.0539,15.3029,15.3029,0,0,1-.3775,3.451,2.1,2.1,0,0,0,1.1324,1.9412,5.5831,5.5831,0,0,1,3.6127,0,3.4141,3.4141,0,0,1,2.4265,2.9117,6.9174,6.9174,0,0,1-1.348,4.7182,12.9856,12.9856,0,0,1-4.4755,4.0171,11.8116,11.8116,0,0,1-5.9853,1.4559,12.726,12.726,0,0,1-5.4461-1.1323,11.8,11.8,0,0,1-3.0735-3.02q-2.2109-3.6666-2.2647-15.4754a110.3,110.3,0,0,1,1.1323-15.53q.7011-5.0686,2.9118-6.5784l9.0049-.9167a21.6,21.6,0,0,1,4.4216-.4852q4.2058,0,4.9608,2.1029a5.4986,5.4986,0,0,1,.3235,1.9412,4.7078,4.7078,0,0,1-1.7255,3.7745,7.22,7.22,0,0,1-4.799,1.4559,10.0917,10.0917,0,0,1-1.1863-.054,7.0439,7.0439,0,0,0-.4314,2.5883q-.1078,2.2647-.1617,2.5882a1.2977,1.2977,0,0,0,1.1323.9706,6.1376,6.1376,0,0,1,3.9363-1.24A5.4785,5.4785,0,0,1,144.7941,41.7941Zm35.3186-5.6078v-.0539q.5393,6.2549.5393,11.8088,0,17.0932-5.6618,19.1961a5.6663,5.6663,0,0,1-1.9951.3235,15.1569,15.1569,0,0,1-3.5049-.5392q-2.6961-1.51-8.25-17.3089a35.9177,35.9177,0,0,1,.9706,8.1961,16.3555,16.3555,0,0,1-1.2941,7.1177,5.05,5.05,0,0,1-2.13,2.13,4.7435,4.7435,0,0,1-2.9388.7279q-4.4754-.4314-6.0931-5.4461-1.0785-3.3431-1.0784-10.3529,0-13.6422,1.1323-18.3333a9.9725,9.9725,0,0,1,3.9363-5.77,6.62,6.62,0,0,1,3.99-1.2942,7.7872,7.7872,0,0,1,2.3725.3775q3.1275,1.6716,6.1471,9.9755a67.464,67.464,0,0,1,2.3186,7.9264q-.5391-3.5588-.9166-6.2549a57.5969,57.5969,0,0,1-.6471-6.9558,6.7015,6.7015,0,0,1,1.402-4.3677,5.5642,5.5642,0,0,1,4.5833-1.9951q5.23,0,6.5245,5.8235A49.33,49.33,0,0,1,180.1127,36.1863ZM191.49,57.822q.0037.3106.2156-5.6749l.27-6.902a42.4477,42.4477,0,0,1,.701-5.6078,3.2716,3.2716,0,0,1-.9706.1078,11.8533,11.8533,0,0,1-3.6667-.5931,5.8028,5.8028,0,0,1-3.397-2.3726,8.2867,8.2867,0,0,1-1.2942-4.1519q0-3.2353,3.5589-5.0148a24.2547,24.2547,0,0,1,11.0539-2.3186,41.5652,41.5652,0,0,1,7.1176.6471q1.7795.6471,5.3922,1.9951a6.1653,6.1653,0,0,1,3.5588,4.26h.0539a11.085,11.085,0,0,1,.1618,2.1029,6.2024,6.2024,0,0,1-1.2941,4.0981q-.4854.5391-4.3407,1.2671a17.7327,17.7327,0,0,0-3.9632.9436q-.1079.5933,1.24,11.27a34.7527,34.7527,0,0,1,.27,4.3137,21.6512,21.6512,0,0,1-1.2942,8.0882q-1.6176,3.99-4.7451,3.8824Q195.049,68,193.0539,64.98q-1.5081-2.2622-1.5636-7.16Zm57.5881-26.2191.054-.0539q.2156,2.5344.2156,5.6618a64.7049,64.7049,0,0,1-3.9362,22.8627,14.1972,14.1972,0,0,1-3.2084,4.9878A10.6806,10.6806,0,0,1,237.6471,68a29.7762,29.7762,0,0,1-4.3138.3235A17.1812,17.1812,0,0,1,223.3039,65.52a13.9066,13.9066,0,0,1-5.4461-7.4951,34.2421,34.2421,0,0,1-1.1862-10.1372,58.7428,58.7428,0,0,1,1.8872-16.1765A7.18,7.18,0,0,1,221.12,28.152a7.7338,7.7338,0,0,1,3.9632-1.78,5.4389,5.4389,0,0,1,3.4241.89,6.507,6.507,0,0,1,2.5073,2.723,22.2031,22.2031,0,0,1,.1618,2.75,60.4929,60.4929,0,0,1-.9706,7.6029,61.3352,61.3352,0,0,0-.9706,7.4951,16.8306,16.8306,0,0,0,.2157,2.8579,4.0272,4.0272,0,0,0,1.7794,1.8333,3.2752,3.2752,0,0,0,2.5343-.4314,7.0249,7.0249,0,0,0,1.7255-3.99q-.0538-3.6666.1618-9.4362.5391-4.6374.7009-5.7157a24.14,24.14,0,0,1,1.0246-4.6912q1.9412-3.1275,4.4215-3.0735a6.5179,6.5179,0,0,1,4.26,1.7794A11.3194,11.3194,0,0,1,249.0784,31.6029Zm34.2942,30.6814h-.054a11.0975,11.0975,0,0,1-2.5343,3.2892,8.4866,8.4866,0,0,1-4.6912,2.3726q-4.5832.4852-9.3823-9.3285a21.5843,21.5843,0,0,1,.1617,2.4265,8.0019,8.0019,0,0,1-1.6176,5.2843,8.6434,8.6434,0,0,1-4.9608,1.7255,8.0189,8.0189,0,0,1-1.9412-.2157q-3.1813-.8088-4.1519-2.049-1.2942-1.6176-1.2941-5.8235V57.8088q-.1619-.1617.1078-9.6519a133.956,133.956,0,0,1,1.24-16.3383q.701-4.0442,5.7157-5.5539a61.6533,61.6533,0,0,1,9.3284-1.402q8.25.27,11.3236,5.5a23.1892,23.1892,0,0,1,2.2647,9.5981,12.0032,12.0032,0,0,1-2.4265,7.4951,39.1575,39.1575,0,0,1-3.0735,2.8578q6.0932,6.5786,6.0931,11A6.4864,6.4864,0,0,1,283.3726,62.2843ZM267.951,37.1569h-.0539a1.7749,1.7749,0,0,0-.5393-.1079,8.0491,8.0491,0,0,0-1.6715.7549,7.8046,7.8046,0,0,0-.1618,2.75q.054,2.9658.0539,5.6079a9.6453,9.6453,0,0,0,3.478-2.0221,3.8026,3.8026,0,0,0,1.4289-2.777Q270.4853,39.3677,267.951,37.1569Zm43.0833,4.6372a5.19,5.19,0,0,1,.1618,1.6716,6.0214,6.0214,0,0,1-2.3187,4.799,5.7375,5.7375,0,0,1-4.5293,1.5637,4.2525,4.2525,0,0,0-1.6177-.0539,15.3029,15.3029,0,0,1-.3775,3.451,2.1,2.1,0,0,0,1.1324,1.9412,5.5834,5.5834,0,0,1,3.6128,0,3.4141,3.4141,0,0,1,2.4264,2.9117,6.9174,6.9174,0,0,1-1.348,4.7182,12.9856,12.9856,0,0,1-4.4755,4.0171,11.8116,11.8116,0,0,1-5.9853,1.4559,12.726,12.726,0,0,1-5.4461-1.1323,11.8,11.8,0,0,1-3.0735-3.02q-2.2109-3.6666-2.2647-15.4754a110.3,110.3,0,0,1,1.1323-15.53q.701-5.0686,2.9118-6.5784l9.0049-.9167a21.5993,21.5993,0,0,1,4.4215-.4852q4.206,0,4.9608,2.1029a5.4963,5.4963,0,0,1,.3236,1.9412,4.7078,4.7078,0,0,1-1.7255,3.7745,7.22,7.22,0,0,1-4.799,1.4559,10.0917,10.0917,0,0,1-1.1863-.054,7.0418,7.0418,0,0,0-.4314,2.5883q-.1079,2.2647-.1617,2.5882a1.2977,1.2977,0,0,0,1.1323.9706,6.1376,6.1376,0,0,1,3.9363-1.24A5.4785,5.4785,0,0,1,311.0343,41.7941Zm57.6961,18.98a7.3387,7.3387,0,0,1-1.1323,4.3677,4.1826,4.1826,0,0,1-2.3726,1.6176q-.755.2157-2.2108.5392a8.5571,8.5571,0,0,1-1.4559.27,4.8414,4.8414,0,0,1-3.9362-2.076,8.1228,8.1228,0,0,1-1.6177-5.1495,55.2258,55.2258,0,0,1,.5932-5.5,15.3158,15.3158,0,0,0,.0538-5.2843q-.27.8088-1.6715,4.9069-1.8333,5.1765-3.2892,6.3088a3.011,3.011,0,0,1-1.9412.6471,3.2788,3.2788,0,0,1-1.7794-.5932q-2.9118-3.02-4.5294-11.7009a13.9821,13.9821,0,0,0-.27,2.75q0,.8088.4313,5.1225a18.3907,18.3907,0,0,1,0,4.9069,7.6985,7.6985,0,0,1-2.3186,4.2058,7.2971,7.2971,0,0,1-3.6127,1.0785,5.947,5.947,0,0,1-4.3677-2.103,31.6077,31.6077,0,0,1-2.5882-5.0147,24.5366,24.5366,0,0,1-.8088-7.2794q0-4.4755.7549-15.8529a12.12,12.12,0,0,1,2.3995-6.7133,10.6829,10.6829,0,0,1,5.7426-3.8014q7.1717-.2157,10.8922,12.348a28.67,28.67,0,0,1,1.6715-6.147q2.0491-5.6079,4.6373-6.8481a15.5529,15.5529,0,0,1,4.3137-.7549,5.6241,5.6241,0,0,1,4.5295,1.8333,10.01,10.01,0,0,1,2.8578,4.853,31.2945,31.2945,0,0,1,.701,6.3627l.1078,7.98q.2157,8.8432.2157,14.6667Zm34.7255,2.48v.0539a3.8708,3.8708,0,0,1-3.1814,3.2353,11.9737,11.9737,0,0,1-2.8039.3235,7.0528,7.0528,0,0,1-4.3137-1.24,14.7225,14.7225,0,0,1-1.402-2.0491,8.0827,8.0827,0,0,1-.701-3.6127,29.722,29.722,0,0,0-4.9068.2157q.1078.4853.2156,1.4559a9.8819,9.8819,0,0,1-1.24,4.5833,5.2576,5.2576,0,0,1-4.5834,2.2108,15.4055,15.4055,0,0,1-3.6127-.5392l-.1079-.1079q-4.5832-2.2647-4.5833-11.27,0-.5931.1078-2.8039a77.9854,77.9854,0,0,1,1.5638-13.2647A32.2371,32.2371,0,0,1,379.6226,28.26q3.1814-4.152,9.2205-4.152,6.4707,0,9.76,4.0442a14.1463,14.1463,0,0,1,2.75,5.5539,80.6418,80.6418,0,0,1,2.9657,20.0049A50.396,50.396,0,0,1,403.4559,63.2549ZM389.8137,49.1275a82.13,82.13,0,0,0-.5392-13.6422q-.3774-.3774-1.1323.27-.7011,4.5834-1.0246,7.4412a33.8946,33.8946,0,0,0-.3774,5.7157.9357.9357,0,0,0,.9167.5931,7.84,7.84,0,0,0,1.1054-.1887A8.7641,8.7641,0,0,1,389.8137,49.1275Zm44.7549-17.7942-.0539.054a16.4981,16.4981,0,0,1,2.8579,9.0588,15.3013,15.3013,0,0,1-3.2893,9.3823q-2.75,3.6667-12.0784,5.1226a15.0259,15.0259,0,0,0,.2157,3.2892q.4314,2.4265.4313,2.75a9.8526,9.8526,0,0,1-1.0784,4.2059,4.2181,4.2181,0,0,1-2.2377,1.8872,9.2607,9.2607,0,0,1-3.8015.7549,7.1116,7.1116,0,0,1-4.9877-1.6985,6.5731,6.5731,0,0,1-2.0221-4.7181,46.5793,46.5793,0,0,1-1.1863-11.1079V38.7745q0-.4853.2157-3.99a17.7056,17.7056,0,0,1,1.0785-5.3382q1.1323-2.804,3.2352-3.3432a35.8212,35.8212,0,0,1,8.7893-1.24q9.5442,0,13.8578,6.4706Zm-10.4068,9.76a5.5469,5.5469,0,0,0,.647-2.48q0-3.02-3.9362-3.3431a31.62,31.62,0,0,0-.27,3.451q0,1.6716.054,2.48.1078,1.24.27,3.6127.4853-.4314,1.24-1.24a9.7146,9.7146,0,0,0,1.9411-2.5343Z" transform="translate(-18.6176 -24.1078)" style="fill:#d6a758;filter:url(#InnerShadow)"/></svg>