<svg version="1" xmlns="http://www.w3.org/2000/svg" width="2666.667" height="2666.667" viewBox="0 0 2000.000000 2000.000000"><path d="M894.8 126.5L790.1 217 654 190.9c-74.9-14.4-136.2-25.9-136.4-25.8-.1.2-20.5 58.9-45.2 130.3-24.7 71.5-45.4 130.4-46 131-.6.6-59.5 21.3-131 46-71.4 24.7-130.1 45.1-130.2 45.2-.2.1 11.4 61.5 25.7 136.4L217 790.1l-90.3 104.5C77.1 952.1 36.5 999.5 36.5 1000s40.6 47.9 90.2 105.4l90.3 104.5-26.1 136.1c-14.3 74.9-25.9 136.3-25.7 136.4.1.1 58.8 20.5 130.2 45.2 71.5 24.7 130.4 45.4 131 46 .6.6 21.3 59.5 46 131 24.7 71.4 45.1 130.1 45.2 130.2.1.2 61.5-11.4 136.4-25.7l136.1-26.1 104.5 90.3c57.5 49.6 104.9 90.2 105.4 90.2s47.9-40.6 105.4-90.2l104.5-90.3 136.1 26.1c74.9 14.3 136.3 25.9 136.4 25.7.1-.1 20.5-58.8 45.2-130.2 24.7-71.5 45.4-130.4 46-131 .6-.6 59.5-21.3 131-46 71.4-24.7 130.1-45.1 130.2-45.2.2-.1-11.4-61.5-25.7-136.4l-26.1-136.1 90.3-104.5c49.6-57.5 90.2-104.9 90.2-105.4s-40.6-47.9-90.2-105.4L1783 790.1l26.1-136.1c14.4-74.9 25.9-136.3 25.7-136.4-.1-.1-58.8-20.5-130.2-45.2-71.5-24.7-130.4-45.4-131-46-.6-.6-21.3-59.5-46-131-24.7-71.4-45.1-130.1-45.2-130.2-.1-.2-61.5 11.4-136.4 25.7L1209.9 217l-104.5-90.3c-57.5-49.6-104.8-90.3-105.2-90.4-.4-.1-47.8 40.5-105.4 90.2zM1046 348.1c125.5 9 245.1 53.7 345.5 129.1 55.2 41.5 104.4 92.4 144.3 149.3 23.9 34 50.5 94.7 67.6 154.5 11.7 40.7 19.4 82.6 23.8 130.5 2 21.6 1.7 91.3-.5 114-5.9 60.8-18.5 117-38.2 171-58.5 159.9-176.3 292.4-328.5 369.4-76.3 38.7-152.9 60.7-242 69.8-25.2 2.5-97.9 2.5-123 0-54.5-5.5-105.2-16.1-136-28.4-173.1-69-309.7-209.8-373.5-385-52-143-52-301.6 0-444.6 8.4-23 15.8-40.3 27.5-64.2C515.9 503.4 723.3 363.7 955.5 348c29.9-2 61.9-2 90.5.1z"/><path d="M1153 658.1c-10.2 2.6-21.9 8.4-31.5 15.6-4.4 3.3-17 14.7-28 25.3-23.4 22.6-92.3 87.4-93.3 87.8-.4.1-25.4-23.5-55.6-52.4-30.2-29-58.3-55.2-62.5-58.3-20.3-15-43.8-20.7-64.6-15.7-10.2 2.5-25.7 10.5-35.3 18.1-4.5 3.7-41.9 40.3-83.1 81.3-76.6 76.4-79.8 79.8-87.4 94.7-5.4 10.8-7.2 18.9-7.1 33 0 15.4 1.5 21.7 8 35.4 8.7 17.9 25.5 31.4 42.8 34.4 7.6 1.3 15.1.2 24.4-3.5 12.6-5.2 19.3-10.9 57.2-48.8 20.1-20.1 39.9-39.1 44-42.2 16.5-12.5 32.2-18 51-18 18.5 0 34.7 5.6 50 17.1 3.6 2.7 23.3 21.4 43.7 41.4 48.3 47.3 53.7 51.1 73.8 51.2 9.5 0 10.4-.2 17.8-3.7 4.3-2.1 10.5-5.8 13.7-8.3 3.3-2.6 22.8-21.1 43.3-41.1 20.4-20.1 40.7-39.2 45-42.5 8.9-6.7 21.2-12.9 30.7-15.5 9-2.5 29-2.5 38-.1 9 2.5 23.2 9.6 31 15.6 3.6 2.7 23.5 21.6 44.3 42 20.8 20.4 40.5 38.8 43.8 41 8.7 5.8 16 8.3 26 8.9 15.2.8 26.1-3.8 38.5-16.2 9.7-9.7 16.2-20.3 20.6-33.6 2.9-8.6 3.2-10.7 3.2-22.5.1-11-.3-14.2-2.2-20.5-3.1-9.7-7.8-19-13.7-26.7-5.6-7.5-146-146.8-156-154.8-11.9-9.6-23.6-15.6-37-19-8.4-2.1-24.1-1.9-33.5.6zM809.3 1037.5c-16.7 4.7-31.8 18.5-41.3 38.1-13.5 27.4-10.2 58.4 8.8 83.4 9.9 13.1 159.7 159.7 171.3 167.7 16.9 11.6 29.9 16.3 47 17 9.6.5 13 .2 20-1.6 10.9-2.7 24.4-9.3 34.5-16.8 15-11.2 152.8-147.7 164.3-162.8 5.8-7.6 26.1-47.9 26.1-51.8 0-4.5-5.2-20.4-10.1-30.6-5.8-12.3-11.6-20.6-19.5-28.2-7.7-7.3-12.7-10.3-22.1-13.5-6.6-2.2-9-2.5-17.2-2.2-18.7.8-25.4 5.1-59.1 38.3-36.1 35.5-53.2 51.7-59.8 56.9-17.7 13.6-34.6 19.6-54.9 19.6-12.7 0-21.2-1.7-31.9-6.1-15.9-6.6-23-12.5-65.9-54.7-41.6-40.9-47.6-46.1-60.1-50.8-8.6-3.3-22.2-4.2-30.1-1.9z"/></svg>