<svg xmlns="http://www.w3.org/2000/svg" xmlns:xlink="http://www.w3.org/1999/xlink" width="700" height="1020" version="1.1" viewBox="0 0 700 1020"><title>ill__week--2</title><desc>Created with Sketch.</desc><defs><linearGradient id="linearGradient-1" x1="50%" x2="50%" y1="237.056%" y2="0%"><stop offset="0%" stop-color="#F4D57A"/><stop offset="100%" stop-color="#E3EDFF"/></linearGradient><linearGradient id="linearGradient-2" x1="50%" x2="50%" y1="237.056%" y2="0%"><stop offset="0%" stop-color="#F4D57A"/><stop offset="100%" stop-color="#E3EDFF"/></linearGradient><linearGradient id="linearGradient-3" x1="50%" x2="50%" y1="237.056%" y2="0%"><stop offset="0%" stop-color="#F4D57A"/><stop offset="100%" stop-color="#E3EDFF"/></linearGradient><linearGradient id="linearGradient-4" x1="47.335%" x2="50%" y1="122.945%" y2="13.307%"><stop offset="0%" stop-color="#F4D57A"/><stop offset="100%" stop-color="#E3EDFF"/></linearGradient><linearGradient id="linearGradient-5" x1="50%" x2="50%" y1="88.648%" y2="12.323%"><stop offset="0%" stop-color="#9F6634"/><stop offset="100%" stop-color="#AE723B"/></linearGradient><ellipse id="path-6" cx="160.544" cy="904.652" rx="20.753" ry="39.442"/><linearGradient id="linearGradient-7" x1="50%" x2="50%" y1="88.648%" y2="12.323%"><stop offset="0%" stop-color="#9F6634"/><stop offset="100%" stop-color="#AE723B"/></linearGradient><ellipse id="path-8" cx="77.534" cy="919.92" rx="15.67" ry="30.111"/><linearGradient id="linearGradient-9" x1="50%" x2="50%" y1="88.648%" y2="12.323%"><stop offset="0%" stop-color="#9F6634"/><stop offset="100%" stop-color="#AE723B"/></linearGradient><path id="path-10" d="M0.74973782,949.038368 L0.74973782,911.157787 C2.8281802,907.368132 5.53695562,905.075976 8.49945375,905.075976 C15.0488128,905.075976 20.3581174,916.278752 20.3581174,930.098077 C20.3581174,943.917403 15.0488128,955.120179 8.49945375,955.120179 C5.53695562,955.120179 2.8281802,952.828023 0.74973782,949.038368 Z"/></defs><g id="ill__week--2" fill="none" fill-rule="evenodd" stroke="none" stroke-width="1"><path id="Path-77-Copy" fill="#9F6634" stroke="#163150" stroke-width="2.541" d="M211.302596,814.456403 L214.342509,387.818182 L263.65121,409.033799 L260.927478,803.771176 C251.576501,788.013419 244.995023,791.575162 241.183044,814.456403 C230.176589,817.862322 220.21644,817.862322 211.302596,814.456403 Z" transform="translate(237.476903, 602.414512) scale(-1, 1) translate(-237.476903, -602.414512)"/><path id="Path-87" stroke="#163150" stroke-linecap="round" stroke-width="7" d="M182.515608,247.58766 C71.6936609,174.051152 -71.093488,202.739025 -167.269864,233.18386" transform="translate(7.622872, 224.400169) scale(-1, 1) translate(-7.622872, -224.400169)"/><path id="Path-82" fill="url(#linearGradient-1)" stroke="#163150" stroke-width="3" d="M-108.113903,212.494275 C-85.3405659,205.672879 70.3252401,179.096553 156.602553,247.58766 C123.280243,268.829648 84.9612244,319.43129 96.225397,450.596394 C-43.0773506,439.154885 -128.639989,427.179964 -160.462517,414.67163 C-178.378924,333.843998 -160.929386,266.451547 -108.113903,212.494275 Z" transform="translate(-5.333656, 326.151047) scale(-1, 1) translate(5.333656, -326.151047)"/><path id="Path-85" stroke="#163150" stroke-linecap="round" stroke-width="7" d="M-165.513994,694.684781 C-130.725584,686.641722 67.9240664,660.172958 219.686863,777.606775" transform="translate(27.086435, 732.006674) scale(-1, 1) translate(-27.086435, -732.006674)"/><path id="Path-86" stroke="#163150" stroke-linecap="round" stroke-width="7" d="M205.70856,428.39002 C125.980141,379.729873 -18.2560451,363.437866 -227,379.513998" transform="translate(-10.645720, 400.957838) scale(-1, 1) translate(10.645720, -400.957838)"/><path id="Path-81" fill="url(#linearGradient-2)" stroke="#163150" stroke-width="3" d="M-201.670696,694.684781 C-178.793579,687.319358 20.1386506,654.982572 183.530161,777.606775 C105.957428,615.127595 163.397443,487.748952 245.016168,428.39002 C132.749526,355.969109 -128.786508,368.179447 -207.76666,392.937869 C-241.880586,451.430818 -224.722817,649.540924 -201.670696,694.684781 Z" transform="translate(9.008084, 575.645408) scale(-1, 1) translate(-9.008084, -575.645408)"/><g id="Group-24" transform="translate(145.911622, 66.347790) scale(-1, 1) rotate(8.000000) translate(-145.911622, -66.347790) translate(95.935825, 18.000000)"><path id="Path-67" fill="#163150" stroke="#163150" stroke-width="1.694" d="M13.0663107,68.192484 C16.449128,55.9394981 14.0488213,22.4521298 3.72509183,16.5152033 C-6.59863767,10.5782768 5.47904683,-1.96734508 28.3298281,0.262401007 C51.1806094,2.49214709 48.342676,2.49214709 61.8989007,2.49214709 C70.9363838,2.49214709 78.1709642,1.7488984 83.6026419,0.262401007 L89.0561642,16.5152033 L83.6026419,24.9069419 L93.1797008,24.9069419 C99.9515933,51.0928132 101.644566,65.5213272 98.2586202,68.192484 C93.1797008,72.1992191 9.68349353,80.4454698 13.0663107,68.192484 Z"/><g id="Group-58" transform="translate(39.093194, 11.334914)"><polygon id="Path-98" fill="#9165FF" points="15.899 35.201 15.873 19.085 32.188 25.958"/><polygon id="Path-99" fill="#A682FF" points="15.873 19.534 15.873 0 32.188 26.294"/><path id="Path-100" stroke="#979797" stroke-width=".847"/><polygon id="Path-101" fill="#7F51F0" points="0 26.186 15.873 19.509 15.873 35.201"/><polygon id="Path-102" fill="#8757FF" points="0 26.294 15.873 0 15.873 19.534"/><polygon id="Path-103" fill="#8757FF" points="0 29.263 16.04 38.473 31.747 29.263 16.04 50.892"/><polygon id="Path-104" fill="#7855CE" points="15.873 38.473 31.747 29.263 15.873 50.892"/></g><path id="Path-96" stroke="#9F6634" stroke-linecap="round" stroke-width="16.94" d="M12.705711,96.6955796 C12.705711,93.9694723 8.47047401,61.7376125 -9.09494702e-13,0"/></g><path id="Path-87-Copy" stroke="#163150" stroke-linecap="round" stroke-width="7" d="M322.969708,138.674735 C238.469621,89.528809 121.393079,96.1600812 35.5455215,125.075932" transform="translate(179.257615, 120.609111) scale(-1, 1) translate(-179.257615, -120.609111)"/><path id="Path-83" fill="url(#linearGradient-3)" stroke="#163150" stroke-width="3" d="M94.6496723,118.755901 C126.778604,108.733903 289.949891,75.6848502 369.355611,138.674735 C322.096679,174.52208 298.046142,265.253501 298.046142,310.511928 C233.018947,306.819613 102.259313,297.304227 43.2987349,318.537275 C17.2616818,269.753417 62.5207404,128.7779 94.6496723,118.755901 Z" transform="translate(202.450566, 209.830773) scale(-1, 1) translate(-202.450566, -209.830773)"/><path id="Path-84" stroke="#163150" stroke-linecap="round" stroke-width="7" d="M22.3370813,290.568004 C61.0051056,275.489384 242.528474,192.344047 451.907221,312.443651" transform="translate(237.122151, 280.477382) scale(-1, 1) translate(-237.122151, -280.477382)"/><path id="Path-84-Copy" stroke="#163150" stroke-linecap="round" stroke-width="7" d="M106.639845,568.095045 C336.1909,510.729314 500.530958,630.43167 515.566499,639.056053" transform="translate(311.103172, 595.825643) scale(-1, 1) translate(-311.103172, -595.825643)"/><path id="Path-80" fill="url(#linearGradient-4)" stroke="#163150" stroke-width="3" d="M41.8295903,559.825235 C34.1157897,513.775787 20.8879691,364.743367 91.968195,287.356731 C204.19328,226.324756 374.658751,234.546788 495.058917,307.826879 C411.305256,408.28229 406.049703,585.954544 423.749448,640.296211 C288.846265,552.595232 176.359288,542.496837 41.8295903,559.825235 Z" transform="translate(265.302219, 443.473503) scale(-1, 1) translate(-265.302219, -443.473503)"/><path id="Path-97" stroke="#163150" stroke-linecap="round" stroke-width="3" d="M143.334828,288.214345 C95.6671391,328.637986 65.7822502,418.108095 70.1766959,478.695832" transform="translate(106.542283, 383.455089) scale(-1, 1) translate(-106.542283, -383.455089)"/><path id="Path-97-Copy" stroke="#163150" stroke-linecap="round" stroke-width="3" d="M144.981326,277.551293 C125.030811,284.319127 101.206244,317.464136 92.9262587,350.861515" transform="translate(118.953792, 314.206404) scale(-1, 1) translate(-118.953792, -314.206404)"/><path id="Path-105" stroke="#163150" stroke-linecap="round" stroke-width="3" d="M341.920572,112.999166 C317.656884,135.052544 294.523911,188.489575 294.523911,224.400169" transform="translate(318.222241, 168.699667) scale(-1, 1) translate(-318.222241, -168.699667)"/><path id="Path-107" stroke="#163150" stroke-linecap="round" stroke-width="3" d="M32.7404392,373.214345 C8.48812046,392.417475 -2.42911561,464.466145 5.09993086,499.422838" transform="translate(17.745088, 436.318592) scale(-1, 1) translate(-17.745088, -436.318592)"/><path id="Path-93" fill="#9F6634" d="M56.3494147,780.151279 C56.3494147,780.151279 77.4207297,787.371504 84.4962419,787.371504 C91.571754,787.371504 100.227199,789.497858 100.227199,780.151279 C100.227199,770.8047 117.209167,764.93405 127.165516,764.93405 C137.121865,764.93405 164.986471,768.463084 172.508908,772.985082 C177.523866,775.999747 185.464719,778.388479 196.331466,780.151279 L181.333569,813.670669 L88.7352664,822.627116 C67.1446986,794.309892 56.3494147,780.151279 56.3494147,780.151279 Z" transform="translate(126.340440, 793.780583) scale(-1, 1) translate(-126.340440, -793.780583)"/><path id="Path-79" stroke="#163150" stroke-width="3.08" d="M16.9259334,783.514926 C34.2491868,789.728271 44.8007385,787.462451 44.8007385,783.514926 C44.8007385,779.567401 42.6792577,760.287887 99.2831965,768.373125 C112.990833,770.331107 121.486009,774.492296 132.545068,776.152777 C145.468796,778.093232 161.833927,779.23144 181.64046,779.567401" transform="translate(99.283197, 776.891952) scale(-1, 1) translate(-99.283197, -776.891952)"/><path id="Path-77" fill="#9F6634" stroke="#163150" stroke-width="3.08" d="M47.6766706,813.342501 L50.7165835,690.241354 L100.025285,696.362857 L97.3015531,810.259412 C87.9505753,805.712707 81.3690973,806.740404 77.5571192,813.342501 C66.5506638,814.325237 56.5905143,814.325237 47.6766706,813.342501 Z" transform="translate(73.850978, 752.160454) scale(-1, 1) translate(-73.850978, -752.160454)"/><path id="Path-92" fill="#AE723B" d="M41.5788661,819.052136 C50.4534179,819.052136 61.0238771,813.917264 73.2902435,803.647522 L85.2057755,791.368514 C84.9275718,785.067091 89.2909792,780.727629 98.2959978,778.350127 C107.301016,775.972625 115.021332,777.458056 121.456945,782.806421 L107.54984,819.052136 C87.96976,832.392315 76.5498945,839.062405 73.2902435,839.062405 C68.4007671,839.062405 28.2670383,819.052136 41.5788661,819.052136 Z" transform="translate(80.171972, 808.157540) scale(-1, 1) translate(-80.171972, -808.157540)"/><path id="Path-70" fill="#AE723B" stroke="#163150" stroke-width="3" d="M-15.8755675,510.729314 C-49.8048516,504.329177 -66.979211,456.573156 -49.9446632,424.422469 C-32.9101153,392.271781 -0.217164832,384.326243 19.1966772,384.326243 C38.6105192,384.326243 71.092253,385.781643 82.9862272,405.102056 C90.9155433,417.982331 90.9155433,457.108168 82.9862272,522.479565 L273.785291,607.355375 C328.86365,637.090014 358.556593,660.482516 362.864123,677.532881 C369.325417,703.108427 349.131947,735.742161 377.594276,762.979708 C406.056604,790.217254 478.996261,816.237144 497.35153,816.237144 C515.706798,816.237144 523.482719,812.407369 545.44313,779.446664 C596.50643,775.898634 676.536484,799.795128 686.378223,799.795128 C696.219963,799.795128 705.105801,834.091746 686.378223,838.756328 C679.115462,867.469733 679.115462,931.183676 624.796198,984.809451 C588.583356,1020.55997 462.28686,1027.77679 245.90671,1006.45991 C226.15164,1012.25588 199.226141,1013.14181 165.130212,1009.11769 C113.986318,1003.08152 -4.17277997,871.781662 -31.4365085,821.035949 C-49.6123275,787.205474 -66.0268559,735.838076 -80.6800938,666.933755 C-93.6176136,666.933755 -101.769735,662.70905 -105.136458,654.259638 C-110.186542,641.585521 -111.786338,630.464864 -89.4014995,607.355375 C-74.4782735,591.949049 -50.6959593,572.031218 -18.0545568,547.601883 C-18.3114092,537.026063 -17.5850794,524.735207 -15.8755675,510.729314 Z" transform="translate(294.523911, 701.365085) scale(-1, 1) translate(-294.523911, -701.365085)"/><path id="Path-95" stroke="#163150" stroke-linecap="round" stroke-width="3" d="M322.969708,676.060129 C357.566684,667.33977 435.428363,690.456178 486.504197,726.104333" transform="translate(404.736952, 700.160032) scale(-1, 1) translate(-404.736952, -700.160032)"/><path id="Path-95-Copy" stroke="#163150" stroke-linecap="round" stroke-width="3" d="M280.039971,707.313393 C355.723507,702.554245 428.098433,758.304823 486.504197,789.029934" transform="translate(383.272084, 748.028581) scale(-1, 1) translate(-383.272084, -748.028581)"/><path id="Path-88" fill="#9F6634" d="M-101.684058,592.148031 C28.2021577,639.830005 100.253799,668.091481 114.470866,676.932459 C128.687933,685.773437 137.311843,695.136321 140.342596,705.021111 C139.443213,748.591902 142.49058,773.209666 149.484695,778.874401 C159.975869,787.371504 262.911604,845.026279 290.046517,851.467283 C317.181431,857.908286 363.267472,872.805397 385.166336,820.224074 C398.332962,797.493921 496.379252,837.392991 507.340508,837.392991 C514.757454,832.292104 516.538224,826.882322 515.062205,816.254615 C514.163702,809.78516 510.649529,803.766541 507.340508,801.201121 C501.43046,798.977815 495.41226,799.042001 489.218269,797.850939 C480.429281,796.160876 471.236454,793.49931 461.066742,791.587437 C448.054787,789.141232 429.854367,785.829126 403.244686,781.914572 C395.674464,780.800916 383.117379,780.527249 365.573431,781.093571 C356.001321,795.89973 346.692665,806.758762 337.647465,813.670669 C329.569633,819.84336 307.943769,817.606728 282.12507,809.1841 C264.577808,803.459796 245.099504,794.69084 226.599451,784.490022 C180.878783,759.279919 180.72273,742.287026 180.72273,712.704722 C180.72273,697.581514 184.29291,688.195514 182.14758,679.377578 C180.096458,670.946868 175.097882,664.422772 156.539775,649.949458 C128.954806,628.43617 82.4642818,604.320734 -7.32237329,564.204426 C-25.2662128,556.187192 -55.1810277,542.278905 -97.066818,522.479565 C-103.361906,532.30848 -106.521105,543.596444 -106.544413,556.343456 C-106.562619,569.090468 -104.942501,581.025326 -101.684058,592.148031 Z" transform="translate(204.497388, 690.456178) scale(-1, 1) translate(-204.497388, -690.456178)"/><path id="Path-72" stroke="#163150" stroke-linecap="round" stroke-width="3" d="M-87.8566331,522.479565 C-97.3615369,528.896242 -101.133309,587.395237 -92.4738734,592.148031 C-83.8144377,596.900825 79.7624339,656.966267 102.78892,666.933755 C125.815406,676.901244 149.49705,690.688689 149.49705,714.232789 C149.49705,737.77689 150.400586,767.294029 158.69488,778.874401 C166.989174,790.454773 273.586553,848.96757 326.950815,856.702155 C380.315077,864.436739 386.628434,833.064685 395.317948,816.887717 C401.110957,806.103071 441.183429,813.392608 515.535363,838.756328" transform="translate(209.102481, 690.193926) scale(-1, 1) translate(-209.102481, -690.193926)"/><path id="Path-71" stroke="#163150" stroke-linecap="round" stroke-width="3.08" d="M515.566499,510.729314 C539.870845,510.729314 580.849015,505.076726 585.120081,505.076726 C589.391147,505.076726 604.92339,491.96287 604.92339,467.069434 C604.92339,442.175998 596.958754,426.164685 585.120081,426.164685 C573.281408,426.164685 569.088545,436.118819 569.088545,447.892489 C569.088545,459.666159 572.318915,472.792063 578.719498,472.792063" transform="translate(560.244944, 468.446999) scale(-1, 1) translate(-560.244944, -468.446999)"/><path id="Path-89" fill="#9F6634" d="M695.446518,613.658667 C648.027913,648.544417 624.318611,665.851955 624.318611,665.581278 C624.318611,665.311569 615.220105,666.060347 607.440114,658.0552 C603.508312,654.009609 601.0496,648.822447 601.0496,640.296211 C601.0496,623.36462 630.497646,593.454237 689.393739,550.565063 L695.446518,613.658667 Z" transform="translate(648.248059, 608.074734) scale(-1, 1) translate(-648.248059, -608.074734)"/><path id="Path-90" fill="#9F6634" d="M370.590795,511.847018 L436.931526,506.718222 C437.095936,631.419396 444.003623,713.753431 457.654587,753.720326 C478.131032,813.670669 518.372104,916.776638 556.314988,958.001786 C594.257872,999.226935 605.633932,1011.53292 605.633932,1011.53292 C605.633932,1011.53292 593.772427,1010.90757 570.049419,1009.65686 C539.85881,1003.29239 512.159086,986.074035 486.950246,958.001786 C461.741406,929.929537 439.034076,890.83777 418.828256,840.726483 C394.493467,776.112111 380.628453,718.317549 377.233211,667.342795 C375.084793,635.087323 371.886583,602.906489 368.26656,570.337052 C366.813901,557.267436 367.588646,537.770758 370.590795,511.847018 Z" transform="translate(486.594975, 759.125571) scale(-1, 1) translate(-486.594975, -759.125571)"/><path id="Path-73" stroke="#163150" stroke-linecap="round" stroke-width="3" d="M602.599155,666.933755 C642.444424,634.784823 664.820678,617.290676 669.727916,614.451314" transform="translate(636.163535, 640.692535) scale(-1, 1) translate(-636.163535, -640.692535)"/><path id="Path-74" stroke="#163150" stroke-linecap="round" stroke-width="3.08" d="M343.141112,547.601883 C343.141112,569.929171 355.848756,727.292431 381.132263,799.79814 C406.41577,872.303848 440.48504,952.050188 493.199619,987.331702 C528.342671,1010.85271 566.310258,1017.22878 607.102379,1006.45991 C544.413525,948.053241 503.16945,879.165983 483.370152,799.79814 C463.570854,720.430296 451.8555,652.797858 448.224092,596.900825" transform="translate(475.121746, 779.567401) scale(-1, 1) translate(-475.121746, -779.567401)"/><path id="Path-75" stroke="#163150" stroke-linecap="round" stroke-width="3.08" d="M368.444634,505.076726 C368.444634,528.896242 362.275651,646.859375 382.44591,726.141881 C402.616169,805.424387 430.131459,877.613845 463.193118,924.153878 C485.234225,955.180567 509.589326,984.306914 536.258423,1011.53292" transform="translate(451.907221, 758.304823) scale(-1, 1) translate(-451.907221, -758.304823)"/><path id="Path-76" stroke="#163150" stroke-linecap="round" stroke-width="3" d="M574.305317,398.394338 C539.139696,405.272657 537.66933,478.144589 574.305317,498.216373" transform="translate(560.841104, 448.305356) scale(-1, 1) translate(-560.841104, -448.305356)"/><path id="Path-78" stroke="#163150" stroke-width="2.541" d="M43.4213462,813.376709 C56.0251235,816.825769 72.8414609,794.333834 77.6268019,784.927225 C80.8170293,778.656152 90.5597588,776.869544 106.854991,779.567401" transform="translate(75.138168, 796.041597) scale(-1, 1) translate(-75.138168, -796.041597)"/><path id="Path" fill="#163150" fill-rule="nonzero" d="M233.679244,874.89506 C207.451722,904.688588 163.541138,915.169029 102.581296,908.968914 C51.2464012,903.747734 -10.3413963,887.182603 -89.0045337,859.274686 C-89.7852814,858.997694 -90.6427488,859.406069 -90.9197405,860.186817 C-91.1967323,860.967564 -90.7883574,861.825032 -90.0076097,862.102023 C-11.1370624,890.083525 50.6517942,906.702735 102.277737,911.953516 C164.103929,918.241746 208.937526,907.541003 235.931039,876.877337 C236.47843,876.255521 236.418096,875.307692 235.79628,874.760301 C235.174464,874.212911 234.226635,874.273244 233.679244,874.89506 Z" transform="translate(72.649340, 886.434340) scale(-1, 1) translate(-72.649340, -886.434340)"/><path id="Path-94-Copy-3" stroke="#163150" stroke-linecap="round" stroke-width="2.202" d="M587.982442,789.029934 C591.511751,782.209598 601.533242,760.741273 632.773388,751.550538" transform="translate(610.377915, 770.290236) scale(-1, 1) translate(-610.377915, -770.290236)"/><g id="Oval" transform="translate(160.544462, 904.651872) scale(-1, 1) translate(-160.544462, -904.651872)"><use fill="#313034" fill-rule="evenodd" stroke="url(#linearGradient-5)" stroke-width="4.235" xlink:href="#path-6"/><use stroke="#163150" stroke-width="1.694" xlink:href="#path-6"/></g><g id="Oval-Copy-24" transform="translate(77.533817, 919.919595) scale(-1, 1) translate(-77.533817, -919.919595)"><use fill="#313034" fill-rule="evenodd" stroke="url(#linearGradient-7)" stroke-width="4.235" xlink:href="#path-8"/><use stroke="#163150" stroke-width="1.694" xlink:href="#path-8"/></g><g id="Combined-Shape"><use fill="#313034" fill-rule="evenodd" stroke="url(#linearGradient-9)" stroke-width="4.235" xlink:href="#path-10"/><use stroke="#163150" stroke-width="1.694" xlink:href="#path-10"/></g></g></svg>