<svg xmlns="http://www.w3.org/2000/svg" xmlns:xlink="http://www.w3.org/1999/xlink" id="Layer_1" data-name="Layer 1" viewBox="0 0 254.04 299.73"><defs><filter id="week1-guide-shadow" width="200%" height="200%" name="week1-guide-shadow"><feOffset dx="1" dy="2" in="SourceAlpha" result="offOut"/><feGaussianBlur in="offOut" result="blurOut" stdDeviation="5"/><feComponentTransfer><feFuncA slope=".3" type="linear"/></feComponentTransfer><feMerge><feMergeNode/><feMergeNode in="SourceGraphic"/></feMerge></filter></defs><title>guide--mobile</title><g id="w1__guide" style="filter:url(#week1-guide-shadow)"><path d="M70,227.86v33.76q20.34,17,45.92,6.19V245Q70,212.57,70,227.86Z" style="fill:#ffd7af;fill-rule:evenodd"/><path d="M96.84,273c-9.84,0-19-3.54-27.5-10.6a1,1,0,0,1-.36-.77V227.86c0-2.58.89-4.34,2.64-5.25,7.4-3.83,29.14,10.46,44.85,21.54a1,1,0,0,1,.43.82v22.84a1,1,0,0,1-.61.92A50,50,0,0,1,96.84,273ZM71,261.15c12.94,10.62,27.71,12.64,43.92,6V245.49C85.8,225,75.8,222.7,72.54,224.39c-1.05.54-1.56,1.68-1.56,3.47Z" style="fill:#163150"/><path d="M178.93,227.86v33.76q-20.35,17-45.92,6.19V245Q178.93,212.57,178.93,227.86Z" style="fill:#ffd7af;fill-rule:evenodd"/><path d="M152.06,273a49.88,49.88,0,0,1-19.44-4.26,1,1,0,0,1-.61-.92V245a1,1,0,0,1,.42-.82c15.71-11.08,37.45-25.38,44.86-21.54,1.75.91,2.64,2.67,2.64,5.25v33.76a1,1,0,0,1-.36.77C171.11,269.45,161.91,273,152.06,273ZM134,267.14c16.2,6.65,31,4.63,43.92-6V227.86c0-1.79-.51-2.93-1.56-3.47-3.26-1.69-13.26.61-42.36,21.1Z" style="fill:#163150"/><path d="M195.3,129c17,14.42,29,27.93,34.09,56.31s-.86,58.56-34.09,51.3c5.28-22.94,5-42.24,3.35-59.51q-1.69-17.28-31.09-44.57Q178.27,114.54,195.3,129Z" style="fill:#e3edff;fill-rule:evenodd"/><path d="M204.69,238.67a45,45,0,0,1-9.61-1.12l-1-.22.23-1c5.7-24.71,4.77-44.61,3.34-59.2-1.11-11.2-11.46-26-30.78-43.93l-.59-.55.41-.69c3.6-6,7.82-9.49,12.54-10.27,5-.83,10.64,1.34,16.7,6.48h0c18.56,15.74,29.55,29.46,34.44,56.9,3.79,21.31.84,38.47-8.1,47.08C217.78,236.49,211.88,238.67,204.69,238.67Zm-8.19-2.87c10.51,2.09,18.71.39,24.39-5.08,8.45-8.13,11.19-24.63,7.52-45.28-4.78-26.84-15.55-40.29-33.76-55.72h0c-5.6-4.74-10.67-6.78-15.08-6-3.94.66-7.55,3.56-10.73,8.64,19.3,18,29.66,33.05,30.81,44.64C201.08,191.5,202,211.27,196.5,235.8Z" style="fill:#163150"/><path d="M197.86,169.44c6.75-.22,12.42-.53,23.45-8.48,17.65,46.89,4.44,66.43-2.57,71.51s-13.91,4.49-22.26,3.34C198.56,227.18,197.32,174.33,197.86,169.44Z" style="fill:#ffd7af;fill-rule:evenodd"/><path d="M189,170.44v-2c17.4,0,26.56-5,31.18-9.22l1.35,1.48C216.63,165.14,207,170.44,189,170.44Z" style="fill:#163150"/><path d="M202.1,229a10.43,10.43,0,0,1-4.69-1.25,1,1,0,0,1,.89-1.79c3.29,1.62,5,1,7.09.3l1.06-.36a1,1,0,0,1,.6,1.91l-1,.34A11.61,11.61,0,0,1,202.1,229Z" style="fill:#163150"/><path d="M208.91,231a1,1,0,0,1-.89-.53,17,17,0,0,0-5.57-6.62,1,1,0,1,1,1.06-1.69,19,19,0,0,1,6.28,7.37,1,1,0,0,1-.88,1.47Z" style="fill:#163150"/><path d="M53.66,129c-17,14.42-29,27.93-34.1,56.31s.87,58.56,34.1,51.3c-5.29-22.94-5.06-42.24-3.36-59.51Q52,159.78,81.39,132.49,70.68,114.54,53.66,129Z" style="fill:#e3edff;fill-rule:evenodd"/><path d="M44.27,238.67c-7.2,0-13.09-2.17-17.59-6.5-8.94-8.61-11.9-25.77-8.1-47.08,4.88-27.44,15.87-41.16,34.43-56.9h0c6.07-5.14,11.69-7.31,16.71-6.48,4.72.78,8.94,4.24,12.53,10.27l.41.69-.59.55C62.76,151.17,52.4,166,51.3,177.16c-1.44,14.58-2.36,34.48,3.33,59.19l.23,1-1,.22A44.93,44.93,0,0,1,44.27,238.67Zm10-108.95c-18.21,15.43-29,28.88-33.76,55.72-3.68,20.65-.94,37.15,7.52,45.28,5.67,5.47,13.88,7.17,24.39,5.08A178.78,178.78,0,0,1,49.31,177c1.14-11.59,11.5-26.61,30.8-44.64-3.18-5.08-6.78-8-10.72-8.64-4.41-.74-9.49,1.3-15.08,6Z" style="fill:#163150"/><path d="M51.36,172.79C44.61,172.57,38,170.91,27,163c-2.8,8.33-4.9,14.67-6.17,21.19-6.19,31.68,3.75,44.24,9.57,48.46,7,5.08,13.72,4.38,22.07,3.23C50.37,227.21,51.9,177.68,51.36,172.79Z" style="fill:#ffd7af;fill-rule:evenodd"/><path d="M57.84,173.44c-18,0-27.65-5.3-32.54-9.74l1.35-1.48c4.62,4.21,13.79,9.22,31.19,9.22Z" style="fill:#163150"/><path d="M46.86,229a11.67,11.67,0,0,1-4-.85c-.32-.12-.66-.23-1-.34a1,1,0,1,1,.61-1.91l1.05.36c2.13.74,3.81,1.32,7.1-.3a1,1,0,0,1,.88,1.79A10.4,10.4,0,0,1,46.86,229Z" style="fill:#163150"/><path d="M40.05,231a1,1,0,0,1-.88-1.47,18.87,18.87,0,0,1,6.28-7.37,1,1,0,0,1,1.06,1.69,17,17,0,0,0-5.58,6.62A1,1,0,0,1,40.05,231Z" style="fill:#163150"/><ellipse cx="65.48" cy="107.46" rx="7.5" ry="10.5" style="fill:#ffd7af"/><path d="M65.48,119c-4.69,0-8.5-5.16-8.5-11.5S60.79,96,65.48,96s8.5,5.16,8.5,11.5S70.16,119,65.48,119Zm0-21c-3.59,0-6.5,4.26-6.5,9.5s2.91,9.5,6.5,9.5,6.5-4.27,6.5-9.5S69.06,98,65.48,98Z" style="fill:#163150"/><ellipse cx="183.48" cy="106.46" rx="7.5" ry="10.5" style="fill:#ffd7af"/><path d="M183.48,118c-4.69,0-8.5-5.16-8.5-11.5s3.81-11.5,8.5-11.5,8.5,5.16,8.5,11.5S188.16,118,183.48,118Zm0-21c-3.59,0-6.5,4.26-6.5,9.5s2.91,9.5,6.5,9.5,6.5-4.27,6.5-9.5S187.06,97,183.48,97Z" style="fill:#163150"/><path d="M70,123.89v.34l-.21.27C59.24,138,52.94,156.44,51.22,177.8c-1.62,20.28-.62,45.85,3.7,57.82C62.11,255.53,91.67,269,122.8,269s66-15.39,71.54-33.35c3.83-12.39,5.4-38,3.4-57.1-1.86-17.64-6.24-33.08-13.16-45.48l-.15-.28,0-.33a85.62,85.62,0,0,0,.57-9.94C185,105,178,90,165,77.21,153.24,65.54,142.52,60,128.09,60,114.25,60,103,66.4,89.87,79.17,76.58,92.15,70.05,106,70,123.89Z" style="fill:#e3edff;fill-rule:evenodd"/><path d="M122.8,270C90,270,61.1,255.69,54,236c-4.53-12.54-5.31-38.79-3.75-58.24C52,156,58.47,137.4,69,123.89h0c0-17.84,6.23-31.85,20.14-45.44S114.8,59,128.08,59c14.16,0,25.06,5.08,37.65,17.54,13.47,13.33,20.3,28.82,20.3,46a87.83,87.83,0,0,1-.57,10.06h0c6.91,12.38,11.37,27.81,13.27,45.87,2,19.08.47,44.87-3.43,57.5C189.78,253.78,155.23,270,122.8,270ZM71,123.89v.69l-.42.54c-10.32,13.2-16.68,31.44-18.39,52.76-1.54,19.24-.79,45.13,3.64,57.4,6.84,19,35,32.73,66.94,32.73,31.66,0,65.3-15.56,70.59-32.65,3.83-12.4,5.34-37.84,3.35-56.69-1.87-17.79-6.25-33-13-45.11l-.31-.56.07-.64a86.09,86.09,0,0,0,.56-9.83c0-16.66-6.63-31.67-19.71-44.61-12.17-12-22.67-17-36.24-17-12.88,0-23.75,5.48-37.51,18.92C77.08,93.06,71.05,106.64,71,123.89Z" style="fill:#163150"/><path d="M51.28,206c34.18,22.84,110.66,22.84,147,.55,0,22.79-3.38,33.93-11.86,41.67s-34.91,21.42-61.67,21.42-46.63-9-50.63-12-17.49-13.24-19-22.11S49.9,215.54,51.28,206Z" style="fill:#2a455f;fill-rule:evenodd"/><path d="M124.79,270.6c-26.86,0-47-9-51.24-12.21l-.11-.08c-4.38-3.34-17.71-13.48-19.29-22.65-.4-2.3-.94-4.74-1.51-7.32-1.59-7.16-3.39-15.27-2.35-22.53a1,1,0,0,1,.58-.77,1,1,0,0,1,1,.09c33.48,22.37,109.87,22.65,146,.53a1,1,0,0,1,1.52.85c0,22.84-3.35,34.34-12.19,42.41C178.85,256.48,152.06,270.6,124.79,270.6Zm-72.7-62.92c-.55,6.5,1.07,13.76,2.5,20.23.58,2.6,1.13,5.06,1.53,7.41,1,5.57,7.2,12.77,18.53,21.39l.11.09c4.14,3.15,23.68,11.8,50,11.8,26.73,0,52.91-13.78,61-21.16s11.32-18.14,11.52-39.17c-17.27,10-44.28,15.89-72.82,15.89H124C94.65,224.09,68.59,218.1,52.09,207.68Z" style="fill:#163150"/><path d="M125.14,253.84c-13.12,0-23.77-3.46-29.5-9.64a1,1,0,0,1,1.47-1.36c12.79,13.79,49.46,10.13,60.58-.05a1,1,0,1,1,1.35,1.47c-5.77,5.29-17.93,9-31,9.52C127.08,253.82,126.11,253.84,125.14,253.84Z" style="fill:#163150"/><path d="M127,270.6a1,1,0,0,1-1-1V252.83a1,1,0,0,1,2,0V269.6A1,1,0,0,1,127,270.6Z" style="fill:#163150"/><path d="M171,133.85V126a18.06,18.06,0,0,1,11.5,3.4c5,3.59,4.61,14.16,4.33,17.75a10.93,10.93,0,0,0,7.17,11c-2.36,3.12-10.11,3.83-14.64,1.46S171,154,171,151.21Z" style="fill:#c86e4c;fill-rule:evenodd"/><path d="M185.81,162a15.27,15.27,0,0,1-6.94-1.55c-3.32-1.73-8.89-5.24-8.89-9.22V125l1,0a19.12,19.12,0,0,1,12.11,3.59c5.31,3.84,5.09,14.31,4.74,18.64a10,10,0,0,0,6.53,10l1.25.47-.8,1.07C193.18,160.81,189.55,162,185.81,162ZM172,127v24.25c0,2.07,3,4.93,7.82,7.45,3.6,1.88,9.61,1.62,12.4-.27A12,12,0,0,1,185.81,147c.25-3.11.69-13.53-3.92-16.86A17,17,0,0,0,172,127Z" style="fill:#163150"/><path d="M164,139.76V131a19.35,19.35,0,0,1,12.5,3.78c5.39,4,5,15.79,4.7,19.79a12.22,12.22,0,0,0,7.8,12.22c-2.56,3.48-11,4.27-15.92,1.62s-9.08-6.13-9.08-9.29Z" style="fill:#c86e4c;fill-rule:evenodd"/><path d="M180.11,171a16.3,16.3,0,0,1-7.52-1.71c-2.89-1.55-9.61-5.64-9.61-10.18V130l1,0a20.37,20.37,0,0,1,13.12,4c5.72,4.25,5.48,15.87,5.11,20.67a11.22,11.22,0,0,0,7.16,11.2l1.22.48-.78,1C188.06,169.7,184.15,171,180.11,171ZM165,132v27.13c0,2.36,3.28,5.58,8.56,8.41,4,2.14,10.71,1.8,13.71-.42a13.26,13.26,0,0,1-7.06-12.62c.27-3.48.75-15.15-4.31-18.9A18.25,18.25,0,0,0,165,132Z" style="fill:#163150"/><path d="M153,147.88V138a21.56,21.56,0,0,1,14,4.27c6,4.52,5.61,17.81,5.27,22.32A13.77,13.77,0,0,0,181,178.35c-2.87,3.93-12.31,4.81-17.83,1.83S153,173.26,153,169.7Z" style="fill:#c86e4c;fill-rule:evenodd"/><path d="M171,182.94a17.74,17.74,0,0,1-8.29-1.88c-3.22-1.73-10.7-6.32-10.7-11.36V137l1,0a22.57,22.57,0,0,1,14.63,4.47c6.35,4.75,6.08,17.81,5.67,23.2a12.79,12.79,0,0,0,8.09,12.78l1.21.47-.76,1.05C179.91,181.52,175.49,182.94,171,182.94Zm-17-44V169.7c0,2.71,3.7,6.39,9.65,9.6,4.68,2.53,12.34,2.09,15.65-.61a14.87,14.87,0,0,1-8-14.2c.3-4,.84-17.17-4.87-21.45A20.52,20.52,0,0,0,154,139Z" style="fill:#163150"/><path d="M149.29,214.6Q158.68,226.54,174,251q-18,1.36-19.57,1.37t-19.82-10.47l7.67-28.45Q85,202.73,54,164.48c2-11.09,3.19-9.74,4.53-16.52,14.54,32.57,93.52,56,139.35,53.48a71.84,71.84,0,0,1-1,16.05,280.69,280.69,0,0,1-47.61-2.89Z" style="fill:#a3a3a3;fill-rule:evenodd;opacity:.404552638530731;isolation:isolate"/><path d="M59.51,143c14.54,32.57,94.64,57.85,140.47,55.32a83.33,83.33,0,0,1-1.31,18.31Q96.78,208.4,54,162.63C56,151.54,58.17,149.74,59.51,143Z" style="fill:#9f6634;fill-rule:evenodd"/><path d="M198.67,217.59h-.08c-67.87-5.45-116.77-23.71-145.34-54.26a1,1,0,0,1-.26-.86,68,68,0,0,1,3.48-12.75,43.06,43.06,0,0,0,2.06-7,1,1,0,0,1,1.89-.21c14.74,33,96.16,57.12,139.5,54.73a1,1,0,0,1,.73.27,1,1,0,0,1,.33.7,84.75,84.75,0,0,1-1.33,18.53A1,1,0,0,1,198.67,217.59ZM55.05,162.32c28.15,29.82,76.19,47.72,142.8,53.2A82.13,82.13,0,0,0,199,199.33c-22.7,1-53.74-4.52-81.33-14.61C88.54,174.08,67.72,160,59.85,145.87c-.46,1.66-1,3.06-1.5,4.52A65.3,65.3,0,0,0,55.05,162.32Z" style="fill:#163150"/><path d="M83,133.85V126a18,18,0,0,0-11.5,3.4c-5,3.59-4.62,14.16-4.33,17.75a10.94,10.94,0,0,1-7.17,11c2.35,3.12,10.1,3.83,14.64,1.46S83,154,83,151.21Z" style="fill:#c86e4c;fill-rule:evenodd"/><path d="M68.15,162c-3.75,0-7.37-1.17-9-3.29l-.81-1.07,1.26-.47a9.94,9.94,0,0,0,6.52-10c-.34-4.33-.56-14.8,4.74-18.64A19.25,19.25,0,0,1,83,125l1,0v26.21c0,4-5.58,7.49-8.9,9.22A15.23,15.23,0,0,1,68.15,162Zm-6.4-3.59c2.8,1.89,8.81,2.15,12.41.27C79,156.14,82,153.28,82,151.21V127a17,17,0,0,0-9.92,3.22c-4.61,3.33-4.16,13.75-3.92,16.86A12,12,0,0,1,61.75,158.39Z" style="fill:#163150"/><path d="M93,139.76V131a19.33,19.33,0,0,0-12.5,3.78c-5.4,4-5,15.79-4.71,19.79A12.2,12.2,0,0,1,68,166.76c2.56,3.48,11,4.27,15.91,1.62S93,162.25,93,159.09Z" style="fill:#c86e4c;fill-rule:evenodd"/><path d="M76.87,171c-4,0-8-1.28-9.68-3.63l-.77-1,1.22-.48a11.2,11.2,0,0,0,7.15-11.2c-.37-4.8-.61-16.42,5.11-20.67A20.43,20.43,0,0,1,93,130l1,0v29.09c0,4.54-6.73,8.63-9.62,10.18A16.23,16.23,0,0,1,76.87,171Zm-7.14-3.9c3,2.22,9.72,2.56,13.71.42,5.28-2.83,8.56-6.05,8.56-8.41V132a18.28,18.28,0,0,0-10.91,3.6c-5,3.75-4.57,15.42-4.3,18.9A13.28,13.28,0,0,1,69.73,167.08Z" style="fill:#163150"/><path d="M105,146.88V137a21.55,21.55,0,0,0-14,4.27c-6,4.52-5.62,17.81-5.27,22.32A13.8,13.8,0,0,1,77,177.35c2.86,3.93,12.3,4.81,17.82,1.83S105,172.26,105,168.7Z" style="fill:#c86e4c;fill-rule:evenodd"/><path d="M87,181.94c-4.53,0-8.94-1.42-10.82-4l-.77-1.05,1.22-.47a12.8,12.8,0,0,0,8.09-12.78c-.41-5.39-.69-18.45,5.67-23.2A22.55,22.55,0,0,1,105,136l1,0v32.7c0,5-7.49,9.63-10.7,11.36A17.77,17.77,0,0,1,87,181.94Zm-8.31-4.25c3.31,2.7,11,3.14,15.65.61,6-3.21,9.65-6.89,9.65-9.6V138A20.49,20.49,0,0,0,91.58,142c-5.72,4.28-5.18,17.5-4.88,21.45A14.86,14.86,0,0,1,78.68,177.69Z" style="fill:#163150"/><path d="M100,89h11q4,5.61,8,5.17c1.87.24,1-6.1,2.89-5.17,4.08,2,4.08,4.21,4.51,8.31q7.38,0,11.82-8.31H151a20,20,0,0,1,20,20v17.9a20,20,0,0,1-20,20H100a20,20,0,0,1-20-20V109A20,20,0,0,1,100,89Z" style="fill:#ffd7af;fill-rule:evenodd"/><path d="M151,147.85H100a21,21,0,0,1-21-21V108.94a21,21,0,0,1,21-21h11a1,1,0,0,1,.81.42c2.44,3.41,4.81,5,7,4.77h.07a8.42,8.42,0,0,0,.5-2c.26-1.43.48-2.67,1.42-3.14a1.6,1.6,0,0,1,1.46,0c4.23,2.12,4.58,4.55,5,8.18,4.14-.32,7.43-2.86,10-7.76a1,1,0,0,1,.88-.53H151a21,21,0,0,1,21,21v17.91A21,21,0,0,1,151,147.85ZM100,89.94a19,19,0,0,0-19,19v17.91a19,19,0,0,0,19,19h51a19,19,0,0,0,19-19V108.94a19,19,0,0,0-19-19H138.79c-3.1,5.52-7.28,8.32-12.41,8.32a1,1,0,0,1-1-.89l-.07-.66c-.37-3.56-.53-5.09-3.58-6.71a13.7,13.7,0,0,0-.33,1.5c-.28,1.59-.64,3.74-2.43,3.63-2.85.26-5.7-1.48-8.47-5.19Z" style="fill:#163150"/><path d="M66,110.91c3.7-14.1,9.57-26.26,16-32.29h43.34c9.6,0,40.24-3.87,42.24-1.16S180.31,92,183,110.91C176.33,92,144.06,81.24,124.69,82.14S83,79.49,66,110.91Z" style="fill:#c2d5e1;fill-rule:evenodd"/><path d="M75.53,96.2c-4.72-1.37-23.72-1.79-24-4.19-.17-1.84,3.84-6.19,11.62-8,8.31-1.92,20.74-1.25,31.43-1.82q48.39-2.6,72.2-.56,18.69-3.19,26.7-5.48c1,2.28,1.35,15-10.73,21.36-.1-.34-1.37-1-1.53-1.32C170.56,73.88,147,65.76,126.54,65.76,102.11,65.76,82.54,78.19,75.53,96.2Z" style="fill:#9f6634;fill-rule:evenodd"/><path d="M182.8,98.32a.71.71,0,0,1-.32-.07.76.76,0,0,1-.4-.37,5.78,5.78,0,0,0-.54-.41,2.72,2.72,0,0,1-1-.93,48.51,48.51,0,0,0-10.78-14.6l-2.81.49h-.2c-15.76-1.34-40-1.15-72.09.57-3.25.17-6.71.23-10.08.28a41.81,41.81,0,0,0-8.31,13.21.8.8,0,0,1-1,.48,72.89,72.89,0,0,0-9.64-1.29c-10.43-1-14.7-1.65-14.88-3.6-.24-2.46,4.31-7,12.23-8.84,5.7-1.32,13.4-1.43,20.85-1.54h0C93.88,71.21,109.23,65,126.54,65c17.56,0,32.87,5.5,43.73,15.27,10.54-1.85,18.28-3.48,23-4.84a.8.8,0,0,1,1,.46c1.16,2.76,1.33,15.87-11.1,22.38A.84.84,0,0,1,182.8,98.32Zm-.78-.59h0ZM182,95.79a4.06,4.06,0,0,0,.5.37l.5.36a19.46,19.46,0,0,0,10-19.38c-4.67,1.28-11.8,2.77-21.26,4.46A50,50,0,0,1,182,95.79Zm0,0ZM52.38,91.85c1,1,8.76,1.77,13.44,2.24,3.68.36,7.18.71,9.23,1.16a43.29,43.29,0,0,1,7.36-11.93c-6.89.11-13.87.29-19,1.48C56.11,86.48,52.4,90.47,52.38,91.85Zm74.16-25.29c-16.22,0-30.66,5.62-40.37,15.1,2.84,0,5.7-.11,8.42-.26,32.08-1.72,56.37-1.91,72.2-.57l1.45-.25C157.74,71.6,143.18,66.56,126.54,66.56Z" style="fill:#163150"/><path d="M75.53,96.2c-9.94-2.07-16.93-1.34-22.85-2.7-7.11-1.62,3-7.81,12.45-9.9s61.71,4.24,79.21,2.28A388.32,388.32,0,0,0,186,78.45a73.35,73.35,0,0,0,7.51-2.29q-28.82,3.8-28.82,0c0-3.8-5.5-31.56-5.5-35.45S153.14,21,129.14,21,91.91,26.45,89.07,33.58,84.33,55.45,84.33,62.2V78.45Q63.4,80.85,57.61,83.6c-5.8,2.76-7.47,5.81-7.47,8.44S58.14,92,75.53,96.2Z" style="fill:#9f6634;fill-rule:evenodd"/><path d="M75.53,97.2l-.2,0a94.21,94.21,0,0,0-13.85-1.67,56.71,56.71,0,0,1-9-1,7.46,7.46,0,0,1-1.06-.32c-1.45-.28-2.25-.84-2.25-2.12,0-3.66,2.7-6.8,8-9.34,3.92-1.86,12.48-3.55,26.15-5.14V62.2c0-6.74,1.92-21.73,4.81-29,3.31-8.3,18.64-13.25,41-13.25,25.67,0,31.07,17.34,31.07,20.75,0,1.87,1.4,9.94,2.76,17.74,1.41,8.09,2.74,15.73,2.74,17.71.23.38,2.68,2.3,27.69-1a1,1,0,0,1,.48,1.92,74.2,74.2,0,0,1-7.61,2.33,390.62,390.62,0,0,1-41.82,7.45c-9.14,1-27.1-.15-44.48-1.29-15.52-1-30.18-2-34.62-1-7.62,1.68-14.06,5.57-14.07,7.13,0,.13.22.35.77.56.86.11,2.17.17,3.46.22a97.35,97.35,0,0,1,20.26,2.74,1,1,0,0,1,.74,1.19A1,1,0,0,1,75.53,97.2ZM129.14,22C107.63,22,93,26.44,90,34c-2.81,7-4.67,21.67-4.67,28.25V78.45a1,1,0,0,1-.89,1C70.67,81,61.79,82.72,58,84.51a20.87,20.87,0,0,0-2.77,1.54,43.24,43.24,0,0,1,9.65-3.42c4.72-1,18.83-.12,35.18,1s35.16,2.31,44.13,1.3c13.41-1.5,28.69-4.51,36.84-6.31-12.3,1.1-15.44.16-16.63-.89a2,2,0,0,1-.73-1.52c0-1.8-1.38-9.72-2.71-17.37-1.43-8.24-2.79-16-2.79-18.08C158.21,37.8,152.85,22,129.14,22Z" style="fill:#163150"/><path d="M84.22,69C86.63,66.35,109.64,53.6,127,53.6q17.36,0,35.46,7.75l2.26,14.81Q141.94,71.54,127,71.54T84.33,78.45Q84.14,71.91,84.22,69Z" style="fill:#7d4d22;fill-rule:evenodd"/><path d="M83.36,79.72l0-1.24c-.13-4.36-.17-7.58-.11-9.55v-.38l.25-.27c2.81-3,26.08-15.68,43.51-15.68a91,91,0,0,1,35.85,7.83l.51.22,2.57,16.77-1.41-.28c-15-3-27.66-4.6-37.52-4.6s-24.12,2.32-42.42,6.88Zm1.85-10.33c0,1.75,0,4.37.08,7.79,17.89-4.41,31.91-6.64,41.7-6.64s22,1.47,36.52,4.35l-2-12.83A88.79,88.79,0,0,0,127,54.6C110.64,54.6,88.65,66.34,85.21,69.39Z" style="fill:#163150"/><path d="M98,34.07c7.24-4.72,13.11-6.7,16.86-3.44q3.75,3.27,5.08,11.3-6.58-5.76-11-6.16C104.48,35.37,90.78,38.79,98,34.07Z" style="fill:#835228;fill-rule:evenodd"/><path d="M150.52,32.47c-7.23-4.72-13.11-6.7-16.86-3.44q-3.75,3.27-5.08,11.3,6.58-5.76,11-6.16C144.05,33.77,157.76,37.19,150.52,32.47Z" style="fill:#835228;fill-rule:evenodd"/><path d="M65.48,107.46a1,1,0,0,1-1-1c0-3.51-1-4.44-1.37-4.51a1,1,0,0,1-1-1,1,1,0,0,1,1-1c.33,0,3.3.18,3.3,6.5A1,1,0,0,1,65.48,107.46Z" style="fill:#163150"/><path d="M184,107.46a1,1,0,0,1-1-1c0-6.32,3-6.5,3.3-6.5a1,1,0,0,1,0,2c-.31.06-1.3,1-1.3,4.5A1,1,0,0,1,184,107.46Z" style="fill:#163150"/><circle cx="109.98" cy="107.96" r="9" style="fill:#163150"/><circle cx="140.98" cy="107.96" r="9" style="fill:#163150"/><ellipse cx="113.38" cy="102.66" rx="3.04" ry="3.01" transform="translate(-26.52 164.48) rotate(-66)" style="fill:#d3e6f2"/><ellipse cx="138.01" cy="102.66" rx="3.04" ry="3.01" transform="translate(-11.9 186.99) rotate(-66)" style="fill:#d3e6f2"/><path d="M150.28,198.5q-11.09,41.25-12.12,42.38c-1,1.14,2.57.65,6.06,2.49q3.5,1.84,7.23,4l.89-43.74Z" style="fill:#8a582d;fill-rule:evenodd"/><path d="M151.45,248.42a1,1,0,0,1-.51-.14c-2.47-1.46-4.89-2.81-7.19-4a15.62,15.62,0,0,0-4.29-1.38c-1.3-.27-2.15-.45-2.42-1.28a1.35,1.35,0,0,1,.38-1.39c.38-.65,2.52-7.08,11.9-42a1,1,0,0,1,1.89-.11l2.06,5.18a1.07,1.07,0,0,1,.07.39l-.89,43.74a1,1,0,0,1-.51.85A1.09,1.09,0,0,1,151.45,248.42Zm-12.13-7.61.55.11a18,18,0,0,1,4.82,1.57c1.87,1,3.81,2.06,5.79,3.2l.85-41.83-.87-2.19C142.36,231.78,140.11,238.91,139.32,240.81Z" style="fill:#163150"/><path d="M152.34,247.42c2.43,1.69,22.42,4.43,30.2,3.06s21.66-3.06,22.74-3.06,2-20.25,2-22.92,2-15.75,0-18.15Q205.27,204,154,211,149.91,245.72,152.34,247.42Z" style="fill:#9f6634;fill-rule:evenodd"/><path d="M177,251.85c-9.39,0-23.09-2.1-25.25-3.61h0c-1-.71-2.92-2,1.22-37.37l.09-.77.77-.11c51.84-7.08,53.37-5.25,54.19-4.27,1.63,1.95,1.2,8,.51,15.21-.15,1.59-.28,3-.28,3.58,0,1.31-.22,7.05-.59,12.53-.77,11.39-1.32,11.39-2.4,11.39-.92,0-14.76,1.67-22.56,3.05A35.41,35.41,0,0,1,177,251.85ZM153,246.62c2.3,1.48,21.79,4.22,29.42,2.88,6.91-1.22,19.28-2.78,22.31-3.05.8-2.93,1.59-18.9,1.59-21.95,0-.72.13-2.06.29-3.77.35-3.62,1.15-12.06,0-13.68-1.3-.67-9.85-.89-51.66,4.81C151.52,240.81,152.39,245.83,153,246.62Zm52.33-.2Zm1.31-39.35Z" style="fill:#163150"/><path d="M151.43,193.91c2.38-1.25,40.18,6.46,45.5,4.59s16.36,10.82,11.84,22.12-11.39,5.93-25.57,5.93-32.92,12.75-31-5.93S149.06,195.15,151.43,193.91Z" style="fill:#ae723b;fill-rule:evenodd"/><path d="M158.92,231.8a7.9,7.9,0,0,1-5.4-1.67c-2.05-1.77-2.81-4.91-2.33-9.61a69.36,69.36,0,0,0-.92-21.66c-.58-3.11-.93-5,.7-5.84,1.21-.63,6,0,18.32,1.84,10.36,1.55,24.54,3.66,27.31,2.7,2.35-.83,5.5.49,8.42,3.54,4.44,4.63,7.6,12.58,4.68,19.89-3.57,8.89-8.68,8.26-16.43,7.32a78.68,78.68,0,0,0-10.07-.76c-4.23,0-8.87,1.16-13.37,2.29C165.76,230.86,162,231.8,158.92,231.8Zm-7-37c-.27.25.08,2.15.37,3.68a71.54,71.54,0,0,1,.94,22.23c-.41,4,.13,6.59,1.65,7.9,2.62,2.27,8.4.82,14.52-.72,4.61-1.16,9.37-2.35,13.85-2.35a81.57,81.57,0,0,1,10.31.77c7.55.92,11.34,1.39,14.33-6.07,2.6-6.49-.27-13.6-4.26-17.76-2.29-2.4-4.77-3.59-6.32-3.05-3,1.05-13.61-.41-28.26-2.6C161.59,195.74,153.19,194.48,151.87,194.81Z" style="fill:#163150"/><ellipse cx="182.98" cy="211.36" rx="8" ry="8.4" style="fill:#e3edff"/><path d="M183.38,208.26c.55-.55,1.09-1.08,1.63-1.63a1.2,1.2,0,0,1,1.91,0c.7.72,1.39,1.44,2.08,2.17a1.25,1.25,0,0,1,.12,1.66.75.75,0,0,1-1.23.12c-.35-.35-.68-.7-1-1.05a1.2,1.2,0,0,0-1.84,0l-1,1a.78.78,0,0,1-1.31,0l-1-1a1.19,1.19,0,0,0-1.78,0c-.31.29-.6.6-.89.92-.44.49-.81.62-1.18.38a1.24,1.24,0,0,1-.42-1.45,1.88,1.88,0,0,1,.35-.53c.7-.74,1.4-1.47,2.11-2.2a1.18,1.18,0,0,1,1.88,0l1.58,1.59" style="fill:#ae723b;fill-rule:evenodd"/><path d="M187,213.74a4.21,4.21,0,0,1-.48.89c-.7.76-1.43,1.5-2.16,2.24a1.26,1.26,0,0,1-2,0c-.72-.73-1.44-1.46-2.15-2.2A1.28,1.28,0,0,1,180,213a.8.8,0,0,1,1.36-.16l1,1.06a1.28,1.28,0,0,0,1.93,0l.91-.92c.28-.3.57-.56,1-.39a1.47,1.47,0,0,1,.74,1.13" style="fill:#ae723b;fill-rule:evenodd"/><circle cx="161.98" cy="220.96" r="2" style="fill:#163150"/><circle cx="199.98" cy="219.96" r="2" style="fill:#163150"/><path d="M127.48,139.5c11.32,0,20.5-11.16,20.5-14.19s-9.18,0-20.5,0-20.5-3-20.5,0S116.16,139.5,127.48,139.5Z" style="fill:#163150;fill-rule:evenodd"/><path d="M197,199c2.23,0,4.05,3.78,5,.93,1.83-5.51,1.23-19.1-3-34.43-3.21-11.62-5-20.5-10.23-24,.92,8.2,3.17,17.61,4.32,28S195.64,188.56,197,199Z" style="fill:#a3a3a3;fill-rule:evenodd;opacity:.404552638530731;isolation:isolate"/><path d="M52.53,213.53C52.6,219.77,56.32,239.4,54,237c-1-1-7.33-30-7.33-42.76s4.93-43.74,14.1-49.24c-.92,8.2-4.46,14.65-5.61,25S52.45,207.29,52.53,213.53Z" style="fill:#a3a3a3;fill-rule:evenodd;opacity:.404552638530731;isolation:isolate"/><path d="M145.68,199a12.85,12.85,0,1,1-12.85-12.85A12.78,12.78,0,0,1,145.68,199" style="fill:#f4d57a;fill-rule:evenodd"/><path d="M132.83,212.8a13.84,13.84,0,1,1,11.64-6.34A13.8,13.8,0,0,1,132.83,212.8Zm0-25.7A11.85,11.85,0,1,0,144.68,199,11.86,11.86,0,0,0,132.83,187.1Z" style="fill:#163150"/><path d="M143.17,199a10,10,0,0,1-.1,1.46,10.36,10.36,0,1,1,.1-1.46" style="fill:#c86e4c;fill-rule:evenodd"/><path d="M142.73,199a9.63,9.63,0,0,1-.34,2.59,9.9,9.9,0,0,1-18.83.89,9.77,9.77,0,0,1-.63-3.48,9.9,9.9,0,1,1,19.8,0" style="fill:#fff5f0;fill-rule:evenodd"/><path d="M132.83,209.35a10.4,10.4,0,1,1,10.4-10.4,10.31,10.31,0,0,1-.36,2.72A10.42,10.42,0,0,1,132.83,209.35Zm0-19.8a9.41,9.41,0,0,0-9.4,9.4,9.36,9.36,0,0,0,9.4,9.4,9.42,9.42,0,0,0,9.08-6.94,9.65,9.65,0,0,0,.32-2.46A9.41,9.41,0,0,0,132.83,189.55Z" style="fill:#163150"/><path d="M132.9,208.31a9.87,9.87,0,0,1-8.92-6.47,17.87,17.87,0,0,1,18-.85A9.72,9.72,0,0,1,132.9,208.31Z" style="fill:#c2d5e1;fill-rule:evenodd"/><polygon points="133.52 197.86 136.66 200.52 138.74 202.28 136.1 201.64 132.09 200.66 126.88 196.24 132.49 197.61 133.52 197.86" style="fill:#af522f;fill-rule:evenodd"/><polygon points="133.52 197.86 136.66 200.52 138.74 202.28 135.84 200.77 132.18 198.85 132.49 197.61 133.52 197.86" style="fill:#c86e4c;fill-rule:evenodd"/><polygon points="133.52 197.86 132.18 198.85 129.45 197.51 126.88 196.24 129.23 196.81 133.52 197.86" style="fill:#fbb444;fill-rule:evenodd"/><polygon points="132.18 198.85 132.09 200.66 128.82 197.89 126.88 196.24 129.45 197.51 129.49 197.53 129.49 197.53 132.18 198.85" style="fill:#ffd166;fill-rule:evenodd"/><path d="M132.72,198.37a.69.69,0,0,1,.29.92.68.68,0,1,1-.29-.92" style="fill:#fff5f0;fill-rule:evenodd"/><path d="M132.59,198.62a.41.41,0,0,1,.17.54.4.4,0,0,1-.53.17.39.39,0,0,1-.18-.53.4.4,0,0,1,.54-.18" style="fill:#faad18;fill-rule:evenodd"/><polygon points="124.19 198.58 127.04 198.68 124.29 199.15 124.19 198.58" style="fill:#c86e4c;fill-rule:evenodd"/><polygon points="126.63 192.85 128.36 194.21 127 192.27 126.63 192.85" style="fill:#c86e4c;fill-rule:evenodd"/><polygon points="126.66 204.87 128.38 203.51 127.17 205.23 126.66 204.87" style="fill:#c86e4c;fill-rule:evenodd"/><polygon points="132.53 189.83 132.94 191.9 133.28 189.8 132.53 189.83" style="fill:#c86e4c;fill-rule:evenodd"/><polygon points="139.07 192.31 137.58 194.17 139.58 192.85 139.07 192.31" style="fill:#c86e4c;fill-rule:evenodd"/><polygon points="139.78 198.58 142.02 198.34 142.02 198.96 139.78 198.58" style="fill:#c86e4c;fill-rule:evenodd"/><polygon points="137.8 203.43 139.02 205.23 139.44 204.71 137.8 203.43" style="fill:#c86e4c;fill-rule:evenodd"/><polygon points="132.92 206.27 132.63 208.29 133.22 208.31 132.92 206.27" style="fill:#c86e4c;fill-rule:evenodd"/><path d="M137,152V141a23.91,23.91,0,0,1,15.54,4.76c6.71,5,6.23,19.83,5.85,24.86a15.35,15.35,0,0,0,9.69,15.35c-3.19,4.38-13.66,5.36-19.79,2S137,180.27,137,176.31Z" style="fill:#c86e4c;fill-rule:evenodd"/><path d="M157,190.94a19.54,19.54,0,0,1-9.16-2.08c-3.56-1.92-11.82-7-11.82-12.55V140l1,0a24.93,24.93,0,0,1,16.17,5c7,5.26,6.7,19.75,6.25,25.73A14.37,14.37,0,0,0,168.44,185l1.21.47-.76,1.05C166.82,189.37,162,190.94,157,190.94Zm-19-49v34.35c0,3.06,4.13,7.19,10.77,10.79,5.28,2.86,14,2.32,17.62-.81a16.46,16.46,0,0,1-9-15.78c.34-4.41.94-19.19-5.45-24A22.83,22.83,0,0,0,138,142Z" style="fill:#163150"/><path d="M118,152V141a23.87,23.87,0,0,0-15.54,4.76c-6.71,5-6.24,19.83-5.85,24.86a15.36,15.36,0,0,1-9.69,15.35c3.18,4.38,13.65,5.36,19.78,2s11.3-7.71,11.3-11.67Z" style="fill:#c86e4c;fill-rule:evenodd"/><path d="M98,190.94c-5,0-9.84-1.57-11.91-4.41l-.76-1.05,1.21-.47a14.37,14.37,0,0,0,9-14.35c-.46-6-.76-20.47,6.25-25.73A24.88,24.88,0,0,1,118,140l1,0v36.31c0,5.55-8.27,10.63-11.82,12.55A19.6,19.6,0,0,1,98,190.94Zm-9.42-4.65c3.64,3.14,12.34,3.67,17.63.81,6.64-3.6,10.77-7.73,10.77-10.79V142A22.81,22.81,0,0,0,103,146.53c-6.39,4.79-5.79,19.57-5.46,24A16.42,16.42,0,0,1,88.58,186.29Z" style="fill:#163150"/><path d="M127.23,141.14l0-.07c4.46.91,14.06,9.59,14.06,22.1s-4.66,17.56-14.06,22.11l0-.12v.12c-9.4-4.55-14.06-9.59-14.06-22.11s9.6-21.19,14.06-22.1Z" style="fill:#c86e4c;fill-rule:evenodd"/><path d="M127.23,186.28a1.08,1.08,0,0,1-.43-.1c-9.27-4.48-14.63-9.68-14.63-23,0-13,9.82-22,14.86-23.08a1.23,1.23,0,0,1,.27,0,.55.55,0,0,1,.18,0c5,1,14.86,10.11,14.86,23.08,0,13.33-5.36,18.53-14.63,23a1.19,1.19,0,0,1-.46.1Zm0-2.12h0c8.47-4.17,13.06-8.85,13.06-21,0-11.93-9-20-13-21.07h-.1c-4.09,1.07-13,9.15-13,21.07C114.17,175.3,118.75,180,127.23,184.16Z" style="fill:#163150"/><path d="M186.28,105.6c-3.54-2-5.3-2.21-5.3-.75a28.5,28.5,0,0,1,5.9,16c-3.83-3.59-3.34-4-7.64-5.69,4.5,2.5,7,17.3,7,19-3.8-8.19-11.2-8.68-15.3-8.18,0-2,1.39-24.4-5.83-31.48-3.84-3.75-11.21-5.64-17.17-5.64A28.91,28.91,0,0,1,138,87l9.45-1.37,22.52-4Q185.13,93.39,186.28,105.6Z" style="fill:#c86e4c;fill-rule:evenodd"/><path d="M186.28,135.15a1,1,0,0,1-.91-.57c-3.57-7.71-10.47-8.08-14.27-7.62a1,1,0,0,1-1.12-1c0-.18,0-.5,0-1,.62-19.53-2.68-27-5.55-29.8-3.76-3.68-11.18-5.36-16.47-5.36a29.9,29.9,0,0,1-10.31-2,1,1,0,0,1-.65-1,1,1,0,0,1,.85-.88l9.44-1.37,22.49-3.95a1,1,0,0,1,.79.2c10.28,8,15.89,16.27,16.68,24.65a1,1,0,0,1-.44.93,1,1,0,0,1-1,0,13.49,13.49,0,0,0-3.48-1.52,29.68,29.68,0,0,1,5.57,15.81,1,1,0,0,1-.57,1,1,1,0,0,1-1.11-.17c-1-.94-1.72-1.67-2.29-2.26l-.77-.78c2.76,5.59,4.14,14.35,4.14,15.64a1,1,0,0,1-.79,1A.75.75,0,0,1,186.28,135.15Zm-13.14-10.31a14.9,14.9,0,0,1,11.43,4.83c-1-4.93-3.13-12.17-5.81-13.66a1,1,0,0,1,.84-1.81,12.15,12.15,0,0,1,5.74,3.69l.25.26a27.24,27.24,0,0,0-5.4-12.69,1,1,0,0,1-.21-.61,1.85,1.85,0,0,1,.86-1.67c.85-.49,2.14-.31,4.18.64-1.34-7.1-6.48-14.19-15.31-21.12l-22.08,3.87-4.91.71a25.34,25.34,0,0,0,5.26.57c5.88,0,13.68,1.84,17.87,5.93,4.58,4.48,6.65,14.94,6.16,31.09C172.36,124.85,172.74,124.84,173.14,124.84Z" style="fill:#163150"/><path d="M64.58,105.92q5.3-2.94,5.3-.75a28.5,28.5,0,0,0-5.9,16c3.83-3.59,3.34-4,7.64-5.69-4.51,2.5-8.44,17.71-6.14,20.84,6-8.09,10.76-9.89,14.5-10.33,0-2-1.49-24.07,5.73-31.15,3.84-3.75,11.21-5.64,17.17-5.64,1.53,0,11.75,6,17.32,5.64.32-1.49-.76-4.61,1.66-5.64,1-.43,3.47,1.34,4.52,8.09q8.35,1,12.82-10.3l-35.8-1L80,83.63Q65.73,93.71,64.58,105.92Z" style="fill:#c86e4c;fill-rule:evenodd"/><path d="M65.48,137.29h0a1,1,0,0,1-.81-.41c-1.55-2.1-.64-7.23-.18-9.33a36,36,0,0,1,2.9-8.39l-.44.45c-.57.59-1.28,1.32-2.29,2.26a1,1,0,0,1-1.11.17,1,1,0,0,1-.57-1,29.68,29.68,0,0,1,5.57-15.81,13.64,13.64,0,0,0-3.49,1.52,1,1,0,0,1-1,0,1,1,0,0,1-.45-.93c.8-8.4,6.12-16.14,15.82-23a1,1,0,0,1,.67-.18l23.43,2.27,35.73,1a1,1,0,0,1,.9,1.36c-3.15,8-7.82,11.69-13.87,10.93a1,1,0,0,1-.87-.83c-.93-6-2.87-7.3-3.22-7.31-1,.42-1,1.45-.92,3.1a8.28,8.28,0,0,1-.07,1.82,1,1,0,0,1-.92.78c-4,.24-10-2.44-13.92-4.22a27.36,27.36,0,0,0-3.48-1.42c-5.28,0-12.69,1.68-16.45,5.36C83.55,98.33,80.28,105.71,81,125c0,.48,0,.82,0,1a1,1,0,0,1-.88,1c-3.3.39-7.84,1.87-13.82,9.94A1,1,0,0,1,65.48,137.29Zm6.14-22.84a1,1,0,0,1,.48,1.88c-2,1.12-4.45,6.13-5.66,11.64a20.86,20.86,0,0,0-.59,6.2c5.38-6.72,9.75-8.51,13.1-9.08V125C78.39,109,80.43,98.58,85,94.1c4.18-4.09,12-5.93,17.87-5.93.69,0,1.81.49,4.28,1.6,3.48,1.56,8.59,3.85,12.11,4,0-.17,0-.35,0-.53-.06-1.6-.15-4,2.22-5a2.13,2.13,0,0,1,1.88.19c1.74,1,3.15,3.83,3.89,7.89,4.43.24,7.86-2.53,10.48-8.42l-34.35-1L80.25,84.67C72,90.59,67.13,97.14,65.84,104.14c2-1,3.33-1.13,4.18-.64a1.82,1.82,0,0,1,.86,1.67,1,1,0,0,1-.21.61,27.24,27.24,0,0,0-5.4,12.69l.25-.26a12.15,12.15,0,0,1,5.74-3.69A.92.92,0,0,1,71.62,114.45Z" style="fill:#163150"/><path d="M134,98.86l2.83-8.69q16,5.34,17.52,12.65Q142.36,96.75,134,98.86Z" style="fill:#d76e46;fill-rule:evenodd"/><path d="M154.33,103.82a1,1,0,0,1-.45-.11c-7.73-3.92-14.34-5.22-19.66-3.88a1,1,0,0,1-1-.29,1,1,0,0,1-.22-1l2.83-8.69a1.06,1.06,0,0,1,.5-.58,1,1,0,0,1,.77-.06c11.11,3.72,17.05,8.1,18.18,13.39a1,1,0,0,1-1,1.21Zm-15.82-6.5a34.33,34.33,0,0,1,14,3.5c-2-3.46-7.06-6.6-15-9.38l-2,6.11A20.16,20.16,0,0,1,138.51,97.32Z" style="fill:#163150"/><path d="M114.06,98.86l-2.83-8.69q-16,5.34-17.52,12.65Q105.68,96.75,114.06,98.86Z" style="fill:#d76e46;fill-rule:evenodd"/><path d="M93.71,103.82a1,1,0,0,1-1-1.21c1.13-5.29,7.07-9.67,18.18-13.39a1,1,0,0,1,.77.06,1.06,1.06,0,0,1,.5.58L115,98.55a1,1,0,0,1-1.19,1.28c-5.32-1.34-11.93,0-19.66,3.88A1,1,0,0,1,93.71,103.82Zm16.88-12.38c-8,2.78-13,5.92-15,9.38,6.43-2.92,12.14-4,17-3.27Z" style="fill:#163150"/></g></svg>