<svg xmlns="http://www.w3.org/2000/svg" xmlns:xlink="http://www.w3.org/1999/xlink" width="269" height="82" viewBox="0 0 269 82"><defs><path id="a" d="m15.0039216 13.8196078c1.5895504-1.2418362 3.2784224-1.8627451 5.0666666-1.8627451 3.7751823 0 6.2339813 2.11109 7.3764706 6.3333334.1986938.7947752.5464028 3.1293924 1.0431373 7.0039215l.2235294 12.9647059c.3477141.4470611.7202594.6705883 1.117647.6705883.3973877-.4967345.6457512-1.3660069.7450981-2.6078432l.1490196-2.2352941c.5960814-1.7882442 1.5398628-4.445734 2.8313725-7.972549 1.2418363-3.079754 3.3529263-4.8928077 6.3333334-5.4392157 2.1359584-.0496734 3.725485.894108 4.7686274 2.8313726.7451018 1.3908566 1.3660106 3.7751465 1.8627451 7.1529411.3973876 2.6823664.5464058 4.346402.4470589 4.9921569-.3477142 1.0928159-.2980415 2.2849609.1490196 3.5764706.6954283.1490203 1.0679736-.0496705 1.117647-.5960785.6457549-10.8784857 2.4339723-18.776446 5.3647059-23.6941176.8941221-1.539877 1.8875762-2.5581674 2.9803922-3.054902.6954283-.447061 1.7385551-.7450973 3.1294117-.8941176 2.4339991-.2483673 4.7189436.6705778 6.854902 2.7568627 1.6392239 1.5895505 2.4588235 3.8248222 2.4588235 6.7058824 0 1.0928159-.3973816 3.6509603-1.1921569 7.6745098-.8444486 4.7686513-2.1607753 11.8966846-3.9490196 21.3843137-1.6392238 8.3948132-4.2470409 14.6039015-7.8235294 18.627451-1.2915097 1.0431425-3.005218 1.5647059-5.1411764 1.5647059-2.4836726 0-4.7686171-.5960725-6.854902-1.7882353-1.6888973-1.3908566-2.8065332-3.2535831-3.3529412-5.5882353-.447061-1.8379177-.6954246-4.1228622-.745098-6.854902-.0993469-3.2784477-.2732014-5.5137195-.5215686-6.7058823-.4967346-.4470611-.9189526-.6457519-1.2666667-.5960784-.1490204.7451017-.471893 3.7254641-.9686275 8.9411764-.3973876 3.9242026-.9686237 6.8300559-1.7137255 8.7176471-1.1921628 2.8810601-3.5019436 4.4457504-6.9294117 4.6941176-5.5137531.3973876-9.7359331-1.9869022-12.6666667-7.1529411-1.7882442-2.4836726-3.1914982-6.2463801-4.2098039-11.2882353-1.0183058-5.0418553-1.5026146-10.5679438-1.4529412-16.5784314.0993469-12.0209752 1.6888735-19.2483539 4.7686275-21.682353zm91.7960784 19.9686275c.198694.7451018.273203 1.5150287.223529 2.3098039 0 2.6326929-1.067963 4.8431283-3.203921 6.6313726-1.937265 1.6888973-4.0235184 2.4091515-6.2588237 2.1607843-.3973876-.1490204-1.1424782-.1738567-2.2352941-.0745098.0993469.5960814-.0745076 2.185608-.5215686 4.7686274 0 1.1921628.5215634 2.0862716 1.5647059 2.682353 2.0366114-.546408 3.7006475-.546408 4.9921565 0 2.036612.7947752 3.154248 2.1359382 3.352941 4.0235294.248368 2.1359584-.372541 4.3091393-1.862745 6.5196078-1.490203 2.2104686-3.5516204 4.0607769-6.1843133 5.5509804-2.3346522 1.3411832-5.0914874 2.0117647-8.2705883 2.0117647-2.7817132 0-5.2901849-.5215634-7.5254902-1.5647059-.9437955-.447061-2.3594677-1.8378968-4.2470588-4.172549-2.0366115-3.3777946-3.0797383-10.5058279-3.1294118-21.3843137-.0496734-6.2588548.47189-13.4117245 1.5647059-21.4588235.6457549-4.6693044 1.986918-7.6993395 4.0235294-9.0901961l12.4431373-1.2666667c2.1359584-.447061 4.1725393-.6705882 6.1098039-.6705882 3.8745289 0 6.1594739.9686177 6.8549019 2.9058823.298041.7947753.447059 1.688884.447059 2.682353 0 2.1359584-.794763 3.8745031-2.384314 5.2156863-1.58955 1.3411831-3.7999857 2.0117647-6.6313724 2.0117647-.6954283 0-1.2418281-.0248364-1.6392157-.0745098-.3477141.7451017-.5464049 1.9372467-.5960784 3.5764705-.0993469 2.086285-.173856 3.2784299-.2235294 3.5764706.1490204.6954283.6705838 1.1424827 1.5647059 1.3411765 1.4405301-1.1424894 3.2535838-1.7137255 5.439216-1.7137255 2.533346 0 4.644436 1.1673086 6.333333 3.5019608zm38.223529 0c.198694.7451018.273203 1.5150287.22353 2.3098039 0 2.6326929-1.067963 4.8431283-3.203922 6.6313726-1.937264 1.6888973-4.023518 2.4091515-6.258823 2.1607843-.397388-.1490204-1.142478-.1738567-2.235294-.0745098.099347.5960814-.074508 2.185608-.521569 4.7686274 0 1.1921628.521563 2.0862716 1.564706 2.682353 2.036611-.546408 3.700647-.546408 4.992157 0 2.036611.7947752 3.154247 2.1359382 3.352941 4.0235294.248367 2.1359584-.372542 4.3091393-1.862745 6.5196078-1.490204 2.2104686-3.551621 4.0607769-6.184314 5.5509804-2.334652 1.3411832-5.091487 2.0117647-8.270588 2.0117647-2.781713 0-5.290185-.5215634-7.52549-1.5647059-.943796-.447061-2.359468-1.8378968-4.247059-4.172549-2.036612-3.3777946-3.079738-10.5058279-3.129412-21.3843137-.049673-6.2588548.47189-13.4117245 1.564706-21.4588235.645755-4.6693044 1.986918-7.6993395 4.023529-9.0901961l12.443138-1.2666667c2.135958-.447061 4.172539-.6705882 6.109804-.6705882 3.874529 0 6.159473.9686177 6.854901 2.9058823.298041.7947753.447059 1.688884.447059 2.682353 0 2.1359584-.794763 3.8745031-2.384313 5.2156863-1.589551 1.3411831-3.799986 2.0117647-6.631373 2.0117647-.695428 0-1.241828-.0248364-1.639216-.0745098-.347714.7451017-.546405 1.9372467-.596078 3.5764705-.099347 2.086285-.173856 3.2784299-.223529 3.5764706.14902.6954283.670583 1.1424827 1.564705 1.3411765 1.44053-1.1424894 3.253584-1.7137255 5.439216-1.7137255 2.533346 0 4.644436 1.1673086 6.333333 3.5019608zm10.282353-20.7137255h.07451c1.539877-2.0862849 3.899331-3.12941176 7.078432-3.12941176 3.824855 0 6.333327 1.41567216 7.52549 4.24705886.099347 1.2915097.149019 2.3346365.149019 3.1294117 0 .993469-.099345 2.9307046-.298039 5.8117647-.198694 2.8810602-.298039 4.5947685-.298039 5.1411765.198694.4470611.521566.6705882.968627.6705882.397388 0 .670588-.1986908.819608-.5960784-.049673-.0496734-.07451-.2235279-.07451-.5215686 0-2.2353053.894109-5.4640312 2.682353-9.6862745 2.135959-5.066692 4.520249-7.9725453 7.152942-8.71764709 5.613099-.34771416 9.388225 1.21697609 11.32549 4.69411769.695428 1.2418362 1.043137 2.7071811 1.043137 4.3960784 0 4.5699575-1.614363 9.3385372-4.843137 14.3058823-1.092816 1.6392239-2.707179 4.0980229-4.843138 7.3764706.695429 1.1424894 1.91241 3.2287431 3.650981 6.2588236 3.328121 6.0104875 4.992157 10.7293946 4.992157 14.1568627 0 2.6326929-.745091 4.9424737-2.235294 6.9294118-1.092816 1.4902035-2.955543 2.3594759-5.588236 2.6078431-2.384325.2483673-5.240506-2.4091225-8.568627-7.972549-2.433999-4.0235495-4.048362-7.3764572-4.843137-10.0588235-.198694-.1986938-.695421-.422221-1.490196-.6705883l-.521569.5215687c.546408 3.1791008.819608 5.6875725.819608 7.5254901 0 3.1791009-.596073 5.6875726-1.788236 7.5254902-1.937264 1.4902036-4.321554 2.2352942-7.152941 2.2352942-2.334652 0-4.247051-.5712362-5.737255-1.7137255-3.526815-2.6823664-5.265359-10.4313085-5.215686-23.2470589 0-7.0039565.533982-13.7718627 1.601961-20.3039215s2.272542-10.1705845 3.613725-10.9156863zm102.152942 19.745098c-1.192163 4.8183248-3.228744 8.9784139-6.109804 12.4803922-2.881061 3.5019783-6.382986 5.9235227-10.505883 7.2647059l.14902.8196078c.447061 0 1.788224-.0620909 4.023529-.1862745 2.235306-.1241836 3.725487-.1862745 4.470589-.1862745 2.781713 0 4.743785.3477089 5.886274 1.0431373 2.185632 1.3411831 3.278431 3.5764549 3.278431 6.7058823 0 2.1359584-.645745 3.7503213-1.937255 4.8431373-2.384325 1.986938-5.563378 3.2287557-9.537254 3.7254902-1.986938.2483672-5.240501.372549-9.760785.372549-4.47061-.6457549-7.873191-1.6640453-10.207843-3.054902-2.135958-1.2915097-3.675812-3.1293998-4.619608-5.5137255-.794775-2.0862849-1.216993-4.0235204-1.266666-5.8117647-.049674-2.7320398 1.266653-6.755529 3.949019-12.0705882 1.44053-2.8810602 4.247038-5.9856043 8.419608-9.3137255 3.775182-3.0300805 5.712418-4.545098 5.811765-4.545098l-.745098-.3725491c-2.58302 1.6888974-5.737237 2.5333334-9.462745 2.5333334-1.192163 0-2.135945-.1241818-2.831373-.372549-2.930734-.9934691-4.718951-2.9803773-5.364706-5.9607844-.14902-3.0300805.695416-5.5633885 2.533334-7.6 4.172569-4.5699574 9.264022-6.8549019 15.274509-6.8549019 2.135959 0 4.17254.2731999 6.109804.8196078 3.725509 1.0431425 6.85489 3.7751413 9.388236 8.1960785 2.185631 3.8248557 3.253595 7.5254723 3.203921 11.1019607 0 .6954284-.049673 1.3411735-.149019 1.9372549z"/><filter id="b" width="111.7%" height="147.3%" x="-5.8%" y="-22%"><feMorphology in="SourceAlpha" operator="dilate" radius="3.5" result="shadowSpreadOuter1"/><feOffset dx="0" dy="1" in="shadowSpreadOuter1" result="shadowOffsetOuter1"/><feGaussianBlur in="shadowOffsetOuter1" result="shadowBlurOuter1" stdDeviation="3.5"/><feComposite in="shadowBlurOuter1" in2="SourceAlpha" operator="out" result="shadowBlurOuter1"/><feColorMatrix in="shadowBlurOuter1" type="matrix" values="0 0 0 0 0.00784313725 0 0 0 0 0.0117647059 0 0 0 0 0.0196078431 0 0 0 0.18321132 0"/></filter></defs><g fill="none"><use fill="#000" filter="url(#b)" xlink:href="#a"/><use fill="#fff" stroke="#d6a758" stroke-width="7" xlink:href="#a"/></g></svg>