<svg xmlns="http://www.w3.org/2000/svg" xmlns:xlink="http://www.w3.org/1999/xlink" viewBox="0 0 85.12 177.87"><defs><filter id="flag-shadow" width="150" height="150" name="flag-shadow"><feOffset dy="1" in="SourceAlpha" result="offOut"/><feGaussianBlur in="offOut" result="blurOut" stdDeviation="2"/><feComponentTransfer><feFuncA slope=".2" type="linear"/></feComponentTransfer><feMerge><feMergeNode/><feMergeNode in="SourceGraphic"/></feMerge></filter></defs><title>Brave Flag</title><g style="filter:url(#flag-shadow)"><path d="M21.22,70.68c2.71-9.85.78-36.76-7.48-41.54s1.41-14.85,19.69-13.06,16,1.79,26.87,1.79q10.86,0,17.37-1.79L82,29.14l-4.37,6.75h7.67q8.13,31.58,4.06,34.79C85.34,73.9,18.51,80.53,21.22,70.68Z" transform="translate(-6.2 -12.37)" style="fill:#163150;fill-rule:evenodd"/><path d="M42,76.41c-8.26,0-16.66-.59-19.92-2.75a2.71,2.71,0,0,1-1.43-3.12c1.35-4.92,1.5-14.15.36-22.46-1.34-9.72-4.1-16.45-7.58-18.46-2.68-1.55-3.79-3.8-3-6.17C12,18.6,21.05,14.31,33.49,15.53l7.82.78a126.85,126.85,0,0,0,19,1c7.15,0,13-.6,17.23-1.77l.5-.14,4.61,13.81-4,6.12h7.08l.1.41c7.37,28.61,5.74,33.89,3.88,35.36-2.2,1.74-18.2,3.81-31.76,4.72C54.2,76.09,48.16,76.41,42,76.41ZM21.22,70.68l.53.15c-.13.46-.17,1.16,1,1.92,8.86,5.86,63.12,0,66.33-2.5,1.72-1.36,2.38-8.34-4.15-33.81H76.66l4.77-7.37L77.32,16.74a70.25,70.25,0,0,1-17,1.68,127,127,0,0,1-19.1-1l-7.82-.77C20.28,15.34,12.7,20,11.49,23.79c-.59,1.86.3,3.59,2.53,4.88,5.17,3,7.31,13.35,8.12,19.26,1.16,8.44,1,17.85-.39,22.9Z" transform="translate(-6.2 -12.37)" style="fill:#163150"/><path d="M31.15,190.23a3.49,3.49,0,0,1-3.49-3.31c-.31-3.71-13-115.64-14.59-128-.91-6.87-2.86-21.2-5.78-42.59a3.5,3.5,0,0,1,6.94-.95C17.15,36.79,19.09,51.13,20,58c1.37,10.34,14.64,127,14.64,128.72A3.49,3.49,0,0,1,31.15,190.23Z" transform="translate(-6.2 -12.37)" style="fill:#163150"/><path d="M31.15,188.73a2,2,0,0,1-2-1.91c-.23-2.95-13-116.08-14.61-128.08-.91-6.88-2.85-21.21-5.77-42.6a2,2,0,1,1,4-.54c2.92,21.4,4.87,35.73,5.78,42.61,1.37,10.32,14.63,126.84,14.63,128.52A2,2,0,0,1,31.15,188.73Z" transform="translate(-6.2 -12.37)" style="fill:#9f6634"/><path d="M10.24,23.16a8.85,8.85,0,0,1-3-.55,1.5,1.5,0,1,1,1-2.82,6.14,6.14,0,0,0,6-1.13A1.5,1.5,0,0,1,16,21.08,9.72,9.72,0,0,1,10.24,23.16Z" transform="translate(-6.2 -12.37)" style="fill:#163150"/><path d="M17.29,75.16a8.89,8.89,0,0,1-3-.55,1.5,1.5,0,1,1,1-2.82,6.14,6.14,0,0,0,6-1.13,1.5,1.5,0,1,1,1.78,2.42A9.72,9.72,0,0,1,17.29,75.16Z" transform="translate(-6.2 -12.37)" style="fill:#163150"/><path d="M67.19,32.7l.7-2.58s-1.43-1.2-3.18-2.56-4.92,0-4.92,0l-4.26-3.75L49,24.57l-6.6.81-3.22,4.69s-3.39-.5-4.76,1.24-2.47,3.26-2.47,3.26l1.31,2.33-.82,3.78s5.5,13.7,6.14,15.39c1.3,3.29,2,4.54,4.73,6s7.5,3.87,8.3,4.23a5.83,5.83,0,0,0,2.62.92c.82-.1,1.63-1,2.32-1.53s4.78-4.1,7-6.11,2.68-3.42,3.14-7c.24-1.8,2.23-16.42,2.23-16.42Z" transform="translate(-6.2 -12.37)" style="fill:#ff2000"/><path d="M59.08,30.35s5.52,5.2,5.67,6.46-.42,1.62-1,2.35S60.93,43,60.65,43.42a1.64,1.64,0,0,0-.42,2c.55.92,1.32,2.11.79,3.48s-1.59,2.36-2.35,2.29a13.27,13.27,0,0,1-3.37-1.09c-.7-.34-3-1.77-3-2.42s1.93-2.07,2.29-2.38,2-1.56,2-2,0-.52-.71-1.46-1.78-2.14-1.72-3,1.52-1.54,2.58-2.09S59.77,35.15,60,35s.17-.25-.66-.24a15.31,15.31,0,0,0-4.1.4,14.23,14.23,0,0,0-2.81,1.3c-.1.24-.23.26,0,1s1.47,4.48,1.62,5.15.36,1.1-.36,1.36a18.57,18.57,0,0,1-2.32.74A19.84,19.84,0,0,1,49,44.59c-.73-.07-.66-.54-.68-1.23s.27-4.56.33-5.39-.07-.81-.26-1a14.27,14.27,0,0,0-3-.58,14.75,14.75,0,0,0-4.08.6c-.8.17-.85.3-.58.4s2.49.62,3.64.9,2.74.55,3,1.4S46.78,42,46.35,43s-.42,1.16-.33,1.58,2,1.2,2.42,1.41,2.7,1.11,2.78,1.76-1.76,2.58-2.36,3.08a14.28,14.28,0,0,1-3,1.88c-.73.22-2-.48-2.84-1.66s-.37-2.51-.08-3.56-.47-1.49-.88-1.83-3.29-2.85-4-3.39-1.32-.82-1.47-2.05,3.94-7.64,3.94-7.64,4.16.28,4.71.21A14.14,14.14,0,0,0,48,31.68a6.7,6.7,0,0,1,1.78-.58,6.54,6.54,0,0,1,1.86.13,14.8,14.8,0,0,0,2.93.46C55.11,31.62,59.08,30.35,59.08,30.35Zm-.89,22.59c.32.16.2.53-.07.73s-3.57,3.49-3.85,3.85-.78.92-1.14,1-.94-.41-1.33-.65S47.41,55.18,47.13,55s-.52-.49-.25-.69,1.16-.8,2.34-1.63a14.05,14.05,0,0,1,3-1.62,14.18,14.18,0,0,1,3.31.84C56.88,52.45,57.85,52.82,58.19,52.94Z" transform="translate(-6.2 -12.37)" style="fill:#fff"/><path d="M59.79,27.54l-4.26-3.78L49,24.57l-6.6.81-3.22,4.69s-3.39-.5-4.76,1.24c0,0,4.34-.92,6.13,1.32,0,0,4.16.27,4.71.21A15.31,15.31,0,0,0,48,31.68a6.7,6.7,0,0,1,1.78-.58,6.54,6.54,0,0,1,1.86.13,15.67,15.67,0,0,0,2.93.47c.55-.07,4.52-1.35,4.52-1.35,1.19-2.61,5.63-2.76,5.63-2.76-1.72-1.36-4.89-.05-4.89-.05" transform="translate(-6.2 -12.37)" style="fill:#ff4328"/></g></svg>