<svg id="Layer_1" data-name="Layer 1" xmlns="http://www.w3.org/2000/svg" viewBox="0 0 300 300"><title>items</title><g id="item__3-1"><g id="coat"><g id="Group-139-Copy"><g id="Path-310"><path d="M183.49,67.17,115.8,66.9q.45,127.07,11.6,156.72c15.72-6.19,34.12-4.87,46.23,0Q185.74,228.5,183.49,67.17Z" style="fill:#163150;fill-rule:evenodd"/><path d="M126.73,225.14l-.42-1.11c-7.45-19.81-11.37-72.68-11.67-157.12V65.73l70,.27,0,1.15c1.87,134.35-4,154.08-8.64,157.23a2.84,2.84,0,0,1-2.82.32c-11.17-4.49-29.53-6.23-45.37,0Zm23.57-6.88a65.49,65.49,0,0,1,23.77,4.28.6.6,0,0,0,.63-.08c4.41-3,9.31-32.25,7.64-154.13L117,68.07c.33,82,4.07,133.75,11.13,154A64,64,0,0,1,150.3,218.26Z" style="fill:#163150"/></g><g id="Rectangle"><path d="M236.94,148.86l-7.71,18.41c-5.4-4-9.4-6-12.15-6-2.53,0-5.45,1.34-8.82,4l-1.48-16.37Z" style="fill:#ffd166;fill-rule:evenodd"/><path d="M229.74,169.09l-1.2-.88c-5.19-3.83-9-5.77-11.46-5.77-2.21,0-4.94,1.25-8.11,3.71l-1.68,1.32L205.5,147.7h33.2Zm-12.66-9c2.8,0,6.52,1.7,11.65,5.35L235.19,150H208.06l1.17,13C212.16,161.08,214.74,160.11,217.08,160.11Z" style="fill:#163150"/></g><g id="Path-297"><path d="M234.9,147.69q-2.85-42.07-6.05-51c-3.19-8.93-9.15-18.68-17.32-23.33a52.62,52.62,0,0,0-26-6.45Q174,113.07,172.07,131.76c-4,38.62.91,82.63-2.47,95.1,10.47,7.83,49.17,9.2,46.81-1.16,2.41,0,11.4-6.85,12.44-8.7,0-4.22-10.57-23.6-11.57-28.14q-5.76-12.39-13.85-41.17Z" style="fill:#2a455f;fill-rule:evenodd"/><path d="M197.88,234.27c-10.94,0-23.48-2.36-29-6.47l-.63-.47.21-.77c1.54-5.68,1.31-18.24,1-34.15-.32-17.89-.71-40.16,1.4-60.76,1.28-12.47,5.82-34.35,13.5-65l.22-.88h.91a53.76,53.76,0,0,1,26.56,6.6c10.52,6,16,18.74,17.85,24,2.19,6.12,4.19,22.91,6.12,51.33l.08,1.24H205c5.18,18.27,9.68,31.56,13.37,39.51l.08.24c.4,1.82,2.7,6.72,4.92,11.46,4,8.61,6.68,14.45,6.68,16.93v.3l-.15.27c-1,1.75-8.38,7.7-12.19,9,0,1.39-.6,3-2.79,4.46C211.52,233.26,205,234.27,197.88,234.27Zm-26.95-7.9c8.86,5.76,35.26,7.57,42.69,2.74,1.85-1.21,1.83-2.37,1.66-3.15l-.33-1.42h1.46c1.68,0,9.71-5.86,11.25-7.87-.3-2.5-3.69-9.74-6.44-15.61-2.43-5.19-4.53-9.68-5.05-11.82-3.83-8.29-8.5-22.16-13.87-41.23l-.41-1.48h31.76c-1.86-27.08-3.85-43.71-5.9-49.45-3.7-10.35-10-18.84-16.8-22.71a51,51,0,0,0-24.5-6.29c-7.52,30.1-12,51.57-13.22,63.8-2.1,20.47-1.7,42.66-1.39,60.49C172.12,207.77,172.34,220.08,170.93,226.37Z" style="fill:#163150"/></g><g id="Group-138"><g id="Oval"><circle cx="180.34" cy="144.19" r="3.5" style="fill:#ffd166"/><path d="M180.34,148.86a4.67,4.67,0,1,1,4.67-4.67A4.67,4.67,0,0,1,180.34,148.86Zm0-7a2.34,2.34,0,1,0,2.34,2.33A2.34,2.34,0,0,0,180.34,141.86Z" style="fill:#163150"/></g><g id="Oval-Copy-63"><circle cx="180.34" cy="158.2" r="3.5" style="fill:#ffd166"/><path d="M180.34,162.87A4.67,4.67,0,1,1,185,158.2,4.67,4.67,0,0,1,180.34,162.87Zm0-7a2.33,2.33,0,1,0,2.34,2.33A2.33,2.33,0,0,0,180.34,155.87Z" style="fill:#163150"/></g><g id="Oval-Copy-64"><circle cx="180.34" cy="171.04" r="3.5" style="fill:#ffd166"/><path d="M180.34,175.71A4.67,4.67,0,1,1,185,171,4.67,4.67,0,0,1,180.34,175.71Zm0-7a2.34,2.34,0,1,0,2.34,2.34A2.34,2.34,0,0,0,180.34,168.7Z" style="fill:#163150"/></g></g><g id="Path-299"><path d="M172.25,134.63a1.13,1.13,0,0,1-.48-.11,1.16,1.16,0,0,1-.69-1.15A186.64,186.64,0,0,1,174.59,112c1.08-5.31,2.2-10.8,3-16.19,1.25-8.53,3-18.26,5.08-28.91v0a1.16,1.16,0,0,1,1.17-1.16h12.3a1.19,1.19,0,0,1,.84.35c1.16,1.2,3.1,2,5.16,2.93,3.87,1.66,8.69,3.74,10.39,9.43a1.17,1.17,0,0,1-1,1.5l-5.77.37c-7.37.48-9.66.62-14.2,1.11a115.91,115.91,0,0,0,14.77,15,1.16,1.16,0,0,1,.13,1.65c-11.68,13.49-27.71,30.33-33,35.86l-.33.34A1.15,1.15,0,0,1,172.25,134.63ZM184.8,68.07c-2.05,10.34-3.7,19.79-4.92,28.09-.79,5.46-1.91,11-3,16.33-1.26,6.2-2.46,12.12-3.13,17.7,6.42-6.76,19.79-20.92,30.1-32.77a121.86,121.86,0,0,1-15-15.44l-.61-.72a1.17,1.17,0,0,1,.76-1.92c6.22-.69,8-.8,16.5-1.35l4.2-.27c-1.69-3.61-5.17-5.11-8.55-6.56a19.75,19.75,0,0,1-5.54-3.09Z" style="fill:#163150"/></g><g id="Path-300"><path d="M216.09,226.7a1.16,1.16,0,0,1-1.15-1L212,207.4a1.16,1.16,0,1,1,2.3-.37l2.92,18.32a1.17,1.17,0,0,1-1,1.34Z" style="fill:#163150"/></g><g id="Path-302"><polygon points="206.02 171.8 193.57 162.87 193.57 171.8 205.63 180.7 206.02 171.8" style="fill:#163150;fill-rule:evenodd"/></g></g><g id="Group-139"><path d="M63,149.13,69.71,168c4.23-3.06,7.63-4.61,10.3-4.61s5.89,1.48,9.93,4.4l3.17-18.62Z" style="fill:#ffd166;fill-rule:evenodd"/><path d="M69.14,169.81,61.3,148H94.5L90.78,169.8l-1.52-1.1c-3.84-2.78-7-4.18-9.25-4.18s-5.59,1.47-9.62,4.38Zm-4.52-19.52,5.67,15.83c3.91-2.65,7.1-3.94,9.72-3.94s5.48,1.17,9.09,3.57l2.63-15.46Z" style="fill:#163150"/><path d="M65.1,148Q68,105.89,71.15,97C74.34,88,80.3,78.26,88.47,73.61a52.61,52.61,0,0,1,26-6.44Q126,113.32,127.93,132c4,38.62,0,82.28,3.4,94.75-10.48,7.83-49.18,9.19-46.81-1.16-2.41,0-12.33-3.28-13.37-5.13C72.54,216.88,81,197.9,82,193.36c2.65-5.59,8.5-19.46,8.78-23.53q.33-4.68,5.8-21.87Z" style="fill:#2a455f;fill-rule:evenodd"/><path d="M103.05,234.18c-7.16,0-13.64-1-17-3.2-2.12-1.38-2.75-3-2.78-4.34-3.7-.65-11.89-3.41-13.12-5.58l-.27-.48.2-.51c.4-1,1.38-3.33,2.59-6.19,3-7,7.51-17.63,8.2-20.77l.09-.25c2.88-6.09,8.4-19.39,8.67-23.11.22-3.1,2-9.85,5.37-20.63H63.85l.08-1.24c1.93-28.42,3.93-45.21,6.12-51.33,1.86-5.21,7.33-18,17.85-24A53.73,53.73,0,0,1,114.46,66h.91l.22.88c7.68,30.69,12.22,52.56,13.5,65,2.08,20.25,2,42.09,1.91,59.65-.07,16.27-.12,29.11,1.45,34.91l.21.77-.63.47C126.53,231.82,114,234.18,103.05,234.18ZM72.5,220.25c1.9,1.47,9.9,4.2,12,4.2H86l-.33,1.43c-.17.77-.19,1.94,1.66,3.14,7.43,4.83,33.83,3,42.69-2.74-1.45-6.39-1.4-19-1.33-34.73.07-17.5.16-39.28-1.9-59.4-1.26-12.24-5.7-33.7-13.22-63.81a51.15,51.15,0,0,0-24.5,6.29C82.23,78.51,76,87,72.25,97.34c-2,5.74-4,22.38-5.9,49.45H98.17l-.48,1.52c-3.61,11.32-5.54,18.59-5.75,21.6-.33,4.57-6.62,19.13-8.84,23.84-.82,3.48-5.14,13.62-8.3,21.05C73.81,217.12,73,219.06,72.5,220.25Z" style="fill:#163150"/><g id="Path-298"><path d="M98.13,106.85l6,44.08q-11,20.74-12.7,20.11T94,147.17Z" style="fill:#163150;fill-rule:evenodd"/></g><g id="Path-298-Copy-2"><path d="M202.71,106.85l-6,44.08q9.73,17.65,11.6,18.9,1.74-.65-1.42-22.66Z" style="fill:#163150;fill-rule:evenodd"/></g><g id="Path-298-Copy"><polygon points="202.52 106.85 202.04 146.69 206.67 147.17 202.52 106.85" style="fill:#163150;fill-rule:evenodd"/></g><circle cx="119.66" cy="144.46" r="3.5" style="fill:#ffd166"/><path d="M119.66,149.12a4.67,4.67,0,1,1,4.66-4.66A4.67,4.67,0,0,1,119.66,149.12Zm0-7a2.34,2.34,0,1,0,2.33,2.34A2.34,2.34,0,0,0,119.66,142.12Z" style="fill:#163150"/><g id="Oval-Copy-65"><circle cx="68.3" cy="157.03" r="3.5" style="fill:#fbb444"/><path d="M68.3,161.7A4.67,4.67,0,1,1,73,157,4.67,4.67,0,0,1,68.3,161.7Zm0-7A2.34,2.34,0,1,0,70.64,157,2.33,2.33,0,0,0,68.3,154.7Z" style="fill:#163150"/></g><g id="Oval-Copy-66"><circle cx="231.7" cy="157.03" r="3.5" style="fill:#fbb444"/><path d="M231.7,161.7a4.67,4.67,0,1,1,4.66-4.67A4.67,4.67,0,0,1,231.7,161.7Zm0-7A2.34,2.34,0,1,0,234,157,2.33,2.33,0,0,0,231.7,154.7Z" style="fill:#163150"/></g><circle cx="119.66" cy="158.46" r="3.5" style="fill:#ffd166"/><path d="M119.66,163.13a4.67,4.67,0,1,1,4.66-4.67A4.68,4.68,0,0,1,119.66,163.13Zm0-7a2.34,2.34,0,1,0,2.33,2.33A2.33,2.33,0,0,0,119.66,156.13Z" style="fill:#163150"/><circle cx="119.66" cy="171.3" r="3.5" style="fill:#ffd166"/><path d="M119.66,176a4.67,4.67,0,1,1,4.66-4.67A4.68,4.68,0,0,1,119.66,176Zm0-7A2.33,2.33,0,1,0,122,171.3,2.33,2.33,0,0,0,119.66,169Z" style="fill:#163150"/><path d="M127.75,134.89a1.14,1.14,0,0,1-.84-.36l-.44-.46c-5.25-5.52-21.25-22.34-32.86-35.75a1.18,1.18,0,0,1-.28-.85,1.2,1.2,0,0,1,.41-.8,115.91,115.91,0,0,0,14.77-15c-4.53-.48-6.81-.63-14.15-1.1l-5.82-.38a1.17,1.17,0,0,1-1.05-1.5c1.7-5.69,6.52-7.77,10.4-9.43,2-.89,4-1.72,5.15-2.92a1.16,1.16,0,0,1,.84-.36h12.3a1.17,1.17,0,0,1,1.17,1.17h0c2.12,10.66,3.83,20.38,5.08,28.91.78,5.39,1.9,10.88,3,16.19a187,187,0,0,1,3.51,21.35,1.17,1.17,0,0,1-.69,1.16A1.12,1.12,0,0,1,127.75,134.89ZM96.14,97.68c10.31,11.84,23.74,26.06,30.11,32.77-.67-5.57-1.87-11.49-3.13-17.7-1.09-5.34-2.21-10.86-3-16.32-1.22-8.31-2.87-17.75-4.92-28.1H104.35a19.47,19.47,0,0,1-5.54,3.09c-3.38,1.45-6.86,3-8.55,6.56l4.25.28c8.48.55,10.24.66,16.45,1.35a1.13,1.13,0,0,1,1,.73,1.15,1.15,0,0,1-.19,1.18l-.61.72A121.32,121.32,0,0,1,96.14,97.68Z" style="fill:#163150"/><path d="M84.64,226.7H84.5a1.15,1.15,0,0,1-1-1.3l2.33-18.32a1.17,1.17,0,0,1,2.32.29L85.8,225.68A1.17,1.17,0,0,1,84.64,226.7Z" style="fill:#163150"/><polygon points="93.98 172.06 106.43 163.13 106.43 172.06 94.37 180.97 93.98 172.06" style="fill:#163150;fill-rule:evenodd"/></g></g></g></svg>