<svg xmlns="http://www.w3.org/2000/svg" xmlns:xlink="http://www.w3.org/1999/xlink" id="brave_logo" data-name="Brave Logo" viewBox="0 0 429.52 131.9"><defs><linearGradient id="linear-gradient" x1="277.56" x2="278.56" y1="288.79" y2="288.79" gradientTransform="matrix(112.31, 0, 0, -131.86, -31172.61, 38145.4)" gradientUnits="userSpaceOnUse"><stop offset="0" stop-color="#f50"/><stop offset=".41" stop-color="#f50"/><stop offset=".58" stop-color="#ff2000"/><stop offset="1" stop-color="#ff2000"/></linearGradient><linearGradient id="linear-gradient-2" x1="277.03" x2="278.01" y1="285.54" y2="285.54" gradientTransform="matrix(93.22, 0, 0, -23.76, -25812.48, 6796.37)" gradientUnits="userSpaceOnUse"><stop offset="0" stop-color="#ff452a"/><stop offset="1" stop-color="#ff2000"/></linearGradient></defs><title>Brave Logo</title><g id="Group-4"><path id="Shape" d="M143.2,71.5V26.2h4.3a6.47,6.47,0,0,1,6.5,6.4V52.8c7-6.2,12.9-8.7,20.8-8.8,15.1-.3,28.2,10.9,29.5,26,1.5,18-11.6,31.5-28.7,31.5C156.8,101.4,143.2,89.8,143.2,71.5Zm10.6,3.6c1.1,9.4,10,17.1,19.5,17.3,12.3.2,20.7-7.8,20.7-19.7S185.7,53,173.8,53C161,53,152.3,62.2,153.8,75.1Z" transform="translate(-0.38)" style="fill:#434351"/><path id="Shape-2" d="M222.1,45v8.1c6.8-7.5,10.8-9.5,18.7-9.5a40.2,40.2,0,0,1,6.9.6V54.9a26.42,26.42,0,0,0-7.4-1,19.64,19.64,0,0,0-14.1,5.4c-3.1,3.1-4,5.5-4,10.4V99.6H211V45Z" data-name="Shape" transform="translate(-0.38)" style="fill:#434351"/><path id="Shape-3" d="M250.3,63.1c.6-5.3,1.6-8.2,3.9-10.9,4.6-5.6,12.8-8.5,24.5-8.5,9.3,0,16,1.4,20.7,4.5,3.9,2.5,5.5,6.3,5.5,12.9V85.3c0,5.3,1.4,7.2,5.2,7.1a21.05,21.05,0,0,0,2.5-.2v7.3a19.48,19.48,0,0,1-5.8.9c-7,0-10.2-2.1-12.4-8.2-6.9,6.3-14,9-24.2,9-13.6,0-22-6.2-22-16.3a14.3,14.3,0,0,1,8.6-13.3c4.1-1.8,6.6-2.3,18.4-3.5,10.1-1,11.8-1.2,14.7-2.1,3.1-1,4.5-2.7,4.5-5.4,0-5.9-4.9-8.5-15.2-8.5-9.7,0-14.8,1.9-16.8,6.9a6.61,6.61,0,0,1-6.1,4.2Zm44.1,9.3a106.4,106.4,0,0,1-21.7,4c-10,1-13.1,2.9-13.1,7.8,0,5.5,4.6,8.4,13.6,8.4,7.4,0,13.1-1.9,17.1-5.5,3.2-3,4-5.1,4-10.3l.1-4.4Z" data-name="Shape" transform="translate(-0.38)" style="fill:#434351"/><path id="Shape-4" d="M339.5,99.5h-2.9a6.51,6.51,0,0,1-5.9-3.7L306.7,45h6.7a9.75,9.75,0,0,1,9,5.8l16,36.5L355,50.7a9.82,9.82,0,0,1,9-5.7h6.1L345.5,95.9A6.5,6.5,0,0,1,339.5,99.5Z" data-name="Shape" transform="translate(-0.38)" style="fill:#434351"/><path id="Shape-5" d="M377.6,75.5c1.1,10.5,9.4,17,21.6,17,7,0,12.2-2.1,15.4-6.2a9.91,9.91,0,0,1,7.8-3.7h6.5c-5.7,12.3-15.7,18.4-30.7,18.4-18.7,0-31.4-11.4-31.4-28.4s12.9-29,31.6-29c13.5,0,24.4,6.1,28.8,16.3,1.9,4.7,2.7,8.8,2.7,15.6Zm41-8.5c-2.5-9.6-10-15-20.3-15s-17.8,5.4-20.4,15Z" data-name="Shape" transform="translate(-0.38)" style="fill:#434351"/></g><g id="build-icons_Stable" data-name="build-icons/Stable"><g id="Logo"><path id="Head" d="M108.78,31.6l3.1-7.6s-3.9-4.2-8.7-9-14.9-2-14.9-2L76.78,0H36.28L24.78,13.1s-10.1-2.8-14.9,2-8.7,9-8.7,9l3.1,7.6L.38,42.9S12,86.7,13.28,92.1c2.7,10.5,4.5,14.6,12.1,20s21.3,14.6,23.6,16,5.1,3.8,7.6,3.8,5.3-2.4,7.6-3.8,16-10.7,23.6-16,9.4-9.4,12.1-20c1.4-5.4,12.9-49.2,12.9-49.2Z" transform="translate(-0.38)" style="fill:url(#linear-gradient)"/><path id="Face" d="M85.08,21.4s14.8,17.9,14.8,21.8S98,48,96.08,50,86,60.7,85,61.8s-3.2,2.8-2,5.9,3.2,6.9,1.1,10.9-5.7,6.6-8,6.1-7.8-3.3-9.8-4.6S58,73.6,58,71.6s6.6-5.6,7.8-6.4,6.7-4,6.8-5.2.1-1.6-1.6-4.7-4.6-7.2-4.1-9.9,5.2-4.1,8.6-5.4,9.9-3.7,10.7-4.1.6-.7-1.9-1-9.4-1.2-12.6-.3-8.5,2.2-9,2.9-.8.7-.4,3.2,2.8,14.2,3,16.3.7,3.5-1.6,4a56.78,56.78,0,0,1-7.3,1.4,56.78,56.78,0,0,1-7.3-1.4c-2.2-.5-1.8-1.9-1.6-4s2.5-13.8,3-16.3.1-2.5-.4-3.2-5.8-2-9-2.9-10.1,0-12.6.3-2.7.6-1.9,1,7.3,2.8,10.7,4.1,8.1,2.7,8.6,5.4-2.4,6.8-4.1,9.9-1.7,3.4-1.6,4.7,5.6,4.4,6.8,5.2,7.8,4.4,7.8,6.4-6.3,7.2-8.3,8.5-7.4,4.1-9.8,4.6-5.9-2.2-8-6.1-.2-7.8,1.1-10.9-.9-4.7-2-5.9C27,60.6,18.88,51.9,17,50s-3.7-3-3.7-6.8,14.8-21.8,14.8-21.8,12.5,2.4,14.2,2.4,5.3-1.4,8.7-2.5a20.16,20.16,0,0,1,5.6-1.1,20.16,20.16,0,0,1,5.6,1.1c3.4,1.1,7,2.5,8.7,2.5S85.08,21.4,85.08,21.4ZM74,89.9c.9.6.4,1.7-.5,2.2s-12.1,9.3-13.1,10.3-2.7,2.5-3.8,2.5-2.7-1.6-3.8-2.5-12.3-9.7-13.1-10.3-1.4-1.7-.5-2.2,3.8-2,7.7-4.1,8.9-3.8,9.7-3.8,5.7,1.7,9.7,3.8S73,89.4,74,89.9Z" transform="translate(-0.38)" style="fill:#fff"/><g id="Top-Head"><path id="path-3" d="M88.28,13.1,76.78,0H36.28L24.78,13.1s-10.1-2.8-14.9,2c0,0,13.5-1.2,18.1,6.3,0,0,12.5,2.4,14.2,2.4s5.3-1.4,8.7-2.5a20.16,20.16,0,0,1,5.6-1.1,20.16,20.16,0,0,1,5.6,1.1c3.4,1.1,7,2.5,8.7,2.5S85,21.4,85,21.4c4.6-7.5,18.1-6.3,18.1-6.3-4.7-4.8-14.8-2-14.8-2" transform="translate(-0.38)" style="fill:url(#linear-gradient-2)"/></g></g></g></svg>