<svg xmlns="http://www.w3.org/2000/svg" xmlns:xlink="http://www.w3.org/1999/xlink" width="1101" height="320" version="1.1" viewBox="0 0 1101 320"><title>ill__week--2-1</title><desc>Created with Sketch.</desc><defs><filter id="filter-1" width="122.3%" height="129.4%" x="-11.1%" y="-14.7%" filterUnits="objectBoundingBox"><feOffset dx="0" dy="5" in="SourceAlpha" result="shadowOffsetOuter1"/><feGaussianBlur in="shadowOffsetOuter1" result="shadowBlurOuter1" stdDeviation="7"/><feColorMatrix in="shadowBlurOuter1" result="shadowMatrixOuter1" type="matrix" values="0 0 0 0 0.0062833811 0 0 0 0 0.0133333518 0 0 0 0 0.0214277627 0 0 0 0.368771853 0"/><feMerge><feMergeNode in="shadowMatrixOuter1"/><feMergeNode in="SourceGraphic"/></feMerge></filter><linearGradient id="linearGradient-2" x1="50%" x2="50%" y1="138.081%" y2="-93.135%"><stop offset="0%" stop-color="#00CBFE"/><stop offset="100%" stop-color="#057A97"/></linearGradient><linearGradient id="linearGradient-3" x1="50%" x2="50%" y1="126.32%" y2="-93.135%"><stop offset="0%" stop-color="#00CBFE"/><stop offset="100%" stop-color="#057A97"/></linearGradient></defs><g id="ill__week--2-1" fill="none" fill-rule="evenodd" stroke="none" stroke-width="1"><g id="Group-3" transform="translate(1.000000, 29.000000)"><g id="Uniwhale" filter="url(#filter-1)" transform="translate(627.052802, 0.000000)"><path id="Path-63" fill="#D3E6F2" stroke="#163150" stroke-linejoin="round" stroke-width="3" d="M30.9055448,141.436962 C30.9055448,119.095254 50.8007059,61.5640321 105.044224,74.1169427 C159.287742,86.6698533 191.987745,128.587988 211.586353,137.169853 C224.652092,142.891097 243.135042,142.057764 267.035204,134.669853 C248.817912,123.22107 246.390837,109.492049 259.753979,93.4827905 C264.23577,96.918306 262.951897,102.118089 268.643699,105.406792 C274.335501,108.695494 284.130068,109.169853 284.130068,115.669853 C284.130068,122.169853 295.983934,115.669853 304.39353,115.669853 C312.803126,115.669853 321.627851,125.432794 328.493688,122.669808 C335.359525,119.906822 334.980072,129.828146 322.691618,137.169853 C310.403164,144.511561 290.963473,137.169853 284.130068,137.169853 C277.296662,137.169853 267.865461,167.035659 247.277679,186.928126 C226.689898,206.820593 190.344229,224.62644 165.241143,228.583682 C140.138056,232.540924 87.5810257,227.368076 65.2082793,209.410606 C37.0083649,221.151421 27.6182904,199.602877 30.9055448,186.928126 C34.1927993,174.253375 18.1925135,174.809212 14.0089312,161.674102 C9.82534891,148.538993 19.273441,144.046092 30.9055448,141.436962 Z" transform="translate(172.982530, 151.090648) rotate(12.000000) translate(-172.982530, -151.090648)"/><g id="Group-2" transform="translate(85.943040, 98.500000) rotate(12.000000) translate(-85.943040, -98.500000) translate(26.443040, 11.000000)"><path id="Path-113" stroke="#163150" stroke-linecap="round" stroke-width="3" d="M12.8137565,163.024171 C12.0182365,154.237218 28.6328817,136.292226 39.9158534,140.390169"/><path id="Path-66" stroke="#163150" stroke-linecap="round" stroke-linejoin="round" stroke-width="3" d="M-4.33431069e-13,135.766443 C5.24199692,133.270206 19.2444271,131.424094 32.4985865,137.424094 C45.752746,143.424094 67.2900455,149.424094 78.8287382,143.424094 C61.7621686,170.571555 28.1670894,182.76382 13.4946934,167.747078"/><path id="Path-65" stroke="#163150" stroke-linecap="round" stroke-width="3" d="M13.4946934,111.191202 C25.4566876,111.191202 33.8326871,111.120994 47.7974279,116.027816"/><circle id="Oval" cx="105.193" cy="130.424" r="13" fill="#163150"/><path id="Path-123" fill="#BFB5F2" d="M14.3503272,160.961162 C14.3503272,163.164956 13.8412699,165.52178 14.9417158,167.35574 C15.5527316,168.374036 17.1184968,169.060785 18.4488628,169.877153 C22.1752317,172.163805 34.0664297,175.483375 46.4689025,169.877153 C53.0270515,166.912708 60.8673837,162.084606 66.3370134,157.142784 C71.2112983,152.738857 74.0527992,148.098583 74.76642,146.883496 C76.2808231,144.304909 64.2994493,148.579893 54.4366142,146.001307 C44.573779,143.42272 38.648004,141.327442 36.213886,141.327442 C33.779768,141.327442 27.5711059,143.595968 24.0335906,146.883496 C20.4960752,150.171023 14.3503272,157.533726 14.3503272,160.961162 Z"/><circle id="Oval" cx="97.193" cy="125.424" r="5" fill="#D3E6F2"/><path id="Path-64" fill="#78E1F2" stroke="#163150" stroke-linejoin="round" stroke-width="3" d="M44.5084865,74.3246319 C35.0283527,58.0270881 21.2705254,33.2522108 3.23500448,-2.13162821e-14 L61.5084865,56.424094 C63.0723521,67.1962851 57.4056854,73.1631311 44.5084865,74.3246319 Z"/><path id="Path-125-Copy" stroke="#163150" stroke-linecap="round" stroke-width="3" d="M44.1926886,72.7607619 C50.3537231,68.8648689 55.1036453,57.7433041 53.855031,50.789516 C53.7711331,50.3222713 53.6554261,49.8664852 53.5049455,49.424094"/><path id="Path-125-Copy-2" stroke="#163150" stroke-linecap="round" stroke-width="3" d="M38.1926886,61.3314974 C41.4688987,55.9100904 47.1653559,46.6523719 44.7753418,40.3314974"/><path id="Path-125-Copy-3" stroke="#163150" stroke-linecap="round" stroke-width="3" d="M30.1926886,47.7122514 C33.4688987,43.884251 37.5311938,36.6725698 36.1926886,31.7122514"/><path id="Path-125-Copy-4" stroke="#163150" stroke-linecap="round" stroke-width="3" d="M21.5685713,32.6236097 C24.4543321,29.6125679 26.0447984,23.7310352 25.1628186,21.5657905"/></g></g><path id="Path-60-Copy-2" fill="url(#linearGradient-2)" d="M558.5,146.208801 C612.457436,109.776874 699.395663,101.693183 699.395663,169.61306 C684.13848,157.112149 653.116451,152.085683 657.013278,182.759807 C660.910104,213.433931 722.585791,203.884987 765.585791,186.964346 C808.585791,170.043706 803.817277,225.133654 902.585791,200.959759 C968.431467,184.843829 1034.06954,195.035781 1099.5,231.535616 C1010.45613,237.478653 931.789459,240.184294 863.5,239.652536 C795.210541,239.120778 693.377208,235.009617 558,227.319052 C558.387239,187.496938 558.553905,160.460188 558.5,146.208801 Z" transform="translate(828.750000, 179.141878) scale(-1, 1) translate(-828.750000, -179.141878)"/><path id="Path-60-Copy-3" fill="url(#linearGradient-3)" d="M359.47635,187.851889 C413.433786,151.419962 500.372013,143.336271 500.372013,211.256148 C485.11483,198.755237 454.092801,193.728771 457.989628,224.402895 C461.886454,255.077019 523.562141,245.528075 566.562141,228.607434 C609.562141,211.686794 604.793627,266.776742 703.562141,242.602847 C769.407817,226.486917 835.045887,236.678869 900.47635,273.178704 L0,263.36596 C54.4830718,209.803109 121.017388,198.994535 199.602948,230.940238 C215.866239,237.551405 284.41908,248.845588 298.729665,240.928506 C303.041559,238.543025 311.992619,234.280308 309.054306,224.023037 C306.115992,213.765766 291.036682,213.765766 282.729919,216.693752 C288.97635,156.327903 352.686703,173.89905 359.47635,187.851889 Z"/><path id="Path" stroke="#163150" stroke-linecap="round" stroke-linejoin="round" stroke-width="2" d="M0,263.36596 C54.4830718,209.803109 121.017388,198.994535 199.602948,230.940238 C215.866239,237.551405 284.41908,248.845588 298.729665,240.928506 C303.041559,238.543025 311.992619,234.280308 309.054306,224.023037 C306.115992,213.765766 291.036682,213.765766 282.729919,216.693752 C288.97635,156.327903 352.686703,173.89905 359.47635,187.851889 L359.47635,187.851889 C413.433786,151.419962 500.372013,143.336271 500.372013,211.256148 C485.11483,198.755237 454.092801,193.728771 457.989628,224.402895 C461.886454,255.077019 523.562141,245.528075 566.562141,228.607434 C609.562141,211.686794 604.793627,266.776742 703.562141,242.602847 C769.407817,226.486917 835.045887,236.678869 900.47635,273.178704"/><path id="Path" stroke="#163150" stroke-linecap="round" stroke-linejoin="round" stroke-width="2" d="M558,146.208801 L558,146.208801 C611.957436,109.776874 698.895663,101.693183 698.895663,169.61306 C683.63848,157.112149 652.616451,152.085683 656.513278,182.759807 C660.410104,213.433931 722.085791,203.884987 765.085791,186.964346 C808.085791,170.043706 803.317277,225.133654 902.085791,200.959759 C967.931467,184.843829 1033.56954,195.035781 1099,231.535616" transform="translate(828.500000, 175.050664) scale(-1, 1) translate(-828.500000, -175.050664)"/><path id="Path-69" fill="#D3E6F2" stroke="#163150" stroke-linecap="round" stroke-width="3" d="M801.100443,174.50986 L844.589076,200.702358 C855.14846,206.585972 855.14846,210.861579 844.589076,213.52918 C828.75,217.530581 790.838824,217.622654 783.419412,187.064991"/></g></g></svg>