<svg xmlns="http://www.w3.org/2000/svg" xmlns:xlink="http://www.w3.org/1999/xlink" class="character" data-name="Layer 1" viewBox="0 0 387.95 499"><defs><linearGradient id="char__linear-gradient" x1="21.16" x2="22.16" y1="389.23" y2="389.23" gradientTransform="matrix(13.6, -7.23, -6.57, -12.36, 2363.42, 5269.5)" gradientUnits="userSpaceOnUse"><stop offset="0" stop-color="#c86e4c"/><stop offset="1" stop-color="#f4d57a"/></linearGradient><linearGradient id="char__linear-gradient-2" x1="11.47" x2="11.47" y1="383.78" y2="384.54" gradientTransform="matrix(3.24, -5.19, -5.19, -3.24, 2107.66, 1645.96)" gradientUnits="userSpaceOnUse"><stop offset="0" stop-color="#e7b360"/><stop offset="1" stop-color="#ffc94d"/></linearGradient><linearGradient id="char__linear-gradient-3" x1="21.74" x2="20.63" y1="397.08" y2="396.08" gradientTransform="matrix(12.26, -12.26, -12.97, -12.97, 5007.56, 5711.9)" gradientUnits="userSpaceOnUse"><stop offset="0" stop-color="#c86e4c"/><stop offset="1" stop-color="#ffd166"/></linearGradient></defs><title>Character</title><g class="character--female"><rect width="96.05" height="90.03" x="145.28" y="152.74" rx="14.99" style="fill:#ffd7af;stroke:#163150;stroke-width:2px"/><path d="M229.21,240.61c4.31-16.83,3-34.68-5.66-49.76-16.3-28.36-53.38-37.75-84.8-27.76a13.83,13.83,0,0,1,13.61-11.35h73.85A13.82,13.82,0,0,1,240,165.56v61.55A13.83,13.83,0,0,1,229.21,240.61Z" style="fill:#fdcfa1;fill-rule:evenodd"/><path d="M213.06,145q10.6-32.56,44.3-37c33.69-4.49,77.65,32.89,45.44,83.74-11.09,17.51-32.67,26.31-25.31,63.63-56.06-12.4-19.08-85.54-23-95.17s-11.41-5.82-17.16-2.75Q236.57,157.85,213.06,145Z" style="fill:#a682ff;stroke:#163150;stroke-linejoin:round;stroke-width:3px;fill-rule:evenodd"/><path d="M275.21,252.41c0,.18.07.36.1.54a56.77,56.77,0,0,1-12.57-4.55c-26.27-15.93-13-57.56-8.28-76.64,1-4,2-7.52,1.72-9.06-1.63-9.84-8.3-10.26-8.7-10.26s-9.22-6.27-26.12-18.8c0-.37,0-.75.07-1.13a49.43,49.43,0,0,1,9.09-9.12c2.78-2,5.72-4.49,10.22-5.63,24.78-12.15,67.62,29.84,21.87,81.33-10.16,11.43-7.3,41.14,12.6,53.32Z" style="fill:#a07bf9;fill-rule:evenodd"/><path d="M149,232.32c.24-19.83,5.88-28.5,5.88-21.39s8.37-2.24,10.32-12.92q1.94-10.69-4.08-27.15l-19.64,9.47Q146.86,227.43,149,232.32Z" style="fill:#fdcfa1;fill-rule:evenodd"/><path d="M232.17,140.72c13.08,6.68,21.76,20.77,23.57,40.39a40.19,40.19,0,0,1,.35,8.5,101.88,101.88,0,0,1-.78,11.81c-1.38,11.37-7.15,23.53-17.66,33.76,4.75-7.56,2.73-17.76,2.38-28.94a40.31,40.31,0,0,0-1.95-10.05q-6.06-13.33-22.64-18.86-.6,4.56,8.17,15.48-24.17,1.33-32.19-10.4a70.41,70.41,0,0,1-1.47,9.52q-19.69-1.49-28.13-18.83,9.38,20.07-4,36.14c-4-11.58-9.85-12.41-11.78-11.28,0,.65-1.79,20.54,1.48,35.26-8.79-10.79-11.22-22.29-12.35-34.21-3.44-36.32,17.86-59.3,32.94-62.31C192.54,121.19,215.72,127,232.17,140.72Z" style="fill:#a682ff;stroke:#163150;stroke-linejoin:round;stroke-width:3px;fill-rule:evenodd"/><path d="M239.93,197.19c-3.43-33.85-31.64-60.25-65.93-60.25-1.34,0-2.68,0-4,.12,23.5-14.87,45.8-9,61.58,4.48,17,9.09,27.28,31.35,22.56,59.73-1.85,11.16-3.73,16.3-12.46,27.44.93-10.86,0-15.34-.67-26.06A26,26,0,0,0,239.93,197.19Z" style="fill:#a07bf9;fill-rule:evenodd"/><path d="M145.22,177.85c-1.7,2-3.25,16-3.27,16.55-.32,10.32,1.35,20.83,3,32.84-6.66-13.23-7.33-19.93-8.29-30.44-2.93-32,14.67-52.7,28.33-57A83.94,83.94,0,0,0,145.22,177.85Z" style="fill:#a07bf9;fill-rule:evenodd"/><ellipse cx="177.25" cy="206.24" rx="4.48" ry="4.5" style="fill:#163150"/><path d="M170.05,202.31a40.9,40.9,0,0,0,5.75.59l1.38.08" style="fill:none;stroke:#163150;stroke-linecap:round;stroke-width:2.165800094604492px"/><ellipse cx="210.68" cy="206.24" rx="4.48" ry="4.5" style="fill:#163150"/><path d="M217.88,202.31a40.9,40.9,0,0,1-5.75.59l-1.38.08" style="fill:none;stroke:#163150;stroke-linecap:round;stroke-width:2.165800094604492px"/><path d="M185.88,227.24a7,7,0,1,0,14,0" style="fill:none;stroke:#163150;stroke-linecap:round;stroke-linejoin:round;stroke-width:2.165800094604492px"/><path d="M163.72,294.8c5.84-6.91,7.38-9.35,8.16-21.13" style="fill:none;stroke:#163150;stroke-linecap:round;stroke-width:2.165800094604492px"/><path d="M190.06,243H163.24q-33.45,0-36.11,39.29l24.69,10.37V344l38.24-1.51V344H237.6V292.62q8.82-3.57,25-10.37-2.92-40.91-36.44-39.29Z" style="fill:#979797;stroke:#163150;stroke-linejoin:round;stroke-width:2px;fill-rule:evenodd"/><path d="M153,293.33c0-3.66.27-21.6-1.31-22.15q-1.59-.56-4.52,20.55Q149.24,292.2,153,293.33Z" style="fill:#163150;fill-rule:evenodd"/><path d="M236.29,293.33c0-3.66-.27-21.6,1.31-22.15q1.59-.56,4.52,20.55C240.77,292,238.82,292.57,236.29,293.33Z" style="fill:#163150;fill-rule:evenodd"/><ellipse cx="195.5" cy="287.48" rx="25.92" ry="25.94" style="fill:#fff"/><path d="M195.5,278.8c1.74-1.71,3.48-3.37,5.17-5.09,1.94-2,4.11-2,6.06,0q3.32,3.39,6.61,6.8a4,4,0,0,1,.38,5.23,2.39,2.39,0,0,1-3.91.37c-1.09-1.09-2.16-2.2-3.24-3.3a3.83,3.83,0,0,0-5.82,0c-1.1,1.09-2.16,2.2-3.25,3.29-1.46,1.47-2.66,1.46-4.13,0-1-1-2.05-2.1-3.08-3.13a3.84,3.84,0,0,0-5.67-.07c-1,.93-1.89,1.91-2.8,2.9-1.41,1.54-2.58,1.93-3.76,1.2a3.84,3.84,0,0,1-1.31-4.55,5.46,5.46,0,0,1,1.1-1.66q3.32-3.48,6.69-6.9c1.92-1.95,4-1.92,6,0,1.67,1.68,3.36,3.34,5,5" style="fill:#979797;fill-rule:evenodd"/><path d="M207.21,294.86a13.45,13.45,0,0,1-1.55,2.85c-2.27,2.47-4.66,4.84-7,7.22-2.12,2.12-4.37,2.1-6.49,0q-3.51-3.52-7-7.08a4.11,4.11,0,0,1-.68-5.27,2.62,2.62,0,0,1,4.42-.51c1.13,1.13,2.23,2.29,3.37,3.42a4.18,4.18,0,0,0,6.27,0c1-1,2-2,3-3s1.87-1.8,3.34-1.25c1.17.44,2.09,2,2.39,3.65" style="fill:#979797;fill-rule:evenodd"/><path d="M195.5,363.61q-11.3,1.69-15.05,29.91H165.89q-13.38-.06-19.76-.76-4.19-7,5.92-60.1h86q11.05,53.11,6.87,60.1-6.39.69-19.79.76H209.43Q206.74,365.29,195.5,363.61Z" style="fill:#057a97;stroke:#163150;stroke-width:1.9600000381469727px;fill-rule:evenodd"/><path d="M248.41,403.38H207.64c0-10.86,9.13-19.66,20.38-19.66S248.41,392.52,248.41,403.38Z" style="fill:#2a455f;stroke:#163150;stroke-width:1.9600000381469727px;fill-rule:evenodd"/><path d="M183.39,403.38H142.62c0-10.86,9.12-19.66,20.38-19.66S183.39,392.52,183.39,403.38Z" style="fill:#2a455f;stroke:#163150;stroke-width:1.9600000381469727px;fill-rule:evenodd"/><path d="M129.8,284.55q-2.67,25.31-2.67,36.14c0,10.84,16.08,14.41,19.43,3.1q3.34-11.31,4.6-30Z" style="fill:#ffd7af;stroke:#163150;stroke-width:2px;fill-rule:evenodd"/><path d="M260,283.45q2.58,24.74,2.57,35.56c0,10.84-16.12,15.32-19.42,3.11q-3.3-12.21-4-30.18Z" style="fill:#ffd7af;stroke:#163150;stroke-width:2px;fill-rule:evenodd"/><path d="M251.13,345.62c-6.35,0-7.56-5.15-7.56-11.5s1.21-11.5,7.56-11.5a11.5,11.5,0,0,1,0,23Z" style="fill:#ffd7af;stroke:#163150;stroke-width:2px;fill-rule:evenodd"/><path d="M137.17,347.3c6.35,0,7.56-5.15,7.56-11.51s-1.21-11.5-7.56-11.5a11.51,11.51,0,0,0,0,23Z" style="fill:#ffd7af;stroke:#163150;stroke-width:2px;fill-rule:evenodd"/><path d="M240.27,292.54l.8,7.39,18.09-11.22-.37-3.24Z" style="fill:#fdcfa1;fill-rule:evenodd"/></g><g class="character--male"><path d="M134.67,199.47c0,18.38-1.21,38.78,16.78,38.78s-3.78-9-3.78-19.39V198.67Q134.68,181.09,134.67,199.47Z" style="fill:#a95130;stroke:#163150;stroke-width:2.5199999809265137px;fill-rule:evenodd"/><path d="M251,199.47c0,18.38,1.22,38.78-16.77,38.78s3.77-9,3.77-19.39V198.67Q251,181.09,251,199.47Z" style="fill:#a95130;stroke:#163150;stroke-width:2.5199999809265137px;fill-rule:evenodd"/><rect width="94.93" height="91.35" x="145.48" y="148.03" rx="19.28" style="fill:#ffd7af;stroke:#163150;stroke-width:2px"/><path d="M237,224.47a68.34,68.34,0,0,0-9.21-30.76c-18.61-32-59.26-43.58-92.72-27.33v-1.77a17.78,17.78,0,0,1,17.78-17.78h67.69a17.78,17.78,0,0,1,17.78,17.78v.06l-.19,53.61A17.85,17.85,0,0,1,237,224.47Z" style="fill:#fdcfa1;fill-rule:evenodd"/><path d="M170.57,131.8c-24.56-3.69-48.72,31.43-38.73,81.51q3.27-10.16,19.16-19.45,24.57-9.15,29.43-20.86a68.89,68.89,0,0,0,4.86-26.6q-3.61,33,5.62,41.4a77.89,77.89,0,0,0,1.37-9.65q9,17.06,31.55,15.71-8.19-11.07-9.16-20.86,19,6.47,31.1,39.32c13.41-10.73,13.41-37,8-43.61,8,4.52,4,4.59,6.85,4.59-6.85-44.59-49.57-45.19-55.29-45.19-7.38,0-2.52-3.22,3.17-8.75-2.4-.44-10.55,2.62-13.85,5.53-2.37-6,8.44-8.28,10.68-11.18C197.41,110.74,176.83,119.69,170.57,131.8Z" style="fill:#c86e4c;stroke:#163150;stroke-linejoin:round;stroke-width:2.5199999809265137px;fill-rule:evenodd"/><path d="M170.78,133.23l-.1,0c-24.88-3.91-47.31,29.56-38.06,76.2q1-72.07,37.85-75.84Z" style="fill:#b76141;fill-rule:evenodd"/><path d="M232.13,135.53c12,5.58,23.25,15.91,26.46,35a37.19,37.19,0,0,0-6.36-2.74c4.2,7.63,6,29.41-5.11,40.56a98.69,98.69,0,0,0,1.67-18.16A97.26,97.26,0,0,0,232.13,135.53Z" style="fill:#b76141;fill-rule:evenodd"/><ellipse cx="175.22" cy="202.39" rx="4.56" ry="4.53" style="fill:#163150"/><path d="M163.33,199.89a80.94,80.94,0,0,0,16.18-2.58" style="fill:none;stroke:#163150;stroke-linecap:round;stroke-width:2.784600019454956px"/><ellipse cx="211.3" cy="201.8" rx="4.56" ry="4.53" style="fill:#163150"/><path d="M204.7,196.42a81.07,81.07,0,0,0,16.3,1.67" style="fill:none;stroke:#163150;stroke-linecap:round;stroke-width:2.784600019454956px"/><path d="M185.83,223.54a7.15,7.15,0,0,0,14.3,0" style="fill:none;stroke:#163150;stroke-linecap:round;stroke-linejoin:round;stroke-width:2.784600019454956px"/><path d="M189.52,239.56H162.13q-34.15,0-36.87,40l25.21,10.57v52.3l39.05-1.54v1.54h48.54v-52.3q9-3.65,25.54-10.57-3-41.69-37.21-40Z" style="fill:#5b5b5b;stroke:#163150;stroke-linejoin:round;stroke-width:2px;fill-rule:evenodd"/><path d="M151.72,290.89c0-3.73.27-22-1.35-22.58q-1.62-.56-4.61,20.95Q147.83,289.73,151.72,290.89Z" style="fill:#163150;fill-rule:evenodd"/><path d="M236.72,290.89c0-3.73-.27-22,1.35-22.58q1.62-.56,4.61,20.95Q240.61,289.73,236.72,290.89Z" style="fill:#163150;fill-rule:evenodd"/><ellipse cx="195.07" cy="284.92" rx="26.47" ry="26.43" style="fill:#fff"/><path d="M195.07,276.08c1.78-1.74,3.56-3.44,5.28-5.19,2-2,4.2-2.05,6.19,0,2.26,2.31,4.51,4.61,6.75,6.93a4,4,0,0,1,.39,5.33,2.44,2.44,0,0,1-4,.38c-1.12-1.11-2.21-2.24-3.31-3.36a3.92,3.92,0,0,0-5.95,0c-1.12,1.11-2.21,2.25-3.31,3.36-1.49,1.5-2.72,1.49-4.23,0-1-1.06-2.08-2.13-3.14-3.18a3.91,3.91,0,0,0-5.78-.07c-1,.95-1.93,1.94-2.86,2.95-1.44,1.57-2.65,2-3.84,1.23a3.93,3.93,0,0,1-1.35-4.64,5.87,5.87,0,0,1,1.13-1.7c2.25-2.36,4.54-4.7,6.83-7,2-2,4.11-2,6.09,0,1.71,1.71,3.42,3.4,5.1,5.07" style="fill:#5b5b5b;fill-rule:evenodd"/><path d="M207,292.45a13.94,13.94,0,0,1-1.58,2.9c-2.32,2.52-4.76,4.93-7.18,7.36-2.17,2.16-4.46,2.14-6.63,0q-3.58-3.6-7.15-7.22a4.17,4.17,0,0,1-.69-5.36,2.68,2.68,0,0,1,4.51-.53c1.16,1.15,2.28,2.34,3.44,3.48a4.28,4.28,0,0,0,6.41,0c1-1,2-2,3-3s1.9-1.83,3.41-1.27c1.19.44,2.13,2,2.44,3.72" style="fill:#5b5b5b;fill-rule:evenodd"/><path d="M195.07,362.51Q183.54,364.22,179.7,393H164.83q-13.65-.06-20.18-.77-4.26-7.12,6-61.25h87.86q11.28,54.14,7,61.25-6.52.71-20.21.77H209.3Q206.56,364.23,195.07,362.51Z" style="fill:#057a97;stroke:#163150;stroke-width:2px;fill-rule:evenodd"/><path d="M249.1,403H207.47c0-11.06,9.32-20,20.81-20S249.1,392,249.1,403Z" style="fill:#2a455f;stroke:#163150;stroke-width:2.5199999809265137px;fill-rule:evenodd"/><path d="M182.7,403H141.07c0-11.06,9.32-20,20.82-20S182.7,392,182.7,403Z" style="fill:#2a455f;stroke:#163150;stroke-width:2.5199999809265137px;fill-rule:evenodd"/><path d="M128,281.94q-2.72,25.79-2.72,36.83c0,11,16.42,14.68,19.83,3.16q3.42-11.52,4.7-30.54Z" style="fill:#ffd7af;stroke:#163150;stroke-width:2px;fill-rule:evenodd"/><path d="M261,280.82q2.63,25.2,2.62,36.24c0,11.05-16.46,15.6-19.83,3.16q-3.37-12.44-4.06-30.75Z" style="fill:#ffd7af;stroke:#163150;stroke-width:2px;fill-rule:evenodd"/><path d="M251.88,344.18c-6.49,0-7.73-5.25-7.73-11.73s1.24-11.72,7.73-11.72a11.73,11.73,0,1,1,0,23.45Z" style="fill:#ffd7af;stroke:#163150;stroke-width:2px;fill-rule:evenodd"/><path d="M135.51,345.88c6.48,0,7.72-5.25,7.72-11.72s-1.24-11.72-7.72-11.72a11.72,11.72,0,1,0,0,23.44Z" style="fill:#ffd7af;stroke:#163150;stroke-width:2px;fill-rule:evenodd"/><path d="M241,290.42l.64,8.28,18.44-11.53-.37-4.29Z" style="fill:#fdcfa1;fill-rule:evenodd"/><path d="M148.31,292.26l-.75,7.36-18.95-11.09.61-4.46Z" style="fill:#fdcfa1;fill-rule:evenodd"/></g><g class="item item__2-3"><path id="Fill-4" d="M98.67,298.51c-1,.47-3.33-1.15-3.33-1.15h0s1.84,2.47,1.44,2.95h0c-.41.49-3.42.56-3.42.56h0s3.19.89,3.2,1.28h0c0,.4-4,2.28-4,2.28h0s4.5-1.27,5.46-.58h0c1,.68-.31,5.27-.31,5.27h0s1.72-4.49,2.19-4.48h0c.47,0,2.34,3.53,2.34,3.53h0s-1-4-.65-4.23h0c.39-.27,2.55.44,2.55.44h0s-1-1-.87-1.4h0c.17-.42,3.31.37,4.85.41h0c-3.93-1-4.59-2.27-4.59-2.27h0c-.1-1.07,3.72-1.12,3.72-1.12h0a19.76,19.76,0,0,1-3.69-.82h0c-.37-.33,1.58-3.89,1.58-3.89h0s-2.93,3.08-3.83,3h0c-.89-.06-1.87-4.52-1.87-4.52h0s.27,4.24-.74,4.71" style="fill-rule:evenodd;fill:url(#char__linear-gradient)"/><path d="M97.68,309.37H97.6a.24.24,0,0,1-.16-.3c.51-1.84,1-4.61.41-5s-3.56.14-5.25.62a.24.24,0,0,1-.3-.15.25.25,0,0,1,.13-.32,27.85,27.85,0,0,0,3.82-2,16.91,16.91,0,0,0-3-1.06.25.25,0,0,1-.18-.27.26.26,0,0,1,.24-.22,8.86,8.86,0,0,0,3.24-.47,7.07,7.07,0,0,0-1.45-2.64.25.25,0,0,1,.34-.35c.86.59,2.45,1.42,3.09,1.12h0c.58-.27.7-2.77.6-4.46a.24.24,0,0,1,.21-.26.25.25,0,0,1,.28.19c.5,2.28,1.26,4.29,1.64,4.32s2.44-1.71,3.63-3a.26.26,0,0,1,.33,0,.26.26,0,0,1,.07.33,15.56,15.56,0,0,0-1.6,3.6,20.56,20.56,0,0,0,3.53.75.24.24,0,0,1,.21.26.25.25,0,0,1-.25.23c-1.09,0-3,.21-3.4.68a.38.38,0,0,0-.07.11c.17.22,1.09,1.24,4.4,2.11a.24.24,0,0,1,.19.27.26.26,0,0,1-.25.22,22.46,22.46,0,0,1-2.36-.29,11.55,11.55,0,0,0-2.26-.23,2.77,2.77,0,0,0,.81,1.07.26.26,0,0,1,0,.31.26.26,0,0,1-.29.12,7,7,0,0,0-2.3-.48,17.73,17.73,0,0,0,.72,4,.23.23,0,0,1-.15.29.25.25,0,0,1-.31-.11,18.89,18.89,0,0,0-2.11-3.37,24.54,24.54,0,0,0-2,4.29A.25.25,0,0,1,97.68,309.37Zm-.73-6a2.25,2.25,0,0,1,1.19.24c.53.39.52,1.61.36,2.83.94-2.1,1.24-2.09,1.38-2.08.3,0,.86.7,1.66,2.05-.53-2.42-.23-2.63-.12-2.7.3-.22,1.13-.06,1.9.14a1.14,1.14,0,0,1-.32-1c.16-.39.78-.34,2.63-.06-1.91-.81-2.33-1.55-2.35-1.6l0-.09a.71.71,0,0,1,.19-.54,3.33,3.33,0,0,1,1.8-.68,6,6,0,0,1-1.87-.56c-.13-.1-.42-.36.76-2.75-1,.92-2.23,2-2.86,2s-1.18-1.39-1.59-2.72c-.05,1.24-.27,2.59-.9,2.89h0c-.67.31-1.75-.12-2.56-.55.58.9,1.08,1.89.75,2.29a4.23,4.23,0,0,1-2.17.56c2,.65,2,1,2,1.11s0,.41-2.15,1.52A12.81,12.81,0,0,1,97,303.4Zm-.62-1.32Zm2.34-3.57h0Z" style="fill:#163150"/><g id="path-2"><path d="M114.79,312a1,1,0,0,1-.86-.52c-1.78-3.46-7.31-6-11-7.72l-1.67-.79a1,1,0,0,1-.44-1.29,1,1,0,0,1,1.29-.45c.48.24,1,.5,1.63.77,3.9,1.81,9.79,4.54,11.88,8.6a1,1,0,0,1-.86,1.4Z" style="fill:#163150"/></g><path d="M114.79,311.59a.59.59,0,0,1-.53-.32c-1.84-3.58-7.44-6.17-11.14-7.89-.61-.28-1.18-.54-1.67-.78a.6.6,0,0,1-.27-.8.59.59,0,0,1,.79-.27l1.65.77c3.85,1.79,9.67,4.49,11.7,8.43a.6.6,0,0,1-.26.8A.66.66,0,0,1,114.79,311.59Z" style="fill:#9f6634"/><g id="Path-208"><path d="M107.17,299.92a15.61,15.61,0,0,1,5.71,1.38,33.84,33.84,0,0,1,8.92-1.1c1.06-1.21,2.85-2,5-2.69q-3.11-.54-10.19-1.9Q111.22,298.2,107.17,299.92Z" style="fill:#a682ff;fill-rule:evenodd"/><path d="M112.88,301.55a.15.15,0,0,1-.09,0,15.48,15.48,0,0,0-5.63-1.36.25.25,0,0,1-.08-.48c2.68-1.13,5.85-2.58,9.44-4.3a.16.16,0,0,1,.15,0c4.78.91,8.11,1.53,10.19,1.89a.25.25,0,0,1,.2.23.26.26,0,0,1-.17.26c-1.8.58-3.79,1.35-4.9,2.61a.26.26,0,0,1-.19.09,33.57,33.57,0,0,0-8.86,1.1Zm-4.68-1.8a16,16,0,0,1,4.7,1.29,33.83,33.83,0,0,1,8.79-1.09,10.39,10.39,0,0,1,4.12-2.37c-2.08-.37-5.09-.93-9.15-1.71C113.5,297.39,110.66,298.69,108.2,299.75Z" style="fill:#163150"/></g><g id="Path-206"><path d="M112.51,302.09a.37.37,0,0,1-.14,0,.27.27,0,0,1-.07-.35l4.13-6.23a.25.25,0,1,1,.42.28L112.72,302A.26.26,0,0,1,112.51,302.09Z" style="fill:#163150"/></g><g id="Path-207"><path d="M106.75,300.33a.23.23,0,0,1-.22-.15.25.25,0,0,1,.12-.33l9.89-4.47a.25.25,0,0,1,.33.13.26.26,0,0,1-.13.33l-9.88,4.47Z" style="fill:#163150"/></g><path d="M122.14,300.91a.28.28,0,0,1-.17-.07l-5.51-5a.26.26,0,0,1,0-.36.25.25,0,0,1,.36,0l5.51,5a.24.24,0,0,1,0,.35A.23.23,0,0,1,122.14,300.91Z" style="fill:#163150"/><path d="M127.3,297.81h0l-10.68-1.94a.25.25,0,0,1,.09-.5l10.68,1.95a.25.25,0,0,1,0,.5Z" style="fill:#163150"/><g id="Path-205"><path d="M118.34,309.7a.25.25,0,0,1-.25-.22l-1.87-15.23a.24.24,0,0,1,.22-.28.25.25,0,0,1,.28.22l1.87,15.23a.26.26,0,0,1-.22.28Z" style="fill:#163150"/></g><g id="Combined-Shape"><path d="M114.87,326.37a2.7,2.7,0,0,0,.64-2.33l-5.34-10a.28.28,0,0,1,.12-.38l9.89-5.26a.27.27,0,0,1,.37.12l5.21,9.78c.69.92,1.36,1,3,1a18.06,18.06,0,0,1,16.18,27c-3.54,1.95-13.59,7.28-16.87,9.11a18.06,18.06,0,0,1-13.2-29Z" style="fill:#2a455f;fill-rule:evenodd"/><path d="M128.13,355.61h-.08a18.3,18.3,0,0,1-13.38-29.37c.63-1,.76-1.46.59-2.13l-5.31-10a.52.52,0,0,1,.22-.71l9.89-5.26a.51.51,0,0,1,.4,0,.55.55,0,0,1,.32.26l5.2,9.78c.58.77,1.12.89,2.77.87h.48a18.31,18.31,0,0,1,15.93,27.34l0,.06-.07,0c-1.63.9-4.61,2.5-7.77,4.19-3.61,1.94-7.34,3.94-9.1,4.92Zm-7.8-47-9.93,5.25,5.33,10.08a3,3,0,0,1-.65,2.58h0A17.82,17.82,0,0,0,128,355.1c1.79-1,5.48-3,9.05-4.89,3.11-1.67,6.05-3.25,7.7-4.16a17.81,17.81,0,0,0-16-26.53c-1.71,0-2.44-.09-3.2-1.1Z" style="fill:#163150"/></g><g id="Oval-Copy-53"><path d="M132.1,348a.45.45,0,0,1-.27-.1c-3.61-3.14-3.47-10.43.27-14.74,2-2.32,5.88-4.11,8.3-3.84a2.36,2.36,0,0,1,1.94,1.18c1,3-1,5.22-2.36,6.69-.4.44-.95,1-.95,1.23a5,5,0,0,0,1.5,1,1,1,0,0,1,.52,0,.53.53,0,0,1,.33.41.47.47,0,0,1-.25.43.89.89,0,0,1-.6,0,6.35,6.35,0,0,0-2.37,2c-1.12,1.29-1.87,2.22-2.42,2.91a7,7,0,0,1-3.47,2.84A.35.35,0,0,1,132.1,348Zm7.78-17.87a11.23,11.23,0,0,0-7.15,3.58c-3.39,3.91-3.63,10.43-.55,13.37,1.42-.62,1.69-1,2.91-2.49.55-.69,1.3-1.63,2.43-2.93a10.05,10.05,0,0,1,2-1.84,7.72,7.72,0,0,1-1.07-.81.74.74,0,0,1-.28-.55c0-.53.45-1.05,1.17-1.84,1.3-1.4,3.07-3.33,2.22-5.79a1.58,1.58,0,0,0-1.28-.67A2.86,2.86,0,0,0,139.88,330.15Z" style="fill:#78e1f2"/></g><path d="M129.24,337a8,8,0,0,0,12.8-6.93,3.45,3.45,0,0,1,.6.68c2,2.57,2.29,9.09.43,13.18-3.34,1.82-12.73,6.86-15.87,8.61a15,15,0,0,1-9.43-5.42,8,8,0,0,1-.52-6.28,8.73,8.73,0,0,1,3.23-4.06,7.74,7.74,0,0,1,6.7-.83A16.78,16.78,0,0,1,129.24,337Z" style="fill:#78e1f2;fill-rule:evenodd"/><g id="Rectangle"><rect width="18.96" height="4.26" x="104.96" y="307.23" rx=".98" transform="translate(-131.84 89.94) rotate(-28)" style="fill:#2a455f"/><path d="M107.48,315.6a1.23,1.23,0,0,1-1.09-.66l-1.08-2a1.23,1.23,0,0,1,.51-1.66h0l15-8a1.17,1.17,0,0,1,.93-.09,1.18,1.18,0,0,1,.73.6l1.08,2a1.23,1.23,0,0,1-.51,1.66l-15,8A1.18,1.18,0,0,1,107.48,315.6Zm-1.43-3.91a.74.74,0,0,0-.3,1l1.08,2a.74.74,0,0,0,1,.3l15-8a.71.71,0,0,0,.35-.43.73.73,0,0,0-.05-.56l-1.08-2a.71.71,0,0,0-.43-.35.73.73,0,0,0-.56,0l-15,8Z" style="fill:#163150"/></g><g id="Oval"><circle cx="121.64" cy="326.62" r="2.66" style="fill:#78e1f2"/></g><g id="Oval-Copy-55"><circle cx="120.52" cy="317.07" r="1.82" style="fill:#78e1f2"/></g><g id="Oval-Copy-54"><circle cx="130.44" cy="327.97" r="2.38" style="fill:#78e1f2"/></g><g id="Fill-9-Copy-2" style="opacity:.6097237467765808;isolation:isolate"><path d="M122.16,344.9a1.27,1.27,0,0,1,.53-1.71,1.24,1.24,0,0,1,1.69.52,1.28,1.28,0,0,1-.53,1.71,1.24,1.24,0,0,1-1.69-.52m3,.28c-.07-.14-.24-.8-.07-.89s.61.42.69.56a.34.34,0,0,1-.17.43.33.33,0,0,1-.45-.1m-.16-1.79a1.28,1.28,0,0,1,.53-1.71,1.23,1.23,0,0,1,1.69.51,1.28,1.28,0,0,1-.53,1.72,1.24,1.24,0,0,1-1.69-.52M120.77,345a3.39,3.39,0,0,0,2.91,1.77l1,1.89.77-.41-.48-.94.48-.25.48.93.59-.32-.48-.93.48-.26.47.93.59-.31-.47-.94.48-.26.47.94.77-.42-1-1.89a3.55,3.55,0,0,0,.2-3.45,3.81,3.81,0,0,0-5.29-1.22,4,4,0,0,0-2,5.14" style="fill:#163150;fill-rule:evenodd"/></g></g><g class="item item__2-1"><polygon points="125.39 324.08 144.4 339.75 148.92 334.66 131.84 317.64 125.39 324.08" style="fill:#2a455f;fill-rule:evenodd"/><path d="M144.51,341.17l-20.64-17,8-7.95,18.48,18.41ZM126.9,324l17.39,14.33,3.22-3.64-15.67-15.62Z" style="fill:#163150"/><circle cx="151.03" cy="340.54" r="6.12" style="fill:#2a455f"/><path d="M151,347.68a7,7,0,0,1-3.76-1.09,7.16,7.16,0,0,1-2.28-9.84h0a7.14,7.14,0,1,1,12.11,7.57,7.08,7.08,0,0,1-4.45,3.17A6.83,6.83,0,0,1,151,347.68Zm-4.31-9.85a5.11,5.11,0,0,0,1.63,7,5.11,5.11,0,0,0,7-1.62,5.1,5.1,0,0,0-5.47-7.67,5,5,0,0,0-3.18,2.26Z" style="fill:#163150"/><circle cx="151.03" cy="340.54" r="3.06" style="fill:url(#char__linear-gradient-2)"/><path d="M114.54,312.94c1.71-2.72,5.56-6.1,6.25-5.66s-7.14-7.19-9.69-12.89-13.54-31.64-8.23-45.91c-7.06-6.63-9.74-12.72-12.25-17.95Q88.87,228,86.3,250.48l.9,1.86-1.41,1.72q1.59,14.71,3.92,21.57a87.61,87.61,0,0,0,7.08,15.15l.95.59.18,2.8Q110.94,311,114.54,312.94Z" style="fill:#e3edff;fill-rule:evenodd"/><path d="M114.54,314a1,1,0,0,1-.48-.12c-2.56-1.39-8.1-7.62-16.94-19a1,1,0,0,1-.22-.55L96.76,292l-.51-.31a1.06,1.06,0,0,1-.34-.36A89.43,89.43,0,0,1,88.74,276c-1.57-4.62-2.91-11.95-4-21.79a1,1,0,0,1,.23-.76l1-1.21-.61-1.27a1,1,0,0,1-.1-.56c2.34-20.49,3.62-20.82,4.65-21.08a1.42,1.42,0,0,1,1.52.65,1,1,0,0,1,.08.14L92,231c2.38,5,5.08,10.63,11.61,16.76a1,1,0,0,1,.25,1.1c-5.17,13.91,5.93,40,8.21,45.15,1.84,4.12,6.61,9.34,8.64,11.57,1.15,1.26,1.54,1.69,1,2.4a1.08,1.08,0,0,1-1,.33,18,18,0,0,0-5.21,5.2A1,1,0,0,1,114.54,314ZM98.92,293.79c9.13,11.78,13.39,16.23,15.37,17.75a21.23,21.23,0,0,1,4.79-4.71c-2.15-2.36-7-7.66-8.91-12-3.23-7.23-13.27-31.66-8.48-46.05-6.34-6.1-9.07-11.69-11.44-16.64-.57,1.75-1.54,6.32-2.9,18.19l.77,1.59A1,1,0,0,1,88,253l-1.14,1.39c1,9.47,2.32,16.51,3.82,20.92a87.06,87.06,0,0,0,6.88,14.75l.73.46a1,1,0,0,1,.48.8Z" style="fill:#163150"/><path d="M119.45,329.92s-.22,6.3-4.2,1.65q-4-4.63,2.21-4.42,15.83-15.27,18-17.23c-1.39-1.87.43-6.49,4.29-2.5s.5,5.26-2.07,4.31C134.54,314.78,119.41,329.9,119.45,329.92Z" style="fill:#78e1f2;fill-rule:evenodd"/><path d="M117.73,334.31c-1.48,0-2.78-1.53-3.25-2.07-1-1.21-2.33-3-1.59-4.53s2.6-1.61,4.16-1.59c9.28-8.95,15-14.46,17.19-16.43a4,4,0,0,1,1-4.22c.53-.44,2.47-1.67,5.28,1.25,2.45,2.53,2.26,4.15,1.66,5.07-.81,1.24-2.61,1.47-4.19,1.09-3.65,3.54-15.63,15.52-17.53,17.46,0,.15,0,.32-.06.5-.26,1.89-1,3.06-2.07,3.38A2.08,2.08,0,0,1,117.73,334.31Zm-.81-6.15c-1.92,0-2.19.43-2.19.44s-.2.56,1.3,2.31c1.07,1.24,1.64,1.38,1.72,1.35.32-.12.68-1.45.68-2.26-.05-.51.07-.63,8.24-8.78C128.58,319.32,135,313,137,311l.46-.44.6.22a2.45,2.45,0,0,0,2.4-.1c.17-.26-.07-1.14-1.42-2.54-.4-.41-1.76-1.71-2.49-1.1a2,2,0,0,0-.24,2.29l.56.75-.7.62c-1.47,1.29-7.53,7.08-18,17.19l-.31.3h-.93Z" style="fill:#163150"/><path d="M126.39,324.91c-1,1.61-.71,10.52,2.23,14.72s9.1,7,16.22,2.87a9.5,9.5,0,0,0,2,2.63q-7.93,5.79-16,2t-8.94-19.83l3.45-3.24A8.26,8.26,0,0,1,126.39,324.91Z" style="fill:#2a455f;fill-rule:evenodd"/><path d="M137.19,349.66a15.77,15.77,0,0,1-6.74-1.58c-5.69-2.68-8.9-9.64-9.53-20.7l0-.47,4.37-4.11.67.41a8.47,8.47,0,0,1,1.15,1l.62.57-.44.72c-.73,1.17-.58,9.63,2.2,13.59s8.43,6.28,14.88,2.58l.95-.55.47,1a8.69,8.69,0,0,0,1.79,2.34l.87.84-1,.71A17.3,17.3,0,0,1,137.19,349.66ZM123,327.74c.64,10,3.44,16.19,8.32,18.49,4.71,2.21,9.29,1.81,14-1.26a10,10,0,0,1-.84-1.1c-7.19,3.63-13.5.86-16.66-3.66-2.66-3.78-3.35-11-2.73-14.42Z" style="fill:#163150"/><path id="Fill-9-Copy" d="M121.67,321l3,3.27,1.18-1.15-1.54-1.6,1-1.17,1.54,1.59.74-.63-1.54-1.6,1.05-1.18,1.54,1.6.74-.64-1.54-1.59,1-1.18,1.54,1.59,1-.94-3.16-3.22a7.52,7.52,0,0,0-1.75-7.08c-2.94-3-8-2.65-11.41.75s-3.71,8.6-.77,11.59C116.26,321.26,119.13,321.63,121.67,321Z" style="fill-rule:evenodd;fill:url(#char__linear-gradient-3)"/><path d="M117.05,318.49a2.73,2.73,0,0,1,.11-3.82,2.63,2.63,0,0,1,3.76-.1,2.73,2.73,0,0,1-.12,3.81,2.63,2.63,0,0,1-3.75.11m6.56-1.23c-.25-.25-1-1.53-.72-1.83s1.55.49,1.8.74a.73.73,0,0,1-.09,1,.69.69,0,0,1-1,.08m-1.37-4a2.72,2.72,0,0,1,.11-3.81,2.63,2.63,0,0,1,3.76-.11,2.73,2.73,0,0,1-.11,3.82,2.63,2.63,0,0,1-3.76.1m-7.82,6a7.34,7.34,0,0,0,7.11,1.81l3.21,3.27,1.32-1.34-1.57-1.62.82-.83,1.57,1.62,1-1-1.57-1.63.82-.83,1.57,1.62,1-1-1.56-1.62.82-.83,1.56,1.62,1.32-1.34-3.21-3.27a7.64,7.64,0,0,0-1.76-7.22c-3-3-8.2-2.68-11.65.81s-3.81,8.78-.82,11.82" style="fill:#163150;fill-rule:evenodd"/></g><g class="item item__2-2"><path d="M102.91,373.32l22.38-37.24a.63.63,0,0,1,.86-.22h0a.63.63,0,0,1,.22.86L104,374a.62.62,0,0,1-.86.21h0A.62.62,0,0,1,102.91,373.32Z" style="fill:#d8d8d8;fill-rule:evenodd"/><path d="M103.45,374.54a.93.93,0,0,1-.46-.12.91.91,0,0,1-.31-1.24l22.38-37.24a.9.9,0,1,1,1.54.92l-22.38,37.25a.91.91,0,0,1-.55.41A.86.86,0,0,1,103.45,374.54Zm-.31-1.08a.36.36,0,0,0,0,.27.34.34,0,0,0,.17.22.32.32,0,0,0,.27,0,.36.36,0,0,0,.22-.16l22.38-37.24a.45.45,0,0,0,0-.28.41.41,0,0,0-.17-.22.36.36,0,0,0-.49.13Z" style="fill:#979797"/><rect width="12.57" height="1.8" x="109.08" y="333.4" transform="translate(-230.61 261.01) rotate(-59)" style="fill:#ffd166"/><path d="M113.14,341.14l-2.77-1.67,7.21-12,2.77,1.66Zm-.8-2.16.31.18,5.73-9.54-.31-.18Z" style="fill:#163150"/><circle cx="120.87" cy="323.99" r="7.9" style="fill:#9165ff"/><path d="M120.85,332.66a8.66,8.66,0,0,1-7.41-13.13h0a8.66,8.66,0,0,1,11.89-3,8.67,8.67,0,0,1-4.48,16.1Zm0-15.8a7.39,7.39,0,0,0-1.74.21,7.16,7.16,0,0,0-4.39,3.25h0a7.13,7.13,0,1,0,6.13-3.46Z" style="fill:#163150"/><path d="M122.2,353.16c1.62,1.5,8.26,7.48,10.9,15.6-.54,1.33-2.71,2.78-6.52,4.33q-5.33-10-7.43-11.23t.85-8.24C120.38,352.31,121.11,352.16,122.2,353.16Z" style="fill:#057a97;fill-rule:evenodd"/><path d="M126.58,373.86a.79.79,0,0,1-.68-.4c-4.32-8.09-6.27-10.41-7.14-10.94-1.82-1.09-1.65-4,.53-9.2a2,2,0,0,1,1.3-1.53,2.44,2.44,0,0,1,2.13.8l.12.12c5.54,5.11,9.24,10.43,11,15.81a.78.78,0,0,1,0,.52c-.63,1.58-2.83,3.09-6.94,4.77A.93.93,0,0,1,126.58,373.86ZM121,353.28a1.37,1.37,0,0,0-.25.56c-2.52,6-1.55,7.15-1.19,7.36,1,.58,2.75,2.34,7.38,10.91,3.7-1.58,4.94-2.74,5.34-3.41-1.71-5-5.23-10-10.47-14.86l-.13-.12C121.23,353.31,121,353.28,121,353.28Z" style="fill:#163150"/><path d="M92.86,362.73l14.06-23.39a5.51,5.51,0,0,1,7.56-1.89h0a5.52,5.52,0,0,1,1.89,7.57l-14.06,23.4a5.5,5.5,0,0,1-7.56,1.88h0A5.52,5.52,0,0,1,92.86,362.73Z" style="fill:#78e1f2;fill-rule:evenodd"/><path d="M97.58,371.86a6.28,6.28,0,0,1-5.38-9.52l14.06-23.4A6.28,6.28,0,1,1,117,345.42L103,368.81A6.28,6.28,0,0,1,97.58,371.86Zm14.07-34.43a4.54,4.54,0,0,0-1.15.15,4.67,4.67,0,0,0-2.92,2.16L93.52,363.13a4.74,4.74,0,1,0,8.13,4.89l14.06-23.39a4.76,4.76,0,0,0-1.62-6.52A4.83,4.83,0,0,0,111.65,337.43Z" style="fill:#163150"/><path d="M97.46,377.52l19.81-33c.43-3.1-.08-5.27-1.53-6.49l3.84-6.41a9.3,9.3,0,0,0,6.07-1.55c2.27-1.4,3.34-4.54,3.72-6.19l6.45,3.88-6,10c-.71,1.85.62,2.91,4,3.16s7.23.35,11.56.28l-4.19,7-13.1-1.48-3.42,5.7.7,2.58-5.21,8.68-1.61,1.27-8,13.39L108,376.8l2-3.4c-.8-1.65-1.77-1.51-2.93.41l-4.19,7Z" style="fill:#ffd166;fill-rule:evenodd"/><path d="M102.89,381.56a.77.77,0,0,1-.39-.11l-5.44-3.27a.77.77,0,0,1-.26-1.05l19.73-32.84c.35-2.73-.09-4.63-1.29-5.65a.76.76,0,0,1-.16-1l3.84-6.4a.78.78,0,0,1,.72-.38,8.51,8.51,0,0,0,5.61-1.44c2.23-1.37,3.14-4.71,3.37-5.7a.73.73,0,0,1,.45-.54.75.75,0,0,1,.7.05q2.7,1.65,6.45,3.87a.81.81,0,0,1,.35.48.74.74,0,0,1-.09.58l-5.95,9.91c-.23.63-.06.9,0,1,.2.32.91.89,3.35,1.07,3.34.25,7.2.35,11.49.28h0a.77.77,0,0,1,.67.39.75.75,0,0,1,0,.78l-4.19,7a.78.78,0,0,1-.75.37l-12.6-1.43-3,5,.61,2.26a.75.75,0,0,1-.08.6l-5.21,8.68a.61.61,0,0,1-.19.2l-1.49,1.18-8,13.28a.76.76,0,0,1-1,.26l-2.54-1.52a.82.82,0,0,1-.35-.47.81.81,0,0,1,.09-.59l1.82-3c-.18-.27-.31-.35-.34-.35h0s-.36,0-1.05,1.17l-4.19,7a.73.73,0,0,1-.47.35A.63.63,0,0,1,102.89,381.56Zm-4.37-4.3,4.11,2.47,3.8-6.32c.51-.85,1.32-2,2.43-1.92.74,0,1.35.56,1.85,1.58a.76.76,0,0,1,0,.73L109,376.54l1.21.73,7.66-12.74a.6.6,0,0,1,.18-.21l1.49-1.18,5-8.27-.61-2.26a.74.74,0,0,1,.08-.6l3.43-5.7a.74.74,0,0,1,.74-.37l12.6,1.42L144,342c-3.79,0-7.22-.08-10.25-.3-2.4-.18-3.88-.77-4.53-1.79a2.59,2.59,0,0,1-.12-2.42l.06-.12,5.6-9.31c-1.84-1.09-3.48-2.08-4.92-2.95-.52,1.71-1.63,4.32-3.8,5.65a9.93,9.93,0,0,1-6,1.7l-3.29,5.48c1.29,1.45,1.74,3.7,1.32,6.73a.77.77,0,0,1-.1.29Z" style="fill:#163150"/><path d="M127.78,347.22a6,6,0,0,1,2.26,4.07q1.26-.09,2.81-4l-4.76-.58Z" style="fill:#057a97;fill-rule:evenodd"/><path d="M130,352.06a.78.78,0,0,1-.77-.69,5.12,5.12,0,0,0-2-3.57.78.78,0,0,1-.15-1l.32-.52a.75.75,0,0,1,.75-.37l4.75.58a.75.75,0,0,1,.57.37.81.81,0,0,1,.06.68c-1.2,3-2.27,4.4-3.48,4.49Zm-.79-4.44a6.37,6.37,0,0,1,1.33,2.4,9.87,9.87,0,0,0,1.17-2.1Z" style="fill:#163150"/><path d="M106.61,379.88l1.91,1.15,2.21-2.74L108,376.62Z" style="fill:#057a97;fill-rule:evenodd"/><path d="M108.7,382l-3-1.84,1.92-4.7,4.31,2.59Zm-1.13-2.48.77.47,1.24-1.54-1.26-.75Z" style="fill:#163150"/><path d="M95.74,382.15l3.92,2.35,3.28-3.77-5.49-3.3Z" style="fill:#057a97;fill-rule:evenodd"/><path d="M99.81,385.49l-5-3L97,376.29l7.08,4.25Zm-3.13-3.67,2.82,1.69,2.26-2.59-3.91-2.35Z" style="fill:#163150"/><rect width="56.74" height="1.8" x="88.31" y="350.74" rx=".72" transform="translate(-244.83 270.54) rotate(-59)" style="fill:#ebbd5c"/><rect width="26.57" height="1.8" x="108.01" y="351.42" rx=".72" transform="translate(-243.17 274.83) rotate(-59)" style="fill:#ebbd5c"/><path d="M129.88,345.5c.17-.32.81-1.4,1.94-3.23l11.09.41-2.35,3.91Q130.86,345.72,129.88,345.5Z" style="fill:#ebbd5c;fill-rule:evenodd"/><path d="M96.77,384.32Q75.44,409.72,79.9,412.4T96.77,384.32Z" style="fill:#78e1f2;fill-rule:evenodd"/><path d="M80.67,413.39a2.2,2.2,0,0,1-1.17-.33,2.38,2.38,0,0,1-1.1-1.68c-.38-2.29,1-7.63,17.78-27.56a.77.77,0,0,1,1.31.78c-9.74,24.14-13.79,27.91-16,28.64A2.47,2.47,0,0,1,80.67,413.39ZM94.14,388.7c-12.23,15-14.55,20.48-14.22,22.43a.77.77,0,0,0,.37.61.76.76,0,0,0,.72,0C82.89,411.16,86.67,406.53,94.14,388.7Z" style="fill:#163150"/><path d="M93,384.72q-16.4,3.75-14.13,7.84T93,384.72Z" style="fill:#78e1f2;fill-rule:evenodd"/><path d="M80.69,394.37a3.68,3.68,0,0,1-.49,0,2.63,2.63,0,0,1-2-1.41,2.66,2.66,0,0,1-.14-2.45c.67-1.5,2.93-3.8,14.77-6.51a.77.77,0,0,1,.72,1.29C85.76,393.08,82.45,394.37,80.69,394.37Zm9.78-8.25c-8.11,2.08-10.49,3.84-11,5a1.26,1.26,0,0,0,.94,1.7C81.66,393,84.42,391.9,90.47,386.12Z" style="fill:#163150"/><path d="M98.68,386.08q-5.82,10.28-1.94,11T98.68,386.08Z" style="fill:#78e1f2;fill-rule:evenodd"/><path d="M97.16,397.85a2.74,2.74,0,0,1-.55-.05,2.45,2.45,0,0,1-1.9-1.37c-.86-1.83.19-5.24,3.3-10.73a.77.77,0,0,1,1.43.25c1,6.23.86,9.79-.57,11.21A2.39,2.39,0,0,1,97.16,397.85Zm1.1-9.38c-2.53,4.86-2.46,6.65-2.16,7.3a.92.92,0,0,0,.78.52.94.94,0,0,0,.91-.22C98.29,395.56,99,393.9,98.26,388.47Z" style="fill:#163150"/><path d="M93.71,397.22q-4.2,7.27-1.37,7.78T93.71,397.22Z" style="fill:#78e1f2;fill-rule:evenodd"/><path d="M92.65,405.79a2.25,2.25,0,0,1-.44,0,2,2,0,0,1-1.55-1.12c-.65-1.38.11-3.86,2.38-7.8a.77.77,0,0,1,.8-.37.78.78,0,0,1,.63.62c.79,4.48.65,7.07-.42,8.15A2,2,0,0,1,92.65,405.79Zm.64-6.18c-1.51,3-1.39,4-1.24,4.37,0,.07.1.2.42.26s.43-.05.49-.1C93.21,403.88,93.68,403,93.29,399.61Z" style="fill:#163150"/><path d="M79.69,398.71c-5.07,2.37-6.94,4.23-5.58,5.58S77.32,403.78,79.69,398.71Z" style="fill:#78e1f2;fill-rule:evenodd"/><path d="M75,405.49a2,2,0,0,1-1.47-.65,2,2,0,0,1-.62-1.82c.27-1.5,2.31-3.09,6.43-5a.77.77,0,0,1,1,1c-1.92,4.12-3.51,6.16-5,6.43A2,2,0,0,1,75,405.49Zm3-5.07c-3,1.6-3.46,2.52-3.52,2.87,0,.08,0,.22.19.46s.38.21.46.19C75.46,403.88,76.38,403.39,78,400.42Z" style="fill:#163150"/></g><g class="item item__1-3"><path d="M195.32,83.44c-26.89,0-63.89,11.1-90,30.46S60,182.59,60,189c6.18-8.75,15.42-22.53,51.35-26.94.21-3.3,53.38-17.78,84-17.78C195.13,116.6,195.32,102.53,195.32,83.44Z" style="fill:#78e1f2;fill-rule:evenodd"/><path d="M60,190.22a1.24,1.24,0,0,1-.37-.06,1.2,1.2,0,0,1-.83-1.15c.09-7.08,19.28-56.46,45.8-76.08,24.81-18.35,61.29-30.69,90.76-30.69a1.2,1.2,0,0,1,1.2,1.2c0,6.24,0,11.94,0,17.75,0,12-.09,24.46,0,43.1a1.21,1.21,0,0,1-1.2,1.21c-30.81,0-79.75,13.83-82.87,17a1.23,1.23,0,0,1-1,.82c-34.88,4.28-44.12,17.38-50.24,26.05l-.27.38A1.17,1.17,0,0,1,60,190.22ZM194.12,84.65C165.75,85,129.7,97.32,106,114.86c-21.7,16-39,53.92-43.6,68.79,6.63-8.52,18-18.86,48.13-22.68.75-.84,2.92-2.08,9.32-4.2,5.76-1.91,13.5-4,21.79-6,9.62-2.26,33.68-7.46,52.48-7.68-.12-18-.07-30.15,0-41.91C194.1,95.75,194.12,90.42,194.12,84.65ZM112.5,162.16Z" style="fill:#163150"/><path d="M195.13,83.87c26.89,0,59.6,8.84,90.05,30.45S331.89,181.58,332,188c-13-11.6-31.16-25.49-52.83-25.49-.21-3.3-53.38-17.79-84-17.79Z" style="fill:#fbb444;fill-rule:evenodd"/><path d="M332,189.2a1.21,1.21,0,0,1-.8-.3c-13.15-11.73-30.95-25.19-52-25.19a1.21,1.21,0,0,1-1.14-.82c-3.11-3.13-52.06-17-82.87-17a1.19,1.19,0,0,1-1.2-1.2V83.87a1.2,1.2,0,0,1,1.2-1.2c30.64,0,62.87,10.89,90.74,30.68,30.51,21.65,47.22,67.9,47.3,74.64a1.2,1.2,0,0,1-.7,1.11A1.24,1.24,0,0,1,332,189.2Zm-52.12-27.88c20.24.27,37.35,12.27,50.39,23.57-3-12.33-18.94-50.55-45.76-69.59-27.1-19.23-58.36-29.94-88.15-30.22v58.45c18.8.22,42.87,5.42,52.49,7.68,8.29,1.95,16,4.08,21.79,6C276.8,159.25,279,160.48,279.85,161.32Zm-1.9,1.27Z" style="fill:#163150"/><path d="M161.34,89c-13.43,4.62-44.94,44.48-50,73,25.19-13.3,82.46-17.78,84-17.78q-.54-9.83,0-60.86Q174.77,84.43,161.34,89Z" style="fill:#f4d57a;fill-rule:evenodd"/><path d="M111.31,163.28a1.16,1.16,0,0,1-.71-.23,1.19,1.19,0,0,1-.47-1.18c5.21-29.25,36.8-69.14,50.82-74h0c9-3.1,20.56-5,34.31-5.67a1.21,1.21,0,0,1,.9.34,1.19,1.19,0,0,1,.36.87c-.36,33.85-.36,54.29,0,60.78a1.21,1.21,0,0,1-1.2,1.27c-.51,0-58,4.22-83.45,17.65A1.24,1.24,0,0,1,111.31,163.28Zm50.42-73.1C149.88,94.25,119.41,131,113,159.91c24.69-11.78,72.73-16.08,81.1-16.73-.3-7.5-.29-27.15,0-58.47-13,.7-23.86,2.54-32.38,5.47Z" style="fill:#163150"/><path d="M229.11,89c13.43,4.62,44.94,44.48,50,73-25.19-13.3-82.46-17.78-84-17.78q.54-9.83,0-60.86Q215.68,84.43,229.11,89Z" style="fill:#9165ff;fill-rule:evenodd"/><path d="M279.14,163.28a1.24,1.24,0,0,1-.56-.13c-25.43-13.43-82.94-17.65-83.45-17.65a1.23,1.23,0,0,1-.87-.38,1.18,1.18,0,0,1-.33-.89c.36-6.49.36-26.93,0-60.78a1.19,1.19,0,0,1,.36-.87,1.2,1.2,0,0,1,.89-.34c13.76.66,25.31,2.57,34.32,5.67h0c14,4.82,45.61,44.71,50.82,74a1.19,1.19,0,0,1-.47,1.18A1.16,1.16,0,0,1,279.14,163.28Zm-82.76-20.1c8.37.65,56.41,4.95,81.1,16.73C271,131,240.58,94.25,228.72,90.18c-8.52-2.93-19.41-4.77-32.38-5.47C196.67,116,196.68,135.68,196.38,143.18Z" style="fill:#163150"/><path d="M195.49,85.24a1.79,1.79,0,0,1-1.79-1.8v-7.6a1.8,1.8,0,1,1,3.6,0v7.6A1.8,1.8,0,0,1,195.49,85.24Z" style="fill:#163150"/><path d="M61.23,189.44c10.27-7.5,25.91-13.79,50.08-9.31a79.86,79.86,0,0,1,23.5-7q4-12,14.44-22.27-26.06,4.77-38.67,11.2C92.81,163.12,64.05,174.69,61.23,189.44Z" style="fill:#057a97;fill-rule:evenodd"/><path d="M61.23,190.64a1.24,1.24,0,0,1-.64-.18,1.21,1.21,0,0,1-.54-1.24c2.94-15.37,32.06-27.17,50.2-28.32,8.49-4.27,21.54-8,38.78-11.2a1.2,1.2,0,0,1,1.28.63,1.18,1.18,0,0,1-.22,1.41A55.94,55.94,0,0,0,136,173.53a1.2,1.2,0,0,1-.95.8l-.71.11a79.11,79.11,0,0,0-22.47,6.77,1.23,1.23,0,0,1-.73.1c-19.42-3.6-35.95-.54-49.15,9.1A1.16,1.16,0,0,1,61.23,190.64Zm84.55-37.88c-15.34,3-27,6.48-34.66,10.39a1.14,1.14,0,0,1-.47.13c-16.2.94-41.24,10.81-47.16,23.17,13.14-8.39,29.15-10.93,47.66-7.57a81.12,81.12,0,0,1,22.77-6.81A56.86,56.86,0,0,1,145.78,152.76Z" style="fill:#163150"/><path d="M195.5,138.69A306.14,306.14,0,0,0,153.31,149a37.45,37.45,0,0,0-18.42,23.51s21.69-19,61.22-19.16c39.54.18,59.61,19.67,59.61,19.67l4.07-18Z" style="fill:#163150;fill-rule:evenodd"/><path d="M255.72,173.78a.73.73,0,0,1-.52-.21c-.2-.19-20.35-19.28-59.09-19.46-38.76.18-60.52,18.79-60.73,19a.74.74,0,0,1-.89.07.75.75,0,0,1-.33-.84,38.33,38.33,0,0,1,18.79-24l.14-.06A307.15,307.15,0,0,1,195.37,138a.65.65,0,0,1,.31,0L260,154.31a.75.75,0,0,1,.55.9l-4.07,18a.74.74,0,0,1-.52.55A.76.76,0,0,1,255.72,173.78Zm-59.61-21.17c20.57.09,35.81,5.48,45,10a69.41,69.41,0,0,1,14.2,9l3.62-16-63.43-16.14a307.2,307.2,0,0,0-41.85,10.26,36.7,36.7,0,0,0-17.31,20.76C142.47,166,163.31,152.76,196.11,152.61Z" style="fill:#163150"/><path d="M111.31,181.33l-.22,0a1.2,1.2,0,0,1-1-1.4l3.41-18.48a1.2,1.2,0,0,1,2.36.44l-3.41,18.47A1.21,1.21,0,0,1,111.31,181.33Z" style="fill:#163150"/><path d="M332,188c-24.12-9.25-28.58-12.47-52.74-8a80.48,80.48,0,0,0-23.51-7q-4-12-14.43-22.26,26,4.77,38.67,11.2C297.72,163,317.25,173,332,188Z" style="fill:#057a97;fill-rule:evenodd"/><path d="M332,189.2a1.09,1.09,0,0,1-.43-.08l-6.45-2.5c-18.54-7.23-24.14-9.42-45.64-5.43a1.15,1.15,0,0,1-.73-.09,79,79,0,0,0-22.47-6.77l-.72-.11a1.22,1.22,0,0,1-.95-.8c-2.6-7.76-7.36-15.09-14.14-21.8a1.2,1.2,0,0,1,1.06-2c17.25,3.16,30.29,6.92,38.78,11.2,17.77,1.11,37.39,11,52.55,26.37a1.21,1.21,0,0,1,.15,1.5A1.2,1.2,0,0,1,332,189.2Zm-35.13-12.4c9.67,0,16.45,2.64,29.12,7.59l.83.32c-14.11-12.68-31.28-20.63-46.9-21.54a1.22,1.22,0,0,1-.47-.13c-7.68-3.91-19.33-7.4-34.67-10.39A56.9,56.9,0,0,1,256.62,172a81.16,81.16,0,0,1,22.77,6.8A97.89,97.89,0,0,1,296.84,176.8Z" style="fill:#163150"/><path d="M279.23,181.21a1.2,1.2,0,0,1-1.18-1l-3.41-18.48a1.2,1.2,0,1,1,2.36-.43l3.41,18.48a1.19,1.19,0,0,1-1,1.39A.86.86,0,0,1,279.23,181.21Z" style="fill:#163150"/></g><g class="item item__1-2"><path d="M167.15,181.74h-.55c-9.69,0-17.81,10.12-17.81,22.87s8.12,22.88,17.81,22.88c8.58,0,16.08-8,17.55-19l.12-.89.62-.65c3.14-3.34,6.24-5.12,9.39-5.12a12.47,12.47,0,0,1,7.59,3l1,.76.09,1.23c.89,11.77,8.68,20.65,17.73,20.65,9.68,0,17.81-10.13,17.81-22.88,0-12.32-7.62-22.26-16.94-22.84h-.2l-.07,0Z" style="fill:#d3e6f2;fill-rule:evenodd;opacity:.33"/><path d="M220.67,230.27c-10.69,0-19.51-10-20.51-23.22h0a9.82,9.82,0,0,0-5.88-2.44c-2.26,0-4.67,1.39-7.37,4.25h0c-1.65,12.41-10.2,21.41-20.31,21.41-11.36,0-20.6-11.51-20.6-25.66S155.24,179,166.6,179h.4l54.72,0c11,.68,19.55,11.94,19.55,25.62C241.27,218.76,232,230.27,220.67,230.27ZM194.28,199a15.17,15.17,0,0,1,9.31,3.61l1.94,1.52.19,2.46c.77,10.13,7.33,18.07,14.95,18.07,8.28,0,15-9,15-20.09,0-10.56-6.42-19.56-14.32-20.06l-.35,0H166.6c-8.29,0-15,9-15,20.08s6.73,20.09,15,20.09c7.17,0,13.52-7.13,14.79-16.58l.24-1.78,1.23-1.3C186.66,201,190.4,199,194.28,199Z" style="fill:#163150"/><path d="M169.9,188.22h0c-8,.1-14.58,7.89-14.58,17.68S162,223.57,170,223.57c7.16,0,13.37-6.25,14.54-14.81l.13-1,.72-.69c2.75-2.62,5.47-4,8.23-4s5.34,1.19,8,3.43l.87.73.14,1.14c1,8.75,7.3,15.22,14.58,15.22,8,0,14.73-7.82,14.73-17.67s-6.64-17.62-14.68-17.68H169.9Zm0,0h0Z" style="fill:#d3e6f2;fill-rule:evenodd;opacity:.33"/><path d="M217.25,226.43c-8.76,0-16.24-7.64-17.42-17.76h0c-2.21-1.84-4.29-2.77-6.2-2.77s-4,1.06-6.26,3.24c-1.36,10-8.66,17.29-17.36,17.29-9.69,0-17.57-9.21-17.57-20.53s7.8-20.42,17.39-20.53h47.49c9.65.08,17.51,9.29,17.51,20.53S226.94,226.43,217.25,226.43ZM193.63,200.2c3.28,0,6.59,1.37,9.85,4.09l1.76,1.46.26,2.27c.84,7.24,5.89,12.7,11.75,12.7,6.55,0,11.87-6.65,11.87-14.82s-5.28-14.74-11.79-14.83h-47.4c-6.53.09-11.79,6.74-11.79,14.83s5.33,14.82,11.87,14.82c5.72,0,10.76-5.31,11.71-12.35l.27-2,1.45-1.38C186.83,201.77,190.17,200.2,193.63,200.2Z" style="fill:#163150"/><path d="M217.25,229.91c-10.08,0-18.74-8.21-20.66-19.33a4,4,0,0,0-6,.33c-2.05,11.09-10.54,19-20.61,19-11.61,0-21.06-10.77-21.06-24,0-13.08,9.31-23.83,20.76-24h47.73c11.51.11,20.87,10.87,20.87,24S228.86,229.91,217.25,229.91Zm-23.62-27.5c2.74,0,5.58,1.21,8.43,3.59l1.07.89.16,1.38c1,8.37,7,14.67,14,14.67,7.77,0,14.09-7.64,14.09-17s-6.28-17-14-17.05H169.87c-7.69.1-14,7.74-14,17.05s6.32,17,14.09,17c6.83,0,12.8-6.13,13.91-14.27l.16-1.21.89-.84C187.93,203.79,190.77,202.41,193.63,202.41Z" style="fill:#78e1f2"/><path d="M175.61,193.43a12.92,12.92,0,0,0,0,24.93,12.14,12.14,0,0,1-3,.37,12.83,12.83,0,0,1,0-25.66A12.14,12.14,0,0,1,175.61,193.43Z" style="fill:#fff;fill-rule:evenodd;opacity:.5661737322807312;isolation:isolate"/><path id="Combined-Shape-Copy-2" d="M211.66,218.36a12.93,12.93,0,0,0,0-24.93,12.08,12.08,0,0,1,3-.36,12.84,12.84,0,0,1,0,25.66A12.08,12.08,0,0,1,211.66,218.36Z" style="fill:#fff;fill-rule:evenodd;opacity:.5661737322807312;isolation:isolate"/><path d="M193,226.43c3.91,0,2.87-3.12,6.09-2.34s3.14,9-.49,9.74c-2.13-3.82-4.35-3.52-5.8-3.52-1.07,0-4.39,1.35-4.76,4-3.45-.72-4.76-7.63-2.42-9.23C189.64,222.28,190.55,226.43,193,226.43Z" style="fill:#78e1f2;fill-rule:evenodd"/><path d="M188.57,235l-.67-.14c-2.25-.47-3.53-3-3.93-5.05-.47-2.37,0-4.46,1.28-5.32,2.95-2,4.63-.69,5.86.29a3,3,0,0,0,4.72-.28,3,3,0,0,1,3.4-1.07c2,.49,2.86,3.07,2.81,5.41s-1.09,5.12-3.32,5.57l-.45.09-.23-.4c-1.81-3.24-3.56-3.22-4.95-3.2h-.3c-.91,0-3.82,1.22-4.13,3.43Zm-.46-10.31a3.83,3.83,0,0,0-2.14.84c-.81.55-1.12,2.21-.76,4a5.64,5.64,0,0,0,2.37,3.85c.85-2.46,3.95-3.78,5.21-3.78h.29c1.49,0,3.7,0,5.8,3.4,1.26-.58,1.86-2.51,1.89-4.21s-.58-3.85-1.84-4.15a1.76,1.76,0,0,0-2.17.69,4.49,4.49,0,0,1-3.77,1.66,4.29,4.29,0,0,1-2.67-1.25A3.57,3.57,0,0,0,188.11,224.73Z" style="fill:#163150"/><path d="M197.25,231.56c2.15,15.36,17.05,17.35,23.42,17.28,14.28-.14,22.77-7,24.22-13.94q1.46-6.93.24-92.6h10.3q.45,80.32-.38,89.26c-.84,8.93-8,26.94-33.74,26.94q-25.71,0-33.28-24.22,2.31-4.31,4.87-4.31C195.47,230,195.61,230.07,197.25,231.56Z" style="fill:#2a455f;fill-rule:evenodd"/><path d="M221.31,259.14c-17.37,0-28.77-8.3-33.88-24.67l-.08-.25.13-.23c1.66-3.14,3.44-4.66,5.42-4.66,2.74,0,3,.18,4.77,1.76l.17.15,0,.23c2.21,15.73,18,16.8,22.79,16.74,14.32-.15,22.28-7.07,23.61-13.44,1-4.55,1-35.66.22-92.47v-.64h11.58v.63c.31,53.33.18,83.38-.38,89.33C254.72,241.84,246.4,259.14,221.31,259.14Zm-32.59-24.79c5,15.61,15.93,23.52,32.59,23.52,11.38,0,31.15-5.56,33.11-26.37.55-5.88.68-35.68.38-88.57h-9c.81,57.28.73,87.41-.26,92.1-1.43,6.85-9.82,14.29-24.84,14.45a31.33,31.33,0,0,1-13.58-2.93,18.63,18.63,0,0,1-10.44-14.68c-1.41-1.27-1.49-1.27-3.75-1.27C191.49,230.6,190.09,231.86,188.72,234.35Z" style="fill:#163150"/><rect width="14.18" height="23.11" x="243.19" y="123.13" rx="2.53" style="fill:#9165ff"/><path d="M254.83,146.88h-9.11a3.17,3.17,0,0,1-3.17-3.17v-18a3.17,3.17,0,0,1,3.17-3.17h9.11a3.17,3.17,0,0,1,3.17,3.17v18A3.17,3.17,0,0,1,254.83,146.88Zm-9.11-23.11a1.9,1.9,0,0,0-1.9,1.9v18a1.9,1.9,0,0,0,1.9,1.9h9.11a1.9,1.9,0,0,0,1.9-1.9v-18a1.9,1.9,0,0,0-1.9-1.9Z" style="fill:#163150"/></g><g class="item item__1-1"><path d="M195.11,131.71l65.17,27.94L256.4,181s-20.32-19.63-61.29-19.83c-41,.2-61.29,19.83-61.29,19.83l-3.89-21.3Z" style="fill:#78e1f2;fill-rule:evenodd"/><path d="M133.82,182.46a1.53,1.53,0,0,1-.47-.07,1.51,1.51,0,0,1-1-1.17l-3.89-21.3a1.51,1.51,0,0,1,.89-1.67l65.18-27.93a1.56,1.56,0,0,1,1.2,0l65.17,27.93a1.53,1.53,0,0,1,.9,1.67l-3.89,21.3a1.52,1.52,0,0,1-2.54.82c-.2-.19-20.44-19.2-60.25-19.4-39.88.2-60,19.21-60.23,19.4A1.52,1.52,0,0,1,133.82,182.46ZM195.1,159.6c34.24.17,54.1,13.53,60.28,18.47l3.19-17.5-63.46-27.2-63.47,27.2,3.2,17.5C141,173.13,160.87,159.77,195.1,159.6Z" style="fill:#163150"/><path d="M123.2,108.38c1.47-14.47,30.88-51,51.64-45.76s23.07,5.27,43.84,0S265.54,93.91,267,108.38s23,19.08,31.13,36.19-41.51,38.16-41.51,38.16c-17.06-39.48-61.54-38.16-61.54-38.16s-44.48-1.32-61.54,38.16c0,0-49.67-21-41.52-38.16S121.71,122.86,123.2,108.38Z" style="fill:#163150;fill-rule:evenodd"/><path d="M215.38,121.89a2.52,2.52,0,0,0-3.27.48l-6.18-3.88a10.7,10.7,0,0,0,1-10.42l4.69-2.94,0,.08a2.57,2.57,0,0,0,3.53.84,2.58,2.58,0,0,0-1.32-4.74,2.59,2.59,0,0,0,0-2.72,2.53,2.53,0,0,0-4.49,2.33l-5.13,3.21a15.16,15.16,0,0,0-10.57-4.24A14.74,14.74,0,0,0,183.2,104L178,100.72a2.59,2.59,0,0,0-1-3.18,2.52,2.52,0,0,0-3.51.78,2.57,2.57,0,0,0,0,2.72,2.48,2.48,0,0,0-2.08,1.18,2.59,2.59,0,0,0,.83,3.54,2.54,2.54,0,0,0,3.52-.78s0-.06,0-.08l4.75,3a10.79,10.79,0,0,0-.82,4.16,11.2,11.2,0,0,0,2.05,6.27l-6.11,3.8a2.53,2.53,0,0,0-4.06,3,2.59,2.59,0,0,0,2.44,1.2,2.57,2.57,0,1,0,4.49-.27s0,0,0-.07l6.79-4.23c.19.13.37.27.57.4l.06,7.29h3l-.06-3.58h1.85l.06,3.59h2.29l-.06-3.58h1.85l.06,3.58,2.28,0-.06-3.59,1.85,0,.06,3.58,3,0-.06-7.29c.19-.11.37-.25.56-.38l6.86,4.31s0,0-.05.08a2.57,2.57,0,0,0,.85,3.53,2.52,2.52,0,0,0,3.51-.8,2.55,2.55,0,0,0,.13-2.41,2.49,2.49,0,0,0,2.43-1.17A2.59,2.59,0,0,0,215.38,121.89Zm-27.2-3.64A4.36,4.36,0,0,1,183.8,114a4.18,4.18,0,0,1,4.3-4.17,4.36,4.36,0,0,1,4.38,4.23A4.2,4.2,0,0,1,188.18,118.25Zm5.71,2.83a1.18,1.18,0,0,1-1.25-1c0-.57.53-2.85,1.22-2.85s1.26,2.3,1.27,2.87A1.14,1.14,0,0,1,193.89,121.08Zm5.67-2.76a4.35,4.35,0,0,1-4.38-4.23,4.21,4.21,0,0,1,4.31-4.18,4.36,4.36,0,0,1,4.38,4.24A4.19,4.19,0,0,1,199.56,118.32Z" style="fill:#fff;fill-rule:evenodd"/><path d="M98.18,158.59c9.47-9,21.39-14.45,22.48-25.31,1.48-14.77,30.9-52.07,51.67-46.7s23.08,5.37,43.85,0,46.89,31.93,48.37,46.7c1.2,11.9,15.41,17.27,25.15,28,1.24-1.17,2.33-2.15,3.21-2.86-8.16-17.45-26.67-20.26-28.15-35s-27.65-52.07-48.45-46.69-23.12,5.37-43.92,0-50.27,31.92-51.75,46.69-17.71,13.72-25.88,31.18C95.68,155.65,96.84,157,98.18,158.59Z" style="fill:#ffd166;fill-rule:evenodd"/><path d="M138.49,179.24s-12.05,20.39-36.92,8c0,0,8.43.68,14.07-5.37,5.07-5.45,16.8-10.39,22.85-2.66" style="fill:#78e1f2;fill-rule:evenodd"/><path d="M116.78,192.75a35.72,35.72,0,0,1-15.89-4.12,1.52,1.52,0,0,1,.8-2.87c.07,0,7.79.52,12.83-4.9,3.37-3.62,9.86-7.39,16.15-7.12a11.77,11.77,0,0,1,9,4.57,1.51,1.51,0,0,1,.11,1.7C139.7,180.18,132,192.75,116.78,192.75Zm-9.14-4.6c17.19,5.71,26.57-5.41,29-8.78a8.73,8.73,0,0,0-6.05-2.6c-5.1-.22-10.79,2.94-13.79,6.16A18.33,18.33,0,0,1,107.64,188.15Z" style="fill:#163150"/><path d="M138.87,180.93s-4,23.35-31.6,20.73c0,0,8.12-2.39,11.21-10.06,2.79-6.9,12-15.72,20.39-10.67" style="fill:#78e1f2;fill-rule:evenodd"/><path d="M111.47,203.38c-1.38,0-2.83-.07-4.34-.21a1.51,1.51,0,0,1-1.37-1.36,1.53,1.53,0,0,1,1.08-1.61c.07,0,7.46-2.3,10.23-9.16,1.85-4.59,6.56-10.44,12.52-12.44a11.76,11.76,0,0,1,10.06,1,1.51,1.51,0,0,1,.71,1.55C140.32,181.42,136.31,203.38,111.47,203.38ZM133.61,181a9.64,9.64,0,0,0-3.06.52c-4.82,1.62-9,6.6-10.66,10.69a18.37,18.37,0,0,1-6.63,8.14c18-.85,22.85-14.58,23.87-18.58A8.46,8.46,0,0,0,133.61,181Z" style="fill:#163150"/><path d="M133.57,178.55a4.92,4.92,0,1,0,4.92-4.93,4.92,4.92,0,0,0-4.92,4.93" style="fill:#9165ff;fill-rule:evenodd"/><path d="M138.49,185a6.44,6.44,0,1,1,6.44-6.44A6.45,6.45,0,0,1,138.49,185Zm0-9.85a3.41,3.41,0,1,0,3.41,3.41A3.41,3.41,0,0,0,138.49,175.14Z" style="fill:#163150"/></g></svg>