<svg class="character-choice__button" data-name="Character Choice Button" xmlns="http://www.w3.org/2000/svg" xmlns:xlink="http://www.w3.org/1999/xlink" viewBox="0 0 376.87 225.41"><defs><linearGradient id="linear-gradient" x1="199.44" y1="200.01" x2="198.55" y2="56.35" gradientUnits="userSpaceOnUse"><stop offset="0" stop-color="#057a97"/><stop offset="1" stop-color="#00aed9"/></linearGradient><linearGradient id="linear-gradient-2" x1="-85.65" y1="622.98" x2="-85.65" y2="617.95" gradientTransform="matrix(79.95, 0, 0, -43, 7046.45, 26809.26)" gradientUnits="userSpaceOnUse"><stop offset="0" stop-color="#be914a"/><stop offset="1" stop-color="#ffe9b6"/></linearGradient><filter id="f1" width="200" height="200" name="f1"><feOffset result="offOut" dx="1" dy="2" in="SourceAlpha"/><feGaussianBlur result="blurOut" stdDeviation="4" in="offOut"/><feComponentTransfer><feFuncA type="linear" slope="0.2"/></feComponentTransfer><feMerge><feMergeNode/><feMergeNode in="SourceGraphic"/></feMerge></filter><linearGradient id="linear-gradient-3" x1="-85.88" y1="619.85" x2="-85.88" y2="624.13" gradientTransform="matrix(86.95, 0, 0, -50, 7665.95, 31227.49)" gradientUnits="userSpaceOnUse"><stop offset="0" stop-color="#d2981c"/><stop offset="1" stop-color="#ffce5b"/></linearGradient><linearGradient id="linear-gradient-4" x1="271.44" y1="69.84" x2="273.21" y2="187.78" gradientUnits="userSpaceOnUse"><stop offset="0" stop-color="#fef4dc"/><stop offset="1" stop-color="#ffd166"/></linearGradient><linearGradient id="linear-gradient-5" x1="-76.66" y1="614.58" x2="-76.66" y2="609.94" gradientTransform="matrix(23.97, 0, 0, -25, 2109.64, 15448.08)" xlink:href="#linear-gradient-2"/><linearGradient id="linear-gradient-6" x1="-77.97" y1="612.68" x2="-77.97" y2="616.81" gradientTransform="matrix(26.97, 0, 0, -28, 2375.14, 17341.61)" xlink:href="#linear-gradient-3"/><linearGradient id="linear-gradient-7" x1="-64.63" y1="597.26" x2="-67.52" y2="593.69" gradientTransform="matrix(12.52, 0, 0, -13, 1097.06, 7874.47)" gradientUnits="userSpaceOnUse"><stop offset="0" stop-color="#be914a"/><stop offset="1" stop-color="#a08f68"/></linearGradient><linearGradient id="linear-gradient-8" x1="125.4" y1="69.97" x2="125.07" y2="186.03" xlink:href="#linear-gradient-4"/><linearGradient id="linear-gradient-9" x1="-82.79" y1="614.58" x2="-82.79" y2="609.94" gradientTransform="matrix(23.97, 0, 0, -25, 2109.64, 15448.08)" xlink:href="#linear-gradient-2"/><linearGradient id="linear-gradient-10" x1="-83.43" y1="612.68" x2="-83.43" y2="616.81" gradientTransform="matrix(26.97, 0, 0, -28, 2375.14, 17341.61)" xlink:href="#linear-gradient-3"/><linearGradient id="linear-gradient-11" x1="125.8" y1="96.31" x2="123.98" y2="167.81" gradientTransform="matrix(1, 0, 0, 1, 0, 0)" xlink:href="#linear-gradient-7"/></defs><title>Character Button</title><g class="cb__main"><path class="character-button__background" d="M123.27,54.9a73.78,73.78,0,0,0,0,147.55H274.73a73.78,73.78,0,0,0,0-147.55Z" transform="translate(-10.28 -16.07)" style="fill:url(#linear-gradient)"/><path d="M274.44,231.24H123a102.46,102.46,0,0,1,0-204.92H274.44a102.46,102.46,0,0,1,0,204.92ZM123,55a73.77,73.77,0,0,0,0,147.54H274.44a73.77,73.77,0,0,0,0-147.54Z" transform="translate(-10.28 -16.07)" style="fill:url(#linear-gradient-2);filter:url(#f1)"/><path d="M274.44,241.49H123a112.71,112.71,0,0,1,0-225.42H274.44a112.71,112.71,0,0,1,0,225.42ZM123,36.56A92.22,92.22,0,0,0,123,221H274.44a92.22,92.22,0,0,0,0-184.43Z" transform="translate(-10.28 -16.07)" style="filter:url(#f1);fill:url(#linear-gradient-3)"/><path class="cb__highlight" d="M275.2,199.29h-154A20.49,20.49,0,0,1,113.1,160L280.91,87.55a45.81,45.81,0,0,1,64,42.06A69.68,69.68,0,0,1,275.2,199.29Z" transform="translate(-10.28 -16.07)" style="fill:#fff;fill-rule:evenodd;opacity:0.336681544780731;isolation:isolate"/></g><g class="cb__male"><path class="cb__male-bg" d="M272.32,69.83h0a56.61,56.61,0,0,1,56.61,56.61v4.88a56.61,56.61,0,0,1-56.61,56.61h0a56.62,56.62,0,0,1-56.61-56.61v-4.88A56.62,56.62,0,0,1,272.32,69.83Z" transform="translate(-10.28 -16.07)" style="fill-rule:evenodd;fill:url(#linear-gradient-4)"/><path d="M272.32,186.26A55.32,55.32,0,0,1,217.06,131v-4.23a55.27,55.27,0,1,1,110.53,0V131A55.33,55.33,0,0,1,272.32,186.26Zm0-102.46a43,43,0,0,0-43,43V131a43,43,0,0,0,85.93,0v-4.23A43,43,0,0,0,272.32,83.8Z" transform="translate(-10.28 -16.07)" style="filter:url(#f1);fill:url(#linear-gradient-5)"/><path d="M272.32,190.36A59.43,59.43,0,0,1,213,131v-4.23a59.36,59.36,0,1,1,118.72,0V131A59.42,59.42,0,0,1,272.32,190.36Zm0-114.76a51.22,51.22,0,0,0-51.16,51.17V131a51.17,51.17,0,0,0,102.33,0v-4.23A51.22,51.22,0,0,0,272.32,75.6Z" transform="translate(-10.28 -16.07)" style="filter:url(#f1);fill:url(#linear-gradient-6)"/><path class="cb__male-icon" d="M280.81,116.57l4.45-4.62h-7v-7.66H298v20.49h-7.38v-7.4L286.08,122a22.94,22.94,0,0,1,4,13c0,12.43-9.74,22.54-21.71,22.54S246.64,147.46,246.64,135s9.74-22.54,21.71-22.54A21.09,21.09,0,0,1,280.81,116.57Zm-12.46,4.35A14.12,14.12,0,1,0,281.94,135,13.88,13.88,0,0,0,268.35,120.92Z" transform="translate(-10.28 -16.07)" style="fill:url(#linear-gradient-7)"/></g><g class="cb__female"><path class="cb__female-bg" d="M125.23,69.83h0a56.61,56.61,0,0,1,56.61,56.61v4.88a56.61,56.61,0,0,1-56.61,56.61h0a56.61,56.61,0,0,1-56.6-56.61v-4.88A56.61,56.61,0,0,1,125.23,69.83Z" transform="translate(-10.28 -16.07)" style="fill-rule:evenodd;fill:url(#linear-gradient-8)"/><path d="M125.24,186.26A55.33,55.33,0,0,1,70,131v-4.23a55.27,55.27,0,1,1,110.53,0V131A55.32,55.32,0,0,1,125.24,186.26Zm0-102.46a43,43,0,0,0-43,43V131a43,43,0,0,0,85.93,0v-4.23A43,43,0,0,0,125.24,83.8Z" transform="translate(-10.28 -16.07)" style="filter:url(#f1);fill:url(#linear-gradient-9)"/><path d="M125.24,190.36A59.44,59.44,0,0,1,65.87,131v-4.23a59.37,59.37,0,1,1,118.73,0V131A59.43,59.43,0,0,1,125.24,190.36Zm0-114.76a51.22,51.22,0,0,0-51.17,51.17V131a51.17,51.17,0,0,0,102.33,0v-4.23A51.22,51.22,0,0,0,125.24,75.6Z" transform="translate(-10.28 -16.07)" style="filter:url(#f1);fill:url(#linear-gradient-10)"/><path class="cb__female-icon" d="M146.92,118.59a21.69,21.69,0,1,0-25.52,21v7.17h-8.68v6.88h8.68v8.85h7.67v-8.85h8.34v-6.88h-8.34v-7.17A21.46,21.46,0,0,0,146.92,118.59Zm-35.2,0a13.52,13.52,0,1,1,13.51,13.21A13.37,13.37,0,0,1,111.72,118.59Z" transform="translate(-10.28 -16.07)" style="fill:url(#linear-gradient-11)"/></g></svg>
