<svg xmlns="http://www.w3.org/2000/svg" xmlns:xlink="http://www.w3.org/1999/xlink" id="Layer_1" data-name="Layer 1" viewBox="0 0 376.87 225.41"><defs><linearGradient id="linear-gradient" x1="199.44" x2="198.55" y1="200.01" y2="56.35" gradientUnits="userSpaceOnUse"><stop offset="0" stop-color="#057a97"/><stop offset="1" stop-color="#00aed9"/></linearGradient><linearGradient id="linear-gradient-2" x1="-85.65" x2="-85.65" y1="622.98" y2="617.95" gradientTransform="matrix(79.95, 0, 0, -43, 7046.45, 26809.26)" gradientUnits="userSpaceOnUse"><stop offset="0" stop-color="#be914a"/><stop offset="1" stop-color="#ffe9b6"/></linearGradient><filter id="f1" width="200%" height="200%" name="f1"><feOffset dx="1" dy="2" in="SourceAlpha" result="offOut"/><feGaussianBlur in="offOut" result="blurOut" stdDeviation="4"/><feComponentTransfer><feFuncA slope=".2" type="linear"/></feComponentTransfer><feMerge><feMergeNode/><feMergeNode in="SourceGraphic"/></feMerge></filter><linearGradient id="linear-gradient-3" x1="-85.88" x2="-85.88" y1="619.85" y2="624.13" gradientTransform="matrix(86.95, 0, 0, -50, 7665.95, 31227.49)" gradientUnits="userSpaceOnUse"><stop offset="0" stop-color="#d2981c"/><stop offset="1" stop-color="#ffce5b"/></linearGradient><linearGradient id="linear-gradient-4" x1="271.44" x2="273.21" y1="69.84" y2="187.78" gradientUnits="userSpaceOnUse"><stop offset="0" stop-color="#fef4dc"/><stop offset="1" stop-color="#ffd166"/></linearGradient><linearGradient id="linear-gradient-5" x1="-76.66" x2="-76.66" y1="614.58" y2="609.94" gradientTransform="matrix(23.97, 0, 0, -25, 2109.64, 15448.08)" xlink:href="#linear-gradient-2"/><linearGradient id="linear-gradient-6" x1="-77.97" x2="-77.97" y1="612.68" y2="616.81" gradientTransform="matrix(26.97, 0, 0, -28, 2375.14, 17341.61)" xlink:href="#linear-gradient-3"/><linearGradient id="linear-gradient-7" x1="125.4" x2="125.07" y1="69.97" y2="186.03" xlink:href="#linear-gradient-4"/><linearGradient id="linear-gradient-8" x1="-82.79" x2="-82.79" y1="614.58" y2="609.94" gradientTransform="matrix(23.97, 0, 0, -25, 2109.64, 15448.08)" xlink:href="#linear-gradient-2"/><linearGradient id="linear-gradient-9" x1="-83.43" x2="-83.43" y1="612.68" y2="616.81" gradientTransform="matrix(26.97, 0, 0, -28, 2375.14, 17341.61)" xlink:href="#linear-gradient-3"/><linearGradient id="linear-gradient-10" x1="121.19" x2="121.27" y1="103.02" y2="155.65" gradientUnits="userSpaceOnUse"><stop offset="0" stop-color="#be914a"/><stop offset="1" stop-color="#a08f68"/></linearGradient><linearGradient id="linear-gradient-11" x1="127.95" x2="128.03" y1="103.01" y2="155.64" xlink:href="#linear-gradient-10"/><linearGradient id="linear-gradient-12" x1="270.17" x2="270.24" y1="103.02" y2="155.65" xlink:href="#linear-gradient-10"/><linearGradient id="linear-gradient-13" x1="276.92" x2="277" y1="103.01" y2="155.64" xlink:href="#linear-gradient-10"/></defs><title>character-button--new</title><g id="cb__main"><path id="character-button__background" d="M123.27,54.9a73.78,73.78,0,0,0,0,147.55H274.73a73.78,73.78,0,0,0,0-147.55Z" transform="translate(-10.28 -16.07)" style="fill:url(#linear-gradient)"/><path d="M274.44,231.24H123a102.46,102.46,0,0,1,0-204.92H274.44a102.46,102.46,0,0,1,0,204.92ZM123,55a73.77,73.77,0,0,0,0,147.54H274.44a73.77,73.77,0,0,0,0-147.54Z" transform="translate(-10.28 -16.07)" style="fill:url(#linear-gradient-2);filter:url(#f1)"/><path d="M274.44,241.49H123a112.71,112.71,0,0,1,0-225.42H274.44a112.71,112.71,0,0,1,0,225.42ZM123,36.56A92.22,92.22,0,0,0,123,221H274.44a92.22,92.22,0,0,0,0-184.43Z" transform="translate(-10.28 -16.07)" style="filter:url(#f1);fill:url(#linear-gradient-3)"/><path id="cb__highlight" d="M275.2,199.29h-154A20.49,20.49,0,0,1,113.1,160L280.91,87.55a45.81,45.81,0,0,1,64,42.06A69.68,69.68,0,0,1,275.2,199.29Z" transform="translate(-10.28 -16.07)" style="fill:#fff;fill-rule:evenodd;opacity:.336681544780731;isolation:isolate"/></g><g id="cb__male"><path id="cb__male-bg" d="M272.32,69.83h0a56.61,56.61,0,0,1,56.61,56.61v4.88a56.61,56.61,0,0,1-56.61,56.61h0a56.62,56.62,0,0,1-56.61-56.61v-4.88A56.62,56.62,0,0,1,272.32,69.83Z" transform="translate(-10.28 -16.07)" style="fill-rule:evenodd;fill:url(#linear-gradient-4)"/><path d="M272.32,186.26A55.32,55.32,0,0,1,217.06,131v-4.23a55.27,55.27,0,1,1,110.53,0V131A55.33,55.33,0,0,1,272.32,186.26Zm0-102.46a43,43,0,0,0-43,43V131a43,43,0,0,0,85.93,0v-4.23A43,43,0,0,0,272.32,83.8Z" transform="translate(-10.28 -16.07)" style="filter:url(#f1);fill:url(#linear-gradient-5)"/><path d="M272.32,190.36A59.43,59.43,0,0,1,213,131v-4.23a59.36,59.36,0,1,1,118.72,0V131A59.42,59.42,0,0,1,272.32,190.36Zm0-114.76a51.22,51.22,0,0,0-51.16,51.17V131a51.17,51.17,0,0,0,102.33,0v-4.23A51.22,51.22,0,0,0,272.32,75.6Z" transform="translate(-10.28 -16.07)" style="filter:url(#f1);fill:url(#linear-gradient-6)"/></g><g id="cb__female"><path id="cb__female-bg" d="M125.23,69.83h0a56.61,56.61,0,0,1,56.61,56.61v4.88a56.61,56.61,0,0,1-56.61,56.61h0a56.61,56.61,0,0,1-56.6-56.61v-4.88A56.61,56.61,0,0,1,125.23,69.83Z" transform="translate(-10.28 -16.07)" style="fill-rule:evenodd;fill:url(#linear-gradient-7)"/><path d="M125.24,186.26A55.33,55.33,0,0,1,70,131v-4.23a55.27,55.27,0,1,1,110.53,0V131A55.32,55.32,0,0,1,125.24,186.26Zm0-102.46a43,43,0,0,0-43,43V131a43,43,0,0,0,85.93,0v-4.23A43,43,0,0,0,125.24,83.8Z" transform="translate(-10.28 -16.07)" style="filter:url(#f1);fill:url(#linear-gradient-8)"/><path d="M125.24,190.36A59.44,59.44,0,0,1,65.87,131v-4.23a59.37,59.37,0,1,1,118.73,0V131A59.43,59.43,0,0,1,125.24,190.36Zm0-114.76a51.22,51.22,0,0,0-51.17,51.17V131a51.17,51.17,0,0,0,102.33,0v-4.23A51.22,51.22,0,0,0,125.24,75.6Z" transform="translate(-10.28 -16.07)" style="filter:url(#f1);fill:url(#linear-gradient-9)"/></g><g id="Pfs80B.tif"><path d="M95.74,132.82c.38-.45.72-.94,1.13-1.35,1.95-2,3.93-4,5.9-6a1.48,1.48,0,0,1,2.35,0l6.53,6.6a1.18,1.18,0,0,1-.11,1.87.52.52,0,0,1-.33.07h-3.7a17.07,17.07,0,0,0,2.14,4.52,17.51,17.51,0,0,0,12.91,8c7,.8,12.66-1.75,16.95-7.32a.41.41,0,0,1,.59-.17c2.08.84,4.16,1.66,6.25,2.48l.39.17c-1.24,1.52-2.35,3.08-3.66,4.45a24.5,24.5,0,0,1-14.86,7.57c-12.49,1.69-24.08-6-27.69-16.86-.28-.85-.45-1.74-.7-2.6a.47.47,0,0,0-.34-.26,16.45,16.45,0,0,0-2.22,0,1.44,1.44,0,0,1-1.53-.83Z" transform="translate(-10.28 -16.07)" style="fill:url(#linear-gradient-10)"/><path d="M109,119.65l-6.9-2.65c1-1.47,1.87-3,2.93-4.29a24.91,24.91,0,0,1,15.32-9.17,25.36,25.36,0,0,1,29.15,19c.18.7.28,1.43.44,2.14a.45.45,0,0,0,.33.27c.84,0,1.68.06,2.52,0a.93.93,0,0,1,1,.68,1,1,0,0,1-.23,1.19l-4.3,4.34c-.8.81-1.59,1.62-2.4,2.42a1.44,1.44,0,0,1-2.18,0q-3.3-3.34-6.59-6.7c-.68-.69-.67-1.12,0-1.76a.62.62,0,0,1,.39-.14h4.1A18.14,18.14,0,0,0,109,119.65Z" transform="translate(-10.28 -16.07)" style="fill:url(#linear-gradient-11)"/></g><g id="Pfs80B.tif-2" data-name="Pfs80B.tif"><path d="M244.72,132.82c.37-.45.72-.94,1.12-1.35,2-2,3.94-4,5.91-6a1.48,1.48,0,0,1,2.35,0l6.53,6.6a1.18,1.18,0,0,1-.11,1.87.52.52,0,0,1-.33.07h-3.7a17.07,17.07,0,0,0,2.14,4.52,17.51,17.51,0,0,0,12.91,8c7,.8,12.65-1.75,16.94-7.32a.43.43,0,0,1,.6-.17c2.07.84,4.16,1.66,6.24,2.48l.39.17c-1.23,1.52-2.34,3.08-3.65,4.45a24.56,24.56,0,0,1-14.86,7.57c-12.49,1.69-24.08-6-27.69-16.86-.29-.85-.46-1.74-.7-2.6a.47.47,0,0,0-.34-.26,16.45,16.45,0,0,0-2.22,0,1.43,1.43,0,0,1-1.53-.83Z" transform="translate(-10.28 -16.07)" style="fill:url(#linear-gradient-12)"/><path d="M258,119.65,251.05,117c1-1.47,1.88-3,2.94-4.29a24.91,24.91,0,0,1,15.32-9.17,25.37,25.37,0,0,1,29.15,19c.17.7.28,1.43.44,2.14a.45.45,0,0,0,.33.27c.84,0,1.68.06,2.52,0a.93.93,0,0,1,1,.68,1,1,0,0,1-.23,1.19l-4.3,4.34-2.4,2.42a1.44,1.44,0,0,1-2.18,0q-3.3-3.34-6.59-6.7c-.68-.69-.67-1.12,0-1.76a.62.62,0,0,1,.39-.14h4.09a18.13,18.13,0,0,0-33.6-5.28Z" transform="translate(-10.28 -16.07)" style="fill:url(#linear-gradient-13)"/></g></svg>