<svg id="Layer_1" data-name="Layer 1" xmlns="http://www.w3.org/2000/svg" xmlns:xlink="http://www.w3.org/1999/xlink" viewBox="0 0 1000 1175.9"><defs><clipPath id="clip-path"><path d="M-3.65,573.9S-35.64,405.78-1,355.76c31-44.7,40.54-43.61,58.53-50.54,212.55-82,311.59,8.31,476.2-66.51,146.31-66.51,423.8-87.15,469.89,66.51L1002,573.9Z" style="fill:none"/></clipPath><linearGradient id="linear-gradient" x1="399.52" y1="-230.19" x2="399.52" y2="-231.67" gradientTransform="translate(-492512 110858.06) scale(1234 479.22)" gradientUnits="userSpaceOnUse"><stop offset="0" stop-color="#84f3fb"/><stop offset="1" stop-color="#105bf8"/></linearGradient><linearGradient id="linear-gradient-2" x1="399.54" y1="-236.09" x2="399.54" y2="-237.95" gradientTransform="translate(-498891.91 34493.93) scale(1249.92 143.68)" gradientUnits="userSpaceOnUse"><stop offset="0" stop-color="#00cbfe"/><stop offset="1" stop-color="#057a97"/></linearGradient><mask id="mask" x="-828.87" y="187.09" width="1870.77" height="1056.89" maskUnits="userSpaceOnUse"><g id="mask-2" data-name="mask"><g id="mask-2-2" data-name="mask-2"><path id="path-1-2" d="M-828.87,1244c48.68-79.45,140.33-129.52,313-122.11C-86.07,1140.31,78.26,1061,89.37,892.35c5.71-86.74-5.07-128.21-33.32-163.45-26.69-33.28-69-61-127.68-116-108.59-101.78-75.22-339.29,11.41-425.69,72.45,1.37,200-.12,258.9-.12h801.9V1244Z" style="fill:#fff;fill-rule:evenodd"/></g></g></mask><mask id="mask-3" x="-520.85" y="177.48" width="1243.96" height="718.65" maskUnits="userSpaceOnUse"><g id="mask-2-2-2" data-name="mask-2-2"><g id="mask-2-3"><path id="path-1-3" d="M-520.85,896.13c33.1-54,95.42-88.07,212.83-83,292.25,12.54,404-41.36,411.54-156.07,3.88-59-3.45-87.18-22.65-111.12C62.72,523.28,34,504.44-5.95,467-79.79,397.81-57.1,236.31,1.81,177.56c49.26.93,136-.08,176-.08h545.3V896.13Z" style="fill:#fff;fill-rule:evenodd"/></g></g></mask><clipPath id="clip-path-2"><path d="M2041.61,855.41a2.89,2.89,0,0,1,.09.93,3.37,3.37,0,0,1-1.3,2.69,3.23,3.23,0,0,1-2.54.88,2.27,2.27,0,0,0-.9,0,9,9,0,0,1-.21,1.93,1.18,1.18,0,0,0,.63,1.09,3.11,3.11,0,0,1,2,0,1.9,1.9,0,0,1,1.35,1.63,3.88,3.88,0,0,1-.75,2.65,7.43,7.43,0,0,1-2.51,2.25,6.64,6.64,0,0,1-3.35.81,7.28,7.28,0,0,1-3-.63,6.78,6.78,0,0,1-1.73-1.69q-1.23-2.07-1.26-8.67a63.33,63.33,0,0,1,.63-8.71c.26-1.89.81-3.12,1.63-3.68l5.05-.52a11.4,11.4,0,0,1,2.47-.27c1.58,0,2.5.4,2.78,1.18a2.85,2.85,0,0,1,.19,1.09,2.66,2.66,0,0,1-1,2.11,4,4,0,0,1-2.69.82h-.67a4,4,0,0,0-.24,1.45,9.42,9.42,0,0,1-.09,1.45.74.74,0,0,0,.64.54,3.42,3.42,0,0,1,2.2-.69A3,3,0,0,1,2041.61,855.41Zm-24.14-2.6h0a.8.8,0,0,0-.3-.06,4.16,4.16,0,0,0-.94.42,4.42,4.42,0,0,0-.09,1.54v3.15a5.48,5.48,0,0,0,1.95-1.14,2.12,2.12,0,0,0,.8-1.55,3.31,3.31,0,0,0-1.42-2.36Zm8.64,14.08h0a6.06,6.06,0,0,1-1.42,1.84,4.77,4.77,0,0,1-2.63,1.33c-1.71.18-3.46-1.57-5.25-5.23a12.26,12.26,0,0,1,.09,1.36,4.56,4.56,0,0,1-.91,3,4.9,4.9,0,0,1-2.78,1,5,5,0,0,1-1.09-.12,4.27,4.27,0,0,1-2.32-1.15,5.33,5.33,0,0,1-.73-3.26v-1.21c-.06-.06,0-1.86.06-5.41a73.57,73.57,0,0,1,.7-9.15q.39-2.26,3.2-3.11a31.91,31.91,0,0,1,5.23-.79c3.08.1,5.19,1.12,6.34,3.08a13,13,0,0,1,1.27,5.38,6.77,6.77,0,0,1-1.36,4.2c-.54.56-1.12,1.09-1.72,1.6,2.27,2.46,3.41,4.51,3.41,6.17a4,4,0,0,1-.09.48ZM2006.9,849.7h0c.08.94.12,2,.12,3.17a36.4,36.4,0,0,1-2.21,12.81,7.92,7.92,0,0,1-1.8,2.8,6,6,0,0,1-2.55,1.64,19.56,19.56,0,0,1-2.42.18,9.66,9.66,0,0,1-5.62-1.57,7.77,7.77,0,0,1-3-4.2,19.46,19.46,0,0,1-.66-5.68,32.9,32.9,0,0,1,1-9.06,4.08,4.08,0,0,1,1.44-2,4.29,4.29,0,0,1,2.22-1,3,3,0,0,1,1.92.5,3.67,3.67,0,0,1,1.4,1.52,13.13,13.13,0,0,1,.09,1.54,34,34,0,0,1-.54,4.26,32.81,32.81,0,0,0-.54,4.2,8.62,8.62,0,0,0,.12,1.6,2.25,2.25,0,0,0,1,1,1.91,1.91,0,0,0,1.42-.24,4,4,0,0,0,1-2.24q0-2.07.09-5.28c.2-1.74.33-2.8.4-3.21a13.69,13.69,0,0,1,.57-2.63,3,3,0,0,1,2.48-1.72,3.59,3.59,0,0,1,2.38,1A6.31,6.31,0,0,1,2006.9,849.7Zm-19.64.33h0a5.81,5.81,0,0,1,.09,1.18,3.45,3.45,0,0,1-.73,2.29,6.44,6.44,0,0,1-2.43.71,10,10,0,0,0-2.22.53c0,.23.19,2.33.69,6.32a17.78,17.78,0,0,1,.16,2.42,12.07,12.07,0,0,1-.73,4.53c-.6,1.49-1.49,2.21-2.66,2.17a4.71,4.71,0,0,1-4-1.78,7.64,7.64,0,0,1-.87-4c0,.16,0-.89.12-3.17l.15-3.87a23.42,23.42,0,0,1,.39-3.14,2.48,2.48,0,0,1-.54.06,7.21,7.21,0,0,1-2.06-.33,3.27,3.27,0,0,1-1.9-1.33,4.72,4.72,0,0,1-.72-2.33,3.07,3.07,0,0,1,2-2.81,13.62,13.62,0,0,1,6.19-1.3,21.5,21.5,0,0,1,4,.37l3,1.11A3.45,3.45,0,0,1,1987.26,850Zm-19,2.24h0c.2,2.33.31,4.54.31,6.61q0,9.58-3.18,10.76a3.55,3.55,0,0,1-1.12.18,8.41,8.41,0,0,1-2-.3q-1.51-.87-4.62-9.7a20.21,20.21,0,0,1,.54,4.59,9.31,9.31,0,0,1-.72,4,2.87,2.87,0,0,1-1.2,1.19,2.64,2.64,0,0,1-1.64.41,3.9,3.9,0,0,1-3.42-3,20.63,20.63,0,0,1-.6-5.8,53.45,53.45,0,0,1,.63-10.27,5.66,5.66,0,0,1,2.21-3.24,3.67,3.67,0,0,1,2.23-.72,4.3,4.3,0,0,1,1.33.21c1.17.62,2.32,2.49,3.45,5.59a39.67,39.67,0,0,1,1.3,4.44c-.2-1.33-.38-2.5-.52-3.5a32.12,32.12,0,0,1-.36-3.9,3.77,3.77,0,0,1,.79-2.45,3.12,3.12,0,0,1,2.56-1.12q2.94,0,3.66,3.27a26.13,26.13,0,0,1,.36,2.8Zm-19.79,3.14a2.89,2.89,0,0,1,.09.93,3.37,3.37,0,0,1-1.3,2.69,3.2,3.2,0,0,1-2.53.88,2.32,2.32,0,0,0-.91,0,9,9,0,0,1-.21,1.93,1.18,1.18,0,0,0,.63,1.09,3.11,3.11,0,0,1,2,0,1.91,1.91,0,0,1,1.36,1.63,3.88,3.88,0,0,1-.76,2.65,7.43,7.43,0,0,1-2.51,2.25,6.64,6.64,0,0,1-3.35.81,7.21,7.21,0,0,1-3-.63,6.91,6.91,0,0,1-1.72-1.69q-1.26-2.06-1.26-8.7a63.33,63.33,0,0,1,.63-8.71c.26-1.89.81-3.12,1.63-3.68l5-.52a11.56,11.56,0,0,1,2.48-.27c1.57,0,2.49.4,2.78,1.18a3.12,3.12,0,0,1,.18,1.09,2.6,2.6,0,0,1-1,2.11,4,4,0,0,1-2.69.82h-.66a4,4,0,0,0-.24,1.45,9.42,9.42,0,0,1-.09,1.45.73.73,0,0,0,.63.54,3.46,3.46,0,0,1,2.21-.69,3,3,0,0,1,2.6,1.39Zm-16.37-8c.76.55,1.15,1.6,1.15,3.17q0,5.07-5,16.44a5.12,5.12,0,0,1-4.08,3.2l-.66.06a7.07,7.07,0,0,1-2.87-.6,4.43,4.43,0,0,1-2-1.6,25.71,25.71,0,0,1-3.11-7.62,31.1,31.1,0,0,1-.94-7.31,12.39,12.39,0,0,1,.37-3.59,3.51,3.51,0,0,1,1.75-2.06,3.93,3.93,0,0,1,2.14-.54,3.13,3.13,0,0,1,2.87,1.72,19.46,19.46,0,0,1,1.15,5.65l.4,3.78q.24-2.18.78-6.45c.36-2.86,1.1-4.54,2.21-5.06a5.18,5.18,0,0,1,2.32-.52,5,5,0,0,1,3.51,1.29Zm-26.83,6.74a1.12,1.12,0,0,0-.82-.51,1.16,1.16,0,0,0-.45.12l-.3.12a60.51,60.51,0,0,1,.42,7.13,4.73,4.73,0,0,0,1.47-1.79,5.23,5.23,0,0,0,.58-2.38,4.15,4.15,0,0,0-.91-2.73Zm7.55,2.72a15.53,15.53,0,0,1-1.81,7.52,10.47,10.47,0,0,1-6.56,5.38,10.35,10.35,0,0,1-4.24-.56c-1.26-.48-1.93-1.1-2-1.86q-.54-8.07-.55-15.5a29.92,29.92,0,0,1,.13-3.92q.75-1.63,4.86-1.64a13.83,13.83,0,0,1,4.14.55,9.1,9.1,0,0,1,3.44,2.9,11.51,11.51,0,0,1,2.58,7.09Zm-25.2,2.69a46.5,46.5,0,0,0-.3-7.65q-.21-.21-.63.15c-.26,1.72-.46,3.11-.58,4.17a19.1,19.1,0,0,0-.21,3.21.52.52,0,0,0,.52.33,6,6,0,0,0,.61-.11,3.77,3.77,0,0,1,.58-.14Zm7.65,7.91h0a2.2,2.2,0,0,1-1.78,1.82,7,7,0,0,1-1.58.18,3.9,3.9,0,0,1-2.41-.7,8.09,8.09,0,0,1-.79-1.15,4.61,4.61,0,0,1-.39-2,15.79,15.79,0,0,0-2.75.12c0,.27.09.54.12.82a5.63,5.63,0,0,1-.69,2.56,3,3,0,0,1-2.57,1.24,9.57,9.57,0,0,1-2-.3l-.06-.06c-1.71-.84-2.57-3-2.57-6.31,0-.23,0-.75.06-1.57a45.37,45.37,0,0,1,.88-7.44,18.17,18.17,0,0,1,3.2-6.83,6.1,6.1,0,0,1,5.17-2.32,6.62,6.62,0,0,1,5.47,2.26,7.94,7.94,0,0,1,1.54,3.12,45.15,45.15,0,0,1,1.66,11.21,28.7,28.7,0,0,1-.52,5.31Zm-36.56-14.62h0a.8.8,0,0,0-.3-.06,1.25,1.25,0,0,0-1.25,1.25,1.27,1.27,0,0,0,.25.75v3.15a5.4,5.4,0,0,0,2-1.14,2.12,2.12,0,0,0,.8-1.55,3.34,3.34,0,0,0-1.51-2.44Zm8.64,14.08h0a6.06,6.06,0,0,1-1.42,1.84,4.77,4.77,0,0,1-2.63,1.33c-1.71.18-3.47-1.57-5.26-5.23a10.24,10.24,0,0,1,.1,1.36,4.56,4.56,0,0,1-.91,3,4.9,4.9,0,0,1-2.78,1,5,5,0,0,1-1.09-.12,4.27,4.27,0,0,1-2.36-1.21,5.33,5.33,0,0,1-.73-3.26v-1.21c-.06-.06,0-1.86.06-5.41a73.57,73.57,0,0,1,.7-9.15c.26-1.51,1.32-2.55,3.2-3.11a31.79,31.79,0,0,1,5.22-.79c3.09.1,5.2,1.13,6.35,3.08a13,13,0,0,1,1.27,5.38,6.77,6.77,0,0,1-1.36,4.2c-.54.56-1.12,1.09-1.72,1.6,2.27,2.46,3.41,4.51,3.41,6.17a4.53,4.53,0,0,1-.06.5Zm-19.22-17.19h0c.08.94.12,2,.12,3.17a36.4,36.4,0,0,1-2.21,12.81,7.92,7.92,0,0,1-1.8,2.8,6,6,0,0,1-2.55,1.64,19.56,19.56,0,0,1-2.42.18,9.66,9.66,0,0,1-5.62-1.57,7.77,7.77,0,0,1-3-4.2,19.46,19.46,0,0,1-.66-5.68,32.9,32.9,0,0,1,1-9.06,4.08,4.08,0,0,1,1.44-2,4.29,4.29,0,0,1,2.22-1,3,3,0,0,1,1.92.5,3.67,3.67,0,0,1,1.4,1.52,13.13,13.13,0,0,1,.09,1.54,34,34,0,0,1-.54,4.26,32.81,32.81,0,0,0-.54,4.2,8.62,8.62,0,0,0,.12,1.6,2.25,2.25,0,0,0,1,1,1.86,1.86,0,0,0,1.42-.24,3.93,3.93,0,0,0,1-2.24q0-2.07.09-5.28c.2-1.74.33-2.8.39-3.21a14.51,14.51,0,0,1,.58-2.63,3,3,0,0,1,2.48-1.72,3.59,3.59,0,0,1,2.38,1,6.16,6.16,0,0,1,1.68,2.57Zm-28.34,12.9h0c.59-.1.88-1.22.88-3.36a16,16,0,0,0-.33-3.39c-.22-1-.46-1.58-.73-1.62-.44-.12-.84.36-1.2,1.45a11,11,0,0,0-.55,3.6c0,2.36.64,3.48,1.92,3.28Zm7.5,2.17h0a7.41,7.41,0,0,1-2.77,3.87,7.62,7.62,0,0,1-4.57,1.42,8.78,8.78,0,0,1-7.47-3.62,12.34,12.34,0,0,1-2.26-7.5,18,18,0,0,1,.36-3.74q1.67-7.89,7-8.89a5.55,5.55,0,0,1,1-.09,8.12,8.12,0,0,1,4.7,1.6,7.77,7.77,0,0,1,3.06,3.9,25.92,25.92,0,0,1,1.69,7.77,18.38,18.38,0,0,1-.87,5.25Zm-33.81-17.94h0a3.42,3.42,0,0,1,1.63-.4,2.81,2.81,0,0,1,2.69,1.49,7.3,7.3,0,0,1,1.27,2.65c.26.93.56,1.85.91,2.75q1.32-5.67,3.11-7.43a4.72,4.72,0,0,1,1.78-.33,3.3,3.3,0,0,1,2.27.75,3.89,3.89,0,0,1,1.6,3.48,18.92,18.92,0,0,1-1.54,5.41c-.51,1.12-1.35,2.79-2.54,5v3.84a10.11,10.11,0,0,1-.7,3.72,4.25,4.25,0,0,1-2.63,2.41l-.69.06a3.42,3.42,0,0,1-3.35-1.9,9.49,9.49,0,0,1-.43-3.17v-3.39q-5-8.46-5-12a3,3,0,0,1,1.61-3Zm-11.12,3.2h0a5.81,5.81,0,0,1,.09,1.18,3.46,3.46,0,0,1-.72,2.29,6.73,6.73,0,0,1-2.44.71,10,10,0,0,0-2.22.53c0,.23.19,2.33.7,6.32a19.53,19.53,0,0,1,.15,2.42,12.07,12.07,0,0,1-.73,4.53c-.6,1.49-1.49,2.21-2.65,2.17a4.69,4.69,0,0,1-4-1.78,7.53,7.53,0,0,1-.88-4c0,.16,0-.89.12-3.17l.15-3.87a21.92,21.92,0,0,1,.4-3.14,2.51,2.51,0,0,1-.55.06,6.81,6.81,0,0,1-2-.33,3.3,3.3,0,0,1-1.91-1.33,4.72,4.72,0,0,1-.72-2.33,3.07,3.07,0,0,1,2-2.81,13.69,13.69,0,0,1,6.2-1.3,21.5,21.5,0,0,1,4,.37l3,1.11a3.46,3.46,0,0,1,2,2.33Zm-27.28,2.78h0a.8.8,0,0,0-.3-.06,1.25,1.25,0,0,0-1.25,1.25,1.27,1.27,0,0,0,.25.75v3.15a5.69,5.69,0,0,0,2-1.14,2.12,2.12,0,0,0,.8-1.55,3.39,3.39,0,0,0-1.51-2.44Zm8.64,14.08h0a6.35,6.35,0,0,1-1.42,1.84,4.77,4.77,0,0,1-2.63,1.33c-1.71.18-3.47-1.57-5.26-5.23a10.24,10.24,0,0,1,.09,1.36,4.5,4.5,0,0,1-.9,3,4.9,4.9,0,0,1-2.78,1,5,5,0,0,1-1.09-.12,4.36,4.36,0,0,1-2.33-1.15,5.41,5.41,0,0,1-.72-3.26v-1.21c-.06-.06,0-1.86.06-5.41a73.7,73.7,0,0,1,.69-9.15c.27-1.51,1.33-2.55,3.21-3.11a31.79,31.79,0,0,1,5.22-.79c3.09.1,5.2,1.13,6.35,3.08a13.15,13.15,0,0,1,1.27,5.38,6.77,6.77,0,0,1-1.36,4.2c-.54.56-1.12,1.09-1.72,1.6,2.27,2.46,3.41,4.51,3.41,6.17a3.48,3.48,0,0,1-.1.44Zm-27.16-7.37a46.5,46.5,0,0,0-.3-7.65c-.15-.14-.36-.09-.64.15q-.39,2.58-.57,4.17a17.21,17.21,0,0,0-.21,3.21.53.53,0,0,0,.51.33,6.17,6.17,0,0,0,.62-.11,3.77,3.77,0,0,1,.58-.14Zm7.64,7.91h0a2.19,2.19,0,0,1-1.78,1.82,6.87,6.87,0,0,1-1.57.18,3.94,3.94,0,0,1-2.42-.7,9.78,9.78,0,0,1-.79-1.15,4.61,4.61,0,0,1-.39-2,15.79,15.79,0,0,0-2.75.12c0,.27.09.54.12.82a5.63,5.63,0,0,1-.69,2.56,3,3,0,0,1-2.57,1.24,9,9,0,0,1-2-.3l-.06-.06c-1.72-.84-2.57-3-2.57-6.31,0-.23,0-.75.06-1.57a44.3,44.3,0,0,1,.87-7.44,18.26,18.26,0,0,1,3.21-6.83,6.11,6.11,0,0,1,5.16-2.32,6.62,6.62,0,0,1,5.47,2.26,7.82,7.82,0,0,1,1.5,3.11,45.15,45.15,0,0,1,1.66,11.21,28.83,28.83,0,0,1-.47,5.32Zm-18.91-17.4h0a5.81,5.81,0,0,1,.09,1.18,3.45,3.45,0,0,1-.73,2.29,6.44,6.44,0,0,1-2.43.71,10,10,0,0,0-2.22.53c0,.23.19,2.33.7,6.32a19.53,19.53,0,0,1,.15,2.42,12.07,12.07,0,0,1-.73,4.53c-.6,1.49-1.49,2.21-2.66,2.17a4.71,4.71,0,0,1-4-1.78,7.64,7.64,0,0,1-.87-4c0,.16,0-.89.12-3.17l.15-3.87a23.42,23.42,0,0,1,.39-3.14,2.48,2.48,0,0,1-.54.06,7.21,7.21,0,0,1-2.06-.33,3.27,3.27,0,0,1-1.9-1.33,4.72,4.72,0,0,1-.72-2.33,3.07,3.07,0,0,1,2-2.81,13.62,13.62,0,0,1,6.19-1.3,21.5,21.5,0,0,1,4,.37l3,1.11a3.44,3.44,0,0,1,2.06,2.33Zm-28.14,13.83h0c.72-.18,1.1-.55,1.12-1.09a.82.82,0,0,0-.26-.57,13.78,13.78,0,0,0-1.92-1.3,14.56,14.56,0,0,1-2-1.48,8.33,8.33,0,0,1-1.6-2.3,8.7,8.7,0,0,1-.94-3.87,7,7,0,0,1,2.24-5.07,8.07,8.07,0,0,1,5.92-2.48,6.86,6.86,0,0,1,3.59.94,7.74,7.74,0,0,1,2.15,2.23,2.79,2.79,0,0,1,.51,1.36,3.25,3.25,0,0,1-.72,1.85h0a2.64,2.64,0,0,1-2,1.35,5.62,5.62,0,0,1-1-.15c-.65-.16-1-.72-1.12-1.69,0-.38-.33-.57-.88-.57a1.33,1.33,0,0,0-.75.21,2.33,2.33,0,0,0-.34,1.21,2.1,2.1,0,0,0,1,1.72,52.12,52.12,0,0,1,4.2,3.14,6.84,6.84,0,0,1,2.42,4.5,10.39,10.39,0,0,0,.09,1.54c0,2.6-1.52,4.62-4.69,6.08a8.27,8.27,0,0,1-3.38.81l-.66-.06h-.06c-3.87-.62-6-2.08-6.26-4.38-.08-.52-.13-.89-.16-1.1s-.05-.28-.05-.2a2.2,2.2,0,0,1,.48-1.42,1.4,1.4,0,0,1,1.09-.6,5.47,5.47,0,0,1,1.6.71,5.08,5.08,0,0,0,1.85.71l.51-.06Zm216.51-42.53a1.11,1.11,0,0,0-.82-.52,1.16,1.16,0,0,0-.45.12l-.3.12a60.51,60.51,0,0,1,.42,7.13,4.6,4.6,0,0,0,1.46-1.78,5.12,5.12,0,0,0,.59-2.39A4.14,4.14,0,0,0,1913.66,821.37Zm7.55,2.71a15.57,15.57,0,0,1-1.81,7.53,10.47,10.47,0,0,1-6.56,5.38,10.35,10.35,0,0,1-4.24-.56c-1.26-.48-1.93-1.1-2-1.86q-.54-8.07-.55-15.5,0-2.75.12-3.93.76-1.64,4.87-1.63a14.49,14.49,0,0,1,4.14.54,9.1,9.1,0,0,1,3.44,2.9,11.65,11.65,0,0,1,2.59,7.13Zm-17.55-4.56h0c.2,2.34.3,4.54.3,6.62q0,9.57-3.17,10.75a3.07,3.07,0,0,1-1.12.19,8.42,8.42,0,0,1-2-.31q-1.5-.84-4.62-9.69a20.22,20.22,0,0,1,.55,4.59,9.18,9.18,0,0,1-.73,4,2.9,2.9,0,0,1-1.19,1.19,2.73,2.73,0,0,1-1.65.41,3.88,3.88,0,0,1-3.41-3,20.34,20.34,0,0,1-.61-5.81c0-5.09.21-8.52.64-10.27a5.54,5.54,0,0,1,2.2-3.23,3.69,3.69,0,0,1,2.24-.73,4,4,0,0,1,1.33.22c1.17.62,2.31,2.48,3.44,5.59a35.85,35.85,0,0,1,1.3,4.44q-.3-2-.51-3.51a31.94,31.94,0,0,1-.36-3.9,3.75,3.75,0,0,1,.78-2.44,3.09,3.09,0,0,1,2.57-1.12c1.95,0,3.16,1.08,3.65,3.26A23.83,23.83,0,0,1,1903.66,819.52Zm-27.8,7.25a46.42,46.42,0,0,0-.3-7.64c-.14-.14-.35-.09-.64.15q-.39,2.57-.57,4.17a19.05,19.05,0,0,0-.21,3.2.54.54,0,0,0,.51.34,6.17,6.17,0,0,0,.62-.11A3.84,3.84,0,0,1,1875.86,826.77Zm7.64,7.92h0a2.17,2.17,0,0,1-1.78,1.81,6.87,6.87,0,0,1-1.57.18,4.07,4.07,0,0,1-2.42-.69,9.86,9.86,0,0,1-.73-1.09,4.61,4.61,0,0,1-.39-2,15.79,15.79,0,0,0-2.75.12q.06.27.12.81a5.53,5.53,0,0,1-.7,2.57,2.93,2.93,0,0,1-2.57,1.24,9.57,9.57,0,0,1-2-.3l-.06-.06c-1.71-.85-2.57-3-2.57-6.32,0-.22,0-.74.06-1.57a42.76,42.76,0,0,1,.86-7.49,17.87,17.87,0,0,1,3.2-6.83,6.11,6.11,0,0,1,5.17-2.33,6.6,6.6,0,0,1,5.47,2.27,8,8,0,0,1,1.54,3.11,45.22,45.22,0,0,1,1.66,11.21A27.61,27.61,0,0,1,1883.5,834.69ZM1847,820.07h0a.81.81,0,0,0-.31-.06,3.9,3.9,0,0,0-.93.42,4.42,4.42,0,0,0-.09,1.54v3.14a5.66,5.66,0,0,0,2-1.13,2.12,2.12,0,0,0,.8-1.56A3.37,3.37,0,0,0,1847,820.07Zm8.64,14.08h0a6.53,6.53,0,0,1-1.42,1.84,4.84,4.84,0,0,1-2.63,1.33c-1.71.18-3.47-1.56-5.26-5.23a10.24,10.24,0,0,1,.09,1.36,4.5,4.5,0,0,1-.9,3,4.9,4.9,0,0,1-2.78,1,5,5,0,0,1-1.09-.12,4.36,4.36,0,0,1-2.33-1.15,5.41,5.41,0,0,1-.72-3.26v-1.21c-.06-.06,0-1.87.06-5.41a73.7,73.7,0,0,1,.69-9.15c.26-1.52,1.33-2.55,3.21-3.12a32.88,32.88,0,0,1,5.22-.78c3.08.1,5.2,1.12,6.35,3.08a13.15,13.15,0,0,1,1.27,5.38,6.77,6.77,0,0,1-1.36,4.2c-.55.56-1.13,1.09-1.73,1.6q3.42,3.69,3.42,6.16a4.34,4.34,0,0,1-.14.48Zm-19.16-11.49a3,3,0,0,1,.09.94,3.37,3.37,0,0,1-1.3,2.69,3.2,3.2,0,0,1-2.53.88,2.32,2.32,0,0,0-.91,0,9,9,0,0,1-.21,1.93,1.19,1.19,0,0,0,.63,1.09,3.11,3.11,0,0,1,2,0,1.9,1.9,0,0,1,1.36,1.63,3.86,3.86,0,0,1-.76,2.64,7.23,7.23,0,0,1-2.51,2.25,6.53,6.53,0,0,1-3.35.82,7,7,0,0,1-3-.64,6.58,6.58,0,0,1-1.72-1.69c-.83-1.38-1.26-4.27-1.27-8.67a63.3,63.3,0,0,1,.63-8.7c.26-1.89.81-3.12,1.63-3.69l5-.51a11.56,11.56,0,0,1,2.48-.27c1.57,0,2.49.39,2.78,1.18a3,3,0,0,1,.18,1.08,2.69,2.69,0,0,1-1,2.12,4.11,4.11,0,0,1-2.69.82q-.33,0-.66,0a4.17,4.17,0,0,0-.25,1.45,9.55,9.55,0,0,1-.09,1.45.75.75,0,0,0,.64.54,3.42,3.42,0,0,1,2.2-.7,3.08,3.08,0,0,1,2.58,1.36Zm-15-5.37h0a5.66,5.66,0,0,1,.09,1.17,3.48,3.48,0,0,1-.73,2.3,6.68,6.68,0,0,1-2.43.71,9.45,9.45,0,0,0-2.22.53c0,.22.19,2.33.69,6.31a17.78,17.78,0,0,1,.16,2.42,12.07,12.07,0,0,1-.73,4.53c-.6,1.49-1.49,2.22-2.66,2.18a4.63,4.63,0,0,1-4-1.78,7.64,7.64,0,0,1-.87-4c0,.16,0-.9.12-3.17l.15-3.87a23.42,23.42,0,0,1,.39-3.14,2.48,2.48,0,0,1-.54.06,6.54,6.54,0,0,1-2.06-.34,3.24,3.24,0,0,1-1.84-1.3,4.68,4.68,0,0,1-.72-2.32,3.06,3.06,0,0,1,2-2.81,13.49,13.49,0,0,1,6.19-1.3,22.37,22.37,0,0,1,4,.36l3,1.12A3.43,3.43,0,0,1,1821.48,817.29ZM1803,829.58v.88q0,4.41-3.36,6a9.52,9.52,0,0,1-4,.88,6.94,6.94,0,0,1-4.68-1.6q-3.81-3.36-3.78-9.43a33.48,33.48,0,0,1,.64-6,11.9,11.9,0,0,1,2.08-4.81,5.57,5.57,0,0,1,2.29-1.76,7.41,7.41,0,0,1,3.21-.68,7,7,0,0,1,3.73,1,7.33,7.33,0,0,1,2.71,2.79,5.07,5.07,0,0,1,.6,2.36,4,4,0,0,1-.6,2.27,3,3,0,0,1-2.18,1.54,4.13,4.13,0,0,1-3.74-1.91q0-.09-.12-.72a.4.4,0,0,0-.46-.45l-.3.54c-.2,4.27-.3,6.45-.3,6.56a16.38,16.38,0,0,0,.06,1.72,1.21,1.21,0,0,0,.72,1.12,5.52,5.52,0,0,0,2.41-1.55c1.13-1,1.91-1.51,2.34-1.51a2.31,2.31,0,0,1,1,.22A2.36,2.36,0,0,1,1803,829.58Zm-25.75-2.81a44.33,44.33,0,0,0-.3-7.64q-.21-.21-.63.15c-.26,1.71-.46,3.1-.58,4.17a19.05,19.05,0,0,0-.21,3.2.53.53,0,0,0,.52.34,6.17,6.17,0,0,0,.62-.11,3.82,3.82,0,0,1,.57-.11Zm7.65,7.92h0a2.18,2.18,0,0,1-1.78,1.81,7,7,0,0,1-1.58.18,4,4,0,0,1-2.41-.69,8.09,8.09,0,0,1-.79-1.15,4.61,4.61,0,0,1-.39-2,15.79,15.79,0,0,0-2.75.12q.06.27.12.81a5.64,5.64,0,0,1-.69,2.57,3,3,0,0,1-2.57,1.24,9.57,9.57,0,0,1-2-.3l-.06-.06c-1.71-.85-2.56-3-2.56-6.32,0-.22,0-.74.06-1.57a44.06,44.06,0,0,1,.87-7.43,18.17,18.17,0,0,1,3.2-6.83,6.11,6.11,0,0,1,5.17-2.33,6.6,6.6,0,0,1,5.47,2.27,8,8,0,0,1,1.54,3.11,45.15,45.15,0,0,1,1.66,11.21,28.39,28.39,0,0,1-.52,5.36Zm-28.1-14.62h0a.8.8,0,0,0-.3-.06,4.16,4.16,0,0,0-.94.42,4.42,4.42,0,0,0-.09,1.54v3.14a5.51,5.51,0,0,0,2-1.13,2.12,2.12,0,0,0,.8-1.56,3.35,3.35,0,0,0-1.48-2.35Zm8.64,14.08h0A6.35,6.35,0,0,1,1764,836a4.84,4.84,0,0,1-2.63,1.33c-1.71.18-3.46-1.57-5.25-5.23a10.24,10.24,0,0,1,.09,1.36,4.51,4.51,0,0,1-.91,3,4.9,4.9,0,0,1-2.78,1,5,5,0,0,1-1.09-.12,4.37,4.37,0,0,1-2.32-1.15,5.33,5.33,0,0,1-.73-3.26v-1.21c-.06-.06,0-1.87.06-5.41a73.57,73.57,0,0,1,.7-9.15c.26-1.52,1.33-2.55,3.2-3.12a33,33,0,0,1,5.23-.78c3.08.1,5.19,1.12,6.34,3.08a12.84,12.84,0,0,1,1.27,5.38,6.77,6.77,0,0,1-1.36,4.2c-.14.18-.72.71-1.72,1.6,2.27,2.46,3.4,4.51,3.41,6.16a4.1,4.1,0,0,1-.1.48Zm-27.16-7.38a46.42,46.42,0,0,0-.3-7.64c-.14-.14-.36-.09-.64.15q-.39,2.57-.57,4.17a19.05,19.05,0,0,0-.21,3.2.54.54,0,0,0,.51.34,6.17,6.17,0,0,0,.62-.11,3.71,3.71,0,0,1,.58-.11Zm7.64,7.92h0a2.17,2.17,0,0,1-1.78,1.81,6.87,6.87,0,0,1-1.57.18,4.07,4.07,0,0,1-2.42-.69,9.69,9.69,0,0,1-.78-1.15,4.62,4.62,0,0,1-.4-2,15.79,15.79,0,0,0-2.75.12,5.27,5.27,0,0,1,.13.81,5.53,5.53,0,0,1-.7,2.57,2.93,2.93,0,0,1-2.57,1.24,9,9,0,0,1-2-.3l-.06-.06c-1.71-.85-2.57-3-2.57-6.32,0-.22,0-.74.06-1.57a43.07,43.07,0,0,1,.88-7.43,17.87,17.87,0,0,1,3.2-6.83,6.11,6.11,0,0,1,5.17-2.33,6.57,6.57,0,0,1,5.46,2.27,7.92,7.92,0,0,1,1.55,3.11,45.22,45.22,0,0,1,1.66,11.21,27.59,27.59,0,0,1-.52,5.36Zm-35.68-19.4h0a4.55,4.55,0,0,1,3.36-1.33,5,5,0,0,1,2.47.46,3.93,3.93,0,0,1,.94,2.75c-.12,1-.21,2.3-.27,4,.24.89.6,1.33,1.08,1.33a2.49,2.49,0,0,0,.85-.27c.22-.1.39-.51.51-1.24-.12-1-.2-2.49-.24-4.32a3.57,3.57,0,0,1,2-2.72,4.88,4.88,0,0,1,1.78-.27,5.64,5.64,0,0,1,1.42.06,2.57,2.57,0,0,1,1.81,2.06c.1.34.21.67.33,1a8.42,8.42,0,0,1,.31,2q.18,4.23.18,6.34a36.55,36.55,0,0,1-1.54,9.85,3.15,3.15,0,0,1-2.66,2.12,2.83,2.83,0,0,1-2.24-.28,3.2,3.2,0,0,1-1.33-2.5,10,10,0,0,1,0-1.73,14.14,14.14,0,0,0,.07-1.72.89.89,0,0,0-1-.75,1.93,1.93,0,0,0-1.91,2v0c.1.4.25,1.12.43,2.15a3,3,0,0,1-.09,1.57,2.38,2.38,0,0,1-1.18,1.18,5.64,5.64,0,0,1-2,.24,3,3,0,0,1-2.29-1,6.49,6.49,0,0,1-1.27-2.69,18.1,18.1,0,0,1-.67-4.62c-.06-2.44-.09-4.53-.09-6.25,0-3.81.45-6.27,1.23-7.42Zm-2.84,14.29v.88q0,4.41-3.35,6a9.52,9.52,0,0,1-4,.88,6.94,6.94,0,0,1-4.68-1.6q-3.81-3.36-3.78-9.43a33.47,33.47,0,0,1,.63-6,11.78,11.78,0,0,1,2.09-4.81,5.48,5.48,0,0,1,2.28-1.76,7.46,7.46,0,0,1,3.22-.68,7,7,0,0,1,3.73,1,7.24,7.24,0,0,1,2.7,2.79,5.08,5.08,0,0,1,.61,2.36,4,4,0,0,1-.61,2.27,2.93,2.93,0,0,1-2.17,1.54,4.16,4.16,0,0,1-3.75-1.91q0-.09-.12-.72t-.45-.45l-.3.54c-.21,4.27-.31,6.45-.31,6.56a16.38,16.38,0,0,0,.06,1.72,1.22,1.22,0,0,0,.73,1.12,5.54,5.54,0,0,0,2.4-1.55c1.14-1,1.92-1.51,2.34-1.51a2.31,2.31,0,0,1,1,.22,2.35,2.35,0,0,1,1.72,2.54Zm167.72-42.26h0a.81.81,0,0,0-.31-.06,3.93,3.93,0,0,0-.93.43,4.42,4.42,0,0,0-.09,1.54v3.14a5.56,5.56,0,0,0,1.94-1.13,2.17,2.17,0,0,0,.81-1.56,3.36,3.36,0,0,0-1.43-2.36Zm8.64,14.08h0a6.53,6.53,0,0,1-1.42,1.84,4.77,4.77,0,0,1-2.63,1.33c-1.71.19-3.47-1.56-5.26-5.22a10.24,10.24,0,0,1,.09,1.36,4.46,4.46,0,0,1-.91,3,4.9,4.9,0,0,1-2.77,1,5,5,0,0,1-1.09-.12,4.46,4.46,0,0,1-2.33-1.14,5.44,5.44,0,0,1-.72-3.27V798.9q-.09-.09.06-5.4a73.72,73.72,0,0,1,.69-9.16q.39-2.26,3.2-3.11a34.22,34.22,0,0,1,5.23-.79q4.62.15,6.35,3.09a13,13,0,0,1,1.26,5.37,6.65,6.65,0,0,1-1.36,4.2,21.71,21.71,0,0,1-1.72,1.6c2.28,2.46,3.42,4.51,3.42,6.17a3.29,3.29,0,0,1-.1.53Zm-19.22-17.19h0c.08,1,.12,2,.12,3.17a36.16,36.16,0,0,1-2.2,12.81,8.15,8.15,0,0,1-1.8,2.8,6.17,6.17,0,0,1-2.55,1.64,16.33,16.33,0,0,1-2.42.19,9.65,9.65,0,0,1-5.62-1.58,7.75,7.75,0,0,1-3-4.19,18.88,18.88,0,0,1-.67-5.69,32.9,32.9,0,0,1,1.06-9.06,3.93,3.93,0,0,1,1.44-2,4.21,4.21,0,0,1,2.22-1,3,3,0,0,1,1.91.5,3.51,3.51,0,0,1,1.41,1.52,13.3,13.3,0,0,1,.09,1.55,34,34,0,0,1-.54,4.26,32.68,32.68,0,0,0-.55,4.19,8.73,8.73,0,0,0,.12,1.61,2.3,2.3,0,0,0,1,1,1.91,1.91,0,0,0,1.42-.24,4,4,0,0,0,1-2.23c0-1.37,0-3.14.09-5.29.2-1.73.33-2.8.39-3.2a13,13,0,0,1,.57-2.63,3,3,0,0,1,2.48-1.72,3.63,3.63,0,0,1,2.39,1,6.35,6.35,0,0,1,1.63,2.59Zm-28.34,12.9h0c.58-.1.88-1.22.88-3.35a15.45,15.45,0,0,0-.34-3.4q-.33-1.56-.72-1.62c-.44-.12-.85.37-1.21,1.45a11.55,11.55,0,0,0-.54,3.6c0,2.41.63,3.52,1.92,3.32Zm7.49,2.18h0a7.41,7.41,0,0,1-2.76,3.86,7.65,7.65,0,0,1-4.58,1.42,8.7,8.7,0,0,1-7.46-3.62,12.33,12.33,0,0,1-2.27-7.49,17.48,17.48,0,0,1,.37-3.75q1.65-7.89,7-8.88a5.55,5.55,0,0,1,1-.09,8,8,0,0,1,4.7,1.6,7.84,7.84,0,0,1,3.07,3.9,25.79,25.79,0,0,1,1.69,7.76,18.12,18.12,0,0,1-.88,5.26Zm-33.81-17.95h0a3.41,3.41,0,0,1,1.63-.39,2.83,2.83,0,0,1,2.69,1.48,7.41,7.41,0,0,1,1.26,2.66c.53,1.69.83,2.61.91,2.75.89-3.79,1.92-6.27,3.11-7.44a4.77,4.77,0,0,1,1.79-.33,3.22,3.22,0,0,1,2.26.76,3.84,3.84,0,0,1,1.6,3.47,18.3,18.3,0,0,1-1.54,5.41q-.75,1.69-2.54,5v3.84a10.31,10.31,0,0,1-.69,3.72,4.29,4.29,0,0,1-2.63,2.42l-.69.06a3.43,3.43,0,0,1-3.36-1.91,10,10,0,0,1-.42-3.17v-3.38q-5-8.46-5-12a3,3,0,0,1,1.61-2.95Zm-11.67,8.56a3,3,0,0,1,.09.94,3.37,3.37,0,0,1-1.3,2.69,3.24,3.24,0,0,1-2.53.87,2.32,2.32,0,0,0-.91,0,9.08,9.08,0,0,1-.21,1.94,1.17,1.17,0,0,0,.63,1.08,3.11,3.11,0,0,1,2,0,1.94,1.94,0,0,1,1.36,1.64,3.86,3.86,0,0,1-.76,2.64,7.23,7.23,0,0,1-2.51,2.25,6.73,6.73,0,0,1-3.35.82,7.38,7.38,0,0,1-3-.64,6.58,6.58,0,0,1-1.72-1.69q-1.24-2.07-1.27-8.67a63.3,63.3,0,0,1,.63-8.7c.26-1.9.81-3.13,1.63-3.69l5-.51a11.56,11.56,0,0,1,2.48-.27c1.57,0,2.49.39,2.78,1.17a3.37,3.37,0,0,1,.18,1.09,2.63,2.63,0,0,1-1,2.12,4.07,4.07,0,0,1-2.69.81h-.66a4,4,0,0,0-.24,1.45c0,.85-.08,1.33-.1,1.45a.75.75,0,0,0,.64.55,3.37,3.37,0,0,1,2.2-.7A3,3,0,0,1,1798.21,789.9Zm-25,8.49h0c.72-.18,1.09-.54,1.11-1.09a.86.86,0,0,0-.25-.57,13.78,13.78,0,0,0-1.92-1.3,14.56,14.56,0,0,1-2-1.48,8.48,8.48,0,0,1-1.6-2.3,8.78,8.78,0,0,1-.93-3.86,7,7,0,0,1,2.23-5.08,8.07,8.07,0,0,1,5.92-2.48,6.9,6.9,0,0,1,3.6.94,7.62,7.62,0,0,1,2.14,2.24,2.56,2.56,0,0,1,.52,1.35,3.26,3.26,0,0,1-.73,1.85h0a2.66,2.66,0,0,1-2,1.36,5.62,5.62,0,0,1-1-.15c-.64-.16-1-.73-1.12-1.7q-.06-.57-.87-.57a1.36,1.36,0,0,0-.76.21,2.55,2.55,0,0,0-.33,1.21,2,2,0,0,0,1,1.72q3.55,2.52,4.2,3.14a6.85,6.85,0,0,1,2.41,4.51c0,.38.05.89.09,1.54q.06,3.9-4.68,6.07a8.28,8.28,0,0,1-3.38.82c-.22,0-.45,0-.67-.06h-.06c-3.86-.63-6-2.09-6.25-4.39-.08-.52-.14-.89-.17-1.1s0-.28,0-.19a2.2,2.2,0,0,1,.48-1.42,1.34,1.34,0,0,1,1.09-.61,6.36,6.36,0,0,1,1.6.71,5.3,5.3,0,0,0,1.84.71,4.6,4.6,0,0,0,.52-.06Zm-15.65-1.3h0c.58-.1.87-1.22.87-3.35a16.13,16.13,0,0,0-.33-3.4c-.22-1-.46-1.58-.73-1.62-.44-.12-.84.37-1.2,1.45a11,11,0,0,0-.55,3.6c0,2.43.67,3.54,2,3.34Zm7.49,2.18h0a7.37,7.37,0,0,1-2.77,3.86,7.62,7.62,0,0,1-4.57,1.42,8.73,8.73,0,0,1-7.47-3.62,12.33,12.33,0,0,1-2.26-7.49,18.13,18.13,0,0,1,.36-3.75q1.67-7.89,7-8.88a5.55,5.55,0,0,1,1-.09,8,8,0,0,1,4.7,1.6,7.77,7.77,0,0,1,3.06,3.9,25.79,25.79,0,0,1,1.69,7.76,18.51,18.51,0,0,1-.87,5.26Zm-27.13-2.18h0c.58-.1.87-1.22.87-3.35a16.13,16.13,0,0,0-.33-3.4q-.33-1.56-.72-1.62c-.45-.12-.85.37-1.21,1.45a11,11,0,0,0-.55,3.6c0,2.43.67,3.54,2,3.34Zm7.49,2.18h0a7.41,7.41,0,0,1-2.76,3.86,7.65,7.65,0,0,1-4.58,1.42,8.7,8.7,0,0,1-7.46-3.62,12.33,12.33,0,0,1-2.27-7.49,18.13,18.13,0,0,1,.36-3.75q1.66-7.89,7-8.88a5.55,5.55,0,0,1,1-.09,8,8,0,0,1,4.7,1.6,7.77,7.77,0,0,1,3.06,3.9,26.12,26.12,0,0,1,1.7,7.76,18.88,18.88,0,0,1-.88,5.26Zm-35.2-16.74h0a4.54,4.54,0,0,1,3.36-1.33,5.11,5.11,0,0,1,2.47.45,3.93,3.93,0,0,1,.94,2.75c-.12,1-.21,2.32-.27,4,.24.89.6,1.33,1.08,1.33a2.49,2.49,0,0,0,.85-.27c.22-.1.39-.52.51-1.24q-.18-1.58-.24-4.32a3.56,3.56,0,0,1,2-2.72,4.88,4.88,0,0,1,1.78-.27,5.64,5.64,0,0,1,1.42.06,2.56,2.56,0,0,1,1.81,2c.1.34.21.69.33,1a7.94,7.94,0,0,1,.31,2c.12,2.82.18,4.93.18,6.35a36.55,36.55,0,0,1-1.54,9.85,3.13,3.13,0,0,1-2.66,2.11,2.88,2.88,0,0,1-2.24-.27,3.23,3.23,0,0,1-1.33-2.51,9.88,9.88,0,0,1,0-1.72,14.14,14.14,0,0,0,.07-1.72.9.9,0,0,0-1-.76,2,2,0,0,0-1.91,2.06c.1.4.25,1.12.43,2.14a3,3,0,0,1-.09,1.57,2.27,2.27,0,0,1-1.18,1.18,5.64,5.64,0,0,1-2,.24,3,3,0,0,1-2.29-1,6.49,6.49,0,0,1-1.27-2.69,18.1,18.1,0,0,1-.67-4.62q-.09-3.66-.09-6.26c.08-3.78.48-6.27,1.26-7.42Zm-2.84,14.29v.88q0,4.41-3.35,6a9.51,9.51,0,0,1-4,.87,6.81,6.81,0,0,1-4.68-1.6q-3.81-3.36-3.78-9.42a33.47,33.47,0,0,1,.63-6,11.74,11.74,0,0,1,2.09-4.8,5.58,5.58,0,0,1,2.28-1.77,7.6,7.6,0,0,1,3.22-.68,7.1,7.1,0,0,1,3.73,1,7.26,7.26,0,0,1,2.7,2.8,5.08,5.08,0,0,1,.61,2.36,4,4,0,0,1-.61,2.26,2.9,2.9,0,0,1-2.17,1.54,4.15,4.15,0,0,1-3.75-1.9c0-.06-.06-.3-.12-.73s-.19-.47-.45-.45l-.3.55c-.21,4.26-.32,6.45-.31,6.55a16.19,16.19,0,0,0,.06,1.72,1.2,1.2,0,0,0,.73,1.12,5.52,5.52,0,0,0,2.4-1.54c1.14-1,1.92-1.51,2.34-1.51a2.49,2.49,0,0,1,1,.21,2.37,2.37,0,0,1,1.75,2.56Z" style="fill:none"/></clipPath><clipPath id="clip-path-3"><rect x="1681.93" y="772.37" width="369.41" height="109.52" style="fill:none"/></clipPath></defs><title>home-bg--mobile</title><rect x="-2" y="-73.72" width="1003" height="431.16" style="fill:#fff"/><rect id="bg_sand" data-name="bg  sand" y="528.68" width="1000" height="648.76" style="fill:#ffd166"/><g style="clip-path:url(#clip-path)"><polygon id="bg_sky" data-name="bg  sky" points="0 181.51 1001 181.51 1001 536.29 0 539.44 0 181.51" style="fill-rule:evenodd;fill:url(#linear-gradient)"/></g><path id="Rectangle-Copy-8" d="M0,439.44v112c151.94-10.13,187-9.5,256.26-9.18,121.81.56,148.84,6.38,237.46,12.8,4.4.32,109.28,8.11,149.53,11l15.82,1.15c96.53,6.94,158.32,10.88,175.5,10.88q112.53,0,154.37-1.12,7.74-.21,13.06-.45h-.16l-1.31-.11-1-136.62Z" style="fill-rule:evenodd;fill:url(#linear-gradient-2)"/><path d="M834.57,579.61c-16.34,0-73.78-3.56-175.61-10.89l-15.82-1.14c-30.52-2.21-98.43-7.24-131.06-9.65l-18.47-1.37c-23-1.67-41.47-3.26-59.32-4.8-49.11-4.24-87.91-7.58-178-8H248.1c-63.72-.31-102.18-.5-248,9.22l-1.6.11V437.9l1002.5.4L1002,575h.09v3c-3.56.16-8,.31-13.09.45C961.2,579.23,909.25,579.61,834.57,579.61Zm-616.84-39c9.82,0,19.73,0,30.35.1h8.19c90.25.42,129.1,3.77,178.28,8,17.84,1.54,36.28,3.13,59.28,4.8l18.47,1.39c32.63,2.42,100.54,7.45,131.05,9.66l15.83,1.14C760.93,573,818.3,576.58,834.57,576.58c74.65,0,126.58-.38,154.33-1.12,3.78-.1,7.18-.21,10.12-.33L998,441.3,1.5,440.9V549.8c120.43-8,167.22-9.18,216.23-9.18Z" style="fill:#163150"/><path d="M322.56,486.9h0L226,485.62a1,1,0,0,1-.68-1.24,1,1,0,0,1,.68-.68h0L322.56,485a1,1,0,0,1,.68,1.24,1,1,0,0,1-.68.68Z" style="fill:#163150"/><path d="M638.49,519.75h0l-96.56-1.29a1,1,0,0,1-.7-1.23,1,1,0,0,1,.7-.7h0l96.56,1.29a1,1,0,0,1,.7,1.22A1,1,0,0,1,638.49,519.75Z" style="fill:#163150"/><path d="M471,462.49H409.33a1,1,0,0,1-.68-1.24,1,1,0,0,1,.68-.68H471a1,1,0,0,1,1.24.68,1,1,0,0,1-.68,1.24A1.06,1.06,0,0,1,471,462.49Z" style="fill:#163150"/><path d="M758.59,509.84H719.15a1,1,0,0,1-.7-1.23,1,1,0,0,1,.7-.7h39.44a1,1,0,0,1,.7,1.22A1,1,0,0,1,758.59,509.84Z" style="fill:#163150"/><path d="M985.87,467.58H946.43a1,1,0,0,1-.7-1.23,1,1,0,0,1,.7-.7h39.44a1,1,0,0,1,.7,1.22A1,1,0,0,1,985.87,467.58Z" style="fill:#163150"/><path d="M813.51,485.39H568.33a1,1,0,0,1-.7-1.23,1,1,0,0,1,.7-.7H813.51a1,1,0,0,1,.7,1.22A1,1,0,0,1,813.51,485.39Z" style="fill:#163150"/><g style="mask:url(#mask)"><g id="bg_cloud-1" data-name="bg  cloud-1"><polygon points="797.54 226.94 773.59 222.35 765.6 245.4 742.55 253.39 747.14 277.34 731.2 295.79 747.14 314.25 742.55 338.2 765.6 346.19 773.59 369.24 797.54 364.65 816 380.59 834.45 364.65 858.4 369.24 866.39 346.19 889.44 338.2 884.85 314.25 900.79 295.79 884.85 277.34 889.44 253.39 866.39 245.4 858.4 222.35 834.45 226.94 816 211 797.54 226.94" style="fill:#ffd166;fill-rule:evenodd"/><path d="M816,381.65l-18.68-16.14-24.26,4.65L765,346.82l-23.34-8.09,4.65-24.25-16.14-18.69,16.14-18.68-4.68-24.21L765,244.77l8.08-23.34,24.26,4.65L816,209.9l18.69,16.15L859,221.4l8,23.37,23.36,8.13-4.64,24.26,16.13,18.68-16.13,18.69,4.64,24.25-23.36,8-8.08,23.34-24.26-4.65Zm-18.22-17.86L816,379.53l18.23-15.74,23.65,4.53,7.89-22.76,22.76-7.89L884,314l15.74-18.23L884,277.57l4.52-23.67L865.76,246l-7.89-22.76-23.65,4.55L816,212.06,797.77,227.8l-23.65-4.53L766.24,246l-22.77,7.87L748,277.57l-15.74,18.22L748,314l-4.53,23.65,22.76,7.88,7.89,22.77Z" style="fill:#163150"/><path d="M816,382.47l-18.86-16.29-24.5,4.72-8.16-23.57-23.56-8.16,4.69-24.48-16.29-18.87,16.29-18.92-4.69-24.49,23.56-8.16,8.17-23.56,24.48,4.69L816,209.12l18.87,16.29,24.48-4.69,8.16,23.56,23.57,8.16-4.7,24.46,16.29,18.86-16.29,18.87,4.69,24.48-23.56,8.17-8.17,23.62-24.48-4.69Zm-18-19.36,18,15.58,18-15.58,23.41,4.49,7.81-22.54,22.53-7.81-4.48-23.41,15.58-18-15.58-18,4.49-23.42-22.54-7.8-7.81-22.54L834,228.48,816,212.9l-18,15.58L774.58,224l-7.8,22.54-22.54,7.8,4.49,23.42-15.59,18,15.59,18-4.49,23.41L766.78,345l7.8,22.54Z" style="fill:#16314f"/><path d="M876.83,295.79A60.84,60.84,0,1,1,816,235h0a60.84,60.84,0,0,1,60.84,60.84h0" style="fill:#ffefad;fill-rule:evenodd"/><path d="M816,358.06a62.27,62.27,0,1,1,62.27-62.27A62.27,62.27,0,0,1,816,358.06Zm0-121.68a59.41,59.41,0,1,0,59.42,59.41A59.41,59.41,0,0,0,816,236.38Z" style="fill:#163150"/><path d="M816,356.9a61.15,61.15,0,1,1,61.15-61.15A61.15,61.15,0,0,1,816,356.9Zm0-121.68a60.53,60.53,0,1,0,60.53,60.53A60.53,60.53,0,0,0,816,235.22Z" style="fill:#16314f"/><path d="M851.66,246.52A60.83,60.83,0,0,1,776.39,342a60.83,60.83,0,0,0,79.33-92.24c-1.3-1.12-2.66-2.19-4.06-3.2" style="fill:#16314f;fill-rule:evenodd"/><path d="M816.11,275.64c3.29-3.06,6.57-6,9.75-9.11,3.66-3.54,7.74-3.61,11.42,0q6.26,6.06,12.45,12.17a6.84,6.84,0,0,1,.73,9.35,4.64,4.64,0,0,1-6.37,1.5,4.7,4.7,0,0,1-1-.83c-2.07-1.94-4.07-3.94-6.11-5.91-3.35-3.22-7.61-3.26-11-.07-2.06,2-4.07,3.94-6.12,5.9-2.74,2.63-5,2.61-7.79-.07-1.93-1.86-3.85-3.75-5.8-5.6a7.49,7.49,0,0,0-10.59-.2l-.08.08c-1.83,1.67-3.57,3.42-5.28,5.19-2.66,2.76-4.88,3.46-7.08,2.15a6.72,6.72,0,0,1-2.49-8.15,9.94,9.94,0,0,1,2.09-3q6.23-6.23,12.59-12.33c3.62-3.49,7.6-3.45,11.25,0,3.15,3,6.31,6,9.4,8.91" style="fill:#ffd166;fill-rule:evenodd"/><path d="M837.88,304.64c-.94,1.71-1.56,3.69-2.88,5.07-4.21,4.4-8.66,8.61-13.06,12.85-3.94,3.78-8.12,3.74-12.06,0q-6.54-6.3-13-12.61c-2.82-2.76-3.26-6.3-1.26-9.36s5.45-3.57,8.22-.92c2.1,2,4.14,4.08,6.26,6.08,3.54,3.36,8.1,3.33,11.65,0,1.85-1.76,3.72-3.49,5.51-5.3s3.46-3.2,6.19-2.22c2.18.77,3.89,3.52,4.45,6.49" style="fill:#ffd166;fill-rule:evenodd"/><path d="M608,403.35h398.6l1.28-.13a36.33,36.33,0,0,0,14-67.92l-.93-.51.22-1a80.38,80.38,0,0,0-141.93-66.55l-.42.55h-.69a41.36,41.36,0,0,0-40.64,35.44l-.4,2.74-2-1.91a53.93,53.93,0,0,0-75.92,1.51l-1.09,1.13-1-1.19a53.94,53.94,0,0,0-94.53,28.77l-.09.72-.63.36a36.4,36.4,0,0,0-11.58,10.3l-.8,1.1-1.14-.75a24.36,24.36,0,0,0-37.72,20.39v2.06h-1.47a17.44,17.44,0,0,0-2.32,34.73Z" style="fill:#fff;fill-rule:evenodd"/><path d="M1006.6,404.78H607.87l-1.24-.17A18.87,18.87,0,0,1,609.14,367h0v-.63a25.8,25.8,0,0,1,39.94-21.58h0a38.35,38.35,0,0,1,12-10.71h0a55.36,55.36,0,0,1,97-29.53h0A55.34,55.34,0,0,1,836,303h0a43,43,0,0,1,42-36.67A81.82,81.82,0,0,1,1022.44,334,37.76,37.76,0,0,1,1008,404.59v.13ZM608.06,401.9h398.4l1.28-.13a34.9,34.9,0,0,0,13.42-65.25l-1.85-1,.45-2.07a78.95,78.95,0,0,0-139.39-65.28l-.85,1.09h-1.38a40.14,40.14,0,0,0-39.24,34.21l-.79,5.49-4-3.82a52.49,52.49,0,0,0-73.91,1.47l-2.2,2.2-2-2.37a52.5,52.5,0,0,0-92,28l-.17,1.45-1.27.71a35.29,35.29,0,0,0-11.12,9.9l-1.6,2.2-2.28-1.49A22.93,22.93,0,0,0,612,366.4V367l.07,2.93h-2.93a16,16,0,0,0-2.15,31.9Z" style="fill:#2a455f"/><path d="M719.18,402.78q-11.82-.09-26.68-.29H604.66S587,396.15,590.27,385.9q3.24-10.26,16.36-14.75L612,367l2-11.33,16.21-12.58q16.44.92,19.72,6.8c-12.62,30.1,26.1,51.84,87.24,51,33.26-3.93,62.15-10.2,82.14-22.32,23.86-14.47,32.2-43.89,19.75-67.69-1.36-12,1.52-23.14,14.22-33.75q12.71-10.61,26.84-7.78Q866.61,306.55,887,336.8c15.6,23.1,75.1,49.1,112.63,6.32q-.09,12.78,0,59.83-323.8,3.78-282.27,0Z" style="fill:#d3e6f2;fill-rule:evenodd;opacity:0.284853994846344;isolation:isolate"/></g></g><g style="mask:url(#mask-3)"><g id="bg_cloud-3" data-name="bg  cloud-3"><path d="M-151.33,363.9H119.73l.87-.09a24.7,24.7,0,0,0,9.5-46.18l-.63-.35.15-.7a54.65,54.65,0,0,0-96.49-45.24l-.29.37h-.47a28.12,28.12,0,0,0-27.63,24.1l-.27,1.86-1.36-1.3a36.52,36.52,0,0,0-25.3-10.11A36.52,36.52,0,0,0-48.52,297.4l-.74.76-.69-.8A36.57,36.57,0,0,0-77.8,284.54a36.68,36.68,0,0,0-36.43,32.36v.49l-.44.24a24.9,24.9,0,0,0-7.87,7l-.54.75-.78-.51a16.36,16.36,0,0,0-9.08-2.71,16.57,16.57,0,0,0-16.57,16.57h0v1.4h-1A11.86,11.86,0,0,0-162.37,352h0a11.86,11.86,0,0,0,10.28,11.76Z" style="fill:#fff;fill-rule:evenodd"/><path d="M119.73,364.9H-151.39l-.85-.12a12.86,12.86,0,0,1-11.12-12.72,12.84,12.84,0,0,1,12.83-12.83h0v-.43A17.56,17.56,0,0,1-133,321.22a17.41,17.41,0,0,1,9.62,2.87,25.93,25.93,0,0,1,8.18-7.28h0a37.61,37.61,0,0,1,37.4-33.24,37.64,37.64,0,0,1,28.59,13.15,37.31,37.31,0,0,1,27-11.44,37.43,37.43,0,0,1,26,10.39h0a29.25,29.25,0,0,1,28.58-24.93,55.63,55.63,0,0,1,98.2,46h0a25.67,25.67,0,0,1-9.87,48v.09Zm-271-2h270.9l.88-.08a23.73,23.73,0,0,0,9.12-44.37l-1.26-.7.3-1.41A53.71,53.71,0,0,0,33.9,271.9l-.58.74h-.94A27.3,27.3,0,0,0,5.7,296l-.54,3.73-2.72-2.6a35.53,35.53,0,0,0-24.63-9.85,35.34,35.34,0,0,0-25.63,10.85l-1.48,1.52L-50.69,298A35.65,35.65,0,0,0-77.8,285.52,35.67,35.67,0,0,0-113.26,317l-.12,1-.86.49a23.78,23.78,0,0,0-7.56,6.73l-1.09,1.5-1.55-1A15.47,15.47,0,0,0-133,323.2a15.62,15.62,0,0,0-15.6,15.6v.38l.05,2h-2a10.9,10.9,0,0,0-10.9,10.89,10.92,10.92,0,0,0,9.44,10.8Z" style="fill:#2a455f"/><path id="Path-13" d="M5.15,299.83c0,14.12,22.35,58.58,71.06,54.33q48.71-4.25,51.66-36,12.56,3.9,13.81,17.3c1.25,13.4-3.2,20.87-17.07,26.65q-67.31,1.17-179,.8,18.53-2.24,29.62-6.58c10.92-4.28,23-15.41,26.84-24.81q10.2-25.29-14.23-42.84A39.43,39.43,0,0,1,5.15,299.83Z" style="fill:#f3f8fc;fill-rule:evenodd"/></g></g><g id="bg_shells" data-name="bg  shells"><circle cx="963.56" cy="744.8" r="1.22" style="fill:#163150"/><path d="M963.56,746.63a1.83,1.83,0,1,1,1.82-1.84h0A1.84,1.84,0,0,1,963.56,746.63Zm0-2.44a.61.61,0,0,0-.61.61.61.61,0,0,0,.61.61.63.63,0,0,0,.61-.61A.61.61,0,0,0,963.56,744.19Z" style="fill:#979797"/><path d="M910.79,765c10.6-7.49,29.08-16.51,38.05-26.57s22.38-9.66,33.22,3.46,29.34,10.78,35.75,16.42q-3.51,6.69-40.56,3.25,5.16,17.25-3.89,23.43c-9.46-1.7-19-20-24.52-20S900.19,772.48,910.79,765Z" style="fill:#a682ff;fill-rule:evenodd"/><path d="M973.36,786.19h-.22c-5.58-1-10.89-7-15.58-12.33-3.33-3.76-6.76-7.64-8.72-7.64-1.31,0-5.2.49-9.69,1-23.4,2.94-30.08,3-31.12.35-.66-1.7,1.32-3.09,2.06-3.62h0c3.46-2.44,7.72-5,12.23-7.77,9.22-5.6,19.66-11.94,25.61-18.62,4.43-5,9.89-7.56,15.71-7.42,6.87.13,13.56,3.91,19.36,10.93,6.4,7.75,15.84,9.94,23.43,11.7,5.09,1.18,9.49,2.2,12.19,4.58a1.22,1.22,0,0,1,.27,1.48c-1.64,3.12-7.6,6.9-40,4.06,3,11.09,1.33,18.85-4.86,23A1.22,1.22,0,0,1,973.36,786.19Zm-24.52-22.42c3.06,0,6.36,3.74,10.54,8.47s9.11,10.3,13.71,11.43c5.16-3.84,6.16-11.16,3-21.77a1.21,1.21,0,0,1,.8-1.52,1.3,1.3,0,0,1,.48,0c27.93,2.59,36.35.29,38.73-1.81-2.35-1.52-6-2.38-10.21-3.34-8-1.85-17.84-4.14-24.76-12.53-5.33-6.46-11.39-9.93-17.53-10-5.11-.08-9.9,2.19-13.84,6.62-6.19,6.94-16.8,13.38-26.16,19.07-4.48,2.72-8.7,5.29-12.1,7.68h0a7.6,7.6,0,0,0-.93.77c3.26,1.24,20.66-1,28.28-1.91,4.76-.65,8.52-1.12,10-1.12Z" style="fill:#163150"/><path d="M927.46,742.19c11.51,0,16.76-2.39,21.38-3.77q-5,5.64-15.75,12.92Q916,742.19,927.46,742.19Z" style="fill:#9165ff;fill-rule:evenodd"/><path d="M933.09,752.55a1.26,1.26,0,0,1-.57-.14c-9.63-5.14-11.3-7.41-10.84-9.25S925,741,927.46,741a53.84,53.84,0,0,0,18.83-3c.76-.25,1.49-.49,2.2-.7a1.22,1.22,0,0,1,1.54.78,1.24,1.24,0,0,1-.28,1.22c-3.38,3.83-8.75,8.25-16,13.13A1.49,1.49,0,0,1,933.09,752.55Zm-9-8.74c.29.53,1.74,2.24,8.89,6.1a105.37,105.37,0,0,0,11.45-8.83,55.58,55.58,0,0,1-17,2.33,8.57,8.57,0,0,0-3.3.4Z" style="fill:#163150"/><path d="M934.49,783.58l2.66-8.32,7.69,6.69h9.38l-4.3,6.35,4.3,6-11-2.44L937.14,797l-2.66-6.67-9-4.87Z" style="fill:#f4d57a;fill-rule:evenodd"/><path d="M937.15,798.23h-.29a1.23,1.23,0,0,1-.84-.73l-2.5-6.26-8.59-4.66a1.24,1.24,0,0,1-.47-1.68,1.21,1.21,0,0,1,.8-.59l8.29-1.73L936,774.9a1.23,1.23,0,0,1,.84-.8,1.15,1.15,0,0,1,1.12.25l7.35,6.39h8.92a1.21,1.21,0,0,1,1.21,1.22,1.2,1.2,0,0,1-.21.69l-3.83,5.64,3.81,5.35a1.22,1.22,0,0,1-.28,1.7,1.27,1.27,0,0,1-1,.2l-10.4-2.31-5.61,4.67A1.22,1.22,0,0,1,937.15,798.23ZM929,786l6.06,3.29a1.15,1.15,0,0,1,.55.62l2,5.1,4.78-4a1.17,1.17,0,0,1,1-.26l7.9,1.75L948.83,789a1.19,1.19,0,0,1,0-1.39l3-4.44h-7.08a1.3,1.3,0,0,1-.8-.3l-6.29-5.47-2.1,6.55a1.22,1.22,0,0,1-.91.82Z" style="fill:#163150"/><path d="M900.93,781.55l2-6.29,5.85,5.06H916l-3.27,4.8,3.27,4.57-8.36-1.85L903,791.71l-2-5L894.17,783Z" style="fill:#fbb444;fill-rule:evenodd"/><path d="M903,792.9h-.3a1.25,1.25,0,0,1-.83-.72L900,787.53l-6.45-3.48a1.21,1.21,0,0,1,.33-2.26l6.14-1.28,1.78-5.61a1.23,1.23,0,0,1,.83-.8,1.17,1.17,0,0,1,1.13.25l5.51,4.76H916a1.22,1.22,0,0,1,1.08.65A1.24,1.24,0,0,1,917,781l-2.8,4.09L917,789a1.2,1.2,0,0,1,0,1.38,1.24,1.24,0,0,1-1.28.52l-7.78-1.72-4.17,3.49A1.29,1.29,0,0,1,903,792.9Zm-5.35-9.44,3.9,2.1a1.2,1.2,0,0,1,.55.62l1.41,3.49,3.29-2.77a1.21,1.21,0,0,1,1.05-.26l5.26,1.17-1.42-2a1.24,1.24,0,0,1,0-1.4l2-2.89h-4.83a1.27,1.27,0,0,1-.79-.3l-4.46-3.85-1.52,4.53a1.22,1.22,0,0,1-.91.82Z" style="fill:#163150"/><circle cx="963.56" cy="743.58" r="1.22" style="fill:#163150"/><circle cx="964.17" cy="751.5" r="1.83" style="fill:#163150"/><circle cx="950.15" cy="744.8" r="1.22" style="fill:#163150"/><circle cx="938.58" cy="752.72" r="1.83" style="fill:#163150"/><circle cx="923.95" cy="761.25" r="1.83" style="fill:#163150"/><ellipse cx="968.43" cy="762.47" rx="2.44" ry="3.05" style="fill:#163150"/><ellipse cx="972.09" cy="775.87" rx="2.44" ry="3.05" style="fill:#163150"/></g><g style="clip-path:url(#clip-path-2)"><g style="clip-path:url(#clip-path-3)"><path d="M1302.79,855.41a2.89,2.89,0,0,1,.09.93,3.37,3.37,0,0,1-1.3,2.69,3.2,3.2,0,0,1-2.53.88,2.32,2.32,0,0,0-.91,0,9,9,0,0,1-.21,1.93,1.18,1.18,0,0,0,.63,1.09,3.11,3.11,0,0,1,2,0,1.91,1.91,0,0,1,1.36,1.63,3.88,3.88,0,0,1-.76,2.65,7.43,7.43,0,0,1-2.51,2.25,6.64,6.64,0,0,1-3.35.81,7.21,7.21,0,0,1-3-.63,6.91,6.91,0,0,1-1.72-1.69q-1.24-2.07-1.27-8.67a63.33,63.33,0,0,1,.63-8.71c.26-1.89.81-3.12,1.63-3.68l5-.52a11.56,11.56,0,0,1,2.48-.27c1.57,0,2.49.4,2.78,1.18a3.12,3.12,0,0,1,.18,1.09,2.6,2.6,0,0,1-1,2.11,4,4,0,0,1-2.69.82h-.66a4,4,0,0,0-.24,1.45,9.42,9.42,0,0,1-.09,1.45.73.73,0,0,0,.63.54,3.46,3.46,0,0,1,2.21-.69A3,3,0,0,1,1302.79,855.41Zm-24.14-2.6h0a.8.8,0,0,0-.3-.06,4.16,4.16,0,0,0-.94.42,4.42,4.42,0,0,0-.09,1.54v3.15a5.4,5.4,0,0,0,2-1.14,2.12,2.12,0,0,0,.8-1.55,3.3,3.3,0,0,0-1.47-2.36Zm8.64,14.08h0a6.06,6.06,0,0,1-1.42,1.84,4.78,4.78,0,0,1-2.62,1.33c-1.72.18-3.47-1.57-5.26-5.23a10.24,10.24,0,0,1,.09,1.36,4.51,4.51,0,0,1-.91,3,4.5,4.5,0,0,1-3.86.88,4.27,4.27,0,0,1-2.31-1.17,5.42,5.42,0,0,1-.73-3.26v-1.21c-.06-.06,0-1.86.06-5.41a75.69,75.69,0,0,1,.7-9.15q.39-2.26,3.2-3.11a31.91,31.91,0,0,1,5.23-.79c3.08.1,5.2,1.13,6.34,3.08a13,13,0,0,1,1.27,5.38,6.77,6.77,0,0,1-1.36,4.2,21.71,21.71,0,0,1-1.72,1.6c2.28,2.46,3.41,4.51,3.41,6.17a3,3,0,0,1-.11.5Zm-19.21-17.19h0c.08.94.12,2,.12,3.17a36.4,36.4,0,0,1-2.21,12.81,8,8,0,0,1-1.79,2.8,6.1,6.1,0,0,1-2.56,1.64,19.4,19.4,0,0,1-2.41.18,9.66,9.66,0,0,1-5.62-1.57,7.73,7.73,0,0,1-3-4.2,18.81,18.81,0,0,1-.67-5.68,32.9,32.9,0,0,1,1.06-9.06,4.06,4.06,0,0,1,1.43-2,4.29,4.29,0,0,1,2.22-1,3,3,0,0,1,1.92.5,3.57,3.57,0,0,1,1.41,1.52,13.13,13.13,0,0,1,.09,1.54,32.24,32.24,0,0,1-.55,4.26,32.81,32.81,0,0,0-.54,4.2,8.62,8.62,0,0,0,.12,1.6,2.25,2.25,0,0,0,1,1,1.86,1.86,0,0,0,1.42-.24,4,4,0,0,0,1-2.24c0-1.37,0-3.13.1-5.28.2-1.74.33-2.8.39-3.21a13.69,13.69,0,0,1,.57-2.63,3,3,0,0,1,2.48-1.72,3.63,3.63,0,0,1,2.39,1,6.19,6.19,0,0,1,1.68,2.61Zm-19.64.33h0a5.81,5.81,0,0,1,.09,1.18,3.46,3.46,0,0,1-.72,2.29,6.73,6.73,0,0,1-2.44.71,10,10,0,0,0-2.22.53c0,.23.19,2.33.7,6.32a19.53,19.53,0,0,1,.15,2.42,12.07,12.07,0,0,1-.73,4.53c-.6,1.49-1.49,2.21-2.66,2.17a4.71,4.71,0,0,1-4-1.78,7.53,7.53,0,0,1-.88-4c0,.16,0-.89.12-3.17l.15-3.87a21.92,21.92,0,0,1,.4-3.14,2.51,2.51,0,0,1-.55.06,6.81,6.81,0,0,1-2-.33,3.3,3.3,0,0,1-1.91-1.33,4.72,4.72,0,0,1-.72-2.33,3.07,3.07,0,0,1,2-2.81,13.56,13.56,0,0,1,6.2-1.3,21.5,21.5,0,0,1,4,.37l3,1.11a3.44,3.44,0,0,1,2,2.37Zm-19,2.24h0c.2,2.33.3,4.54.3,6.61q0,9.58-3.17,10.76a3.55,3.55,0,0,1-1.12.18,8.41,8.41,0,0,1-2-.3q-1.5-.87-4.62-9.7a20.21,20.21,0,0,1,.54,4.59,9.31,9.31,0,0,1-.72,4,2.9,2.9,0,0,1-1.19,1.19,2.67,2.67,0,0,1-1.65.41,3.88,3.88,0,0,1-3.41-3,20.27,20.27,0,0,1-.61-5.8c0-5.1.21-8.53.64-10.27a5.6,5.6,0,0,1,2.2-3.24,3.7,3.7,0,0,1,2.24-.72,4.3,4.3,0,0,1,1.33.21c1.16.62,2.31,2.49,3.44,5.59a37.66,37.66,0,0,1,1.3,4.44c-.2-1.33-.37-2.5-.51-3.5a32,32,0,0,1-.37-3.9,3.79,3.79,0,0,1,.79-2.45,3.09,3.09,0,0,1,2.57-1.12c1.95,0,3.16,1.09,3.65,3.27a18.92,18.92,0,0,1,.37,2.8Zm-19.79,3.14a2.89,2.89,0,0,1,.09.93,3.37,3.37,0,0,1-1.3,2.69,3.23,3.23,0,0,1-2.54.88,2.32,2.32,0,0,0-.91,0,9,9,0,0,1-.21,1.93,1.17,1.17,0,0,0,.64,1.09,3.11,3.11,0,0,1,2,0,1.9,1.9,0,0,1,1.36,1.63,3.88,3.88,0,0,1-.76,2.65,7.49,7.49,0,0,1-2.5,2.25,6.68,6.68,0,0,1-3.36.81,7.37,7.37,0,0,1-3-.63,6.91,6.91,0,0,1-1.72-1.69c-.83-1.38-1.26-4.27-1.27-8.67a60.36,60.36,0,0,1,.64-8.71c.26-1.89.8-3.12,1.63-3.68l5-.52a11.56,11.56,0,0,1,2.48-.27c1.57,0,2.5.4,2.78,1.18a3.12,3.12,0,0,1,.18,1.09,2.6,2.6,0,0,1-1,2.11,4,4,0,0,1-2.69.82h-.66a4,4,0,0,0-.24,1.45,9.42,9.42,0,0,1-.09,1.45.73.73,0,0,0,.63.54,3.46,3.46,0,0,1,2.21-.69,3.07,3.07,0,0,1,2.61,1.36Zm-16.38-8c.77.55,1.15,1.6,1.15,3.17q0,5.07-5,16.44a5.09,5.09,0,0,1-4.08,3.2l-.66.06a7.07,7.07,0,0,1-2.87-.6,4.36,4.36,0,0,1-2-1.6,25.47,25.47,0,0,1-3.12-7.62,31.09,31.09,0,0,1-.93-7.31,12.74,12.74,0,0,1,.36-3.59,3.57,3.57,0,0,1,1.75-2.06,3.93,3.93,0,0,1,2.13-.6,3.15,3.15,0,0,1,2.87,1.72,20.21,20.21,0,0,1,1.15,5.65l.39,3.78q.24-2.17.78-6.45c.37-2.85,1.1-4.54,2.21-5.06a5.22,5.22,0,0,1,2.33-.52,5,5,0,0,1,3.54,1.35Zm-26.83,6.74a1.13,1.13,0,0,0-.81-.51,1,1,0,0,0-.46.12l-.3.12a60.51,60.51,0,0,1,.42,7.13,4.57,4.57,0,0,0,1.47-1.79,5.33,5.33,0,0,0,.59-2.38,4.1,4.1,0,0,0-.91-2.73Zm7.55,2.72a15.53,15.53,0,0,1-1.81,7.52,8.1,8.1,0,0,1-10.8,4.82c-1.26-.48-1.93-1.1-2-1.86q-.54-8.07-.54-15.5a32.4,32.4,0,0,1,.12-3.92q.75-1.63,4.86-1.64a13.83,13.83,0,0,1,4.14.55,9.13,9.13,0,0,1,3.45,2.9,11.6,11.6,0,0,1,2.59,7.09Zm-25.19,2.69a45.43,45.43,0,0,0-.31-7.65q-.21-.21-.63.15-.39,2.58-.57,4.17a18.11,18.11,0,0,0-.22,3.21.55.55,0,0,0,.52.33,6.17,6.17,0,0,0,.62-.11,3.9,3.9,0,0,1,.59-.14Zm7.64,7.91h0a2.2,2.2,0,0,1-1.78,1.82,6.87,6.87,0,0,1-1.57.18,3.94,3.94,0,0,1-2.42-.7,8.09,8.09,0,0,1-.79-1.15,4.61,4.61,0,0,1-.39-2,15.79,15.79,0,0,0-2.75.12c0,.27.09.54.12.82a5.63,5.63,0,0,1-.69,2.56,3,3,0,0,1-2.57,1.24,9,9,0,0,1-2-.3l-.07-.06c-1.71-.84-2.56-3-2.56-6.31,0-.23,0-.75.06-1.57a44.3,44.3,0,0,1,.87-7.44,18.26,18.26,0,0,1,3.21-6.83,6.08,6.08,0,0,1,5.16-2.32,6.62,6.62,0,0,1,5.47,2.26,7.75,7.75,0,0,1,1.54,3.12,45.15,45.15,0,0,1,1.66,11.21,28.68,28.68,0,0,1-.5,5.31Zm-36.56-14.62h0a.8.8,0,0,0-.3-.06,4.16,4.16,0,0,0-.94.42,4.42,4.42,0,0,0-.09,1.54v3.15a5.4,5.4,0,0,0,2-1.14,2.12,2.12,0,0,0,.8-1.55,3.32,3.32,0,0,0-1.47-2.4Zm8.64,14.08h0a6.06,6.06,0,0,1-1.42,1.84,4.71,4.71,0,0,1-2.63,1.33c-1.71.18-3.46-1.57-5.25-5.23a10.24,10.24,0,0,1,.09,1.36,4.51,4.51,0,0,1-.91,3,4.9,4.9,0,0,1-2.78,1,5,5,0,0,1-1.09-.12,4.37,4.37,0,0,1-2.32-1.15,5.33,5.33,0,0,1-.73-3.26v-1.21c-.06-.06,0-1.86.06-5.41a75.69,75.69,0,0,1,.7-9.15q.39-2.26,3.2-3.11a31.91,31.91,0,0,1,5.23-.79c3.08.1,5.19,1.12,6.34,3.08a13,13,0,0,1,1.27,5.38,6.77,6.77,0,0,1-1.36,4.2,21.71,21.71,0,0,1-1.72,1.6c2.28,2.46,3.41,4.51,3.41,6.17a3.82,3.82,0,0,1-.09.44Zm-19.21-17.19h0c.08.94.12,2,.12,3.17a36.4,36.4,0,0,1-2.21,12.81,8,8,0,0,1-1.79,2.8,6.1,6.1,0,0,1-2.56,1.64,19.4,19.4,0,0,1-2.41.18,9.66,9.66,0,0,1-5.62-1.57,7.8,7.8,0,0,1-3.06-4.2,19.46,19.46,0,0,1-.66-5.68,32.9,32.9,0,0,1,1.06-9.06,4.06,4.06,0,0,1,1.43-2,4.29,4.29,0,0,1,2.22-1,3,3,0,0,1,1.92.5,3.57,3.57,0,0,1,1.41,1.52,13.13,13.13,0,0,1,.09,1.54,32.24,32.24,0,0,1-.55,4.26,34.7,34.7,0,0,0-.54,4.2,8.62,8.62,0,0,0,.12,1.6,2.25,2.25,0,0,0,1,1,1.86,1.86,0,0,0,1.42-.24,4,4,0,0,0,1-2.24q0-2.07.09-5.28c.21-1.74.34-2.8.4-3.21a13.69,13.69,0,0,1,.57-2.63,3,3,0,0,1,2.48-1.72,3.63,3.63,0,0,1,2.39,1,6.32,6.32,0,0,1,1.68,2.57ZM1081,862.6h0q.87-.15.87-3.36a16,16,0,0,0-.33-3.39q-.33-1.56-.72-1.62c-.45-.12-.85.36-1.21,1.45a11.52,11.52,0,0,0-.55,3.6C1079,861.68,1079.68,862.8,1081,862.6Zm7.49,2.17h0a7.34,7.34,0,0,1-2.76,3.87,7.65,7.65,0,0,1-4.58,1.42,8.76,8.76,0,0,1-7.46-3.62,12.34,12.34,0,0,1-2.27-7.5,18,18,0,0,1,.36-3.74q1.67-7.89,7-8.89a5.55,5.55,0,0,1,1-.09,8.12,8.12,0,0,1,4.7,1.6,7.77,7.77,0,0,1,3.06,3.9,26.18,26.18,0,0,1,1.7,7.77,18.39,18.39,0,0,1-.88,5.25Zm-33.81-17.94h0a3.42,3.42,0,0,1,1.63-.4,2.82,2.82,0,0,1,2.69,1.47,7.23,7.23,0,0,1,1.27,2.65c.53,1.7.83,2.61.91,2.75q1.32-5.67,3.11-7.43a4.72,4.72,0,0,1,1.78-.33,3.3,3.3,0,0,1,2.27.75,3.86,3.86,0,0,1,1.6,3.48,18.92,18.92,0,0,1-1.54,5.41q-.75,1.68-2.54,5V864a10.31,10.31,0,0,1-.69,3.72,4.35,4.35,0,0,1-2.63,2.41c-.23,0-.47.05-.7.06a3.42,3.42,0,0,1-3.35-1.9,10,10,0,0,1-.42-3.17v-3.39q-5-8.46-5-12a3,3,0,0,1,1.58-2.92Zm-11.12,3.2h0a5.81,5.81,0,0,1,.09,1.18,3.46,3.46,0,0,1-.72,2.29,6.44,6.44,0,0,1-2.43.71,10,10,0,0,0-2.22.53c0,.23.19,2.33.69,6.32a19.53,19.53,0,0,1,.15,2.42,12.26,12.26,0,0,1-.72,4.53c-.61,1.49-1.49,2.21-2.66,2.17a4.71,4.71,0,0,1-4-1.78,7.62,7.62,0,0,1-.88-4c0,.16,0-.89.13-3.17l.15-3.87a23.42,23.42,0,0,1,.39-3.14,2.48,2.48,0,0,1-.54.06,7.08,7.08,0,0,1-2-.38,3.27,3.27,0,0,1-1.9-1.33,4.63,4.63,0,0,1-.73-2.33,3.07,3.07,0,0,1,2-2.81,13.49,13.49,0,0,1,6.19-1.3,21.5,21.5,0,0,1,4,.37l3,1.11a3.43,3.43,0,0,1,2,2.42Zm-27.28,2.78h0a.8.8,0,0,0-.3-.06,4.16,4.16,0,0,0-.94.42,4.42,4.42,0,0,0-.09,1.54v3.15a5.4,5.4,0,0,0,2-1.14,2.12,2.12,0,0,0,.8-1.55,3.34,3.34,0,0,0-1.5-2.36Zm8.64,14.08h0a6.06,6.06,0,0,1-1.42,1.84,4.71,4.71,0,0,1-2.63,1.33c-1.71.18-3.46-1.57-5.25-5.23a10.24,10.24,0,0,1,.09,1.36,4.56,4.56,0,0,1-.91,3,4.9,4.9,0,0,1-2.78,1,5,5,0,0,1-1.09-.12,4.27,4.27,0,0,1-2.32-1.15,5.33,5.33,0,0,1-.73-3.26v-1.21c-.06-.06,0-1.86.06-5.41a73.57,73.57,0,0,1,.7-9.15q.39-2.26,3.2-3.11a32.17,32.17,0,0,1,5.16-.88c3.08.1,5.19,1.12,6.34,3.08a13,13,0,0,1,1.27,5.38,6.77,6.77,0,0,1-1.36,4.2,21.71,21.71,0,0,1-1.72,1.6c2.27,2.46,3.41,4.51,3.41,6.17a3.66,3.66,0,0,1,0,.57Zm-27.16-7.37a46.5,46.5,0,0,0-.3-7.65c-.14-.14-.35-.09-.64.15q-.39,2.58-.57,4.17a19.1,19.1,0,0,0-.21,3.21.53.53,0,0,0,.51.33,6.17,6.17,0,0,0,.62-.11,3.45,3.45,0,0,1,.56-.1Zm7.64,7.91h0a2.19,2.19,0,0,1-1.78,1.82,6.87,6.87,0,0,1-1.57.18,3.94,3.94,0,0,1-2.42-.7,7.28,7.28,0,0,1-.78-1.15,4.59,4.59,0,0,1-.4-2,15.67,15.67,0,0,0-2.74.12c0,.27.09.54.12.82a5.52,5.52,0,0,1-.7,2.56,2.93,2.93,0,0,1-2.57,1.24,9,9,0,0,1-2-.3l-.06-.06c-1.71-.84-2.57-3-2.57-6.31,0-.23,0-.75.06-1.57a43.3,43.3,0,0,1,.88-7.44,18.17,18.17,0,0,1,3.2-6.83,6.1,6.1,0,0,1,5.17-2.32,6.6,6.6,0,0,1,5.46,2.26,8,8,0,0,1,1.55,3.12,45.22,45.22,0,0,1,1.66,11.21,28.3,28.3,0,0,1-.54,5.35ZM986.49,850h0a5.81,5.81,0,0,1,.09,1.18,3.46,3.46,0,0,1-.72,2.29,6.73,6.73,0,0,1-2.44.71,10,10,0,0,0-2.22.53c0,.23.19,2.33.7,6.32a19.53,19.53,0,0,1,.15,2.42,12.07,12.07,0,0,1-.73,4.53c-.6,1.49-1.49,2.21-2.65,2.17a4.69,4.69,0,0,1-4-1.78,7.53,7.53,0,0,1-.88-4c0,.16,0-.89.12-3.17l.15-3.87a21.92,21.92,0,0,1,.4-3.14,2.51,2.51,0,0,1-.55.06,7.09,7.09,0,0,1-2-.33A3.34,3.34,0,0,1,970,852.6a4.72,4.72,0,0,1-.72-2.33,3.07,3.07,0,0,1,2-2.81,13.69,13.69,0,0,1,6.2-1.3,21.5,21.5,0,0,1,4,.37l3,1.11a3.46,3.46,0,0,1,2,2.39ZM958.33,863.9h0c.73-.18,1.1-.55,1.12-1.09a.82.82,0,0,0-.26-.57,13.78,13.78,0,0,0-1.92-1.3,14.56,14.56,0,0,1-2-1.48,8.48,8.48,0,0,1-1.6-2.3,8.7,8.7,0,0,1-.94-3.87,7,7,0,0,1,2.24-5.07,8.07,8.07,0,0,1,5.92-2.48,6.9,6.9,0,0,1,3.6.94,7.71,7.71,0,0,1,2.14,2.23,2.79,2.79,0,0,1,.51,1.36,3.25,3.25,0,0,1-.72,1.85h0a2.64,2.64,0,0,1-2,1.35,5.62,5.62,0,0,1-1-.15c-.65-.16-1-.72-1.12-1.69,0-.38-.33-.57-.88-.57a1.31,1.31,0,0,0-.75.21,2.41,2.41,0,0,0-.33,1.21,2.08,2.08,0,0,0,1,1.72,52.12,52.12,0,0,1,4.2,3.14,6.84,6.84,0,0,1,2.42,4.5,10.39,10.39,0,0,0,.09,1.54c0,2.6-1.52,4.62-4.68,6.08a8.32,8.32,0,0,1-3.39.81l-.66-.06h-.06c-3.87-.62-6-2.08-6.26-4.38-.08-.52-.13-.89-.16-1.1s-.05-.28-.05-.2a2.15,2.15,0,0,1,.49-1.42,1.39,1.39,0,0,1,1.08-.6,5.65,5.65,0,0,1,1.61.71,5.3,5.3,0,0,0,1.84.71l.51-.06Zm216.51-42.53a1.09,1.09,0,0,0-.82-.52,1.16,1.16,0,0,0-.45.12l-.3.12a60.51,60.51,0,0,1,.42,7.13,4.62,4.62,0,0,0,1.47-1.78,5.38,5.38,0,0,0,.59-2.39A4.13,4.13,0,0,0,1174.84,821.37Zm7.55,2.71a15.57,15.57,0,0,1-1.81,7.53A10.47,10.47,0,0,1,1174,837a10.35,10.35,0,0,1-4.24-.56c-1.26-.48-1.93-1.1-2-1.86q-.54-8.07-.54-15.5,0-2.75.12-3.93.75-1.64,4.86-1.63a14.49,14.49,0,0,1,4.14.54,9.3,9.3,0,0,1,3.45,2.9A11.64,11.64,0,0,1,1182.39,824.08Zm-17.55-4.56h0c.2,2.34.3,4.54.3,6.62q0,9.57-3.17,10.75a3.07,3.07,0,0,1-1.12.19,8.42,8.42,0,0,1-2-.31q-1.51-.84-4.62-9.69a20.21,20.21,0,0,1,.54,4.59,9.15,9.15,0,0,1-.73,4,2.9,2.9,0,0,1-1.19,1.19,2.73,2.73,0,0,1-1.65.41,3.88,3.88,0,0,1-3.41-3,20.7,20.7,0,0,1-.6-5.81,53.45,53.45,0,0,1,.63-10.27,5.56,5.56,0,0,1,2.21-3.23,3.68,3.68,0,0,1,2.23-.73,4,4,0,0,1,1.33.22c1.17.62,2.31,2.48,3.44,5.59a35.85,35.85,0,0,1,1.3,4.44q-.3-2-.51-3.51a31.94,31.94,0,0,1-.36-3.9,3.75,3.75,0,0,1,.78-2.44,3.09,3.09,0,0,1,2.57-1.12c2,0,3.17,1.09,3.66,3.26C1164.64,817.64,1164.76,818.58,1164.84,819.52Zm-27.8,7.25a46.42,46.42,0,0,0-.3-7.64q-.21-.21-.63.15c-.27,1.71-.46,3.1-.58,4.17a19.05,19.05,0,0,0-.21,3.2.53.53,0,0,0,.51.34,6.17,6.17,0,0,0,.62-.11,3.57,3.57,0,0,1,.55-.11Zm7.65,7.92h0a2.16,2.16,0,0,1-1.79,1.81,6.87,6.87,0,0,1-1.57.18,4,4,0,0,1-2.41-.69,8.09,8.09,0,0,1-.79-1.15,4.61,4.61,0,0,1-.39-2,15.79,15.79,0,0,0-2.75.12q.06.27.12.81a5.53,5.53,0,0,1-.7,2.57,3,3,0,0,1-2.56,1.24,9.57,9.57,0,0,1-2-.3l-.06-.06c-1.71-.85-2.57-3-2.57-6.32,0-.22,0-.74.06-1.57a45.13,45.13,0,0,1,.88-7.43,17.87,17.87,0,0,1,3.2-6.83,6.11,6.11,0,0,1,5.17-2.33A6.6,6.6,0,0,1,1142,815a8,8,0,0,1,1.54,3.11,45.15,45.15,0,0,1,1.66,11.21A28.38,28.38,0,0,1,1144.69,834.69Zm-36.56-14.62h0a.8.8,0,0,0-.3-.06,4.16,4.16,0,0,0-.94.42,4.42,4.42,0,0,0-.09,1.54v3.14a5.51,5.51,0,0,0,2-1.13,2.12,2.12,0,0,0,.8-1.56,3.33,3.33,0,0,0-1.47-2.35Zm8.64,14.08h0a6.53,6.53,0,0,1-1.42,1.84,4.84,4.84,0,0,1-2.63,1.33c-1.71.18-3.47-1.57-5.26-5.23a12.26,12.26,0,0,1,.1,1.36,4.51,4.51,0,0,1-.91,3,4.9,4.9,0,0,1-2.78,1,5,5,0,0,1-1.09-.12,4.37,4.37,0,0,1-2.32-1.15,5.33,5.33,0,0,1-.73-3.26v-1.21c-.06-.06,0-1.87.06-5.41a71.7,71.7,0,0,1,.7-9.15c.26-1.52,1.32-2.55,3.2-3.12a32.88,32.88,0,0,1,5.22-.78c3.09.1,5.2,1.13,6.35,3.08a12.84,12.84,0,0,1,1.27,5.38,6.77,6.77,0,0,1-1.36,4.2c-.14.18-.72.71-1.72,1.6,2.27,2.46,3.4,4.51,3.41,6.16a4,4,0,0,1-.09.48Zm-19.15-11.49a3,3,0,0,1,.09.94,3.37,3.37,0,0,1-1.3,2.69,3.23,3.23,0,0,1-2.54.88,2.32,2.32,0,0,0-.91,0,9,9,0,0,1-.21,1.93,1.17,1.17,0,0,0,.64,1.09,3.11,3.11,0,0,1,2,0,1.9,1.9,0,0,1,1.36,1.63,3.86,3.86,0,0,1-.76,2.64,7.3,7.3,0,0,1-2.5,2.25,6.69,6.69,0,0,1-3.36.82,7,7,0,0,1-3.05-.64,6.58,6.58,0,0,1-1.72-1.69c-.83-1.38-1.26-4.27-1.27-8.67a63.3,63.3,0,0,1,.63-8.7c.27-1.89.81-3.12,1.64-3.69l5-.51a11.56,11.56,0,0,1,2.48-.27c1.57,0,2.5.39,2.78,1.18a3,3,0,0,1,.18,1.08,2.62,2.62,0,0,1-1,2.12,4.11,4.11,0,0,1-2.69.82q-.33,0-.66,0a4,4,0,0,0-.24,1.45,9.55,9.55,0,0,1-.09,1.45.73.73,0,0,0,.63.54,3.43,3.43,0,0,1,2.21-.7,3.09,3.09,0,0,1,2.66,1.36Zm-15-5.37h0a5.66,5.66,0,0,1,.09,1.17,3.49,3.49,0,0,1-.72,2.3,6.73,6.73,0,0,1-2.44.71,9.45,9.45,0,0,0-2.22.53c0,.22.19,2.33.7,6.31a19.53,19.53,0,0,1,.15,2.42,12.07,12.07,0,0,1-.73,4.53c-.6,1.49-1.49,2.22-2.66,2.18a4.62,4.62,0,0,1-4-1.78,7.53,7.53,0,0,1-.88-4c0,.16,0-.9.12-3.17l.15-3.87a21.92,21.92,0,0,1,.4-3.14,2.51,2.51,0,0,1-.55.06,6.48,6.48,0,0,1-2-.34,3.3,3.3,0,0,1-1.91-1.33,4.68,4.68,0,0,1-.72-2.32,3.06,3.06,0,0,1,2-2.81,13.41,13.41,0,0,1,6.2-1.3,22.37,22.37,0,0,1,4,.36l3,1.12a3.43,3.43,0,0,1,2.06,2.37Zm-18.49,12.29v.88q0,4.41-3.35,6a9.52,9.52,0,0,1-4,.88,6.85,6.85,0,0,1-4.69-1.6q-3.79-3.36-3.77-9.43a33.47,33.47,0,0,1,.63-6,11.65,11.65,0,0,1,2.09-4.81,5.48,5.48,0,0,1,2.28-1.76,7.46,7.46,0,0,1,3.22-.68,7.1,7.1,0,0,1,3.73,1,7.24,7.24,0,0,1,2.7,2.79,5.08,5.08,0,0,1,.61,2.36,4.12,4.12,0,0,1-.61,2.27,2.93,2.93,0,0,1-2.17,1.54,4.16,4.16,0,0,1-3.75-1.91q0-.09-.12-.72t-.45-.45l-.31.54c-.2,4.27-.3,6.45-.3,6.56a16.38,16.38,0,0,0,.06,1.72,1.2,1.2,0,0,0,.73,1.12,5.54,5.54,0,0,0,2.4-1.55c1.14-1,1.92-1.51,2.34-1.51a2.5,2.5,0,0,1,1,.22,2.37,2.37,0,0,1,1.77,2.54Zm-25.74-2.81a46.42,46.42,0,0,0-.3-7.64c-.15-.14-.36-.09-.64.15q-.39,2.57-.57,4.17a17.1,17.1,0,0,0-.21,3.2.53.53,0,0,0,.51.34,6.17,6.17,0,0,0,.62-.11,4.62,4.62,0,0,1,.63-.11Zm7.64,7.92h0a2.17,2.17,0,0,1-1.78,1.81,6.87,6.87,0,0,1-1.57.18,4.07,4.07,0,0,1-2.42-.69,9.69,9.69,0,0,1-.78-1.15,4.32,4.32,0,0,1-.4-2,15.79,15.79,0,0,0-2.75.12q.06.27.12.81a5.64,5.64,0,0,1-.69,2.57,3,3,0,0,1-2.57,1.24,9,9,0,0,1-2-.3l-.06-.06c-1.72-.85-2.57-3-2.57-6.32,0-.22,0-.74.06-1.57a44.06,44.06,0,0,1,.87-7.43,18,18,0,0,1,3.21-6.83,6.09,6.09,0,0,1,5.16-2.33,6.6,6.6,0,0,1,5.47,2.27,7.77,7.77,0,0,1,1.54,3.11,45.15,45.15,0,0,1,1.66,11.21,28.4,28.4,0,0,1-.46,5.36Zm-28-14.62h0a.8.8,0,0,0-.3-.06,4.16,4.16,0,0,0-.94.42,4.42,4.42,0,0,0-.09,1.54v3.14a5.51,5.51,0,0,0,2-1.13,2.12,2.12,0,0,0,.8-1.56A3.33,3.33,0,0,0,1018,820.07Zm8.64,14.08h0a6.35,6.35,0,0,1-1.42,1.84,4.85,4.85,0,0,1-2.62,1.33c-1.72.18-3.47-1.57-5.26-5.23a10.24,10.24,0,0,1,.09,1.36,4.46,4.46,0,0,1-.91,3,4.5,4.5,0,0,1-3.86.88,4.36,4.36,0,0,1-2.33-1.15,5.42,5.42,0,0,1-.73-3.26v-1.21c-.06-.06,0-1.87.06-5.41a75.69,75.69,0,0,1,.7-9.15c.26-1.52,1.33-2.55,3.2-3.12a33,33,0,0,1,5.23-.78c3.08.1,5.19,1.12,6.34,3.08a12.84,12.84,0,0,1,1.27,5.38,6.77,6.77,0,0,1-1.36,4.2c-.54.56-1.12,1.09-1.72,1.6,2.28,2.46,3.41,4.51,3.41,6.16a4.21,4.21,0,0,1-.12.48Zm-27.16-7.38a46.42,46.42,0,0,0-.3-7.64q-.21-.21-.63.15c-.27,1.71-.46,3.1-.58,4.17a19.05,19.05,0,0,0-.21,3.2.54.54,0,0,0,.51.34,6.17,6.17,0,0,0,.62-.11,3.47,3.47,0,0,1,.56-.11Zm7.65,7.92h0a2.2,2.2,0,0,1-1.79,1.81,6.87,6.87,0,0,1-1.57.18,4,4,0,0,1-2.41-.69,8.09,8.09,0,0,1-.79-1.15,4.61,4.61,0,0,1-.39-2,15.79,15.79,0,0,0-2.75.12q.06.27.12.81a5.53,5.53,0,0,1-.7,2.57,3,3,0,0,1-2.56,1.24,9.57,9.57,0,0,1-2-.3l-.06-.06c-1.71-.85-2.57-3-2.57-6.32,0-.22,0-.74.06-1.57a44.07,44.07,0,0,1,.88-7.43,17.87,17.87,0,0,1,3.2-6.83,6.11,6.11,0,0,1,5.17-2.33,6.6,6.6,0,0,1,5.47,2.27,8,8,0,0,1,1.54,3.11,45.15,45.15,0,0,1,1.66,11.21,28.41,28.41,0,0,1-.54,5.36Zm-35.69-19.4h0A4.55,4.55,0,0,1,974.8,814a5,5,0,0,1,2.48.46,4,4,0,0,1,.93,2.75c-.12,1-.21,2.3-.27,4,.24.89.6,1.33,1.09,1.33a2.51,2.51,0,0,0,.84-.27c.23-.1.4-.51.52-1.24-.12-1-.2-2.49-.24-4.32a3.56,3.56,0,0,1,2-2.72,4.91,4.91,0,0,1,1.78-.27,5.64,5.64,0,0,1,1.42.06,2.6,2.6,0,0,1,1.82,2.06c.1.34.21.67.33,1a8.41,8.41,0,0,1,.3,2q.18,4.23.18,6.34a35.78,35.78,0,0,1-1.54,9.85,3.12,3.12,0,0,1-2.66,2.12,2.81,2.81,0,0,1-2.23-.28,3.17,3.17,0,0,1-1.33-2.5,10,10,0,0,1,0-1.73,14.15,14.15,0,0,0,.08-1.72.9.9,0,0,0-1-.75,1.94,1.94,0,0,0-1.9,2v0c.1.4.24,1.12.42,2.15a3,3,0,0,1-.09,1.57,2.34,2.34,0,0,1-1.18,1.18,5.64,5.64,0,0,1-2,.24,3,3,0,0,1-2.3-1,6.61,6.61,0,0,1-1.27-2.69,18.09,18.09,0,0,1-.66-4.62c-.06-2.44-.09-4.53-.09-6.25q0-5.7,1.18-7.42Zm-2.84,14.29v.88c0,2.94-1.11,4.93-3.35,6a9.52,9.52,0,0,1-4,.88,6.94,6.94,0,0,1-4.68-1.6q-3.81-3.36-3.78-9.43a32.59,32.59,0,0,1,.64-6,11.63,11.63,0,0,1,2.08-4.81,5.62,5.62,0,0,1,2.28-1.76,7.46,7.46,0,0,1,3.22-.68,7,7,0,0,1,3.73,1,7.33,7.33,0,0,1,2.71,2.79,5.07,5.07,0,0,1,.6,2.36,4,4,0,0,1-.6,2.27,3,3,0,0,1-2.18,1.54,4.16,4.16,0,0,1-3.75-1.91q0-.09-.12-.72t-.45-.45l-.3.54c-.2,4.27-.3,6.45-.3,6.56a16.38,16.38,0,0,0,.06,1.72,1.21,1.21,0,0,0,.72,1.12,5.54,5.54,0,0,0,2.4-1.55c1.14-1,1.92-1.51,2.35-1.51a2.28,2.28,0,0,1,1,.22,2.36,2.36,0,0,1,1.69,2.54Zm167.72-42.26h0a.8.8,0,0,0-.3-.06,3.63,3.63,0,0,0-.94.43,4.42,4.42,0,0,0-.09,1.54v3.14a5.66,5.66,0,0,0,2-1.13,2.21,2.21,0,0,0,.8-1.56,3.37,3.37,0,0,0-1.5-2.36ZM1145,801.4h0a6.18,6.18,0,0,1-1.42,1.84,4.77,4.77,0,0,1-2.63,1.33c-1.71.19-3.46-1.56-5.26-5.22a10.24,10.24,0,0,1,.09,1.36,4.5,4.5,0,0,1-.9,3,4.9,4.9,0,0,1-2.78,1,5,5,0,0,1-1.09-.12,4.46,4.46,0,0,1-2.33-1.14,5.44,5.44,0,0,1-.72-3.27V798.9q-.09-.09.06-5.4a75.69,75.69,0,0,1,.69-9.16c.27-1.51,1.33-2.55,3.21-3.11a34.09,34.09,0,0,1,5.22-.79c3.09.1,5.2,1.13,6.35,3.09a13.14,13.14,0,0,1,1.27,5.37,6.77,6.77,0,0,1-1.36,4.2c-.54.56-1.12,1.09-1.72,1.6,2.27,2.46,3.4,4.51,3.41,6.17a5,5,0,0,1-.12.53Zm-19.22-17.19h0c.08,1,.12,2,.12,3.17a36.16,36.16,0,0,1-2.2,12.81,7.92,7.92,0,0,1-1.8,2.8,6.07,6.07,0,0,1-2.55,1.64,16.33,16.33,0,0,1-2.42.19,9.72,9.72,0,0,1-5.62-1.58,7.75,7.75,0,0,1-3-4.19,19.53,19.53,0,0,1-.66-5.69,32.9,32.9,0,0,1,1-9.06,3.93,3.93,0,0,1,1.44-2,4.21,4.21,0,0,1,2.22-1,3,3,0,0,1,1.92.5,3.67,3.67,0,0,1,1.4,1.52,13.3,13.3,0,0,1,.09,1.55,34,34,0,0,1-.54,4.26,34.55,34.55,0,0,0-.55,4.19,9.71,9.71,0,0,0,.13,1.61,2.3,2.3,0,0,0,1,1,1.86,1.86,0,0,0,1.42-.24,3.9,3.9,0,0,0,1-2.23c0-1.37,0-3.14.09-5.29.2-1.73.33-2.8.39-3.2a13,13,0,0,1,.58-2.63,2.9,2.9,0,0,1,2.47-1.72,3.63,3.63,0,0,1,2.39,1,6.22,6.22,0,0,1,1.65,2.59Zm-28.34,12.9h0c.59-.1.88-1.22.88-3.35a16.13,16.13,0,0,0-.33-3.4c-.22-1-.47-1.58-.73-1.62-.44-.12-.84.37-1.21,1.45a11.55,11.55,0,0,0-.54,3.6c0,2.41.61,3.52,1.9,3.32Zm7.5,2.18h0a7.43,7.43,0,0,1-2.77,3.86,7.65,7.65,0,0,1-4.58,1.42,8.7,8.7,0,0,1-7.46-3.62,12.33,12.33,0,0,1-2.26-7.49,18.13,18.13,0,0,1,.36-3.75q1.66-7.89,7-8.88a5.55,5.55,0,0,1,1-.09,8,8,0,0,1,4.69,1.6,7.79,7.79,0,0,1,3.07,3.9,25.79,25.79,0,0,1,1.69,7.76,18.51,18.51,0,0,1-.87,5.26Zm-33.81-17.95h0a3.41,3.41,0,0,1,1.63-.39,2.83,2.83,0,0,1,2.69,1.48,7.44,7.44,0,0,1,1.27,2.66c.52,1.69.82,2.61.9,2.75q1.34-5.7,3.12-7.44a4.54,4.54,0,0,1,1.78-.33,3.22,3.22,0,0,1,2.26.76,3.82,3.82,0,0,1,1.61,3.47,18.63,18.63,0,0,1-1.55,5.41q-.75,1.69-2.53,5v3.84a10.32,10.32,0,0,1-.7,3.72,4.29,4.29,0,0,1-2.63,2.42l-.69.06a3.45,3.45,0,0,1-3.36-1.91,10,10,0,0,1-.42-3.17v-3.38q-5-8.46-5-12a3,3,0,0,1,1.59-2.95Zm-11.69,8.56a3,3,0,0,1,.09.94,3.4,3.4,0,0,1-1.3,2.69,3.26,3.26,0,0,1-2.54.87,2.32,2.32,0,0,0-.91,0,9.08,9.08,0,0,1-.21,1.94,1.16,1.16,0,0,0,.64,1.08,3.11,3.11,0,0,1,2,0,1.92,1.92,0,0,1,1.36,1.64,3.86,3.86,0,0,1-.76,2.64,7.3,7.3,0,0,1-2.5,2.25,6.79,6.79,0,0,1-3.36.82,7.38,7.38,0,0,1-3-.64,6.58,6.58,0,0,1-1.72-1.69c-.83-1.38-1.26-4.27-1.27-8.67a63.3,63.3,0,0,1,.63-8.7c.27-1.9.81-3.13,1.64-3.69l5-.51a11.56,11.56,0,0,1,2.48-.27c1.57,0,2.5.39,2.78,1.17a3.37,3.37,0,0,1,.18,1.09,2.63,2.63,0,0,1-1,2.12,4.07,4.07,0,0,1-2.69.81h-.66a4,4,0,0,0-.24,1.45,9.29,9.29,0,0,1-.09,1.45.75.75,0,0,0,.63.55,3.38,3.38,0,0,1,2.21-.7A3.07,3.07,0,0,1,1059.4,789.9Zm-25,8.49h0c.72-.18,1.1-.54,1.12-1.09a.82.82,0,0,0-.26-.57,13.78,13.78,0,0,0-1.92-1.3,13.78,13.78,0,0,1-2-1.48,8.33,8.33,0,0,1-1.6-2.3,8.65,8.65,0,0,1-.94-3.86,7,7,0,0,1,2.24-5.08,8.07,8.07,0,0,1,5.92-2.48,6.86,6.86,0,0,1,3.59.94,7.66,7.66,0,0,1,2.15,2.24,2.63,2.63,0,0,1,.51,1.35,3.25,3.25,0,0,1-.72,1.85h0a2.66,2.66,0,0,1-2,1.36,5.62,5.62,0,0,1-1-.15c-.65-.16-1-.73-1.12-1.7,0-.38-.34-.57-.88-.57a1.33,1.33,0,0,0-.75.21,2.33,2.33,0,0,0-.34,1.21,2.08,2.08,0,0,0,1,1.72,52.12,52.12,0,0,1,4.2,3.14,6.86,6.86,0,0,1,2.42,4.51,10.53,10.53,0,0,0,.09,1.54q.06,3.9-4.69,6.07a8.24,8.24,0,0,1-3.38.82l-.66-.06h-.06c-3.87-.64-6-2.1-6.26-4.39-.08-.52-.13-.89-.16-1.1s-.05-.28-.05-.19a2.2,2.2,0,0,1,.48-1.42,1.38,1.38,0,0,1,1.09-.61,6,6,0,0,1,1.6.71,5.08,5.08,0,0,0,1.85.71l.51-.06Zm-15.65-1.3h0c.58-.1.87-1.22.87-3.35a16.13,16.13,0,0,0-.33-3.4q-.33-1.56-.72-1.62c-.45-.12-.85.37-1.21,1.45a11.52,11.52,0,0,0-.55,3.6c0,2.43.66,3.54,2,3.34Zm7.49,2.18h0a7.41,7.41,0,0,1-2.76,3.86,7.65,7.65,0,0,1-4.58,1.42,8.7,8.7,0,0,1-7.46-3.62,12.33,12.33,0,0,1-2.27-7.49,18.13,18.13,0,0,1,.36-3.75q1.66-7.89,7-8.88a5.55,5.55,0,0,1,1-.09,8,8,0,0,1,4.7,1.6,7.84,7.84,0,0,1,3.07,3.9A26.42,26.42,0,0,1,1027,794a18.12,18.12,0,0,1-.88,5.26Zm-27.13-2.18h0c.58-.1.88-1.22.88-3.35a15.45,15.45,0,0,0-.34-3.4q-.33-1.56-.72-1.62c-.44-.12-.85.37-1.21,1.45a11.55,11.55,0,0,0-.54,3.6c0,2.43.65,3.54,1.94,3.34Zm7.49,2.18h0a7.41,7.41,0,0,1-2.76,3.86,7.65,7.65,0,0,1-4.58,1.42,8.7,8.7,0,0,1-7.46-3.62,12.33,12.33,0,0,1-2.27-7.49,17.48,17.48,0,0,1,.37-3.75q1.65-7.89,7-8.88a5.55,5.55,0,0,1,1-.09,8,8,0,0,1,4.7,1.6,7.84,7.84,0,0,1,3.07,3.9,26.42,26.42,0,0,1,1.69,7.76,18.12,18.12,0,0,1-.88,5.26Zm-35.2-16.74h0a4.54,4.54,0,0,1,3.36-1.33,5.17,5.17,0,0,1,2.48.45,4,4,0,0,1,.93,2.75c-.12,1-.21,2.32-.27,4,.24.89.6,1.33,1.09,1.33a2.51,2.51,0,0,0,.84-.27c.23-.1.4-.52.52-1.24q-.18-1.58-.24-4.32a3.56,3.56,0,0,1,2-2.72,4.91,4.91,0,0,1,1.78-.27,5.64,5.64,0,0,1,1.42.06,2.59,2.59,0,0,1,1.82,2c.1.34.21.69.33,1a8.41,8.41,0,0,1,.3,2c.12,2.82.18,4.93.18,6.35a35.78,35.78,0,0,1-1.54,9.85,3.13,3.13,0,0,1-2.66,2.11,2.85,2.85,0,0,1-2.23-.27,3.17,3.17,0,0,1-1.33-2.51,9.88,9.88,0,0,1,0-1.72,14.15,14.15,0,0,0,.08-1.72.91.91,0,0,0-1-.76,2,2,0,0,0-1.9,2.06c.1.4.24,1.12.42,2.14a3,3,0,0,1-.09,1.57,2.27,2.27,0,0,1-1.18,1.18,5.64,5.64,0,0,1-2,.24,3,3,0,0,1-2.3-1A6.63,6.63,0,0,1,971,800.9a18.09,18.09,0,0,1-.66-4.62q-.09-3.66-.09-6.26,0-5.74,1.16-7.47Zm-2.84,14.29v.88c0,2.94-1.11,4.93-3.35,6a9.51,9.51,0,0,1-4,.87,6.81,6.81,0,0,1-4.68-1.6q-3.81-3.36-3.78-9.42a32.59,32.59,0,0,1,.64-6,11.59,11.59,0,0,1,2.08-4.8,5.58,5.58,0,0,1,2.28-1.77,7.6,7.6,0,0,1,3.22-.68,7.1,7.1,0,0,1,3.73,1,7.36,7.36,0,0,1,2.71,2.8,5.07,5.07,0,0,1,.6,2.36,4,4,0,0,1-.6,2.26,2.92,2.92,0,0,1-2.18,1.54,4.15,4.15,0,0,1-3.75-1.9c0-.06-.06-.3-.12-.73s-.19-.47-.45-.45l-.3.55c-.2,4.26-.3,6.45-.3,6.55a16.19,16.19,0,0,0,.06,1.72,1.19,1.19,0,0,0,.72,1.12,5.43,5.43,0,0,0,2.4-1.54c1.14-1,1.92-1.51,2.35-1.51a2.49,2.49,0,0,1,1,.21,2.36,2.36,0,0,1,1.73,2.56Zm-25.46-26.4h369.41V880H943.11Z" style="fill:#fff;fill-rule:evenodd"/></g></g></svg>