<svg xmlns="http://www.w3.org/2000/svg" xmlns:xlink="http://www.w3.org/1999/xlink" id="Layer_1" data-name="Layer 1" viewBox="0 0 1922 1110"><defs><mask id="mask" width="1921.19" height="1109.89" x=".81" y="0" maskUnits="userSpaceOnUse"><g id="mask-2"><path id="path-1" d="M.81,1109.89c51.12-83.43,147.37-136,328.69-128.24,451.36,19.37,623.93-63.87,635.6-241,6-91.08-5.33-134.63-35-171.62-28-35-72.44-64-134.08-121.82-114-106.9-79-356.32,12-447C884.09,1.57,1018.08,0,1079.89,0H1922V1109.89Z" style="fill:#fff;fill-rule:evenodd"/></g></mask><linearGradient id="linear-gradient" x1="760.88" x2="760.88" y1="704.85" y2="706.82" gradientTransform="matrix(1234, 0, 0, -479.22, -937625, 338257.7)" gradientUnits="userSpaceOnUse"><stop offset="0" stop-color="#84f3fb"/><stop offset="1" stop-color="#105bf8"/></linearGradient><mask id="mask-2-2" width="1955.44" height="1109.89" x=".81" y="0" maskUnits="userSpaceOnUse"><g id="mask-2-3" data-name="mask-2"><path id="path-1-2" d="M.81,1109.89c51.12-83.43,147.37-136,328.69-128.24,451.36,19.37,623.93-63.87,635.6-241,6-91.08-5.33-134.63-35-171.62-28-35-72.44-64-134.08-121.82-114-106.9-79-356.32,12-447C884.09,1.57,1018.08,0,1079.89,0H1922V1109.89Z" data-name="path-1" style="fill:#fff;fill-rule:evenodd"/></g></mask><mask id="mask-3" width="1925.2" height="1109.89" x=".81" y="0" maskUnits="userSpaceOnUse"><g id="mask-2-4" data-name="mask-2"><path id="path-1-3" d="M.81,1109.89c51.12-83.43,147.37-136,328.69-128.24,451.36,19.37,623.93-63.87,635.6-241,6-91.08-5.33-134.63-35-171.62-28-35-72.44-64-134.08-121.82-114-106.9-79-356.32,12-447C884.09,1.57,1018.08,0,1079.89,0H1922V1109.89Z" data-name="path-1" style="fill:#fff;fill-rule:evenodd"/></g></mask><linearGradient id="linear-gradient-2" x1="760.89" x2="760.89" y1="706.82" y2="708.75" gradientTransform="matrix(1249.92, 0, 0, -143.68, -949751.89, 102063.71)" gradientUnits="userSpaceOnUse"><stop offset="0" stop-color="#00cbfe"/><stop offset="1" stop-color="#057a97"/></linearGradient><mask id="mask-4" width="1964.69" height="1109.89" x=".81" y="0" maskUnits="userSpaceOnUse"><g id="mask-2-5" data-name="mask-2"><path id="path-1-4" d="M.81,1109.89c51.12-83.43,147.37-136,328.69-128.24,451.36,19.37,623.93-63.87,635.6-241,6-91.08-5.33-134.63-35-171.62-28-35-72.44-64-134.08-121.82-114-106.9-79-356.32,12-447C884.09,1.57,1018.08,0,1079.89,0H1922V1109.89Z" data-name="path-1" style="fill:#fff;fill-rule:evenodd"/></g></mask></defs><title>home-bg</title><rect id="bg__white" width="1961.99" height="1137.82" x="-21.51" y="-14.76" style="fill:#fff"/><path id="bg__sand" d="M.81,1109.89c41.2-47.21,125.91-55,307.24-47.21,451.36,19.37,645.38-144.9,657.05-322.06,6-91.08-5.33-134.63-35-171.62-28-35-72.44-64-134.08-121.82-114-106.9-79-356.32,12-447C884.09,1.57,1018.08,0,1079.89,0H1922V1109.89Z" style="fill:#ffd165"/><g style="mask:url(#mask)"><polygon id="bg__sky" points="688 0 1922 0 1922 475 688 479.22 688 0" style="fill-rule:evenodd;fill:url(#linear-gradient)"/></g><g style="mask:url(#mask-2-2)"><g id="bg__cloud-2"><path d="M1775,371.14l-.9-.11a15,15,0,0,1-5.33-28.13l1-.53-.22-1.09a34.18,34.18,0,0,1,60-28.48l.45.55h.75a17,17,0,0,1,16.82,14.56l.41,2.85,2.1-2a23,23,0,0,1,31.85.47l1.13,1.13,1.06-1.21a22.95,22.95,0,0,1,40.17,12.9l.07.76.65.39a15,15,0,0,1,4.66,4.38l.84,1.21,1.23-.81a9.73,9.73,0,0,1,15.11,8.11,5.43,5.43,0,0,1,0,.57l-.09,1.59h1.61a6.43,6.43,0,1,1,0,12.86Z" style="fill:#fff;fill-rule:evenodd"/><path d="M1948.32,372.64H1774.88l-1-.12a16.52,16.52,0,0,1-5.87-30.94h0A35.71,35.71,0,0,1,1803,298.64a35.56,35.56,0,0,1,27.72,13.21h0A18.6,18.6,0,0,1,1849,327.7a24.43,24.43,0,0,1,33.92.5h0a24.45,24.45,0,0,1,42.8,13.74h0a16.74,16.74,0,0,1,5.13,4.82,11.23,11.23,0,0,1,17.44,9.36c0,.22,0,.44,0,.66h0a7.93,7.93,0,1,1,0,15.86Zm-173.26-3h173.26a4.93,4.93,0,1,0,0-9.86h-3.2l.19-3.18c0-.17,0-.33,0-.49a8.23,8.23,0,0,0-12.78-6.86l-2.46,1.63-1.67-2.43a13.73,13.73,0,0,0-4.2-3.94l-1.3-.79-.15-1.51a21.45,21.45,0,0,0-37.54-12.06l-2.1,2.42-2.28-2.25a21.43,21.43,0,0,0-29.76-.44l-4.2,3.94-.82-5.7a15.57,15.57,0,0,0-15.34-13.28h-1.46l-.9-1.11A32.69,32.69,0,0,0,1771,341l.45,2.19-2,1.06a13.52,13.52,0,0,0,4.79,25.32Z" style="fill:#2a455f"/><path d="M1885.79,371.3q7,0,16.61-.17h42.7s8.57-3.08,7-8.07q-1.58-5-7.95-7.18l-2.6-2-1-5.51-7.88-6.13q-8,.45-9.58,3.31c6.34,15.15-14,25.95-45.51,24.72l-1.17,0c-7.2-1.1-9.55-2.68-17.49-7.5-.4-.24,10.59.1,10,0-14.4-2.45-27.69-6-22.32-29.74.34-3,.48-10.42-5.37-14.81-5.49-4.12-17-5.2-15.83-8.46q-6.17-5.16-8-5.81,11.24,26.94,1.32,41.64c-7.55,11.19-39.57,11.4-47.76-3.27,0,3.33-12.18,10.7-9.06,20.45q.76,2.38,7.27,7.26,141.24,3.57,121.09,1.73Z" style="fill:#d3e6f2;fill-rule:evenodd;opacity:.28"/></g></g><g style="mask:url(#mask-3)"><g id="bg__sea"><g id="Group-11"><path id="Rectangle-Copy-8" d="M676,367.24v116q240.87-10.05,349.49-9.55c127.4.59,276.13,6.63,368.82,13.3,4.6.33,114.3,8.42,156.39,11.45l16.55,1.19c101,7.21,165.59,11.3,183.55,11.3q117.7,0,161.45-1.16,8.1-.21,13.67-.47h-.17l-1.37-.11-1.1-141.93Z" style="fill-rule:evenodd;fill:url(#linear-gradient-2)"/><path d="M1750.79,512.42c-17.08,0-77.16-3.7-183.66-11.31l-16.55-1.18c-31.83-2.29-102.72-7.51-136.79-10l-19.6-1.44c-85.71-6.17-233-12.68-368.72-13.3-72-.34-189.6,2.88-349.42,9.55l-1.56.06v-119H1924.75l1.11,142h.15l0,3c-3.72.17-8.33.33-13.7.47C1883.24,512,1828.9,512.42,1750.79,512.42Zm-735.71-40.26,10.4,0c135.83.63,283.16,7.13,368.93,13.31l19.6,1.44c34.07,2.5,105,7.71,136.78,10l16.56,1.18c106.42,7.6,166.43,11.3,183.44,11.3,78.09,0,132.39-.39,161.41-1.16,4-.1,7.56-.22,10.66-.34l-1.08-139.18H677.49V481.67C829.1,475.35,942.55,472.16,1015.08,472.16Z" style="fill:#163150"/><path d="M1213,416.18h0l-100.31-1.34a1,1,0,0,1,0-2h0l100.3,1.34a1,1,0,0,1,0,2Z" style="fill:#163150"/><path d="M1541.21,450.3h0L1440.89,449a1,1,0,0,1,0-2h0l100.3,1.34a1,1,0,0,1,0,2Z" style="fill:#163150"/><path d="M1367.23,390.81h-64.08a1,1,0,0,1,0-2h64.08a1,1,0,0,1,0,2Z" style="fill:#163150"/><path d="M1666,440h-41a1,1,0,0,1,0-2h41a1,1,0,0,1,0,2Z" style="fill:#163150"/><path d="M1902.07,396.1h-41a1,1,0,0,1,0-2h41a1,1,0,0,1,0,2Z" style="fill:#163150"/><path d="M1723,414.6h-254.7a1,1,0,0,1,0-2H1723a1,1,0,0,1,0,2Z" style="fill:#163150"/></g></g></g><g style="mask:url(#mask-4)"><g id="bg__cloud-1"><polygon points="1708.78 41.85 1683.63 37.03 1675.24 61.24 1651.03 69.62 1655.85 94.77 1639.11 114.16 1655.85 133.54 1651.03 158.69 1675.24 167.07 1683.62 191.28 1708.78 186.46 1728.16 203.2 1747.54 186.46 1772.7 191.28 1781.08 167.08 1805.29 158.69 1800.47 133.54 1817.21 114.16 1800.47 94.77 1805.29 69.62 1781.08 61.24 1772.7 37.03 1747.54 41.85 1728.16 25.11 1708.78 41.85" style="fill:#ffd166;fill-rule:evenodd"/><path d="M1728.16,204.32l-19.62-16.95-25.48,4.88-8.48-24.51-24.52-8.49,4.88-25.47L1638,114.16l16.94-19.63-4.87-25.47,24.51-8.49,8.49-24.51,25.47,4.88L1728.16,24l19.63,17,25.47-4.88,8.48,24.51,24.52,8.49-4.88,25.47,16.94,19.63-16.94,19.62,4.87,25.47-24.5,8.49-8.49,24.51-25.47-4.88ZM1709,185.56l19.14,16.53,19.14-16.53,24.84,4.75,8.28-23.9,23.9-8.28-4.76-24.84,16.53-19.13L1799.56,95l4.76-24.84-23.9-8.28L1772.14,38l-24.84,4.75-19.14-16.53L1709,42.75,1684.18,38l-8.27,23.91L1652,70.18,1656.76,95l-16.53,19.14,16.53,19.13L1652,158.13l23.9,8.28,8.28,23.9Z" style="fill:#163150"/><path d="M1728.16,205.18l-19.81-17.11L1682.63,193l-8.56-24.74-24.75-8.57,4.93-25.71-17.11-19.81,17.11-19.82-4.93-25.71,24.75-8.57,8.57-24.74,25.71,4.92,19.81-17.11L1748,40.24l25.71-4.92,8.57,24.74L1807,68.63l-4.93,25.71,17.11,19.82L1802.07,134l4.93,25.71-24.75,8.57L1773.68,193,1748,188.07Zm-19-20.33,19,16.36,18.95-16.36,24.59,4.71,8.2-23.67,23.66-8.2-4.71-24.59,16.37-18.94-16.37-19,4.71-24.59-23.66-8.2-8.2-23.67-24.59,4.71L1728.16,27.1l-19,16.36-24.59-4.71-8.2,23.67-23.66,8.2,4.71,24.59-16.37,19,16.37,18.94-4.71,24.59,23.66,8.2,8.2,23.67Z" style="fill:#16314f"/><path d="M1792.05,114.16a63.89,63.89,0,1,1-63.89-63.9,63.9,63.9,0,0,1,63.89,63.9" style="fill:#ffefad;fill-rule:evenodd"/><path d="M1728.16,179.55a65.4,65.4,0,1,1,65.39-65.39A65.47,65.47,0,0,1,1728.16,179.55Zm0-127.79a62.4,62.4,0,1,0,62.39,62.4A62.47,62.47,0,0,0,1728.16,51.76Z" style="fill:#163150"/><path d="M1728.16,178.37a64.22,64.22,0,1,1,64.22-64.21A64.29,64.29,0,0,1,1728.16,178.37Zm0-127.78a63.57,63.57,0,1,0,63.56,63.57A63.64,63.64,0,0,0,1728.16,50.59Z" style="fill:#16314f"/><path d="M1765.61,62.41a63.88,63.88,0,0,1-79,100.23,63.88,63.88,0,1,0,79-100.23" style="fill:#16314f;fill-rule:evenodd"/><path d="M1728.29,93c3.44-3.22,6.89-6.34,10.23-9.57,3.84-3.71,8.13-3.78,12,0q6.56,6.36,13.07,12.78a7.16,7.16,0,0,1,.76,9.82,4.86,4.86,0,0,1-7.74.7c-2.17-2-4.27-4.13-6.41-6.2-3.52-3.38-8-3.42-11.53-.07-2.16,2-4.27,4.13-6.42,6.19-2.88,2.76-5.25,2.74-8.18-.07-2-2-4-3.94-6.09-5.88a7.86,7.86,0,0,0-11.21-.12c-1.91,1.74-3.74,3.58-5.54,5.44-2.79,2.9-5.12,3.64-7.44,2.26a7,7,0,0,1-2.61-8.56,10.55,10.55,0,0,1,2.19-3.12c4.37-4.37,8.79-8.67,13.23-13,3.8-3.67,8-3.62,11.81,0,3.3,3.15,6.63,6.29,9.88,9.36" style="fill:#ffd166;fill-rule:evenodd"/><path d="M1751.14,123.45c-1,1.79-1.64,3.87-3,5.31-4.43,4.63-9.09,9.05-13.72,13.5-4.14,4-8.53,3.93-12.66,0q-6.85-6.6-13.67-13.24c-3-2.9-3.43-6.62-1.32-9.83s5.71-3.75,8.62-1c2.21,2.11,4.36,4.29,6.58,6.39,3.72,3.52,8.51,3.5,12.23,0,2-1.84,3.91-3.66,5.79-5.56s3.63-3.36,6.5-2.33c2.29.81,4.09,3.69,4.67,6.82" style="fill:#ffd166;fill-rule:evenodd"/><path d="M1509.7,227.1h418.62v0l1.35-.14a38.14,38.14,0,0,0,14.67-71.32l-1-.54.24-1.09a84.41,84.41,0,0,0-149-69.79l-.44.57h-.73A43.44,43.44,0,0,0,1750.73,122l-.41,2.88-2.11-2a56.64,56.64,0,0,0-79.73,1.58l-1.14,1.18-1.07-1.24A56.65,56.65,0,0,0,1567,154.57l-.09.76-.67.37a38.41,38.41,0,0,0-12.15,10.82l-.84,1.16-1.2-.79a25.59,25.59,0,0,0-39.61,21.41v.62l0,1.54h-1.54a18.32,18.32,0,0,0-2.45,36.48Z" style="fill:#fff;fill-rule:evenodd"/><path d="M1928.32,228.6H1509.6l-1.31-.17a19.82,19.82,0,0,1,2.65-39.47h0v-.66a27.09,27.09,0,0,1,41.93-22.66h0a39.9,39.9,0,0,1,12.63-11.24h0a58.15,58.15,0,0,1,101.9-31h0a58.14,58.14,0,0,1,81.84-1.63h0a45.17,45.17,0,0,1,44.15-38.5A85.89,85.89,0,0,1,1947,136.1a86.34,86.34,0,0,1-1.93,18.18,39.65,39.65,0,0,1-15.25,74.13v.14Zm-418.52-3h418l.33,0,1.35-.14a36.65,36.65,0,0,0,14.1-68.52l-1.95-1.08.47-2.17a83,83,0,0,0-81-100.44,82.43,82.43,0,0,0-65.35,31.89l-.89,1.14h-1.45a42.17,42.17,0,0,0-41.21,35.93l-.82,5.76-4.21-4a55.14,55.14,0,0,0-77.62,1.55l-2.29,2.36-2.14-2.5a55.15,55.15,0,0,0-96.64,29.41l-.18,1.52L1567,157a37,37,0,0,0-11.68,10.4l-1.68,2.31-2.39-1.57a24.09,24.09,0,0,0-37.29,20.15v.59L1514,192h-3.08a16.82,16.82,0,0,0-2.25,33.49Z" style="fill:#2a455f"/><path d="M1626.49,226.51q-12.4-.1-28-.31h-92.25s-18.51-6.66-15.11-17.42q3.41-10.75,17.18-15.48l5.62-4.34,2.09-11.89,17-13.22q17.25,1,20.71,7.15c-13.25,31.6,27.4,54.44,91.61,53.53,34.93-4.13,65.27-10.71,86.26-23.44,25.06-15.19,33.81-46.09,20.74-71.08-1.43-12.6,1.6-24.3,14.94-35.44q13.34-11.14,28.18-8.17-14.17,39,7.29,70.82c16.35,24.21,78.83,51.56,118.24,6.63q-.09,13.43,0,62.83-340,4-296.42,0Z" style="fill:#d3e6f2;fill-rule:evenodd;opacity:.284853994846344;isolation:isolate"/></g></g><g style="mask:url(#mask)"><g id="bg__cloud-3"><path d="M571.51,287.89H990.12v-.06l1.36-.13a38.15,38.15,0,0,0,14.67-71.32l-1-.54.23-1.09a84.48,84.48,0,0,0-82.5-102.25A84.22,84.22,0,0,0,856.39,145l-.45.57h-.73a43.44,43.44,0,0,0-42.68,37.22l-.41,2.88-2.11-2a56.64,56.64,0,0,0-79.72,1.59l-1.15,1.18-1.07-1.25a56.64,56.64,0,0,0-99.27,30.22l-.09.75-.66.38a38.34,38.34,0,0,0-12.16,10.82l-.84,1.15-1.2-.78a25.59,25.59,0,0,0-39.61,21.4c0,.21,0,.42,0,.63l0,1.54h-1.54a18.32,18.32,0,0,0-2.45,36.48Z" style="fill:#fff;fill-rule:evenodd"/><path d="M990.12,289.39H571.41l-1.31-.18a19.82,19.82,0,0,1,2.64-39.46h0c0-.23,0-.44,0-.67a27.11,27.11,0,0,1,41.94-22.66,40.14,40.14,0,0,1,12.63-11.24h0a58.15,58.15,0,0,1,101.9-31,58.15,58.15,0,0,1,81.84-1.62h0A45.18,45.18,0,0,1,855.2,144a85.9,85.9,0,0,1,153.6,52.86,87,87,0,0,1-1.92,18.17h0a39.65,39.65,0,0,1-15.26,74.13v.14Zm-418.51-3h418l.34-.05,1.35-.13a36.65,36.65,0,0,0,14.09-68.52l-1.94-1.08.46-2.18a82.9,82.9,0,0,0-146.37-68.55l-.9,1.14h-1.45A42.17,42.17,0,0,0,814,183l-.83,5.76-4.21-4a55.16,55.16,0,0,0-77.62,1.54l-2.29,2.36-2.14-2.49a55.14,55.14,0,0,0-96.64,29.41l-.18,1.52-1.33.74a37.29,37.29,0,0,0-11.68,10.4l-1.68,2.31L613,228.93a24.1,24.1,0,0,0-37.29,20.15c0,.2,0,.4,0,.59l.07,3.08h-3.07a16.82,16.82,0,0,0-2.26,33.49Z" style="fill:#2a455f"/><path id="Path-13" d="M813.17,189c0,21.8,34.52,90.47,109.74,83.91q75.23-6.56,79.78-55.64,19.41,6,21.34,26.71c1.92,20.69-4.95,32.23-26.36,41.16q-103.95,1.81-276.41,1.24,28.62-3.46,45.74-10.17c16.87-6.6,35.59-23.8,41.46-38.32q15.75-39-22-66.15A60.94,60.94,0,0,1,813.17,189Z" style="fill:#f3f8fc;fill-rule:evenodd"/></g></g><g id="bg__tree"><path d="M984.41,421.4l187.12-164.79s-92-63.76-187.12,164.79" style="fill:#059767;fill-rule:evenodd"/><path d="M985.7,422.86l-3.09-2.21c22.76-54.7,47.33-97.28,73-126.56,20.37-23.22,41.45-38.14,62.65-44.36,32.49-9.52,53.5,4.67,54.38,5.27l2,1.42-1.87,1.65Zm154.39-172.45a73.77,73.77,0,0,0-20.87,3.1c-56.91,16.79-101.45,95-129.69,160.78l178.68-157.36A60.92,60.92,0,0,0,1140.09,250.41Z" style="fill:#163150"/><path d="M997.4,429.2,796,280.9S944.2,246.57,997.4,429.2" style="fill:#08aa75;fill-rule:evenodd"/><path d="M1000.88,434.19,791.42,280l4.13-1c.37-.08,38.09-8.54,81.8,5.71a161.67,161.67,0,0,1,67.55,42.93c23.86,25.07,42.15,59.05,54.37,101ZM800.79,282,993.85,424.16c-12-38.74-29.37-70.26-51.69-93.74a157.78,157.78,0,0,0-65.85-41.94A168.54,168.54,0,0,0,800.79,282Z" style="fill:#163150"/><path d="M996.83,416.19,883.05,206.85s123.77-7.65,113.78,209.34" style="fill:#059767;fill-rule:evenodd"/><path d="M998.45,423.27,879.88,205.09l3-.19c1.47-.09,36.4-1.87,68,29.22,15.88,15.64,28.05,36.93,36.17,63.29,9.91,32.15,13.84,72.15,11.69,118.87ZM886.33,208.8,995.16,409c1.44-43.24-2.53-80.38-11.79-110.48-7.93-25.73-19.77-46.48-35.19-61.66C923.2,212.31,895.53,209.14,886.33,208.8Z" style="fill:#163150"/><path d="M993.07,416.45,1091,189.77s-123.36,15.46-97.94,226.68" style="fill:#059767;fill-rule:evenodd"/><path d="M992,423.85l-.86-7.17c-5.82-48.42-4.27-90.56,4.63-125.24,7.15-27.88,19-51,35.31-68.86,27.82-30.44,58.41-34.58,59.69-34.75l3.39-.42Zm95.77-231.47a89,89,0,0,0-15.09,5,113.48,113.48,0,0,0-38.91,28c-15.79,17.35-27.32,40-34.28,67.19-8.28,32.44-10.06,71.55-5.3,116.34Z" style="fill:#163150"/><path d="M1006.37,398l209.51-27s-121.35-73.36-209.51,27" style="fill:#08aa75;fill-rule:evenodd"/><path d="M1001.5,400.63l3.41-3.88c20.35-23.17,44.18-39,70.82-47.15,21.31-6.49,44.43-8.06,68.73-4.66,41.27,5.78,72.12,24.21,72.43,24.4l4.78,2.89Zm118.4-53.54a147.14,147.14,0,0,0-43.11,6.26c-24.39,7.44-46.38,21.59-65.43,42.08l198.33-25.59a213,213,0,0,0-65.9-21A173.09,173.09,0,0,0,1119.9,347.09Z" style="fill:#163150"/><path d="M1009.1,431.8,770,414.27s94.15-103,239.1,17.53" style="fill:#059767;fill-rule:evenodd"/><path d="M1015,434.19,765.85,415.92l2.71-3c1-1.07,24.41-26.3,66.15-37,24.5-6.29,50.19-6.16,76.35.37,32.59,8.14,66,26.3,99.28,54ZM774.44,412.64l228.64,16.76c-31.2-25.07-62.4-41.64-92.83-49.26-25.5-6.39-50.52-6.55-74.38-.46A145.58,145.58,0,0,0,774.44,412.64Z" style="fill:#163150"/><path d="M990.9,401.23l206.61,64.38s-19.36-91.85-168-71.07c-12,1.69-25,3.46-38.66,6.69" style="fill:#059767;fill-rule:evenodd"/><path d="M1200.11,468.46,983.52,401l6.94-1.64c13.33-3.15,25.71-4.88,37.67-6.55l1.16-.17c34.14-4.77,64.31-4,89.67,2.38,20.4,5.11,37.75,13.8,51.58,25.82,23.63,20.56,28.68,43.44,28.88,44.4ZM998.49,401.55l196.15,61.13c-2.3-7-9.29-23.89-26.85-39.09-38.16-33-96.09-33-138-27.11l-1.16.16C1019,398,1009,399.39,998.49,401.55Z" style="fill:#163150"/><path d="M997.4,404.49c-.41-.09,173,158.66,173,158.66s36.66-113-173-158.66" style="fill:#08aa75;fill-rule:evenodd"/><path d="M1171.28,566.64l-2.23-2s-43.27-39.62-86.52-79.26c-21.63-19.82-43.25-39.65-59.47-54.53l-19.58-18c-2.36-2.18-4.22-3.89-5.48-5.07-2.62-2.43-3-2.8-2.33-4.14l.69-1.32,1.46.31c45.8,10,83.49,24,112,41.73,23.29,14.45,40.63,31.42,51.55,50.44,21,36.57,11.27,67.7,10.85,69ZM1004,408c22.55,20.81,113,103.69,165.27,151.53,1.82-8.6,5.14-34.27-11.34-62.91-10.61-18.43-27.52-34.92-50.24-49C1081,431,1046.17,417.73,1004,408Z" style="fill:#163150"/><path d="M1007.8,417.82,802.49,550.15s23.6-140.31,205.31-132.33" style="fill:#08aa75;fill-rule:evenodd"/><path d="M799.83,554.18l.73-4.36c.06-.35,6.32-36,35-70.08a168.55,168.55,0,0,1,62.78-46.4c31-13.42,67.85-19.3,109.59-17.47l6.12.27ZM993.18,419.45c-35.2,0-66.54,5.86-93.34,17.47a163.92,163.92,0,0,0-94.42,109l196.09-126.39Q997.31,419.45,993.18,419.45Z" style="fill:#163150"/><path d="M989.6,413.59,872.48,647.68s-58.1-111.42,86.69-214.4q13.94-9.91,30.43-19.69" style="fill:#059767;fill-rule:evenodd"/><path d="M872.51,652l-1.76-3.39c-.61-1.15-14.75-28.83-11.17-69.65,2.11-23.94,9.94-47.4,23.29-69.71,16.63-27.8,41.92-53.89,75.17-77.53,9.46-6.73,19.75-13.39,30.57-19.78l5.7-3.36ZM984.86,418.71C976.23,424,968,429.4,960.3,434.86c-32.8,23.34-57.73,49-74.09,76.37-13,21.8-20.69,44.69-22.74,68-2.75,31.37,5.46,55.15,9.1,63.88Z" style="fill:#163150"/><path d="M981.81,399.29l125.79,251s45.38-147.57-125.79-251" style="fill:#059767;fill-rule:evenodd"/><path d="M1108,655.5,977,394.13l5.78,3.49c39.27,23.73,70.38,51.79,92.46,83.4a218.5,218.5,0,0,1,35.53,82.16c10,49.74-1.23,87.3-1.34,87.68ZM986.62,404.55,1107,644.72c2.61-11.66,7.73-42.6,0-81A214.51,214.51,0,0,0,1072,483.14C1051.35,453.6,1022.65,427.19,986.62,404.55Z" style="fill:#163150"/><path d="M977.5,420.32S984.8,547,932.85,671.77c-62.07,149.15-20.7,259.42-20.7,259.42h82.41s-60.34-87-22.15-218C1017.3,559.22,1010,417.49,1010,417.49Z" style="fill:#ae723b;fill-rule:evenodd"/><path d="M998.29,933.14H910.8l-.47-1.26c-.11-.28-10.48-28.38-13.05-74.36-2.37-42.37,1.56-109.11,33.77-186.5,51.17-122.93,44.57-249.32,44.5-250.58l-.11-1.89,36.35-3.17.11,2c.07,1.42,6.85,143.82-37.61,296.31-19.6,67.23-12.58,122.54-3.24,157.09,10.11,37.38,25,59.08,25.11,59.29Zm-84.75-3.9H991c-4.46-7.26-15.51-27.12-23.71-57.43-9.47-35-16.59-91.1,3.26-159.2,41.4-142,38.2-275.13,37.54-293l-28.55,2.49c.62,16.32,3.21,134.87-44.88,250.42-31.89,76.62-35.81,142.68-33.49,184.6C903.38,897.11,911.54,923.34,913.54,929.24Z" style="fill:#163150"/><path d="M963.62,850.15a285,285,0,0,1-4.5-43.66L902.7,779a398.89,398.89,0,0,0-2.56,91c18.11-5.69,41.56-13.07,63.48-19.92" style="fill:#6d4e2d;fill-rule:evenodd;opacity:.3"/><path d="M974.26,712.62c.36-1.29.69-2.58,1-3.87-15-10.31-30-20.62-43.48-29.86A477.18,477.18,0,0,0,909,759.59c16.74,1.1,36,2.45,55.06,3.84a340.17,340.17,0,0,1,10.16-50.81" style="fill:#6d4e2d;fill-rule:evenodd;opacity:.3"/><path d="M913.26,931.19H994.8s-5.24-7.59-11.63-21.55c-29.23-6.88-57.14-13.47-79.33-18.76,3.94,25.69,9.42,40.31,9.42,40.31" style="fill:#6d4e2d;fill-rule:evenodd;opacity:.3"/><path d="M1010.4,485.44c-9.94-1.69-21.22-3.61-32.33-5.52-.64,8.79-1.54,18.37-2.76,28.61,12.07-3.32,24-6.53,34.29-9.31q.46-7.14.8-13.78" style="fill:#6d4e2d;fill-rule:evenodd;opacity:.3"/><path d="M994.8,624.6c-13.31-7.09-26.31-14-37.37-19.83-4.38,16.17-9.64,32.73-15.9,49.37,14.57,1.65,30.49,3.46,46.12,5.25q4-17.7,7.15-34.79" style="fill:#6d4e2d;fill-rule:evenodd;opacity:.3"/><path d="M1002.6,555.83c-11.53-2.31-23.39-4.69-34.78-7-1.89,10.91-4.14,22.22-6.8,33.82l38.72-4.08q1.6-11.66,2.86-22.75" style="fill:#6d4e2d;fill-rule:evenodd;opacity:.3"/><path d="M1013.29,934.65H888.67c-3,0-5.46-2.74-5.46-6.12s2.44-6.12,5.46-6.12h124.62c3,0,5.46,2.74,5.46,6.12s-2.44,6.12-5.46,6.12" style="fill:#f3c65c;fill-rule:evenodd"/><path d="M955.4,405.84a27.31,27.31,0,1,0,29,25.53,27.31,27.31,0,0,0-29-25.53" style="fill:#91523a;fill-rule:evenodd"/><path d="M957.08,462.36a29.26,29.26,0,0,1-1.8-58.46h0A29.26,29.26,0,0,1,959,462.3Q958,462.36,957.08,462.36Zm-1.56-54.57a25.37,25.37,0,0,0-15.15,44.34,25.13,25.13,0,0,0,18.35,6.28,25.36,25.36,0,0,0-3.2-50.62Z" style="fill:#163150"/><path d="M969.69,372a27.31,27.31,0,1,0,29,25.53,27.3,27.3,0,0,0-29-25.53" style="fill:#a35e44;fill-rule:evenodd"/><path d="M971.4,428.55a29.26,29.26,0,0,1-1.83-58.46h0a29.26,29.26,0,0,1,3.69,58.4Q972.32,428.55,971.4,428.55ZM969.81,374a25.36,25.36,0,1,0,26.89,23.7A25.37,25.37,0,0,0,969.81,374Z" style="fill:#163150"/><path d="M1003.48,405.84a27.31,27.31,0,1,0,29,25.54,27.33,27.33,0,0,0-29-25.54" style="fill:#91523a;fill-rule:evenodd"/><path d="M1005.15,462.36a29.26,29.26,0,0,1-1.8-58.46h0a29.26,29.26,0,0,1,3.69,58.4Q1006.1,462.36,1005.15,462.36Zm-1.55-54.57a25.36,25.36,0,1,0,26.88,23.71,25.39,25.39,0,0,0-26.88-23.71Z" style="fill:#163150"/><path d="M1016.47,372a27.31,27.31,0,1,0,29,25.54,27.3,27.3,0,0,0-29-25.54" style="fill:#a35e44;fill-rule:evenodd"/><path d="M1018.14,428.55a29.26,29.26,0,0,1-1.79-58.46h0a29.26,29.26,0,0,1,3.69,58.4C1019.4,428.53,1018.77,428.55,1018.14,428.55ZM1016.59,374a25.36,25.36,0,1,0,26.89,23.71A25.37,25.37,0,0,0,1016.59,374Z" style="fill:#163150"/></g><g id="bg__shells"><circle cx="1891" cy="862" r="1" style="fill:#163150"/><path d="M1891,863.5a1.5,1.5,0,1,1,1.5-1.5A1.5,1.5,0,0,1,1891,863.5Zm0-2a.5.5,0,1,0,.5.5A.5.5,0,0,0,1891,861.5Z" style="fill:#979797"/><path d="M1847.7,878.57c8.7-6.15,23.86-13.55,31.22-21.81s18.37-7.92,27.26,2.85,24.08,8.84,29.34,13.47q-2.88,5.49-33.29,2.67,4.24,14.16-3.19,19.22c-7.76-1.39-15.59-16.4-20.12-16.4S1839,884.72,1847.7,878.57Z" style="fill:#a682ff;fill-rule:evenodd"/><path d="M1899,896h-.17c-4.58-.83-8.94-5.76-12.79-10.12-2.73-3.08-5.55-6.27-7.16-6.27-1.08,0-4.26.4-8,.87-19.2,2.41-24.69,2.47-25.54.28-.54-1.39,1.08-2.54,1.69-3h0c2.84-2,6.34-4.13,10-6.38,7.57-4.59,16.14-9.8,21-15.27,3.64-4.08,8.13-6.21,12.9-6.1,5.64.11,11.13,3.21,15.88,9,5.25,6.37,13,8.16,19.23,9.61,4.18,1,7.79,1.8,10,3.75a1,1,0,0,1,.23,1.22c-1.35,2.56-6.24,5.66-32.82,3.33,2.43,9.1,1.09,15.47-4,18.92A1.06,1.06,0,0,1,1899,896Zm-20.12-18.4c2.51,0,5.22,3.07,8.66,6.95s7.47,8.45,11.24,9.38c4.24-3.15,5.06-9.16,2.46-17.86a1,1,0,0,1,.18-.92,1,1,0,0,1,.87-.37c22.92,2.13,29.83.25,31.78-1.48-1.93-1.25-4.95-1.95-8.38-2.74-6.52-1.52-14.64-3.4-20.32-10.28-4.37-5.3-9.34-8.15-14.38-8.25-4.2-.07-8.13,1.8-11.36,5.43-5.08,5.7-13.79,11-21.47,15.65-3.67,2.23-7.14,4.34-9.92,6.31h0a4.93,4.93,0,0,0-.77.63c2.68,1,17-.78,23.21-1.57C1874.63,878,1877.72,877.57,1878.92,877.57Z" style="fill:#163150"/><path d="M1861.38,859.86c9.44,0,13.75-2,17.54-3.1q-4.1,4.65-12.92,10.61Q1851.93,859.86,1861.38,859.86Z" style="fill:#9165ff;fill-rule:evenodd"/><path d="M1866,868.37a1,1,0,0,1-.47-.12c-7.9-4.22-9.27-6.09-8.89-7.59s2.74-1.8,4.74-1.8a44,44,0,0,0,15.45-2.48l1.8-.58a1,1,0,0,1,1.13.42,1,1,0,0,1-.09,1.2c-2.77,3.15-7.18,6.77-13.11,10.77A1,1,0,0,1,1866,868.37Zm-7.36-7.18c.25.43,1.44,1.84,7.3,5a86.45,86.45,0,0,0,9.4-7.25,45.39,45.39,0,0,1-14,1.91A7.12,7.12,0,0,0,1858.64,861.19Z" style="fill:#163150"/><path d="M1867.15,893.83l2.18-6.83,6.31,5.49h7.7l-3.53,5.21,3.53,4.95-9-2-5,4.2-2.18-5.48-7.37-4Z" style="fill:#f4d57a;fill-rule:evenodd"/><path d="M1869.33,905.85l-.24,0a1,1,0,0,1-.68-.6l-2.06-5.14-7-3.83a1,1,0,0,1,.28-1.85l6.79-1.43,2-6.27a1,1,0,0,1,.68-.66,1,1,0,0,1,.93.21l6,5.24h7.32a1,1,0,0,1,.88.53,1,1,0,0,1,0,1l-3.14,4.63,3.12,4.39a1,1,0,0,1-1,1.56l-8.54-1.89-4.6,3.87A1,1,0,0,1,1869.33,905.85Zm-6.68-10.06,5,2.71a1,1,0,0,1,.45.5l1.67,4.19,3.92-3.3a1,1,0,0,1,.87-.21l6.47,1.43-2-2.83a1,1,0,0,1,0-1.15l2.47-3.64h-5.81a1,1,0,0,1-.65-.25l-5.17-4.49-1.72,5.38a1,1,0,0,1-.75.68Z" style="fill:#163150"/><path d="M1839.61,892.16l1.66-5.16,4.81,4.15h5.85l-2.68,3.94,2.68,3.75-6.86-1.51-3.8,3.17-1.66-4.14-5.61-3Z" style="fill:#fbb444;fill-rule:evenodd"/><path d="M1841.27,901.5l-.24,0a1,1,0,0,1-.68-.6l-1.53-3.8-5.29-2.86a1,1,0,0,1,.27-1.86l5-1.05,1.48-4.61a1,1,0,0,1,1.61-.45l4.52,3.91h5.48a1,1,0,0,1,.83,1.57l-2.29,3.36,2.28,3.18a1,1,0,0,1,0,1.13,1,1,0,0,1-1,.43l-6.39-1.41-3.41,2.86A1,1,0,0,1,1841.27,901.5Zm-4.38-7.75,3.19,1.73a1,1,0,0,1,.46.51l1.15,2.86,2.74-2.29a1,1,0,0,1,.85-.21l4.32.95-1.17-1.63a1,1,0,0,1,0-1.14l1.62-2.38h-4a1,1,0,0,1-.66-.24l-3.66-3.17-1.2,3.73a1,1,0,0,1-.75.67Z" style="fill:#163150"/><circle cx="1891" cy="861" r="1" style="fill:#163150"/><circle cx="1891.5" cy="867.5" r="1.5" style="fill:#163150"/><circle cx="1880" cy="862" r="1" style="fill:#163150"/><circle cx="1870.5" cy="868.5" r="1.5" style="fill:#163150"/><circle cx="1858.5" cy="875.5" r="1.5" style="fill:#163150"/><ellipse cx="1895" cy="876.5" rx="2" ry="2.5" style="fill:#163150"/><ellipse cx="1898" cy="887.5" rx="2" ry="2.5" style="fill:#163150"/></g></svg>