<svg xmlns="http://www.w3.org/2000/svg" xmlns:xlink="http://www.w3.org/1999/xlink" width="27" height="22" version="1.1" viewBox="0 0 27 22"><title>Fill 1</title><desc>Created with Sketch.</desc><g id="Page-1" fill="none" fill-rule="evenodd" stroke="none" stroke-width="1"><g id="modal" fill="#78E1F2" transform="translate(-882.000000, -752.000000)"><g id="Button-Primary" transform="translate(863.000000, 735.000000)"><g id="Button"><g id="Group"><path id="Fill-1" d="M46,19.6042067 C45.0066113,20.0461067 43.9380307,20.3445884 42.8180995,20.4782003 C43.961872,19.7911408 44.839722,18.7032456 45.2541943,17.4063519 C44.1837797,18.0425407 42.9978264,18.5046664 41.7366812,18.7535033 C40.7261757,17.6748015 39.2865261,17 37.6922136,17 C34.6331877,17 32.1524668,19.4871431 32.1524668,22.5534754 C32.1524668,22.9886335 32.2019834,23.4127594 32.2967374,23.8197242 C27.6929155,23.5880485 23.6111577,21.3773227 20.8791858,18.0161861 C20.4017479,18.8362446 20.1284896,19.7911408 20.1284896,20.8085527 C20.1284896,22.7348934 21.1072067,24.4356874 22.592705,25.4316479 C21.6855118,25.4022287 20.8308918,25.1533918 20.0838635,24.7360078 C20.0832522,24.759298 20.0832522,24.783201 20.0832522,24.8064912 C20.0832522,27.4977295 21.9936151,29.7415517 24.5275205,30.2514835 C24.0629203,30.3789664 23.5732561,30.4469982 23.0683089,30.4469982 C22.710689,30.4469982 22.3640727,30.4126759 22.0260149,30.3477086 C22.7308624,32.554144 24.7763262,34.1593258 27.200806,34.2040674 C25.3045034,35.6946371 22.9160912,36.5821145 20.3204429,36.5821145 C19.8741821,36.5821145 19.4322005,36.5557599 19,36.5042764 C21.4501551,38.0806519 24.3624652,39 27.4905699,39 C37.6799873,39 43.2521339,30.5377072 43.2521339,23.1970191 C43.2521339,22.9567628 43.2466321,22.7171194 43.2356284,22.4787018 C44.3188806,21.6960301 45.2572509,20.7178437 46,19.6042067"/></g></g></g></g></g></svg>