<svg xmlns="http://www.w3.org/2000/svg" xmlns:xlink="http://www.w3.org/1999/xlink" width="21" height="23" version="1.1" viewBox="0 0 21 23"><title>x</title><desc>Created with Sketch.</desc><g id="Page-1" fill="none" fill-rule="evenodd" stroke="none" stroke-width="1"><g id="modal" fill="#FBB444" fill-rule="nonzero" transform="translate(-1240.000000, -351.000000)"><path id="x" d="M1244.52987,351 L1244.72494,351 C1246.05428,351 1247.18132,351.737206 1248.10608,353.21164 C1249.97006,355.707831 1250.94538,356.994709 1251.03208,357.07231 L1251.07543,357.07231 C1253.70522,354.278646 1255.20071,352.7137 1255.56195,352.377425 C1256.28442,351.898881 1256.99243,351.659612 1257.686,351.659612 L1257.85939,351.659612 C1259.0298,351.659612 1260.00512,352.189883 1260.78539,353.250441 C1261.03103,353.741919 1261.15385,354.188123 1261.15385,354.589065 L1261.15385,354.802469 C1261.15385,355.656089 1260.66257,356.522629 1259.68001,357.402116 C1259.59332,357.518519 1258.04003,359.173999 1255.0201,362.368607 L1255.0201,362.446208 C1257.80884,366.132294 1259.2971,368.143443 1259.48495,368.479718 C1259.64389,368.88066 1259.72336,369.23633 1259.72336,369.546737 L1259.72336,369.798942 C1259.72336,370.924168 1259.0587,371.823042 1257.72935,372.495591 C1257.23807,372.650794 1256.81182,372.728395 1256.45058,372.728395 L1256.25552,372.728395 C1254.92617,372.728395 1253.83526,372.036456 1252.98274,370.652557 C1251.3933,368.557309 1250.53358,367.4321 1250.40353,367.276896 L1245.83031,372.068783 C1245.09339,372.689597 1244.30591,373 1243.46784,373 L1243.31613,373 C1242.14572,373 1241.1704,372.456796 1240.39013,371.37037 C1240.13004,370.891826 1240,370.445622 1240,370.031746 L1240,369.876543 C1240,369.035857 1240.49127,368.169317 1241.47383,367.276896 C1244.52266,364.030554 1246.18432,362.258673 1246.45886,361.961199 C1243.38113,357.848304 1241.76282,355.669019 1241.60388,355.42328 C1241.37269,354.996471 1241.25709,354.576134 1241.25709,354.162257 L1241.25709,353.929453 C1241.25709,352.804227 1241.92176,351.91182 1243.2511,351.252205 C1243.74238,351.084067 1244.16864,351 1244.52987,351 Z" transform="translate(1250.576923, 362.000000) rotate(-4.000000) translate(-1250.576923, -362.000000)"/></g></g></svg>