<?xml version="1.0" encoding="UTF-8"?>
<svg width="700px" height="1020px" viewBox="0 0 700 1020" version="1.1" xmlns="http://www.w3.org/2000/svg" xmlns:xlink="http://www.w3.org/1999/xlink">
    <title>ill__week--2</title>
        <path d="M-15.8755675,510.729314 C-49.8048516,504.329177 -66.979211,456.573156 -49.9446632,424.422469 C-32.9101153,392.271781 -0.217164832,384.326243 19.1966772,384.326243 C38.6105192,384.326243 71.092253,385.781643 82.9862272,405.102056 C90.9155433,417.982331 90.9155433,457.108168 82.9862272,522.479565 L273.785291,607.355375 C328.86365,637.090014 358.556593,660.482516 362.864123,677.532881 C369.325417,703.108427 349.131947,735.742161 377.594276,762.979708 C406.056604,790.217254 478.996261,816.237144 497.35153,816.237144 C515.706798,816.237144 523.482719,812.407369 545.44313,779.446664 C596.50643,775.898634 676.536484,799.795128 686.378223,799.795128 C696.219963,799.795128 705.105801,834.091746 686.378223,838.756328 C679.115462,867.469733 679.115462,931.183676 624.796198,984.809451 C588.583356,1020.55997 462.28686,1027.77679 245.90671,1006.45991 C226.15164,1012.25588 199.226141,1013.14181 165.130212,1009.11769 C113.986318,1003.08152 -4.17277997,871.781662 -31.4365085,821.035949 C-49.6123275,787.205474 -66.0268559,735.838076 -80.6800938,666.933755 C-93.6176136,666.933755 -101.769735,662.70905 -105.136458,654.259638 C-110.186542,641.585521 -111.786338,630.464864 -89.4014995,607.355375 C-74.4782735,591.949049 -50.6959593,572.031218 -18.0545568,547.601883 C-18.3114092,537.026063 -17.5850794,524.735207 -15.8755675,510.729314 Z" id="Path-70" stroke="#163150" stroke-width="3" fill="#AE723B" transform="translate(294.523911, 701.365085) scale(-1, 1) translate(-294.523911, -701.365085) "></path>

        <path d="M-101.684058,592.148031 C28.2021577,639.830005 100.253799,668.091481 114.470866,676.932459 C128.687933,685.773437 137.311843,695.136321 140.342596,705.021111 C139.443213,748.591902 142.49058,773.209666 149.484695,778.874401 C159.975869,787.371504 262.911604,845.026279 290.046517,851.467283 C317.181431,857.908286 363.267472,872.805397 385.166336,820.224074 C398.332962,797.493921 496.379252,837.392991 507.340508,837.392991 C514.757454,832.292104 516.538224,826.882322 515.062205,816.254615 C514.163702,809.78516 510.649529,803.766541 507.340508,801.201121 C501.43046,798.977815 495.41226,799.042001 489.218269,797.850939 C480.429281,796.160876 471.236454,793.49931 461.066742,791.587437 C448.054787,789.141232 429.854367,785.829126 403.244686,781.914572 C395.674464,780.800916 383.117379,780.527249 365.573431,781.093571 C356.001321,795.89973 346.692665,806.758762 337.647465,813.670669 C329.569633,819.84336 307.943769,817.606728 282.12507,809.1841 C264.577808,803.459796 245.099504,794.69084 226.599451,784.490022 C180.878783,759.279919 180.72273,742.287026 180.72273,712.704722 C180.72273,697.581514 184.29291,688.195514 182.14758,679.377578 C180.096458,670.946868 175.097882,664.422772 156.539775,649.949458 C128.954806,628.43617 82.4642818,604.320734 -7.32237329,564.204426 C-25.2662128,556.187192 -55.1810277,542.278905 -97.066818,522.479565 C-103.361906,532.30848 -106.521105,543.596444 -106.544413,556.343456 C-106.562619,569.090468 -104.942501,581.025326 -101.684058,592.148031 Z" id="Path-88" fill="#9F6634" transform="translate(204.497388, 690.456178) scale(-1, 1) translate(-204.497388, -690.456178) "></path>

        <path d="M343.141112,547.601883 C343.141112,569.929171 355.848756,727.292431 381.132263,799.79814 C406.41577,872.303848 440.48504,952.050188 493.199619,987.331702 C528.342671,1010.85271 566.310258,1017.22878 607.102379,1006.45991 C544.413525,948.053241 503.16945,879.165983 483.370152,799.79814 C463.570854,720.430296 451.8555,652.797858 448.224092,596.900825" id="Path-74" stroke="#163150" stroke-width="3.08" stroke-linecap="round" transform="translate(475.121746, 779.567401) scale(-1, 1) translate(-475.121746, -779.567401) "></path>
        <path d="M574.305317,398.394338 C539.139696,405.272657 537.66933,478.144589 574.305317,498.216373" id="Path-76" stroke="#163150" stroke-width="3" stroke-linecap="round" transform="translate(560.841104, 448.305356) scale(-1, 1) translate(-560.841104, -448.305356) "></path>
</svg>
