<svg xmlns="http://www.w3.org/2000/svg" xmlns:xlink="http://www.w3.org/1999/xlink" id="Layer_1" data-name="Layer 1" viewBox="0 0 700 1020"><defs><linearGradient id="linear-gradient" x1="-49.68" x2="-49.68" y1="1009.24" y2="1010" gradientTransform="translate(-1901.46 80547.28) rotate(180) scale(41.51 78.88)" gradientUnits="userSpaceOnUse"><stop offset="0" stop-color="#9f6634"/><stop offset="1" stop-color="#ae723b"/></linearGradient><linearGradient id="linear-gradient-2" x1="-50.06" x2="-50.06" y1="1009.28" y2="1010.04" gradientTransform="translate(-1491.49 61724.72) rotate(180) scale(31.34 60.22)" xlink:href="#linear-gradient"/><linearGradient id="linear-gradient-3" x1="-46" x2="-46" y1="1009.31" y2="1010.08" gradientTransform="matrix(19.61, 0, 0, -50.04, 912.56, 51459.71)" xlink:href="#linear-gradient"/></defs><title>ill__week--2-top</title><g id="ill_week--2" data-name="ill week--2"><path id="Path-93" d="M196.33,780.15s-21.07,7.22-28.15,7.22-15.73,2.13-15.73-7.22-17-15.22-26.93-15.22S87.69,768.46,80.17,773q-7.51,4.51-23.82,7.16l15,33.52,92.6,9Z" style="fill:#9f6634;fill-rule:evenodd"/><path id="Path-79" d="M181.64,783.51c-17.32,6.22-27.87,4-27.87,0s2.12-23.22-54.49-15.14c-13.7,2-22.2,6.12-33.26,7.78q-19.38,2.91-49.09,3.42" style="fill:none;stroke:#163150;stroke-width:3.0799999237060547px"/><path id="Path-92" d="M118.77,819.05q-13.32,0-31.72-15.4L75.14,791.37q.42-9.45-13.09-13t-23.16,4.46l13.9,36.24q29.37,20,34.26,20C91.94,839.06,132.08,819.05,118.77,819.05Z" style="fill:#ae723b;fill-rule:evenodd"/><path id="Path-70" d="M604.92,510.73c33.93-6.4,51.11-54.16,34.07-86.31s-49.72-40.09-69.14-40.09S518,385.78,506.06,405.1q-11.9,19.32,0,117.38l-190.8,84.88q-82.62,44.6-89.08,70.17c-6.46,25.58,13.74,58.21-14.73,85.45S110.05,816.24,91.7,816.24s-26.13-3.83-48.1-36.79C-7.46,775.9-87.49,799.8-97.33,799.8s-18.73,34.29,0,39c7.26,28.71,7.26,92.42,61.58,146q54.32,53.63,378.89,21.65,29.64,8.7,80.78,2.66c51.14-6,169.3-137.34,196.56-188.08q27.27-50.74,49.25-154.11,19.41,0,24.45-12.67c5.05-12.67,6.65-23.8-15.73-46.9q-22.38-23.11-71.35-59.76A256.84,256.84,0,0,0,604.92,510.73Z" style="fill:#ae723b;stroke:#163150;stroke-width:3px;fill-rule:evenodd"/><path id="Path-95" d="M486.5,676.06c-34.59-8.72-112.45,14.4-163.53,50" style="fill:none;stroke:#163150;stroke-linecap:round;stroke-width:3px"/><path id="Path-95-Copy" d="M486.5,707.31c-75.68-4.76-148,51-206.46,81.72" style="fill:none;stroke:#163150;stroke-linecap:round;stroke-width:3px"/><path id="Path-88" d="M510.68,592.15q-194.83,71.52-216.16,84.78T268.65,705q1.35,65.36-9.14,73.85C249,787.37,146.08,845,119,851.47s-73.22,21.34-95.12-31.25C10.66,797.49-87.38,837.39-98.35,837.39c-7.41-5.1-9.19-10.51-7.72-21.14.9-6.46,4.42-12.48,7.72-15,5.91-2.22,11.93-2.16,18.13-3.35,8.79-1.69,18-4.35,28.15-6.26,13-2.45,31.21-5.76,57.82-9.68q11.36-1.67,37.67-.82,14.36,22.21,27.93,32.58c8.08,6.17,29.7,3.94,55.52-4.49,17.55-5.72,37-14.49,55.53-24.69,45.72-25.21,45.87-42.2,45.87-71.79,0-15.12-3.57-24.5-1.42-33.32,2.05-8.43,7.05-15,25.61-29.43,27.58-21.51,74.07-45.63,163.86-85.75q26.91-12,89.74-41.72,9.45,14.74,9.48,33.86A126.05,126.05,0,0,1,510.68,592.15Z" style="fill:#9f6634;fill-rule:evenodd"/><path id="Path-72" d="M506.06,522.48c9.51,6.42,13.28,64.92,4.62,69.67S338.44,657,315.42,666.93s-46.71,23.76-46.71,47.3-.91,53.06-9.2,64.64S144.62,849,91.25,856.7s-59.67-23.64-68.36-39.81q-8.7-16.18-120.22,21.87" style="fill:none;stroke:#163150;stroke-linecap:round;stroke-width:3px"/><path id="Path-71" d="M604.92,510.73c-24.3,0-65.28-5.65-69.55-5.65s-19.8-13.12-19.8-38,8-40.91,19.8-40.91,16,10,16,21.73-3.23,24.9-9.63,24.9" style="fill:none;stroke:#163150;stroke-linecap:round;stroke-width:3.0799999237060547px"/><path id="Path-89" d="M601.05,613.66q71.13,52.32,71.13,51.92c0-.27,9.1.48,16.88-7.52,3.93-4,6.39-9.24,6.39-17.76q0-25.41-88.35-89.73Z" style="fill:#9f6634;fill-rule:evenodd"/><path id="Path-90" d="M602.6,511.85l-66.34-5.13q-.25,187-20.72,247C495.06,813.67,454.82,916.78,416.87,958s-49.31,53.53-49.31,53.53l35.58-1.87q45.28-9.55,83.1-51.66t68.12-117.27Q590.87,743.8,596,667.34c2.15-32.25,5.34-64.43,9-97Q607.11,550.73,602.6,511.85Z" style="fill:#9f6634;fill-rule:evenodd"/><path id="Path-73" d="M669.73,666.93Q610,618.7,602.6,614.45" style="fill:none;stroke:#163150;stroke-linecap:round;stroke-width:3px"/><path id="Path-74" d="M607.1,547.6c0,22.33-12.71,179.69-38,252.2S509.76,952.05,457,987.33q-52.71,35.28-113.9,19.13,94-87.62,123.73-206.66T502,596.9" style="fill:none;stroke:#163150;stroke-linecap:round;stroke-width:3.0799999237060547px"/><path id="Path-75" d="M535.37,505.08c0,23.82,6.17,141.78-14,221.06s-47.69,151.47-80.75,198a722.34,722.34,0,0,1-73.06,87.38" style="fill:none;stroke:#163150;stroke-linecap:round;stroke-width:3.0799999237060547px"/><path id="Path-76" d="M547.38,398.39c35.16,6.88,36.63,79.75,0,99.83" style="fill:none;stroke:#163150;stroke-linecap:round;stroke-width:3px"/><path id="Path-78" d="M106.85,813.38c-12.6,3.45-29.42-19-34.2-28.45q-4.79-9.4-29.23-5.36" style="fill:none;stroke:#163150;stroke-width:2.5409998893737793px"/><path id="Path" d="M-88.38,874.9c26.23,29.79,70.14,40.27,131.1,34.07,51.33-5.22,112.92-21.79,191.58-49.7a1.52,1.52,0,0,1,1.92.92,1.49,1.49,0,0,1-.91,1.91C156.44,890.08,94.65,906.7,43,912c-61.83,6.29-106.66-4.41-133.65-35.07a1.5,1.5,0,0,1,.13-2.12A1.49,1.49,0,0,1-88.38,874.9Z" style="fill:#163150"/><path id="Path-94-Copy-3" d="M632.77,789c-3.53-6.82-13.55-28.29-44.79-37.48" style="fill:none;stroke:#163150;stroke-linecap:round;stroke-width:2.202199935913086px"/><g id="Oval"><ellipse id="path-6" cx="160.54" cy="904.65" rx="20.75" ry="39.44" style="fill:#313034;stroke-width:4.235000133514404px;stroke:url(#linear-gradient)"/><ellipse cx="160.54" cy="904.65" rx="20.75" ry="39.44" style="fill:none;stroke:#163150;stroke-width:1.694000005722046px"/></g><g id="Oval-Copy-24"><ellipse id="path-8" cx="77.53" cy="919.92" rx="15.67" ry="30.11" style="fill:#313034;stroke-width:4.235000133514404px;stroke:url(#linear-gradient-2)"/><ellipse cx="77.53" cy="919.92" rx="15.67" ry="30.11" style="fill:none;stroke:#163150;stroke-width:1.694000005722046px"/></g><g id="Combined-Shape"><path id="path-10" d="M.75,949V911.16c2.08-3.79,4.79-6.08,7.75-6.08,6.55,0,11.86,11.2,11.86,25s-5.31,25-11.86,25C5.54,955.12,2.83,952.83.75,949Z" style="fill:#313034;stroke-width:4.235000133514404px;fill-rule:evenodd;stroke:url(#linear-gradient-3)"/><path d="M.75,949V911.16c2.08-3.79,4.79-6.08,7.75-6.08,6.55,0,11.86,11.2,11.86,25s-5.31,25-11.86,25C5.54,955.12,2.83,952.83.75,949Z" style="fill:none;stroke:#163150;stroke-width:1.694000005722046px"/></g></g></svg>