<svg xmlns="http://www.w3.org/2000/svg" xmlns:xlink="http://www.w3.org/1999/xlink" id="Layer_1" data-name="Layer 1" viewBox="0 0 300 300"><defs><linearGradient id="linear-gradient" x1="101.98" x2="104.07" y1="129.91" y2="129.91" gradientTransform="matrix(13.6, -7.23, -6.57, -12.36, -443.18, 2455.57)" gradientUnits="userSpaceOnUse"><stop offset="0" stop-color="#c86e4c"/><stop offset="1" stop-color="#f4d57a"/></linearGradient></defs><title>items</title><g id="item__2-3"><path id="Fill-4" d="M101.62,98.54c-2.1,1-7-2.39-7-2.39h0s3.85,5.15,3,6.16h0c-.85,1-7.14,1.16-7.14,1.16h0s6.67,1.86,6.69,2.68h0c0,.82-8.42,4.76-8.42,4.76h0s9.4-2.65,11.41-1.22h0c2,1.43-.65,11-.65,11h0s3.59-9.4,4.58-9.36h0c1,0,4.89,7.37,4.89,7.37h0s-2.18-8.26-1.37-8.83h0c.81-.57,5.33.91,5.33.91h0s-2.19-2-1.83-2.91h0c.37-.89,6.92.75,10.15.84h0c-8.21-2.15-9.59-4.74-9.59-4.74h0c-.22-2.24,7.77-2.33,7.77-2.33h0s-6.92-1-7.7-1.73h0c-.79-.69,3.29-8.12,3.29-8.12h0s-6.13,6.44-8,6.33h0c-1.87-.12-3.91-9.43-3.91-9.43h0s.56,8.85-1.55,9.83" style="fill-rule:evenodd;fill:url(#linear-gradient)"/><path d="M99.55,121.23a.51.51,0,0,1-.17,0,.52.52,0,0,1-.34-.63c1.07-3.84,2-9.62.86-10.45s-7.42.3-11,1.29a.53.53,0,0,1-.63-.32.54.54,0,0,1,.27-.66,58.16,58.16,0,0,0,8-4.25,32.62,32.62,0,0,0-6.17-2.2.53.53,0,0,1-.38-.57.53.53,0,0,1,.51-.46c2.92-.07,6.33-.48,6.75-1,.21-.49-1.2-3.08-3-5.51a.54.54,0,0,1,0-.68.53.53,0,0,1,.68-.06c1.78,1.24,5.11,3,6.44,2.35h0c1.23-.57,1.47-5.8,1.25-9.33a.52.52,0,0,1,1-.14c1,4.75,2.65,9,3.43,9,1.08.08,5.11-3.56,7.58-6.16a.52.52,0,0,1,.69-.07.53.53,0,0,1,.15.68c-1.66,3-3.37,6.69-3.34,7.53a43,43,0,0,0,7.37,1.55.52.52,0,0,1,.44.55.52.52,0,0,1-.51.49c-2.29,0-6.24.43-7.12,1.42a.42.42,0,0,0-.13.23c.35.46,2.27,2.58,9.19,4.39a.52.52,0,0,1-.14,1,44,44,0,0,1-4.93-.59,23,23,0,0,0-4.72-.48,6.13,6.13,0,0,0,1.69,2.23.53.53,0,0,1,.1.65.52.52,0,0,1-.61.23,14.67,14.67,0,0,0-4.81-1c-.2.82.61,4.87,1.51,8.29a.52.52,0,0,1-1,.38c-1.6-3-3.66-6.41-4.41-7-.73.8-2.65,5.14-4.11,9A.53.53,0,0,1,99.55,121.23ZM98,108.76a4.46,4.46,0,0,1,2.47.51c1.12.79,1.1,3.35.75,5.89,2-4.37,2.6-4.35,2.89-4.34.64,0,1.8,1.46,3.46,4.28-1.09-5-.47-5.48-.25-5.64.63-.45,2.38-.13,4,.3a2.39,2.39,0,0,1-.65-2.07c.33-.82,1.63-.71,5.5-.12-4-1.7-4.87-3.25-4.92-3.34a.7.7,0,0,1-.06-.19,1.47,1.47,0,0,1,.4-1.14c.66-.74,2.2-1.17,3.74-1.42a13.05,13.05,0,0,1-3.9-1.15c-.26-.23-.87-.77,1.6-5.75-2,1.91-4.67,4.17-6,4.08s-2.47-2.89-3.31-5.67c-.12,2.58-.57,5.41-1.9,6h0c-1.4.65-3.65-.25-5.33-1.15,1.21,1.87,2.25,3.95,1.55,4.78-.56.66-2.64,1-4.54,1.18,4.19,1.36,4.21,2,4.21,2.31s0,.86-4.48,3.18A26.82,26.82,0,0,1,98,108.76ZM96.73,106Zm4.89-7.46h0Z" style="fill:#163150"/><g id="path-2"><path d="M135.29,126.64a2,2,0,0,1-1.8-1.09c-3.72-7.23-15.27-12.59-22.91-16.13-1.28-.6-2.46-1.14-3.49-1.65a2,2,0,1,1,1.77-3.62c1,.49,2.17,1,3.42,1.61,8.14,3.77,20.45,9.48,24.8,17.94a2,2,0,0,1-1.79,2.94Z" style="fill:#163150"/></g><path d="M135.29,125.87a1.25,1.25,0,0,1-1.11-.68c-3.84-7.47-15.53-12.89-23.27-16.48-1.28-.59-2.45-1.13-3.48-1.63a1.25,1.25,0,0,1,1.09-2.24c1,.5,2.18,1,3.43,1.62,8,3.73,20.21,9.37,24.44,17.6a1.23,1.23,0,0,1-.54,1.67A1.25,1.25,0,0,1,135.29,125.87Z" style="fill:#9f6634"/><g id="Path-208"><path d="M119.38,101.48a32.54,32.54,0,0,1,11.93,2.9,70.15,70.15,0,0,1,18.63-2.31c2.21-2.53,5.94-4.16,10.46-5.62q-6.48-1.14-21.28-4Q127.83,97.91,119.38,101.48Z" style="fill:#a682ff;fill-rule:evenodd"/><path d="M131.31,104.9a.52.52,0,0,1-.21,0A32.12,32.12,0,0,0,119.35,102a.52.52,0,0,1-.17-1c5.6-2.37,12.23-5.39,19.72-9a.5.5,0,0,1,.32,0c10,1.91,16.95,3.21,21.28,4a.53.53,0,0,1,.43.48.52.52,0,0,1-.36.53c-3.76,1.22-7.92,2.82-10.24,5.47a.57.57,0,0,1-.39.18,70.35,70.35,0,0,0-18.51,2.3Zm-9.79-3.76a32.81,32.81,0,0,1,9.83,2.69,69.53,69.53,0,0,1,18.36-2.28c2.08-2.28,5.36-3.79,8.6-4.94-4.34-.78-10.63-2-19.12-3.58C132.6,96.2,126.67,98.92,121.52,101.14Z" style="fill:#163150"/></g><g id="Path-206"><path d="M130.53,106a.54.54,0,0,1-.28-.08.53.53,0,0,1-.15-.73l8.62-13a.52.52,0,1,1,.87.58l-8.62,13A.53.53,0,0,1,130.53,106Z" style="fill:#163150"/></g><g id="Path-207"><path d="M118.51,102.34a.53.53,0,0,1-.48-.3.52.52,0,0,1,.26-.69L138.94,92a.53.53,0,0,1,.43,1l-20.65,9.34A.52.52,0,0,1,118.51,102.34Z" style="fill:#163150"/></g><path d="M150.64,103.54a.53.53,0,0,1-.35-.13L138.78,92.87a.52.52,0,1,1,.7-.77L151,102.64a.52.52,0,0,1-.36.9Z" style="fill:#163150"/><path d="M161.43,97.07h-.1L139,93a.52.52,0,0,1-.42-.61.53.53,0,0,1,.6-.42L161.52,96a.52.52,0,0,1-.09,1Z" style="fill:#163150"/><g id="Path-205"><path d="M142.7,121.91a.51.51,0,0,1-.51-.46l-3.91-31.82a.52.52,0,0,1,.46-.58.53.53,0,0,1,.58.46l3.9,31.82a.52.52,0,0,1-.45.58Z" style="fill:#163150"/></g><g id="Combined-Shape"><path d="M135.46,156.74c1.29-2,1.75-3.18,1.33-4.86l-11.15-21a.59.59,0,0,1,.24-.79l20.66-11a.59.59,0,0,1,.79.24l10.87,20.44c1.45,1.92,2.85,2.11,6.26,2.09a37.74,37.74,0,0,1,33.82,56.33c-7.4,4.08-28.4,15.22-35.25,19a37.74,37.74,0,0,1-27.57-60.54Z" style="fill:#2a455f;fill-rule:evenodd"/><path d="M163.15,217.81H163a38.26,38.26,0,0,1-28-61.37c1.33-2,1.61-3,1.25-4.43l-11.1-20.84a1.12,1.12,0,0,1,.46-1.5l20.66-11a1.07,1.07,0,0,1,.84-.08,1.06,1.06,0,0,1,.65.54l10.87,20.44c1.21,1.59,2.35,1.84,5.8,1.81l1,0a38.26,38.26,0,0,1,33.27,57.13l-.07.13-.13.07c-3.42,1.89-9.64,5.22-16.23,8.76-7.54,4-15.34,8.22-19,10.28Zm-16.28-98.18-20.74,11,11.12,21c.52,2-.05,3.38-1.35,5.39l0,0a37.21,37.21,0,0,0,27,59.7c3.74-2.09,11.44-6.22,18.9-10.21,6.5-3.49,12.65-6.79,16.09-8.68a37.22,37.22,0,0,0-33.42-55.43c-3.57,0-5.1-.19-6.7-2.29Z" style="fill:#163150"/></g><g id="Oval-Copy-53"><path d="M171.46,202a.89.89,0,0,1-.58-.22c-7.53-6.54-7.25-21.78.56-30.77,4.22-4.84,12.3-8.58,17.35-8a5,5,0,0,1,4.06,2.45c2.17,6.26-2.11,10.91-4.94,14-.83.9-2,2.15-2,2.56a10.55,10.55,0,0,0,3.14,2,2,2,0,0,1,1.09,0,1.1,1.1,0,0,1,.69.84,1,1,0,0,1-.54.91,1.9,1.9,0,0,1-1.24.06c-.81.29-2.46,1.21-5,4.08-2.34,2.69-3.9,4.65-5,6.08-2.72,3.4-3.45,4.32-7.26,5.95A.83.83,0,0,1,171.46,202Zm16.23-37.32c-4.51,0-11.35,3.37-14.92,7.48-7.09,8.15-7.58,21.78-1.14,27.93,3-1.3,3.51-2,6.06-5.2,1.15-1.44,2.73-3.42,5.09-6.14a20.27,20.27,0,0,1,4.22-3.83,16.43,16.43,0,0,1-2.25-1.69,1.63,1.63,0,0,1-.58-1.15c-.06-1.11.94-2.2,2.45-3.84,2.7-2.94,6.4-7,4.62-12.1a3.27,3.27,0,0,0-2.65-1.41A8.72,8.72,0,0,0,187.69,164.64Z" style="fill:#78e1f2"/></g><path d="M165.48,178.93a16.68,16.68,0,0,0,26.74-14.48,7.16,7.16,0,0,1,1.25,1.41c4.16,5.38,4.78,19,.9,27.53-7,3.82-26.6,14.33-33.16,18a31.33,31.33,0,0,1-19.7-11.31c-1.75-2.25-2.76-9.36-1.08-13.12.69-1.52,2.62-6,6.76-8.5s8.19-3.37,14-1.72A34.7,34.7,0,0,1,165.48,178.93Z" style="fill:#78e1f2;fill-rule:evenodd"/><g id="Rectangle"><rect width="39.61" height="8.9" x="114.75" y="116.76" rx="2.05" transform="translate(-41.15 77.36) rotate(-28)" style="fill:#2a455f"/><path d="M120,134.23a2.56,2.56,0,0,1-2.27-1.36l-2.26-4.24a2.59,2.59,0,0,1,1.07-3.48h0l31.35-16.67a2.56,2.56,0,0,1,3.47,1.06l2.26,4.24a2.57,2.57,0,0,1-1.06,3.48l-31.36,16.67A2.57,2.57,0,0,1,120,134.23Zm-3-8.16a1.52,1.52,0,0,0-.63,2.07l2.25,4.24a1.53,1.53,0,0,0,2.06.63l31.36-16.67a1.51,1.51,0,0,0,.74-.9,1.54,1.54,0,0,0-.11-1.17L150.45,110a1.53,1.53,0,0,0-2.06-.63L117,126.07Z" style="fill:#163150"/></g><g id="Oval"><circle cx="149.59" cy="157.26" r="5.56" style="fill:#78e1f2"/></g><g id="Oval-Copy-55"><circle cx="147.26" cy="137.31" r="3.8" style="fill:#78e1f2"/></g><g id="Oval-Copy-54"><circle cx="167.98" cy="160.07" r="4.97" style="fill:#78e1f2"/></g><g id="Fill-9-Copy-2" style="opacity:.609723746776581;isolation:isolate"><path d="M150.69,195.45a2.67,2.67,0,0,1,1.1-3.58,2.58,2.58,0,0,1,3.53,1.08,2.69,2.69,0,0,1-1.1,3.59,2.58,2.58,0,0,1-3.53-1.09M157,196c-.16-.3-.51-1.68-.15-1.87s1.28.87,1.44,1.17a.71.71,0,0,1-.36.9.67.67,0,0,1-.93-.2m-.34-3.74a2.69,2.69,0,0,1,1.11-3.59,2.59,2.59,0,0,1,3.53,1.08,2.69,2.69,0,0,1-1.1,3.59,2.6,2.6,0,0,1-3.54-1.08m-8.84,3.3a7.12,7.12,0,0,0,6.09,3.69l2.06,4,1.6-.87-1-1.95,1-.54,1,2,1.24-.67-1-1.95,1-.54,1,1.95L162,200l-1-2,1-.53,1,2,1.6-.87-2-3.95a7.38,7.38,0,0,0,.41-7.21c-1.91-3.68-6.86-4.82-11.05-2.55s-6,7.07-4.13,10.75" style="fill:#163150;fill-rule:evenodd"/></g></g></svg>