<svg id="Layer_1" data-name="Layer 1" xmlns="http://www.w3.org/2000/svg" viewBox="0 0 300 300"><title>items</title><g id="item__2-1"><path d="M137.4,167.07,180,96.18a1.2,1.2,0,0,1,1.64-.4h0a1.2,1.2,0,0,1,.4,1.64L139.45,168.3a1.19,1.19,0,0,1-1.64.41h0A1.19,1.19,0,0,1,137.4,167.07Z" style="fill:#d8d8d8;fill-rule:evenodd"/><path d="M138.42,169.4a1.69,1.69,0,0,1-.87-.25,1.66,1.66,0,0,1-.78-1.05,1.71,1.71,0,0,1,.19-1.29l42.6-70.89a1.7,1.7,0,0,1,2.34-.58,1.69,1.69,0,0,1,.58,2.34l-42.59,70.89a1.7,1.7,0,0,1-1,.78A2,2,0,0,1,138.42,169.4Zm-.58-2.06a.7.7,0,0,0,.23.93.68.68,0,0,0,.52.08A.67.67,0,0,0,139,168L181.6,97.15a.65.65,0,0,0,.08-.51.63.63,0,0,0-.31-.42.67.67,0,0,0-.93.23Z" style="fill:#979797"/><rect x="149.13" y="91.09" width="23.92" height="3.42" transform="translate(-1.42 183.09) rotate(-59)" style="fill:#ffd166"/><path d="M156.87,105.81l-5.28-3.17,13.73-22.85L170.6,83Zm-1.52-4.1.58.35L166.85,83.9l-.59-.35Z" style="fill:#163150"/><circle cx="171.57" cy="73.18" r="15.04" style="fill:#9165ff"/><path d="M171.55,89.68a16.5,16.5,0,0,1-14.12-25h0a16.5,16.5,0,1,1,14.12,25Zm0-30.07a13.64,13.64,0,0,0-11.66,6.58h0a13.57,13.57,0,1,0,11.66-6.58Z" style="fill:#163150"/><path d="M174.1,128.69c3.09,2.86,15.73,14.24,20.75,29.69q-1.51,3.81-12.4,8.25-10.14-19-14.13-21.37t1.6-15.69Q171,125.84,174.1,128.69Z" style="fill:#057a97;fill-rule:evenodd"/><path d="M182.45,168.1a1.48,1.48,0,0,1-1.29-.77c-8.23-15.4-11.94-19.82-13.6-20.81-3.46-2.08-3.14-7.65,1-17.52a3.85,3.85,0,0,1,2.47-2.91c1.85-.51,3.51,1,4.06,1.53l.24.22c10.54,9.72,17.58,19.85,20.91,30.09a1.5,1.5,0,0,1,0,1c-1.19,3-5.39,5.87-13.2,9.06A1.55,1.55,0,0,1,182.45,168.1Zm-10.64-39.18a2.94,2.94,0,0,0-.48,1.06c-4.79,11.41-2.94,13.62-2.26,14,1.82,1.1,5.24,4.45,14,20.77,7.06-3,9.4-5.23,10.16-6.5-3.24-9.57-9.94-19.08-19.92-28.28l-.24-.22C172.27,129,171.86,128.93,171.81,128.92Z" style="fill:#163150"/><path d="M118.27,146.92,145,102.4a10.51,10.51,0,0,1,14.41-3.6h0A10.52,10.52,0,0,1,163,113.21l-26.76,44.52a10.49,10.49,0,0,1-14.4,3.59h0A10.49,10.49,0,0,1,118.27,146.92Z" style="fill:#78e1f2;fill-rule:evenodd"/><path d="M127.25,164.28A12,12,0,0,1,117,146.17l26.76-44.53a12,12,0,0,1,16.41-4.09A12,12,0,0,1,164.27,114l-26.75,44.53A12,12,0,0,1,127.25,164.28ZM154,98.77a9.28,9.28,0,0,0-2.21.27,8.93,8.93,0,0,0-5.55,4.11l-26.75,44.53a9,9,0,0,0,3.09,12.39A9,9,0,0,0,135,157l26.75-44.53A9,9,0,0,0,154,98.77Z" style="fill:#163150"/><path d="M127,175.07l37.7-62.75q1.22-8.86-2.92-12.37l7.32-12.19a17.6,17.6,0,0,0,11.55-3C185,82.15,187,76.16,187.76,73q5.15,3.14,12.28,7.38l-11.4,19q-2,5.3,7.59,6t22,.54l-8,13.28-24.92-2.81-6.52,10.85,1.34,4.9-9.93,16.52-3.05,2.41-15.32,25.5-4.82-2.9,3.89-6.47q-2.28-4.71-5.58.78l-8,13.28Z" style="fill:#ffd166;fill-rule:evenodd"/><path d="M137.36,182.74a1.44,1.44,0,0,1-.75-.21l-10.34-6.21a1.46,1.46,0,0,1-.5-2l37.55-62.49c.66-5.19-.16-8.81-2.46-10.75a1.48,1.48,0,0,1-.3-1.88L167.88,87a1.43,1.43,0,0,1,1.35-.71,16.23,16.23,0,0,0,10.68-2.75c4.24-2.6,6-9,6.42-10.86a1.47,1.47,0,0,1,2.19-.92q5.14,3.14,12.27,7.37a1.45,1.45,0,0,1,.67.9,1.47,1.47,0,0,1-.16,1.12L190,100c-.43,1.19-.11,1.7,0,1.87.39.62,1.74,1.7,6.38,2,6.36.47,13.7.66,21.87.54h0a1.46,1.46,0,0,1,1.26,2.21l-8,13.29a1.49,1.49,0,0,1-1.42.7l-24-2.71-5.71,9.51,1.17,4.3a1.43,1.43,0,0,1-.16,1.14l-9.92,16.52a1.44,1.44,0,0,1-.35.39l-2.84,2.24-15.18,25.27a1.47,1.47,0,0,1-2,.5l-4.82-2.9a1.4,1.4,0,0,1-.67-.9,1.45,1.45,0,0,1,.16-1.11l3.46-5.74c-.34-.52-.58-.67-.64-.68h0s-.69.07-2,2.24l-8,13.28a1.45,1.45,0,0,1-.9.67A1.47,1.47,0,0,1,137.36,182.74ZM129,174.56l7.82,4.71,7.23-12c1-1.61,2.53-3.75,4.64-3.65,1.39.06,2.57,1.07,3.5,3a1.45,1.45,0,0,1-.06,1.4L149,173.19l2.31,1.39,14.57-24.25a1.44,1.44,0,0,1,.35-.39l2.84-2.24L178.57,132l-1.17-4.31a1.48,1.48,0,0,1,.16-1.14l6.52-10.84a1.46,1.46,0,0,1,1.42-.71l24,2.71,6.15-10.23c-7.22,0-13.76-.14-19.51-.57-4.58-.34-7.4-1.45-8.63-3.4a4.91,4.91,0,0,1-.22-4.6,1.63,1.63,0,0,1,.11-.23L198,80.91c-3.5-2.09-6.61-4-9.36-5.62-1,3.26-3.11,8.23-7.22,10.76a19,19,0,0,1-11.52,3.22l-6.27,10.44c2.46,2.75,3.31,7.05,2.52,12.8a1.4,1.4,0,0,1-.2.56Z" style="fill:#163150"/><path d="M184.74,117.4c2.59,2.3,4,4.61,4.29,7.74q2.4-.18,5.35-7.63l-9-1.1Z" style="fill:#057a97;fill-rule:evenodd"/><path d="M189,126.6a1.45,1.45,0,0,1-1.45-1.32c-.26-2.64-1.37-4.61-3.81-6.79a1.47,1.47,0,0,1-.29-1.85l.6-1a1.43,1.43,0,0,1,1.43-.69l9.05,1.1a1.44,1.44,0,0,1,1.08.7,1.47,1.47,0,0,1,.1,1.29c-2.27,5.75-4.31,8.38-6.6,8.55Zm-1.49-8.45a12,12,0,0,1,2.52,4.58,19.27,19.27,0,0,0,2.23-4Z" style="fill:#163150"/><path d="M144.44,179.56l3.63,2.18,4.21-5.21-5.3-3.19Z" style="fill:#057a97;fill-rule:evenodd"/><path d="M148.41,183.66l-5.8-3.49,3.67-9,8.2,4.93ZM146.27,179l1.46.88,2.36-2.91-2.4-1.44Z" style="fill:#163150"/><path d="M123.75,183.87l7.45,4.48,6.25-7.18L127,174.89Z" style="fill:#057a97;fill-rule:evenodd"/><path d="M131.5,190.24,122,184.51l4.27-11.79,13.48,8.1Zm-6-7,5.36,3.22,4.3-4.93-7.43-4.47Z" style="fill:#163150"/><rect x="109.6" y="124.09" width="107.99" height="3.42" rx="1.37" transform="translate(-28.49 201.24) rotate(-59)" style="fill:#ebbd5c"/><rect x="147.1" y="125.39" width="50.58" height="3.42" rx="1.37" transform="translate(-25.34 209.4) rotate(-59)" style="fill:#ebbd5c"/><path d="M188.73,114.12q.48-.91,3.7-6.15l21.09.79-4.47,7.44Q190.59,114.54,188.73,114.12Z" style="fill:#ebbd5c;fill-rule:evenodd"/><path d="M125.72,188Q85.1,236.35,93.6,241.45T125.72,188Z" style="fill:#78e1f2;fill-rule:evenodd"/><path d="M95.06,243.32a4.27,4.27,0,0,1-2.22-.61,4.47,4.47,0,0,1-2.09-3.2c-.73-4.36,2-14.53,33.85-52.46a1.47,1.47,0,0,1,2.48,1.49c-18.53,45.93-26.25,53.11-30.43,54.51A5,5,0,0,1,95.06,243.32Zm25.65-47C97.42,224.82,93,235.31,93.64,239a1.47,1.47,0,0,0,2.08,1.25C99.29,239.08,106.48,230.27,120.71,196.33Z" style="fill:#163150"/><path d="M118.54,188.77q-31.22,7.14-26.9,14.91T118.54,188.77Z" style="fill:#78e1f2;fill-rule:evenodd"/><path d="M95.1,207.13a6.61,6.61,0,0,1-.93-.06,5.33,5.33,0,0,1-4.06-7.33c1.27-2.86,5.57-7.24,28.1-12.4a1.47,1.47,0,0,1,1.37,2.46C104.76,204.68,98.45,207.13,95.1,207.13Zm18.62-15.69c-15.43,3.94-20,7.29-20.94,9.49a2.41,2.41,0,0,0,1.8,3.24C97,204.53,102.2,202.43,113.72,191.44Z" style="fill:#163150"/><path d="M129.34,191.36q-11.09,19.56-3.68,20.86T129.34,191.36Z" style="fill:#78e1f2;fill-rule:evenodd"/><path d="M126.45,213.76a6.55,6.55,0,0,1-1-.09,4.67,4.67,0,0,1-3.62-2.62c-1.64-3.48.36-10,6.28-20.41a1.47,1.47,0,0,1,2.72.47c2,11.85,1.64,18.63-1.08,21.33A4.5,4.5,0,0,1,126.45,213.76Zm2.09-17.86c-4.8,9.26-4.68,12.67-4.1,13.9a2.21,2.21,0,0,0,3.2.56C128.61,209.4,129.89,206.24,128.54,195.9Z" style="fill:#163150"/><path d="M119.89,212.55q-8,13.86-2.61,14.81T119.89,212.55Z" style="fill:#78e1f2;fill-rule:evenodd"/><path d="M117.87,228.88a5.18,5.18,0,0,1-.85-.08,3.78,3.78,0,0,1-2.94-2.14c-1.23-2.63.21-7.34,4.54-14.84a1.47,1.47,0,0,1,2.71.47c1.5,8.53,1.25,13.46-.8,15.5A3.65,3.65,0,0,1,117.87,228.88Zm1.22-11.78c-2.88,5.73-2.65,7.7-2.36,8.32.06.13.18.39.8.5s.82-.09.93-.2C118.94,225.24,119.83,223.47,119.09,217.1Z" style="fill:#163150"/><path d="M93.21,215.38Q78.72,222.15,82.58,226T93.21,215.38Z" style="fill:#78e1f2;fill-rule:evenodd"/><path d="M84.33,228.29a3.85,3.85,0,0,1-2.79-1.24,3.77,3.77,0,0,1-1.18-3.45c.5-2.85,4.39-5.89,12.23-9.54a1.46,1.46,0,0,1,2,1.94c-3.66,7.85-6.69,11.73-9.55,12.24A4.43,4.43,0,0,1,84.33,228.29Zm5.61-9.64c-5.64,3-6.58,4.79-6.7,5.46,0,.15-.07.42.38.87s.72.4.86.37C85.16,225.23,86.9,224.29,89.94,218.65Z" style="fill:#163150"/></g></svg>