<svg xmlns="http://www.w3.org/2000/svg" xmlns:xlink="http://www.w3.org/1999/xlink" id="Layer_1" data-name="Layer 1" viewBox="0 0 300 300"><defs><linearGradient id="linear-gradient" x1="-807.33" x2="-807.02" y1="-226.8" y2="-225.65" gradientTransform="translate(-8198.11 -3478.62) rotate(180) scale(10.37 15.96)" gradientUnits="userSpaceOnUse"><stop offset="0" stop-color="#ffd166"/><stop offset="1" stop-color="#163150"/></linearGradient><clipPath id="clip-path"><ellipse cx="179.81" cy="104.28" rx="6.37" ry="44.61" transform="translate(-5.58 198.29) rotate(-57)" style="fill:none"/></clipPath></defs><title>items</title><g id="item__4-3"><g id="main-card"><g id="fish-copy"><g id="Combined-Shape"><path d="M78.5,161.81a72.06,72.06,0,1,0,136.05-41.45c-12.87-7.66-51.33-31.74-65.14-40.07A72.12,72.12,0,0,0,78.5,161.81" style="fill:#2a455f;fill-rule:evenodd"/><path d="M149.75,225.22A72.81,72.81,0,0,1,77.6,161.93h0a73,73,0,0,1,71.8-82.55h.26l.22.13c6.4,3.86,17.89,11,30.05,18.51,13.85,8.57,28.18,17.45,35.09,21.56l.23.14.12.24a73,73,0,0,1-65.62,105.26Zm-.59-144A71.21,71.21,0,0,0,79.4,161.69h0A71.15,71.15,0,1,0,213.85,121c-7-4.18-21.17-13-34.88-21.45C167,92.12,155.59,85.08,149.16,81.2Z" style="fill:#163150"/></g><g id="Group-131-Copy"><g id="Group-129"><g id="Group-128"><g id="Path-289"><path d="M159.07,148q0-8.49,0-16.26c.06-10,5.45-14.58,10.44-14.58h0c5,0,10.33,4.59,10.33,14.58v12.36h-1.14V131.75c0-9.21-4.76-13.43-9.19-13.44h0c-4.45,0-9.25,4.2-9.3,13.44q0,7.77,0,16.26Z" style="fill:url(#linear-gradient)"/></g><g id="Group-126"><g id="Group-125"><g id="Path-287"><path d="M159.64,186.24c.53-6.11-1.69-15.9.53-29q-21.54,20-7.7,34.2A68.09,68.09,0,0,0,159.64,186.24Z" style="fill:#2a455f;fill-rule:evenodd"/></g><g id="Path-287-Copy"><path d="M163.68,185.53c-6.22-.93-7.17-13.38-5-26.51Q137.2,179.06,149,195,159.79,188.69,163.68,185.53Z" style="fill:#163150;fill-rule:evenodd"/></g><g id="Path-271"><path d="M179.63,176.17c.46,2.93-7,26-25.46,26s-26.77-32-26.77-35.24-7.29-3-10-2.6-4.91-6.28.53-7.5,17.56-5.75,22.56-5.75,9.76-8.67,16.63-5.4A30.55,30.55,0,0,1,168,154.33c1.07,1.09-7.85-.28-10.81,10.37a54.77,54.77,0,0,0-1.46,22.11,10.17,10.17,0,0,1-.68-3.57C166.25,183.1,176.43,175.5,179.63,176.17Z" style="fill:#a682ff;fill-rule:evenodd"/><path d="M154.17,203.09c-18.81,0-27.68-32-27.68-36.15a1.05,1.05,0,0,0-.4-.83c-1.48-1.29-6-1.22-8.54-.87-1.92.26-3.41-1.64-3.77-3.63a4.72,4.72,0,0,1,4-5.66c1.88-.42,4.63-1.26,7.55-2.15,5.55-1.7,11.83-3.62,15.21-3.62,1.69,0,3.52-1.28,5.46-2.64,3.26-2.29,6.94-4.87,11.56-2.67A29.71,29.71,0,0,1,168,153c.25.28.45.52.6.67a1.09,1.09,0,0,1,.31,1.08c-.18.67-.8.83-1.74,1.07-2.32.6-7.13,1.84-9.15,9.11a53.19,53.19,0,0,0-1.85,17.34c6.17-.37,12-2.93,16.36-4.83,3.33-1.45,5.74-2.51,7.28-2.18a.89.89,0,0,1,.71.75c.35,2.15-2.44,11.21-8.31,18.08C167.19,200,161,203.09,154.17,203.09Zm-33.29-39.88c2.25,0,5,.29,6.4,1.53a2.85,2.85,0,0,1,1,2.2c0,3.82,8.63,34.33,25.86,34.33,6.32,0,11.93-2.81,16.66-8.34a36.71,36.71,0,0,0,7.85-15.85,31.26,31.26,0,0,0-5.42,2c-4.47,2-10.48,4.58-17,5,.07.87.17,1.73.28,2.6a.91.91,0,0,1-1.76.43,11.06,11.06,0,0,1-.73-3.9,1,1,0,0,1,.27-.64,55.52,55.52,0,0,1,1.9-18.13c2.26-8.1,7.78-9.69,10.3-10.34a28.09,28.09,0,0,0-9.82-7.6c-3.65-1.75-6.6.32-9.72,2.51-2.18,1.53-4.24,3-6.51,3-3.11,0-9.25,1.88-14.68,3.54-3,.9-5.74,1.76-7.68,2.19a2.93,2.93,0,0,0-2.57,3.56c.22,1.22,1.08,2.25,1.72,2.14A31.49,31.49,0,0,1,120.88,163.21Z" style="fill:#163150"/></g><path d="M126.18,165.41a2,2,0,0,1,1,1.77c0,3.3,8.37,35.32,26.76,35.32,18.16,0,25.71-22.55,25.46-25.95-3.62,7-11.18,16.07-23.29,16.07-18.39,0-23.59-16.36-29-26.43C127.11,165.61,126.77,165.39,126.18,165.41Z" style="fill:#9165ff;fill-rule:evenodd"/><path d="M157.51,163.11c3.4-8.72,11.22-7.57,10.22-8.59a30.4,30.4,0,0,0-10.82-8.64c-6.86-3.27-11.63,5.4-16.63,5.4s-17.11,4.54-22.55,5.75a4.49,4.49,0,0,0-2.43,1.31,3.2,3.2,0,0,1,1-.38c5.44-1.21,15.41,3.25,24.35,0C147.3,155.54,148.26,161.89,157.51,163.11Z" style="fill:#9165ff;fill-rule:evenodd"/><path d="M154.17,203.09c-18.81,0-27.68-32-27.68-36.15a1.05,1.05,0,0,0-.4-.83c-1.48-1.29-6-1.22-8.54-.87-1.92.26-3.41-1.64-3.77-3.63a4.72,4.72,0,0,1,4-5.66c1.88-.42,4.63-1.26,7.55-2.15,5.55-1.7,11.83-3.62,15.21-3.62,1.69,0,3.52-1.28,5.46-2.64,3.26-2.29,6.94-4.87,11.56-2.67A29.71,29.71,0,0,1,168,153c.25.28.45.52.6.67a1.09,1.09,0,0,1,.31,1.08c-.18.67-.8.83-1.74,1.07-2.32.6-7.13,1.84-9.15,9.11a50,50,0,0,0-1.85,21.12c3.09-.83,6.92-3.18,10.64-5.46,5-3.08,9.79-6,13-5.33l.62.13.09.62c.35,2.15-2.44,11.21-8.31,18.08C167.19,200,161,203.09,154.17,203.09Zm-33.29-39.88c2.25,0,5,.29,6.4,1.53a2.85,2.85,0,0,1,1,2.2c0,3.82,8.63,34.33,25.86,34.33,6.32,0,11.93-2.81,16.66-8.34,5.24-6.13,7.54-13.49,7.87-15.93-2.61.07-6.84,2.66-10.94,5.17-4.27,2.61-8.68,5.31-12.26,5.91l-1,.16-.15-1.74a52.49,52.49,0,0,1,1.89-22c2.26-8.1,7.78-9.69,10.3-10.34a28.09,28.09,0,0,0-9.82-7.6c-3.65-1.75-6.6.32-9.72,2.51-2.18,1.53-4.24,3-6.51,3-3.11,0-9.25,1.88-14.68,3.54-3,.9-5.74,1.76-7.68,2.19a2.93,2.93,0,0,0-2.57,3.56c.22,1.22,1.08,2.25,1.72,2.14A31.49,31.49,0,0,1,120.88,163.21Z" style="fill:#163150"/><g id="Group-124"><g id="Path-272"><path d="M143.24,176.21l-24-5.64a4.89,4.89,0,0,1-.52,5.73c.84,5-.62,5.26-2.8,6.7q.85,2.55-1.48,6.54Z" style="fill:#a682ff;fill-rule:evenodd"/><path d="M114.44,190.11a.56.56,0,0,1-.49-.85c1.46-2.51,1.94-4.55,1.43-6.08a.57.57,0,0,1,.23-.65l.7-.45c1.69-1.05,2.53-1.58,1.85-5.69a.55.55,0,0,1,.12-.46,4.31,4.31,0,0,0,.45-5.11.59.59,0,0,1,.07-.61.57.57,0,0,1,.57-.2l24,5.65a.59.59,0,0,1,.44.5.57.57,0,0,1-.33.57l-28.8,13.33A.49.49,0,0,1,114.44,190.11Zm2.14-6.86a7.94,7.94,0,0,1-.85,5.07l25.78-11.93-21.32-5a5.24,5.24,0,0,1-.87,5.09c.69,4.42-.41,5.35-2.41,6.59Z" style="fill:#163150"/></g><g id="Path-278"><rect width="24.08" height="1.14" x="118.72" y="175.73" style="fill:#163150"/></g><g id="Path-279"><path d="M116,183.58h-.13l.07-1.14c1,.09,6.36-1,26.69-6.52l.29,1.1C121.61,182.78,117.2,183.58,116,183.58Z" style="fill:#163150"/></g></g><g id="Group-124-Copy"><path d="M117.28,157q-11.37-1.38-19.64-10.85.23,7-1.89,9.44c.85,5,.43,6.88-1.75,8.32q2,3.76-1.92,9.5,12.93-8,24.93-9c-1,0-2.4-1.41-2.57-3.66A3.56,3.56,0,0,1,117.28,157Z" style="fill:#a682ff;fill-rule:evenodd"/><path d="M92.08,174.27a.94.94,0,0,1-.66-.28.92.92,0,0,1-.09-1.15c2.39-3.5,3-6.38,1.87-8.55a.91.91,0,0,1,.3-1.19c1.65-1.09,2.2-2.36,1.36-7.41a.88.88,0,0,1,.2-.74c1.25-1.47,1.81-4.44,1.67-8.82a.91.91,0,0,1,.58-.88.93.93,0,0,1,1,.25c5.33,6.11,11.74,9.66,19.06,10.55a.9.9,0,0,1,.8.88.92.92,0,0,1-.75.92,2.65,2.65,0,0,0-2.09,2.75c.13,1.84,1.29,2.8,1.66,2.8a.91.91,0,0,1,.08,1.82c-7.82.69-16.07,3.69-24.53,8.91A.92.92,0,0,1,92.08,174.27Zm3.06-10.12a8.58,8.58,0,0,1-.58,6.69,58.17,58.17,0,0,1,20-7.16,5.83,5.83,0,0,1-1-3,4.55,4.55,0,0,1,1.12-3.28,31.11,31.11,0,0,1-16.1-9c-.1,3.37-.71,5.8-1.84,7.36C97.38,159.92,97.28,162.37,95.14,164.15Z" style="fill:#163150"/><g id="Path"><path d="M114.85,159.46V159l-.17.41c-.37-.12-4-.79-19-3.3l.19-1.12c13.35,2.23,17.64,2.94,19,3.38v0c.64.21.63.35.61.57Z" style="fill:#163150"/></g><g id="Path-280"><rect width="20.71" height="1.14" x="93.95" y="162.25" transform="translate(-15.88 11.34) rotate(-5.78)" style="fill:#163150"/></g></g><g id="Path-273"><path d="M179.65,176q1.22-1.64,2.34-10.54-3.75,10.47-4.83,10.86C178.05,176.25,178.63,176.11,179.65,176Z" style="fill:#d3e6f2;fill-rule:evenodd"/><path d="M177.16,176.87a.57.57,0,0,1-.19-1.1c.26-.18,1.29-1.59,4.49-10.52a.55.55,0,0,1,.66-.36.58.58,0,0,1,.44.62c-1,8.12-1.89,10.06-2.46,10.81a.57.57,0,0,1-.38.22l-.89.13a16.34,16.34,0,0,1-1.64.2Zm3.46-6.14a40.32,40.32,0,0,1-2.15,4.85l.18,0,.66-.1A16.27,16.27,0,0,0,180.62,170.73Z" style="fill:#163150"/></g><g id="Path-274"><path d="M177.16,176.3c.65-1.09,4-14.68.88-20.81.07,7-1.67,18.46-3.55,21.77A17.08,17.08,0,0,1,177.16,176.3Z" style="fill:#d3e6f2;fill-rule:evenodd"/><path d="M174.49,177.83a.57.57,0,0,1-.43-.2A.58.58,0,0,1,174,177c1.73-3,3.55-14.29,3.47-21.48a.57.57,0,0,1,.44-.56.58.58,0,0,1,.64.3c3.15,6.25-.14,20.08-.9,21.35a.6.6,0,0,1-.41.28,5.81,5.81,0,0,0-1.41.47c-.35.15-.73.31-1.15.46A.58.58,0,0,1,174.49,177.83Zm4-18.78c-.34,5.92-1.51,13.41-2.92,17.16a6.85,6.85,0,0,1,1.17-.42C177.36,174.18,179.49,165.26,178.52,159.05Z" style="fill:#163150"/></g><g id="Path-275"><path d="M174.49,177.26c.42-2.15,1.72-9.81.74-11.82-.72,7.66-2.72,12.73-3.5,13.15C171.14,178.91,173.52,177.64,174.49,177.26Z" style="fill:#d3e6f2;fill-rule:evenodd"/><path d="M171.66,179.17a.61.61,0,0,1-.53-.26.67.67,0,0,1,.26-.78h0l0,0,0,0c.51-.4,2.48-5,3.2-12.7a.57.57,0,0,1,.47-.51.56.56,0,0,1,.61.31c1.17,2.38-.49,11.18-.69,12.18a.57.57,0,0,1-.35.42c-.33.13-1.07.46-2.7,1.31A.77.77,0,0,1,171.66,179.17Zm3-6.59a28.28,28.28,0,0,1-1.45,4.63l.77-.36C174.23,175.58,174.48,174.08,174.67,172.58Z" style="fill:#163150"/></g><g id="Path-276"><path d="M168,154.48c2.35,1.86,5.58,6.27,5.58,9.08-5.82-5.72-6.18-5.72-10-7.42C165.45,155.37,166.65,155.37,168,154.48Z" style="fill:#d3e6f2;fill-rule:evenodd"/><path d="M173.61,164.13a.57.57,0,0,1-.4-.16c-5.45-5.37-6-5.63-9.25-7.07l-.54-.24a.58.58,0,0,1-.34-.53.55.55,0,0,1,.35-.51,16.92,16.92,0,0,1,2-.71,7.6,7.6,0,0,0,2.24-.91.57.57,0,0,1,.66,0c2.42,1.92,5.8,6.47,5.8,9.53a.58.58,0,0,1-.35.53A.54.54,0,0,1,173.61,164.13Zm-8.45-7.94c2.46,1.12,3.5,1.77,7.55,5.7a18.13,18.13,0,0,0-4.73-6.72,9.85,9.85,0,0,1-2.19.84Z" style="fill:#163150"/></g><g id="Path-276-Copy"><path d="M163.51,156.29a6.21,6.21,0,0,1,4.58,5.11,10,10,0,0,0-6.88-3.49A6.89,6.89,0,0,1,163.51,156.29Z" style="fill:#d3e6f2;fill-rule:evenodd"/><path d="M168.09,162a.59.59,0,0,1-.43-.19,9.35,9.35,0,0,0-6.45-3.3.57.57,0,0,1-.39-1,7.2,7.2,0,0,1,2.48-1.74.6.6,0,0,1,.35,0,6.74,6.74,0,0,1,5,5.53.56.56,0,0,1-.3.63A.57.57,0,0,1,168.09,162Zm-5.54-4.48a10.91,10.91,0,0,1,4.21,1.92,5.28,5.28,0,0,0-3.22-2.51A4.25,4.25,0,0,0,162.55,157.49Z" style="fill:#163150"/></g><g id="Path-276-Copy-2"><path d="M161.33,158a4.6,4.6,0,0,1,3.83,3.38,7.3,7.3,0,0,0-5.37-2A4.88,4.88,0,0,1,161.33,158Z" style="fill:#d3e6f2;fill-rule:evenodd"/><path d="M165.16,162a.57.57,0,0,1-.38-.15,6.75,6.75,0,0,0-4.92-1.83.56.56,0,0,1-.57-.29.54.54,0,0,1,.06-.63,5.41,5.41,0,0,1,1.71-1.56.61.61,0,0,1,.35-.06,5.17,5.17,0,0,1,4.29,3.76.57.57,0,0,1-.22.66A.63.63,0,0,1,165.16,162Zm-4.09-3.09a7.73,7.73,0,0,1,2.29.66,3.8,3.8,0,0,0-1.93-.93A2.42,2.42,0,0,0,161.07,158.87Z" style="fill:#163150"/></g><g id="Path-276-Copy-3"><path d="M156.81,165.92c1.49-.44,3,.07,4.46,1.55a5.67,5.67,0,0,0-4.9.23C156.53,167.09,156.66,166.67,156.81,165.92Z" style="fill:#d3e6f2;fill-rule:evenodd"/><path d="M156.37,168.27a.55.55,0,0,1-.32-.1.58.58,0,0,1-.23-.6L156,167c.09-.36.18-.71.28-1.21a.6.6,0,0,1,.4-.43c1.7-.49,3.39.07,5,1.7a.57.57,0,0,1-.6.93,5.08,5.08,0,0,0-4.37.17A.56.56,0,0,1,156.37,168.27Zm.92-1.88c0,.11,0,.21-.07.31a5.7,5.7,0,0,1,1.51-.23A2.94,2.94,0,0,0,157.29,166.39Z" style="fill:#163150"/></g><g id="Path-276-Copy-4"><path d="M157.6,163.32c1.09,0,2.3.65,3.63,2a4.69,4.69,0,0,0-4.24,0A8.74,8.74,0,0,1,157.6,163.32Z" style="fill:#d3e6f2;fill-rule:evenodd"/><path d="M157,166a.53.53,0,0,1-.28-.07.57.57,0,0,1-.29-.53,8.7,8.7,0,0,1,.65-2.24.58.58,0,0,1,.52-.36h.06c1.25,0,2.55.72,4,2.19a.57.57,0,0,1-.62.92,4.27,4.27,0,0,0-3.71,0A.53.53,0,0,1,157,166Zm1-2c-.06.15-.12.33-.18.51a5.83,5.83,0,0,1,1.24-.13A3.24,3.24,0,0,0,158,163.92Z" style="fill:#163150"/></g><g id="Path-276-Copy-5"><path d="M158.61,161.45q2.14,0,3.5,2.55a5.2,5.2,0,0,0-4.37-1.1A3.8,3.8,0,0,1,158.61,161.45Z" style="fill:#d3e6f2;fill-rule:evenodd"/><path d="M162.11,164.57a.52.52,0,0,1-.33-.12,4.72,4.72,0,0,0-3.87-1,.56.56,0,0,1-.59-.15.57.57,0,0,1-.11-.61,4.43,4.43,0,0,1,1-1.64.51.51,0,0,1,.39-.16h0c1.65,0,3,1,4,2.85a.56.56,0,0,1-.13.7A.55.55,0,0,1,162.11,164.57Zm-3.4-2.37a5.33,5.33,0,0,1,1.15.13,2.62,2.62,0,0,0-1-.3Z" style="fill:#163150"/></g><g id="Path-276-Copy-6"><path d="M159.72,159.79q2.34,0,3.81,2.78a5.66,5.66,0,0,0-4.75-1.2A4.26,4.26,0,0,1,159.72,159.79Z" style="fill:#d3e6f2;fill-rule:evenodd"/><path d="M163.53,163.14a.6.6,0,0,1-.34-.11,5.1,5.1,0,0,0-4.23-1.12.6.6,0,0,1-.6-.16.58.58,0,0,1-.11-.6,4.74,4.74,0,0,1,1.08-1.78.7.7,0,0,1,.4-.15c1.77,0,3.22,1.05,4.3,3.08a.56.56,0,0,1-.13.7A.59.59,0,0,1,163.53,163.14Zm-3.71-2.49a5.86,5.86,0,0,1,1.58.23,3,3,0,0,0-1.45-.51,2.83,2.83,0,0,0-.2.28Z" style="fill:#163150"/></g><g id="Path-277"><path d="M171.45,178.76a18.28,18.28,0,0,0,0-8c-.76,7.32-1.67,8.65-1.92,9S170.3,179.26,171.45,178.76Z" style="fill:#d3e6f2;fill-rule:evenodd"/><path d="M169.46,180.38a.47.47,0,0,1-.39-.2.67.67,0,0,1,0-.8c.32-.41,1.13-2.1,1.82-8.7a.56.56,0,0,1,.53-.5.59.59,0,0,1,.59.44,19,19,0,0,1,0,8.32.55.55,0,0,1-.31.34,14,14,0,0,0-1.44.77A1.65,1.65,0,0,1,169.46,180.38ZM171.3,176a21.07,21.07,0,0,1-.6,2.5l.29-.14A12,12,0,0,0,171.3,176Z" style="fill:#163150"/></g><g id="Path-277-Copy"><path d="M169.29,179.93a24.92,24.92,0,0,0,0-9.3c-.76,8.49-1.67,10-1.93,10.43C168.39,180.55,168.14,180.51,169.29,179.93Z" style="fill:#d3e6f2;fill-rule:evenodd"/><path d="M167.37,181.63a.57.57,0,0,1-.43-.2.56.56,0,0,1-.05-.68c.32-.5,1.14-2.47,1.84-10.17a.57.57,0,0,1,1.12-.06,25.29,25.29,0,0,1,0,9.57.56.56,0,0,1-.29.35,7,7,0,0,0-1,.56,6.84,6.84,0,0,1-1,.57A.57.57,0,0,1,167.37,181.63Zm1.77-4.92a28.48,28.48,0,0,1-.63,3l.3-.16A14.68,14.68,0,0,0,169.14,176.71Z" style="fill:#163150"/></g><g id="Path-277-Copy-2"><path d="M166.74,181.43a9.34,9.34,0,0,0,0-5.7c-.76,5.66-1.67,6.69-1.92,7A10.86,10.86,0,0,0,166.74,181.43Z" style="fill:#d3e6f2;fill-rule:evenodd"/><path d="M164.71,183.34c-.15,0-.24-.1-.36-.25a.63.63,0,0,1,.06-.81c.3-.31,1.08-1.57,1.77-6.62a.57.57,0,0,1,1.11-.09,10,10,0,0,1,0,6.09.76.76,0,0,1-.2.24C165.54,183,165,183.34,164.71,183.34Zm1.81-3.25c-.09.36-.19.69-.29,1l.05,0A4.3,4.3,0,0,0,166.52,180.09Z" style="fill:#163150"/></g><g id="Oval"><circle cx="153.8" cy="149.92" r="6.37" style="fill:#fff"/><path d="M153.8,156.86a6.94,6.94,0,1,1,6.94-6.94A6.94,6.94,0,0,1,153.8,156.86Zm0-12.74a5.81,5.81,0,1,0,5.8,5.8A5.81,5.81,0,0,0,153.8,144.12Z" style="fill:#163150"/></g><ellipse cx="153.91" cy="150.07" rx="3.28" ry="3.27" style="fill:#2a455f"/><circle cx="153" cy="148.26" r="1.9" style="fill:#fff"/><g id="Path-281"><path d="M120.12,175.57c.48,0,15.36.21,17.11.16,0-.45-15.76-3.54-16.79-4.08C122,173.91,120.67,174.84,120.12,175.57Z" style="fill:#9165ff;fill-rule:evenodd"/></g><g id="Path-282"><path d="M137.23,177l-17.51.18c.8,1.1.16,3.39-.51,4.23C122.27,180.68,137.65,177,137.23,177Z" style="fill:#9165ff;fill-rule:evenodd"/></g><g id="Path-283"><path d="M135.73,179q-18.55,4.5-18.71,4.81a7.24,7.24,0,0,1-.77,4Z" style="fill:#9165ff;fill-rule:evenodd"/></g><g id="Path-284"><path d="M114.61,157.22l-.35.74s-16.67-3.37-17-3.37,1.94-1.76,1.2-6.08Q103.87,155,114.61,157.22Z" style="fill:#9165ff;fill-rule:evenodd"/></g><g id="Path-285"><path d="M113.64,159.43c0,.37-.36,1,0,1.63-2.67.4-14.52,1.36-17.08,1.55.25-.26,1.48-1.41.33-5.78C99.22,157.35,112.84,159.32,113.64,159.43Z" style="fill:#9165ff;fill-rule:evenodd"/></g><g id="Path-286"><path d="M114.61,164a2.84,2.84,0,0,1-.67-1.37q-1.87.16-18.51,2.34c.61,2.65.33,4.64-.82,6C102.56,164.9,113.75,164,114.61,164Z" style="fill:#9165ff;fill-rule:evenodd"/></g></g><g id="Path-288"><path d="M165,181.78a2.73,2.73,0,0,1-.58.95c-2.27,1.29-3.84,2.15-4.71,2.56a15,15,0,0,1-3.74,1.4,25.23,25.23,0,0,1-.32-3.11c2.1-.2,3.53-.37,4.31-.53C163,182.46,164.61,181.83,165,181.78Z" style="fill:#9165ff;fill-rule:evenodd"/></g></g><g id="Group-127" style="opacity:.5688011646270752"><g style="opacity:.2706473171710968;isolation:isolate"><circle cx="179.44" cy="146.1" r="18.8" style="fill:#ffd166"/></g><g style="opacity:.2706473171710968;isolation:isolate"><circle cx="179.44" cy="146.1" r="14.66" style="fill:#ffd166"/></g><g style="opacity:.2706473171710968;isolation:isolate"><circle cx="179.44" cy="146.1" r="5.74" style="fill:#ffd166"/></g></g><g id="Path-290" style="opacity:.5756603479385376;isolation:isolate"><path d="M179.29,143.55c2.12,0,3.8,4.13.05,4.13S177.16,143.55,179.29,143.55Z" style="fill:#ffd166;fill-rule:evenodd"/><path d="M179.34,148.25a3.14,3.14,0,0,1-2.12-.64,2.1,2.1,0,0,1-.72-1.61,3.07,3.07,0,0,1,2.79-3,3.17,3.17,0,0,1,2.84,3.06,2,2,0,0,1-.71,1.59A3.17,3.17,0,0,1,179.34,148.25Zm-.05-4.13a2,2,0,0,0-1.65,1.88,1,1,0,0,0,.32.75,2.73,2.73,0,0,0,2.73,0,.91.91,0,0,0,.3-.72A2,2,0,0,0,179.29,144.12Z" style="fill:#ffd166"/></g></g><g id="Path-291"><path d="M143,170.22a2.71,2.71,0,0,1-2.45-2.29,4.45,4.45,0,0,1,1.52-4.61,3.73,3.73,0,0,1-1.1-3,1.67,1.67,0,0,1,1.12-1.37.57.57,0,0,1,.71.37.58.58,0,0,1-.37.72q-.27.08-.33.48a2.79,2.79,0,0,0,1.24,2.45l.71.52-.78.43a3.32,3.32,0,0,0-1.62,3.77c.23.87.76,1.44,1.35,1.44a.57.57,0,1,1,0,1.13Z" style="fill:#163150"/></g><g id="Path-291-Copy"><path d="M135.84,172.85a2.26,2.26,0,0,1-2.05-1.9,3.57,3.57,0,0,1,1.14-3.63,3,3,0,0,1-.81-2.38,1.44,1.44,0,0,1,1-1.17.57.57,0,0,1,.34,1.09c-.1,0-.16.12-.18.28a2,2,0,0,0,.93,1.78l.71.53-.78.43a2.46,2.46,0,0,0-1.22,2.79c.14.51.48,1,1,1a.56.56,0,0,1,.57.57A.57.57,0,0,1,135.84,172.85Z" style="fill:#163150"/></g></g></g><g id="Group-130" style="opacity:.297270268201828"><path d="M146.23,159.29A29,29,0,0,0,191.29,187a11.76,11.76,0,0,1-1,3.1c-4.46,10.91-24.39,23.62-40.61,25.18-9.86,0-24.41-2.9-35.78-9.91a48.53,48.53,0,0,1-20.16-24.42,54.19,54.19,0,0,1-.16-39.41c3.61-7.56,11.66-12.25,18.79-13,2.88-.29,11.31-1.27,18.65,2.81s12.21,9.4,14.79,19.55A61.73,61.73,0,0,1,146.23,159.29Z" style="fill:#78e1f2;fill-rule:evenodd"/><circle cx="134.96" cy="104.63" r="6.05" style="fill:#78e1f2"/><g id="Oval-Copy-54"><circle cx="143.24" cy="121.84" r="5.42" style="fill:#78e1f2"/></g></g><ellipse cx="179.09" cy="105.07" rx="11.79" ry="50.66" transform="translate(-6.56 198.04) rotate(-57)" style="fill:#163150"/><path d="M216.88,135.35c-9.51,0-28.27-8.91-44.73-19.59-21-13.63-40.86-31.86-36.35-38.81s29.25,3.8,50.23,17.43h0c21,13.62,40.86,31.85,36.35,38.8C221.41,134.68,219.49,135.35,216.88,135.35Zm-75.7-58.67c-1.91,0-3.21.44-3.78,1.31-2.79,4.3,11.23,20.21,35.79,36.16s44.8,22.28,47.59,18S209.56,111.93,185,96C165.44,83.28,148.64,76.68,141.18,76.68Z" style="fill:#163150"/><g style="opacity:.3756045401096344;isolation:isolate"><g style="clip-path:url(#clip-path)"><polygon points="219.14 122.22 149.56 77.03 219.14 77.03 219.14 122.22" style="fill:#ffd166"/><polygon points="219.14 122.29 149.46 77.03 149.56 77.03 219.14 122.22 219.14 122.29" style="fill:#ffd166"/><polygon points="219.14 122.35 149.36 77.03 149.46 77.03 219.14 122.29 219.14 122.35" style="fill:#fed066"/><polygon points="219.14 122.42 149.25 77.03 149.36 77.03 219.14 122.35 219.14 122.42" style="fill:#fdd066"/><polygon points="219.14 122.48 149.16 77.03 149.25 77.03 219.14 122.42 219.14 122.48" style="fill:#fccf66"/><polygon points="219.14 122.55 149.05 77.03 149.16 77.03 219.14 122.48 219.14 122.55" style="fill:#fbce66"/><polygon points="219.14 122.61 148.95 77.03 149.05 77.03 219.14 122.55 219.14 122.61" style="fill:#face66"/><polygon points="219.14 122.68 148.85 77.03 148.95 77.03 219.14 122.61 219.14 122.68" style="fill:#f9cd65"/><polygon points="219.14 122.74 148.75 77.03 148.85 77.03 219.14 122.68 219.14 122.74" style="fill:#f8cc65"/><polygon points="219.14 122.81 148.65 77.03 148.75 77.03 219.14 122.74 219.14 122.81" style="fill:#f7cb65"/><polygon points="219.14 122.87 148.55 77.03 148.65 77.03 219.14 122.81 219.14 122.87" style="fill:#f6cb65"/><polygon points="219.14 122.94 148.45 77.03 148.55 77.03 219.14 122.87 219.14 122.94" style="fill:#f5ca65"/><polygon points="219.14 123 148.35 77.03 148.45 77.03 219.14 122.94 219.14 123" style="fill:#f4c965"/><polygon points="219.14 123.07 148.25 77.03 148.35 77.03 219.14 123 219.14 123.07" style="fill:#f3c965"/><polygon points="219.14 123.13 148.15 77.03 148.25 77.03 219.14 123.07 219.14 123.13" style="fill:#f2c865"/><polygon points="219.14 123.2 148.05 77.03 148.15 77.03 219.14 123.13 219.14 123.2" style="fill:#f1c765"/><polygon points="219.14 123.27 147.95 77.03 148.05 77.03 219.14 123.2 219.14 123.27" style="fill:#f0c765"/><polygon points="219.14 123.33 147.85 77.03 147.95 77.03 219.14 123.27 219.14 123.33" style="fill:#efc664"/><polygon points="219.14 123.39 147.75 77.03 147.85 77.03 219.14 123.33 219.14 123.39" style="fill:#eec564"/><polygon points="219.14 123.46 147.65 77.03 147.75 77.03 219.14 123.39 219.14 123.46" style="fill:#edc564"/><polygon points="219.14 123.53 147.55 77.03 147.65 77.03 219.14 123.46 219.14 123.53" style="fill:#ecc464"/><polygon points="219.14 123.59 147.45 77.03 147.55 77.03 219.14 123.53 219.14 123.59" style="fill:#ebc364"/><polygon points="219.14 123.66 147.35 77.03 147.45 77.03 219.14 123.59 219.14 123.66" style="fill:#eac364"/><polygon points="219.14 123.72 147.25 77.03 147.35 77.03 219.14 123.66 219.14 123.72" style="fill:#e9c264"/><polygon points="219.14 123.79 147.15 77.03 147.25 77.03 219.14 123.72 219.14 123.79" style="fill:#e8c164"/><polygon points="219.14 123.85 147.05 77.03 147.15 77.03 219.14 123.79 219.14 123.85" style="fill:#e7c064"/><polygon points="219.14 123.92 146.94 77.03 147.05 77.03 219.14 123.85 219.14 123.92" style="fill:#e6c064"/><polygon points="219.14 123.98 146.84 77.03 146.94 77.03 219.14 123.92 219.14 123.98" style="fill:#e5bf64"/><polygon points="219.14 124.05 146.74 77.03 146.84 77.03 219.14 123.98 219.14 124.05" style="fill:#e4be63"/><polygon points="219.14 124.11 146.64 77.03 146.74 77.03 219.14 124.05 219.14 124.11" style="fill:#e3be63"/><polygon points="219.14 124.18 146.54 77.03 146.64 77.03 219.14 124.11 219.14 124.18" style="fill:#e2bd63"/><polygon points="219.14 124.24 146.44 77.03 146.54 77.03 219.14 124.18 219.14 124.24" style="fill:#e1bc63"/><polygon points="219.14 124.31 146.34 77.03 146.44 77.03 219.14 124.24 219.14 124.31" style="fill:#e0bc63"/><polygon points="219.14 124.37 146.24 77.03 146.34 77.03 219.14 124.31 219.14 124.37" style="fill:#dfbb63"/><polygon points="219.14 124.44 146.14 77.03 146.24 77.03 219.14 124.37 219.14 124.44" style="fill:#deba63"/><polygon points="219.14 124.5 146.04 77.03 146.14 77.03 219.14 124.44 219.14 124.5" style="fill:#ddba63"/><polygon points="219.14 124.57 145.94 77.03 146.04 77.03 219.14 124.5 219.14 124.57" style="fill:#dcb963"/><polygon points="219.14 124.64 145.84 77.03 145.94 77.03 219.14 124.57 219.14 124.64" style="fill:#dbb863"/><polygon points="219.14 124.7 145.74 77.03 145.84 77.03 219.14 124.64 219.14 124.7" style="fill:#dab762"/><polygon points="219.14 124.77 145.64 77.03 145.74 77.03 219.14 124.7 219.14 124.77" style="fill:#d9b762"/><polygon points="219.14 124.83 145.54 77.03 145.64 77.03 219.14 124.77 219.14 124.83" style="fill:#d8b662"/><polygon points="219.14 124.89 145.44 77.03 145.54 77.03 219.14 124.83 219.14 124.89" style="fill:#d7b562"/><polygon points="219.14 124.96 145.34 77.03 145.44 77.03 219.14 124.89 219.14 124.96" style="fill:#d6b562"/><polygon points="219.14 125.03 145.24 77.03 145.34 77.03 219.14 124.96 219.14 125.03" style="fill:#d5b462"/><polygon points="219.14 125.09 145.14 77.03 145.24 77.03 219.14 125.03 219.14 125.09" style="fill:#d4b362"/><polygon points="219.14 125.16 145.04 77.03 145.14 77.03 219.14 125.09 219.14 125.16" style="fill:#d3b362"/><polygon points="219.14 125.22 144.94 77.03 145.04 77.03 219.14 125.16 219.14 125.22" style="fill:#d2b262"/><polygon points="219.14 125.29 144.84 77.03 144.94 77.03 219.14 125.22 219.14 125.29" style="fill:#d1b162"/><polygon points="219.14 125.35 144.74 77.03 144.84 77.03 219.14 125.29 219.14 125.35" style="fill:#d0b162"/><polygon points="219.14 125.42 144.63 77.03 144.74 77.03 219.14 125.35 219.14 125.42" style="fill:#cfb061"/><polygon points="219.14 125.48 144.53 77.03 144.63 77.03 219.14 125.42 219.14 125.48" style="fill:#ceaf61"/><polygon points="219.14 125.55 144.43 77.03 144.53 77.03 219.14 125.48 219.14 125.55" style="fill:#cdaf61"/><polygon points="219.14 125.61 144.33 77.03 144.43 77.03 219.14 125.55 219.14 125.61" style="fill:#ccae61"/><polygon points="219.14 125.68 144.23 77.03 144.33 77.03 219.14 125.61 219.14 125.68" style="fill:#cbad61"/><polygon points="219.14 125.74 144.13 77.03 144.23 77.03 219.14 125.68 219.14 125.74" style="fill:#caac61"/><polygon points="219.14 125.81 144.03 77.03 144.13 77.03 219.14 125.74 219.14 125.81" style="fill:#c9ac61"/><polygon points="219.14 125.87 143.93 77.03 144.03 77.03 219.14 125.81 219.14 125.87" style="fill:#c8ab61"/><polygon points="219.14 125.94 143.83 77.03 143.93 77.03 219.14 125.87 219.14 125.94" style="fill:#c7aa61"/><polygon points="219.14 126 143.73 77.03 143.83 77.03 219.14 125.94 219.14 126" style="fill:#c6aa61"/><polygon points="219.14 126.07 143.63 77.03 143.73 77.03 219.14 126 219.14 126.07" style="fill:#c5a961"/><polygon points="219.14 126.14 143.53 77.03 143.63 77.03 219.14 126.07 219.14 126.14" style="fill:#c4a860"/><polygon points="219.14 126.2 143.43 77.03 143.53 77.03 219.14 126.14 219.14 126.2" style="fill:#c3a860"/><polygon points="219.14 126.27 143.33 77.03 143.43 77.03 219.14 126.2 219.14 126.27" style="fill:#c2a760"/><polygon points="219.14 126.33 143.23 77.03 143.33 77.03 219.14 126.27 219.14 126.33" style="fill:#c1a660"/><polygon points="219.14 126.4 143.13 77.03 143.23 77.03 219.14 126.33 219.14 126.4" style="fill:#c0a660"/><polygon points="219.14 126.46 143.03 77.03 143.13 77.03 219.14 126.4 219.14 126.46" style="fill:#bfa560"/><polygon points="219.14 126.53 142.93 77.03 143.03 77.03 219.14 126.46 219.14 126.53" style="fill:#bea460"/><polygon points="219.14 126.59 142.83 77.03 142.93 77.03 219.14 126.53 219.14 126.59" style="fill:#bda360"/><polygon points="219.14 126.66 142.73 77.03 142.83 77.03 219.14 126.59 219.14 126.66" style="fill:#bca360"/><polygon points="219.14 126.72 142.63 77.03 142.73 77.03 219.14 126.66 219.14 126.72" style="fill:#bba260"/><polygon points="219.14 126.79 142.53 77.03 142.63 77.03 219.14 126.72 219.14 126.79" style="fill:#baa15f"/><polygon points="219.14 126.85 142.43 77.03 142.53 77.03 219.14 126.79 219.14 126.85" style="fill:#b9a15f"/><polygon points="219.14 126.92 142.32 77.03 142.43 77.03 219.14 126.85 219.14 126.92" style="fill:#b8a05f"/><polygon points="219.14 126.98 142.22 77.03 142.32 77.03 219.14 126.92 219.14 126.98" style="fill:#b79f5f"/><polygon points="219.14 127.05 142.12 77.03 142.22 77.03 219.14 126.98 219.14 127.05" style="fill:#b69f5f"/><polygon points="219.14 127.11 142.02 77.03 142.12 77.03 219.14 127.05 219.14 127.11" style="fill:#b59e5f"/><polygon points="219.14 127.18 141.92 77.03 142.02 77.03 219.14 127.11 219.14 127.18" style="fill:#b49d5f"/><polygon points="219.14 127.24 141.82 77.03 141.92 77.03 219.14 127.18 219.14 127.24" style="fill:#b39d5f"/><polygon points="219.14 127.31 141.72 77.03 141.82 77.03 219.14 127.24 219.14 127.31" style="fill:#b29c5f"/><polygon points="219.14 127.37 141.62 77.03 141.72 77.03 219.14 127.31 219.14 127.37" style="fill:#b19b5f"/><polygon points="219.14 127.44 141.52 77.03 141.62 77.03 219.14 127.37 219.14 127.44" style="fill:#b09b5f"/><polygon points="219.14 127.5 141.42 77.03 141.52 77.03 219.14 127.44 219.14 127.5" style="fill:#af9a5e"/><polygon points="219.14 127.57 141.32 77.03 141.42 77.03 219.14 127.5 219.14 127.57" style="fill:#ae995e"/><polygon points="219.14 127.64 141.22 77.03 141.32 77.03 219.14 127.57 219.14 127.64" style="fill:#ad985e"/><polygon points="219.14 127.7 141.12 77.03 141.22 77.03 219.14 127.64 219.14 127.7" style="fill:#ac985e"/><polygon points="219.14 127.77 141.02 77.03 141.12 77.03 219.14 127.7 219.14 127.77" style="fill:#ab975e"/><polygon points="219.14 127.83 140.92 77.03 141.02 77.03 219.14 127.77 219.14 127.83" style="fill:#aa965e"/><polygon points="219.14 127.9 140.82 77.03 140.92 77.03 219.14 127.83 219.14 127.9" style="fill:#a9965e"/><polygon points="219.14 127.96 140.72 77.03 140.82 77.03 219.14 127.9 219.14 127.96" style="fill:#a8955e"/><polygon points="219.14 128.03 140.62 77.03 140.72 77.03 219.14 127.96 219.14 128.03" style="fill:#a7945e"/><polygon points="219.14 128.09 140.52 77.03 140.62 77.03 219.14 128.03 219.14 128.09" style="fill:#a6945e"/><polygon points="219.14 128.16 140.48 77.08 140.48 77.03 140.52 77.03 219.14 128.09 219.14 128.16" style="fill:#a5935d"/><polygon points="219.14 128.22 140.48 77.14 140.48 77.08 219.14 128.16 219.14 128.22" style="fill:#a4925d"/><polygon points="219.14 128.29 140.48 77.21 140.48 77.14 219.14 128.22 219.14 128.29" style="fill:#a3925d"/><polygon points="219.14 128.35 140.48 77.27 140.48 77.21 219.14 128.29 219.14 128.35" style="fill:#a2915d"/><polygon points="219.14 128.42 140.48 77.34 140.48 77.27 219.14 128.35 219.14 128.42" style="fill:#a1905d"/><polygon points="219.14 128.48 140.48 77.4 140.48 77.34 219.14 128.42 219.14 128.48" style="fill:#a08f5d"/><polygon points="219.14 128.55 140.48 77.47 140.48 77.4 219.14 128.48 219.14 128.55" style="fill:#9f8f5d"/><polygon points="219.14 128.61 140.48 77.53 140.48 77.47 219.14 128.55 219.14 128.61" style="fill:#9e8e5d"/><polygon points="219.14 128.68 140.48 77.6 140.48 77.53 219.14 128.61 219.14 128.68" style="fill:#9d8d5d"/><polygon points="219.14 128.74 140.48 77.66 140.48 77.6 219.14 128.68 219.14 128.74" style="fill:#9c8d5d"/><polygon points="219.14 128.81 140.48 77.73 140.48 77.66 219.14 128.74 219.14 128.81" style="fill:#9b8c5d"/><polygon points="219.14 128.87 140.48 77.79 140.48 77.73 219.14 128.81 219.14 128.87" style="fill:#9a8b5c"/><polygon points="219.14 128.94 140.48 77.86 140.48 77.79 219.14 128.87 219.14 128.94" style="fill:#998b5c"/><polygon points="219.14 129 140.48 77.92 140.48 77.86 219.14 128.94 219.14 129" style="fill:#988a5c"/><polygon points="219.14 129.07 140.48 77.99 140.48 77.92 219.14 129 219.14 129.07" style="fill:#97895c"/><polygon points="219.14 129.13 140.48 78.06 140.48 77.99 219.14 129.07 219.14 129.13" style="fill:#96895c"/><polygon points="219.14 129.2 140.48 78.12 140.48 78.06 219.14 129.13 219.14 129.2" style="fill:#95885c"/><polygon points="219.14 129.26 140.48 78.19 140.48 78.12 219.14 129.2 219.14 129.26" style="fill:#94875c"/><polygon points="219.14 129.33 140.48 78.25 140.48 78.19 219.14 129.26 219.14 129.33" style="fill:#93875c"/><polygon points="219.14 129.4 140.48 78.31 140.48 78.25 219.14 129.33 219.14 129.4" style="fill:#92865c"/><polygon points="219.14 129.46 140.48 78.38 140.48 78.31 219.14 129.4 219.14 129.46" style="fill:#91855c"/><polygon points="219.14 129.53 140.48 78.45 140.48 78.38 219.14 129.46 219.14 129.53" style="fill:#90845b"/><polygon points="219.14 129.59 140.48 78.51 140.48 78.45 219.14 129.53 219.14 129.59" style="fill:#8f845b"/><polygon points="219.14 129.66 140.48 78.58 140.48 78.51 219.14 129.59 219.14 129.66" style="fill:#8e835b"/><polygon points="219.14 129.72 140.48 78.64 140.48 78.58 219.14 129.66 219.14 129.72" style="fill:#8d825b"/><polygon points="219.14 129.79 140.48 78.71 140.48 78.64 219.14 129.72 219.14 129.79" style="fill:#8c825b"/><polygon points="219.14 129.85 140.48 78.77 140.48 78.71 219.14 129.79 219.14 129.85" style="fill:#8b815b"/><polygon points="219.14 129.92 140.48 78.84 140.48 78.77 219.14 129.85 219.14 129.92" style="fill:#89805b"/><polygon points="219.14 129.98 140.48 78.9 140.48 78.84 219.14 129.92 219.14 129.98" style="fill:#88805b"/><polygon points="219.14 130.05 140.48 78.97 140.48 78.9 219.14 129.98 219.14 130.05" style="fill:#877f5b"/><polygon points="219.14 130.11 140.48 79.03 140.48 78.97 219.14 130.05 219.14 130.11" style="fill:#867e5b"/><polygon points="219.14 130.18 140.48 79.1 140.48 79.03 219.14 130.11 219.14 130.18" style="fill:#857e5b"/><polygon points="219.14 130.24 140.48 79.16 140.48 79.1 219.14 130.18 219.14 130.24" style="fill:#847d5a"/><polygon points="219.14 130.31 140.48 79.23 140.48 79.16 219.14 130.24 219.14 130.31" style="fill:#837c5a"/><polygon points="219.14 130.37 140.48 79.29 140.48 79.23 219.14 130.31 219.14 130.37" style="fill:#827b5a"/><polygon points="219.14 130.44 140.48 79.36 140.48 79.29 219.14 130.37 219.14 130.44" style="fill:#817b5a"/><polygon points="219.14 130.5 140.48 79.42 140.48 79.36 219.14 130.44 219.14 130.5" style="fill:#807a5a"/><polygon points="219.14 130.57 140.48 79.49 140.48 79.42 219.14 130.5 219.14 130.57" style="fill:#7f795a"/><polygon points="219.14 130.63 140.48 79.56 140.48 79.49 219.14 130.57 219.14 130.63" style="fill:#7e795a"/><polygon points="219.14 130.7 140.48 79.62 140.48 79.56 219.14 130.63 219.14 130.7" style="fill:#7d785a"/><polygon points="219.14 130.76 140.48 79.69 140.48 79.62 219.14 130.7 219.14 130.76" style="fill:#7c775a"/><polygon points="219.14 130.83 140.48 79.75 140.48 79.69 219.14 130.76 219.14 130.83" style="fill:#7b775a"/><polygon points="219.14 130.9 140.48 79.82 140.48 79.75 219.14 130.83 219.14 130.9" style="fill:#7a7659"/><polygon points="219.14 130.96 140.48 79.88 140.48 79.82 219.14 130.9 219.14 130.96" style="fill:#797559"/><polygon points="219.14 131.03 140.48 79.95 140.48 79.88 219.14 130.96 219.14 131.03" style="fill:#787559"/><polygon points="219.14 131.09 140.48 80.01 140.48 79.95 219.14 131.03 219.14 131.09" style="fill:#777459"/><polygon points="219.14 131.16 140.48 80.08 140.48 80.01 219.14 131.09 219.14 131.16" style="fill:#767359"/><polygon points="219.14 131.22 140.48 80.14 140.48 80.08 219.14 131.16 219.14 131.22" style="fill:#757359"/><polygon points="219.14 131.29 140.48 80.21 140.48 80.14 219.14 131.22 219.14 131.29" style="fill:#747259"/><polygon points="219.14 131.35 140.48 80.27 140.48 80.21 219.14 131.29 219.14 131.35" style="fill:#737159"/><polygon points="219.14 131.42 140.48 80.34 140.48 80.27 219.14 131.35 219.14 131.42" style="fill:#727059"/><polygon points="219.14 131.48 140.48 80.4 140.48 80.34 219.14 131.42 219.14 131.48" style="fill:#717059"/><polygon points="219.11 131.53 140.48 80.47 140.48 80.4 219.14 131.48 219.14 131.53 219.11 131.53" style="fill:#706f59"/><polygon points="219.01 131.53 140.48 80.53 140.48 80.47 219.11 131.53 219.01 131.53" style="fill:#6f6e58"/><polygon points="218.91 131.53 140.48 80.6 140.48 80.53 219.01 131.53 218.91 131.53" style="fill:#6e6e58"/><polygon points="218.81 131.53 140.48 80.66 140.48 80.6 218.91 131.53 218.81 131.53" style="fill:#6d6d58"/><polygon points="218.71 131.53 140.48 80.73 140.48 80.66 218.81 131.53 218.71 131.53" style="fill:#6c6c58"/><polygon points="218.61 131.53 140.48 80.79 140.48 80.73 218.71 131.53 218.61 131.53" style="fill:#6b6c58"/><polygon points="218.5 131.53 140.48 80.86 140.48 80.79 218.61 131.53 218.5 131.53" style="fill:#6a6b58"/><polygon points="218.41 131.53 140.48 80.92 140.48 80.86 218.5 131.53 218.41 131.53" style="fill:#696a58"/><polygon points="218.3 131.53 140.48 80.99 140.48 80.92 218.41 131.53 218.3 131.53" style="fill:#686a58"/><polygon points="218.2 131.53 140.48 81.06 140.48 80.99 218.3 131.53 218.2 131.53" style="fill:#676958"/><polygon points="218.1 131.53 140.48 81.12 140.48 81.06 218.2 131.53 218.1 131.53" style="fill:#666858"/><polygon points="218 131.53 140.48 81.19 140.48 81.12 218.1 131.53 218 131.53" style="fill:#656757"/><polygon points="217.9 131.53 140.48 81.25 140.48 81.19 218 131.53 217.9 131.53" style="fill:#646757"/><polygon points="217.8 131.53 140.48 81.32 140.48 81.25 217.9 131.53 217.8 131.53" style="fill:#636657"/><polygon points="217.7 131.53 140.48 81.38 140.48 81.32 217.8 131.53 217.7 131.53" style="fill:#626557"/><polygon points="217.6 131.53 140.48 81.45 140.48 81.38 217.7 131.53 217.6 131.53" style="fill:#616557"/><polygon points="217.5 131.53 140.48 81.51 140.48 81.45 217.6 131.53 217.5 131.53" style="fill:#606457"/><polygon points="217.4 131.53 140.48 81.58 140.48 81.51 217.5 131.53 217.4 131.53" style="fill:#5f6357"/><polygon points="217.3 131.53 140.48 81.64 140.48 81.58 217.4 131.53 217.3 131.53" style="fill:#5e6357"/><polygon points="217.2 131.53 140.48 81.71 140.48 81.64 217.3 131.53 217.2 131.53" style="fill:#5d6257"/><polygon points="217.1 131.53 140.48 81.77 140.48 81.71 217.2 131.53 217.1 131.53" style="fill:#5c6157"/><polygon points="217 131.53 140.48 81.84 140.48 81.77 217.1 131.53 217 131.53" style="fill:#5b6157"/><polygon points="216.9 131.53 140.48 81.9 140.48 81.84 217 131.53 216.9 131.53" style="fill:#5a6056"/><polygon points="216.8 131.53 140.48 81.97 140.48 81.9 216.9 131.53 216.8 131.53" style="fill:#595f56"/><polygon points="216.7 131.53 140.48 82.03 140.48 81.97 216.8 131.53 216.7 131.53" style="fill:#585f56"/><polygon points="216.6 131.53 140.48 82.1 140.48 82.03 216.7 131.53 216.6 131.53" style="fill:#575e56"/><polygon points="216.5 131.53 140.48 82.16 140.48 82.1 216.6 131.53 216.5 131.53" style="fill:#565d56"/><polygon points="216.4 131.53 140.48 82.23 140.48 82.16 216.5 131.53 216.4 131.53" style="fill:#555c56"/><polygon points="216.3 131.53 140.48 82.29 140.48 82.23 216.4 131.53 216.3 131.53" style="fill:#545c56"/><polygon points="216.19 131.53 140.48 82.36 140.48 82.29 216.3 131.53 216.19 131.53" style="fill:#535b56"/><polygon points="216.09 131.53 140.48 82.42 140.48 82.36 216.19 131.53 216.09 131.53" style="fill:#525a56"/><polygon points="216 131.53 140.48 82.49 140.48 82.42 216.09 131.53 216 131.53" style="fill:#515a56"/><polygon points="215.89 131.53 140.48 82.56 140.48 82.49 216 131.53 215.89 131.53" style="fill:#505956"/><polygon points="215.79 131.53 140.48 82.62 140.48 82.56 215.89 131.53 215.79 131.53" style="fill:#4f5855"/><polygon points="215.69 131.53 140.48 82.69 140.48 82.62 215.79 131.53 215.69 131.53" style="fill:#4e5855"/><polygon points="215.59 131.53 140.48 82.75 140.48 82.69 215.69 131.53 215.59 131.53" style="fill:#4d5755"/><polygon points="215.49 131.53 140.48 82.82 140.48 82.75 215.59 131.53 215.49 131.53" style="fill:#4c5655"/><polygon points="215.39 131.53 140.48 82.88 140.48 82.82 215.49 131.53 215.39 131.53" style="fill:#4b5655"/><polygon points="215.29 131.53 140.48 82.95 140.48 82.88 215.39 131.53 215.29 131.53" style="fill:#4a5555"/><polygon points="215.19 131.53 140.48 83.01 140.48 82.95 215.29 131.53 215.19 131.53" style="fill:#495455"/><polygon points="215.09 131.53 140.48 83.08 140.48 83.01 215.19 131.53 215.09 131.53" style="fill:#485355"/><polygon points="214.99 131.53 140.48 83.14 140.48 83.08 215.09 131.53 214.99 131.53" style="fill:#475355"/><polygon points="214.89 131.53 140.48 83.21 140.48 83.14 214.99 131.53 214.89 131.53" style="fill:#465255"/><polygon points="214.79 131.53 140.48 83.27 140.48 83.21 214.89 131.53 214.79 131.53" style="fill:#455154"/><polygon points="214.69 131.53 140.48 83.34 140.48 83.27 214.79 131.53 214.69 131.53" style="fill:#445154"/><polygon points="214.59 131.53 140.48 83.4 140.48 83.34 214.69 131.53 214.59 131.53" style="fill:#435054"/><polygon points="214.49 131.53 140.48 83.47 140.48 83.4 214.59 131.53 214.49 131.53" style="fill:#424f54"/><polygon points="214.39 131.53 140.48 83.53 140.48 83.47 214.49 131.53 214.39 131.53" style="fill:#414f54"/><polygon points="214.29 131.53 140.48 83.6 140.48 83.53 214.39 131.53 214.29 131.53" style="fill:#404e54"/><polygon points="214.19 131.53 140.48 83.66 140.48 83.6 214.29 131.53 214.19 131.53" style="fill:#3f4d54"/><polygon points="214.09 131.53 140.48 83.73 140.48 83.66 214.19 131.53 214.09 131.53" style="fill:#3e4d54"/><polygon points="213.99 131.53 140.48 83.79 140.48 83.73 214.09 131.53 213.99 131.53" style="fill:#3d4c54"/><polygon points="213.88 131.53 140.48 83.86 140.48 83.79 213.99 131.53 213.88 131.53" style="fill:#3c4b54"/><polygon points="213.78 131.53 140.48 83.92 140.48 83.86 213.88 131.53 213.78 131.53" style="fill:#3b4b54"/><polygon points="213.69 131.53 140.48 83.99 140.48 83.92 213.78 131.53 213.69 131.53" style="fill:#3a4a53"/><polygon points="213.58 131.53 140.48 84.06 140.48 83.99 213.69 131.53 213.58 131.53" style="fill:#394953"/><polygon points="213.48 131.53 140.48 84.12 140.48 84.06 213.58 131.53 213.48 131.53" style="fill:#384853"/><polygon points="213.38 131.53 140.48 84.19 140.48 84.12 213.48 131.53 213.38 131.53" style="fill:#374853"/><polygon points="213.28 131.53 140.48 84.25 140.48 84.19 213.38 131.53 213.28 131.53" style="fill:#364753"/><polygon points="213.18 131.53 140.48 84.32 140.48 84.25 213.28 131.53 213.18 131.53" style="fill:#354653"/><polygon points="213.08 131.53 140.48 84.38 140.48 84.32 213.18 131.53 213.08 131.53" style="fill:#344653"/><polygon points="212.98 131.53 140.48 84.45 140.48 84.38 213.08 131.53 212.98 131.53" style="fill:#334553"/><polygon points="212.88 131.53 140.48 84.51 140.48 84.45 212.98 131.53 212.88 131.53" style="fill:#324453"/><polygon points="212.78 131.53 140.48 84.58 140.48 84.51 212.88 131.53 212.78 131.53" style="fill:#314453"/><polygon points="212.68 131.53 140.48 84.64 140.48 84.58 212.78 131.53 212.68 131.53" style="fill:#304352"/><polygon points="212.58 131.53 140.48 84.71 140.48 84.64 212.68 131.53 212.58 131.53" style="fill:#2f4252"/><polygon points="212.48 131.53 140.48 84.77 140.48 84.71 212.58 131.53 212.48 131.53" style="fill:#2e4252"/><polygon points="212.38 131.53 140.48 84.84 140.48 84.77 212.48 131.53 212.38 131.53" style="fill:#2d4152"/><polygon points="212.28 131.53 140.48 84.9 140.48 84.84 212.38 131.53 212.28 131.53" style="fill:#2c4052"/><polygon points="212.18 131.53 140.48 84.97 140.48 84.9 212.28 131.53 212.18 131.53" style="fill:#2b3f52"/><polygon points="212.08 131.53 140.48 85.03 140.48 84.97 212.18 131.53 212.08 131.53" style="fill:#2a3f52"/><polygon points="211.98 131.53 140.48 85.1 140.48 85.03 212.08 131.53 211.98 131.53" style="fill:#293e52"/><polygon points="211.88 131.53 140.48 85.16 140.48 85.1 211.98 131.53 211.88 131.53" style="fill:#283d52"/><polygon points="211.78 131.53 140.48 85.23 140.48 85.16 211.88 131.53 211.78 131.53" style="fill:#273d52"/><polygon points="211.68 131.53 140.48 85.29 140.48 85.23 211.78 131.53 211.68 131.53" style="fill:#263c52"/><polygon points="211.57 131.53 140.48 85.36 140.48 85.29 211.68 131.53 211.57 131.53" style="fill:#253b51"/><polygon points="211.47 131.53 140.48 85.42 140.48 85.36 211.57 131.53 211.47 131.53" style="fill:#243b51"/><polygon points="211.38 131.53 140.48 85.49 140.48 85.42 211.47 131.53 211.38 131.53" style="fill:#233a51"/><polygon points="211.27 131.53 140.48 85.56 140.48 85.49 211.38 131.53 211.27 131.53" style="fill:#223951"/><polygon points="211.17 131.53 140.48 85.62 140.48 85.56 211.27 131.53 211.17 131.53" style="fill:#213951"/><polygon points="211.07 131.53 140.48 85.69 140.48 85.62 211.17 131.53 211.07 131.53" style="fill:#203851"/><polygon points="210.97 131.53 140.48 85.75 140.48 85.69 211.07 131.53 210.97 131.53" style="fill:#1f3751"/><polygon points="210.87 131.53 140.48 85.82 140.48 85.75 210.97 131.53 210.87 131.53" style="fill:#1e3751"/><polygon points="210.77 131.53 140.48 85.88 140.48 85.82 210.87 131.53 210.77 131.53" style="fill:#1d3651"/><polygon points="210.67 131.53 140.48 85.95 140.48 85.88 210.77 131.53 210.67 131.53" style="fill:#1c3551"/><polygon points="210.57 131.53 140.48 86.01 140.48 85.95 210.67 131.53 210.57 131.53" style="fill:#1b3450"/><polygon points="210.47 131.53 140.48 86.08 140.48 86.01 210.57 131.53 210.47 131.53" style="fill:#1a3450"/><polygon points="210.37 131.53 140.48 86.14 140.48 86.08 210.47 131.53 210.37 131.53" style="fill:#193350"/><polygon points="210.27 131.53 140.48 86.21 140.48 86.14 210.37 131.53 210.27 131.53" style="fill:#183250"/><polygon points="210.17 131.53 140.48 86.27 140.48 86.21 210.27 131.53 210.17 131.53" style="fill:#173250"/><polygon points="210.07 131.53 140.48 86.34 140.48 86.27 210.17 131.53 210.07 131.53" style="fill:#163150"/><polygon points="140.48 86.34 210.07 131.53 140.48 131.53 140.48 86.34" style="fill:#163150"/></g><path d="M215.69,130.12c-1.92,0-5.48-.86-12.28-4a237.07,237.07,0,0,1-27.59-15.68A236.07,236.07,0,0,1,150.28,91.6c-10.57-9.23-9.2-11.34-8.68-12.14s1.88-2.91,14.62,3A237,237,0,0,1,183.8,98.13h0c13.22,8.59,37.38,26.1,34.23,31C217.79,129.47,217.36,130.12,215.69,130.12ZM144,80.28a1.1,1.1,0,0,0-.82.23c-.79,1.73,10.07,13,33.66,28.31s38.3,20.67,39.57,19.23c.78-1.73-10.08-13-33.67-28.31C161.6,86,147.6,80.28,144,80.28Z" style="fill:#163150"/></g></g></g></g></svg>