<svg xmlns="http://www.w3.org/2000/svg" id="Layer_1" data-name="Layer 1" viewBox="0 0 300 300"><title>items</title><g id="item__3-3"><g id="water-wings-and-life-jacket-vest"><g id="Group-144"><g id="Group-141-Copy-7"><g id="Path-305"><path d="M98.92,121c-23.27-8.21-31.49-23.55-35.31-30.39-9.93,2.6-16.44,12.72-16.44,27.24-11.05,6.56-14.92,16.75-12.33,30.42C47.17,158,63.61,166,98.92,164.18,99.76,153.93,99.77,134.56,98.92,121Z" style="fill:#ffd166;fill-rule:evenodd"/></g><g id="Path-309-Copy-2"><path d="M65.16,90c-2.65.74-11.24,4.84-14.73,13.34q-3.49,8.5-2.8,15a23.1,23.1,0,0,0-9.52,8.26c-4.06,5.84-4.06,18.45-3.66,21.11q1.15,1.7,14.81,9.44-12.58-10.42-11.15-17.93a22,22,0,0,1,11.15-15.46c0-.54,1.3,0,1.17-.55-2-7.65,2-15.92,3.9-19.5,1.66-3.1,7.28-10.42,16.06-3C71.41,101.5,64.05,90.64,65.16,90Z" style="fill:#fbb444;fill-rule:evenodd"/></g><g id="Path-307"><path d="M83.62,114.57q5.16,17.9,3.44,27.16T74.25,162.64l25.31,1.8L98.92,121Z" style="fill:#fbb444;fill-rule:evenodd"/></g><path d="M89.06,165.63c-29.76,0-44.06-7.8-54.95-16.39l-.35-.28-.09-.43C31,134.46,35.15,123.93,46,117.22c.19-14.37,6.79-25,17.31-27.72l.89-.23.66,1.17c3.9,7,12,21.56,34.47,29.48l.74.26,0,.78c.85,13.54.85,33,0,43.32l-.09,1-1,.06C95.5,165.55,92.19,165.63,89.06,165.63Zm-53.13-18c11.53,9,27.14,17,61.89,15.4a373.86,373.86,0,0,0,0-41.16C75.53,113.79,67.13,99.38,63,92.05,54,94.93,48.35,104.73,48.35,117.89v.67l-.58.35C37.42,125.06,33.54,134.46,35.93,147.65Z" style="fill:#163150"/><g id="Path-306"><path d="M65,90.08c3.61-.64,29.12,25.8,33.84,30.31-5.5,0-20.17-10.31-23.4-13.29a58.58,58.58,0,0,1-7.91-9.44C65.54,94.79,61.42,90.72,65,90.08Z" style="fill:#fbb444;fill-rule:evenodd"/><path d="M98.88,121.57c-6,0-21-10.68-24.21-13.6a59.71,59.71,0,0,1-8.07-9.62c-.37-.52-.81-1.08-1.25-1.66-1.78-2.27-3.46-4.42-2.78-6.19a2.69,2.69,0,0,1,2.26-1.59h0c2.64-.45,10.35,6.15,30.45,26.24,2,2,3.56,3.55,4.42,4.38a1.18,1.18,0,0,1-.82,2ZM65.2,91.26a1,1,0,0,0-.45.15c-.07.57,1.58,2.69,2.47,3.82.47.61.93,1.2,1.32,1.75a57.38,57.38,0,0,0,7.74,9.25c2.72,2.5,12.34,9.28,18.64,11.91l-1.32-1.31C87.35,110.58,68.35,91.59,65.2,91.26Z" style="fill:#163150"/></g><path d="M97.78,119.3q-1.32,3.89-22.81-15,.09-.07-4.37-5.77c-1.35-1.72,1.52,0,4.5,2.25C82,106,95.72,118.33,97.78,119.3Z" style="fill:#163150;fill-rule:evenodd"/><path d="M96.76,121.15c-2.29,0-7.31-2.56-22.57-16a1.15,1.15,0,0,1-.31-.42c-.18-.28-1-1.35-4.21-5.51-.72-.91-.79-1.67-.23-2.24s1.16-1.16,6.37,2.82c3.24,2.46,8.06,6.55,12.32,10.17s9.2,7.81,10.16,8.26a1.19,1.19,0,0,1,.61,1.46,2.05,2.05,0,0,1-1.46,1.38A2.8,2.8,0,0,1,96.76,121.15Zm-21-17.75c8.76,7.72,13.91,11.61,16.92,13.54-1.63-1.34-3.67-3.07-6.14-5.17-4-3.42-8.56-7.27-11.73-9.72C75.28,102.61,75.59,103.05,75.81,103.4Z" style="fill:#163150"/><g id="Path-308-Copy"><path d="M48.89,124.2a1.19,1.19,0,0,1-1.06-.65,14.41,14.41,0,0,1-1.76-6.71,1.2,1.2,0,0,1,1.25-1.12A1.17,1.17,0,0,1,48.44,117a12,12,0,0,0,1.5,5.51,1.17,1.17,0,0,1-.52,1.59A1.12,1.12,0,0,1,48.89,124.2Z" style="fill:#163150"/></g><g id="Path-308" style="opacity:.4992327094078064;isolation:isolate"><path d="M60.82,95.7c-3.88.53-14.38,17.14-8.76,23.76S64.7,95.16,60.82,95.7Z" style="fill:#fff;fill-rule:evenodd"/></g><g id="Path-308-Copy-2" style="opacity:.4992327094078064;isolation:isolate"><path d="M44.51,124.48c-3.16.69-10.69,14.17-5.62,18.83S47.66,123.79,44.51,124.48Z" style="fill:#fff;fill-rule:evenodd"/></g><g id="Shape"><path d="M92.73,145.33A53.13,53.13,0,0,1,74.45,142a1.19,1.19,0,0,1,.84-2.22A50.69,50.69,0,0,0,92.73,143a1.19,1.19,0,0,1,0,2.37Zm-21.64-4.88a1.12,1.12,0,0,1-.53-.13,33.66,33.66,0,0,1-7.75-5.17,1.19,1.19,0,0,1,1.59-1.76,31.43,31.43,0,0,0,7.21,4.8,1.19,1.19,0,0,1-.52,2.26Z" style="fill:#163150"/></g></g><g id="Group-141-Copy-8"><path d="M201.08,121c23.27-8.21,31.49-23.55,35.32-30.39,9.93,2.6,16.43,12.72,16.43,27.24,11,6.56,14.92,16.75,12.33,30.42C252.83,158,236.4,166,201.08,164.18,200.24,153.93,200.23,134.56,201.08,121Z" style="fill:#ffd166;fill-rule:evenodd"/><path d="M234.84,90c2.65.74,11.24,4.84,14.73,13.34q3.5,8.5,2.8,15a23.1,23.1,0,0,1,9.52,8.26C266,132.43,266,145,265.55,147.7q-1.14,1.7-14.81,9.44,12.58-10.42,11.15-17.93a22,22,0,0,0-11.15-15.46c0-.54-1.3,0-1.17-.55,2-7.65-2-15.92-3.9-19.5-1.66-3.1-7.28-10.42-16.06-3C228.59,101.5,236,90.64,234.84,90Z" style="fill:#fbb444;fill-rule:evenodd"/><path d="M216.38,114.57q-5.16,17.9-3.44,27.16t12.81,20.91l-25.31,1.8.64-43.4Z" style="fill:#fbb444;fill-rule:evenodd"/><path d="M210.94,165.63c-3.13,0-6.44-.08-9.92-.26l-1-.06-.09-1c-.85-10.36-.85-29.79,0-43.32l.05-.78.74-.26c22.44-7.91,30.56-22.48,34.47-29.47l.66-1.18.89.23c10.52,2.76,17.12,13.35,17.31,27.72,10.84,6.71,15,17.24,12.32,31.31l-.09.43-.35.28C255,157.83,240.7,165.63,210.94,165.63Zm-8.76-2.58c34.77,1.63,50.36-6.39,61.89-15.4,2.39-13.19-1.49-22.59-11.84-28.74l-.58-.35v-.67c0-13.16-5.6-23-14.68-25.84-4.1,7.33-12.5,21.74-34.76,29.84A373.87,373.87,0,0,0,202.18,163.05Z" style="fill:#163150"/><path d="M235,90.08c-3.61-.64-29.12,25.8-33.84,30.31,5.5,0,20.17-10.31,23.4-13.29a58.58,58.58,0,0,0,7.91-9.44C234.46,94.79,238.58,90.72,235,90.08Z" style="fill:#fbb444;fill-rule:evenodd"/><path d="M201.12,121.57a1.18,1.18,0,0,1-.82-2c.86-.83,2.42-2.39,4.42-4.38,20.1-20.09,27.8-26.73,30.45-26.24a2.68,2.68,0,0,1,2.26,1.59c.68,1.77-1,3.92-2.77,6.19-.45.58-.89,1.14-1.26,1.66a59.71,59.71,0,0,1-8.07,9.62C222.17,110.89,207.12,121.57,201.12,121.57ZM234.8,91.26c-3.15.34-22.15,19.32-28.41,25.57-.44.45-.87.87-1.27,1.27,6.3-2.66,16-9.45,18.6-11.87A58,58,0,0,0,231.46,97c.39-.55.85-1.14,1.32-1.75.88-1.12,2.5-3.19,2.43-3.87C235.21,91.37,235.07,91.31,234.8,91.26Zm0,0Z" style="fill:#163150"/><path d="M202.22,119.3q1.32,3.89,22.81-15-.09-.07,4.37-5.77c1.35-1.72-1.52,0-4.49,2.25C218.05,106,204.28,118.33,202.22,119.3Z" style="fill:#163150;fill-rule:evenodd"/><path d="M203.24,121.15a2.8,2.8,0,0,1-.68-.09,2.05,2.05,0,0,1-1.46-1.38,1.19,1.19,0,0,1,.61-1.46c1-.45,5.85-4.6,10.17-8.27s9.07-7.7,12.31-10.16c5.23-4,5.78-3.42,6.37-2.82s.49,1.33-.23,2.24c-3.25,4.16-4,5.24-4.21,5.51a1.15,1.15,0,0,1-.31.42C210.56,118.59,205.53,121.15,203.24,121.15Zm21.9-19.1c-3.17,2.45-7.7,6.3-11.73,9.71-2.47,2.1-4.51,3.83-6.14,5.18,3-1.93,8.17-5.82,16.93-13.54C224.42,103.05,224.72,102.61,225.14,102.05Z" style="fill:#163150"/><path d="M251.12,124.2a1.29,1.29,0,0,1-.54-.12,1.19,1.19,0,0,1-.52-1.6,12,12,0,0,0,1.5-5.51,1.17,1.17,0,0,1,1.12-1.25,1.16,1.16,0,0,1,1.25,1.12,14.56,14.56,0,0,1-1.75,6.71A1.2,1.2,0,0,1,251.12,124.2Z" style="fill:#163150"/><g style="opacity:.4992327094078064;isolation:isolate"><path d="M239.18,95.7c3.88.53,14.38,17.14,8.76,23.76S235.3,95.16,239.18,95.7Z" style="fill:#fff;fill-rule:evenodd"/></g><g style="opacity:.4992327094078064;isolation:isolate"><path d="M255.49,124.48c3.16.69,10.69,14.17,5.62,18.83S252.34,123.79,255.49,124.48Z" style="fill:#fff;fill-rule:evenodd"/></g><path d="M207.28,145.33a1.19,1.19,0,1,1,0-2.37,50.63,50.63,0,0,0,17.43-3.17,1.18,1.18,0,0,1,1.53.69,1.19,1.19,0,0,1-.69,1.53A53,53,0,0,1,207.28,145.33Zm21.64-4.88a1.2,1.2,0,0,1-1.07-.67,1.19,1.19,0,0,1,.54-1.59,31.21,31.21,0,0,0,7.21-4.8,1.19,1.19,0,1,1,1.59,1.76,33.45,33.45,0,0,1-7.75,5.17A1.11,1.11,0,0,1,228.92,140.45Z" style="fill:#163150"/></g></g><g id="Group-150-Copy-2"><g id="Path-311"><path d="M102.27,118.75c-2.35-5.11.82-5.76,11.47-4.52q3.39.39,13.11.85,6.9-.3,8.88,3.67c2,4,14,33.37,14,37.53v46.61q-2.19,6.92-11.67,6.92H115q-10.11,0-10.11-8.09V168.57q3.9-13.5,3.9-22.52A49.66,49.66,0,0,0,106,129.33,71.41,71.41,0,0,0,102.27,118.75Z" style="fill:#db7338;fill-rule:evenodd"/><path d="M114.91,210.8c-4,0-6.91-.93-8.75-2.77a8.56,8.56,0,0,1-2.29-6.31l0-33.42c2.55-8.87,3.85-16.36,3.85-22.25a49,49,0,0,0-2.67-16.39,70.21,70.21,0,0,0-3.71-10.47v0c-.63-1.36-1.34-3.34-.28-4.8,1.46-2,5.62-2,12.76-1.12,2.23.26,6.61.55,13.05.85,4.91-.24,8.21,1.2,9.71,4.22,2,4,14.12,33.53,14.12,38l0,46.91c-1.61,5.05-5.85,7.61-12.62,7.61H114.91Zm-9.07-42.09v33a6.54,6.54,0,0,0,1.72,4.91c1.45,1.46,3.93,2.19,7.35,2.19h23.16c5.83,0,9.32-2,10.68-6.08V156.28c0-3.88-11.81-32.9-13.91-37.09-1.14-2.28-3.72-3.3-8-3.12-6.56-.31-11-.6-13.26-.86-3-.34-9.88-1.15-10.94.32-.41.56,0,1.83.47,2.79A71.58,71.58,0,0,1,107,129.05a50.85,50.85,0,0,1,2.77,17C109.74,152.1,108.43,159.72,105.84,168.71Z" style="fill:#163150"/></g><g id="Path-311-Copy"><path d="M197.56,119.06c2.35-5.1-.82-5.75-11.47-4.52q-3.39.39-13.11.85-6.9-.28-8.88,3.67c-2,4-12.95,33.57-12.95,37.73V203.4q1.13,6.72,10.61,6.73h23.11q10.09,0,10.1-8.09V168.89q-3.89-13.5-3.89-22.53a49.64,49.64,0,0,1,2.73-16.71A71.21,71.21,0,0,1,197.56,119.06Z" style="fill:#db7338;fill-rule:evenodd"/><path d="M184.92,211.12H161.76c-6.85,0-10.75-2.54-11.59-7.55V156.79c0-4.41,11-34.07,13.06-38.17,1.5-3,4.79-4.42,9.8-4.22,6.34-.3,10.73-.59,12.95-.84,7.15-.83,11.3-.9,12.77,1.12,1,1.46.35,3.43-.28,4.8v0a68.16,68.16,0,0,0-3.69,10.42,49,49,0,0,0-2.69,16.43c0,5.9,1.3,13.38,3.85,22.25l0,.28V202a8.56,8.56,0,0,1-2.29,6.31C191.83,210.18,188.88,211.12,184.92,211.12Zm-12.83-94.76c-3.74,0-6.05,1-7.1,3.15-2.13,4.25-12.85,33.5-12.85,37.28V203.4c.65,3.81,3.8,5.74,9.62,5.74h23.16c3.42,0,5.9-.74,7.35-2.19A6.59,6.59,0,0,0,194,202V169c-2.58-9-3.89-16.62-3.89-22.67a50.84,50.84,0,0,1,2.79-17,69,69,0,0,1,3.79-10.68c.44-1,.88-2.23.47-2.8-1.07-1.46-8-.66-10.94-.32-2.27.26-6.7.55-13.18.86Z" style="fill:#163150"/></g><g id="Group-147"><g id="Group-145"><g id="Group-132"><g id="Rectangle"><rect width="14.84" height="8.9" x="142.32" y="161.48" rx="1.98" style="fill:#2a455f"/><path d="M155.18,171.37H144.3a3,3,0,0,1-3-3v-4.94a3,3,0,0,1,3-3h10.88a3,3,0,0,1,3,3v4.94A3,3,0,0,1,155.18,171.37Zm-10.88-8.9a1,1,0,0,0-1,1v4.94a1,1,0,0,0,1,1h10.88a1,1,0,0,0,1-1v-4.94a1,1,0,0,0-1-1Z" style="fill:#163150"/></g><rect width="3.96" height="8.9" x="148.26" y="161.48" style="fill:#163150"/></g><g id="Group-132-Copy"><rect width="14.84" height="8.9" x="142.32" y="183.24" rx="1.98" style="fill:#2a455f"/><path d="M155.18,193.13H144.3a3,3,0,0,1-3-3v-4.94a3,3,0,0,1,3-3h10.88a3,3,0,0,1,3,3v4.94A3,3,0,0,1,155.18,193.13Zm-10.88-8.9a1,1,0,0,0-1,1v4.94a1,1,0,0,0,1,1h10.88a1,1,0,0,0,1-1v-4.94a1,1,0,0,0-1-1Z" style="fill:#163150"/><rect width="3.96" height="8.9" x="148.26" y="183.24" style="fill:#163150"/></g><rect width="36.6" height="4.95" x="158.15" y="163.46" style="fill:#163150"/><g id="Rectangle-Copy-37"><rect width="36.6" height="4.95" x="104.74" y="163.46" style="fill:#163150"/></g><g id="Rectangle-Copy-36"><rect width="36.6" height="4.95" x="158.15" y="185.22" style="fill:#163150"/></g><g id="Rectangle-Copy-38"><rect width="36.6" height="4.95" x="104.74" y="185.22" style="fill:#163150"/></g></g><rect width="4.95" height="46.49" x="121.55" y="158.51" rx=".99" style="fill:#163150"/><g id="Rectangle-Copy-39"><rect width="4.95" height="46.49" x="174.96" y="158.51" rx=".99" style="fill:#163150"/></g></g></g></g></g></svg>