<svg xmlns="http://www.w3.org/2000/svg" id="Layer_1" data-name="Layer 1" viewBox="0 0 300 300"><title>items</title><g id="item__1-2"><path d="M107.19,138.85h-.68c-11.9,0-21.88,12.43-21.88,28.1s10,28.1,21.88,28.1c10.54,0,19.76-9.82,21.56-23.34l.15-1.09.76-.8c3.86-4.1,7.66-6.3,11.53-6.3,3.11,0,6.22,1.29,9.33,3.72l1.2.93.11,1.51c1.1,14.46,10.66,25.37,21.78,25.37,11.9,0,21.88-12.44,21.88-28.1,0-15.14-9.35-27.35-20.8-28.07h-.25l-.09,0Z" style="fill:#d3e6f2;fill-rule:evenodd;opacity:.33"/><path d="M172.93,198.47c-13.13,0-24-12.26-25.19-28.53h0c-2.55-2-5-3-7.23-3-2.78,0-5.73,1.7-9,5.22h0c-2,15.24-12.54,26.3-25,26.3-14,0-25.3-14.14-25.3-31.52s11.35-31.52,25.3-31.52H107l67.22,0c13.47.84,24,14.67,24,31.48C198.23,184.33,186.88,198.47,172.93,198.47ZM140.51,160.1c3.81,0,7.66,1.49,11.44,4.44l2.39,1.86.23,3c.94,12.44,9,22.19,18.36,22.19,10.18,0,18.45-11.07,18.45-24.67,0-13-7.89-24-17.59-24.65l-.43,0H106.51c-10.18,0-18.45,11.06-18.45,24.67s8.27,24.67,18.45,24.67c8.81,0,16.62-8.75,18.17-20.36l.29-2.19,1.51-1.6C131.16,162.51,135.75,160.1,140.51,160.1Z" style="fill:#163150"/><path d="M110.57,146.81h0c-9.78.12-17.9,9.69-17.9,21.71s8.23,21.72,18.09,21.72c8.78,0,16.42-7.68,17.85-18.2l.16-1.22.89-.85c3.38-3.22,6.72-4.95,10.11-4.95s6.56,1.47,9.86,4.22l1.08.9.16,1.39c1.24,10.76,9,18.71,17.91,18.71,9.86,0,18.09-9.61,18.09-21.72s-8.15-21.63-18-21.71H110.57Zm0,0h0Z" style="fill:#d3e6f2;fill-rule:evenodd;opacity:.33"/><path d="M168.73,193.74c-10.75,0-19.95-9.37-21.39-21.81h0c-2.72-2.26-5.28-3.41-7.62-3.41s-4.88,1.31-7.69,4c-1.67,12.3-10.64,21.23-21.32,21.23-11.91,0-21.6-11.31-21.6-25.22s9.59-25.07,21.37-25.21h58.34c11.86.09,21.51,11.4,21.51,25.21S180.64,193.74,168.73,193.74Zm-29-32.22c4,0,8.09,1.69,12.1,5l2.15,1.8.33,2.78c1,8.9,7.23,15.61,14.43,15.61,8.05,0,14.59-8.17,14.59-18.22s-6.5-18.1-14.49-18.21H110.6c-8,.11-14.48,8.28-14.48,18.21s6.54,18.22,14.59,18.22c7,0,13.2-6.53,14.38-15.18l.33-2.43,1.77-1.69C131.37,163.46,135.47,161.52,139.72,161.52Z" style="fill:#163150"/><path d="M168.73,198c-12.38,0-23-10.08-25.38-23.75a6.89,6.89,0,0,0-3.63-1.47,6.81,6.81,0,0,0-3.7,1.89C133.5,188.3,123.08,198,110.71,198c-14.27,0-25.88-13.23-25.88-29.5,0-16.06,11.43-29.27,25.5-29.49H169c14.14.14,25.64,13.36,25.64,29.49S183,198,168.73,198Zm-29-33.78c3.37,0,6.85,1.48,10.36,4.41l1.31,1.09.2,1.7c1.19,10.27,8.56,18,17.14,18,9.55,0,17.32-9.39,17.32-20.94s-7.72-20.86-17.2-20.93H110.53c-9.45.11-17.13,9.5-17.13,20.93s7.76,20.94,17.31,20.94c8.38,0,15.72-7.54,17.08-17.53l.2-1.49,1.08-1C132.72,165.93,136.2,164.24,139.72,164.24Z" style="fill:#78e1f2"/><path d="M117.58,153.21a15.88,15.88,0,0,0,0,30.63,15.14,15.14,0,0,1-3.65.45,15.77,15.77,0,0,1,0-31.53A15.14,15.14,0,0,1,117.58,153.21Z" style="fill:#fff;fill-rule:evenodd;opacity:.566173732280731;isolation:isolate"/><path id="Combined-Shape-Copy-2" d="M161.86,183.84a15.88,15.88,0,0,0,0-30.63,15.14,15.14,0,0,1,3.65-.45,15.77,15.77,0,0,1,0,31.53A15.14,15.14,0,0,1,161.86,183.84Z" style="fill:#fff;fill-rule:evenodd;opacity:.566173732280731;isolation:isolate"/><path d="M138.93,193.74c4.81,0,3.53-3.82,7.49-2.87s3.85,11.07-.61,12c-2.62-4.7-5.34-4.33-7.13-4.33-1.31,0-5.38,1.66-5.84,4.89-4.24-.9-5.85-9.38-3-11.35C134.82,188.65,135.93,193.74,138.93,193.74Z" style="fill:#78e1f2;fill-rule:evenodd"/><path d="M133.5,204.33l-.82-.17c-2.77-.59-4.33-3.71-4.83-6.21-.58-2.92,0-5.49,1.57-6.54,3.63-2.49,5.69-.84,7.2.36a3.73,3.73,0,0,0,5.8-.35,3.66,3.66,0,0,1,4.18-1.3c2.46.59,3.51,3.76,3.45,6.64s-1.34,6.29-4.08,6.84l-.56.11-.27-.49c-2.23-4-4.38-4-6.08-3.93h-.38c-1.11,0-4.68,1.5-5.07,4.21Zm-.56-12.67a4.83,4.83,0,0,0-2.64,1c-1,.68-1.37,2.72-.92,5,.38,1.91,1.4,4,2.91,4.73,1-3,4.85-4.65,6.39-4.65H139c1.83,0,4.55-.06,7.13,4.18,1.54-.72,2.28-3.09,2.32-5.18,0-2.25-.72-4.73-2.26-5.1a2.18,2.18,0,0,0-2.67.85,5.51,5.51,0,0,1-4.63,2,5.37,5.37,0,0,1-3.28-1.53A4.42,4.42,0,0,0,132.94,191.66Z" style="fill:#163150"/><path d="M144.16,200.05c2.65,18.86,21,21.31,28.77,21.23,17.55-.18,28-8.61,29.76-17.12q1.78-8.52.29-113.77h12.65q.57,98.68-.46,109.66c-1,11-9.86,33.09-41.45,33.09q-31.59,0-40.88-29.74,2.83-5.31,6-5.31C142,198.09,142.15,198.22,144.16,200.05Z" style="fill:#2a455f;fill-rule:evenodd"/><path d="M173.72,233.92c-21.34,0-35.34-10.19-41.62-30.29l-.1-.31.16-.29c2-3.85,4.22-5.72,6.66-5.72,3.37,0,3.72.22,5.86,2.16l.21.19,0,.28c2.72,19.32,22.1,20.63,28,20.56,17.59-.18,27.37-8.68,29-16.5,1.17-5.6,1.26-43.82.27-113.6v-.79H216.4v.78c.37,65.51.22,102.42-.47,109.73C214.76,212.67,204.54,233.92,173.72,233.92Zm-40-30.44c6.1,19.17,19.57,28.89,40,28.89,14,0,38.27-6.83,40.67-32.4.68-7.22.84-43.83.47-108.8H203.77c1,70.36.89,107.38-.32,113.15-1.76,8.41-12.06,17.55-30.51,17.74a38.53,38.53,0,0,1-16.69-3.6c-7.26-3.65-11.58-9.72-12.82-18-1.73-1.56-1.83-1.56-4.61-1.56C137.09,198.87,135.36,200.42,133.68,203.48Z" style="fill:#163150"/><rect width="17.42" height="28.39" x="200.59" y="66.86" rx="3.11" style="fill:#9165ff"/><path d="M214.9,96H203.71a3.9,3.9,0,0,1-3.9-3.89V70a3.9,3.9,0,0,1,3.9-3.89H214.9A3.89,3.89,0,0,1,218.79,70V92.13A3.89,3.89,0,0,1,214.9,96ZM203.71,67.63A2.34,2.34,0,0,0,201.37,70V92.13a2.34,2.34,0,0,0,2.34,2.34H214.9a2.34,2.34,0,0,0,2.34-2.34V70a2.34,2.34,0,0,0-2.34-2.34Z" style="fill:#163150"/></g></svg>