<svg id="Layer_1" data-name="Layer 1" xmlns="http://www.w3.org/2000/svg" viewBox="0 0 300 300"><title>items</title><g id="item__1-3"><path d="M149.35,91.1c-26.89,0-63.89,11.1-90,30.45S14.07,190.25,14,196.68c6.17-8.75,15.41-22.53,51.34-26.94.21-3.3,53.38-17.79,84-17.79C149.16,124.26,149.35,110.19,149.35,91.1Z" style="fill:#78e1f2;fill-rule:evenodd"/><path d="M14,197.88a1.15,1.15,0,0,1-.37-.06,1.19,1.19,0,0,1-.83-1.16c.08-7.08,19.27-56.45,45.79-76.07C83.4,102.23,119.88,89.9,149.35,89.9a1.2,1.2,0,0,1,1.2,1.2c0,6.23,0,11.94,0,17.75,0,12-.09,24.45,0,43.09a1.18,1.18,0,0,1-1.2,1.21c-30.81,0-79.75,13.83-82.87,17a1.22,1.22,0,0,1-1,.81C30.6,175.21,21.36,188.32,15.25,197l-.27.38A1.19,1.19,0,0,1,14,197.88ZM148.15,92.31C119.78,92.65,83.73,105,60,122.52c-21.7,16-39,53.92-43.6,68.79,6.63-8.52,18-18.86,48.13-22.68.75-.84,2.92-2.08,9.32-4.2,5.76-1.91,13.5-4,21.79-6,9.62-2.26,33.68-7.46,52.49-7.68-.13-18-.08-30.15,0-41.92C148.13,103.41,148.15,98.07,148.15,92.31ZM66.54,169.82Z" style="fill:#163150"/><path d="M149.16,91.53c26.89,0,59.6,8.84,90.05,30.45s46.71,67.25,46.79,73.68c-13-11.61-31.15-25.49-52.83-25.49-.21-3.31-53.38-17.79-84-17.79Z" style="fill:#fbb444;fill-rule:evenodd"/><path d="M286,196.86a1.18,1.18,0,0,1-.79-.3c-13.16-11.73-31-25.19-52-25.19a1.19,1.19,0,0,1-1.13-.82c-3.12-3.14-52.07-17-82.88-17a1.2,1.2,0,0,1-1.2-1.2V91.53a1.2,1.2,0,0,1,1.2-1.2c30.64,0,62.87,10.89,90.74,30.67,30.51,21.66,47.22,67.9,47.3,74.65a1.18,1.18,0,0,1-.7,1.1A1.1,1.1,0,0,1,286,196.86ZM233.88,169c20.24.28,37.35,12.28,50.4,23.57-3-12.33-18.95-50.55-45.77-69.58-27.1-19.24-58.36-29.95-88.15-30.23v58.46c18.8.21,42.87,5.41,52.49,7.68,8.29,1.95,16,4.08,21.79,6C230.83,166.91,233.06,168.13,233.88,169Zm-1.9,1.28Z" style="fill:#163150"/><path d="M115.37,96.7c-13.43,4.61-44.94,44.48-50,73,25.19-13.31,82.46-17.79,84-17.79q-.54-9.81,0-60.85Q128.8,92.09,115.37,96.7Z" style="fill:#f4d57a;fill-rule:evenodd"/><path d="M65.34,170.94a1.23,1.23,0,0,1-.71-.23,1.2,1.2,0,0,1-.47-1.18c5.22-29.25,36.8-69.15,50.82-74h0c9-3.1,20.56-5,34.32-5.67a1.24,1.24,0,0,1,.89.33,1.21,1.21,0,0,1,.36.88c-.36,33.84-.36,54.29,0,60.78a1.18,1.18,0,0,1-1.2,1.26c-.5,0-58,4.22-83.45,17.65A1.14,1.14,0,0,1,65.34,170.94Zm50.42-73.1c-11.85,4.07-42.32,40.77-48.76,69.73,24.69-11.79,72.74-16.08,81.1-16.73-.3-7.51-.29-27.15,0-58.48-13,.71-23.86,2.55-32.38,5.48Z" style="fill:#163150"/><path d="M183.14,96.7c13.43,4.61,44.94,44.48,50,73C208,156.43,150.71,152,149.16,152q.54-9.81,0-60.85Q169.73,92.09,183.14,96.7Z" style="fill:#9165ff;fill-rule:evenodd"/><path d="M233.17,170.94a1.14,1.14,0,0,1-.56-.14c-25.42-13.43-82.94-17.64-83.45-17.65a1.19,1.19,0,0,1-.87-.38,1.17,1.17,0,0,1-.33-.88c.36-6.49.36-26.94,0-60.78a1.18,1.18,0,0,1,.37-.88,1.2,1.2,0,0,1,.89-.33c13.75.66,25.3,2.57,34.31,5.67h0c14,4.81,45.61,44.71,50.83,74a1.21,1.21,0,0,1-.48,1.18A1.23,1.23,0,0,1,233.17,170.94Zm-82.76-20.1c8.37.65,56.41,4.94,81.1,16.73-6.44-29-36.9-65.66-48.76-69.73-8.52-2.93-19.41-4.77-32.38-5.48C150.7,123.69,150.71,143.33,150.41,150.84Z" style="fill:#163150"/><path d="M149.53,92.9a1.8,1.8,0,0,1-1.8-1.8V83.5a1.8,1.8,0,0,1,3.6,0v7.6A1.81,1.81,0,0,1,149.53,92.9Z" style="fill:#163150"/><path d="M15.26,197.1c10.27-7.5,25.91-13.8,50.08-9.32a80,80,0,0,1,23.51-7q4-12,14.43-22.27-26,4.77-38.67,11.2C46.84,170.77,18.09,182.35,15.26,197.1Z" style="fill:#057a97;fill-rule:evenodd"/><path d="M15.26,198.3a1.16,1.16,0,0,1-.64-.19,1.19,1.19,0,0,1-.54-1.24c2.94-15.36,32.06-27.16,50.21-28.31,8.49-4.28,21.53-8,38.77-11.2a1.2,1.2,0,0,1,1.28.63,1.17,1.17,0,0,1-.22,1.4A56,56,0,0,0,90,181.19a1.19,1.19,0,0,1-1,.8l-.71.11a78.76,78.76,0,0,0-22.47,6.77,1.15,1.15,0,0,1-.73.09c-19.42-3.59-35.95-.53-49.15,9.11A1.23,1.23,0,0,1,15.26,198.3Zm84.56-37.88c-15.35,3-27,6.48-34.67,10.39a1.14,1.14,0,0,1-.47.13c-16.2.94-41.24,10.8-47.16,23.16,13.14-8.38,29.15-10.92,47.66-7.57A81,81,0,0,1,88,179.73,56.74,56.74,0,0,1,99.82,160.42Z" style="fill:#163150"/><path d="M149.53,146.34a305.74,305.74,0,0,0-42.18,10.33,37.44,37.44,0,0,0-18.43,23.51s21.69-19,61.22-19.17c39.54.19,59.61,19.68,59.61,19.68l4.07-18Z" style="fill:#163150;fill-rule:evenodd"/><path d="M209.75,181.44a.73.73,0,0,1-.52-.21c-.2-.19-20.34-19.28-59.09-19.47-38.76.19-60.51,18.8-60.73,19a.75.75,0,0,1-1.22-.77A38.33,38.33,0,0,1,107,156a.35.35,0,0,1,.14-.06A309,309,0,0,1,149.4,145.6a.81.81,0,0,1,.31,0L214,162a.75.75,0,0,1,.55.89l-4.07,18a.75.75,0,0,1-.51.55A.83.83,0,0,1,209.75,181.44Zm-59.61-21.18c20.57.1,35.81,5.49,45,10a69.1,69.1,0,0,1,14.19,9l3.63-16-63.44-16.13a308.11,308.11,0,0,0-41.84,10.25,36.67,36.67,0,0,0-17.31,20.77C96.5,173.62,117.34,160.42,150.14,160.26Z" style="fill:#163150"/><path d="M65.34,189a.82.82,0,0,1-.22,0,1.19,1.19,0,0,1-1-1.39l3.41-18.48a1.2,1.2,0,1,1,2.36.43L66.52,188A1.2,1.2,0,0,1,65.34,189Z" style="fill:#163150"/><path d="M286,195.66c-24.12-9.25-28.58-12.47-52.74-8a80.14,80.14,0,0,0-23.51-7q-4-12-14.43-22.26,26,4.77,38.67,11.2C251.76,170.66,271.29,180.69,286,195.66Z" style="fill:#057a97;fill-rule:evenodd"/><path d="M286,196.86a1.35,1.35,0,0,1-.43-.08l-6.45-2.5c-18.54-7.24-24.14-9.42-45.64-5.43a1.22,1.22,0,0,1-.73-.09A78.33,78.33,0,0,0,210.28,182l-.72-.11a1.21,1.21,0,0,1-.95-.81c-2.6-7.75-7.36-15.08-14.13-21.79a1.18,1.18,0,0,1-.22-1.41,1.21,1.21,0,0,1,1.28-.62c17.24,3.15,30.28,6.92,38.77,11.19,17.77,1.12,37.39,11,52.55,26.38a1.2,1.2,0,0,1,.15,1.5A1.22,1.22,0,0,1,286,196.86Zm-35.13-12.41c9.67,0,16.45,2.65,29.12,7.59l.83.33c-14.11-12.68-31.28-20.64-46.9-21.55a1.09,1.09,0,0,1-.47-.12c-7.68-3.91-19.33-7.41-34.67-10.4a56.9,56.9,0,0,1,11.87,19.31,81.31,81.31,0,0,1,22.77,6.81A97.21,97.21,0,0,1,250.87,184.45Z" style="fill:#163150"/><path d="M233.26,188.87a1.2,1.2,0,0,1-1.18-1l-3.41-18.48A1.2,1.2,0,0,1,231,169l3.41,18.48a1.2,1.2,0,0,1-1,1.4Z" style="fill:#163150"/></g></svg>