<svg xmlns="http://www.w3.org/2000/svg" id="Layer_1" data-name="Layer 1" viewBox="0 0 300 300"><title>items</title><g id="item__4-1"><g id="main-card"><g id="small-dragon"><g id="Group-121"><g id="Rectangle"><path d="M104.75,84.51a10.51,10.51,0,0,0-8.48,10.31v23.24a10.52,10.52,0,0,0,7.63,10.1q19.51,5.57,26.56,5.56c4.7,0,13.78-1.87,27.17-5.6A10.5,10.5,0,0,0,165.32,118V94.82a10.51,10.51,0,0,0-8.48-10.31q-18.71-3.67-26-3.67T104.75,84.51Z" style="fill:#009a63;fill-rule:evenodd"/><path d="M130.46,134.46c-4.74,0-13.74-1.88-26.76-5.59a11.29,11.29,0,0,1-8.16-10.81V94.82a11.26,11.26,0,0,1,9.07-11c12.45-2.45,21.26-3.69,26.19-3.69s13.73,1.24,26.18,3.69a11.26,11.26,0,0,1,9.07,11V118a11.27,11.27,0,0,1-8.22,10.83C144.43,132.56,135.22,134.46,130.46,134.46Zm.34-52.89c-4.84,0-13.55,1.23-25.91,3.66h0A9.79,9.79,0,0,0,97,94.82v23.24a9.8,9.8,0,0,0,7.09,9.39C117,131.12,125.86,133,130.46,133s13.71-1.88,27-5.58a9.79,9.79,0,0,0,7.14-9.41V94.82a9.79,9.79,0,0,0-7.88-9.59C144.34,82.8,135.63,81.57,130.8,81.57Z" style="fill:#163150"/></g><g id="Path-250"><path d="M131.16,127.51c0-7.24-2.1-18.64,6.48-18.64s10.58,10.11,24,4.28a10.64,10.64,0,0,1-3.58,6.51c-1.63,1.08-4.57,1.79-6.09,2.42A63.3,63.3,0,0,1,143.2,124Q132.73,124.73,131.16,127.51Z" style="fill:#048356;fill-rule:evenodd"/></g><g id="Path-250-Copy"><path d="M130.44,127.38c0-7.24,2.1-18.63-6.48-18.63s-10.57,10.11-24,4.28a10.63,10.63,0,0,0,3.57,6.5c1.63,1.09,4.57,1.79,6.1,2.43a64.22,64.22,0,0,0,8.78,1.94C125.38,124.36,129.39,125.53,130.44,127.38Z" style="fill:#01a46a;fill-rule:evenodd"/></g><g id="eyes-copy-5"><g id="Group-29"><g id="Oval"><circle cx="116.84" cy="97.73" r="3.67" style="fill:#fff"/><path d="M116.84,102.14a4.41,4.41,0,1,1,4.41-4.41A4.42,4.42,0,0,1,116.84,102.14Zm0-7.35a2.94,2.94,0,1,0,2.94,2.94A2.94,2.94,0,0,0,116.84,94.79Z" style="fill:#163150"/></g><g id="Combined-Shape"><path d="M114.39,98.05a1.53,1.53,0,0,0,2.43-1.24,1.52,1.52,0,0,0-.86-1.37,2.45,2.45,0,1,1-1.57,2.61Z" style="fill:#163150;fill-rule:evenodd"/></g></g><g id="Group-29-Copy"><circle cx="144.75" cy="97.73" r="3.67" style="fill:#fff"/><path d="M144.75,102.14a4.41,4.41,0,1,1,4.41-4.41A4.42,4.42,0,0,1,144.75,102.14Zm0-7.35a2.94,2.94,0,1,0,2.94,2.94A2.94,2.94,0,0,0,144.75,94.79Z" style="fill:#163150"/><path d="M142.3,98.05a1.58,1.58,0,0,0,.9.29,1.53,1.53,0,0,0,.67-2.9,2.45,2.45,0,1,1-1.57,2.61Z" style="fill:#163150;fill-rule:evenodd"/></g></g><g id="Group-102"><g id="Path-243"><path d="M130.8,129.22a.73.73,0,0,1-.73-.73c0-2.11-5.46-2.92-10.75-3.7-9-1.34-20.11-3-20.11-11.64a.74.74,0,0,1,1.47,0c0,7.38,10.46,8.93,18.86,10.18,6.7,1,12,1.78,12,5.16A.74.74,0,0,1,130.8,129.22Z" style="fill:#163150"/></g><g id="Path-243-Copy"><path d="M130.8,129.22a.74.74,0,0,1-.74-.73c0-3.38,5.3-4.16,12-5.16,8.41-1.25,18.86-2.8,18.86-10.18a.74.74,0,0,1,1.47,0c0,8.65-11.15,10.3-20.11,11.64-5.28.78-10.75,1.59-10.75,3.7A.73.73,0,0,1,130.8,129.22Z" style="fill:#163150"/></g></g><g id="Group-108"><g id="Path-244"><path d="M135.31,115.07c0-1.69,3.23-4.36,4.49-3S135.31,116.76,135.31,115.07Z" style="fill:#163150;fill-rule:evenodd"/></g><g id="Path-244-Copy"><path d="M125.92,115.07c0-1.69-3.24-4.36-4.49-3S125.92,116.76,125.92,115.07Z" style="fill:#163150;fill-rule:evenodd"/></g></g><g id="Group-106"><g id="Path-245"><path d="M144.75,81.45l10.34-8.75a2.19,2.19,0,0,1,3.1.26,2.13,2.13,0,0,1,.52,1.31l.51,10.25Z" style="fill:#9f6634;fill-rule:evenodd"/><path d="M159.22,85.25h-.15L144.6,82.17a.73.73,0,0,1-.56-.54.72.72,0,0,1,.24-.74l10.33-8.75a3,3,0,0,1,2.15-.69,2.9,2.9,0,0,1,2,1,3,3,0,0,1,.7,1.76l.5,10.24a.75.75,0,0,1-.25.6A.78.78,0,0,1,159.22,85.25Zm-12.85-4.2,12.07,2.55L158,74.31a1.51,1.51,0,0,0-.35-.88,1.44,1.44,0,0,0-1-.51,1.48,1.48,0,0,0-1.07.34Z" style="fill:#163150"/></g><g id="Path-245-Copy-2"><g id="Path-245-Copy"><path d="M118.09,81.45,107.75,72.7a2.2,2.2,0,0,0-3.11.26,2.26,2.26,0,0,0-.52,1.31l-.5,10.25Z" style="fill:#9f6634;fill-rule:evenodd"/><path d="M103.62,85.25a.78.78,0,0,1-.48-.17.72.72,0,0,1-.25-.6l.5-10.24a2.93,2.93,0,0,1,4.83-2.1l10.34,8.75a.73.73,0,0,1-.32,1.28l-14.47,3.07Zm2.71-12.34h-.13a1.46,1.46,0,0,0-1,.51,1.5,1.5,0,0,0-.34.88l-.46,9.29,12.07-2.55-9.19-7.79A1.47,1.47,0,0,0,106.33,72.91Z" style="fill:#163150"/></g></g><g id="Group-105-Copy"><g id="Group-105"><g id="Path-247"><path d="M158.52,76.15c-2.2,0-3.51-.45-4.65-1.6l.66-.65c1,1,2.08,1.31,4.17,1.33v.92Z" style="fill:#163150"/></g><g id="Path-247-Copy"><path d="M158.61,79.64c-2.39,0-6.5-1-8-3.13l.75-.52c1.26,1.83,5,2.77,7.32,2.74v.91Z" style="fill:#163150"/></g><g id="Path-247-Copy-2"><path d="M158.59,82.4c-3.54,0-8.46-1.13-10.67-3.05l.6-.7c2,1.78,6.7,2.83,10.07,2.83h.11v.92Z" style="fill:#163150"/></g></g><g id="Group-105-Copy-2"><path d="M104.54,76.15h-.19v-.92c2,0,3.19-.33,4.17-1.33l.66.65C108.05,75.7,106.74,76.15,104.54,76.15Z" style="fill:#163150"/><path d="M104.45,79.64h-.1v-.91c2.25,0,6.06-.91,7.32-2.74l.75.52C111,78.66,106.84,79.64,104.45,79.64Z" style="fill:#163150"/><path d="M104.47,82.4h-.12v-.92c3.39,0,8.11-1,10.19-2.83l.6.7C112.93,81.27,108,82.4,104.47,82.4Z" style="fill:#163150"/></g></g></g><g id="Path-246"><path d="M100,86.64c6.9,2.92,22.33-.57,24.56,2.65,1.12,1.61,4.07,6.77,6.89,6.77s5.42-5.15,6.53-6.77c2.23-3.26,24.45.61,24.45-2.65a96.15,96.15,0,0,0-17-3.89,87.57,87.57,0,0,0-13.1-1.15,61.1,61.1,0,0,0-14.26,1.15Q106.69,85.06,100,86.64Z" style="fill:#028254;fill-rule:evenodd"/></g><g id="Group-112"><g id="Group-109"><g id="Path-251"><path d="M144,146.76c11.66-4,31.34-11.73,31.34-15.24,11.42,2.53,26.3,12.11,28.15,26.81-8.12-2.19-10.27,2.25-12.92,7.52-8.24-4.21-18.74,7.81-23.13,10.47-1.69-8.31-3.37-13.75-14.93-18-2.56-5.71-4.87-6.6-7.68-8.18C144.49,148.52,144.27,148.15,144,146.76Z" style="fill:#ffd166;fill-rule:evenodd"/><path d="M167.46,177.06a.75.75,0,0,1-.29-.06.77.77,0,0,1-.43-.53c-1.65-8.14-3.23-13.33-14.46-17.46a.69.69,0,0,1-.42-.38c-2.26-5-4.23-6.11-6.72-7.47l-.65-.36a.72.72,0,0,1-.36-.49c-.16-.75-.3-1.23-.42-1.66a16.54,16.54,0,0,1-.42-1.76.75.75,0,0,1,.49-.82c17.29-5.93,30.84-12.32,30.84-14.55a.69.69,0,0,1,.28-.57.71.71,0,0,1,.61-.15c10.45,2.32,26.73,11.53,28.73,27.43a.74.74,0,0,1-.24.65.76.76,0,0,1-.68.16c-7.48-2-9.38,1.77-12,7a.88.88,0,0,1-.46.43.81.81,0,0,1-.59,0c-5.92-3-13.47,3.25-18.46,7.4a41.62,41.62,0,0,1-4,3A.77.77,0,0,1,167.46,177.06Zm-14.39-19.32c11,4.11,13.19,9.37,14.89,17.36.82-.61,1.81-1.42,2.9-2.33,5.12-4.26,12.76-10.61,19.39-7.88,2.45-4.84,4.92-9.11,12.38-7.53-2.43-14.19-17-22.58-26.79-25-2.5,4.67-23.37,12.23-31,14.86.09.37.17.68.26,1s.23.81.37,1.42l.36.2C148.42,151.28,150.65,152.5,153.07,157.74Z" style="fill:#163150"/></g><g id="Path-252"><path d="M153,158.91l-.89-1.17c2.58-2,21.95-18.53,22.78-26.3l1.46.16C175.35,140.8,153.2,158.74,153,158.91Z" style="fill:#163150"/></g><g id="Path-253"><path d="M168.15,176.7l-1.26-.75c1.87-3.14,11.33-27.56,8-44.29l1.44-.29C179.58,147.69,170.8,172.25,168.15,176.7Z" style="fill:#163150"/></g><g id="Path-254"><path d="M191.32,165.93l-1.46-.16c1.32-11.92-9.13-30.1-14.63-33.63l.79-1.24C181.92,134.69,192.72,153.29,191.32,165.93Z" style="fill:#163150"/></g></g><g id="Path-255"><path d="M171.93,170.34q9.93-21.26,6.62-32.77c5.33,7.67,9.47,18.27,9.47,23.28Q181.45,160.7,171.93,170.34Z" style="fill:#d6a758;fill-rule:evenodd"/></g><g id="Path-256"><path d="M192,159.17c-1.85-10.57-5.89-19.83-9.57-23.26,7.85,5.4,13.1,7,18.71,19.4C196.23,154.93,194.8,155.88,192,159.17Z" style="fill:#d6a758;fill-rule:evenodd"/></g><g id="Path-257"><path d="M156.37,157.67c2.5,0,9.13,1.5,11.62,12.67,2.55-6,7.49-24.24,6.52-32.17C172.46,141.55,165.49,151.73,156.37,157.67Z" style="fill:#d6a758;fill-rule:evenodd"/></g><g id="Path-258"><path d="M146.79,148.68c1.72,0,5.2,3.48,6.14,6.68a193.12,193.12,0,0,0,19-18.78Q152.48,146.53,146.79,148.68Z" style="fill:#d6a758;fill-rule:evenodd"/></g></g><g id="Group-112-Copy"><path d="M117.57,146.76c-11.66-4-31.33-11.73-31.33-15.24-11.43,2.53-26.31,12.11-28.16,26.81,8.13-2.19,10.28,2.25,12.92,7.52,8.24-4.21,18.75,7.81,23.13,10.47,1.69-8.31,3.37-13.75,14.93-18,2.57-5.71,4.87-6.6,7.69-8.18C117.1,148.52,117.32,148.15,117.57,146.76Z" style="fill:#ffd166;fill-rule:evenodd"/><path d="M94.13,177.06a.73.73,0,0,1-.38-.11,40.32,40.32,0,0,1-4-3c-5-4.15-12.53-10.42-18.45-7.4a.75.75,0,0,1-.57.05.73.73,0,0,1-.42-.37c-2.7-5.37-4.6-9.15-12.08-7.14a.74.74,0,0,1-.67-.16.72.72,0,0,1-.25-.65c2-15.9,18.28-25.11,28.73-27.43a.78.78,0,0,1,.62.15.71.71,0,0,1,.27.57c0,2.23,13.55,8.62,30.84,14.55a.74.74,0,0,1,.49.82,16.54,16.54,0,0,1-.42,1.76c-.12.43-.25.91-.41,1.66a.76.76,0,0,1-.37.49l-.65.36c-2.49,1.36-4.45,2.43-6.72,7.47a.69.69,0,0,1-.42.38c-11.22,4.13-12.81,9.32-14.46,17.46a.77.77,0,0,1-.43.53A.72.72,0,0,1,94.13,177.06ZM74.74,164.23c5.72,0,11.73,5,16,8.54,1.09.91,2.08,1.72,2.9,2.33,1.7-8,3.91-13.25,14.89-17.36,2.42-5.24,4.65-6.46,7.23-7.87l.35-.2c.14-.61.26-1,.37-1.42s.17-.63.26-1c-7.61-2.63-28.48-10.19-31-14.86-9.81,2.39-24.35,10.78-26.79,25,7.51-1.58,10,2.75,12.38,7.53A8.79,8.79,0,0,1,74.74,164.23Z" style="fill:#163150"/><path d="M108.62,158.91c-.23-.17-22.37-18.11-23.36-27.31l1.46-.16c.83,7.77,20.2,24.35,22.78,26.3Z" style="fill:#163150"/><path d="M93.44,176.7c-2.64-4.45-11.43-29-8.2-45.33l1.45.29c-3.32,16.73,6.14,41.14,8,44.29Z" style="fill:#163150"/><path d="M70.27,165.93c-1.4-12.64,9.4-31.24,15.3-35l.79,1.24c-5.5,3.53-16,21.71-14.63,33.63Z" style="fill:#163150"/><path d="M89.66,170.34q-9.91-21.26-6.61-32.77c-5.33,7.67-9.48,18.27-9.48,23.28Q80.14,160.7,89.66,170.34Z" style="fill:#d6a758;fill-rule:evenodd"/><path d="M69.58,159.17c1.84-10.57,5.89-19.83,9.56-23.26-7.85,5.4-13.09,7-18.7,19.4C65.36,154.93,66.8,155.88,69.58,159.17Z" style="fill:#d6a758;fill-rule:evenodd"/><path d="M105.22,157.67c-2.5,0-9.13,1.5-11.62,12.67-2.54-6-7.49-24.24-6.52-32.17C89.13,141.55,96.1,151.73,105.22,157.67Z" style="fill:#d6a758;fill-rule:evenodd"/><path d="M114.81,148.68c-1.72,0-5.2,3.48-6.15,6.68a193.12,193.12,0,0,1-19-18.78Q109.12,146.53,114.81,148.68Z" style="fill:#d6a758;fill-rule:evenodd"/></g><g id="Path-248"><path d="M99,125.36c5.07,1.49,27,6.17,32,6.16s23.26-4,31.48-6.16c-4.7,3.22-23.6,7.63-31,7.63S100.35,127.89,99,125.36Z" style="fill:#028254;fill-rule:evenodd"/></g><path d="M130.46,134.46c-4.74,0-13.74-1.88-26.76-5.59a11.29,11.29,0,0,1-8.16-10.81V94.82a11.26,11.26,0,0,1,9.07-11c12.45-2.45,21.26-3.69,26.19-3.69s13.73,1.24,26.18,3.69a11.26,11.26,0,0,1,9.07,11V118a11.27,11.27,0,0,1-8.22,10.83C144.43,132.56,135.22,134.46,130.46,134.46Zm.34-52.89c-4.84,0-13.55,1.23-25.91,3.66h0A9.79,9.79,0,0,0,97,94.82v23.24a9.8,9.8,0,0,0,7.09,9.39C117,131.12,125.86,133,130.46,133s13.71-1.88,27-5.58a9.79,9.79,0,0,0,7.14-9.41V94.82a9.79,9.79,0,0,0-7.88-9.59C144.34,82.8,135.63,81.57,130.8,81.57Z" style="fill:#163150"/><g id="Path-242"><path d="M161.37,179.9c13.27,0,55,18.3,61.73-16S197,129.06,193.6,127.21s23.23-2.55,39.25,13.12,9.59,50.13-9.75,62q-19.33,11.89-61.44,7.53Q148.1,179.91,161.37,179.9Z" style="fill:#01a46a;fill-rule:evenodd"/><path d="M182.46,211.79a202.14,202.14,0,0,1-20.88-1.17l-.42,0-.17-.38c-6.61-14.63-8.46-23.86-5.65-28.22,1.21-1.87,3.24-2.82,6-2.82,2.94,0,7.17.87,12.07,1.86,12.13,2.47,28.75,5.85,39.31-1.2,4.95-3.3,8.19-8.72,9.63-16.09,5.56-28.43-16.28-33-25.6-34.93a16.43,16.43,0,0,1-3.53-.94,1.06,1.06,0,0,1-.68-1,1.08,1.08,0,0,1,.82-.92c3.13-1.2,25.72,0,40,13.89,7.09,6.93,10.37,18,9,30.32-1.58,14.08-8.8,26.67-18.86,32.86C214,208.84,200.22,211.79,182.46,211.79Zm-20.31-2.58c27.57,2.81,47.94.29,60.57-7.48,9.68-5.95,16.64-18.12,18.17-31.76,1.33-11.89-1.79-22.5-8.55-29.11-12.47-12.2-31.27-14.34-37-13.87.5.12,1.08.24,1.69.37,8.91,1.86,32.58,6.8,26.74,36.65-1.52,7.77-5,13.5-10.25,17-11.07,7.39-28,3.94-40.43,1.42-4.82-1-9-1.83-11.77-1.83-2.3,0-3.86.7-4.79,2.14C154.11,186.59,156,195.48,162.15,209.21Z" style="fill:#163150"/></g><path d="M194.79,126.38c8.32.65,25.19,3.84,34.62,11.88,13.6,11.6,10.42,39.7-9.75,54.27q-20.17,14.57-61.45,6.59c-.64-1.24-1.23-2.44-1.79-3.59q-4.39-15.65,5.18-15.65c13.27,0,55,18.3,61.73-16s-26.08-34.81-29.5-36.66C193.19,126.85,193.6,126.54,194.79,126.38Z" style="fill:#028254;fill-rule:evenodd"/><path d="M182.46,211.79a202.14,202.14,0,0,1-20.88-1.17l-.42,0-.17-.38c-6.61-14.63-8.46-23.86-5.65-28.22,1.21-1.87,3.24-2.82,6-2.82,2.94,0,7.17.87,12.07,1.86,12.13,2.47,28.75,5.85,39.31-1.2,4.95-3.3,8.19-8.72,9.63-16.09,5.56-28.43-16.28-33-25.6-34.93a16.43,16.43,0,0,1-3.53-.94,1.06,1.06,0,0,1-.68-1,1.08,1.08,0,0,1,.82-.92c3.13-1.2,25.72,0,40,13.89,7.09,6.93,10.37,18,9,30.32-1.58,14.08-8.8,26.67-18.86,32.86C214,208.84,200.22,211.79,182.46,211.79Zm-20.31-2.58c27.57,2.81,47.94.29,60.57-7.48,9.68-5.95,16.64-18.12,18.17-31.76,1.33-11.89-1.79-22.5-8.55-29.11-12.47-12.2-31.27-14.34-37-13.87.5.12,1.08.24,1.69.37,8.91,1.86,32.58,6.8,26.74,36.65-1.52,7.77-5,13.5-10.25,17-11.07,7.39-28,3.94-40.43,1.42-4.82-1-9-1.83-11.77-1.83-2.3,0-3.86.7-4.79,2.14C154.11,186.59,156,195.48,162.15,209.21Z" style="fill:#163150"/><g id="Path-270"><path d="M166.84,183.16a37.8,37.8,0,0,1,4.84-2.84.73.73,0,0,1,1,.25l2.92,4.57Q166.11,183.82,166.84,183.16Z" style="fill:#ffd166;fill-rule:evenodd"/><path d="M175.56,185.87h-.1c-9-1.26-9.19-1.77-9.37-2.37a1,1,0,0,1,.26-.89h0a31.46,31.46,0,0,1,5-2.94,1.48,1.48,0,0,1,1.93.5l2.92,4.57a.73.73,0,0,1,0,.79A.71.71,0,0,1,175.56,185.87Zm-7.37-2.75c.87.22,2.56.57,5.89,1.06L172,181C170,182,168.87,182.7,168.19,183.12Z" style="fill:#163150"/></g><g id="Path-270-Copy"><path d="M181.15,188.08a36.09,36.09,0,0,1,4.08-4.07.74.74,0,0,1,1,.05l0,0,3.84,4.56C183.76,188.86,180.76,188.67,181.15,188.08Z" style="fill:#ffd166;fill-rule:evenodd"/><path d="M185.69,189.46c-4.72,0-5-.43-5.2-.85a1.08,1.08,0,0,1,0-.93h0c.25-.38,1-1.23,4.2-4.21a1.49,1.49,0,0,1,2.08.09l3.88,4.61a.72.72,0,0,1,.11.77.71.71,0,0,1-.64.43C188.34,189.44,186.87,189.46,185.69,189.46Zm-3.93-1Zm.53-.63a48.36,48.36,0,0,0,6.3.09l-2.87-3.39C183.83,186.3,182.82,187.29,182.29,187.86Z" style="fill:#163150"/></g><g id="Path-270-Copy-2"><path d="M198.28,188.38a34.79,34.79,0,0,1,3.06-4.52.74.74,0,0,1,1-.15l0,0,4,3.35Q197.89,189.33,198.28,188.38Z" style="fill:#ffd166;fill-rule:evenodd"/><path d="M198.79,189.4c-.72,0-.89-.18-1-.37a1,1,0,0,1-.14-.92h0a28.76,28.76,0,0,1,3.15-4.69,1.48,1.48,0,0,1,2.06-.3l4.11,3.39a.75.75,0,0,1,.25.73.72.72,0,0,1-.53.55C201.91,189,199.8,189.4,198.79,189.4Zm3.14-5.1c-1.39,1.87-2.14,3-2.54,3.6a47.32,47.32,0,0,0,5.48-1.17Z" style="fill:#163150"/></g><g id="Path-270-Copy-3"><path d="M213.94,184.05a33.68,33.68,0,0,1-.61-5.39.74.74,0,0,1,.68-.79h0l5.22-.08Q214.26,185,213.94,184.05Z" style="fill:#ffd166;fill-rule:evenodd"/><path d="M214.15,184.91l-.2,0a1.06,1.06,0,0,1-.71-.61h0a28.06,28.06,0,0,1-.64-5.57,1.47,1.47,0,0,1,1.36-1.57l5.3-.08a.73.73,0,0,1,.61,1.15C215.65,184.31,214.71,184.91,214.15,184.91Zm3.69-6.36-3.78.06c.16,2.29.3,3.6.41,4.35A48.69,48.69,0,0,0,217.84,178.55Z" style="fill:#163150"/></g><g id="Path-270-Copy-4"><path d="M223,171.88a27.11,27.11,0,0,1-2.26-3.48.73.73,0,0,1,.22-1l3.1-2.11C223.74,170.05,223.38,172.24,223,171.88Z" style="fill:#ffd166;fill-rule:evenodd"/><path d="M223.14,172.64a1,1,0,0,1-.64-.25,22,22,0,0,1-2.37-3.62,1.46,1.46,0,0,1,.43-2l3.11-2.11a.73.73,0,0,1,1.14.66c-.5,6.9-.89,7-1.43,7.24A.61.61,0,0,1,223.14,172.64Zm.09-5.87L221.39,168c.66,1.11,1.12,1.86,1.45,2.36C222.94,169.69,223.08,168.58,223.23,166.77Z" style="fill:#163150"/></g><g id="Path-270-Copy-5"><path d="M225.13,160.47a25.7,25.7,0,0,1-2.93-2.93.73.73,0,0,1,0-1l2.6-2.71C225.46,158.54,225.57,160.76,225.13,160.47Z" style="fill:#ffd166;fill-rule:evenodd"/><path d="M225.21,161.21a.92.92,0,0,1-.48-.12h0a23.64,23.64,0,0,1-3.07-3.05,1.47,1.47,0,0,1,0-2l2.6-2.71a.72.72,0,0,1,.75-.19.71.71,0,0,1,.5.6c.95,6.84.6,7.07.11,7.38A.85.85,0,0,1,225.21,161.21Zm-.93-5.77-1.54,1.6c.87,1,1.48,1.58,1.9,2C224.61,158.35,224.51,157.24,224.28,155.44Z" style="fill:#163150"/></g><g id="Path-270-Copy-6"><path d="M224.28,148.28a22.42,22.42,0,0,1-3.46-1.31.73.73,0,0,1-.39-1l0,0L222,142.8Q225,148.39,224.28,148.28Z" style="fill:#ffd166;fill-rule:evenodd"/><path d="M224.26,149h-.1a18.24,18.24,0,0,1-3.63-1.35,1.49,1.49,0,0,1-.79-.81,1.45,1.45,0,0,1,0-1.12l1.56-3.24a.72.72,0,0,1,.65-.41h0a.75.75,0,0,1,.65.38c2.92,5.42,2.67,5.77,2.35,6.22A1,1,0,0,1,224.26,149ZM222,144.43l-.91,1.87c1,.45,1.77.74,2.27.93C223.14,146.68,222.73,145.8,222,144.43Z" style="fill:#163150"/></g><g id="Path-270-Copy-7"><path d="M218.92,137.52a15.52,15.52,0,0,1-2.67.31.74.74,0,0,1-.78-.68.86.86,0,0,1,0-.16l.4-2.76C218.29,136.29,219.31,137.39,218.92,137.52Z" style="fill:#ffd166;fill-rule:evenodd"/><path d="M216.2,138.57a1.48,1.48,0,0,1-1-.36,1.47,1.47,0,0,1-.5-1c0-.06,0-.27,0-.32l.4-2.76a.74.74,0,0,1,1.21-.45c3.3,2.82,3.47,3.36,3.36,3.91a1,1,0,0,1-.57.64h0a13.13,13.13,0,0,1-2.84.34Zm.21-2.9-.21,1.43c.71,0,1.22-.1,1.58-.14C217.5,136.67,217.07,136.26,216.41,135.67Z" style="fill:#163150"/></g><g id="Path-270-Copy-8"><path d="M208.71,131.35a15.69,15.69,0,0,1-2.26,1.45.73.73,0,0,1-1-.27.42.42,0,0,1-.06-.14l-.86-2.67C207.61,130.52,209,131.07,208.71,131.35Z" style="fill:#ffd166;fill-rule:evenodd"/><path d="M206.09,133.63a1.47,1.47,0,0,1-1.28-.73c0-.05-.11-.24-.12-.29l-.86-2.66a.75.75,0,0,1,.17-.73.77.77,0,0,1,.72-.21c4.2,1.1,4.59,1.5,4.74,2.05a1,1,0,0,1-.24.82,13.78,13.78,0,0,1-2.4,1.56A1.47,1.47,0,0,1,206.09,133.63Zm-.44-2.84.44,1.37c.61-.35,1-.61,1.36-.81C207.07,131.21,206.5,131,205.65,130.79Z" style="fill:#163150"/></g><g id="Path-270-Copy-9"><path d="M199.89,130a13.26,13.26,0,0,1-1.74,1.2.73.73,0,0,1-1-.23.71.71,0,0,1-.08-.18l-.64-2.2C199,129.24,200.14,129.71,199.89,130Z" style="fill:#ffd166;fill-rule:evenodd"/><path d="M197.77,132a1.27,1.27,0,0,1-.34,0,1.45,1.45,0,0,1-.91-.65,1.56,1.56,0,0,1-.17-.37l-.64-2.19a.76.76,0,0,1,.18-.72.77.77,0,0,1,.72-.2c3.54.95,3.88,1.32,4,1.82a.94.94,0,0,1-.21.81h0a10.81,10.81,0,0,1-1.88,1.32A1.41,1.41,0,0,1,197.77,132Zm-.28-2.39.27.92.87-.56C198.36,129.89,198,129.77,197.49,129.62Z" style="fill:#163150"/></g><g id="Path-249"><path d="M119,132.05c0,6.37-1,17-8.19,30.33s-46.2,59,20,59,22.24-48.12,18.55-59S141.14,135,143,132.05c-2.89.5-9.62,1.78-12.19,1.78S123.72,133,119,132.05Z" style="fill:#009a63;fill-rule:evenodd"/><path d="M130.8,222.08c-19.84,0-32.18-4.19-36.67-12.44-6.62-12.13,5.11-30.32,12.11-41.19,1.65-2.55,3.07-4.76,4-6.42,5.45-10.1,8.1-19.91,8.1-30a.73.73,0,0,1,.88-.72c4.26.85,9,1.77,11.61,1.77a91.25,91.25,0,0,0,10.62-1.52l1.44-.26a.78.78,0,0,1,.74.32.75.75,0,0,1,0,.8c-1.47,2.35,2.19,17.24,6.44,29.7.62,1.83,2.55,5,4.79,8.57,6.91,11.16,17.34,28,10.94,39.53C161.4,218.09,149.63,222.08,130.8,222.08Zm-11-89.14c-.15,10-2.86,19.77-8.27,29.79-.93,1.71-2.36,3.94-4,6.51-6.83,10.6-18.26,28.34-12.06,39.7,4.22,7.74,16.12,11.67,35.38,11.67,18.26,0,29.6-3.73,33.7-11.09,6-10.74-4.18-27.17-10.91-38-2.38-3.84-4.26-6.88-4.93-8.87-.09-.24-7.74-22.82-6.72-29.63l-.26.05a90.62,90.62,0,0,1-10.88,1.54A69.2,69.2,0,0,1,119.77,132.94Z" style="fill:#163150"/></g><g id="Path-268"><path d="M119.77,133a75.69,75.69,0,0,1-.71,8.1c2.35-1.44,6.07-5.2,11.74-5.2,3.77,0,7.6,1.73,11.46,5.2a45.06,45.06,0,0,1-.42-8.1c-4.72.65-8,1.56-11.14,1.56A66.22,66.22,0,0,1,119.77,133Z" style="fill:#028254;fill-rule:evenodd"/></g><g id="Path-267"><path d="M158.71,186.28c7.9-4.1,15.73-3.55,18.5,1.55q2.76,5.08-6.75,23.32" style="fill:#009a63;fill-rule:evenodd"/><path d="M170.46,211.88a.68.68,0,0,1-.34-.08.73.73,0,0,1-.31-1c7.71-14.78,7.93-20.46,6.75-22.63-2.54-4.68-9.9-5.2-17.51-1.25a.73.73,0,1,1-.68-1.3c8.35-4.34,16.55-3.56,19.48,1.85,2,3.66-.21,11.51-6.74,24A.73.73,0,0,1,170.46,211.88Z" style="fill:#163150"/></g><path d="M169.67,211q8-16.14,5.21-21.12c-2.66-4.77-9.41-6-16.88-3.56l0-.07c7.9-4.1,15.74-3.55,18.5,1.55q2.78,5.08-6.75,23.32Z" style="fill:#006a41;fill-rule:evenodd"/><path d="M170.46,211.88a.68.68,0,0,1-.34-.08.73.73,0,0,1-.31-1c7.71-14.78,7.93-20.46,6.75-22.63-2.54-4.68-9.9-5.2-17.51-1.25a.73.73,0,1,1-.68-1.3c8.35-4.34,16.55-3.56,19.48,1.85,2,3.66-.21,11.51-6.74,24A.73.73,0,0,1,170.46,211.88Z" style="fill:#163150"/><g id="Path-267-Copy"><path d="M100.71,186.28c-7.9-4.1-15.74-3.55-18.5,1.55q-2.77,5.08,6.75,23.32" style="fill:#009a63;fill-rule:evenodd"/><path d="M89,211.88a.72.72,0,0,1-.65-.39c-6.53-12.5-8.74-20.35-6.75-24,2.94-5.41,11.13-6.19,19.49-1.85a.73.73,0,0,1-.68,1.3c-7.61-4-15-3.42-17.52,1.25-1.18,2.17-1,7.85,6.76,22.63a.73.73,0,0,1-.31,1A.71.71,0,0,1,89,211.88Z" style="fill:#163150"/></g><g id="Combined-Shape-Copy-5"><path d="M89.75,211.14Q81.74,195,84.53,190c2.67-4.77,9.42-6,16.88-3.57l0-.06c-7.9-4.1-15.73-3.55-18.5,1.55q-2.76,5.09,6.75,23.32Z" style="fill:#006a41;fill-rule:evenodd"/></g><path d="M89,211.88a.72.72,0,0,1-.65-.39c-6.53-12.5-8.74-20.35-6.75-24,2.94-5.41,11.13-6.19,19.49-1.85a.73.73,0,0,1-.68,1.3c-7.61-4-15-3.42-17.52,1.25-1.18,2.17-1,7.85,6.76,22.63a.73.73,0,0,1-.31,1A.71.71,0,0,1,89,211.88Z" style="fill:#163150"/><g id="Path-249-Copy"><path d="M115,165.15c-5.74,10.75-36.83,47.54,15.9,47.54s16.83-38.8,13.88-47.54-9.55-27.6-13.88-27.58C127.17,137.59,120.74,154.4,115,165.15Z" style="fill:#ffd166;fill-rule:evenodd"/><path d="M130.9,213.42c-15.81,0-25.67-3.37-29.32-10-5.4-9.85,4-24.61,9.62-33.43,1.31-2.05,2.44-3.83,3.15-5.16h0c1.68-3.14,3.44-6.85,5.13-10.43,5.16-10.87,8.47-17.53,11.42-17.55h0c2.2,0,6.1,2.94,14.57,28.09a46.33,46.33,0,0,0,4,7.07c5.67,9,14.24,22.73,9.11,32C155.09,210.34,146,213.42,130.9,213.42ZM115.65,165.5c-.74,1.39-1.89,3.18-3.21,5.26-5.44,8.55-14.56,22.85-9.57,31.94,3.37,6.14,12.8,9.25,28,9.25,14.35,0,23.23-2.92,26.42-8.67,4.71-8.52-3.59-21.75-9.08-30.5a45.54,45.54,0,0,1-4.15-7.39c-7.94-23.56-11.66-27.09-13.18-27.09h0c-2.17,0-6.56,9.27-10.09,16.71-1.7,3.6-3.47,7.32-5.16,10.49Z" style="fill:#163150"/></g><g style="opacity:.6359049677848816;isolation:isolate"><path d="M127.75,140.33c-3.55,5.58-8,16.22-12,23.83-5.74,10.75-36.83,47.53,15.89,47.53,9.81,0,16.55-1.34,21-3.58a79.72,79.72,0,0,1-11.68.76c-52.73,0-30.05-30.66-24.49-43.74C119.37,158.32,123.72,148.34,127.75,140.33Z" style="fill:#fbb444;fill-rule:evenodd"/></g><g id="Group-113"><g id="Path-259"><path d="M131.07,149.16a21.52,21.52,0,0,1-7.67-1.2l.36-.84c3.52,1.51,11.41,1.53,13.63,0l.51.76C136.66,148.75,134,149.16,131.07,149.16Z" style="fill:#fbb444"/></g><g id="Path-260"><path d="M130.41,158.58a29.25,29.25,0,0,1-11.06-1.94l.42-.82c1.46.75,11,3.78,21.35,0l.31.86A31.93,31.93,0,0,1,130.41,158.58Z" style="fill:#fbb444"/></g><g id="Path-261"><path d="M130.53,167c-7.49,0-13.62-2-14.69-2.76l.52-.76c1.62,1.1,15.48,5.34,27.47,0l.38.84A33.49,33.49,0,0,1,130.53,167Z" style="fill:#fbb444"/></g><g id="Path-262"><path d="M130.73,175.39c-9.89,0-18.44-2.62-19.84-3.76l.58-.72c1.54,1.26,21.5,7.47,36.82,0l.4.82A41,41,0,0,1,130.73,175.39Z" style="fill:#fbb444"/></g><g id="Path-263"><path d="M129.06,184.9c-11.69,0-21.34-2.82-22.82-4.72l.73-.56c1.93,2.47,25.58,8.67,45.38-.14l.37.84A58.9,58.9,0,0,1,129.06,184.9Z" style="fill:#fbb444"/></g><g id="Path-264"><path d="M130.57,195.26a62.61,62.61,0,0,1-28.55-7l.43-.81c2.83,1.53,28.42,14.53,54.91,0l.44.8A56,56,0,0,1,130.57,195.26Z" style="fill:#fbb444"/></g><g id="Path-265"><path d="M129.34,204.93c-8.48,0-16.87-1.2-20.58-4.33l.6-.7c6.79,5.74,31.2,4.6,39.84,1.63l.3.87C145.15,203.89,137.21,204.93,129.34,204.93Z" style="fill:#fbb444"/></g></g><path d="M130.9,213.42c-15.81,0-25.67-3.37-29.32-10-5.4-9.85,4-24.61,9.62-33.43,1.31-2.05,2.44-3.83,3.15-5.16h0c1.68-3.14,3.44-6.85,5.13-10.43,5.16-10.87,8.47-17.53,11.42-17.55h0c2.2,0,6.1,2.94,14.57,28.09a46.33,46.33,0,0,0,4,7.07c5.67,9,14.24,22.73,9.11,32C155.09,210.34,146,213.42,130.9,213.42ZM115.65,165.5c-.74,1.39-1.89,3.18-3.21,5.26-5.44,8.55-14.56,22.85-9.57,31.94,3.37,6.14,12.8,9.25,28,9.25,14.35,0,23.23-2.92,26.42-8.67,4.71-8.52-3.59-21.75-9.08-30.5a45.54,45.54,0,0,1-4.15-7.39c-7.94-23.56-11.66-27.09-13.18-27.09h0c-2.17,0-6.56,9.27-10.09,16.71-1.7,3.6-3.47,7.32-5.16,10.49Z" style="fill:#163150"/><g id="Group-116"><g id="Group-118"><g id="Group-114"><g id="Oval-Copy-56"><path d="M143.05,226.79c-4.24-3.16-1.67-12.18,5-21.84s13.23-17.83,22.57-9.62,4,14.26-4.58,22.3S147.29,229.94,143.05,226.79Z" style="fill:#028254;fill-rule:evenodd"/><path d="M146.72,228.55a6.8,6.8,0,0,1-4.11-1.17c-4.39-3.27-2.49-12.24,4.85-22.85,4.56-6.59,9.11-12.56,14.65-13.24,3-.37,5.91.77,9,3.48,3.43,3,5.12,5.93,5.17,8.91.08,4.89-4.36,9.45-9.74,14.48C159.57,224.7,151.94,228.55,146.72,228.55Zm16.46-35.86a8.85,8.85,0,0,0-.89.05c-4.94.61-9.26,6.32-13.62,12.62-6.75,9.75-8.83,18.13-5.18,20.84h0c3.79,2.82,13.68-1.27,22.06-9.11,5.11-4.78,9.34-9.1,9.27-13.39,0-2.54-1.57-5.1-4.67-7.82C167.71,193.74,165.42,192.69,163.18,192.69Z" style="fill:#163150"/></g><path d="M141.81,225c5.44,2.08,16-2.75,25.08-11.22,3.62-3.4,6.75-6.48,8.71-9.49-.42,4.23-4.37,8.3-9.47,13.07-8.58,8-18.75,12.32-23,9.16A4.7,4.7,0,0,1,141.81,225Z" style="fill:#036844;fill-rule:evenodd"/><path d="M146.72,228.55a6.8,6.8,0,0,1-4.11-1.17c-4.39-3.27-2.49-12.24,4.85-22.85,4.56-6.59,9.11-12.56,14.65-13.24,3-.37,5.91.77,9,3.48,3.43,3,5.12,5.93,5.17,8.91.08,4.89-4.36,9.45-9.74,14.48C159.57,224.7,151.94,228.55,146.72,228.55Zm16.46-35.86a8.85,8.85,0,0,0-.89.05c-4.94.61-9.26,6.32-13.62,12.62-6.75,9.75-8.83,18.13-5.18,20.84h0c3.79,2.82,13.68-1.27,22.06-9.11,5.11-4.78,9.34-9.1,9.27-13.39,0-2.54-1.57-5.1-4.67-7.82C167.71,193.74,165.42,192.69,163.18,192.69Z" style="fill:#163150"/></g><g id="Group-115"><g id="Path-266"><path d="M163.12,192q0-1.95,5-3.14,1.77,3.69,0,4.41A10.58,10.58,0,0,0,163.12,192Z" style="fill:#ae723b;fill-rule:evenodd"/><path d="M168.11,194a.72.72,0,0,1-.29-.06l-.42-.17a8.62,8.62,0,0,0-4.27-1,.78.78,0,0,1-.53-.21.75.75,0,0,1-.22-.53c0-1.71,1.82-3,5.56-3.86a.75.75,0,0,1,.83.4c.9,1.89,1.16,3.27.79,4.23a2.08,2.08,0,0,1-1.18,1.18A.65.65,0,0,1,168.11,194Zm-3.92-2.7a11.2,11.2,0,0,1,3.79,1.11l.08,0a.5.5,0,0,0,.13-.21c.11-.28.17-1-.5-2.52A8.11,8.11,0,0,0,164.19,191.25Z" style="fill:#163150"/></g><g id="Path-266-Copy"><path d="M169.34,193.72q.78-2.07,5.34-1.75.48,4.92-1.6,5.06C171.65,195.67,171.36,194.76,169.34,193.72Z" style="fill:#ae723b;fill-rule:evenodd"/><path d="M173.08,197.77a.75.75,0,0,1-.5-.2,15.24,15.24,0,0,1-1.15-1.23,6.92,6.92,0,0,0-2.43-2,.75.75,0,0,1-.35-.92c.66-1.71,2.7-2.45,6.08-2.22a.76.76,0,0,1,.68.66c.25,2.54,0,4.21-.76,5.1a2.17,2.17,0,0,1-1.52.77Zm-2.7-4.31a8.62,8.62,0,0,1,2.15,1.92c.23.26.48.54.78.85a.87.87,0,0,0,.22-.17c.25-.3.62-1.12.47-3.39C172.6,192.64,171.11,192.77,170.38,193.46Z" style="fill:#163150"/></g><g id="Path-266-Copy-2"><path d="M173.69,197.58q.78-2.07,4.71-.55-.84,3.91-2.36,5.22c-.07.05-.16,0-.24,0A47.14,47.14,0,0,1,173.69,197.58Z" style="fill:#ae723b;fill-rule:evenodd"/><path d="M175.78,203a.71.71,0,0,1-.64-.42l-.58-1.22a32.39,32.39,0,0,1-1.56-3.55.75.75,0,0,1,0-.51,2.4,2.4,0,0,1,1.31-1.41c1-.45,2.43-.31,4.35.44a.72.72,0,0,1,.45.84c-.6,2.79-1.45,4.63-2.59,5.62a1.17,1.17,0,0,1-.69.21Zm-1.3-5.4c.39,1,.71,1.69,1.4,3.12l.19.4a10.4,10.4,0,0,0,1.47-3.64,3.91,3.91,0,0,0-2.64-.25A.94.94,0,0,0,174.48,197.62Z" style="fill:#163150"/></g></g></g><g id="Group-118-Copy"><path d="M117.07,226.79c4.24-3.16,1.68-12.18-5-21.84s-13.22-17.83-22.57-9.62-4,14.26,4.58,22.3S112.83,229.94,117.07,226.79Z" style="fill:#028254;fill-rule:evenodd"/><path d="M113.4,228.55c-5.22,0-12.85-3.85-19.83-10.39-5.37-5-9.81-9.59-9.73-14.48,0-3,1.74-5.89,5.17-8.91,3.09-2.71,6-3.85,9-3.48,5.55.68,10.1,6.65,14.65,13.24,7.34,10.61,9.24,19.58,4.85,22.85A6.8,6.8,0,0,1,113.4,228.55ZM97,192.69c-2.25,0-4.53,1.05-7,3.19-3.11,2.72-4.63,5.28-4.68,7.82-.06,4.3,4.16,8.61,9.27,13.39,8.38,7.84,18.27,11.93,22.06,9.11h0c3.65-2.71,1.57-11.09-5.17-20.84-4.36-6.3-8.69-12-13.63-12.62A8.65,8.65,0,0,0,97,192.69Z" style="fill:#163150"/><g id="Oval-Copy-57"><path d="M113.89,222.85c2.21-2.94-2.78-11.56-7.28-16.47s-8.77-7.07-12.22-4.22S93,210.08,97.52,215,111.69,225.79,113.89,222.85Z" style="fill:#01a46a;fill-rule:evenodd"/></g><g id="Oval-Copy-58"><path d="M145.29,222.85c-2.21-2.94,2.78-11.56,7.29-16.47s8.76-7.07,12.22-4.22,1.37,7.92-3.14,12.84S147.5,225.79,145.29,222.85Z" style="fill:#01a46a;fill-rule:evenodd"/></g><path d="M97,192c0-1.3-1.67-2.35-5-3.14q-1.77,3.69,0,4.41A10.52,10.52,0,0,1,97,192Z" style="fill:#ae723b;fill-rule:evenodd"/><path d="M92,194a.66.66,0,0,1-.28,0,2.08,2.08,0,0,1-1.18-1.18c-.37-1-.11-2.34.8-4.23a.75.75,0,0,1,.83-.4c3.74.89,5.55,2.15,5.55,3.86a.75.75,0,0,1-.22.53.83.83,0,0,1-.53.21,9,9,0,0,0-4.27,1l-.41.17A.75.75,0,0,1,92,194Zm.41-4.28c-.67,1.55-.61,2.24-.5,2.52a.64.64,0,0,0,.14.21l.07,0a11.27,11.27,0,0,1,3.79-1.11A8,8,0,0,0,92.43,189.67Z" style="fill:#163150"/><path d="M90.79,193.72q-.8-2.07-5.34-1.75Q85,196.89,87,197C88.47,195.67,88.76,194.76,90.79,193.72Z" style="fill:#ae723b;fill-rule:evenodd"/><path d="M87,197.77H87a2.22,2.22,0,0,1-1.52-.76c-.77-.91-1-2.53-.75-5.11a.74.74,0,0,1,.68-.66c3.37-.24,5.42.51,6.07,2.22a.74.74,0,0,1-.35.92,6.88,6.88,0,0,0-2.42,2c-.33.38-.68.78-1.15,1.23A.79.79,0,0,1,87,197.77Zm-.91-5.1c-.15,2.27.22,3.09.47,3.39a.68.68,0,0,0,.21.17c.3-.31.55-.59.78-.85a8.68,8.68,0,0,1,2.16-1.92C89,192.77,87.52,192.64,86.13,192.67Z" style="fill:#163150"/><path d="M86.44,197.58q-.8-2.07-4.71-.55.84,3.91,2.35,5.22c.07.05.16,0,.24,0A50.3,50.3,0,0,0,86.44,197.58Z" style="fill:#ae723b;fill-rule:evenodd"/><path d="M84.18,203a.87.87,0,0,1-.57-.21c-1.15-1-2-2.83-2.6-5.62a.72.72,0,0,1,.45-.84c1.92-.75,3.35-.89,4.36-.44a2.42,2.42,0,0,1,1.3,1.41.69.69,0,0,1,0,.51,36.16,36.16,0,0,1-1.57,3.57L85,202.6a.79.79,0,0,1-.71.41Zm-1.59-5.52a10.3,10.3,0,0,0,1.46,3.64l.18-.38a34,34,0,0,0,1.41-3.14.89.89,0,0,0-.42-.37A3.82,3.82,0,0,0,82.59,197.5Z" style="fill:#163150"/></g></g><path d="M118.31,225c-5.44,2.08-16-2.75-25.08-11.22-3.63-3.4-6.75-6.48-8.71-9.49.42,4.23,4.37,8.3,9.47,13.07,8.58,8,18.75,12.32,23,9.16A4.62,4.62,0,0,0,118.31,225Z" style="fill:#036844;fill-rule:evenodd"/><path d="M113.4,228.55c-5.22,0-12.85-3.85-19.83-10.39-5.37-5-9.81-9.59-9.73-14.48,0-3,1.74-5.89,5.17-8.91,3.09-2.71,6-3.85,9-3.48,5.55.68,10.1,6.65,14.65,13.24,7.34,10.61,9.24,19.58,4.85,22.85A6.8,6.8,0,0,1,113.4,228.55ZM97,192.69c-2.25,0-4.53,1.05-7,3.19-3.11,2.72-4.63,5.28-4.68,7.82-.06,4.3,4.16,8.61,9.27,13.39,8.38,7.84,18.27,11.93,22.06,9.11h0c3.65-2.71,1.57-11.09-5.17-20.84-4.36-6.3-8.69-12-13.63-12.62A8.65,8.65,0,0,0,97,192.69Z" style="fill:#163150"/><g id="Group-119"><g id="Path-269"><path d="M142.55,149.88c11.55,1.79,17.32,14.57,16.87,19.62a5.56,5.56,0,0,1-4.51,2.41,4.7,4.7,0,0,1-3.87-2.18c-.79-7.47-5.27-10.64-6.95-10.64" style="fill:#009d5e;fill-rule:evenodd"/><path d="M154.79,172.65a5.49,5.49,0,0,1-4.38-2.54l-.1-.3c-.78-7.38-5.17-10-6.22-10a.74.74,0,0,1,0-1.47c2.31,0,6.81,3.72,7.66,11.13a4,4,0,0,0,3.12,1.7,4.8,4.8,0,0,0,3.83-2c.27-5-5.41-16.94-16.26-18.62a.75.75,0,0,1-.62-.84.77.77,0,0,1,.84-.62c12.37,1.92,17.94,15.35,17.49,20.41l0,.2-.12.17a6.33,6.33,0,0,1-5.07,2.72Zm4.63-3.15h0Z" style="fill:#163150"/></g><path d="M159.77,169.3c.39.39.12,1.29-.83,2.7-1.14-.31-1.58-.75-1.31-1.31A6,6,0,0,0,159.77,169.3Z" style="fill:#ae723b;fill-rule:evenodd"/><path d="M158.94,172.73l-.19,0c-1-.28-1.58-.65-1.82-1.18a1.37,1.37,0,0,1,0-1.17.77.77,0,0,1,.35-.34l.19-.09a4.9,4.9,0,0,0,1.74-1.14c.13-.14.32-.32.52-.23a.71.71,0,0,1,.52.22c.9.89.08,2.41-.74,3.63A.72.72,0,0,1,158.94,172.73Zm-.41-1.65.1,0,.08-.13Z" style="fill:#163150"/><path d="M157,170.84c.22.64-.28,1.5-1.51,2.61-1.16-.91-1.48-1.64-1-2.2A7,7,0,0,0,157,170.84Z" style="fill:#ae723b;fill-rule:evenodd"/><path d="M155.49,174.18A.74.74,0,0,1,155,174a3.18,3.18,0,0,1-1.47-2.07,1.52,1.52,0,0,1,.41-1.19.74.74,0,0,1,.45-.24c.34,0,.61-.05.86-.06a3.56,3.56,0,0,0,1.44-.3.75.75,0,0,1,.57,0,.72.72,0,0,1,.4.42c.45,1.27-.76,2.55-1.71,3.4A.72.72,0,0,1,155.49,174.18Zm-.41-2.24a1.53,1.53,0,0,0,.38.51,5.59,5.59,0,0,0,.51-.57c-.22,0-.43,0-.63.05Z" style="fill:#163150"/><path d="M154.11,171.31c.23.63-.32,1.3-1.64,2a4,4,0,0,1-.73-2.54s.06-.07.08-.1A19.25,19.25,0,0,1,154.11,171.31Z" style="fill:#ae723b;fill-rule:evenodd"/><path d="M152.47,174a.74.74,0,0,1-.64-.36,4.59,4.59,0,0,1-.81-3,1.05,1.05,0,0,1,.28-.49A.65.65,0,0,1,152,170l.63.16a13.24,13.24,0,0,1,1.73.51.75.75,0,0,1,.43.44c.37,1-.3,2-2,2.89A.71.71,0,0,1,152.47,174Zm.05-2.44a3.36,3.36,0,0,0,.24.69,2.4,2.4,0,0,0,.55-.47Z" style="fill:#163150"/></g><g id="Group-119-Copy"><path d="M118.31,149.88c-11.55,1.79-17.32,14.57-16.87,19.62a5.56,5.56,0,0,0,4.51,2.41,4.7,4.7,0,0,0,3.87-2.18c.79-7.47,5.26-10.64,7-10.64" style="fill:#009d5e;fill-rule:evenodd"/><path d="M106.07,172.65h-.16a6.34,6.34,0,0,1-5.07-2.72l-.11-.17,0-.2c-.45-5.06,5.12-18.49,17.49-20.41a.74.74,0,0,1,.22,1.46c-10.85,1.68-16.53,13.58-16.26,18.62a4.8,4.8,0,0,0,3.82,2,3.87,3.87,0,0,0,3.13-1.7c.84-7.41,5.35-11.13,7.66-11.13a.74.74,0,0,1,0,1.47c-1,0-5.44,2.61-6.22,10l-.1.3A5.49,5.49,0,0,1,106.07,172.65Z" style="fill:#163150"/><path d="M101.08,169.3c-.38.39-.11,1.29.83,2.7,1.15-.31,1.59-.75,1.31-1.31A6.14,6.14,0,0,1,101.08,169.3Z" style="fill:#ae723b;fill-rule:evenodd"/><path d="M101.91,172.73a.75.75,0,0,1-.61-.32c-.81-1.22-1.63-2.74-.73-3.63a1,1,0,0,1,.52-.22.76.76,0,0,1,.52.23,5,5,0,0,0,1.73,1.14l.2.09a.7.7,0,0,1,.34.34,1.34,1.34,0,0,1,.05,1.17,2.59,2.59,0,0,1-1.82,1.18Zm.23-1.74.09.13.1,0Z" style="fill:#163150"/><path d="M103.86,170.84c-.23.64.28,1.5,1.51,2.61,1.15-.91,1.48-1.64,1-2.2A7,7,0,0,1,103.86,170.84Z" style="fill:#ae723b;fill-rule:evenodd"/><path d="M105.37,174.18a.72.72,0,0,1-.49-.19c-.95-.85-2.17-2.13-1.71-3.4a.73.73,0,0,1,.39-.42.78.78,0,0,1,.58,0,3.56,3.56,0,0,0,1.44.3c.25,0,.52,0,.85.06a.74.74,0,0,1,.46.24,1.52,1.52,0,0,1,.41,1.19,3.22,3.22,0,0,1-1.47,2.07A.74.74,0,0,1,105.37,174.18Zm-.48-2.3c.12.16.29.35.5.58a2.12,2.12,0,0,0,.41-.52h-.28C105.32,171.92,105.11,171.91,104.89,171.88Z" style="fill:#163150"/><path d="M106.75,171.31c-.23.63.32,1.3,1.64,2a4,4,0,0,0,.72-2.54s0-.07-.08-.1A19,19,0,0,0,106.75,171.31Z" style="fill:#ae723b;fill-rule:evenodd"/><path d="M108.39,174a.71.71,0,0,1-.34-.08c-1.69-.88-2.37-1.85-2-2.89a.78.78,0,0,1,.43-.44,13.93,13.93,0,0,1,1.74-.51l.63-.16a.74.74,0,0,1,.75.23.94.94,0,0,1,.24.45,4.65,4.65,0,0,1-.81,3A.75.75,0,0,1,108.39,174Zm-.84-2.22a2.19,2.19,0,0,0,.55.47,4.1,4.1,0,0,0,.24-.69Z" style="fill:#163150"/></g></g></g></g></g></svg>