<svg xmlns="http://www.w3.org/2000/svg" id="Layer_1" data-name="Layer 1" viewBox="0 0 300 300"><title>items</title><g id="item__3-2"><g id="tanks"><g id="Rectangle"><rect width="65.86" height="163.61" x="158.44" y="65.78" rx="29.33" style="fill:#78e1f2"/><path d="M195,230.42h-7.2a30.38,30.38,0,0,1-30.35-30.35v-105a30.39,30.39,0,0,1,30.35-30.36H195a30.4,30.4,0,0,1,30.36,30.36v105A30.39,30.39,0,0,1,195,230.42Zm-7.2-163.61a28.34,28.34,0,0,0-28.3,28.3v105a28.33,28.33,0,0,0,28.3,28.29H195a28.32,28.32,0,0,0,28.3-28.29v-105A28.33,28.33,0,0,0,195,66.81Z" style="fill:#163150"/></g><g id="Rectangle-Copy-35"><rect width="65.86" height="163.61" x="93.62" y="65.78" rx="29.33" style="fill:#78e1f2"/><path d="M130.15,230.42h-7.21a30.38,30.38,0,0,1-30.35-30.35v-105a30.39,30.39,0,0,1,30.35-30.36h7.21A30.39,30.39,0,0,1,160.5,95.11v105A30.38,30.38,0,0,1,130.15,230.42ZM122.94,66.81a28.34,28.34,0,0,0-28.3,28.3v105a28.33,28.33,0,0,0,28.3,28.29h7.21a28.32,28.32,0,0,0,28.29-28.29v-105a28.33,28.33,0,0,0-28.29-28.3Z" style="fill:#163150"/></g></g><g id="Scuba-suit"><g id="scuba-suit-2" data-name="scuba-suit"><g id="Group-10"><g id="Path-2"><path d="M180,80.41c0,33.84,16.51,67,24.08,72.75q.34-9.63,0-19.69Q189.32,113,193,80.41C185.45,80.28,185.25,80,180,80.41Z" style="fill:#ffd166;fill-rule:evenodd"/><path d="M205.32,155.7l-2-1.51c-8.45-6.4-24.6-40.12-24.6-73.78v-1.2l1.2-.09a51.74,51.74,0,0,1,7.74-.15c1.3,0,2.94.1,5.31.14l1.42,0-.15,1.41c-2.38,21.29,1.29,38.83,10.91,52.16l.23.32v.4c.23,6.71.23,13.36,0,19.78Zm-24-74.09c.35,30.27,13.83,59.67,21.56,68.58.13-5.32.11-10.78-.07-16.28-9.62-13.53-13.43-31.09-11.31-52.23-1.66,0-2.91-.08-3.94-.12A48.31,48.31,0,0,0,181.34,81.61Z" style="fill:#163150"/></g><g id="Path-2-Copy"><path d="M135.56,80.41c0,33.84-16.5,67-24.07,72.75q-.34-9.63,0-19.69Q126.28,113,122.64,80.41C130.15,80.28,130.35,80,135.56,80.41Z" style="fill:#ffd166;fill-rule:evenodd"/><path d="M110.28,155.7l-.09-2.49c-.23-6.42-.23-13.07,0-19.78V133l.23-.32c9.63-13.33,13.3-30.87,10.92-52.16l-.16-1.41,1.43,0c2.37,0,4-.1,5.31-.14a51.76,51.76,0,0,1,7.74.15l1.19.09v1.2c0,33.67-16.15,67.38-24.59,73.78Zm2.49-21.79c-.18,5.5-.21,11-.08,16.28,7.74-8.91,21.22-38.3,21.57-68.58a48.32,48.32,0,0,0-6.24,0c-1,0-2.28.08-3.94.12C126.2,102.82,122.39,120.38,112.77,133.91Z" style="fill:#163150"/></g></g><g id="Group-9"><g id="Combined-Shape"><path d="M230.57,121.52v38.6c0,1.9-.51,4.86-1.81,5.27-2.72.86-7.8-2.57-11.14-2-4.63.78-6.15,6.21-7.86,0a230.12,230.12,0,0,1-5.87-31l-.11,0v42h.53q11.83,55.79,7.36,63.12-6.85.74-21.22.8H173.6q-2.88-29.64-14.94-31.41-12.1,1.77-16.13,31.41H126.92q-14.34-.08-21.18-.8-4.42-7.26,6.1-61.86v-43.3l-.38-.16q-1.72,21.21-5.26,32.89c-1.63,5.39-5,.3-9.35,0-3.33-.23-7.15,3-9.42,2.34-1.32-.37-2.05-3.32-2.05-5.6V119.62l.15.07Q89,80.26,124.09,80.25h67.45q35.93-1.69,39.06,41.26Z" style="fill:#2a455f;fill-rule:evenodd"/><path d="M173.6,239.66a1.29,1.29,0,0,1-1.29-1.17c-1.84-18.83-6.42-29-13.65-30.22-7.29,1.23-12.28,11.41-14.85,30.27a1.29,1.29,0,0,1-1.28,1.12H126.92c-9.55,0-16.72-.31-21.32-.8a1.31,1.31,0,0,1-1-.62c-2-3.29-3.58-13.37,5.91-62.65V151.34a109.52,109.52,0,0,1-3.1,14.17,4.55,4.55,0,0,1-2.28,3.15c-1.52.65-3-.11-4.66-.91a10.17,10.17,0,0,0-3.74-1.32,11.58,11.58,0,0,0-4.54,1.24c-1.84.77-3.57,1.49-5.14,1.05-2.37-.66-3-4.76-3-6.84V119.62a1.25,1.25,0,0,1,.21-.7c2.55-26.52,15.94-40,39.79-40h67.45c24.55-1.15,38.21,13.13,40.35,42.47a1.3,1.3,0,0,1,0,.34v38.36c0,.58-.08,5.67-2.72,6.5-1.78.57-3.94-.16-6.22-.92-1.85-.62-3.77-1.26-5.09-1a8.49,8.49,0,0,0-3.48,1.72c-1.07.77-2.19,1.56-3.45,1.11s-1.94-2.09-2.4-3.76c-1.24-4.49-2.39-9.59-3.43-15.24v24.92a1.28,1.28,0,0,1,.5.77c10.7,50.45,9.23,60.72,7.19,64.06a1.31,1.31,0,0,1-1,.62c-4.6.49-11.78.76-21.34.8Zm1.17-2.59h15.68c9,0,15.84-.28,20.38-.72,1.64-4,1.43-18-7.6-60.73a1.28,1.28,0,0,1-.74-1.17v-42a1.3,1.3,0,0,1,.84-1.22,1.44,1.44,0,0,1,1.17.08,1.33,1.33,0,0,1,.67.93A231.78,231.78,0,0,0,211,163a6.65,6.65,0,0,0,.75,1.94,9.38,9.38,0,0,0,1.09-.71,10.78,10.78,0,0,1,4.56-2.17c2-.33,4.19.42,6.34,1.14,1.79.6,3.64,1.22,4.62.91.34-.23.91-2,.91-4v-38.6a.86.86,0,0,1,0-.16c-2.11-27.89-14.44-40.89-37.69-39.81H124.09c-22.79,0-35,12.51-37.27,38.25a1.33,1.33,0,0,1-.14.48v41.6c0,2.3.73,4.13,1.13,4.36.68.18,2.12-.43,3.41-1,1.75-.73,3.76-1.58,5.72-1.42a12.59,12.59,0,0,1,4.72,1.58c.92.45,2.06,1,2.47.85.1-.05.46-.29.83-1.52,2.31-7.66,4.07-18.64,5.21-32.62a1.29,1.29,0,0,1,1.77-1.09l.31.12a1.44,1.44,0,0,1,.89,1.24v43.3a1,1,0,0,1,0,.25c-8.18,42.49-8.18,56.43-6.53,60.39,4.52.44,11.36.68,20.35.72H141.4c2.85-19.86,8.44-30.13,17.08-31.39a.77.77,0,0,1,.37,0C167.47,206.94,172.68,217.21,174.77,237.07Z" style="fill:#163150"/></g><g id="Path-301"><path d="M108.25,82.24c3.26,15.2,5.45,40.17,3.26,47.73q0,9.12,1.1,20.64Q127,80.32,121.69,80.25C116.35,80.19,112.59,81.49,108.25,82.24Z" style="fill:#ffd166;fill-rule:evenodd"/><path d="M112.61,151.64h0a1,1,0,0,1-1-.92c-.74-7.68-1.11-14.65-1.11-20.74a1.45,1.45,0,0,1,0-.29c2.12-7.33,0-32.1-3.28-47.22a1,1,0,0,1,.16-.79,1,1,0,0,1,.67-.44c1.22-.21,2.39-.47,3.56-.72a45.59,45.59,0,0,1,10.07-1.29,1.85,1.85,0,0,1,1.43.73c1.72,2.13,2.6,11.79-9.51,70.87A1,1,0,0,1,112.61,151.64Zm-.07-21.53c0,4,.17,8.45.5,13.21,10.66-53.08,9.51-61.14,8.48-62.09a42.71,42.71,0,0,0-9.46,1.29c-.85.19-1.71.38-2.59.54C112.65,98.47,114.69,122.31,112.54,130.11Z" style="fill:#163150"/></g><g id="Path-301-Copy"><path d="M207.28,82.18c-3.26,15.2-5.44,40.17-3.26,47.73q0,9.12-1.1,20.64-14.41-70.31-9.08-70.36C199.18,80.12,202.94,81.43,207.28,82.18Z" style="fill:#ffd166;fill-rule:evenodd"/><path d="M202.92,151.58a1,1,0,0,1-1-.83C189.8,91.68,190.68,82,192.4,79.89a1.82,1.82,0,0,1,1.43-.73,44.25,44.25,0,0,1,10.07,1.29c1.17.25,2.34.51,3.56.72a1,1,0,0,1,.83,1.23c-3.25,15.12-5.4,39.88-3.28,47.22a1.35,1.35,0,0,1,0,.29c0,6.08-.37,13.05-1.1,20.74a1,1,0,0,1-1,.92Zm-8.69-70.36h-.37c-.89.9-2,9,8.63,62,.33-4.76.49-9.18.5-13.2-2.15-7.81-.11-31.64,3.07-47.05-.88-.17-1.74-.35-2.6-.54A40.55,40.55,0,0,0,194.23,81.22Z" style="fill:#163150"/></g><g style="opacity:.5309244990348816;isolation:isolate"><rect width="49.27" height="64.83" x="133.36" y="107.41" rx="20.1" style="fill:#78e1f2"/></g><g id="Rectangle-Copy" style="opacity:.5309244990348816;isolation:isolate"><path d="M193,203.36h0a9.07,9.07,0,0,1,9.07,9.08v5.18A9.07,9.07,0,0,1,193,226.7h0a9.08,9.08,0,0,1-9.08-9.08v-5.18A9.08,9.08,0,0,1,193,203.36Z" style="fill:#78e1f2;fill-rule:evenodd"/></g><g id="Rectangle-Copy-2" style="opacity:.5309244990348816;isolation:isolate"><path d="M126.87,203.36h0a9.07,9.07,0,0,1,9.08,9.08v5.18a9.07,9.07,0,0,1-9.08,9.08h0a9.07,9.07,0,0,1-9.07-9.08v-5.18A9.07,9.07,0,0,1,126.87,203.36Z" style="fill:#78e1f2;fill-rule:evenodd"/></g><rect width="92.06" height="9.08" x="112.61" y="163.17" style="fill:#163150"/><g id="Group-8"><g id="Group-3"><rect width="17.22" height="19.45" x="122.98" y="157.98" rx="2.59" style="fill:#d8d8d8"/><path d="M137.61,178.73h-12a3.89,3.89,0,0,1-3.89-3.89V160.57a3.89,3.89,0,0,1,3.89-3.89h12a3.89,3.89,0,0,1,3.89,3.89v14.27A3.89,3.89,0,0,1,137.61,178.73Zm-12-19.45a1.3,1.3,0,0,0-1.3,1.29v14.27a1.3,1.3,0,0,0,1.3,1.29h12a1.3,1.3,0,0,0,1.3-1.29V160.57a1.3,1.3,0,0,0-1.3-1.29Z" style="fill:#163150"/><rect width="6.65" height="9.08" x="128.27" y="163.17" rx="1.3" style="fill:#163150"/><path d="M133.63,173.54h-4.07A2.59,2.59,0,0,1,127,171v-6.49a2.59,2.59,0,0,1,2.59-2.59h4.07a2.59,2.59,0,0,1,2.59,2.59V171A2.59,2.59,0,0,1,133.63,173.54Zm-4.06-9.08V171h4.06v-6.48Zm0-1.29v1.29h0Z" style="fill:#163150"/></g><g id="Group-3-Copy"><rect width="17.22" height="19.45" x="148.08" y="157.98" rx="2.59" style="fill:#d8d8d8"/><path d="M162.71,178.73h-12a3.89,3.89,0,0,1-3.89-3.89V160.57a3.89,3.89,0,0,1,3.89-3.89h12a3.89,3.89,0,0,1,3.89,3.89v14.27A3.89,3.89,0,0,1,162.71,178.73Zm-12-19.45a1.3,1.3,0,0,0-1.3,1.29v14.27a1.3,1.3,0,0,0,1.3,1.29h12a1.3,1.3,0,0,0,1.3-1.29V160.57a1.3,1.3,0,0,0-1.3-1.29Z" style="fill:#163150"/><rect width="6.65" height="9.08" x="153.37" y="163.17" rx="1.3" style="fill:#163150"/><path d="M158.73,173.54h-4.07a2.59,2.59,0,0,1-2.59-2.59v-6.49a2.59,2.59,0,0,1,2.59-2.59h4.07a2.59,2.59,0,0,1,2.59,2.59V171A2.59,2.59,0,0,1,158.73,173.54Zm-4.06-9.08V171h4.06v-6.48Zm0-1.29v1.29h0Z" style="fill:#163150"/></g><g id="Group-3-Copy-2"><rect width="17.22" height="19.45" x="173.18" y="157.98" rx="2.59" style="fill:#d8d8d8"/><path d="M187.81,178.73h-12a3.89,3.89,0,0,1-3.89-3.89V160.57a3.89,3.89,0,0,1,3.89-3.89h12a3.89,3.89,0,0,1,3.89,3.89v14.27A3.89,3.89,0,0,1,187.81,178.73Zm-12-19.45a1.3,1.3,0,0,0-1.3,1.29v14.27a1.3,1.3,0,0,0,1.3,1.29h12a1.3,1.3,0,0,0,1.3-1.29V160.57a1.3,1.3,0,0,0-1.3-1.29Z" style="fill:#163150"/><rect width="6.65" height="9.08" x="178.47" y="163.17" rx="1.3" style="fill:#163150"/><path d="M183.82,173.54h-4.06a2.59,2.59,0,0,1-2.59-2.59v-6.49a2.59,2.59,0,0,1,2.59-2.59h4.06a2.59,2.59,0,0,1,2.6,2.59V171A2.59,2.59,0,0,1,183.82,173.54Zm-4.06-9.08V171h4.06v-6.48Zm0-1.29v1.29h0Z" style="fill:#163150"/></g></g></g></g><g id="Path-303"><path d="M108.21,104.34c-18.13,0-25.24-7.89-27.42-11.19-3.46-5.26-3.38-11.48.21-15.47,3.89-4.35,10.45-4.77,17.55-1.14L95.73,82c-4.44-2.28-8.23-2.37-10.14-.24-1.68,1.88-1.54,5.07.36,8,5,7.68,22,12.92,53.15,2.43.78-.26,5.27-2.29,8-3.5,1.86-.85,3.45-1.56,4-1.79l2.36,5.71c-.51.21-2,.9-3.81,1.7-4.37,2-7.53,3.4-8.53,3.73C127.36,102.65,116.61,104.34,108.21,104.34Z" style="fill:#163150"/></g><path d="M211.89,105.19c-8.65,0-19.58-3.23-35.38-8.55-1.59-.54-10.6-4-12.06-4.59l2.37-5.7c1.45.6,10.33,4,11.65,4.43,26.35,8.87,36.54,10.78,45.05,4.61,6.16-4.48,6.53-10.21,4.28-13.64-1.46-2.22-4.37-3.78-8.19-1.52l-3.14-5.31c6-3.57,12.81-2.16,16.49,3.44,3.93,6,3.2,15.48-5.82,22A24.58,24.58,0,0,1,211.89,105.19Z" style="fill:#163150"/><g id="Oval"><path d="M157.42,92.59c5.11,0,9.26-2.77,9.26-6.18s-4.28-1.66-9.39-1.66-9.14-1.75-9.14,1.66S152.3,92.59,157.42,92.59Z" style="fill:#78e1f2;fill-rule:evenodd"/><path d="M157.42,93.62c-5.78,0-10.3-3.17-10.3-7.21a3,3,0,0,1,.9-2.34c1.15-1,3-.84,5.38-.61a42.23,42.23,0,0,0,7.79,0c2.47-.25,4.43-.44,5.62.63a3,3,0,0,1,.9,2.31C167.71,90.45,163.19,93.62,157.42,93.62Zm-6.7-8.29a2.16,2.16,0,0,0-1.32.27,1.12,1.12,0,0,0-.22.81c0,2.79,3.77,5.15,8.24,5.15s8.23-2.36,8.23-5.15a1.07,1.07,0,0,0-.22-.78c-.51-.47-2.3-.29-4-.12a45,45,0,0,1-8.21,0C152.32,85.42,151.43,85.33,150.72,85.33Z" style="fill:#163150"/></g><g id="Path-304"><path d="M86.37,110.33c-13.61-4.77-21.49-13.77-21.6-24.7A26.06,26.06,0,0,1,81.31,61.72c9.06-3.38,18.35-.5,25.48,7.89l-4.71,4c-5.43-6.39-12-8.56-18.61-6.11A20,20,0,0,0,71,85.57c.08,8.29,6.28,15,17.46,18.93Z" style="fill:#163150"/></g></g></g></svg>