<svg xmlns="http://www.w3.org/2000/svg" xmlns:xlink="http://www.w3.org/1999/xlink" id="Layer_1" data-name="Layer 1" viewBox="0 0 617.96 220.97"><defs><linearGradient id="linear-gradient" x1="-53.7" x2="-53.7" y1="31.43" y2="33.9" gradientTransform="matrix(185.13, 0, 0, -53.32, 10249.73, 1852.46)" gradientUnits="userSpaceOnUse"><stop offset="0" stop-color="#057a97"/><stop offset="1" stop-color="#00aed9"/></linearGradient><linearGradient id="linear-gradient-2" x1="309.34" x2="308.17" y1="37.85" y2="191.43" gradientUnits="userSpaceOnUse"><stop offset="0" stop-color="#be914a"/><stop offset="1" stop-color="#ffe9b6"/></linearGradient><linearGradient id="linear-gradient-3" x1="-53.75" x2="-53.75" y1="31.98" y2="34.85" gradientTransform="matrix(191.85, 0, 0, -60.04, 10620.19, 2114.61)" gradientUnits="userSpaceOnUse"><stop offset="0" stop-color="#d2981c"/><stop offset="1" stop-color="#ffce5b"/></linearGradient><filter id="f1" width="200%" height="200%" name="f1"><feOffset dx="1" dy="2" in="SourceAlpha" result="offOut"/><feGaussianBlur in="offOut" result="blurOut" stdDeviation="4"/><feComponentTransfer><feFuncA slope=".2" type="linear"/></feComponentTransfer><feMerge><feMergeNode/><feMergeNode in="SourceGraphic"/></feMerge></filter><linearGradient id="linear-gradient-5" x1="-29.69" x2="-29.69" y1="22.32" y2="22.99" gradientTransform="matrix(15.7, 0, 0, -20.66, 979.82, 578.6)" xlink:href="#linear-gradient-3"/><linearGradient id="New_Gradient_Swatch" x1="108.78" x2="99.78" y1="176.13" y2="73.75" gradientUnits="userSpaceOnUse"><stop offset="0" stop-color="#ca9522"/><stop offset="1" stop-color="#eabc52"/></linearGradient><linearGradient id="New_Gradient_Swatch-2" x1="138.12" x2="129.13" y1="173.55" y2="71.18" xlink:href="#New_Gradient_Swatch"/><linearGradient id="New_Gradient_Swatch-3" x1="169.54" x2="160.54" y1="170.79" y2="68.42" xlink:href="#New_Gradient_Swatch"/><linearGradient id="New_Gradient_Swatch-4" x1="200.92" x2="191.93" y1="168.03" y2="65.66" xlink:href="#New_Gradient_Swatch"/><linearGradient id="New_Gradient_Swatch-5" x1="223.09" x2="214.1" y1="166.09" y2="63.71" xlink:href="#New_Gradient_Swatch"/><linearGradient id="New_Gradient_Swatch-6" x1="247.17" x2="238.18" y1="163.97" y2="61.6" xlink:href="#New_Gradient_Swatch"/><linearGradient id="New_Gradient_Swatch-7" x1="279.55" x2="270.56" y1="161.13" y2="58.75" xlink:href="#New_Gradient_Swatch"/><linearGradient id="New_Gradient_Swatch-8" x1="307.32" x2="298.33" y1="158.69" y2="56.31" xlink:href="#New_Gradient_Swatch"/><linearGradient id="New_Gradient_Swatch-9" x1="348.4" x2="339.41" y1="155.08" y2="52.7" xlink:href="#New_Gradient_Swatch"/><linearGradient id="New_Gradient_Swatch-10" x1="376.8" x2="367.81" y1="152.58" y2="50.21" xlink:href="#New_Gradient_Swatch"/><linearGradient id="New_Gradient_Swatch-11" x1="408.79" x2="399.8" y1="149.77" y2="47.4" xlink:href="#New_Gradient_Swatch"/><linearGradient id="New_Gradient_Swatch-12" x1="439.05" x2="430.06" y1="147.12" y2="44.74" xlink:href="#New_Gradient_Swatch"/><linearGradient id="New_Gradient_Swatch-13" x1="124.12" x2="115.38" y1="176.54" y2="77.08" xlink:href="#New_Gradient_Swatch"/><linearGradient id="New_Gradient_Swatch-14" x1="161.42" x2="152.69" y1="173.27" y2="73.81" xlink:href="#New_Gradient_Swatch"/><linearGradient id="New_Gradient_Swatch-15" x1="199.55" x2="190.82" y1="169.92" y2="70.46" xlink:href="#New_Gradient_Swatch"/><linearGradient id="New_Gradient_Swatch-16" x1="233.78" x2="225.04" y1="166.91" y2="67.45" xlink:href="#New_Gradient_Swatch"/><linearGradient id="New_Gradient_Swatch-17" x1="269.03" x2="260.29" y1="163.81" y2="64.35" xlink:href="#New_Gradient_Swatch"/><linearGradient id="New_Gradient_Swatch-18" x1="308.43" x2="299.69" y1="160.35" y2="60.89" xlink:href="#New_Gradient_Swatch"/><linearGradient id="New_Gradient_Swatch-19" x1="345.53" x2="336.8" y1="157.09" y2="57.63" xlink:href="#New_Gradient_Swatch"/><linearGradient id="New_Gradient_Swatch-20" x1="383.51" x2="374.77" y1="153.76" y2="54.3" xlink:href="#New_Gradient_Swatch"/><linearGradient id="New_Gradient_Swatch-21" x1="418.34" x2="409.6" y1="150.7" y2="51.24" xlink:href="#New_Gradient_Swatch"/></defs><title>map__week-button--raw</title><path id="background" d="M51.94,23.78H566.32c18.29,0,33.12,15.3,33.12,34.17V162.1c0,18.87-14.83,34.16-33.12,34.16H51.94c-18.29,0-33.12-15.29-33.12-34.16V58C18.82,39.08,33.65,23.78,51.94,23.78Z" style="fill-rule:evenodd;fill:url(#linear-gradient)"/><path id="inner_border" d="M567.9,23.47H49.69c-17.42,0-27.54,10.5-27.54,27.16V166.8c0,16.66,9.9,28.16,27.33,28.16H567.9c17.43,0,27.55-10.5,27.55-27.16V50.63C595.45,34,585.33,23.47,567.9,23.47Zm13.55,135.22c0,14.07-9.63,22.94-26.2,22.94H62.14c-16.57,0-26-9.72-26-23.78V59.74c0-14.07,9.62-22.94,26.2-22.94h492.9c16.57,0,26.2,8.87,26.2,22.94Z" data-name="inner border" style="fill:url(#linear-gradient-2)"/><path d="M569.51,207.15H48.29A38.79,38.79,0,0,1,9.55,168.41V49.6A38.78,38.78,0,0,1,48.29,10.86H569.51A38.77,38.77,0,0,1,608.25,49.6V168.41A38.78,38.78,0,0,1,569.51,207.15ZM48.29,23.86A25.77,25.77,0,0,0,22.55,49.6V168.41a25.77,25.77,0,0,0,25.74,25.74H569.51a25.77,25.77,0,0,0,25.74-25.74V49.6a25.76,25.76,0,0,0-25.74-25.74Z" style="fill:url(#linear-gradient-3);filter:url(#f1)"/><path id="outer_border" d="M569.51,207.15H48.29A38.79,38.79,0,0,1,9.55,168.41V49.6A38.78,38.78,0,0,1,48.29,10.86H569.51A38.77,38.77,0,0,1,608.25,49.6V168.41A38.78,38.78,0,0,1,569.51,207.15ZM48.29,23.86A25.77,25.77,0,0,0,22.55,49.6V168.41a25.77,25.77,0,0,0,25.74,25.74H569.51a25.77,25.77,0,0,0,25.74-25.74V49.6a25.76,25.76,0,0,0-25.74-25.74Z" data-name="outer border" style="fill:url(#linear-gradient-3)"/><path d="M62.76,181.69c-16.57,0-26-9.71-26-23.78V59.8c0-14.07,9.62-22.93,26.2-22.93h492.9C572.45,36.87,62.76,181.69,62.76,181.69Z" style="fill:#fff;opacity:.336681544780731;isolation:isolate"/><g style="filter:url(#f1)"><path d="M501.88,83.57a5.29,5.29,0,0,0-8.55,4.17v45.48a5.3,5.3,0,0,0,8.38,4.31l30.34-21.76a5.3,5.3,0,0,0,.17-8.47Z" style="fill:#fff;fill-rule:evenodd"/><path d="M498.65,145.52a11.67,11.67,0,0,1-2-.17,12.28,12.28,0,0,1-10.29-12.13V87.74a12.3,12.3,0,0,1,19.87-9.68l30.34,23.72A12.32,12.32,0,0,1,538.65,119a12.57,12.57,0,0,1-2.52,2.42l-30.34,21.75A12.19,12.19,0,0,1,498.65,145.52Zm0-63.07a5.29,5.29,0,0,0-5.29,5.29v45.48a5.3,5.3,0,0,0,8.38,4.31l30.34-21.76a5.3,5.3,0,0,0,.17-8.47L501.88,83.57A5.32,5.32,0,0,0,498.62,82.45Z" style="fill:url(#linear-gradient-5)"/></g><g style="filter:url(#f1)"><path d="M112.78,84v.72c0,.32,0,.54,0,.67q0,7-5.34,9.51a14.85,14.85,0,0,1-6.39,1.4,10.83,10.83,0,0,1-7.45-2.55q-6-5.34-6-15a52.93,52.93,0,0,1,1-9.61A18.78,18.78,0,0,1,92,61.51,8.85,8.85,0,0,1,95.6,58.7a12.21,12.21,0,0,1,5.12-1.08,11.29,11.29,0,0,1,5.93,1.66,11.74,11.74,0,0,1,4.3,4.44,8.15,8.15,0,0,1,1,3.75,6.3,6.3,0,0,1-1,3.61,4.62,4.62,0,0,1-3.46,2.45q-3.36.33-6-3c0-.1-.09-.48-.19-1.15-.06-.51-.3-.76-.72-.72l-.48.86q-.48,10.19-.48,10.43c0,.93,0,1.84.1,2.74a1.87,1.87,0,0,0,1.15,1.78q1.11,0,3.82-2.45t3.72-2.41a4.25,4.25,0,0,1,1.59.34Q112.79,80.75,112.78,84Z" style="fill:#fff"/><path d="M142.72,87.9l.05,0a11.84,11.84,0,0,1-4.4,6.15,12.22,12.22,0,0,1-7.28,2.26,13.88,13.88,0,0,1-11.87-5.77,19.59,19.59,0,0,1-3.61-11.92,29.32,29.32,0,0,1,.58-6q2.64-12.54,11.2-14.13a9.42,9.42,0,0,1,1.63-.14A12.85,12.85,0,0,1,136.5,61a12.45,12.45,0,0,1,4.87,6.2q2.7,7.92,2.69,12.35a29.15,29.15,0,0,1-1.39,8.36ZM130.8,84.44v0q1.39-.24,1.39-5.33a26.08,26.08,0,0,0-.52-5.41c-.36-1.65-.74-2.51-1.16-2.57-.7-.19-1.34.57-1.92,2.3a17.92,17.92,0,0,0-.86,5.72Q127.73,84.92,130.8,84.44Z" style="fill:#fff"/><path d="M175.25,68v0c.32,3.72.49,7.23.49,10.53q0,15.24-5.05,17.11a5.11,5.11,0,0,1-1.78.29,13.49,13.49,0,0,1-3.12-.48q-2.41-1.35-7.36-15.43a32,32,0,0,1,.87,7.33,14.82,14.82,0,0,1-1.15,6.36,4.56,4.56,0,0,1-1.9,1.9,4.21,4.21,0,0,1-2.62.65q-4-.39-5.43-4.86a32.59,32.59,0,0,1-1-9.24q0-12.17,1-16.36a8.93,8.93,0,0,1,3.5-5.15,5.91,5.91,0,0,1,3.56-1.15,7.15,7.15,0,0,1,2.12.33q2.77,1.5,5.47,8.9A59.09,59.09,0,0,1,165,75.74c-.32-2.12-.59-4-.82-5.58a51.71,51.71,0,0,1-.57-6.19,6,6,0,0,1,1.25-3.9,5,5,0,0,1,4.08-1.78q4.67,0,5.82,5.19A44.6,44.6,0,0,1,175.25,68Z" style="fill:#fff"/><path d="M205.48,64.45h.05a9.56,9.56,0,0,1,.14,1.87A5.49,5.49,0,0,1,204.52,70c-.29.32-1.58.7-3.87,1.13a15.44,15.44,0,0,0-3.53.84c-.06.36.3,3.7,1.11,10a30.93,30.93,0,0,1,.24,3.84A19.26,19.26,0,0,1,197.31,93q-1.44,3.55-4.23,3.46c-3-.1-5.11-1-6.29-2.84-.9-1.34-1.36-3.47-1.4-6.39q0,.39.2-5l.24-6.15a36.21,36.21,0,0,1,.62-5,3.07,3.07,0,0,1-.86.09,10.64,10.64,0,0,1-3.27-.52,5.18,5.18,0,0,1-3-2.12,7.37,7.37,0,0,1-1.15-3.7c0-1.92,1.05-3.41,3.17-4.47a21.58,21.58,0,0,1,9.85-2.07,37.46,37.46,0,0,1,6.34.58l4.81,1.78A5.49,5.49,0,0,1,205.48,64.45Z" style="fill:#fff"/><path d="M221.68,64.69q0,2,.09,4.8c.07,1.89.1,3.11.1,3.65a94.18,94.18,0,0,1-1.3,17c-.57,3.23-2,5.17-4.42,5.81-.7.07-1.18.1-1.44.1-3.24,0-5.06-1.49-5.48-4.47a93.35,93.35,0,0,1-1.06-13.89,64.73,64.73,0,0,1,1-11.58l1.3-3.22a8.83,8.83,0,0,1,9-3.41,3.26,3.26,0,0,1,1.78,2.25Z" style="fill:#fff"/><path d="M253.49,68v0q.48,5.58.48,10.53,0,15.24-5,17.11a5.15,5.15,0,0,1-1.78.29A13.56,13.56,0,0,1,244,95.4q-2.4-1.35-7.35-15.43a32,32,0,0,1,.87,7.33,14.66,14.66,0,0,1-1.16,6.36,4.45,4.45,0,0,1-1.9,1.9,4.17,4.17,0,0,1-2.61.65q-4-.39-5.44-4.86a32.59,32.59,0,0,1-1-9.24q0-12.17,1-16.36A8.9,8.9,0,0,1,230,60.6a5.89,5.89,0,0,1,3.56-1.15,7,7,0,0,1,2.11.33q2.79,1.5,5.48,8.9a59.09,59.09,0,0,1,2.07,7.06c-.32-2.12-.6-4-.82-5.58a52.25,52.25,0,0,1-.58-6.19,6,6,0,0,1,1.25-3.9,5,5,0,0,1,4.09-1.78q4.65,0,5.81,5.19A43.63,43.63,0,0,1,253.49,68Z" style="fill:#fff"/><path d="M286.17,63.92l.05-.05c.13,1.51.19,3.19.19,5a57.66,57.66,0,0,1-3.51,20.38A12.61,12.61,0,0,1,280,93.74,9.5,9.5,0,0,1,276,96.36a26.72,26.72,0,0,1-3.84.28,15.34,15.34,0,0,1-8.94-2.49,12.39,12.39,0,0,1-4.86-6.69,30.66,30.66,0,0,1-1-9A52.45,52.45,0,0,1,259,64a6.4,6.4,0,0,1,2.28-3.17,6.82,6.82,0,0,1,3.53-1.58,4.8,4.8,0,0,1,3.06.79,5.72,5.72,0,0,1,2.23,2.43,18.85,18.85,0,0,1,.15,2.45,53.74,53.74,0,0,1-.87,6.77,53.65,53.65,0,0,0-.86,6.68,14.9,14.9,0,0,0,.19,2.55,3.58,3.58,0,0,0,1.58,1.63,2.93,2.93,0,0,0,2.26-.38,6.27,6.27,0,0,0,1.54-3.56q0-3.32.14-8.41c.32-2.75.53-4.45.63-5.09a21.17,21.17,0,0,1,.91-4.18q1.74-2.79,3.94-2.74a5.81,5.81,0,0,1,3.8,1.58A10.17,10.17,0,0,1,286.17,63.92Z" style="fill:#fff"/><path d="M310.92,73a4.37,4.37,0,0,1,.14,1.49A5.39,5.39,0,0,1,309,78.77a5.12,5.12,0,0,1-4,1.39,3.79,3.79,0,0,0-1.44,0,13.92,13.92,0,0,1-.34,3.08,1.88,1.88,0,0,0,1,1.73,5,5,0,0,1,3.22,0,3,3,0,0,1,2.16,2.59,6.19,6.19,0,0,1-1.2,4.21,11.59,11.59,0,0,1-4,3.58,10.55,10.55,0,0,1-5.33,1.3,11.34,11.34,0,0,1-4.85-1,10.5,10.5,0,0,1-2.74-2.69q-2-3.27-2-13.8a97.91,97.91,0,0,1,1-13.84c.41-3,1.28-5,2.59-5.86l8-.82a19.13,19.13,0,0,1,3.94-.43q3.75,0,4.42,1.87a5,5,0,0,1,.29,1.73,4.2,4.2,0,0,1-1.54,3.37,6.47,6.47,0,0,1-4.28,1.3h-1a6,6,0,0,0-.39,2.28c-.06,1.34-.11,2.1-.14,2.29a1.15,1.15,0,0,0,1,.86,5.44,5.44,0,0,1,3.51-1.11A4.87,4.87,0,0,1,310.92,73Z" style="fill:#fff"/><path d="M329.47,59.35h0a5.59,5.59,0,0,1,2.59-.62,4.5,4.5,0,0,1,4.28,2.35,11.82,11.82,0,0,1,2,4.23c.83,2.69,1.31,4.15,1.44,4.37q2.11-9,4.95-11.82a7.73,7.73,0,0,1,2.83-.53,5.23,5.23,0,0,1,3.61,1.2q2.55,1.69,2.55,5.53a29.77,29.77,0,0,1-2.45,8.6c-.81,1.8-2.15,4.44-4,7.93q0,2.07-.05,6.11a16.17,16.17,0,0,1-1.1,5.91A6.81,6.81,0,0,1,342,96.45a9,9,0,0,1-1.1.1,5.44,5.44,0,0,1-5.34-3,15.85,15.85,0,0,1-.67-5V85.69c0-1.16,0-2,0-2.6Q327,69.64,327,64C327,61.72,327.83,60.19,329.47,59.35Z" style="fill:#fff"/><path d="M383.25,87.9l0,0a11.82,11.82,0,0,1-4.39,6.15,12.22,12.22,0,0,1-7.28,2.26,13.86,13.86,0,0,1-11.87-5.77,19.52,19.52,0,0,1-3.61-11.92,28.63,28.63,0,0,1,.58-6q2.64-12.54,11.19-14.13a9.54,9.54,0,0,1,1.64-.14A12.85,12.85,0,0,1,377,61a12.42,12.42,0,0,1,4.88,6.2q2.69,7.92,2.69,12.35a29.15,29.15,0,0,1-1.39,8.36Zm-11.92-3.46v0q1.4-.24,1.39-5.33a26.05,26.05,0,0,0-.53-5.41c-.35-1.65-.74-2.51-1.15-2.57-.71-.19-1.35.57-1.92,2.3a17.92,17.92,0,0,0-.87,5.72Q368.25,84.92,371.33,84.44Z" style="fill:#fff"/><path d="M416.4,63.92l.05-.05c.13,1.51.2,3.19.2,5a57.66,57.66,0,0,1-3.51,20.38,12.75,12.75,0,0,1-2.86,4.45,9.56,9.56,0,0,1-4.06,2.62,27,27,0,0,1-3.85.28,15.39,15.39,0,0,1-8.94-2.49,12.43,12.43,0,0,1-4.85-6.69,30.28,30.28,0,0,1-1.06-9A52.45,52.45,0,0,1,389.2,64a6.48,6.48,0,0,1,2.29-3.17A6.79,6.79,0,0,1,395,59.26a4.79,4.79,0,0,1,3.05.79,5.81,5.81,0,0,1,2.24,2.43,20.88,20.88,0,0,1,.14,2.45,53.74,53.74,0,0,1-.87,6.77,55.78,55.78,0,0,0-.86,6.68,14.9,14.9,0,0,0,.19,2.55,3.56,3.56,0,0,0,1.59,1.63,3,3,0,0,0,2.26-.38,6.26,6.26,0,0,0,1.53-3.56q0-3.32.15-8.41c.32-2.75.53-4.45.62-5.09a21.05,21.05,0,0,1,.92-4.18q1.72-2.79,3.94-2.74a5.81,5.81,0,0,1,3.79,1.58A10.07,10.07,0,0,1,416.4,63.92Z" style="fill:#fff"/><path d="M447,91.26h-.05a9.85,9.85,0,0,1-2.26,2.93,7.54,7.54,0,0,1-4.18,2.12q-4.08.43-8.36-8.32a18,18,0,0,1,.14,2.14,7,7,0,0,1-1.44,4.66,7.78,7.78,0,0,1-4.42,1.52,7.57,7.57,0,0,1-1.73-.19A7,7,0,0,1,421,94.3q-1.16-1.44-1.15-5.18V87.2q-.15-.15.09-8.58A119.3,119.3,0,0,1,421,64.09c.41-2.39,2.11-4,5.09-4.93a54.89,54.89,0,0,1,8.32-1.25q7.35.24,10.09,4.9a20.68,20.68,0,0,1,2,8.56,10.76,10.76,0,0,1-2.17,6.68,35.88,35.88,0,0,1-2.73,2.54q5.43,5.86,5.43,9.81A6.45,6.45,0,0,1,447,91.26ZM433.22,68.87h0a1.51,1.51,0,0,0-.48-.1,7.44,7.44,0,0,0-1.49.67,6.9,6.9,0,0,0-.15,2.45c0,1.77.05,3.43.05,5a8.42,8.42,0,0,0,3.1-1.8,3.37,3.37,0,0,0,1.27-2.47Q435.48,70.84,433.22,68.87Z" style="fill:#fff"/><path d="M101.1,99.43a13.89,13.89,0,0,1-9.51-3.33c-4.72-4.16-7.1-10-7.07-17.35a55.72,55.72,0,0,1,1.07-10.17,21.74,21.74,0,0,1,3.86-8.9,11.93,11.93,0,0,1,4.86-3.82,15.42,15.42,0,0,1,6.41-1.36,14.55,14.55,0,0,1,7.54,2.1,14.84,14.84,0,0,1,5.42,5.62A11.15,11.15,0,0,1,115,67.4a9.52,9.52,0,0,1-1.42,5.32,7.77,7.77,0,0,1-4.87,3.75,7,7,0,0,1,2.34.51c3.07,1,4.82,3.53,4.82,7v.57c0,.38,0,.65,0,.82,0,7.44-3.88,10.82-7.13,12.34A18.09,18.09,0,0,1,101.1,99.43Zm-.38-38.69a9.07,9.07,0,0,0-3.83.8,5.9,5.9,0,0,0-2.39,1.8,15.44,15.44,0,0,0-2.78,6.39,50.21,50.21,0,0,0-1,9c0,5.56,1.59,9.69,5,12.65a7.74,7.74,0,0,0,5.38,1.77,11.7,11.7,0,0,0,5.07-1.1c1.65-.77,3.54-2.23,3.54-6.69,0-.06,0-.19,0-.36s0-.21,0-.31V84c0-1-.18-1-.51-1.1l-.3-.1-.09,0a16.29,16.29,0,0,0-2,1.55c-2.52,2.23-4.19,3.17-5.76,3.23a3.09,3.09,0,0,1-1.31-.22,5,5,0,0,1-3.09-4.45c-.07-1-.1-1.95-.1-3,0-.13,0-.32.48-10.58A3.28,3.28,0,0,1,97.41,68l.48-.87a3.09,3.09,0,0,1,2.49-1.59A3.76,3.76,0,0,1,104.44,69a1.23,1.23,0,0,1,0,.19,3.07,3.07,0,0,0,2.72,1.27c.14,0,.56-.06,1.11-1a3.45,3.45,0,0,0,.51-1.91,5.19,5.19,0,0,0-.59-2.34A8.59,8.59,0,0,0,105.05,62,8.26,8.26,0,0,0,100.72,60.74Zm2.25,15c-.1,2.16-.15,3.25-.17,3.78a13.2,13.2,0,0,1,4.34-2.86A8.7,8.7,0,0,1,103,75.75Zm-4.72-6v0Z" style="fill:url(#New_Gradient_Swatch)"/><path d="M131.09,99.48c-6.12,0-11-2.37-14.39-7a22.67,22.67,0,0,1-4.21-13.76,32,32,0,0,1,.65-6.6c2-9.68,6.64-15.25,13.68-16.56a12.09,12.09,0,0,1,2.2-.19,16,16,0,0,1,9.27,3.11,15.62,15.62,0,0,1,6,7.74c1.92,5.68,2.85,10,2.85,13.37A31.64,31.64,0,0,1,145.89,88a3.38,3.38,0,0,1-.15.88,14.89,14.89,0,0,1-5.55,7.73A15.26,15.26,0,0,1,131.09,99.48ZM129,61.56a5.9,5.9,0,0,0-1.06.09c-1.61.3-6.5,1.21-8.72,11.7a26.62,26.62,0,0,0-.51,5.32,16.43,16.43,0,0,0,3,10.07,10.82,10.82,0,0,0,9.36,4.5,9,9,0,0,0,5.46-1.68,8.46,8.46,0,0,0,3-3.91,3.55,3.55,0,0,1,.12-.65,26.14,26.14,0,0,0,1.26-7.46c0-2.6-.85-6.41-2.52-11.35a9.38,9.38,0,0,0-3.72-4.65A9.74,9.74,0,0,0,129,61.56Zm1.34,26A5.13,5.13,0,0,1,127,86.38c-2.15-1.84-2.39-5-2.39-7.28a21.15,21.15,0,0,1,1-6.7c1.55-4.66,4.28-4.66,5.54-4.37,2.6.53,3.24,3.51,3.55,5a29.59,29.59,0,0,1,.59,6.06c0,2.12,0,6.86-3.08,8.15a3,3,0,0,1-.95.31A5.79,5.79,0,0,1,130.36,87.59Zm.44-3.15h0Z" style="fill:url(#New_Gradient_Swatch-2)"/><path d="M154,99.35a6.28,6.28,0,0,1-.75,0c-3.83-.37-6.71-2.86-8-7a34.93,34.93,0,0,1-1.11-10.2c0-8.44.35-14,1.09-17.09a12,12,0,0,1,4.69-6.93,9,9,0,0,1,5.41-1.76,10.13,10.13,0,0,1,3.06.48,3.49,3.49,0,0,1,.53.22,9.08,9.08,0,0,1,2.68,2.3,8.39,8.39,0,0,1,.82-1.22,8,8,0,0,1,6.51-2.94c4.55,0,7.78,2.79,8.86,7.64a40.1,40.1,0,0,1,.58,4.72s0,.1,0,.16c.33,3.8.5,7.43.5,10.79,0,11.87-2.25,18.24-7.08,20a8.23,8.23,0,0,1-2.87.49,16.19,16.19,0,0,1-3.88-.58,3.42,3.42,0,0,1-.77-.3c-.81-.46-1.76-1.22-3.1-3.55L161,95a7.6,7.6,0,0,1-3.14,3.23A7.46,7.46,0,0,1,154,99.35Zm1.29-36.78a2.78,2.78,0,0,0-1.72.55,5.77,5.77,0,0,0-2.31,3.38c-.42,1.73-.92,5.86-.92,15.61,0,4.77.44,7.14.81,8.28.71,2.22,1.75,2.62,2.76,2.72a1.35,1.35,0,0,0,.75-.25,1.58,1.58,0,0,0,.65-.55,11.9,11.9,0,0,0,.85-5,29.17,29.17,0,0,0-.78-6.62,3.12,3.12,0,0,1,6-1.75c3.49,9.93,5.24,12.8,5.87,13.6a8.63,8.63,0,0,0,1.66.23,2,2,0,0,0,.68-.09c.32-.12,3-1.49,3-14.19,0-3.13-.15-6.51-.45-10,0-.06,0-.11,0-.17a41.32,41.32,0,0,0-.47-4.11c-.56-2.53-1.63-2.74-2.77-2.74s-1.5.43-1.66.63A2.79,2.79,0,0,0,166.7,64a46.83,46.83,0,0,0,.54,5.77q.34,2.39.82,5.53a3.12,3.12,0,0,1-6.13,1.18,57.92,57.92,0,0,0-2-6.69c-1.88-5.15-3.29-6.67-3.83-7.09A3.5,3.5,0,0,0,155.31,62.57Zm12.17,30.22Z" style="fill:url(#New_Gradient_Swatch-3)"/><path d="M193.22,99.62H193c-4.07-.13-7-1.56-8.8-4.24-1.24-1.86-1.87-4.51-1.91-8.07v0c0-.1,0-.21,0-.31,0-.48.08-2.1.18-4.84l.24-6.17c0-.67.1-1.32.16-1.94a11.59,11.59,0,0,1-1.51-.4,8.14,8.14,0,0,1-4.76-3.5A10.46,10.46,0,0,1,175,64.83c0-1.8.63-5.13,4.89-7.26,4.73-2.39,11-3,18.13-1.77a3.18,3.18,0,0,1,.53.14l4.83,1.79a2.63,2.63,0,0,1,.35.15,8.69,8.69,0,0,1,4.63,5.29,3.63,3.63,0,0,1,.21.66,12.72,12.72,0,0,1,.2,2.49A8.54,8.54,0,0,1,206.86,72c-.89,1-2.2,1.48-5.63,2.13l-.79.15c.16,1.41.42,3.66.88,7.28a33.49,33.49,0,0,1,.27,4.23,22.17,22.17,0,0,1-1.39,8.39C198.32,98.86,195.12,99.62,193.22,99.62Zm-4.71-12.54v.16c0,3.11.62,4.32.87,4.69s.9,1.36,3.8,1.45h0c.41,0,.81-.51,1.22-1.51a16.47,16.47,0,0,0,.93-6,28.83,28.83,0,0,0-.22-3.46c-1.26-10-1.19-10.36-1.08-11a3,3,0,0,1,.28-.83c.79-1.58,2-1.81,5.74-2.51,1.2-.23,1.91-.4,2.31-.52a4.41,4.41,0,0,0,.17-1.26c0-.36,0-.63,0-.83s-.07-.25-.1-.37-.17-.88-1.39-1.56l-4.33-1.6c-5.62-.94-10.52-.51-14,1.24-1.46.74-1.46,1.36-1.46,1.69A4.51,4.51,0,0,0,182,67s.25.38,1.31.73a7.37,7.37,0,0,0,2.3.37h.1a3.12,3.12,0,0,1,3.82,3.65,35.21,35.21,0,0,0-.57,4.58l-.37,9.87C188.56,86.4,188.54,86.72,188.51,87.08Zm-3-19h0Z" style="fill:url(#New_Gradient_Swatch-4)"/><path d="M214.71,99.19c-4.81,0-7.93-2.61-8.57-7.16a97.75,97.75,0,0,1-1.09-14.34,68.37,68.37,0,0,1,1.07-12.15,3,3,0,0,1,.17-.58l1.3-3.22a2.59,2.59,0,0,1,.33-.61,11.26,11.26,0,0,1,9.67-5,11.39,11.39,0,0,1,2.58.28,3.14,3.14,0,0,1,.61.21A6.31,6.31,0,0,1,224.26,61a3.4,3.4,0,0,1,.07.34l.43,2.93a2.32,2.32,0,0,1,0,.46c0,1.28,0,2.86.09,4.7s.1,3.19.1,3.75a97.66,97.66,0,0,1-1.35,17.57c-1,5.62-4.18,7.6-6.68,8.27a3,3,0,0,1-.52.1C215.37,99.18,214.94,99.19,214.71,99.19ZM212.19,67a62.51,62.51,0,0,0-.9,10.72,90.93,90.93,0,0,0,1,13.42c.15,1.12.35,1.8,2.39,1.8.17,0,.45,0,.85-.06.56-.19,1.49-.76,1.94-3.28a91.61,91.61,0,0,0,1.25-16.45c0-.55,0-1.73-.09-3.56s-.1-3.37-.1-4.68l-.37-2.47a5.47,5.47,0,0,0-.6,0,5,5,0,0,0-4.36,2Z" style="fill:url(#New_Gradient_Swatch-5)"/><path d="M232.26,99.35a6.28,6.28,0,0,1-.75,0c-3.83-.37-6.71-2.86-8-7a35.28,35.28,0,0,1-1.11-10.2c0-8.44.36-14,1.1-17.09a12,12,0,0,1,4.69-6.93,9,9,0,0,1,5.41-1.76,10.06,10.06,0,0,1,3,.48,3.11,3.11,0,0,1,.53.22,9,9,0,0,1,2.68,2.3,8.46,8.46,0,0,1,.83-1.22,8,8,0,0,1,6.51-2.94c4.55,0,7.78,2.79,8.86,7.64a38.94,38.94,0,0,1,.57,4.72.78.78,0,0,1,0,.16c.33,3.8.49,7.43.49,10.79,0,11.87-2.25,18.24-7.08,20a8.13,8.13,0,0,1-2.86.49,16.12,16.12,0,0,1-3.88-.58,3.42,3.42,0,0,1-.77-.3c-.82-.46-1.76-1.22-3.1-3.55l-.21.46a7.6,7.6,0,0,1-3.14,3.23A7.48,7.48,0,0,1,232.26,99.35Zm1.29-36.78a2.78,2.78,0,0,0-1.72.55,5.83,5.83,0,0,0-2.32,3.38c-.41,1.73-.92,5.86-.92,15.61,0,4.77.44,7.14.81,8.28.72,2.22,1.75,2.62,2.77,2.72a1.38,1.38,0,0,0,.75-.25,1.75,1.75,0,0,0,.65-.55,11.9,11.9,0,0,0,.85-5,29.19,29.19,0,0,0-.79-6.62,3.12,3.12,0,0,1,6-1.75c3.49,9.93,5.25,12.8,5.88,13.6a8.63,8.63,0,0,0,1.66.23,2.11,2.11,0,0,0,.68-.09c.32-.12,3-1.49,3-14.19,0-3.13-.15-6.51-.45-10,0-.06,0-.11,0-.17a35.06,35.06,0,0,0-.47-4.11c-.56-2.53-1.62-2.74-2.76-2.74s-1.5.43-1.66.63a2.77,2.77,0,0,0-.56,1.93,47.83,47.83,0,0,0,.55,5.77q.33,2.39.81,5.53a3.12,3.12,0,0,1-6.12,1.18,57.77,57.77,0,0,0-2-6.69c-1.87-5.15-3.28-6.67-3.82-7.09A3.56,3.56,0,0,0,233.55,62.57Zm12.17,30.22Z" style="fill:url(#New_Gradient_Swatch-6)"/><path d="M272.14,99.76a18.4,18.4,0,0,1-10.72-3.05,15.53,15.53,0,0,1-6.05-8.29,33.24,33.24,0,0,1-1.2-10A56,56,0,0,1,256,63.14a9.57,9.57,0,0,1,3.34-4.74,10,10,0,0,1,5.14-2.25,8,8,0,0,1,5,1.25,8.9,8.9,0,0,1,3.1,3.15c.08-.24.15-.47.23-.69a3.77,3.77,0,0,1,.28-.57c2.21-3.55,4.84-4.26,6.66-4.21a8.91,8.91,0,0,1,5.8,2.37,12.89,12.89,0,0,1,3.28,4.72,3.11,3.11,0,0,1,.5,1.43c.13,1.6.2,3.38.2,5.31a61.11,61.11,0,0,1-3.71,21.48,15.72,15.72,0,0,1-3.55,5.53,12.56,12.56,0,0,1-5.4,3.43,3.43,3.43,0,0,1-.44.09A28.84,28.84,0,0,1,272.14,99.76Zm-6.94-37.4h-.12a3.92,3.92,0,0,0-1.89.93A3.35,3.35,0,0,0,262,64.9a49.54,49.54,0,0,0-1.55,13.53,27.76,27.76,0,0,0,.9,8.07A9.32,9.32,0,0,0,265,91.57a12.23,12.23,0,0,0,7.19,2,23,23,0,0,0,3.15-.22,6.83,6.83,0,0,0,2.52-1.74A9.5,9.5,0,0,0,280,88.2a54.8,54.8,0,0,0,3.31-19.29c0-1.49,0-2.88-.13-4.13a6.93,6.93,0,0,0-1.75-2.66,2.68,2.68,0,0,0-1.8-.8h0c-.15,0-.55.27-1,1a20.73,20.73,0,0,0-.65,3.24c-.07.45-.22,1.64-.6,4.9-.13,3.27-.17,6-.14,8.13a3.4,3.4,0,0,1,0,.45,9.28,9.28,0,0,1-2.34,5.27,3.07,3.07,0,0,1-.26.25,5.79,5.79,0,0,1-4.66,1.11,3,3,0,0,1-1.29-.46A6.43,6.43,0,0,1,265.73,82a4.6,4.6,0,0,1-.13-.5,19.11,19.11,0,0,1-.24-3.09,49.91,49.91,0,0,1,.91-7.19,49,49,0,0,0,.83-6.26c0-.51,0-1-.06-1.47a2.87,2.87,0,0,0-.85-.76A1.83,1.83,0,0,0,265.2,62.36Z" style="fill:url(#New_Gradient_Swatch-7)"/><path d="M299.05,99.72a14.4,14.4,0,0,1-6.17-1.31A12,12,0,0,1,289,94.86c-.09-.11-.17-.23-.25-.35-1.64-2.74-2.43-7.63-2.46-15.39a99.57,99.57,0,0,1,1-14.28c.54-4,1.83-6.59,3.92-8a3.13,3.13,0,0,1,1.45-.52l7.86-.81A23.06,23.06,0,0,1,305,55c4.91,0,6.71,2.14,7.36,3.94a8.14,8.14,0,0,1,.47,2.78,7.31,7.31,0,0,1-2.65,5.75,6.84,6.84,0,0,1-.74.56,8.37,8.37,0,0,1,4,3.11,3.26,3.26,0,0,1,.49,1,7.9,7.9,0,0,1,.24,2.38A8.47,8.47,0,0,1,311,81.16a9,9,0,0,1-1.7,1.18,6,6,0,0,1,3.38,4.85A9.22,9.22,0,0,1,311,93.46a14.54,14.54,0,0,1-5,4.55A13.6,13.6,0,0,1,299.05,99.72Zm-3.44-6.92a8.25,8.25,0,0,0,3.44.68,7.34,7.34,0,0,0,3.78-.89,8.47,8.47,0,0,0,3-2.62,3.06,3.06,0,0,0,.69-2,.77.77,0,0,0-.2-.09,2.41,2.41,0,0,0-1.28.1,3.14,3.14,0,0,1-2.36-.3,5,5,0,0,1-2.58-4.44,3.07,3.07,0,0,1,.05-.53,21.67,21.67,0,0,0,.31-2.23A3.11,3.11,0,0,1,303.24,77a7.35,7.35,0,0,1,2.25.06,2.1,2.1,0,0,0,1.46-.65,2.32,2.32,0,0,0,1-1.93c0-.06,0-.11,0-.17a1.45,1.45,0,0,0-1.11-.46,2.27,2.27,0,0,0-1.57.43,3.11,3.11,0,0,1-2.61.6,4.23,4.23,0,0,1-3.39-3.24,2.88,2.88,0,0,1,0-1.17h0s0-.38.11-1.93a8.6,8.6,0,0,1,.67-3.46,3.12,3.12,0,0,1,2.83-1.79h1a3.75,3.75,0,0,0,2.27-.57,1.08,1.08,0,0,0,.43-1c0-.11,0-.22,0-.32a6,6,0,0,0-1.57-.16,15.73,15.73,0,0,0-3.3.37l-.33,0-6.91.7a9,9,0,0,0-.93,3.3,95.85,95.85,0,0,0-1,13.39c0,8.21,1,11.1,1.48,12A11,11,0,0,0,295.61,92.8Zm4.81-12.31c0,.05,0,.1,0,.13S300.43,80.54,300.42,80.49Zm6.09-19.37h0Z" style="fill:url(#New_Gradient_Swatch-8)"/><path d="M340.86,99.67a8.58,8.58,0,0,1-8.14-4.77c-.05-.12-.1-.23-.14-.35a18.39,18.39,0,0,1-.85-6.08V85.69c0-.77,0-1.32,0-1.72-5.35-9.3-7.85-15.67-7.85-20,0-4.59,2.6-6.61,4.15-7.4a2.66,2.66,0,0,1,.39-.16,8.66,8.66,0,0,1,3.67-.8,7.62,7.62,0,0,1,6.83,3.66,7.81,7.81,0,0,1,.67.94,14.89,14.89,0,0,1,3-4.57,3,3,0,0,1,1.05-.68,10.73,10.73,0,0,1,4-.75,8.29,8.29,0,0,1,5.51,1.85c1.76,1.22,3.77,3.59,3.77,8,0,.11,0,.23,0,.34a32.83,32.83,0,0,1-2.7,9.52c-.79,1.78-2,4.22-3.77,7.46,0,1.34,0,3.12-.05,5.35A19.14,19.14,0,0,1,349,93.84a10,10,0,0,1-6,5.56,3.5,3.5,0,0,1-.64.15A12.94,12.94,0,0,1,340.86,99.67Zm-2.45-7.36c.31.57.85,1.12,2.45,1.12l.37,0a3.67,3.67,0,0,0,2.06-2.05,13.21,13.21,0,0,0,.84-4.74c0-2.62.05-4.65.05-6a3.15,3.15,0,0,1,.37-1.48c1.85-3.41,3.17-6,3.94-7.72a27,27,0,0,0,2.17-7.49c0-2-.81-2.54-1.14-2.76a3.17,3.17,0,0,1-.36-.28,2.3,2.3,0,0,0-1.53-.41,4.74,4.74,0,0,0-1.07.12c-.88,1.16-2.26,3.8-3.67,9.82a3.13,3.13,0,0,1-2.59,2.38,3.09,3.09,0,0,1-3.15-1.53c-.22-.37-.37-.64-1.72-5a9,9,0,0,0-1.34-3,3.14,3.14,0,0,1-.43-.6c-.23-.41-.5-.74-1.55-.74a2.39,2.39,0,0,0-1.16.27l-.25.12c-.26.18-.56.57-.56,1.73,0,2.2,1.28,7,7.41,17.55a3.17,3.17,0,0,1,.42,1.4c0,.67,0,1.6,0,2.85v2.7A13.3,13.3,0,0,0,338.41,92.31Z" style="fill:url(#New_Gradient_Swatch-9)"/><path d="M371.62,99.48c-6.12,0-11-2.37-14.39-7A22.67,22.67,0,0,1,353,78.67a32.7,32.7,0,0,1,.64-6.6c2-9.68,6.65-15.25,13.69-16.56a12,12,0,0,1,2.2-.19,16,16,0,0,1,9.26,3.11,15.62,15.62,0,0,1,6,7.74c1.93,5.68,2.86,10,2.86,13.37a31.68,31.68,0,0,1-1.3,8.48,2.71,2.71,0,0,1-.15.88,14.82,14.82,0,0,1-5.54,7.73A15.28,15.28,0,0,1,371.62,99.48Zm-2.07-37.92a5.82,5.82,0,0,0-1.06.09c-1.61.3-6.51,1.21-8.72,11.7a25.9,25.9,0,0,0-.51,5.32,16.37,16.37,0,0,0,3,10.07,10.82,10.82,0,0,0,9.36,4.5,9,9,0,0,0,5.46-1.68,8.52,8.52,0,0,0,3-3.91,2.87,2.87,0,0,1,.12-.65,26.14,26.14,0,0,0,1.26-7.46c0-2.6-.85-6.41-2.52-11.35a9.38,9.38,0,0,0-3.72-4.65A9.77,9.77,0,0,0,369.55,61.56Zm1.34,26a5.13,5.13,0,0,1-3.36-1.21c-2.15-1.84-2.4-5-2.4-7.28a21.15,21.15,0,0,1,1-6.7c1.55-4.66,4.28-4.66,5.54-4.37,2.59.53,3.23,3.51,3.54,5a28.89,28.89,0,0,1,.6,6.06c0,2.12,0,6.86-3.09,8.15a3,3,0,0,1-.94.31A5.79,5.79,0,0,1,370.89,87.59Zm.44-3.15h0Z" style="fill:url(#New_Gradient_Swatch-10)"/><path d="M402.37,99.76a18.42,18.42,0,0,1-10.72-3.05,15.47,15.47,0,0,1-6-8.29,33.19,33.19,0,0,1-1.21-10,55.56,55.56,0,0,1,1.81-15.29,9.45,9.45,0,0,1,3.34-4.74,10,10,0,0,1,5.13-2.25,8,8,0,0,1,5,1.25,8.93,8.93,0,0,1,3.11,3.15c.07-.24.15-.47.23-.69a2.51,2.51,0,0,1,.28-.57c2.2-3.55,4.83-4.26,6.65-4.21a8.92,8.92,0,0,1,5.81,2.37,13.13,13.13,0,0,1,3.28,4.72,3.09,3.09,0,0,1,.49,1.43c.14,1.6.21,3.38.21,5.31a61.11,61.11,0,0,1-3.71,21.48,15.86,15.86,0,0,1-3.55,5.53,12.65,12.65,0,0,1-5.41,3.43,3.29,3.29,0,0,1-.43.09A29,29,0,0,1,402.37,99.76Zm-6.94-37.4h-.12a3.85,3.85,0,0,0-1.88.93,3.38,3.38,0,0,0-1.24,1.61,49.93,49.93,0,0,0-1.55,13.53,27.7,27.7,0,0,0,.91,8.07,9.32,9.32,0,0,0,3.64,5.07,12.21,12.21,0,0,0,7.18,2,22.87,22.87,0,0,0,3.15-.22A6.75,6.75,0,0,0,408,91.56a9.5,9.5,0,0,0,2.17-3.36,54.8,54.8,0,0,0,3.32-19.29c0-1.49,0-2.88-.14-4.13a6.82,6.82,0,0,0-1.75-2.66,2.66,2.66,0,0,0-1.79-.8c-.16,0-.55.26-1.05,1a22,22,0,0,0-.65,3.24c-.06.45-.22,1.64-.6,4.9-.12,3.27-.17,6-.14,8.13a2.26,2.26,0,0,1,0,.45A9.35,9.35,0,0,1,405,84.3a2.06,2.06,0,0,1-.26.25,5.78,5.78,0,0,1-4.66,1.11,2.9,2.9,0,0,1-1.28-.46A6.38,6.38,0,0,1,396,82a3.07,3.07,0,0,1-.13-.5,18,18,0,0,1-.24-3.09,48.23,48.23,0,0,1,.91-7.19,49.92,49.92,0,0,0,.82-6.26c0-.51,0-1-.06-1.47a2.83,2.83,0,0,0-.84-.76A1.83,1.83,0,0,0,395.43,62.36Z" style="fill:url(#New_Gradient_Swatch-11)"/><path d="M440.1,99.45a8.91,8.91,0,0,1-6.41-3.28,7.47,7.47,0,0,1-.48.63,3.31,3.31,0,0,1-.62.56,10.88,10.88,0,0,1-6.19,2.07,10.31,10.31,0,0,1-2.49-.29c-2.64-.67-4.36-1.6-5.39-2.92-1.24-1.54-1.82-3.8-1.82-7.1V87.35c-.12-1.34-.05-3.78.09-8.82a121.07,121.07,0,0,1,1.15-14.94c.44-2.54,2.05-5.85,7.27-7.42a54.86,54.86,0,0,1,8.9-1.36,3,3,0,0,1,.42,0c6,.2,10.28,2.37,12.68,6.44a3.18,3.18,0,0,1,.16.32,23.82,23.82,0,0,1,2.29,9.85A13.81,13.81,0,0,1,446.83,80a7.26,7.26,0,0,1-.84.89c2.82,3.55,4.2,6.69,4.2,9.54a9,9,0,0,1-.14,1.37,3.33,3.33,0,0,1-.57,1.35,13.5,13.5,0,0,1-2.68,3.35,10.72,10.72,0,0,1-6,2.94C440.59,99.43,440.34,99.45,440.1,99.45Zm-8-14.58a3.11,3.11,0,0,1,2.8,1.75c2.63,5.37,4.55,6.67,5.23,6.59a4.69,4.69,0,0,0,2.42-1.33,7.75,7.75,0,0,0,1.37-1.65c-.05-1-.75-3.36-4.59-7.52a3.12,3.12,0,0,1,.22-4.46c1.94-1.7,2.34-2.13,2.4-2.19a7.66,7.66,0,0,0,1.45-4.73,17.66,17.66,0,0,0-1.68-7.09c-.54-.89-2.07-3-7.21-3.2A49.79,49.79,0,0,0,427,62.15c-2.6.78-2.81,2-2.9,2.48A118.25,118.25,0,0,0,423,78.71c-.17,5.88-.16,7.51-.14,8a3.29,3.29,0,0,1,.05.54v1.92c0,2.45.43,3.17.47,3.22h0a6.74,6.74,0,0,0,2,.75,4.22,4.22,0,0,0,1,.1,4.37,4.37,0,0,0,2.25-.71,4.65,4.65,0,0,0,.49-2.35,16,16,0,0,0-.12-1.77A3.12,3.12,0,0,1,431.24,85,3,3,0,0,1,432.12,84.87ZM447,91.26h0ZM422.05,85h0Zm0,0Zm0,0Zm0,0h0Zm0,0Zm0,0Zm0,0h0Zm0,0Zm0,0h0Zm0,0Zm0,0Zm9.1-5a3,3,0,0,1-1.81-.58A3.11,3.11,0,0,1,428,76.89c0-1.55,0-3.2-.05-4.94-.05-2.28,0-3.63,1.06-4.72a3.53,3.53,0,0,1,.77-.56,6.26,6.26,0,0,1,2.93-1,4.43,4.43,0,0,1,1.26.19,3.09,3.09,0,0,1,1.32.68c2.2,1.92,3.32,4,3.32,6.1a6.39,6.39,0,0,1-2.27,4.76,11.78,11.78,0,0,1-4.21,2.47A3.18,3.18,0,0,1,431.11,80Z" style="fill:url(#New_Gradient_Swatch-12)"/><path d="M138.61,157.93V158a4.32,4.32,0,0,1-3.56,3.62,13.41,13.41,0,0,1-3.13.36,7.94,7.94,0,0,1-4.83-1.38,16.54,16.54,0,0,1-1.57-2.3,9.06,9.06,0,0,1-.78-4,33.43,33.43,0,0,0-5.49.24c.08.36.16.91.24,1.63a11,11,0,0,1-1.39,5.13,5.86,5.86,0,0,1-5.12,2.47,17.36,17.36,0,0,1-4-.6l-.12-.12q-5.13-2.53-5.13-12.61c0-.44,0-1.49.13-3.14a86.58,86.58,0,0,1,1.75-14.84A35.86,35.86,0,0,1,112,118.78q3.55-4.65,10.32-4.65,7.23,0,10.91,4.53a15.77,15.77,0,0,1,3.08,6.21,90.38,90.38,0,0,1,3.32,22.38A55.88,55.88,0,0,1,138.61,157.93Zm-15.26-15.8a92.47,92.47,0,0,0-.6-15.27c-.28-.28-.71-.18-1.27.3q-.78,5.13-1.14,8.33a37.49,37.49,0,0,0-.43,6.39,1,1,0,0,0,1,.67,8.72,8.72,0,0,0,1.23-.21A10.11,10.11,0,0,1,123.35,142.13Z" style="fill:#fff"/><path d="M173.66,136.76a31,31,0,0,1-3.62,15A20.81,20.81,0,0,1,157,162.52a20.28,20.28,0,0,1-8.47-1.12c-2.52-.94-3.83-2.18-3.95-3.71q-1.09-16.11-1.09-30.95,0-5.49.24-7.84,1.51-3.25,9.71-3.26a28.57,28.57,0,0,1,8.27,1.09,18.43,18.43,0,0,1,6.88,5.79A23.23,23.23,0,0,1,173.66,136.76Zm-15.08-5.43a2.24,2.24,0,0,0-1.63-1,2.32,2.32,0,0,0-.9.24,3.77,3.77,0,0,1-.61.24,117.65,117.65,0,0,1,.85,14.24,9.17,9.17,0,0,0,2.93-3.56,10.61,10.61,0,0,0,1.17-4.76A8.25,8.25,0,0,0,158.58,131.33Z" style="fill:#fff"/><path d="M212.15,117.87q2.29,1.63,2.29,6.34,0,10.14-9.95,32.82a10.17,10.17,0,0,1-8.14,6.39,9.15,9.15,0,0,1-1.33.12,13.87,13.87,0,0,1-5.73-1.21,8.72,8.72,0,0,1-4-3.19,50.36,50.36,0,0,1-6.22-15.2,62.52,62.52,0,0,1-1.87-14.6,25.17,25.17,0,0,1,.73-7.18,7,7,0,0,1,3.5-4.1,7.92,7.92,0,0,1,4.28-1.09,6.34,6.34,0,0,1,5.73,3.44q1.38,2.84,2.29,11.28l.79,7.54q.48-4.35,1.56-12.88t4.41-10.11a10.77,10.77,0,0,1,4.64-1A9.84,9.84,0,0,1,212.15,117.87Z" style="fill:#fff"/><path d="M244.85,133.92a5.84,5.84,0,0,1,.18,1.87,6.75,6.75,0,0,1-2.6,5.37,6.39,6.39,0,0,1-5.06,1.75,4.8,4.8,0,0,0-1.81-.06,16.86,16.86,0,0,1-.43,3.86,2.35,2.35,0,0,0,1.27,2.17,6.27,6.27,0,0,1,4,0,3.83,3.83,0,0,1,2.72,3.26,7.73,7.73,0,0,1-1.51,5.28,14.5,14.5,0,0,1-5,4.49,13.16,13.16,0,0,1-6.69,1.63,14.17,14.17,0,0,1-6.1-1.27,13,13,0,0,1-3.43-3.37q-2.47-4.11-2.54-17.32a122.57,122.57,0,0,1,1.27-17.37c.52-3.78,1.61-6.24,3.26-7.36l10.07-1a24.31,24.31,0,0,1,5-.54q4.69,0,5.55,2.35a6.21,6.21,0,0,1,.36,2.17,5.28,5.28,0,0,1-1.93,4.23,8.12,8.12,0,0,1-5.37,1.63h-1.33a7.73,7.73,0,0,0-.48,2.87c-.08,1.67-.14,2.63-.18,2.87a1.44,1.44,0,0,0,1.27,1.07,6.87,6.87,0,0,1,4.4-1.38A6.13,6.13,0,0,1,244.85,133.92Z" style="fill:#fff"/><path d="M284.36,127.65v-.06q.6,7,.6,13.21,0,19.13-6.33,21.47a6.13,6.13,0,0,1-2.23.37,16.5,16.5,0,0,1-3.92-.61q-3-1.68-9.23-19.36a40.59,40.59,0,0,1,1.08,9.2,18.3,18.3,0,0,1-1.45,8,5.57,5.57,0,0,1-2.38,2.39,5.27,5.27,0,0,1-3.29.82c-3.33-.32-5.61-2.36-6.81-6.1q-1.22-3.75-1.21-11.6,0-15.29,1.27-20.54a11.14,11.14,0,0,1,4.4-6.46,7.4,7.4,0,0,1,4.47-1.45,8.78,8.78,0,0,1,2.65.42q3.5,1.88,6.88,11.16a76,76,0,0,1,2.59,8.87c-.4-2.65-.74-5-1-7a63.21,63.21,0,0,1-.73-7.78,7.49,7.49,0,0,1,1.57-4.89,6.26,6.26,0,0,1,5.13-2.23q5.85,0,7.3,6.52A55.1,55.1,0,0,1,284.36,127.65Z" style="fill:#fff"/><path d="M322.31,123.18h.06a12.57,12.57,0,0,1,.18,2.36,7,7,0,0,1-1.45,4.58q-.54.6-4.86,1.42c-2.87.54-4.35.89-4.43,1.05q-.12.67,1.39,12.61a39.14,39.14,0,0,1,.3,4.83,24.16,24.16,0,0,1-1.45,9.05q-1.82,4.46-5.31,4.34-5.67-.18-7.9-3.56-1.69-2.54-1.75-8,0,.48.24-6.34l.3-7.72a46,46,0,0,1,.79-6.27,3.72,3.72,0,0,1-1.09.12,13.31,13.31,0,0,1-4.1-.66,6.5,6.5,0,0,1-3.8-2.66,9.24,9.24,0,0,1-1.45-4.64q0-3.63,4-5.61a27.13,27.13,0,0,1,12.37-2.6,46.71,46.71,0,0,1,8,.72c1.33.49,3.34,1.23,6,2.24A6.89,6.89,0,0,1,322.31,123.18Z" style="fill:#fff"/><path d="M361.52,122.52l.06-.06q.24,2.83.24,6.33a72.52,72.52,0,0,1-4.4,25.58,16.11,16.11,0,0,1-3.59,5.58,11.93,11.93,0,0,1-5.1,3.29,33.54,33.54,0,0,1-4.83.36,19.17,19.17,0,0,1-11.22-3.14,15.53,15.53,0,0,1-6.09-8.38,38.16,38.16,0,0,1-1.33-11.34,65.67,65.67,0,0,1,2.11-18.1,8,8,0,0,1,2.87-4,8.6,8.6,0,0,1,4.43-2,6.09,6.09,0,0,1,3.83,1,7.27,7.27,0,0,1,2.81,3,24.91,24.91,0,0,1,.18,3.08,66.82,66.82,0,0,1-1.09,8.5,69.1,69.1,0,0,0-1.08,8.39,19.06,19.06,0,0,0,.24,3.2,4.52,4.52,0,0,0,2,2.05,3.65,3.65,0,0,0,2.84-.49,7.92,7.92,0,0,0,1.93-4.46c-.05-2.78,0-6.29.18-10.56q.6-5.19.78-6.39a26.41,26.41,0,0,1,1.15-5.25q2.16-3.5,4.94-3.44a7.29,7.29,0,0,1,4.77,2A12.74,12.74,0,0,1,361.52,122.52Z" style="fill:#fff"/><path d="M399.89,156.85h-.07a12.41,12.41,0,0,1-2.83,3.68,9.54,9.54,0,0,1-5.25,2.65q-5.13.54-10.5-10.44a24.11,24.11,0,0,1,.19,2.69,8.81,8.81,0,0,1-1.81,5.84,9.76,9.76,0,0,1-5.55,1.91,9.09,9.09,0,0,1-2.18-.24q-3.56-.9-4.64-2.29-1.46-1.8-1.45-6.5v-2.4q-.18-.18.12-10.78a147.45,147.45,0,0,1,1.39-18.23q.78-4.51,6.39-6.2A69.35,69.35,0,0,1,384.14,115q9.23.3,12.67,6.15a25.92,25.92,0,0,1,2.53,10.74,13.4,13.4,0,0,1-2.71,8.38,42,42,0,0,1-3.44,3.2q6.81,7.37,6.82,12.31A7.46,7.46,0,0,1,399.89,156.85Zm-17.26-28.12h-.06a2,2,0,0,0-.6-.12,8.65,8.65,0,0,0-1.87.85,8.72,8.72,0,0,0-.18,3.07q.06,3.33.06,6.28a10.84,10.84,0,0,0,3.89-2.26,4.3,4.3,0,0,0,1.6-3.11Q385.47,131.2,382.63,128.73Z" style="fill:#fff"/><path d="M430.83,133.92a5.84,5.84,0,0,1,.18,1.87,6.74,6.74,0,0,1-2.59,5.37,6.42,6.42,0,0,1-5.07,1.75,4.77,4.77,0,0,0-1.81-.06,17.21,17.21,0,0,1-.42,3.86,2.33,2.33,0,0,0,1.27,2.17,6.27,6.27,0,0,1,4,0,3.82,3.82,0,0,1,2.71,3.26,7.77,7.77,0,0,1-1.5,5.28,14.5,14.5,0,0,1-5,4.49,13.17,13.17,0,0,1-6.7,1.63,14.15,14.15,0,0,1-6.09-1.27,13,13,0,0,1-3.44-3.37q-2.47-4.11-2.53-17.32a123.93,123.93,0,0,1,1.26-17.37c.53-3.78,1.61-6.24,3.26-7.36l10.08-1a24.14,24.14,0,0,1,4.94-.54q4.71,0,5.55,2.35a6.21,6.21,0,0,1,.36,2.17,5.28,5.28,0,0,1-1.93,4.23,8.08,8.08,0,0,1-5.36,1.63H420.7a7.73,7.73,0,0,0-.48,2.87c-.09,1.67-.15,2.63-.19,2.87a1.46,1.46,0,0,0,1.27,1.07,6.92,6.92,0,0,1,4.41-1.38A6.1,6.1,0,0,1,430.83,133.92Z" style="fill:#fff"/><path d="M113,166.75a19.8,19.8,0,0,1-4.78-.69,3,3,0,0,1-1.14-.56c-4.25-2.34-6.41-7.42-6.41-15.11,0-.51,0-1.59.13-3.29a91,91,0,0,1,1.82-15.38,39.3,39.3,0,0,1,6.94-14.78c3-3.87,7.25-5.84,12.73-5.84,5.76,0,10.22,1.9,13.27,5.65a18.83,18.83,0,0,1,3.66,7.38,93.64,93.64,0,0,1,3.41,23.12,59.94,59.94,0,0,1-1,11.05,2.17,2.17,0,0,1,0,.25,7.33,7.33,0,0,1-5.83,6,16.74,16.74,0,0,1-3.84.44,10.87,10.87,0,0,1-6.64-2,2.84,2.84,0,0,1-.6-.6,16.93,16.93,0,0,1-1.9-2.83,10.39,10.39,0,0,1-.48-1.18,15.23,15.23,0,0,1-1.51,4.24,2.5,2.5,0,0,1-.21.35A8.89,8.89,0,0,1,113,166.75Zm-2.77-6.44a13,13,0,0,0,2.77.38,2.88,2.88,0,0,0,2.54-1,8.24,8.24,0,0,0,.94-3.37c-.08-.68-.14-1-.17-1.13a3,3,0,0,1,.49-2.42,3.05,3.05,0,0,1,2.12-1.25,36.15,36.15,0,0,1,6-.26,3,3,0,0,1,2.88,3,6.17,6.17,0,0,0,.46,2.69.31.31,0,0,1,.06.13h0s.19.32.91,1.29a5.51,5.51,0,0,0,2.72.59,10.17,10.17,0,0,0,2.43-.28c.88-.21,1.13-.51,1.26-1.09a1.18,1.18,0,0,1,0-.21,54.07,54.07,0,0,0,.91-10.11,88,88,0,0,0-3.22-21.61,12.71,12.71,0,0,0-2.49-5.06c-1.87-2.3-4.67-3.41-8.57-3.41-3.54,0-6.13,1.13-7.91,3.45a33.34,33.34,0,0,0-5.86,12.49,85.84,85.84,0,0,0-1.67,14.3c-.1,2.06-.11,2.75-.11,3,0,3.74.59,8.49,3.44,9.89Zm28.4-2.32h0Zm-17.67-12.41a4.07,4.07,0,0,1-3.79-2.44,3.18,3.18,0,0,1-.19-.57c-.16-.7-.25-1.75.36-7.4.25-2.18.64-5,1.16-8.46a3,3,0,0,1,1-1.85c2-1.75,4.18-1.34,5.38-.15a3,3,0,0,1,.87,1.85,93.64,93.64,0,0,1,.61,15.83,3,3,0,0,1-2.79,2.76c-.16,0-.42.08-.77.15A9.3,9.3,0,0,1,120.94,145.58Zm2.6-.43h0Z" style="fill:url(#New_Gradient_Swatch-13)"/><path d="M155.34,165.6a22.57,22.57,0,0,1-7.93-1.36c-4.61-1.73-5.75-4.39-5.91-6.31-.72-10.79-1.09-21.28-1.09-31.19,0-3.8.08-6.47.26-8.15a2.91,2.91,0,0,1,.26-1c2.32-5,10-5,12.46-5a31.75,31.75,0,0,1,9.14,1.22,2.74,2.74,0,0,1,.4.15,21.57,21.57,0,0,1,8,6.7,26.3,26.3,0,0,1,5.74,16.08,34.25,34.25,0,0,1-4,16.46,23.82,23.82,0,0,1-14.93,12.21,2.68,2.68,0,0,1-.63.11C156.54,165.58,155.94,165.6,155.34,165.6Zm1.61-3.08h0Zm-9.41-5.11a4.54,4.54,0,0,0,2,1.15,17,17,0,0,0,6.89.95,17.72,17.72,0,0,0,10.94-9.16,28.2,28.2,0,0,0,3.26-13.59,20.05,20.05,0,0,0-4.51-12.41,15.7,15.7,0,0,0-5.54-4.78,26.41,26.41,0,0,0-7.19-.9c-4.7,0-6.27.86-6.76,1.28-.1,1.51-.16,3.79-.16,6.79C146.47,136.49,146.83,146.81,147.54,157.41Zm8.75-9.36a3,3,0,0,1-3-3,118.25,118.25,0,0,0-.81-13.83,3,3,0,0,1,.69-2.44,3.12,3.12,0,0,1,1.42-.93l.26-.11c2.4-1.07,4.4-.44,6.1,1.63l0,0a11.23,11.23,0,0,1,2.48,7.28,13.66,13.66,0,0,1-1.49,6.12,12.24,12.24,0,0,1-3.92,4.7A3.06,3.06,0,0,1,156.29,148.05Zm-.86-20.3Zm0,0Zm0,0Z" style="fill:url(#New_Gradient_Swatch-14)"/><path d="M195,166.57a16.92,16.92,0,0,1-7-1.47,11.66,11.66,0,0,1-5.31-4.34,53.57,53.57,0,0,1-6.6-16.1,65.47,65.47,0,0,1-2-15.32,28.16,28.16,0,0,1,.87-8.12,10.06,10.06,0,0,1,4.95-5.84,11.11,11.11,0,0,1,5.89-1.44,9.29,9.29,0,0,1,8.26,5.09c.1.2.2.42.29.65,1.08-3.17,2.64-5.17,4.76-6.18a13.89,13.89,0,0,1,5.94-1.31,12.82,12.82,0,0,1,8.93,3.34c2.25,1.71,3.4,4.62,3.4,8.68,0,7.25-3.34,18.38-10.21,34a13.26,13.26,0,0,1-10.45,8.17A11.47,11.47,0,0,1,195,166.57ZM185.36,120a5.37,5.37,0,0,0-2.47.73,4.07,4.07,0,0,0-2.07,2.4,22.33,22.33,0,0,0-.57,6.22A59.08,59.08,0,0,0,182,143.22a47.58,47.58,0,0,0,5.82,14.29,5.84,5.84,0,0,0,2.66,2.05,10.79,10.79,0,0,0,4.5.95,5.43,5.43,0,0,0,.86-.09,7.17,7.17,0,0,0,5.84-4.61c6.43-14.67,9.69-25.3,9.69-31.6,0-2-.37-3.41-1-3.87a2,2,0,0,1-.32-.25,6.85,6.85,0,0,0-4.93-1.84,7.63,7.63,0,0,0-3.35.74c-.18.08-1.84,1.05-2.69,7.74-.73,5.77-1.24,10-1.56,12.83a3,3,0,0,1-3,2.7h0a3,3,0,0,1-3-2.72l-.78-7.54c-.74-6.87-1.57-9.38-2-10.26s-1.1-1.62-3.19-1.74Z" style="fill:url(#New_Gradient_Swatch-15)"/><path d="M230,166.57a17.33,17.33,0,0,1-7.38-1.55c-1.26-.59-2.6-1.85-4.51-4.22a2.62,2.62,0,0,1-.24-.34c-2-3.28-2.93-9.28-3-18.86a127.13,127.13,0,0,1,1.29-17.8c.66-4.72,2.15-7.81,4.56-9.45a3,3,0,0,1,1.4-.52l9.92-1a27.28,27.28,0,0,1,5.41-.57c5.65,0,7.69,2.37,8.4,4.36a9.2,9.2,0,0,1,.54,3.19,8.3,8.3,0,0,1-3,6.54,9.22,9.22,0,0,1-3.12,1.73,9.18,9.18,0,0,1,7.06,4.07,3,3,0,0,1,.48,1,8.9,8.9,0,0,1,.28,2.73,9.81,9.81,0,0,1-3.68,7.6,10,10,0,0,1-4.06,2.21,6.32,6.32,0,0,1,1.3.4,6.77,6.77,0,0,1,4.55,5.73,10.62,10.62,0,0,1-2,7.29,17.65,17.65,0,0,1-6,5.44A16.28,16.28,0,0,1,230,166.57Zm-7-9.4a11.75,11.75,0,0,0,2.28,2.39,11.27,11.27,0,0,0,4.75.95,10.21,10.21,0,0,0,5.18-1.23,11.57,11.57,0,0,0,4-3.56,4.85,4.85,0,0,0,1-3.23c0-.26-.05-.49-.81-.78a3.28,3.28,0,0,0-2.15.1,3,3,0,0,1-2.29-.3,5.39,5.39,0,0,1-2.8-4.8,3.05,3.05,0,0,1,.05-.52,23.18,23.18,0,0,0,.4-3,3,3,0,0,1,.61-2.22,3.06,3.06,0,0,1,2.12-1.16,8.39,8.39,0,0,1,2.63.08,3.46,3.46,0,0,0,2.53-1,3.79,3.79,0,0,0,1.56-3.09v-.19a2.54,2.54,0,0,0,0-.39,2.85,2.85,0,0,0-2.28-1.09,3.92,3.92,0,0,0-2.52.73,3,3,0,0,1-2.54.58,4.39,4.39,0,0,1-3.57-3.39,3.12,3.12,0,0,1,0-1.14s0-.44.14-2.52a10.2,10.2,0,0,1,.77-4,3,3,0,0,1,2.74-1.73H236a5.27,5.27,0,0,0,3.42-.92,2.25,2.25,0,0,0,.85-1.91,3.24,3.24,0,0,0-.15-1,5.6,5.6,0,0,0-2.73-.44,21.17,21.17,0,0,0-4.33.48l-.31,0-9.09.92c-.46.61-1.15,1.95-1.55,4.86a121,121,0,0,0-1.24,16.94C221,151.92,222.15,155.76,222.92,157.17Zm9.63-13.91s0,.06,0,.08S232.56,143.29,232.55,143.26Zm7.59-24.56Z" style="fill:url(#New_Gradient_Swatch-16)"/><path d="M257.7,166.12a7.7,7.7,0,0,1-.83-.05c-3.14-.3-7.36-2-9.36-8.18-.91-2.83-1.35-6.92-1.35-12.53,0-10.53.44-17.48,1.35-21.25a14.21,14.21,0,0,1,5.55-8.19,10.43,10.43,0,0,1,6.27-2,11.93,11.93,0,0,1,3.57.56,3.27,3.27,0,0,1,.51.22,11.85,11.85,0,0,1,4,3.8,9.68,9.68,0,0,1,1.54-2.68,9.26,9.26,0,0,1,7.48-3.35c5.34,0,9,3.16,10.26,8.89a52,52,0,0,1,.7,5.83,1.1,1.1,0,0,1,0,.18c.41,4.73.62,9.27.62,13.47,0,14.48-2.64,22.21-8.31,24.32a9.54,9.54,0,0,1-3.29.55,19.56,19.56,0,0,1-4.66-.7,2.78,2.78,0,0,1-.74-.29c-1.16-.65-2.52-2-4.49-5.85a15.11,15.11,0,0,1-.9,2.35,8.62,8.62,0,0,1-3.59,3.68A8.48,8.48,0,0,1,257.7,166.12Zm1.63-46.18a4.34,4.34,0,0,0-2.68.87,8.12,8.12,0,0,0-3.25,4.74c-.78,3.24-1.18,9.91-1.18,19.81,0,4.9.36,8.49,1.06,10.67,1.06,3.28,2.73,3.87,4.23,4a2.33,2.33,0,0,0,1.47-.42,3,3,0,0,0,1.17-1.07,15.63,15.63,0,0,0,1.15-6.68,37.44,37.44,0,0,0-1-8.51,3,3,0,0,1,5.82-1.7c4.73,13.46,7,16.78,7.72,17.58a12.14,12.14,0,0,0,2.57.37,3.49,3.49,0,0,0,1.17-.17c1-.39,4.36-2.85,4.36-18.64,0-4-.19-8.24-.57-12.72,0-.06,0-.12,0-.18-.3-3.55-.51-4.83-.6-5.28-.77-3.42-2.29-4.13-4.34-4.13a3.21,3.21,0,0,0-2.78,1.11,4.55,4.55,0,0,0-.89,3,62.81,62.81,0,0,0,.7,7.37q.42,3,1,7a3,3,0,0,1-5.95,1.15,71.5,71.5,0,0,0-2.49-8.5c-2.47-6.81-4.38-8.82-5.25-9.42A5.46,5.46,0,0,0,259.33,119.94Z" style="fill:url(#New_Gradient_Swatch-17)"/><path d="M306.91,166.45h-.27c-4.8-.15-8.28-1.81-10.33-4.92-1.47-2.19-2.2-5.36-2.25-9.65v0a1.83,1.83,0,0,1,0-.33c0-.39.07-1.76.22-6.11l.3-7.74c.08-1.13.17-2.19.29-3.19a16.82,16.82,0,0,1-2.59-.62,9.43,9.43,0,0,1-5.49-4,12.32,12.32,0,0,1-1.86-6.17c0-2.51,1-6,5.66-8.33a30.25,30.25,0,0,1,13.72-2.91,49.68,49.68,0,0,1,8.48.77,2.35,2.35,0,0,1,.52.14q2,.72,6.05,2.24a2.07,2.07,0,0,1,.34.15,10,10,0,0,1,5.39,6.16,3.19,3.19,0,0,1,.23.7,15.25,15.25,0,0,1,.24,3,10,10,0,0,1-2.21,6.59c-.83.92-2.06,1.54-6.56,2.39-.73.13-1.32.25-1.8.35.18,1.69.53,4.68,1.19,9.95a41.42,41.42,0,0,1,.33,5.21,27.29,27.29,0,0,1-1.67,10.19C312.69,165.58,309.05,166.45,306.91,166.45Zm-6.8-14.83a1.09,1.09,0,0,1,0,.18c0,4,.8,5.71,1.24,6.38.35.52,1.37,2.08,5.48,2.21.42,0,1.39.05,2.4-2.45a21.27,21.27,0,0,0,1.23-7.91,36.92,36.92,0,0,0-.28-4.45c-1.57-12.41-1.48-12.88-1.36-13.53a2.76,2.76,0,0,1,.27-.81c.79-1.59,2-1.82,6.58-2.68a31,31,0,0,0,3.38-.78,5.24,5.24,0,0,0,.46-2.31,12.34,12.34,0,0,0-.06-1.25,3.19,3.19,0,0,1-.13-.44c-.13-.67-.51-1.65-2.25-2.59-2.43-.91-4.28-1.59-5.57-2.06a43.57,43.57,0,0,0-7.18-.64,24.39,24.39,0,0,0-11,2.27c-2.32,1.16-2.32,2.34-2.32,2.91a6.45,6.45,0,0,0,1,3.11,3.85,3.85,0,0,0,2.13,1.3,10.3,10.3,0,0,0,3.16.52h.27a3,3,0,0,1,3.79,3.52,43.8,43.8,0,0,0-.73,5.87l-.3,7.64c-.07,2.12-.13,3.71-.17,4.77C300.17,150.77,300.16,151.2,300.11,151.62Zm13-16.3Zm-15.54-6.71-.08,0Z" style="fill:url(#New_Gradient_Swatch-18)"/><path d="M343.9,166.63A22.28,22.28,0,0,1,331,163a18.64,18.64,0,0,1-7.25-10,40.81,40.81,0,0,1-1.47-12.27,69,69,0,0,1,2.23-19,11.16,11.16,0,0,1,3.89-5.51,11.74,11.74,0,0,1,6-2.63,9.09,9.09,0,0,1,5.76,1.44,10.25,10.25,0,0,1,3.94,4.3,3.18,3.18,0,0,1,.28.94c.07.63.13,1.27.16,1.93a25.48,25.48,0,0,1,1.1-4.53,2.81,2.81,0,0,1,.27-.55c2.55-4.1,5.53-4.92,7.59-4.87a10.27,10.27,0,0,1,6.71,2.76,15.14,15.14,0,0,1,3.92,5.67,3,3,0,0,1,.53,1.46c.17,2,.25,4.19.25,6.59a75.75,75.75,0,0,1-4.6,26.64,19,19,0,0,1-4.25,6.64,15,15,0,0,1-6.41,4.08l-.42.09A36.78,36.78,0,0,1,343.9,166.63Zm-8.72-47-.23,0a5.75,5.75,0,0,0-2.83,1.34,5.11,5.11,0,0,0-1.84,2.47,62.94,62.94,0,0,0-2,17.24,35.77,35.77,0,0,0,1.18,10.41,12.53,12.53,0,0,0,4.92,6.81,16.33,16.33,0,0,0,9.51,2.61,29.85,29.85,0,0,0,4.16-.3,9.28,9.28,0,0,0,3.6-2.43,13.12,13.12,0,0,0,2.92-4.53,69.87,69.87,0,0,0,4.21-24.52c0-1.95-.06-3.76-.18-5.39a9.57,9.57,0,0,0-2.49-3.8,4.21,4.21,0,0,0-2.82-1.23c-.81,0-1.56.88-2.13,1.74a27.54,27.54,0,0,0-.89,4.34c-.08.56-.28,2.07-.76,6.2-.15,4.14-.21,7.6-.17,10.28a3.15,3.15,0,0,1,0,.44,10.85,10.85,0,0,1-2.71,6.14l-.25.24a6.53,6.53,0,0,1-5.17,1.19,3,3,0,0,1-1.25-.45,7.27,7.27,0,0,1-3.24-3.61,2.85,2.85,0,0,1-.13-.48,22,22,0,0,1-.28-3.72,60.44,60.44,0,0,1,1.12-8.89,62.41,62.41,0,0,0,1-8,21.1,21.1,0,0,0-.1-2.15,4.43,4.43,0,0,0-1.45-1.4A3.31,3.31,0,0,0,335.18,119.67Zm7.29,23.18.07.05a5.3,5.3,0,0,0,.74-2.11c0-2.19,0-4.85.1-7.91a60.68,60.68,0,0,0-1,7.8A17.71,17.71,0,0,0,342.47,142.85Z" style="fill:url(#New_Gradient_Swatch-19)"/><path d="M391.24,166.24c-2.85,0-5.55-1.57-8.15-4.73a9.53,9.53,0,0,1-1.16,1.71,2.87,2.87,0,0,1-.6.55,12.72,12.72,0,0,1-7.26,2.44,12.05,12.05,0,0,1-2.91-.33c-3.12-.79-5.12-1.86-6.3-3.36-1.42-1.77-2.09-4.44-2.09-8.37v-2.24c-.15-1.5-.07-4.44.12-11a151.06,151.06,0,0,1,1.43-18.64c.51-2.93,2.39-6.77,8.51-8.61a71.33,71.33,0,0,1,11-1.68,2.67,2.67,0,0,1,.4,0c7.23.24,12.34,2.81,15.18,7.64.06.1.11.21.16.31a29,29,0,0,1,2.79,12A16.48,16.48,0,0,1,399,142.13a14.72,14.72,0,0,1-1.57,1.58c3.76,4.55,5.6,8.51,5.6,12a9.74,9.74,0,0,1-.16,1.58,3.21,3.21,0,0,1-.59,1.36,16.1,16.1,0,0,1-3.23,4,12.45,12.45,0,0,1-7,3.46A7.89,7.89,0,0,1,391.24,166.24Zm-10-16.53a3,3,0,0,1,2.73,1.7c3.27,6.69,6,8.91,7.45,8.75a6.54,6.54,0,0,0,3.53-1.88,9.62,9.62,0,0,0,2-2.51v0c0-1.7-1-4.86-6-10.23a3.06,3.06,0,0,1-.8-2.21,3,3,0,0,1,1-2.12c2.52-2.22,3-2.75,3.08-2.83a10.4,10.4,0,0,0,2-6.52,23,23,0,0,0-2.2-9.3c-1.74-2.84-5-4.32-9.87-4.51a61.75,61.75,0,0,0-9.68,1.43c-3.41,1-4.07,2.66-4.26,3.81A146.48,146.48,0,0,0,369,141.07c-.21,7.51-.2,9.55-.17,10.1a3.68,3.68,0,0,1,.05.58v2.4c0,3.46.65,4.44.78,4.6s.57.63,3,1.25a5.86,5.86,0,0,0,1.43.15,6.43,6.43,0,0,0,3.45-1.13,6.35,6.35,0,0,0,.87-3.59,20.08,20.08,0,0,0-.16-2.34,3,3,0,0,1,2.16-3.26A3.12,3.12,0,0,1,381.24,149.71Zm18.65,7.14h0Zm-31.9-7.2Zm0,0h0Zm0,0Zm0,0Zm0,0h0Zm0,0Zm0,0Zm0,0h0Zm0,0Zm0,0Zm0,0h0Zm0,0Zm0,0Zm0,0h0Zm12-7.76a3,3,0,0,1-3-3q0-2.94-.06-6.22c-.07-2.93,0-4.22,1.06-5.28a3.37,3.37,0,0,1,.75-.55c1.75-.9,2.43-1.18,3.27-1.18a4.85,4.85,0,0,1,1.36.21,3.15,3.15,0,0,1,1.3.66c2.57,2.24,3.87,4.59,3.87,7a7.19,7.19,0,0,1-2.57,5.33,14,14,0,0,1-5,2.91A3,3,0,0,1,380,141.84Z" style="fill:url(#New_Gradient_Swatch-20)"/><path d="M415.93,166.57a17.25,17.25,0,0,1-7.37-1.55c-1.26-.59-2.61-1.85-4.52-4.22a4,4,0,0,1-.23-.34c-2-3.28-2.93-9.28-3-18.86a125.63,125.63,0,0,1,1.29-17.8c.65-4.72,2.14-7.81,4.55-9.45a3,3,0,0,1,1.4-.52l9.92-1a27.28,27.28,0,0,1,5.41-.57c5.65,0,7.69,2.37,8.41,4.36a9.2,9.2,0,0,1,.54,3.19,8.3,8.3,0,0,1-3,6.54,9.27,9.27,0,0,1-3.13,1.73,9.19,9.19,0,0,1,7.07,4.07,2.83,2.83,0,0,1,.47,1,8.61,8.61,0,0,1,.28,2.73,9.77,9.77,0,0,1-3.67,7.6,10,10,0,0,1-4.06,2.21,6.32,6.32,0,0,1,1.3.4,6.79,6.79,0,0,1,4.55,5.73,10.67,10.67,0,0,1-2,7.29,17.69,17.69,0,0,1-6,5.44A16.22,16.22,0,0,1,415.93,166.57Zm-7-9.4a12.54,12.54,0,0,0,2.28,2.39,11.34,11.34,0,0,0,4.75.95,10.25,10.25,0,0,0,5.19-1.23,11.44,11.44,0,0,0,4-3.56,4.74,4.74,0,0,0,1-3.23c0-.26-.05-.49-.8-.78a3.32,3.32,0,0,0-2.16.1,3,3,0,0,1-2.29-.3,5.4,5.4,0,0,1-2.79-4.8,3,3,0,0,1,0-.52,21.06,21.06,0,0,0,.4-3,3,3,0,0,1,2.74-3.38,8.39,8.39,0,0,1,2.63.08,3.46,3.46,0,0,0,2.53-1,3.78,3.78,0,0,0,1.55-3.09,1.28,1.28,0,0,1,0-.19,2.54,2.54,0,0,0,0-.39,2.87,2.87,0,0,0-2.28-1.09,3.92,3.92,0,0,0-2.52.73,3.05,3.05,0,0,1-2.54.58,4.4,4.4,0,0,1-3.58-3.39,3.12,3.12,0,0,1,0-1.14s0-.44.15-2.52a10,10,0,0,1,.77-4,3,3,0,0,1,2.74-1.73H422a5.24,5.24,0,0,0,3.41-.92,2.22,2.22,0,0,0,.85-1.91,3.24,3.24,0,0,0-.15-1,5.56,5.56,0,0,0-2.73-.44,21.07,21.07,0,0,0-4.32.48l-.32,0-9.08.92c-.47.61-1.15,1.95-1.55,4.86a121,121,0,0,0-1.24,16.94C407,151.92,408.14,155.76,408.9,157.17Zm9.64-13.91s0,.06,0,.08S418.54,143.29,418.54,143.26Zm7.58-24.56Z" style="fill:url(#New_Gradient_Swatch-21)"/></g></svg>