<svg xmlns="http://www.w3.org/2000/svg" xmlns:xlink="http://www.w3.org/1999/xlink" width="511" height="332" viewBox="0 0 511 332"><defs><linearGradient id="a" x1="50%" x2="47.109%" y1="65.77%" y2="-23.913%"><stop offset="0" stop-color="#d2981c"/><stop offset="1" stop-color="#ffce5b"/></linearGradient><path id="b" d="m14.1218243 7.51449691h20.8200952c9.8984385 2.59010539 20.3539288 5.15494529 31.3664711 7.69451989 10.9885374-3.5030713 27.5039123-11.2090168 42.9395954-11.2090168 8.227989 3.19001938 18.674301 6.9263583 31.338936 11.2090168 28.879301-3.2603377 49.551646-4.8905066 62.017035-4.8905066 11.964261 1.5172538 24.320338 3.1474227 37.06823 4.8905066l93.915222-7.69451989h69.476871 93.528985c3.97645-.00000012 7.2 3.22354969 7.2 7.19999999 0 .3619932-.0273.723471-.081667 1.0813583-5.021892 33.0579609-7.532838 59.4615368-7.532838 79.2107277 0 21.3714901 2.940413 50.5846131 8.82124 87.6393671l-8.82124 98.571955 6.181791 23.048371c1.030113 3.840706-1.248322 7.789285-5.089028 8.819399-.791067.212171-1.612537.287815-2.429048.223673l-66.408708-5.216764-80.99478 6.014693-139.985198 9.286884c-39.22245-8.747296-74.679594-13.847821-106.371432-15.301577-28.6397298-1.313751-57.5535439.197053-86.741442 4.532413l.0000003.000002c-3.9332997.584224-7.59547613-2.130739-8.17970005-6.064038-.08961933-.603364-.10220124-1.215671-.03744338-1.822207 2.96826751-27.801439 4.45240123-68.887669 4.45240123-123.258691 0-36.325423 7.7421249-73.076949 6.4172057-107.3648873-.4785305-12.3840164-3.7726514-31.637679-9.88236266-57.7609878-.90557926-3.8719641 1.499156-7.74492496 5.37112136-8.650499.5375027-.12571097 1.0876792-.18919199 1.6396868-.18919199z"/><filter id="c" width="103.7%" height="106.1%" x="-1.7%" y="-2.4%"><feMorphology in="SourceAlpha" operator="dilate" radius="1.2" result="shadowSpreadOuter1"/><feOffset dx="0" dy="2" in="shadowSpreadOuter1" result="shadowOffsetOuter1"/><feGaussianBlur in="shadowOffsetOuter1" result="shadowBlurOuter1" stdDeviation="2.5"/><feComposite in="shadowBlurOuter1" in2="SourceAlpha" operator="out" result="shadowBlurOuter1"/><feColorMatrix in="shadowBlurOuter1" type="matrix" values="0 0 0 0 0.0062833811 0 0 0 0 0.0133333518 0 0 0 0 0.0214277627 0 0 0 0.368771853 0"/></filter></defs><g fill="none" fill-rule="evenodd" stroke-linejoin="round"><use fill="#000" filter="url(#c)" xlink:href="#b"/><use fill="#ebbd5c" fill-rule="evenodd" stroke="url(#a)" stroke-width="2.4" xlink:href="#b"/></g></svg>