<svg xmlns="http://www.w3.org/2000/svg" id="Layer_1" data-name="Layer 1" viewBox="0 0 999.15 347.91"><title>mycryptosummer__logo--4</title><path d="M692.09,288.2a10.43,10.43,0,0,1,4.37-8.52,17.18,17.18,0,0,1,10.92-3.42,17.84,17.84,0,0,1,10.62,3,11.19,11.19,0,0,1,4.81,8h-6.46a6.56,6.56,0,0,0-3-4,11,11,0,0,0-6-1.48,10.73,10.73,0,0,0-6.16,1.69,5.13,5.13,0,0,0-2.51,4.43,4.26,4.26,0,0,0,1.75,3.48,13.87,13.87,0,0,0,5.36,2.26l6.31,1.52c3.85.94,6.73,2.29,8.61,4.05a9.21,9.21,0,0,1,2.84,7.06,10.61,10.61,0,0,1-4.72,8.95,19.29,19.29,0,0,1-11.71,3.44q-6.84,0-11.22-3a10.92,10.92,0,0,1-4.9-8.14h6.73a7.46,7.46,0,0,0,3.27,4.13,11.69,11.69,0,0,0,6.35,1.54,11.88,11.88,0,0,0,6.8-1.79,5.35,5.35,0,0,0,2.67-4.6,4.53,4.53,0,0,0-1.62-3.55A11.49,11.49,0,0,0,710.3,301l-7-1.71q-5.74-1.41-8.46-4A9.35,9.35,0,0,1,692.09,288.2ZM765.21,277v41H759v-6.42h-.61a11.19,11.19,0,0,1-4.75,5.28,15.74,15.74,0,0,1-8,1.86q-6.88,0-10.44-3.95t-3.56-11.22V277h6.55v24.94c0,3.68.72,6.4,2.18,8.16s3.82,2.64,7.09,2.64q5.44,0,8.31-3c1.92-2,2.87-4.84,2.87-8.44V277Zm10.58,41V277H782v6.46h.61a11.12,11.12,0,0,1,4.37-5.3,12.9,12.9,0,0,1,7.08-1.88,12,12,0,0,1,7,2,12.16,12.16,0,0,1,4.28,5.19H806a12.71,12.71,0,0,1,5-5.23,14.64,14.64,0,0,1,7.57-1.95q6.27,0,9.66,3.46t3.38,9.92V318h-6.54V291.16q0-4.52-2.15-6.77t-6.48-2.24a9.06,9.06,0,0,0-6.89,2.78,9.42,9.42,0,0,0-2.62,6.69V318h-6.54V290.14a7.54,7.54,0,0,0-2.34-5.82,9.46,9.46,0,0,0-13,.87,10.63,10.63,0,0,0-2.74,7.38V318Zm66,0V277H848v6.46h.61a11.06,11.06,0,0,1,4.37-5.3,12.89,12.89,0,0,1,7.07-1.88,12.09,12.09,0,0,1,7.06,2,12.23,12.23,0,0,1,4.28,5.19h.6a12.8,12.8,0,0,1,5-5.23,14.58,14.58,0,0,1,7.56-1.95q6.28,0,9.66,3.46t3.39,9.92V318h-6.54V291.16q0-4.52-2.15-6.77t-6.49-2.24a9,9,0,0,0-6.88,2.78,9.38,9.38,0,0,0-2.62,6.69V318h-6.54V290.14a7.54,7.54,0,0,0-2.34-5.82,9.47,9.47,0,0,0-13,.87,10.67,10.67,0,0,0-2.74,7.38V318ZM924.17,282a10.66,10.66,0,0,0-8.06,3.3,13.57,13.57,0,0,0-3.54,8.75h22.59a13,13,0,0,0-3.12-8.75,10.14,10.14,0,0,0-7.87-3.3ZM935,307.36h6.54a14.3,14.3,0,0,1-6,8.31,19.79,19.79,0,0,1-11.25,3q-8.52,0-13.5-5.72t-5-15.46q0-9.66,5-15.45t13.47-5.8q8.28,0,13,5.53T942,296.87v2.51H912.57v.3q.27,6.09,3.44,9.66a10.68,10.68,0,0,0,8.39,3.57,13.87,13.87,0,0,0,6.61-1.42,9,9,0,0,0,4-4.13ZM950.56,318V277h6.24v6.08h.61a8.58,8.58,0,0,1,4.1-4.9,13.91,13.91,0,0,1,7.27-1.9c.53,0,1.1,0,1.73.05s1.13.09,1.54.14V283a11.94,11.94,0,0,0-1.79-.25c-.94-.09-1.74-.13-2.4-.13a10.91,10.91,0,0,0-7.72,2.81,9.35,9.35,0,0,0-3,7.15V318Z" transform="translate(-0.06 -0.06)" style="fill:#ffd166"/><path d="M137.14,36.46,89.29,27.28l-16,46.06-46.05,16,9.16,47.85L4.61,174l31.84,36.87-9.16,47.85,46.05,15.95,16,46.05,47.85-9.17L174,343.41l36.87-31.85,47.85,9.17,15.95-46.05,46.05-15.95-9.16-47.85L343.41,174l-31.84-36.87,9.16-47.85-46.05-16L258.73,27.29l-47.85,9.17L174,4.61Z" transform="translate(-0.06 -0.06)" style="fill:#ffd166;stroke:#163150;stroke-width:1.2999999523162842px;fill-rule:evenodd"/><path d="M348,174l-32.7,37.86L324.67,261l-47.28,16.38L261,324.67l-49.14-9.41L174,348l-37.86-32.7L87,324.67,70.63,277.39,23.34,261l9.41-49.14L.06,174l32.69-37.86L23.34,87,70.63,70.63,87,23.34l49.14,9.42L174,.06l37.86,32.7L261,23.34l16.38,47.29L324.67,87l-9.41,49.14Zm-40.12-35.88,8.92-46.55L272,76.06l-15.52-44.8-46.55,8.91L174,9.19l-35.88,31L91.58,31.25,76.06,76.06,31.26,91.58l8.91,46.55L9.19,174l31,35.87-8.92,46.56L76.06,272l15.52,44.81,46.55-8.92,35.88,31,35.87-31,46.55,8.92L272,272l44.8-15.52-8.92-46.56,31-35.87Z" transform="translate(-0.06 -0.06)" style="fill:#16314f"/><path d="M295.55,174A121.54,121.54,0,1,1,174,52.47,121.55,121.55,0,0,1,295.55,174" transform="translate(-0.06 -0.06)" style="fill:#fff1b6;stroke:#163150;stroke-width:1.5px;fill-rule:evenodd"/><path d="M295.55,174H299A125,125,0,1,0,174,299,125,125,0,0,0,299,174Zm0,0h-3.46A118.09,118.09,0,1,1,174,55.92,118.08,118.08,0,0,1,292.09,174Z" transform="translate(-0.06 -0.06)" style="fill:#163150"/><path d="M245.26,75.57A121.51,121.51,0,0,1,94.9,266.24,121.52,121.52,0,1,0,245.26,75.57" transform="translate(-0.06 -0.06)" style="fill:#16314f;fill-rule:evenodd;opacity:.16727100312709808;isolation:isolate"/><path d="M172.77,134.4c6.54-6.18,13.08-12.19,19.41-18.39,7.29-7.14,15.42-7.27,22.75-.06q12.45,12.22,24.8,24.56c5.42,5.44,5.91,12.76,1.44,18.87-3.89,5.33-9.87,5.92-14.67,1.34-4.12-3.91-8.11-7.94-12.17-11.9-6.67-6.51-15.16-6.58-21.86-.15-4.09,3.93-8.11,7.94-12.18,11.89-5.46,5.31-10,5.27-15.51-.13-3.86-3.76-7.67-7.56-11.55-11.29-6.32-6.07-14.79-6.22-21.26-.24-3.64,3.35-7.1,6.89-10.51,10.46-5.3,5.57-9.72,7-14.11,4.35-5.09-3.06-7.48-10.52-4.95-16.45a19.79,19.79,0,0,1,4.15-6q12.42-12.57,25.09-24.89c7.21-7,15.13-7,22.39.06,6.27,6,12.58,12.07,18.74,18" transform="translate(-0.06 -0.06)" style="fill:#ffd166;fill-rule:evenodd"/><path d="M216.12,192.93c-1.87,3.44-3.11,7.44-5.73,10.21-8.39,8.9-17.24,17.39-26,25.93-7.85,7.64-16.17,7.57-24-.09q-13-12.67-25.92-25.45c-5.62-5.57-6.5-12.71-2.51-18.89,4.14-6.42,10.84-7.2,16.35-1.85,4.19,4.06,8.27,8.23,12.48,12.27,7.06,6.77,16.14,6.72,23.21-.07,3.68-3.54,7.41-7,11-10.69,3.4-3.49,6.89-6.46,12.33-4.48,4.33,1.57,7.75,7.1,8.86,13.11" transform="translate(-0.06 -0.06)" style="fill:#ffd166;fill-rule:evenodd"/><path d="M475.86,141l-29.22,37.88a.94.94,0,0,1-.73.37h-3.57a.9.9,0,0,1-.73-.36l-29.23-37.58a.93.93,0,0,0-1.66.57v70.49a.94.94,0,0,1-.93.94h-11.9a.94.94,0,0,1-.93-.94l.17-98.3a.92.92,0,0,1,.94-.94h8.56a.93.93,0,0,1,.73.36l36.12,46.77a.92.92,0,0,0,1.46,0l36-46.77a.91.91,0,0,1,.73-.36h8.55a.94.94,0,0,1,.88.94v98.3a.94.94,0,0,1-.93.94H478.44a.94.94,0,0,1-.93-.94v-70.8a.93.93,0,0,0-1.65-.57Z" transform="translate(-0.06 -0.06)" style="fill:#fff"/><path d="M530.72,239.3H518.64a.86.86,0,0,1-.79-.4.89.89,0,0,1,0-.89l13-28.38a.92.92,0,0,0,0-.76l-29.08-64.44a.91.91,0,0,1,0-.89.88.88,0,0,1,.79-.4h12.89a.87.87,0,0,1,.88.57l19.82,48.67a12.81,12.81,0,0,1,1.33,4.85h.67a16.09,16.09,0,0,1,1-4.81v-.07l19.81-48.61a.87.87,0,0,1,.88-.56h11.92a.87.87,0,0,1,.79.39.91.91,0,0,1,.05.89l-41,94.29A.88.88,0,0,1,530.72,239.3Z" transform="translate(-0.06 -0.06)" style="fill:#fff"/><path d="M667.24,202.27a.9.9,0,0,1-.08,1.21l-.77.76a40,40,0,0,1-3.89,3.09,41,41,0,0,1-6.55,3.92,45.94,45.94,0,0,1-9.28,3,53.55,53.55,0,0,1-12.1,1.33q-22.05,0-36-15t-13.92-37.24q0-22.37,13.83-37.39t36.06-15a50.71,50.71,0,0,1,18.24,3.21q8.3,3.18,11.6,6.35l2.72,2.61a.89.89,0,0,1,.11,1.22l-6.8,9.07a.85.85,0,0,1-.67.39.86.86,0,0,1-.72-.29l-.38-.34a39.82,39.82,0,0,0-3.23-2.43,48.24,48.24,0,0,0-5.14-3.17,31.31,31.31,0,0,0-6.88-2.5,35,35,0,0,0-8.7-1.09q-15.75,0-25.86,11.36t-10.11,28.05q0,16.53,10.11,27.88t25.86,11.36A34.5,34.5,0,0,0,648,200a33.12,33.12,0,0,0,9.08-5.06l.06-.06L659,193a.87.87,0,0,1,.71-.29.88.88,0,0,1,.66.39Z" transform="translate(-0.06 -0.06)" style="fill:#fff"/><path d="M717.33,153.24a.88.88,0,0,1-.88.89H710a16.89,16.89,0,0,0-12.73,5.46A18.83,18.83,0,0,0,692,173.2v39.14a.87.87,0,0,1-.87.88H679.4a.87.87,0,0,1-.88-.88V144.07a.88.88,0,0,1,.88-.89h8.41a.88.88,0,0,1,.88.89l.36,11h.82a18.9,18.9,0,0,1,7.8-8.84A23.32,23.32,0,0,1,710,143h6.44a.88.88,0,0,1,.88.88Z" transform="translate(-0.06 -0.06)" style="fill:#fff"/><path d="M753.31,239.3H741.25a.88.88,0,0,1-.81-.4.9.9,0,0,1,0-.9l13-28.36a.94.94,0,0,0,0-.77l-29.07-64.43a.9.9,0,0,1,0-.9.89.89,0,0,1,.8-.4h12.88a.89.89,0,0,1,.88.57l19.74,48.68c.88,2,2.12,3.62,2.12,4.85h-.88c0-1.23,1.11-2.84,1.75-4.85l19.82-48.68a.9.9,0,0,1,.88-.57H794.3a.86.86,0,0,1,.82.38.88.88,0,0,1,.06.91l-41,94.32a.88.88,0,0,1-.84.55Z" transform="translate(-0.06 -0.06)" style="fill:#fff"/><path d="M815.51,204.41v34a.89.89,0,0,1-.88.88h-11.8a.88.88,0,0,1-.88-.88V144.06a.87.87,0,0,1,.88-.88h9a.87.87,0,0,1,.87.88l.08,9.27h.68a.86.86,0,0,0,.75-.41l.56-.88a22.89,22.89,0,0,1,2.64-2.84,25.87,25.87,0,0,1,4.8-3.67,29.49,29.49,0,0,1,7.22-2.84,36.87,36.87,0,0,1,9.69-1.26,30.21,30.21,0,0,1,23.21,10.11q9.28,10.1,9.29,26.62,0,16.2-9.2,26.46a29.33,29.33,0,0,1-22.81,10.27,39.7,39.7,0,0,1-9.53-1.08,23.6,23.6,0,0,1-6.88-2.65,36.72,36.72,0,0,1-4.23-3.1,14.21,14.21,0,0,1-2.38-2.46l0-.08-.64-1.13Zm5.46-7.76a20.38,20.38,0,0,0,16.78,6.91,19.41,19.41,0,0,0,12.57-5.4q7.62-7.4,7.62-19.95,0-11-6.05-18.2a19.17,19.17,0,0,0-15.32-7.17A20.17,20.17,0,0,0,821,159.76q-6.3,6.92-6.3,18.44t6.3,18.45Z" transform="translate(-0.06 -0.06)" style="fill:#fff"/><path d="M887.92,142.21v-19.5a.93.93,0,0,1,.92-.93h11.74a.93.93,0,0,1,.93.93v19.5a.93.93,0,0,0,.92.93h18a.93.93,0,0,1,.92.93v9a.92.92,0,0,1-.92.92h-18a.93.93,0,0,0-.93.93v37.8q0,10.51,9.66,10.52a15.39,15.39,0,0,0,4.56-.75,16.33,16.33,0,0,0,3.73-1.58l.45-.23a.89.89,0,0,1,.73,0,1,1,0,0,1,.53.51l3.51,8.15a.9.9,0,0,1-.27,1.1,18.39,18.39,0,0,1-1.86,1.2,25.14,25.14,0,0,1-4.47,1.83A29.47,29.47,0,0,1,908,214.89q-9.88-.31-14.82-5.83-5.26-5.84-5.26-16.19v-38a.93.93,0,0,0-.92-.93H876.09a.93.93,0,0,1-.92-.93v-8.93a.92.92,0,0,1,.92-.93H887a.92.92,0,0,0,.66-.28.89.89,0,0,0,.26-.66Z" transform="translate(-0.06 -0.06)" style="fill:#fff"/><path d="M988.92,204.92a34.74,34.74,0,0,1-25.19,10q-15.09,0-25.2-10t-10.1-26.38q0-16.53,10.19-26.8a35.84,35.84,0,0,1,50.31.08q10.27,10.35,10.27,26.71T988.92,204.92Zm-9.65-8q6.3-6.93,6.3-18.61,0-11.49-6.3-18.7a19.92,19.92,0,0,0-15.59-7.18A20.26,20.26,0,0,0,948,159.54q-6.37,7.08-6.38,18.78t6.3,18.62a21.19,21.19,0,0,0,31.33,0Z" transform="translate(-0.06 -0.06)" style="fill:#fff"/></svg>