<svg xmlns="http://www.w3.org/2000/svg" width="2666.667" height="2666.667" preserveAspectRatio="xMidYMid meet" version="1.0" viewBox="0 0 2000 2000"><metadata>Created by potrace 1.11, written by Peter Selinger 2001-2013</metadata><g fill="#000" stroke="none"><path d="M9978 19623 c-1 -5 -115 -104 -253 -222 -137 -118 -257 -222 -266 -230 -9 -9 -38 -35 -65 -57 -27 -23 -121 -104 -210 -180 -88 -77 -257 -222 -375 -323 -205 -176 -226 -195 -266 -232 -10 -9 -72 -63 -138 -119 -173 -148 -237 -203 -255 -220 -9 -8 -58 -51 -110 -95 -52 -44 -103 -88 -113 -99 -15 -14 -28 -17 -56 -13 -31 5 -398 75 -426 81 -5 2 -32 7 -60 11 -27 5 -52 10 -55 10 -7 2 -81 17 -105 21 -52 10 -192 37 -210 40 -11 2 -33 7 -50 9 -16 3 -61 12 -100 20 -38 8 -83 16 -99 19 -16 3 -52 10 -80 15 -111 22 -363 70 -391 75 -42 7 -229 43 -295 56 -30 6 -66 13 -80 16 -14 2 -70 13 -125 24 -55 11 -111 21 -125 24 -22 3 -97 18 -110 21 -3 1 -27 5 -55 10 -57 10 -50 9 -90 18 -16 4 -44 9 -62 12 -18 3 -63 12 -100 19 -76 16 -75 17 -97 -54 -8 -25 -44 -130 -81 -235 -37 -104 -91 -260 -120 -345 -29 -85 -90 -261 -135 -390 -119 -343 -168 -484 -200 -580 -16 -47 -50 -143 -75 -215 -26 -71 -48 -137 -50 -145 -2 -8 -11 -35 -20 -60 -9 -25 -56 -160 -105 -300 -104 -302 -100 -290 -112 -290 -5 0 -60 -18 -121 -39 -62 -22 -258 -90 -437 -151 -179 -62 -381 -132 -450 -157 -69 -24 -132 -46 -140 -48 -8 -2 -87 -29 -175 -60 -88 -31 -178 -62 -200 -70 -22 -7 -132 -45 -245 -84 -113 -40 -243 -85 -290 -101 -361 -124 -499 -172 -521 -181 l-26 -10 14 -72 c7 -40 23 -121 35 -182 11 -60 24 -130 29 -155 5 -25 11 -60 14 -79 3 -19 10 -52 15 -75 5 -22 12 -57 15 -76 3 -19 17 -89 30 -155 41 -208 64 -329 70 -365 3 -19 12 -66 20 -105 8 -38 16 -81 19 -95 2 -14 12 -65 21 -115 9 -49 19 -99 21 -110 2 -11 6 -31 9 -45 7 -31 12 -59 25 -130 6 -30 12 -64 14 -75 9 -45 38 -202 42 -225 3 -14 13 -68 24 -120 10 -52 28 -144 40 -205 20 -112 22 -119 41 -215 21 -105 22 -131 6 -143 -8 -7 -56 -61 -107 -122 -52 -60 -99 -115 -104 -121 -6 -6 -31 -35 -55 -64 -25 -29 -50 -58 -55 -64 -13 -13 -173 -199 -207 -240 -13 -16 -31 -36 -40 -45 -8 -9 -40 -45 -70 -81 -30 -36 -56 -67 -59 -70 -3 -3 -32 -36 -65 -75 -33 -38 -64 -75 -70 -81 -32 -36 -149 -170 -173 -199 -23 -27 -329 -382 -363 -420 -26 -30 -204 -237 -283 -329 -22 -26 -60 -69 -83 -95 -60 -65 -61 -75 -16 -124 21 -23 61 -69 88 -101 28 -33 55 -64 60 -70 6 -6 80 -92 164 -191 85 -99 166 -192 180 -207 14 -15 31 -33 36 -40 9 -11 253 -294 334 -388 12 -14 41 -47 65 -75 174 -203 265 -308 311 -360 29 -33 65 -76 81 -95 16 -19 31 -37 34 -40 3 -3 48 -54 100 -115 52 -60 97 -112 100 -115 3 -3 44 -50 90 -105 47 -55 93 -107 102 -117 23 -23 22 -34 -2 -154 -11 -55 -23 -112 -26 -129 -2 -16 -15 -86 -29 -155 -13 -69 -26 -136 -29 -150 -3 -14 -10 -50 -16 -80 -6 -30 -13 -68 -16 -85 -3 -16 -14 -75 -24 -130 -11 -55 -22 -113 -25 -130 -5 -33 -9 -54 -25 -130 -17 -83 -69 -358 -75 -395 -3 -19 -8 -42 -10 -50 -2 -8 -6 -26 -8 -40 -3 -14 -21 -108 -40 -210 -20 -102 -50 -259 -67 -350 -17 -91 -35 -185 -40 -210 -6 -25 -12 -58 -15 -75 -5 -31 -11 -62 -20 -105 -3 -14 -8 -41 -11 -60 -3 -19 -9 -49 -13 -66 -11 -40 -5 -49 39 -62 19 -6 114 -38 210 -71 96 -34 258 -90 360 -125 272 -94 283 -98 305 -108 11 -4 29 -10 40 -13 11 -2 65 -20 120 -40 55 -20 132 -47 170 -59 39 -13 176 -61 305 -106 129 -45 253 -88 275 -95 47 -16 221 -76 505 -175 113 -39 221 -77 240 -83 41 -14 49 -28 106 -197 23 -69 79 -231 124 -360 45 -129 90 -260 100 -290 11 -30 40 -113 65 -185 25 -71 48 -137 50 -145 5 -21 143 -418 158 -455 6 -16 13 -37 14 -45 1 -8 6 -23 11 -35 6 -11 19 -47 30 -80 11 -33 36 -105 55 -160 20 -55 78 -224 130 -375 53 -151 98 -282 102 -291 5 -14 13 -15 44 -8 21 5 53 10 72 13 19 2 55 9 82 15 26 6 64 14 85 17 20 3 44 7 53 10 9 2 52 11 95 19 68 12 328 62 419 80 28 5 140 27 210 40 80 15 142 27 165 31 14 2 45 9 70 14 25 5 119 23 210 40 91 17 185 35 210 40 25 5 59 12 75 15 125 23 255 48 340 65 55 11 114 23 130 26 25 4 202 37 270 50 148 29 207 36 213 27 7 -9 71 -66 138 -122 76 -64 150 -127 159 -137 5 -6 42 -37 80 -70 39 -32 72 -61 75 -64 3 -3 39 -35 80 -70 41 -35 80 -69 86 -74 6 -6 33 -29 59 -51 27 -22 53 -45 59 -50 6 -6 76 -67 156 -135 165 -142 198 -171 214 -185 17 -16 299 -258 314 -270 7 -5 25 -22 40 -36 15 -14 108 -95 207 -180 99 -84 185 -158 191 -164 6 -5 35 -30 64 -55 30 -25 76 -64 102 -87 46 -41 72 -52 80 -35 2 4 32 31 68 61 36 30 70 60 75 65 6 6 39 36 75 66 36 30 70 59 76 65 6 5 37 33 69 60 33 28 77 66 99 85 23 19 54 46 70 60 16 14 34 30 40 35 6 6 58 51 116 100 58 50 118 102 135 116 45 40 282 245 349 303 33 28 64 56 70 61 6 6 41 34 76 64 36 30 70 59 75 65 6 6 39 36 75 66 36 30 79 67 95 81 39 35 160 139 310 268 66 57 137 118 158 137 41 36 61 40 116 24 19 -5 53 -12 75 -15 23 -3 84 -14 136 -25 89 -18 334 -64 390 -74 14 -2 59 -11 100 -19 41 -9 86 -18 100 -20 14 -3 108 -21 210 -41 102 -19 201 -38 220 -41 19 -3 67 -12 105 -20 39 -8 84 -17 100 -20 47 -8 77 -14 295 -56 113 -22 252 -49 310 -60 58 -11 117 -22 132 -24 15 -2 31 -6 35 -8 4 -3 29 -8 55 -11 26 -4 53 -8 60 -11 7 -2 30 -7 52 -10 42 -6 231 -43 257 -51 16 -4 32 31 93 211 15 44 57 163 92 265 36 102 67 192 69 200 2 8 29 87 60 175 31 88 65 185 75 215 30 88 82 239 170 490 45 129 103 298 130 375 26 77 87 253 135 390 48 138 89 260 92 272 5 23 8 24 158 77 443 153 757 262 885 306 135 46 549 190 590 205 25 9 52 18 60 20 8 2 101 34 205 70 105 37 305 107 445 155 140 48 262 91 271 95 15 6 15 13 3 78 -8 40 -16 83 -19 97 -3 14 -7 36 -10 50 -2 14 -18 97 -35 185 -27 139 -69 358 -84 435 -31 159 -48 250 -52 275 -3 17 -11 62 -19 100 -8 39 -17 86 -20 105 -3 19 -10 53 -15 75 -5 22 -11 56 -15 75 -3 19 -9 55 -15 80 -5 25 -16 83 -24 130 -16 89 -19 104 -36 185 -6 28 -13 64 -15 80 -3 17 -10 53 -15 80 -39 197 -60 307 -101 528 -29 156 -31 179 -18 190 9 6 40 41 70 77 29 36 56 67 59 70 3 3 82 93 174 200 93 107 180 209 195 225 33 38 270 313 293 340 29 34 58 68 108 125 55 63 303 351 340 394 14 16 39 45 57 65 17 20 91 106 164 191 73 85 138 160 143 166 6 6 34 38 61 70 28 32 67 77 88 100 20 23 37 47 37 55 0 8 -17 32 -38 54 -21 22 -120 137 -222 255 -101 118 -187 217 -190 220 -3 3 -73 84 -155 180 -83 96 -155 180 -160 186 -6 6 -31 35 -56 64 -24 29 -49 58 -54 64 -11 11 -193 222 -231 266 -27 31 -108 125 -143 165 -14 17 -80 93 -146 170 -66 77 -124 145 -130 151 -11 12 -66 75 -194 224 -93 107 -89 84 -52 270 11 58 23 121 26 140 3 19 8 42 10 50 2 8 6 26 9 40 5 32 34 187 41 220 3 14 8 39 11 55 2 17 14 75 25 130 10 55 21 111 24 125 3 14 9 48 15 75 5 28 12 66 15 85 3 19 8 42 10 50 2 8 7 31 10 50 3 19 8 42 10 50 2 8 6 31 9 50 3 19 12 67 20 105 8 39 17 90 21 115 4 24 8 47 10 50 2 3 6 26 10 50 4 25 13 77 21 115 9 39 17 81 19 95 3 14 7 36 10 50 3 14 8 39 10 55 3 17 17 86 30 155 13 69 26 136 29 150 2 14 18 99 36 190 17 91 34 176 37 190 2 14 8 43 13 65 5 22 7 41 5 43 -2 2 -68 27 -147 54 -214 75 -646 224 -788 273 -69 24 -231 80 -360 125 -129 45 -246 86 -260 90 -14 4 -124 43 -245 85 -121 42 -231 80 -245 85 -33 11 -507 175 -545 189 -25 9 -34 21 -47 64 -9 28 -51 151 -93 272 -42 121 -80 231 -85 245 -4 14 -36 104 -70 200 -34 96 -64 184 -67 195 -2 11 -9 29 -13 40 -5 11 -16 40 -24 65 -8 25 -49 144 -91 265 -43 121 -86 247 -97 280 -11 33 -33 96 -48 140 -16 44 -70 199 -120 345 -113 327 -158 457 -171 491 l-10 26 -72 -14 c-40 -7 -81 -15 -92 -17 -11 -2 -67 -13 -125 -24 -58 -12 -121 -24 -140 -27 -19 -3 -42 -8 -50 -10 -8 -2 -31 -6 -50 -9 -19 -3 -46 -8 -60 -11 -28 -6 -159 -32 -205 -40 -31 -5 -61 -11 -105 -20 -14 -3 -131 -25 -260 -50 -129 -25 -244 -47 -255 -49 -11 -2 -40 -7 -65 -12 -25 -4 -47 -8 -50 -9 -11 -3 -280 -55 -310 -60 -76 -13 -98 -17 -130 -25 -29 -7 -251 -49 -340 -64 -14 -2 -70 -13 -125 -24 -163 -33 -265 -52 -279 -52 -7 0 -55 37 -107 81 -147 128 -211 183 -223 194 -6 6 -40 35 -76 65 -36 30 -67 57 -70 60 -4 5 -76 67 -174 150 -16 14 -34 30 -40 35 -6 6 -76 66 -156 135 -80 68 -147 127 -150 130 -3 3 -52 46 -110 95 -58 49 -107 92 -110 95 -3 3 -86 75 -185 160 -177 152 -481 414 -622 537 -68 59 -97 74 -105 56z" transform="translate(0.000000,2000.000000) scale(0.100000,-0.100000)"/></g></svg>