<svg xmlns="http://www.w3.org/2000/svg" id="Layer_1" data-name="Layer 1" viewBox="0 0 92.92 50.13"><title>shell</title><g id="w1__shells"><circle cx="52.06" cy="10.77" r=".9" style="fill:#163150"/><path d="M59.42,16.4a1.35,1.35,0,1,1,1.35-1.35A1.35,1.35,0,0,1,59.42,16.4Zm0-1.8a.45.45,0,1,0,.45.45A.45.45,0,0,0,59.42,14.6Z" transform="translate(-7.36 -4.28)" style="fill:#979797"/><path d="M20.56,29.92c7.81-5.51,21.42-12.16,28-19.57S65.07,3.24,73.05,12.9,94.66,20.84,99.39,25q-2.6,4.92-29.88,2.39,3.81,12.72-2.87,17.26c-7-1.26-14-14.73-18.06-14.73S12.75,35.44,20.56,29.92Z" transform="translate(-7.36 -4.28)" style="fill:#a682ff;fill-rule:evenodd"/><path d="M66.64,45.54h-.16c-4.1-.74-8-5.17-11.47-9.08-2.45-2.77-5-5.63-6.43-5.63-1,0-3.82.36-7.14.78-17.23,2.16-22.15,2.22-22.92.25-.48-1.25,1-2.27,1.52-2.66h0c2.55-1.8,5.69-3.71,9-5.73,6.79-4.12,14.48-8.79,18.86-13.71,3.26-3.66,7.29-5.57,11.58-5.47,5.06.1,10,2.88,14.25,8.05C78.46,18.05,85.41,19.66,91,21c3.75.87,7,1.62,9,3.37a.9.9,0,0,1,.2,1.09c-1.21,2.31-5.6,5.09-29.45,3,2.18,8.18,1,13.89-3.58,17A.92.92,0,0,1,66.64,45.54ZM48.58,29c2.26,0,4.69,2.75,7.77,6.23s6.71,7.59,10.09,8.43c3.81-2.83,4.55-8.23,2.21-16a.89.89,0,0,1,.94-1.15c20.57,1.91,26.78.22,28.53-1.34C96.39,24,93.68,23.42,90.6,22.7c-5.85-1.35-13.14-3-18.24-9.22C68.43,8.72,64,6.16,59.45,6.08A13.26,13.26,0,0,0,49.25,11C44.69,16.06,36.88,20.81,30,25c-3.3,2-6.41,3.89-8.91,5.66h0a4.32,4.32,0,0,0-.69.56c2.4.91,15.22-.7,20.83-1.4C44.73,29.38,47.5,29,48.58,29Z" transform="translate(-7.36 -4.28)" style="fill:#163150"/><path d="M32.84,13.13c8.47,0,12.34-1.76,15.74-2.78A62.32,62.32,0,0,1,37,19.87Q24.36,13.14,32.84,13.13Z" transform="translate(-7.36 -4.28)" style="fill:#9165ff;fill-rule:evenodd"/><path d="M37,20.76a.94.94,0,0,1-.43-.1c-7.09-3.79-8.32-5.46-8-6.81s2.46-1.62,4.26-1.62A39.51,39.51,0,0,0,46.71,10l1.61-.52a.92.92,0,0,1,1,.37.9.9,0,0,1-.08,1.08,63.09,63.09,0,0,1-11.77,9.67A.91.91,0,0,1,37,20.76Zm-6.61-6.44c.22.39,1.29,1.65,6.55,4.5a78.4,78.4,0,0,0,8.44-6.51A40.73,40.73,0,0,1,32.84,14,6.63,6.63,0,0,0,30.38,14.32Z" transform="translate(-7.36 -4.28)" style="fill:#163150"/><path d="M38,43.62l2-6.13,5.66,4.93h6.91l-3.17,4.67,3.17,4.45-8.1-1.8L40,53.51,38,48.6,31.4,45Z" transform="translate(-7.36 -4.28)" style="fill:#f4d57a;fill-rule:evenodd"/><path d="M40,54.41a.78.78,0,0,1-.22,0,.91.91,0,0,1-.62-.54L37.3,49.23,31,45.8a.9.9,0,0,1,.25-1.67l6.1-1.28,1.8-5.63a.9.9,0,0,1,.62-.59.87.87,0,0,1,.83.18L46,41.52h6.57a.9.9,0,0,1,.74,1.4l-2.82,4.16L53.28,51a.9.9,0,0,1-.93,1.4l-7.66-1.7L40.55,54.2A.86.86,0,0,1,40,54.41Zm-6-9,4.46,2.43a.9.9,0,0,1,.41.45L40.35,52l3.52-3a.91.91,0,0,1,.78-.19l5.81,1.29-1.81-2.55a.89.89,0,0,1,0-1l2.21-3.27H45.64a.86.86,0,0,1-.59-.23l-4.63-4-1.55,4.83a.9.9,0,0,1-.67.61Z" transform="translate(-7.36 -4.28)" style="fill:#163150"/><path d="M13.3,42.13l1.49-4.64,4.31,3.73h5.26L22,44.75l2.41,3.37L18.2,46.76l-3.41,2.85L13.3,45.89l-5-2.72Z" transform="translate(-7.36 -4.28)" style="fill:#fbb444;fill-rule:evenodd"/><path d="M14.79,50.51a.83.83,0,0,1-.22,0,.87.87,0,0,1-.61-.54l-1.37-3.41L7.84,44a.89.89,0,0,1,.24-1.66l4.52-.95,1.34-4.14a.89.89,0,0,1,.61-.58.87.87,0,0,1,.83.18l4.06,3.51h4.92a.9.9,0,0,1,.74,1.4l-2.06,3,2.05,2.85a.92.92,0,0,1,0,1,.9.9,0,0,1-.94.38l-5.74-1.26L15.37,50.3A1,1,0,0,1,14.79,50.51Zm-3.94-7,2.87,1.55a.88.88,0,0,1,.41.46l1,2.57,2.46-2.06a.89.89,0,0,1,.77-.19l3.88.86-1.05-1.47a.87.87,0,0,1,0-1l1.45-2.14H19.1a.93.93,0,0,1-.59-.21l-3.28-2.84L14.15,42.4a.87.87,0,0,1-.67.6Z" transform="translate(-7.36 -4.28)" style="fill:#163150"/><circle cx="52.06" cy="9.87" r=".9" style="fill:#163150"/><circle cx="52.51" cy="15.71" r="1.35" style="fill:#163150"/><circle cx="42.19" cy="10.77" r=".9" style="fill:#163150"/><circle cx="33.66" cy="16.61" r="1.35" style="fill:#163150"/><circle cx="22.89" cy="22.89" r="1.35" style="fill:#163150"/><ellipse cx="55.65" cy="23.79" rx="1.8" ry="2.24" style="fill:#163150"/><ellipse cx="58.34" cy="33.66" rx="1.8" ry="2.24" style="fill:#163150"/></g></svg>