<svg xmlns="http://www.w3.org/2000/svg" xmlns:xlink="http://www.w3.org/1999/xlink" id="Layer_1" data-name="Layer 1" viewBox="0 0 712.06 575.33"><defs><filter id="success-shadow" width="200%" height="200%" name="success-shadow"><feOffset dx="1" dy="2" in="SourceGraphic" result="offOut"/><feColorMatrix in="offOut" result="matrixOut" values="0 0.2 0 0 0 0 0.2 0 0 0 0 0.2 0 0 0 0 0.2 0 3 0"/><feGaussianBlur in="matrixOut" result="blurOut" stdDeviation="4"/></filter><linearGradient id="linear-gradient" x1="-42.88" x2="-42.89" y1="787.16" y2="787.64" gradientTransform="matrix(666.21, 0, 0, -537, 28921.97, 423035.59)" gradientUnits="userSpaceOnUse"><stop offset="0" stop-color="#d2981c"/><stop offset="1" stop-color="#ffce5b"/></linearGradient></defs><title>success-bg</title><g style="filter:url(#success-shadow)"><path d="M29.4,25.07H62.08Q81.9,31.61,103.92,38c14.66-5.89,36.69-18.85,57.29-18.85Q177.67,27.22,203,38q57.8-8.22,82.73-8.22,23.94,3.83,49.45,8.22L460.47,25.07H682.34a6,6,0,0,1,6,6.74q-10.93,88.43-10.93,140.36,0,53.91,11.77,147.35L677.37,485.25l10.06,47.27a6,6,0,0,1-6.46,7.22l-94-9.3L479,540.55,292.21,556.16q-78.48-22-141.9-25.72a477.6,477.6,0,0,0-120.23,8.49h0a6,6,0,0,1-7-4.74,6.18,6.18,0,0,1-.09-1.72q6.63-70.08,6.63-214.91c0-61.07,10.32-122.86,8.56-180.51q-1-33-14.64-104.86a6,6,0,0,1,5.9-7.12Z" style="fill:#fff;fill-rule:evenodd"/></g><path d="M292.21,557.66a1.33,1.33,0,0,1-.4,0c-52-14.61-99.61-23.25-141.58-25.67A478.83,478.83,0,0,0,30.37,540.4a7.5,7.5,0,0,1-8.8-5.92,7.39,7.39,0,0,1-.11-2.15c4.39-46.45,6.62-118.71,6.62-214.77,0-28.52,2.27-57.47,4.46-85.47,2.59-33.06,5-64.29,4.1-95C36,115.25,31.05,80.05,22,32.47a7.49,7.49,0,0,1,6-8.76,7.3,7.3,0,0,1,1.4-.14H62.08a1.5,1.5,0,0,1,.47.08c13,4.28,26.87,8.58,41.29,12.77,3.23-1.31,6.84-3,10.65-4.72,13.61-6.25,30.54-14,46.72-14a1.49,1.49,0,0,1,.65.16c10.83,5.29,24.74,11.56,41.35,18.65,38.21-5.43,66-8.18,82.53-8.18a1,1,0,0,1,.24,0c15.82,2.53,32.4,5.28,49.26,8.19L460.32,23.58h222a7.51,7.51,0,0,1,7.5,7.5,7,7,0,0,1-.06.92c-7.24,58.63-10.91,105.79-10.91,140.18,0,35.7,4,85.22,11.76,147.17a1.4,1.4,0,0,1,0,.29L678.88,485.15l10,47.06a7.52,7.52,0,0,1-5.78,8.9,7.39,7.39,0,0,1-2.3.12L587,531.94,479.09,542,292.34,557.66Zm-168.4-29.48q13.37,0,26.59.76c42.12,2.44,89.88,11.08,142,25.71l186.47-15.59,108-10.12h.29l94,9.31a4.28,4.28,0,0,0,1.38-.08,4.49,4.49,0,0,0,3.46-5.34L675.9,485.57a1.49,1.49,0,0,1,0-.42l11.76-165.58c-7.8-62-11.76-111.6-11.76-147.4,0-34.51,3.68-81.8,10.94-140.54a5.25,5.25,0,0,0,0-.56,4.51,4.51,0,0,0-4.5-4.5H460.55L335.35,39.5a1.4,1.4,0,0,1-.41,0c-16.88-2.91-33.47-5.67-49.32-8.2-16.49,0-44.21,2.77-82.4,8.21a1.48,1.48,0,0,1-.8-.11c-16.67-7.11-30.65-13.4-41.56-18.72-15.42.11-31.88,7.67-45.12,13.75-4,1.86-7.85,3.61-11.26,5a1.5,1.5,0,0,1-1,.05C89,35.22,74.94,30.89,61.84,26.57H29.4a4.69,4.69,0,0,0-.84.08A4.52,4.52,0,0,0,25,31.91C34,79.64,39,115,39.64,137c.94,30.87-1.51,62.18-4.11,95.32-2.19,27.95-4.45,56.84-4.45,85.24,0,96.16-2.23,168.51-6.64,215.05a4.36,4.36,0,0,0,.07,1.3,4.5,4.5,0,0,0,5.28,3.54A488.16,488.16,0,0,1,123.81,528.18Z" style="fill:url(#linear-gradient)"/></svg>