<?xml version="1.0" encoding="UTF-8"?>
<svg width="677px" height="547px" viewBox="0 0 677 547" version="1.1" xmlns="http://www.w3.org/2000/svg" xmlns:xlink="http://www.w3.org/1999/xlink">
    <!-- Generator: Sketch 56.2 (81672) - https://sketch.com -->
    <title>main card</title>
    <desc>Created with Sketch.</desc>
    <defs>
        <linearGradient x1="50%" y1="75.0508601%" x2="47.1094102%" y2="-67.4091314%" id="linearGradient-1">
            <stop stop-color="#D2981C" offset="0%"></stop>
            <stop stop-color="#FFCE5B" offset="100%"></stop>
        </linearGradient>
        <path d="M12.2577226,8.90895225 L44.9425207,8.90895225 C58.1470375,13.2637175 72.0946616,17.5760037 86.785393,21.8458111 C101.444102,15.9560688 123.475612,3 144.066813,3 C155.04295,8.36340553 168.97833,14.6453426 185.872954,21.8458111 C224.397942,16.3641788 251.97485,13.6233626 268.603679,13.6233626 C284.564003,16.1743338 301.047009,18.9151499 318.052697,21.8458111 L443.335603,8.90895225 L536.017749,8.90895225 L665.203869,8.90895225 C668.517578,8.90895122 671.20387,11.5952432 671.20387,14.9089522 C671.20387,15.1548972 671.188748,15.4006094 671.158589,15.6446982 C663.874507,74.5980212 660.232466,121.386491 660.232466,156.010108 C660.232466,191.942169 664.154977,241.058429 672,303.358889 L660.232466,469.088718 L670.291516,516.357498 C670.981246,519.59863 668.912926,522.785223 665.671794,523.474954 C665.067377,523.603577 664.446718,523.638056 663.831773,523.577172 L569.860645,514.273335 L461.813608,524.385887 L275.073354,540 C222.750607,525.293102 175.450777,516.717547 133.173865,514.273335 C93.4911966,511.979107 53.4140788,514.808178 12.9425113,522.760546 L12.9425118,522.760549 C9.69097715,523.399452 6.53715435,521.281496 5.89825145,518.029961 C5.78688738,517.463202 5.75794414,516.883332 5.81231766,516.3083 C10.2298492,469.590313 12.438615,397.953771 12.438615,301.398674 C12.438615,240.324444 22.7666096,178.533806 20.9991673,120.885215 C20.3238526,98.8585058 15.4450782,63.9058226 6.362844,16.0271658 C5.74527283,12.7715151 7.88385687,9.6316469 11.1395072,9.01407362 C11.5081389,8.94414686 11.8825172,8.90895225 12.2577226,8.90895225 Z" id="path-2"></path>
        <filter x="-1.1%" y="-1.1%" width="102.3%" height="103.0%" filterUnits="objectBoundingBox" id="filter-3">
            <feMorphology radius="1" operator="dilate" in="SourceAlpha" result="shadowSpreadOuter1"></feMorphology>
            <feOffset dx="0" dy="2" in="shadowSpreadOuter1" result="shadowOffsetOuter1"></feOffset>
            <feGaussianBlur stdDeviation="2" in="shadowOffsetOuter1" result="shadowBlurOuter1"></feGaussianBlur>
            <feComposite in="shadowBlurOuter1" in2="SourceAlpha" operator="out" result="shadowBlurOuter1"></feComposite>
            <feColorMatrix values="0 0 0 0 0.0062833811   0 0 0 0 0.0133333518   0 0 0 0 0.0214277627  0 0 0 0.368771853 0" type="matrix" in="shadowBlurOuter1"></feColorMatrix>
        </filter>
    </defs>
    <g id="Page-1" stroke="none" stroke-width="1" fill="none" fill-rule="evenodd" stroke-linejoin="round">
        <g id="main-card">
            <use fill="black" fill-opacity="1" filter="url(#filter-3)" xlink:href="#path-2"></use>
            <use stroke="url(#linearGradient-1)" stroke-width="2" fill="#FFFFFF" fill-rule="evenodd" xlink:href="#path-2"></use>
        </g>
    </g>
</svg>