<svg viewBox="0 0 320 320" xmlns="http://www.w3.org/2000/svg" xmlns:xlink="http://www.w3.org/1999/xlink"><filter id="a" height="200" name="success-shadow" width="200"><feOffset dx="1" dy="2" in="SourceGraphic" result="offOut"/><feColorMatrix in="offOut" result="matrixOut" values="0 0.2 0 0 0 0 0.2 0 0 0 0 0.2 0 0 0 0 0.2 0 3 0"/><feGaussianBlur in="matrixOut" result="blurOut" stdDeviation="4"/></filter><linearGradient id="b" gradientTransform="matrix(666.21 0 0 -537 159324.62 354352)" gradientUnits="userSpaceOnUse" x1="-238.91" x2="-238.91" y1="659.53" y2="659.8"><stop offset="0" stop-color="#d2981c"/><stop offset="1" stop-color="#ffce5b"/></linearGradient><g filter="url(#a)"><path d="m13.57 14.12h14.66q8.88 3.63 18.77 7.18c6.55-3.3 16.43-10.47 25.66-10.47q7.34 4.47 18.74 10.47 25.91-4.56 37.09-4.56 10.74 2.11 22.17 4.56l56.16-7.18h99.46c1.49 0 2.69 1.49 2.69 3.33v.41q-4.89 49.13-4.9 78 0 29.94 5.28 81.86l-5.28 92.07 4.49 26.21a3.41 3.41 0 0 1 -2.07 4 2.07 2.07 0 0 1 -.82.05l-42.13-5.17-48.44 5.62-83.71 8.68q-35.19-12.26-63.61-14.3a174.12 174.12 0 0 0 -53.9 4.72c-1.46.35-2.87-.82-3.16-2.63a4.39 4.39 0 0 1 0-1q3-38.92 3-119.39c0-33.93 4.63-68.26 3.84-100.28q-.56-18.3-6.63-58.23a3.37 3.37 0 0 1 2.14-3.9 2.92 2.92 0 0 1 .5-.05z" fill="#fff" fill-rule="evenodd"/></g><path d="m13.57 14.12h14.66q8.88 3.63 18.77 7.18c6.55-3.3 16.43-10.47 25.66-10.47q7.34 4.47 18.74 10.47 25.91-4.56 37.09-4.56 10.74 2.11 22.17 4.56l56.16-7.18h99.46c1.49 0 2.69 1.49 2.69 3.33v.41q-4.89 49.13-4.9 78 0 29.94 5.28 81.86l-5.28 92.07 4.49 26.21a3.41 3.41 0 0 1 -2.07 4 2.07 2.07 0 0 1 -.82.05l-42.13-5.17-48.44 5.62-83.71 8.68q-35.19-12.26-63.61-14.3a174.12 174.12 0 0 0 -53.9 4.72c-1.46.35-2.87-.82-3.16-2.63a4.39 4.39 0 0 1 0-1q3-38.92 3-119.39c0-33.93 4.63-68.26 3.84-100.28q-.56-18.3-6.63-58.23a3.37 3.37 0 0 1 2.14-3.9 2.92 2.92 0 0 1 .5-.05z" fill="#fff" fill-rule="evenodd"/><path d="m131.39 310h-.18c-23.3-8.12-44.65-12.92-63.47-14.26a173.94 173.94 0 0 0 -53.74 4.67c-1.82.44-3.59-1-3.95-3.29a4.75 4.75 0 0 1 0-1.19c2-25.81 3-66 3-119.32 0-15.84 1-31.93 2-47.48 1.17-18.37 2.26-35.72 1.84-52.78-.3-12.14-2.5-31.69-6.55-58.12a5 5 0 0 1 .52-3.13 3.35 3.35 0 0 1 2.14-1.74 2.57 2.57 0 0 1 .62-.08h14.61a.78.78 0 0 1 .21 0c5.82 2.38 12 4.77 18.51 7.1 1.44-.73 3.06-1.65 4.77-2.62 6.1-3.48 13.69-7.8 20.94-7.8a.64.64 0 0 1 .3.08c4.85 2.96 11.04 6.47 18.53 10.41 17.13-3 29.58-4.55 37-4.55h.11c7.09 1.41 14.52 2.94 22.08 4.55l56.07-7.17h99.53c1.86 0 3.36 1.87 3.36 4.17v.51c-3.25 32.57-4.9 58.77-4.9 77.88 0 19.83 1.78 47.34 5.27 81.76a.81.81 0 0 1 0 .16l-5.27 91.95 4.49 26.15a4.93 4.93 0 0 1 -.47 3.13 3.41 3.41 0 0 1 -2.12 1.81 2.75 2.75 0 0 1 -1 .07l-42.06-5.16-48.37 5.61-83.76 8.68zm-75.49-16.38q6 0 11.92.42c18.88 1.35 40.29 6.16 63.64 14.28l83.59-8.66 48.43-5.66h.13l42.12 5.17a1.61 1.61 0 0 0 .62 0 2 2 0 0 0 1.27-1.08 2.89 2.89 0 0 0 .28-1.88l-4.51-26.21a1.93 1.93 0 0 1 0-.24l5.27-92c-3.5-34.44-5.27-62-5.27-81.88 0-19.18 1.65-45.45 4.9-78.08 0-.11 0-.21 0-.31a2.3 2.3 0 0 0 -2-2.5h-99.43l-56.13 7.18a.41.41 0 0 1 -.19 0c-7.56-1.61-15-3.14-22.1-4.55-7.4 0-19.82 1.54-36.94 4.56a.57.57 0 0 1 -.36-.06c-7.48-3.95-13.74-7.45-18.63-10.4-6.92.06-14.29 4.26-20.23 7.64-1.81 1-3.52 2-5.05 2.77a.54.54 0 0 1 -.43 0c-6.53-2.38-12.8-4.78-18.68-7.13h-14.55a1.55 1.55 0 0 0 -.37 0 2 2 0 0 0 -1.29 1 3 3 0 0 0 -.32 1.88c4.06 26.51 6.27 46.15 6.57 58.38.43 17.15-.67 34.54-1.84 53-1 15.52-2 31.57-2 47.35 0 53.42-1 93.61-3 119.47a4.34 4.34 0 0 0 0 .72 2.09 2.09 0 0 0 2.37 2 178 178 0 0 1 42.21-5.18z" fill="url(#b)"/></svg>