<svg xmlns="http://www.w3.org/2000/svg" xmlns:xlink="http://www.w3.org/1999/xlink" width="179" height="139" version="1.1" viewBox="0 0 179 139"><title>Treasure chest</title><desc>Created with Sketch.</desc><g id="Symbols" fill="none" fill-rule="evenodd" stroke="none" stroke-width="1"><g id="Treasure-chest" transform="translate(0.640369, 0.000000)"><path id="Oval-Copy-19" fill="#057A97" stroke="#163150" stroke-width="1.632" d="M57.2142857,104.301405 C88.8128632,104.301405 114.428571,81.1815361 114.428571,52.6617321 C114.428571,24.1419281 88.8128632,1.02205882 57.2142857,1.02205882 C25.6157082,1.02205882 1.18279335,24.1419281 1.18279335,52.6617321 C1.18279335,81.1815361 25.6157082,104.301405 57.2142857,104.301405 Z"/><path id="Oval-Copy-20" fill="#163150" stroke="#163150" stroke-width="1.632" d="M65.2119816,105.93428 C92.3935536,105.93428 114.428571,83.2713256 114.428571,55.315154 C114.428571,35.2428491 119.387599,4.69602767 99.4068895,4.69602767 C92.2232232,4.69602767 72.8774049,4.69602767 65.2119816,4.69602767 C38.0304095,4.69602767 15.9953917,27.3589825 15.9953917,55.315154 C15.9953917,83.2713256 38.0304095,105.93428 65.2119816,105.93428 Z"/><path id="Oval-Copy-22" fill="#9F6634" stroke="#163150" stroke-width="1.632" d="M69.7235023,105.93428 C96.9050743,105.93428 118.940092,83.7411013 118.940092,56.3644274 C118.940092,36.7081972 123.89912,6.79457449 103.91841,6.79457449 C96.734744,6.79457449 77.3889256,6.79457449 69.7235023,6.79457449 C42.5419303,6.79457449 20.5069124,28.9877536 20.5069124,56.3644274 C20.5069124,83.7411013 42.5419303,105.93428 69.7235023,105.93428 Z"/><path id="Oval-Copy-18" fill="#057A97" stroke="#163150" stroke-width="1.632" d="M116.500898,104.301405 C147.524846,104.301405 172.674725,81.1815361 172.674725,52.6617321 C172.674725,24.1419281 157.509029,1.02205882 126.485081,1.02205882 C80.0637834,-0.644298729 63.5252675,23.7888362 63.2180537,53.682279 C62.9108398,83.5757217 85.4769505,104.301405 116.500898,104.301405 Z"/><ellipse id="Oval-Copy-17" cx="122.938" cy="67.97" fill="#163150" stroke="#163150" stroke-width="1.632" rx="41.943" ry="50.619"/><path id="Oval-Copy-21" fill="#0E95B6" stroke="#163150" stroke-width="1.632" d="M128.033847,118.589062 C155.152933,118.589062 177.137295,92.2775609 177.137295,59.8206796 C177.137295,27.3637983 155.152933,1.05229725 128.033847,1.05229725 C112.612959,1.05229725 98.852368,9.56003902 89.8501606,22.8676451 C83.0211373,32.9627193 78.9303989,45.8199489 78.9303989,59.8206796 C78.9303989,92.2775609 100.914761,118.589062 128.033847,118.589062 Z"/><ellipse id="Oval-Copy-21" cx="129.568" cy="67.997" fill="#163150" stroke="#163150" stroke-width="1.632" rx="35.293" ry="50.592"/><ellipse id="Oval-Copy-21" cx="128.034" cy="67.997" fill="#AE723B" stroke="#163150" stroke-width="1.632" rx="33.759" ry="50.592"/><rect id="Rectangle" width="77.935" height="14.697" x=".816" y="123.487" fill="#057A97" stroke="#163150" stroke-width="1.632" rx="3.06"/><rect id="Rectangle-Copy-21" width="77.935" height="15.921" x=".816" y="69.194" fill="#057A97" stroke="#163150" stroke-width="1.632" rx="3.06"/><rect id="Rectangle-Copy-23" width="98.032" height="15.921" x="79.152" y="69.194" fill="#0E95B6" stroke="#163150" stroke-width="1.632" rx="3.06"/><rect id="Rectangle-Copy-26" width="98.032" height="14.697" x="79.152" y="123.487" fill="#0E95B6" stroke="#163150" stroke-width="1.632" rx="3.06"/><rect id="Rectangle-Copy-22" width="77.935" height="14.697" x=".816" y="54.498" fill="#057A97" stroke="#163150" stroke-width="1.632" rx="3.06"/><rect id="Rectangle-Copy-24" width="98.032" height="14.697" x="79.152" y="54.498" fill="#0E95B6" stroke="#163150" stroke-width="1.632" rx="4.08"/><rect id="Rectangle" width="13.953" height="37.965" x=".816" y="85.523" fill="#057A97" stroke="#163150" stroke-width="1.632" rx="3.06"/><rect id="Rectangle-Copy-19" width="8.211" height="37.965" x="15.171" y="85.523" fill="#163150" stroke="#163150" stroke-width="1.632" rx=".816"/><rect id="Rectangle-Copy-20" width="45.124" height="37.965" x="17.632" y="85.523" fill="#9F6634" stroke="#163150" stroke-width="1.632" rx=".816"/><path id="Path-53-Copy-7" stroke="#163150" stroke-linecap="round" stroke-width="1.92" d="M16.2364865,99.4568966 L61.9731628,99.4568966"/><rect id="Rectangle-Copy-27" width="84.907" height="37.965" x="92.277" y="85.523" fill="#AE723B" stroke="#163150" stroke-width="1.632" rx=".816"/><g id="Group-42" stroke="#163150" stroke-width="1.224" transform="translate(19.276498, 60.621998)"><path id="Path-48" fill="#E3EDFF" d="M28.3775535,21.4815824 L36.9823424,21.4815824 C38.9418267,25.9415019 39.5733936,30.1438283 38.877043,34.0885616 C38.0669665,38.6775375 36.1925583,45.4119684 27.37266,48.8541506 C24.787986,49.8628832 19.094652,49.7356626 15.594406,49.7356626"/><path id="Path-47" fill="#BAC1CF" d="M3.7533569,21.4815824 C9.46179951,21.4815824 17.669865,21.4815824 28.3775535,21.4815824 C30.2517258,23.3816886 31.188812,26.5457434 31.188812,30.9737469 C31.188812,37.6157522 26.6076747,49.7356626 15.1805158,49.7356626 C7.56240988,49.7356626 2.61422124,44.5510427 0.335949915,34.1818029 C-0.63662724,26.4406984 0.502508423,22.2072916 3.7533569,21.4815824 Z"/><path id="Combined-Shape" fill="#163150" d="M13.0576097,33.2198994 C12.0484058,32.5641981 11.381425,31.4302064 11.381425,30.1411621 C11.381425,28.1120851 13.0340514,26.4671933 15.0726693,26.4671933 C17.1112872,26.4671933 18.7639135,28.1120851 18.7639135,30.1411621 C18.7639135,31.5748296 17.9388744,32.8167008 16.735584,33.4220789 L18.7639135,41.1734651 L11.381425,41.1734651 L13.0576097,33.2198994 Z"/><path id="Path-50" fill="#E3EDFF" d="M3.95842603,21.4815824 C6.73124848,7.6389964 11.7239526,0.485544214 18.9365385,0.0212258503 C26.1491243,-0.443092514 31.7929955,6.71035967 35.8681519,21.4815824 L3.95842603,21.4815824 Z"/><path id="Path-50-Copy" fill="#BAC1CF" d="M3.22924943,21.4815824 C6.00207189,7.6389964 10.994776,0.485544214 18.2073619,0.0212258503 C25.4199477,-0.443092514 24.6701751,6.71035967 15.958044,21.4815824 L3.22924943,21.4815824 Z"/><path id="Path-50" fill="#163150" d="M8.83955622,21.354479 C10.550243,11.0953963 13.630481,5.79379612 18.0802701,5.44967831 C22.5300593,5.10556049 26.0120333,10.4071607 28.5261922,21.354479 L8.83955622,21.354479 Z"/></g><rect id="Rectangle-Copy-16" width="15.594" height="37.965" x="63.157" y="85.523" fill="#057A97" stroke="#163150" stroke-width="1.632" rx="3.06"/><rect id="Rectangle-Copy-25" width="13.953" height="37.965" x="79.152" y="85.523" fill="#0E95B6" stroke="#163150" stroke-width="1.632" rx="3.06"/><path id="Path-53" stroke="#163150" stroke-linecap="round" stroke-width="1.92" d="M93.921659,99.4568966 L162.414747,99.4568966"/><path id="Path-53-Copy-3" stroke="#163150" stroke-linecap="round" stroke-width="1.92" d="M98.762276,44.3362069 L156.986676,44.3362069"/><path id="Path-53-Copy-4" stroke="#163150" stroke-linecap="round" stroke-width="1.92" d="M105.978492,29.9568966 L150.585084,29.9568966"/><path id="Path-53-Copy-5" stroke="#163150" stroke-linecap="round" stroke-width="1.92" d="M16.2364865,113.836207 L61.9731628,113.836207"/><path id="Path-53-Copy" stroke="#163150" stroke-linecap="round" stroke-width="1.92" d="M93.921659,113.836207 L162.414747,113.836207"/><path id="Path-53-Copy-6" stroke="#163150" stroke-linecap="round" stroke-width="1.92" d="M21.5260229,43.137931 L63.1418919,43.137931"/><path id="Path-53-Copy-8" stroke="#163150" stroke-linecap="round" stroke-width="1.92" d="M28.6255021,26.362069 L69.1554054,26.362069"/><path id="Path-53-Copy-9" stroke="#163150" stroke-linecap="round" stroke-width="1.92" d="M43.116303,11.9827586 L81.1824324,11.9827586"/><path id="Rectangle" fill="#163150" d="M78.7701149,64.3897059 L79.7931034,64.3897059 L79.7931034,135.933824 L78.7701149,135.933824 C78.4809753,114.284176 78.3364055,97.5270481 78.3364055,85.6624391 C78.3364055,73.7978301 78.4809753,66.706919 78.7701149,64.3897059 Z"/><rect id="Rectangle-Copy-29" width="13.953" height="37.965" x="160.77" y="85.523" fill="#163150" stroke="#163150" stroke-width="1.632" rx=".816"/><rect id="Rectangle-Copy-28" width="13.953" height="37.965" x="163.231" y="85.523" fill="#0E95B6" stroke="#163150" stroke-width="1.632" rx="3.06"/><path id="Path-49" stroke="#979797" stroke-width=".6"/><path id="Path-52" fill="#057A97" stroke="#163150" stroke-width="1.224" d="M47.6141584,62.8949103 C46.7941568,58.0641739 39.578341,57.0744426 34.7204318,61.1261135 C29.8625226,65.1777844 30.3102608,73.8249876 30.3102608,81.7927437 C34.4575994,81.7927437 39.3688825,81.7927437 45.0441101,81.7927437 C43.2050228,71.9885625 44.0617056,65.6892847 47.6141584,62.8949103 Z"/></g></g></svg>