<svg xmlns="http://www.w3.org/2000/svg" xmlns:xlink="http://www.w3.org/1999/xlink" id="Layer_1" data-name="Layer 1" viewBox="0 0 380 210"><defs><clipPath id="clip-path"><path d="M372.1028,4.987,93.8253,5.4806,8.3029,184.5592c.0886-.0109,47.8859-24.608,115.5668-21.6222,46.3762,2.0459,81.187,3.9869,104.3048,11.958,10.4645-1.0387,22.8766-2.2583,37.605-1.6435,63.758,2.6617,43.14,1.9966,75.0644,9.9776" style="fill:none;clip-rule:evenodd"/></clipPath><linearGradient id="linear-gradient" x1="189.336" x2="190.689" y1="235.768" y2="233.995" gradientTransform="matrix(45.7999, 6.4368, 6.4561, -45.9375, -9967.7383, 9666.6838)" gradientUnits="userSpaceOnUse"><stop offset="0" stop-color="#6f4017"/><stop offset="1" stop-color="#ae723b"/></linearGradient><mask id="mask" width="123.983" height="124.37" x="233.804" y="21.846" maskUnits="userSpaceOnUse"><g id="mask-3"><polygon id="path-2" points="357.786 30.796 341.565 146.216 277.88 137.266 286.662 74.776 294.101 21.846 357.786 30.796" style="fill:#fff;fill-rule:evenodd"/></g></mask></defs><title>treasure--color</title><g style="clip-path:url(#clip-path)"><g id="Group-45"><polygon id="Rectangle" points="197.654 23.855 292.269 36.176 278.951 130.94 184.47 117.662 197.654 23.855" style="fill-rule:evenodd;fill:url(#linear-gradient)"/><path id="Rectangle-Copy-24" d="M199.7126,17.9538a3.3667,3.3667,0,0,0-2.8654-3.8025l-8.3436-1.1726a3.3667,3.3667,0,0,0-3.8025,2.8653l-13.2162,94.0383a3.3667,3.3667,0,0,0,2.8653,3.8025l8.3437,1.1726a3.3667,3.3667,0,0,0,3.8025-2.8654Z" style="fill:#057a97;stroke:#163150;stroke-width:1.5px;fill-rule:evenodd"/><path id="Oval-Copy-21" d="M187.3451,113.2248c21.337-1.3485,37.406-15.3692,40.4489-37.02a45.01,45.01,0,0,0-12.06-37.3324,48.7839,48.7839,0,0,0-16.4068-10.9036C197.4336,38.75,188.8376,102.6057,187.3451,113.2248Z" style="fill:#754922;stroke:#163150;stroke-linejoin:round;stroke-width:.815999984741211px;fill-rule:evenodd"/><rect width="14.913" height="92.179" x="238.613" y="-17.185" rx="3.094" transform="translate(183.2004 268.5562) rotate(-82)" style="fill:#0e95b6;stroke:#163150;stroke-width:1.5px"/><g id="Group-21"><path id="Path-53-Copy-10" d="M289.6282,52.5676l-70.1466-9.8585" style="fill:none;stroke:#163150;stroke-linecap:round;stroke-width:1.70000004768372px"/><path id="Path-53-Copy-15" d="M280.1194,120.2262,204.3676,109.58" style="fill:none;stroke:#163150;stroke-linecap:round;stroke-width:1.70000004768372px"/><path id="Path-53-Copy-11" d="M287.7706,65.7854l-60.9539-8.5666" style="fill:none;stroke:#163150;stroke-linecap:round;stroke-width:1.70000004768372px"/><path id="Path-53-Copy-14" d="M281.9961,106.8728l-62.9967-8.8536" style="fill:none;stroke:#163150;stroke-linecap:round;stroke-width:1.70000004768372px"/><path id="Path-53-Copy-12" d="M285.8939,79.1388l-57.3664-8.0623" style="fill:none;stroke:#163150;stroke-linecap:round;stroke-width:1.70000004768372px"/><path id="Path-53-Copy-13" d="M283.8728,93.5194l-57.3663-8.0623" style="fill:none;stroke:#163150;stroke-linecap:round;stroke-width:1.70000004768372px"/></g><path id="Path-148" d="M219.4816,42.7091,210.81,104.41" style="fill:none;stroke:#163150;stroke-linecap:round;stroke-width:1.70000004768372px"/><g id="Group-33-Copy-9"><ellipse id="Oval-Copy-25" cx="245.954" cy="112.262" rx="10.83" ry="10.373" transform="translate(-7.3428 206.7962) rotate(-45)" style="fill:#ffd166;stroke:#163150;stroke-width:1.70000004768372px"/><ellipse id="Oval" cx="246.314" cy="110.434" rx="9.283" ry="9.335" transform="translate(-5.945 206.5159) rotate(-45)" style="fill:#ffd166;stroke:#163150;stroke-width:1.70000004768372px"/><path id="Combined-Shape" d="M238.3663,111.4945a8.8559,8.8559,0,0,1,1.2574-5.6532c2.1483-3.7209,7.3553-4.81,11.048-2.6783a8.0354,8.0354,0,0,1,3.0621,11.1633,7.3631,7.3631,0,0,1-4.0131,3.5433,7.8032,7.8032,0,0,0,1.0819-1.4558,6.7576,6.7576,0,1,0-11.6719-6.7388A7.7957,7.7957,0,0,0,238.3663,111.4945Z" style="fill:#e3edff;fill-rule:evenodd;opacity:.702845990657806;isolation:isolate"/></g><path id="Path-148-Copy" d="M207.76,33.4711l-10.9715,78.0661" style="fill:none;stroke:#163150;stroke-linecap:round;stroke-width:1.70000004768372px"/><g id="Group-33"><ellipse cx="169.216" cy="111.328" rx="10.373" ry="10.83" transform="translate(35.4207 263.4033) rotate(-82)" style="fill:#ffd166;stroke:#163150;stroke-width:1.70000004768372px"/><ellipse cx="170.892" cy="110.516" rx="9.335" ry="9.283" transform="translate(37.6678 264.3646) rotate(-82)" style="fill:#ffd166;stroke:#163150;stroke-width:1.70000004768372px"/><path d="M165.2623,104.807a8.8554,8.8554,0,0,1,5.2715-2.3979c4.2645-.5237,8.2682,2.9792,8.7879,7.2114a8.0355,8.0355,0,0,1-7.0727,9.1638,7.3637,7.3637,0,0,1-5.245-1.0726,7.8092,7.8092,0,0,0,1.8139-.0121,6.7576,6.7576,0,1,0-1.6425-13.3771A7.795,7.795,0,0,0,165.2623,104.807Z" style="fill:#e3edff;fill-rule:evenodd;opacity:.702845990657806;isolation:isolate"/></g><g id="Group-41"><g id="Group-33-Copy-3"><ellipse cx="155.555" cy="95.633" rx="10.83" ry="10.373" transform="translate(-4.7919 8.2722) rotate(-3)" style="fill:#ffd166;stroke:#163150;stroke-width:1.70000004768372px"/><ellipse cx="154.064" cy="96.75" rx="9.283" ry="9.335" transform="translate(-4.8524 8.1957) rotate(-3)" style="fill:#ffd166;stroke:#163150;stroke-width:1.70000004768372px"/><path d="M160.68,101.2805a8.856,8.856,0,0,1-4.7171,3.36c-4.0863,1.3277-8.6848-1.3469-10.0025-5.4022a8.0356,8.0356,0,0,1,5.1942-10.345,7.3635,7.3635,0,0,1,5.3533.0522,7.8091,7.8091,0,0,0-1.7782.3579,6.7576,6.7576,0,1,0,4.1648,12.818A7.7969,7.7969,0,0,0,160.68,101.2805Z" style="fill:#e3edff;fill-rule:evenodd;opacity:.702845990657806;isolation:isolate"/></g><g id="Group-33-Copy-4"><ellipse cx="128.053" cy="102.342" rx="10.373" ry="10.83" transform="translate(23.4921 228.5889) rotate(-89)" style="fill:#ffd166;stroke:#163150;stroke-width:1.70000004768372px"/><ellipse cx="126.488" cy="103.352" rx="9.335" ry="9.283" transform="translate(20.9444 228.0166) rotate(-89)" style="fill:#ffd166;stroke:#163150;stroke-width:1.70000004768372px"/><path d="M132.7717,108.3324a8.8556,8.8556,0,0,1-4.94,3.0225c-4.1689,1.04-8.57-1.9494-9.6012-6.0867a8.0353,8.0353,0,0,1,5.9031-9.9574,7.3633,7.3633,0,0,1,5.3366.4254,7.8067,7.8067,0,0,0-1.7988.233,6.7576,6.7576,0,1,0,3.2605,13.0773A7.7929,7.7929,0,0,0,132.7717,108.3324Z" style="fill:#e3edff;fill-rule:evenodd;opacity:.702845990657806;isolation:isolate"/></g><g id="Group-30-Copy-3"><ellipse id="Oval-Copy-27" cx="139.617" cy="106.856" rx="7.736" ry="9.335" transform="translate(-5.4011 7.4534) rotate(-3)" style="fill:#ffd166;stroke:#163150;stroke-width:1.70000004768372px"/><ellipse id="Oval-Copy-26" cx="137.557" cy="106.964" rx="6.704" ry="9.335" transform="translate(-5.4095 7.3458) rotate(-3)" style="fill:#ffd166;stroke:#163150;stroke-width:1.70000004768372px"/><path d="M138.68,98.8176c-2.9076,1.0181-4.9329,4.4165-4.7276,8.335s2.5749,7.0867,5.5729,7.7953a5.5,5.5,0,0,1-1.5334.3027c-3.6977.1938-6.1894-3.396-6.4292-7.9727s1.8629-8.4073,5.5606-8.6011A5.5027,5.5027,0,0,1,138.68,98.8176Z" style="fill:#e3edff;fill-rule:evenodd;opacity:.702845990657806;isolation:isolate"/></g><g id="Group-30-Copy-4"><ellipse cx="172.018" cy="99.513" rx="7.736" ry="9.335" transform="translate(7.1692 210.4981) rotate(-64)" style="fill:#ffd166;stroke:#163150;stroke-width:1.70000004768372px"/><ellipse cx="171.114" cy="101.367" rx="6.704" ry="9.335" transform="translate(4.9948 210.7266) rotate(-64)" style="fill:#ffd166;stroke:#163150;stroke-width:1.70000004768372px"/><path d="M164.5333,96.4356c-.5192,3.0366,1.4713,6.4556,4.9981,8.1757s7.4464,1.1837,9.52-1.0949a5.4971,5.4971,0,0,1-.4787,1.4879c-1.6231,3.328-5.9708,3.767-10.09,1.7579s-6.45-5.7053-4.8268-9.0333A5.5041,5.5041,0,0,1,164.5333,96.4356Z" style="fill:#e3edff;fill-rule:evenodd;opacity:.702845990657806;isolation:isolate"/></g></g><g id="Group-41-Copy-2"><ellipse cx="250.841" cy="90.729" rx="10.373" ry="10.83" transform="translate(72.7519 289.3168) rotate(-68)" style="fill:#ffd166;stroke:#163150;stroke-width:1.70000004768372px"/><ellipse cx="249.018" cy="91.111" rx="9.335" ry="9.283" transform="translate(71.2574 287.8654) rotate(-68)" style="fill:#ffd166;stroke:#163150;stroke-width:1.70000004768372px"/><path d="M253.0993,98.0127a8.8561,8.8561,0,0,1-5.6951,1.0515c-4.2645-.5236-7.3019-4.891-6.7822-9.1232a8.0354,8.0354,0,0,1,9.0794-7.1806,7.3631,7.3631,0,0,1,4.83,2.31,7.81,7.81,0,0,0-1.7628-.4271A6.7576,6.7576,0,1,0,251.1258,98.02,7.7932,7.7932,0,0,0,253.0993,98.0127Z" style="fill:#e3edff;fill-rule:evenodd;opacity:.702845990657806;isolation:isolate"/><ellipse cx="223.08" cy="85.186" rx="10.373" ry="10.83" transform="translate(48.7241 248.346) rotate(-64)" style="fill:#ffd166;stroke:#163150;stroke-width:1.70000004768372px"/><ellipse cx="221.235" cy="85.44" rx="9.335" ry="9.283" transform="translate(47.4594 246.8301) rotate(-64)" style="fill:#ffd166;stroke:#163150;stroke-width:1.70000004768372px"/><path d="M224.8252,92.6093a8.8559,8.8559,0,0,1-5.7545.6516c-4.2176-.82-6.9429-5.3885-6.1293-9.5741a8.0354,8.0354,0,0,1,9.5582-6.53,7.3637,7.3637,0,0,1,4.6569,2.6409,7.8084,7.8084,0,0,0-1.7288-.5491,6.7576,6.7576,0,1,0-2.5717,13.23A7.8008,7.8008,0,0,0,224.8252,92.6093Z" style="fill:#e3edff;fill-rule:evenodd;opacity:.702845990657806;isolation:isolate"/><ellipse cx="231.654" cy="94.164" rx="9.335" ry="7.736" transform="translate(57.5672 273.675) rotate(-68)" style="fill:#ffd166;stroke:#163150;stroke-width:1.70000004768372px"/><ellipse cx="229.741" cy="93.391" rx="9.335" ry="6.704" transform="translate(57.0875 271.4183) rotate(-68)" style="fill:#ffd166;stroke:#163150;stroke-width:1.70000004768372px"/><path d="M234.2008,86.4828c-3.0654-.3062-6.3372,1.918-7.8071,5.5561s-.6614,7.5109,1.7563,9.42a5.4978,5.4978,0,0,1-1.5177-.3737c-3.4331-1.3871-4.1743-5.6935-2.4574-9.9428s5.2414-6.8323,8.6746-5.4452A5.5,5.5,0,0,1,234.2008,86.4828Z" style="fill:#e3edff;fill-rule:evenodd;opacity:.702845990657806;isolation:isolate"/><ellipse cx="264.122" cy="101.202" rx="7.736" ry="9.335" transform="translate(-4.8278 188.7707) rotate(-39)" style="fill:#ffd166;stroke:#163150;stroke-width:1.70000004768372px"/><ellipse cx="262.519" cy="102.5" rx="6.704" ry="9.335" transform="translate(-6.0021 188.0511) rotate(-39)" style="fill:#ffd166;stroke:#163150;stroke-width:1.70000004768372px"/><path d="M258.6388,95.25c-1.7538,2.5327-1.3948,6.4725,1.0746,9.522s6.2485,4.22,9.0905,3.0308a5.4977,5.4977,0,0,1-1.0627,1.1462c-2.8776,2.33-7.0034.8906-9.8875-2.671s-3.4346-7.8967-.557-10.2269A5.5,5.5,0,0,1,258.6388,95.25Z" style="fill:#e3edff;fill-rule:evenodd;opacity:.702845990657806;isolation:isolate"/></g><g id="Group-41-Copy"><ellipse cx="252.003" cy="123.435" rx="10.373" ry="10.83" transform="translate(107.0747 363.7209) rotate(-85)" style="fill:#ffd166;stroke:#163150;stroke-width:1.70000004768372px"/><ellipse cx="253.635" cy="122.536" rx="9.335" ry="9.283" transform="translate(109.4592 364.5262) rotate(-85)" style="fill:#ffd166;stroke:#163150;stroke-width:1.70000004768372px"/><path d="M247.7138,117.1293a8.8564,8.8564,0,0,1,5.1388-2.6706c4.2313-.7461,8.4128,2.5425,9.1533,6.7417a8.0355,8.0355,0,0,1-6.5834,9.5214,7.3631,7.3631,0,0,1-5.2939-.7967,7.8092,7.8092,0,0,0,1.8107-.1069,6.7576,6.7576,0,1,0-2.34-13.2729A7.7961,7.7961,0,0,0,247.7138,117.1293Z" style="fill:#e3edff;fill-rule:evenodd;opacity:.702845990657806;isolation:isolate"/><ellipse cx="280.171" cy="120.619" rx="10.373" ry="10.83" transform="translate(117.2085 378.4723) rotate(-81)" style="fill:#ffd166;stroke:#163150;stroke-width:1.70000004768372px"/><ellipse cx="281.862" cy="119.837" rx="9.335" ry="9.283" transform="translate(119.4073 379.4818) rotate(-81)" style="fill:#ffd166;stroke:#163150;stroke-width:1.70000004768372px"/><path d="M276.3322,114.03a8.8559,8.8559,0,0,1,5.3126-2.3057c4.273-.4491,8.215,3.1232,8.6607,7.3638a8.0354,8.0354,0,0,1-7.2315,9.0389,7.3632,7.3632,0,0,1-5.2255-1.164,7.8075,7.8075,0,0,0,1.8138.02,6.7576,6.7576,0,1,0-1.4088-13.4039A7.7959,7.7959,0,0,0,276.3322,114.03Z" style="fill:#e3edff;fill-rule:evenodd;opacity:.702845990657806;isolation:isolate"/><ellipse cx="269.348" cy="114.54" rx="9.335" ry="7.736" transform="translate(131.7687 372.8797) rotate(-85)" style="fill:#ffd166;stroke:#163150;stroke-width:1.70000004768372px"/><ellipse cx="271.403" cy="114.719" rx="9.335" ry="6.704" transform="translate(133.4655 375.091) rotate(-85)" style="fill:#ffd166;stroke:#163150;stroke-width:1.70000004768372px"/><path d="M269.1576,122.63c3.0209-.6035,5.5-3.687,5.8415-7.596s-1.5635-7.376-4.4338-8.4949a5.4992,5.4992,0,0,1,1.5607-.0864c3.6887.3227,5.6565,4.2244,5.2571,8.79s-3.0149,8.0662-6.7036,7.7435A5.4965,5.4965,0,0,1,269.1576,122.63Z" style="fill:#e3edff;fill-rule:evenodd;opacity:.702845990657806;isolation:isolate"/><ellipse cx="236.24" cy="117.302" rx="7.736" ry="9.335" transform="translate(6.8884 247.5596) rotate(-56)" style="fill:#ffd166;stroke:#163150;stroke-width:1.70000004768372px"/><ellipse cx="237.394" cy="115.592" rx="6.704" ry="9.335" transform="translate(8.8148 247.7621) rotate(-56)" style="fill:#ffd166;stroke:#163150;stroke-width:1.70000004768372px"/><path d="M243.224,121.3908c.9368-2.9348-.5585-6.5975-3.8116-8.7918s-7.2092-2.2085-9.5793-.24a5.4972,5.4972,0,0,1,.6811-1.4069c2.0705-3.07,6.4369-2.8993,10.2364-.3365s5.5932,6.5474,3.5227,9.6172A5.5035,5.5035,0,0,1,243.224,121.3908Z" style="fill:#e3edff;fill-rule:evenodd;opacity:.702845990657806;isolation:isolate"/></g><g id="Group-33-Copy-5"><ellipse cx="193.827" cy="100.484" rx="10.83" ry="10.373" transform="matrix(0.6018, -0.7986, 0.7986, 0.6018, -3.0714, 194.8085)" style="fill:#ffd166;stroke:#163150;stroke-width:1.70000004768372px"/><ellipse cx="193.724" cy="102.344" rx="9.283" ry="9.335" transform="translate(-4.5977 195.467) rotate(-53)" style="fill:#ffd166;stroke:#163150;stroke-width:1.70000004768372px"/><path d="M201.4472,100.1881a8.856,8.856,0,0,1-.4583,5.7732c-1.61,3.9837-6.6143,5.7871-10.5678,4.19a8.0354,8.0354,0,0,1-4.5859-10.6285,7.3632,7.3632,0,0,1,3.4809-4.0674,7.8083,7.8083,0,0,0-.8688,1.5923,6.7576,6.7576,0,1,0,12.4963,5.0488A7.7971,7.7971,0,0,0,201.4472,100.1881Z" style="fill:#e3edff;fill-rule:evenodd;opacity:.702845990657806;isolation:isolate"/></g><g id="Group-33-Copy-6"><ellipse cx="212.476" cy="103.341" rx="10.373" ry="10.83" transform="translate(42.6962 267.6583) rotate(-70)" style="fill:#ffd166;stroke:#163150;stroke-width:1.70000004768372px"/><ellipse cx="210.667" cy="103.787" rx="9.335" ry="9.283" transform="translate(41.0875 266.2519) rotate(-70)" style="fill:#ffd166;stroke:#163150;stroke-width:1.70000004768372px"/><path d="M214.9872,110.5416a8.8557,8.8557,0,0,1-5.6549,1.2495c-4.28-.3744-7.4681-4.6332-7.0965-8.8809a8.0354,8.0354,0,0,1,8.8233-7.4931,7.3634,7.3634,0,0,1,4.9074,2.14,7.8145,7.8145,0,0,0-1.7767-.3654,6.7576,6.7576,0,1,0-1.1747,13.4264A7.7966,7.7966,0,0,0,214.9872,110.5416Z" style="fill:#e3edff;fill-rule:evenodd;opacity:.702845990657806;isolation:isolate"/></g><g id="Group-44"><g id="Group-33-Copy-11"><ellipse cx="218.878" cy="95.245" rx="10.373" ry="10.83" transform="translate(119.8278 312.4276) rotate(-89)" style="fill:#ffd166;stroke:#163150;stroke-width:1.70000004768372px"/><ellipse cx="220.443" cy="94.235" rx="9.335" ry="9.283" transform="translate(122.3755 313) rotate(-89)" style="fill:#ffd166;stroke:#163150;stroke-width:1.70000004768372px"/><path d="M214.16,89.2542a8.8554,8.8554,0,0,1,4.94-3.0226c4.1689-1.0394,8.57,1.95,9.6012,6.0868a8.0354,8.0354,0,0,1-5.9031,9.9574,7.3633,7.3633,0,0,1-5.3366-.4254,7.8067,7.8067,0,0,0,1.7988-.233A6.7576,6.7576,0,1,0,215.9993,88.54,7.7929,7.7929,0,0,0,214.16,89.2542Z" style="fill:#e3edff;fill-rule:evenodd;opacity:.702845990657806;isolation:isolate"/></g><g id="Group-33-Copy-12"><ellipse cx="212.969" cy="90.014" rx="10.83" ry="10.373" transform="translate(87.3408 284.1171) rotate(-80)" style="fill:#ffd166;stroke:#163150;stroke-width:1.70000004768372px"/><ellipse cx="213.722" cy="91.718" rx="9.283" ry="9.335" transform="translate(86.285 286.2665) rotate(-80)" style="fill:#ffd166;stroke:#163150;stroke-width:1.70000004768372px"/><path d="M219.6244,86.2907a8.8554,8.8554,0,0,1,2.2125,5.352c.3745,4.28-3.266,8.1592-7.5137,8.5308a8.0354,8.0354,0,0,1-8.9114-7.3881,7.3633,7.3633,0,0,1,1.255-5.2043,7.8085,7.8085,0,0,0-.0513,1.8131A6.7576,6.7576,0,1,0,220.0419,88.22,7.7964,7.7964,0,0,0,219.6244,86.2907Z" style="fill:#e3edff;fill-rule:evenodd;opacity:.702845990657806;isolation:isolate"/></g><g id="Group-33-Copy-13"><ellipse cx="230.88" cy="84.079" rx="10.83" ry="10.373" transform="translate(-8.5257 28.7639) rotate(-7)" style="fill:#ffd166;stroke:#163150;stroke-width:1.70000004768372px"/><ellipse cx="229.471" cy="85.297" rx="9.283" ry="9.335" transform="translate(-8.6847 28.6013) rotate(-7)" style="fill:#ffd166;stroke:#163150;stroke-width:1.70000004768372px"/><path d="M236.3868,89.3549a8.8558,8.8558,0,0,1-4.4713,3.6806c-3.9837,1.61-8.7576-.7377-10.3549-4.6912a8.0355,8.0355,0,0,1,4.46-10.6821,7.3633,7.3633,0,0,1,5.3439-.3214,7.8115,7.8115,0,0,0-1.749.481,6.7576,6.7576,0,1,0,5.0489,12.4963A7.7984,7.7984,0,0,0,236.3868,89.3549Z" style="fill:#e3edff;fill-rule:evenodd;opacity:.702845990657806;isolation:isolate"/></g><g id="Group-30-Copy-9"><ellipse cx="200.839" cy="97.386" rx="9.335" ry="7.736" transform="translate(86.3192 288.9723) rotate(-85)" style="fill:#ffd166;stroke:#163150;stroke-width:1.70000004768372px"/><ellipse cx="198.784" cy="97.206" rx="9.335" ry="6.704" transform="translate(84.6223 286.7609) rotate(-85)" style="fill:#ffd166;stroke:#163150;stroke-width:1.70000004768372px"/><path d="M201.0287,89.2953c-3.021.6035-5.5,3.687-5.8416,7.596s1.5635,7.376,4.4338,8.4949a5.499,5.499,0,0,1-1.5607.0864c-3.6886-.3227-5.6564-4.2243-5.257-8.79s3.0148-8.0662,6.7035-7.7434A5.5015,5.5015,0,0,1,201.0287,89.2953Z" style="fill:#e3edff;fill-rule:evenodd;opacity:.702845990657806;isolation:isolate"/></g><g id="Group-30-Copy-10"><ellipse cx="198.378" cy="90.66" rx="9.335" ry="7.736" transform="translate(22.9093 220.2124) rotate(-61)" style="fill:#ffd166;stroke:#163150;stroke-width:1.70000004768372px"/><ellipse cx="196.574" cy="89.66" rx="9.335" ry="6.704" transform="translate(22.8545 218.1191) rotate(-61)" style="fill:#ffd166;stroke:#163150;stroke-width:1.70000004768372px"/><path d="M201.8422,83.3464c-3.0052-.6774-6.5237,1.1314-8.426,4.5633s-1.5718,7.3743.5952,9.5639a5.4978,5.4978,0,0,1-1.4608-.5559c-3.2386-1.7951-3.4493-6.16-1.2274-10.1682s6.035-6.1425,9.2735-4.3474A5.501,5.501,0,0,1,201.8422,83.3464Z" style="fill:#e3edff;fill-rule:evenodd;opacity:.702845990657806;isolation:isolate"/></g></g><g id="Group-33-Copy-7"><ellipse cx="210.765" cy="113.368" rx="10.373" ry="10.83" transform="translate(-4.8362 217.2448) rotate(-54)" style="fill:#ffd166;stroke:#163150;stroke-width:1.70000004768372px"/><ellipse cx="208.904" cy="113.298" rx="9.335" ry="9.283" transform="translate(-5.5467 215.71) rotate(-54)" style="fill:#ffd166;stroke:#163150;stroke-width:1.70000004768372px"/><path d="M211.1946,120.9821a8.856,8.856,0,0,1-5.78-.3575c-4.0112-1.54-5.9017-6.5122-4.3736-10.493a8.0353,8.0353,0,0,1,10.5469-4.7707,7.3637,7.3637,0,0,1,4.1275,3.4094,7.8136,7.8136,0,0,0-1.6072-.8409,6.7576,6.7576,0,1,0-4.83,12.5825A7.7942,7.7942,0,0,0,211.1946,120.9821Z" style="fill:#e3edff;fill-rule:evenodd;opacity:.702845990657806;isolation:isolate"/></g><g id="Group-30-Copy-5"><ellipse cx="180.532" cy="94.424" rx="9.335" ry="7.736" transform="translate(-21.9368 117.0949) rotate(-34)" style="fill:#ffd166;stroke:#163150;stroke-width:1.70000004768372px"/><ellipse cx="179.378" cy="92.713" rx="9.335" ry="6.704" transform="translate(-21.1777 116.1574) rotate(-34)" style="fill:#ffd166;stroke:#163150;stroke-width:1.70000004768372px"/><path d="M186.9387,89.48c-2.37-1.968-6.3263-1.9537-9.5794.2406s-4.7483,5.8569-3.8115,8.7917a5.5035,5.5035,0,0,1-1.0493-1.1585c-2.0705-3.07-.2768-7.0544,3.5227-9.6172s8.1659-2.7332,10.2364.3365A5.4972,5.4972,0,0,1,186.9387,89.48Z" style="fill:#e3edff;fill-rule:evenodd;opacity:.702845990657806;isolation:isolate"/></g><g id="Group-30-Copy-6"><ellipse cx="264.838" cy="117.887" rx="9.335" ry="7.736" transform="translate(27.3874 284.1814) rotate(-59)" style="fill:#ffd166;stroke:#163150;stroke-width:1.70000004768372px"/><ellipse cx="266.606" cy="118.95" rx="9.335" ry="6.704" transform="translate(27.3343 286.2123) rotate(-59)" style="fill:#ffd166;stroke:#163150;stroke-width:1.70000004768372px"/><path d="M261.1207,125.0754c2.98.7819,6.5592-.903,8.58-4.2665s1.8281-7.3149-.2611-9.5788a5.4961,5.4961,0,0,1,1.44.6065c3.1739,1.9071,3.2322,6.2764.8718,10.2048s-6.2457,5.9282-9.42,4.0212A5.5,5.5,0,0,1,261.1207,125.0754Z" style="fill:#e3edff;fill-rule:evenodd;opacity:.702845990657806;isolation:isolate"/></g><g id="Group-33-Copy"><ellipse cx="216.36" cy="110.21" rx="10.83" ry="10.373" transform="translate(15.0743 246.0122) rotate(-61)" style="fill:#ffd166;stroke:#163150;stroke-width:1.70000004768372px"/><ellipse cx="216.203" cy="108.354" rx="9.283" ry="9.335" transform="translate(16.6167 244.9185) rotate(-61)" style="fill:#ffd166;stroke:#163150;stroke-width:1.70000004768372px"/><path d="M208.8552,111.5644a8.8558,8.8558,0,0,1-.35-5.7807c1.04-4.169,5.7445-6.6514,9.8818-5.62a8.0355,8.0355,0,0,1,6.02,9.8869,7.3634,7.3634,0,0,1-2.881,4.5123,7.8083,7.8083,0,0,0,.6388-1.6977,6.7576,6.7576,0,1,0-13.0773-3.2606A7.7972,7.7972,0,0,0,208.8552,111.5644Z" style="fill:#e3edff;fill-rule:evenodd;opacity:.702845990657806;isolation:isolate"/></g><g id="Group-33-Copy-8"><ellipse cx="212.612" cy="121.052" rx="10.83" ry="10.373" transform="translate(-23.3244 185.7946) rotate(-45)" style="fill:#ffd166;stroke:#163150;stroke-width:1.70000004768372px"/><ellipse cx="212.972" cy="119.225" rx="9.283" ry="9.335" transform="translate(-21.9266 185.5143) rotate(-45)" style="fill:#ffd166;stroke:#163150;stroke-width:1.70000004768372px"/><path d="M205.0244,120.2852a8.8559,8.8559,0,0,1,1.2574-5.6532c2.1482-3.7209,7.3552-4.81,11.0479-2.6784a8.0355,8.0355,0,0,1,3.0622,11.1634,7.3636,7.3636,0,0,1-4.0132,3.5433,7.8114,7.8114,0,0,0,1.082-1.4558,6.7576,6.7576,0,1,0-11.672-6.7388A7.7953,7.7953,0,0,0,205.0244,120.2852Z" style="fill:#e3edff;fill-rule:evenodd;opacity:.702845990657806;isolation:isolate"/></g><g id="Group-33-Copy-2"><ellipse cx="197.493" cy="109.991" rx="10.373" ry="10.83" transform="translate(48.8442 280.2995) rotate(-78)" style="fill:#ffd166;stroke:#163150;stroke-width:1.70000004768372px"/><ellipse cx="199.222" cy="109.298" rx="9.335" ry="9.283" transform="translate(50.8915 281.4419) rotate(-78)" style="fill:#ffd166;stroke:#163150;stroke-width:1.70000004768372px"/><path d="M194.0037,103.21a8.8554,8.8554,0,0,1,5.4259-2.0244c4.2907-.2249,8.04,3.5488,8.2634,7.8069a8.0354,8.0354,0,0,1-7.6946,8.6481,7.3636,7.3636,0,0,1-5.1574-1.4359,7.806,7.806,0,0,0,1.81.1145,6.7576,6.7576,0,1,0-.7054-13.4592A7.7934,7.7934,0,0,0,194.0037,103.21Z" style="fill:#e3edff;fill-rule:evenodd;opacity:.702845990657806;isolation:isolate"/></g><g id="Group-33-Copy-10"><ellipse cx="242.911" cy="110.999" rx="10.83" ry="10.373" transform="translate(-18.7435 57.488) rotate(-13)" style="fill:#ffd166;stroke:#163150;stroke-width:1.70000004768372px"/><ellipse cx="241.637" cy="112.357" rx="9.283" ry="9.335" transform="translate(-19.0818 57.2362) rotate(-13)" style="fill:#ffd166;stroke:#163150;stroke-width:1.70000004768372px"/><path d="M248.9388,115.67a8.8552,8.8552,0,0,1-4.062,4.1279c-3.7936,2.0171-8.7867.1816-10.7885-3.5832a8.0355,8.0355,0,0,1,3.3188-11.09,7.3635,7.3635,0,0,1,5.281-.8782,7.8049,7.8049,0,0,0-1.689.6612,6.7576,6.7576,0,1,0,6.3274,11.9A7.7968,7.7968,0,0,0,248.9388,115.67Z" style="fill:#e3edff;fill-rule:evenodd;opacity:.702845990657806;isolation:isolate"/></g><g id="Group-33-Copy-14"><ellipse cx="244.983" cy="106.673" rx="10.373" ry="10.83" transform="translate(32.915 269.2237) rotate(-61)" style="fill:#ffd166;stroke:#163150;stroke-width:1.70000004768372px"/><ellipse cx="243.127" cy="106.83" rx="9.335" ry="9.283" transform="translate(31.8213 267.6813) rotate(-61)" style="fill:#ffd166;stroke:#163150;stroke-width:1.70000004768372px"/><path d="M246.337,114.1775a8.8562,8.8562,0,0,1-5.7808.35c-4.1689-1.0394-6.6514-5.7444-5.62-9.8817a8.0354,8.0354,0,0,1,9.8868-6.0206,7.3638,7.3638,0,0,1,4.5123,2.881,7.8081,7.8081,0,0,0-1.6977-.6387,6.7576,6.7576,0,1,0-3.2605,13.0773A7.7961,7.7961,0,0,0,246.337,114.1775Z" style="fill:#e3edff;fill-rule:evenodd;opacity:.702845990657806;isolation:isolate"/></g><g id="Group-30"><ellipse cx="182.927" cy="110.113" rx="9.335" ry="7.736" transform="translate(48.4274 275.9351) rotate(-82)" style="fill:#ffd166;stroke:#163150;stroke-width:1.70000004768372px"/><ellipse cx="184.97" cy="110.4" rx="9.335" ry="6.704" transform="translate(49.9017 278.2052) rotate(-82)" style="fill:#ffd166;stroke:#163150;stroke-width:1.70000004768372px"/><path d="M182.314,118.1822c3.0484-.4445,5.6849-3.3941,6.231-7.28s-1.1753-7.4478-3.9831-8.7154a5.503,5.503,0,0,1,1.5631-.0045c3.6667.5153,5.4276,4.5145,4.79,9.0529s-3.4329,7.8974-7.1,7.382A5.5,5.5,0,0,1,182.314,118.1822Z" style="fill:#e3edff;fill-rule:evenodd;opacity:.702845990657806;isolation:isolate"/></g><g id="Group-30-Copy-8"><ellipse cx="252.625" cy="117.974" rx="9.335" ry="7.736" transform="translate(35.847 293.3156) rotate(-64)" style="fill:#ffd166;stroke:#163150;stroke-width:1.70000004768372px"/><ellipse cx="250.771" cy="117.07" rx="9.335" ry="6.704" transform="translate(35.6185 291.1412) rotate(-64)" style="fill:#ffd166;stroke:#163150;stroke-width:1.70000004768372px"/><path d="M255.7019,110.4893c-3.0366-.5192-6.4556,1.4712-8.1757,4.998s-1.1837,7.4464,1.0949,9.52a5.5041,5.5041,0,0,1-1.4879-.4787c-3.328-1.6232-3.7669-5.9709-1.7579-10.09s5.7053-6.45,9.0333-4.8268A5.4981,5.4981,0,0,1,255.7019,110.4893Z" style="fill:#e3edff;fill-rule:evenodd;opacity:.702845990657806;isolation:isolate"/></g><g id="Group-30-Copy"><ellipse cx="230.23" cy="107.19" rx="9.335" ry="7.736" transform="translate(38.664 273.9172) rotate(-66)" style="fill:#ffd166;stroke:#163150;stroke-width:1.70000004768372px"/><ellipse cx="232.114" cy="108.029" rx="9.335" ry="6.704" transform="translate(39.0155 276.1366) rotate(-66)" style="fill:#ffd166;stroke:#163150;stroke-width:1.70000004768372px"/><path d="M227.416,114.7777c3.0529.4129,6.4-1.6957,7.9963-5.28s.9231-7.4832-1.4265-9.4756a5.4969,5.4969,0,0,1,1.5037.4264c3.3826,1.506,3.973,5.8357,2.1089,10.0225s-5.4767,6.6452-8.8593,5.1391A5.4955,5.4955,0,0,1,227.416,114.7777Z" style="fill:#e3edff;fill-rule:evenodd;opacity:.702845990657806;isolation:isolate"/></g><g id="Group-30-Copy-11"><ellipse cx="231.485" cy="92.085" rx="9.335" ry="7.736" transform="translate(-17.4414 102.1146) rotate(-24)" style="fill:#ffd166;stroke:#163150;stroke-width:1.70000004768372px"/><ellipse cx="232.324" cy="93.97" rx="9.335" ry="6.704" transform="translate(-18.1354 102.6188) rotate(-24)" style="fill:#ffd166;stroke:#163150;stroke-width:1.70000004768372px"/><path d="M224.3168,95.8411c1.9924,2.35,5.891,3.0225,9.4756,1.4265s5.6933-4.9435,5.28-7.9963a5.5017,5.5017,0,0,1,.8321,1.3231c1.5061,3.3826-.9523,6.9953-5.1391,8.8593s-8.5165,1.2737-10.0225-2.1089A5.5017,5.5017,0,0,1,224.3168,95.8411Z" style="fill:#e3edff;fill-rule:evenodd;opacity:.702845990657806;isolation:isolate"/></g><ellipse cx="153.795" cy="104.382" rx="7.769" ry="9.295" transform="translate(-22.1241 164.3893) rotate(-53)" style="fill:#ffd166;stroke:#163150;stroke-width:1.70000004768372px"/><ellipse cx="155.038" cy="102.724" rx="6.734" ry="9.295" transform="translate(-20.3054 164.7219) rotate(-53)" style="fill:#ffd166;stroke:#163150;stroke-width:1.70000004768372px"/><path d="M160.5582,108.8092c1.089-2.8817-.2125-6.6177-3.3463-8.9792s-7.0837-2.5828-9.5536-.7416a5.4983,5.4983,0,0,1,.7538-1.3692c2.2284-2.9572,6.58-2.5585,10.24.2s5.2429,6.8311,3.0145,9.7883A5.5021,5.5021,0,0,1,160.5582,108.8092Z" style="fill:#e3edff;fill-rule:evenodd;opacity:.702845990657806;isolation:isolate"/><g id="Group-30-Copy-2"><ellipse cx="230.367" cy="114.35" rx="9.335" ry="7.736" transform="translate(-17.3444 183.5169) rotate(-42)" style="fill:#ffd166;stroke:#163150;stroke-width:1.70000004768372px"/><ellipse cx="231.747" cy="115.883" rx="9.335" ry="6.704" transform="translate(-18.0157 184.8343) rotate(-42)" style="fill:#ffd166;stroke:#163150;stroke-width:1.70000004768372px"/><path d="M224.71,120.1376c2.621,1.6189,6.5366,1.0542,9.4526-1.5714s3.887-6.4608,2.5509-9.2367a5.5007,5.5007,0,0,1,1.2,1.0012c2.4777,2.7517,1.2559,6.9472-2.15,10.0139s-7.706,3.843-10.1837,1.0914A5.5,5.5,0,0,1,224.71,120.1376Z" style="fill:#e3edff;fill-rule:evenodd;opacity:.702845990657806;isolation:isolate"/></g><g id="Group-46"><rect width="15.254" height="80.386" x="136.32" y="134.45" rx="3.156" transform="translate(-49.03 292.8839) rotate(-82)" style="fill:#057a97;stroke:#163150;stroke-width:1.5px"/><rect id="Rectangle-Copy-26" width="15.254" height="101.115" x="226.598" y="136.773" rx="3.156" transform="translate(16.1192 393.2047) rotate(-82)" style="fill:#0e95b6;stroke:#163150;stroke-width:1.5px"/><rect width="39.39" height="14.392" x="95.377" y="135.809" rx="3.156" transform="translate(-42.5559 237.055) rotate(-82)" style="fill:#057a97;stroke:#163150;stroke-width:1.5px"/><rect id="Rectangle-Copy-19" width="39.39" height="8.47" x="107.107" y="140.419" rx=".842" transform="translate(-34.091 250.0897) rotate(-82)" style="fill:#163150;stroke:#163150;stroke-width:.815999984741211px"/><rect id="Rectangle-Copy-20" width="39.39" height="46.543" x="128.472" y="124.385" rx=".842" transform="translate(-18.6729 273.8316) rotate(-82)" style="fill:#9f6634;stroke:#163150;stroke-width:.815999984741211px"/><path id="Path-53-Copy-7" d="M124.4259,139.0312l46.7161,6.5655" style="fill:none;stroke:#163150;stroke-linecap:round;stroke-width:1.70000004768372px"/><rect id="Rectangle-Copy-27" width="39.39" height="87.578" x="225.034" y="117.438" rx=".842" transform="translate(51.011 381.1354) rotate(-82)" style="fill:#ae723b;stroke:#163150;stroke-width:.815999984741211px"/><rect id="Rectangle-Copy-16" width="39.39" height="16.084" x="159.891" y="144.03" rx="3.156" transform="translate(4.0008 308.746) rotate(-82)" style="fill:#057a97;stroke:#163150;stroke-width:1.5px"/><rect id="Rectangle-Copy-25" width="39.39" height="14.392" x="175.391" y="147.054" rx="3.156" transform="translate(15.1865 325.9705) rotate(-82)" style="fill:#0e95b6;stroke:#163150;stroke-width:1.5px"/><path id="Path-53" d="M203.7747,150.183l69.96,9.8322" style="fill:none;stroke:#163150;stroke-linecap:round;stroke-width:1.70000004768372px"/><path id="Path-53-Copy-5" d="M122.35,153.8014l46.7161,6.5656" style="fill:none;stroke:#163150;stroke-linecap:round;stroke-width:1.70000004768372px"/><path id="Path-53-Copy" d="M201.6989,164.9532l69.96,9.8322" style="fill:none;stroke:#163150;stroke-linecap:round;stroke-width:1.70000004768372px"/><rect id="Rectangle-Copy-29" width="39.39" height="14.392" x="258.757" y="158.77" rx=".842" transform="translate(75.3475 418.6102) rotate(-82)" style="fill:#163150;stroke:#163150;stroke-width:.815999984741211px"/><rect id="Rectangle-Copy-28" width="39.39" height="14.392" x="261.27" y="159.124" rx="3.156" transform="translate(77.1614 421.4034) rotate(-82)" style="fill:#0e95b6;stroke:#163150;stroke-width:1.5px"/><g style="mask:url(#mask)"><g id="Group"><path d="M237.2809,71.291c-3.8055,27.0774,17.7135,52.4858,48.064,56.7512S343.3843,113.815,347.19,86.7377c2.1639-15.3972-3.8607-30.2547-15.0415-40.992a59.5293,59.5293,0,0,0-33.0225-15.7593C268.7753,25.7209,241.0864,44.2136,237.2809,71.291Z" style="fill:#0e95b6;stroke:#163150;stroke-width:1.5px;fill-rule:evenodd"/><ellipse cx="284.802" cy="79.46" rx="36.403" ry="50.827" transform="translate(166.4782 350.4316) rotate(-82)" style="fill:#163150;stroke:#163150;stroke-width:.815999984741211px"/><ellipse cx="283.995" cy="77.749" rx="34.82" ry="49.789" transform="translate(167.4787 348.1591) rotate(-82)" style="fill:#ae723b;stroke:#163150;stroke-width:.815999984741211px"/><rect width="101.115" height="15.254" x="243.669" y="71.699" rx="4.208" transform="translate(174.7235 359.6491) rotate(-82)" style="fill:#0e95b6;stroke:#163150;stroke-width:1.5px"/><path id="Path-53-Copy-3" d="M314.9858,52.9042l-8.1825,58.2216" style="fill:none;stroke:#163150;stroke-linecap:round;stroke-width:1.70000004768372px"/><path id="Path-53-Copy-4" d="M328.37,64.8414l-5.5045,39.1665" style="fill:none;stroke:#163150;stroke-linecap:round;stroke-width:1.70000004768372px"/></g></g><path d="M192.4218,117.6627l.7173.1009-9.5279,67.7942-.7173-.1008q4.0207-30.8151,6.3908-47.6792T192.4218,117.6627Z" style="fill:#163150;fill-rule:evenodd"/><rect id="Rectangle-Copy-23" width="16.524" height="101.115" x="233.712" y="81.633" rx="3.156" transform="matrix(0.1392, -0.9903, 0.9903, 0.1392, 77.3936, 353.4126)" style="fill:#0e95b6;stroke:#163150;stroke-width:1.5px"/><rect id="Rectangle-Copy-21" width="16.524" height="80.386" x="143.434" y="79.31" rx="3.156" transform="translate(12.2445 253.0918) rotate(-82)" style="fill:#057a97;stroke:#163150;stroke-width:1.5px"/></g></g><g id="Group-44-Copy-2"><ellipse cx="298.813" cy="172.413" rx="10.373" ry="10.83" transform="translate(-18.712 307.2949) rotate(-53)" style="fill:#ffd166;stroke:#163150;stroke-width:1.70000004768372px"/><ellipse cx="296.953" cy="172.31" rx="9.335" ry="9.283" transform="translate(-19.3706 305.7686) rotate(-53)" style="fill:#ffd166;stroke:#163150;stroke-width:1.70000004768372px"/><path d="M299.1094,180.033a8.856,8.856,0,0,1-5.7732-.4584c-3.9837-1.6095-5.7872-6.6142-4.19-10.5677a8.0354,8.0354,0,0,1,10.6285-4.586,7.3637,7.3637,0,0,1,4.0674,3.481,7.8113,7.8113,0,0,0-1.5923-.8689,6.7576,6.7576,0,1,0-5.0488,12.4963A7.7973,7.7973,0,0,0,299.1094,180.033Z" style="fill:#e3edff;fill-rule:evenodd;opacity:.702845990657806;isolation:isolate"/><ellipse cx="300.519" cy="180.118" rx="10.83" ry="10.373" transform="translate(-40.7766 259.31) rotate(-44)" style="fill:#ffd166;stroke:#163150;stroke-width:1.70000004768372px"/><ellipse cx="300.911" cy="178.297" rx="9.283" ry="9.335" transform="translate(-39.4015 259.0715) rotate(-44)" style="fill:#ffd166;stroke:#163150;stroke-width:1.70000004768372px"/><path d="M292.9463,179.2183a8.8552,8.8552,0,0,1,1.3558-5.63c2.2129-3.6829,7.4381-4.6812,11.0931-2.4851a8.0355,8.0355,0,0,1,2.8668,11.2151,7.3633,7.3633,0,0,1-4.0744,3.4727,7.8052,7.8052,0,0,0,1.1072-1.4367,6.7576,6.7576,0,1,0-11.5526-6.9415A7.7916,7.7916,0,0,0,292.9463,179.2183Z" style="fill:#e3edff;fill-rule:evenodd;opacity:.702845990657806;isolation:isolate"/><ellipse cx="282.54" cy="174.392" rx="10.373" ry="10.83" transform="translate(-6.9643 336.9601) rotate(-61)" style="fill:#ffd166;stroke:#163150;stroke-width:1.70000004768372px"/><ellipse cx="284.396" cy="174.234" rx="9.335" ry="9.283" transform="translate(-5.8706 338.5025) rotate(-61)" style="fill:#ffd166;stroke:#163150;stroke-width:1.70000004768372px"/><path d="M281.1863,166.8866a8.8561,8.8561,0,0,1,5.7808-.3495c4.1689,1.0394,6.6513,5.7444,5.62,9.8817a8.0355,8.0355,0,0,1-9.8869,6.0206,7.3638,7.3638,0,0,1-4.5122-2.881,7.8081,7.8081,0,0,0,1.6977.6387A6.7576,6.7576,0,1,0,283.146,167.12,7.7966,7.7966,0,0,0,281.1863,166.8866Z" style="fill:#e3edff;fill-rule:evenodd;opacity:.702845990657806;isolation:isolate"/><ellipse cx="314.666" cy="181.284" rx="9.335" ry="7.736" transform="translate(-28.5905 299.8324) rotate(-49)" style="fill:#ffd166;stroke:#163150;stroke-width:1.70000004768372px"/><ellipse cx="316.223" cy="182.638" rx="9.335" ry="6.704" transform="translate(-29.0764 301.4729) rotate(-49)" style="fill:#ffd166;stroke:#163150;stroke-width:1.70000004768372px"/><path d="M309.7566,187.7178c2.7987,1.2874,6.6164.25,9.1907-2.7117s3.0706-6.8863,1.4062-9.4787a5.5,5.5,0,0,1,1.3134.8475c2.7945,2.4292,2.0932,6.7424-.9135,10.2012s-7.18,4.7536-9.9748,2.3243A5.4992,5.4992,0,0,1,309.7566,187.7178Z" style="fill:#e3edff;fill-rule:evenodd;opacity:.702845990657806;isolation:isolate"/></g><ellipse cx="87.782" cy="162.777" rx="10.373" ry="10.83" transform="translate(-77.96 244.8246) rotate(-88)" style="fill:#ffd166;stroke:#163150;stroke-width:1.70000004768372px"/><ellipse cx="89.364" cy="161.795" rx="9.335" ry="9.283" transform="translate(-75.4508 245.4577) rotate(-88)" style="fill:#ffd166;stroke:#163150;stroke-width:1.70000004768372px"/><path d="M83.1681,156.705a8.8557,8.8557,0,0,1,4.992-2.9358c4.1865-.9666,8.5344,2.0986,9.4935,6.2533a8.0354,8.0354,0,0,1-6.076,9.8529,7.363,7.363,0,0,1-5.3283-.5185,7.8053,7.8053,0,0,0,1.8026-.2015A6.7576,6.7576,0,1,0,85.02,156.0231,7.7988,7.7988,0,0,0,83.1681,156.705Z" style="fill:#e3edff;fill-rule:evenodd;opacity:.702845990657806;isolation:isolate"/><ellipse cx="81.965" cy="157.444" rx="10.83" ry="10.373" transform="translate(-88.2263 207.8612) rotate(-79)" style="fill:#ffd166;stroke:#163150;stroke-width:1.70000004768372px"/><ellipse cx="82.688" cy="159.161" rx="9.283" ry="9.335" transform="matrix(0.1908, -0.9816, 0.9816, 0.1908, -89.3264, 209.96)" style="fill:#ffd166;stroke:#163150;stroke-width:1.70000004768372px"/><path d="M88.6839,153.8374a8.855,8.855,0,0,1,2.1188,5.39c.3,4.2861-3.4079,8.1009-7.6615,8.3984A8.0356,8.0356,0,0,1,74.36,160.083a7.3633,7.3633,0,0,1,1.3457-5.1816,7.8083,7.8083,0,0,0-.0829,1.812,6.7576,6.7576,0,1,0,13.4448-.94A7.7912,7.7912,0,0,0,88.6839,153.8374Z" style="fill:#e3edff;fill-rule:evenodd;opacity:.702845990657806;isolation:isolate"/><ellipse cx="99.977" cy="151.823" rx="10.83" ry="10.373" transform="translate(-15.3221 11.2821) rotate(-6)" style="fill:#ffd166;stroke:#163150;stroke-width:1.70000004768372px"/><ellipse cx="98.546" cy="153.016" rx="9.283" ry="9.335" transform="translate(-15.4547 11.1391) rotate(-6)" style="fill:#ffd166;stroke:#163150;stroke-width:1.70000004768372px"/><path d="M105.39,157.1936a8.8559,8.8559,0,0,1-4.5349,3.6021c-4.0112,1.54-8.7433-.8905-10.2714-4.8713A8.0355,8.0355,0,0,1,95.23,145.3218a7.3633,7.3633,0,0,1,5.3487-.2281,7.809,7.809,0,0,0-1.7571.45,6.7576,6.7576,0,1,0,4.83,12.5824A7.7968,7.7968,0,0,0,105.39,157.1936Z" style="fill:#e3edff;fill-rule:evenodd;opacity:.702845990657806;isolation:isolate"/><ellipse cx="69.707" cy="164.603" rx="9.335" ry="7.736" transform="translate(-101.2802 216.7226) rotate(-84)" style="fill:#ffd166;stroke:#163150;stroke-width:1.70000004768372px"/><ellipse cx="67.656" cy="164.387" rx="9.335" ry="6.704" transform="translate(-102.9029 214.4891) rotate(-84)" style="fill:#ffd166;stroke:#163150;stroke-width:1.70000004768372px"/><path d="M70.0386,156.517c-3.0311.5507-5.5631,3.59-5.9732,7.4928S65.5,171.412,68.35,172.5809a5.5015,5.5015,0,0,1-1.5619.0591c-3.6825-.3871-5.5819-4.3224-5.1029-8.88s3.1552-8.0123,6.8377-7.6253A5.4986,5.4986,0,0,1,70.0386,156.517Z" style="fill:#e3edff;fill-rule:evenodd;opacity:.702845990657806;isolation:isolate"/><g id="Group-44-Copy"><ellipse cx="115.038" cy="172.006" rx="10.373" ry="10.83" transform="translate(-78.4367 245.4029) rotate(-77)" style="fill:#ffd166;stroke:#163150;stroke-width:1.70000004768372px"/><ellipse cx="116.779" cy="171.343" rx="9.335" ry="9.283" transform="translate(-76.4418 246.5856) rotate(-77)" style="fill:#ffd166;stroke:#163150;stroke-width:1.70000004768372px"/><path d="M111.6684,165.1647a8.8559,8.8559,0,0,1,5.46-1.9294c4.294-.15,7.9771,3.6885,8.1259,7.95a8.0354,8.0354,0,0,1-7.8444,8.5125,7.3629,7.3629,0,0,1-5.1315-1.5257,7.8056,7.8056,0,0,0,1.808.1461,6.7576,6.7576,0,1,0-.47-13.4694A7.7985,7.7985,0,0,0,111.6684,165.1647Z" style="fill:#e3edff;fill-rule:evenodd;opacity:.702845990657806;isolation:isolate"/><ellipse cx="110.346" cy="165.661" rx="10.83" ry="10.373" transform="matrix(0.3746, -0.9272, 0.9272, 0.3746, -84.5881, 205.9142)" style="fill:#ffd166;stroke:#163150;stroke-width:1.70000004768372px"/><ellipse cx="110.728" cy="167.484" rx="9.283" ry="9.335" transform="translate(-86.0394 207.4087) rotate(-68)" style="fill:#ffd166;stroke:#163150;stroke-width:1.70000004768372px"/><path d="M117.63,163.4022a8.8553,8.8553,0,0,1,1.0514,5.6951c-.5236,4.2645-4.891,7.3018-9.1232,6.7822a8.0356,8.0356,0,0,1-7.1806-9.0795,7.3638,7.3638,0,0,1,2.31-4.83,7.8054,7.8054,0,0,0-.4271,1.7629,6.7576,6.7576,0,1,0,13.3771,1.6425A7.7979,7.7979,0,0,0,117.63,163.4022Z" style="fill:#e3edff;fill-rule:evenodd;opacity:.702845990657806;isolation:isolate"/><ellipse cx="129.1" cy="163.579" rx="10.373" ry="10.83" transform="translate(-45.1087 277.9307) rotate(-85)" style="fill:#ffd166;stroke:#163150;stroke-width:1.70000004768372px"/><ellipse cx="127.468" cy="164.478" rx="9.335" ry="9.283" transform="translate(-47.4933 277.1254) rotate(-85)" style="fill:#ffd166;stroke:#163150;stroke-width:1.70000004768372px"/><path d="M133.3891,169.8845a8.8559,8.8559,0,0,1-5.1388,2.6706c-4.2313.7461-8.4129-2.5425-9.1533-6.7417a8.0355,8.0355,0,0,1,6.5834-9.5214,7.3636,7.3636,0,0,1,5.2939.7967,7.8092,7.8092,0,0,0-1.8107.1069,6.7576,6.7576,0,1,0,2.34,13.2729A7.7961,7.7961,0,0,0,133.3891,169.8845Z" style="fill:#e3edff;fill-rule:evenodd;opacity:.702845990657806;isolation:isolate"/><ellipse cx="96.948" cy="170.349" rx="9.335" ry="7.736" transform="translate(-94.3024 213.2555) rotate(-73)" style="fill:#ffd166;stroke:#163150;stroke-width:1.70000004768372px"/><ellipse cx="94.975" cy="169.746" rx="9.335" ry="6.704" transform="translate(-95.1216 210.9422) rotate(-73)" style="fill:#ffd166;stroke:#163150;stroke-width:1.70000004768372px"/><path d="M98.816,162.4749c-3.08-.0378-6.1459,2.463-7.2932,6.2154s-.0042,7.54,2.5707,9.2312a5.5015,5.5015,0,0,1-1.5445-.24c-3.541-1.0826-4.6546-5.3081-3.3146-9.6908s4.626-7.2631,8.167-6.18A5.4958,5.4958,0,0,1,98.816,162.4749Z" style="fill:#e3edff;fill-rule:evenodd;opacity:.702845990657806;isolation:isolate"/></g><ellipse cx="89.481" cy="161.141" rx="7.736" ry="9.335" transform="translate(-86.7423 215.163) rotate(-78)" style="fill:#ffd166;stroke:#163150;stroke-width:1.70000004768372px"/><ellipse cx="89.91" cy="159.123" rx="6.704" ry="9.335" transform="translate(-84.4289 213.9843) rotate(-78)" style="fill:#ffd166;stroke:#163150;stroke-width:1.70000004768372px"/><path d="M97.4879,162.3151c-.2309-3.072-2.9893-5.9078-6.8275-6.7237s-7.5116.6529-8.9719,3.3655a5.4994,5.4994,0,0,1,.1044-1.56c.77-3.6218,4.8822-5.1,9.3651-4.1466s7.6386,3.9754,6.8688,7.5972A5.5017,5.5017,0,0,1,97.4879,162.3151Z" style="fill:#e3edff;fill-rule:evenodd;opacity:.702845990657806;isolation:isolate"/></g><path id="Path-150" d="M200.3248,180.5464C217.63,174.7854,301.33,168.3,340.2,182.6377" style="fill:none;stroke:#163150;stroke-linecap:round;stroke-width:1.70000004768372px"/><path id="Path-149" d="M7.8972,185.013c23.3748-12.43,99.1781-35.9044,215.3879-11.3488" style="fill:none;stroke:#163150;stroke-linecap:round;stroke-width:1.70000004768372px"/><g id="left-coins"><ellipse cx="66.884" cy="164.453" rx="9.335" ry="7.736" transform="translate(-78.7774 62.9587) rotate(-33)" style="fill:#ffd166;stroke:#163150;stroke-width:1.70000004768372px"/><ellipse cx="65.76" cy="162.723" rx="9.335" ry="6.704" transform="translate(-78.0164 62.0676) rotate(-33)" style="fill:#ffd166;stroke:#163150;stroke-width:1.70000004768372px"/><path d="M73.3761,159.6223c-2.3354-2.009-6.2912-2.0638-9.5821.0733s-4.85,5.7732-3.9644,8.7239a5.5018,5.5018,0,0,1-1.0289-1.1766c-2.0167-3.1054-.1537-7.0582,3.69-9.5543s8.2123-2.59,10.229.5152A5.4983,5.4983,0,0,1,73.3761,159.6223Z" style="fill:#e3edff;fill-rule:evenodd;opacity:.702845990657806;isolation:isolate"/></g></svg>