<svg xmlns="http://www.w3.org/2000/svg" xmlns:xlink="http://www.w3.org/1999/xlink" id="Layer_1" data-name="Layer 1" viewBox="0 0 1923.3 275.15"><defs><filter id="f2" width="200%" height="200%" name="f2"><feOffset dx="3" dy="4" in="SourceAlpha" result="offOut"/><feGaussianBlur in="offOut" result="blurOut" stdDeviation="10"/><feComponentTransfer><feFuncA slope=".3" type="linear"/></feComponentTransfer><feMerge><feMergeNode/><feMergeNode in="SourceGraphic"/></feMerge></filter><linearGradient id="linear-gradient" x1="965.92" x2="967.14" y1="83.58" y2="194.61" gradientUnits="userSpaceOnUse"><stop offset="0" stop-color="#fef2d7"/><stop offset="1" stop-color="#ffd36a"/></linearGradient><linearGradient id="linear-gradient-2" x1="924.65" x2="925.98" y1="89.36" y2="175.82" gradientUnits="userSpaceOnUse"><stop offset="0" stop-color="#be914a"/><stop offset="1" stop-color="#ffe9b6"/></linearGradient><linearGradient id="linear-gradient-3" x1="535.9" x2="535.9" y1="1407.1" y2="1407.96" gradientTransform="matrix(1722.47, 0, 0, -106.64, -922141, 150234.57)" gradientUnits="userSpaceOnUse"><stop offset="0" stop-color="#d2981c"/><stop offset="1" stop-color="#ffce5b"/></linearGradient><linearGradient id="linear-gradient-4" x1="530.6" x2="530.6" y1="1406.99" y2="1405.86" gradientTransform="matrix(155.87, 0, 0, -155.88, -80921.09, 219369.21)" gradientUnits="userSpaceOnUse"><stop offset="0" stop-color="#fef2d7"/><stop offset=".81" stop-color="#edc155"/></linearGradient><linearGradient id="linear-gradient-5" x1="530.6" x2="530.6" y1="1406.97" y2="1405.89" gradientTransform="matrix(155.87, 0, 0, -155.88, -80921.09, 219369.21)" xlink:href="#linear-gradient-2"/><linearGradient id="linear-gradient-6" x1="531.03" x2="531.03" y1="1405.79" y2="1406.76" gradientTransform="matrix(168.15, 0, 0, -168.16, -87508.39, 236611.89)" xlink:href="#linear-gradient-3"/><linearGradient id="linear-gradient-7" x1="527.84" x2="527.84" y1="1409.24" y2="1408.33" gradientTransform="matrix(105.8, 0, 0, -77.3, -54064.87, 109031.21)" gradientUnits="userSpaceOnUse"><stop offset="0" stop-color="#be914a"/><stop offset="1" stop-color="#a08f68"/></linearGradient><linearGradient id="linear-gradient-8" x1="292.4" x2="293.28" y1="171.09" y2="89.67" gradientUnits="userSpaceOnUse"><stop offset="0" stop-color="#057a97"/><stop offset="1" stop-color="#00aed9"/></linearGradient><linearGradient id="linear-gradient-9" x1="602.83" x2="602.83" y1="1418.37" y2="1420.02" gradientTransform="matrix(22, 0, 0, -21, -12705.92, 29934.29)" xlink:href="#linear-gradient-8"/><linearGradient id="linear-gradient-10" x1="602.83" x2="602.83" y1="1419.44" y2="1418.97" gradientTransform="matrix(22, 0, 0, -21, -12705.92, 29934.29)" xlink:href="#linear-gradient-2"/><linearGradient id="linear-gradient-11" x1="606.86" x2="606.86" y1="1416.78" y2="1417.84" gradientTransform="matrix(25, 0, 0, -24, -14615.19, 34146.67)" xlink:href="#linear-gradient-3"/><linearGradient id="linear-gradient-12" x1="-1165.07" x2="-1165.07" y1="1406.09" y2="1406.63" gradientTransform="matrix(1, 0, 0, -172.89, 1676.43, 243274.94)" xlink:href="#linear-gradient-3"/><linearGradient id="linear-gradient-13" x1="-750.06" x2="-750.06" y1="1406.09" y2="1406.63" gradientTransform="matrix(1, 0, 0, -172.89, 1676.43, 243274.94)" xlink:href="#linear-gradient-3"/><linearGradient id="linear-gradient-14" x1="-333.71" x2="-333.71" y1="1406.09" y2="1406.63" gradientTransform="matrix(1, 0, 0, -172.89, 1676.43, 243274.94)" xlink:href="#linear-gradient-3"/></defs><title>week-progress-bar</title><g id="base-middle" style="filter:url(#f2)"><path d="M117.39,73.3l1605.74.54c-3.32-2.66,23.28-26.61,57.87-25.94,59.86,1.15,85.79,49.88,85.79,87.13,0,66-76.48,82.47-76.48,82.47-54.54-2.66-65.28-23.74-72.5-29.93L117.39,190c-28.3,0-51.24-26.13-51.24-58.36h0C66.15,99.43,89.09,73.3,117.39,73.3Z" style="fill-rule:evenodd;fill:url(#linear-gradient)"/></g><path id="base-background" d="M1733.21,193H117.39a61.53,61.53,0,0,1,0-123H1733.21a61.53,61.53,0,1,1,0,123.05ZM117.39,90.54a41,41,0,0,0,0,81.93H1733.21a41,41,0,0,0,0-81.93Z" style="fill:url(#linear-gradient-2)"/><path id="base-border" d="M1733.21,193H117.39a61.53,61.53,0,0,1,0-123H1733.21a61.53,61.53,0,1,1,0,123.05ZM117.39,86.38a45.13,45.13,0,0,0,0,90.25H1733.21a45.13,45.13,0,0,0,0-90.25Z" style="fill:url(#linear-gradient-3)"/><g id="final"><path d="M1781.05,44.88a87.75,87.75,0,1,0,87.74,87.75A87.83,87.83,0,0,0,1781.05,44.88Z" style="fill:url(#linear-gradient-4)"/><path d="M1781.05,216.7a84.08,84.08,0,1,1,84.07-84.08A84.17,84.17,0,0,1,1781.05,216.7Zm0-155.88a71.8,71.8,0,1,0,71.8,71.81A71.88,71.88,0,0,0,1781.05,60.82Z" style="fill:url(#linear-gradient-5)"/><path d="M1781.05,222.3a89.68,89.68,0,1,1,89.67-89.68A89.77,89.77,0,0,1,1781.05,222.3Zm0-168.16a78.48,78.48,0,1,0,78.48,78.49A78.57,78.57,0,0,0,1781.05,54.14Z" style="fill:url(#linear-gradient-6)"/><path d="M1763.79,171.59a5.4,5.4,0,0,1-2-.41,5.57,5.57,0,0,1-3-7.19L1772,132a17.37,17.37,0,0,0-2.64,1.28,47.76,47.76,0,0,0-8.36,7,51,51,0,0,1-9,7.54,17.74,17.74,0,0,1-9.22,2.69h0c-.54,0-1.07,0-1.6-.08a3.62,3.62,0,0,1-3-2.26l-10.88-26.5a3.75,3.75,0,0,1,.33-3.47,3.56,3.56,0,0,1,2.92-1.63,14.07,14.07,0,0,0,7.17-2.17,48.22,48.22,0,0,0,8.36-7,51,51,0,0,1,9-7.54,17.33,17.33,0,0,1,10.39-2.65l0-.1h0a1.87,1.87,0,0,1,.07-.22,5.43,5.43,0,0,1,10.06,0L1781,110l5.39-13.11a5.41,5.41,0,0,1,7.12-3,5.49,5.49,0,0,1,3.06,3.27,17.34,17.34,0,0,1,10.37,2.65,51,51,0,0,1,9,7.54,48.35,48.35,0,0,0,8.36,7,14.1,14.1,0,0,0,7.17,2.17,3.57,3.57,0,0,1,2.92,1.62,3.75,3.75,0,0,1,.33,3.47l-10.89,26.5a3.62,3.62,0,0,1-3,2.26c-.54.05-1.07.07-1.62.07a17.68,17.68,0,0,1-9.21-2.69,50.93,50.93,0,0,1-9-7.53,47.92,47.92,0,0,0-8.08-6.83,1,1,0,0,1-.27-.17l0,0,0,0A17.24,17.24,0,0,0,1790,132l13.16,32a5.52,5.52,0,0,1-3,7.18,5.44,5.44,0,0,1-7.13-3L1781,138.73l-12.1,29.46a5.45,5.45,0,0,1-5.08,3.4Zm35-3h0Zm-28-72a1.7,1.7,0,0,0-.66.14,1.79,1.79,0,0,0-1,2.27l9.78,24a.42.42,0,0,1,0,.1l17.62,43.29a1.74,1.74,0,0,0,1.86,1.08l.89-.34.49-.81a1.82,1.82,0,0,0,0-1.3l-27.43-67.39A1.75,1.75,0,0,0,1770.77,96.59Zm5.51,34L1762.16,165a1.78,1.78,0,0,0,1,2.32,1.71,1.71,0,0,0,1.33,0,1.76,1.76,0,0,0,1-1h0l13.52-33-1.12-2.72A11.13,11.13,0,0,0,1776.28,130.6ZM1813,145.11a13.76,13.76,0,0,0,7.23,1.33l2.63-6.18a15.2,15.2,0,0,1-1.9-.15l-.25,0-.25,0c-.57-.09-1.11-.2-1.65-.34l-.7-.2c-.47-.14-1-.32-1.51-.54l-.2-.08h0l-.39-.16-.12-.05-.09,0Zm-71,1.36a13.82,13.82,0,0,0,6.88-1.36l-2.76-6.5a.86.86,0,0,1-.21.07h0l-.32.13-.3.12c-.55.22-1,.39-1.52.54l-.7.2a15.5,15.5,0,0,1-1.63.34l-.22,0a2.14,2.14,0,0,1-.29.05,17.57,17.57,0,0,1-1.91.16l2.52,5.82a1.1,1.1,0,0,1,.35.26Zm68.41-1.17,0,0s0,0,0,0Zm-51.69-6.15-.16.17a55.43,55.43,0,0,1-4.54,4.13,49.34,49.34,0,0,0,4.76-4.27Zm45.29-1.42a50.87,50.87,0,0,0,5.34,4.73l2.54-6.26c-.14-.09-.26-.18-.51-.37l-.66-.48c-.64-.5-1.27-1-1.88-1.55l-.41-.37c-.55-.49-1.08-1-1.61-1.48l-.34-.32Zm-55-1.52,2.54,6.25a49.88,49.88,0,0,0,5.34-4.73l-2.47-6.1-.34.32c-.53.5-1.07,1-1.62,1.48l-.41.37c-.62.54-1.23,1-1.88,1.55l-.83.62Zm69.1.84h0l0-.24Zm-81.46-.61h.06a12.79,12.79,0,0,0,1.64,0h.3a14.69,14.69,0,0,0,1.46-.17h.11l.18,0a15.48,15.48,0,0,0,1.59-.41l.26-.09.1,0c.46-.16.93-.34,1.4-.54l.1-.05.22.43-2.94-6.95h0l-.08,0-.15.06-.36.15-.22.09c-.52.2-1,.39-1.54.54l-.69.2c-.51.14-1.06.25-1.65.35l-.22,0-.27.05q-.95.12-1.92.15ZM1817,135.1l0,0c.57.25,1.05.44,1.5.6l.36.12a13.71,13.71,0,0,0,1.59.41l.16,0,.11,0a14.16,14.16,0,0,0,1.41.16h.36a13.84,13.84,0,0,0,1.58,0h.13l2.61-6.17a17.55,17.55,0,0,1-1.91-.15l-.25,0-.24-.05a16,16,0,0,1-1.65-.35l-.69-.19c-.5-.16-1-.34-1.54-.55h0l-.16-.06-.43-.17-.11,0-.11,0Zm-2.58.91-.06.2,0,.09a1.07,1.07,0,0,1,.16-.14A.47.47,0,0,1,1814.46,136Zm-70.07.09,0,.05,0-.05Zm13.65-6.75,2.42,6c0,.05,0,.09,0,.14a44.52,44.52,0,0,1,5.42-4.58l-2.53-6.26,0,0-.14.09-.57.45c-.41.31-.81.65-1.21,1l-.6.52c-.54.48-1.07,1-1.6,1.48l-.57.55Zm38,1.52a46.29,46.29,0,0,1,5.41,4.58l2.47-6.1-.79-.77-.08-.08-.31-.31c-.54-.5-1.07-1-1.61-1.48l-.6-.52c-.41-.35-.81-.68-1.21-1l-.58-.45-.12-.09,0,0Zm-49.59,4.34v0a1.42,1.42,0,0,1,.07.22l.06-.17Zm67.93.09a.78.78,0,0,1,0,.14.44.44,0,0,0,0-.1Zm-33.4-.75h.15l-.1-.26-.1.25Zm28.06-6.81,1.15,1.12c.57.55,1.14,1.08,1.72,1.59l.3.26.1.09c.46.41.94.8,1.43,1.18l-.62,1,.73-.9.33.26.1.06.1.08,2.54-6.25a6,6,0,0,1-.5-.37l-.35-.26-.31-.23c-.64-.49-1.27-1-1.89-1.55l-.3-.27-.1-.09q-.81-.72-1.62-1.5l-.34-.32Zm-64-1.54,2.53,6.27,0,0a.85.85,0,0,0,.16-.11l.45-.35c.49-.38,1-.77,1.43-1.18l.4-.35c.57-.51,1.14-1,1.71-1.58l1.16-1.13-2.47-6.11s-.09.08-.09.09l-.23.22-1.64,1.51-.4.35c-.67.58-1.28,1.09-1.9,1.55-.1.09-.21.16-.4.3l-.17.13h0ZM1793.3,131l.2.11a1.55,1.55,0,0,1,.07-.23l.1-.25A1.09,1.09,0,0,1,1793.3,131Zm-38-2.41a1.46,1.46,0,0,1,.3.17,1.09,1.09,0,0,1,.29-.48l.93-.91a1.17,1.17,0,0,1-1,.23,1.19,1.19,0,0,1-.69-.44l.19.46A1.13,1.13,0,0,1,1755.29,128.56Zm51-.05a1.08,1.08,0,0,1,.49.21,1.15,1.15,0,0,1-.15-1.13l.18-.46a1.14,1.14,0,0,1-.67.44,1.18,1.18,0,0,1-1-.27l1,1A.86.86,0,0,1,1806.28,128.51Zm-18.84-1.42a18.75,18.75,0,0,1,4.65,1.39l.82-1.91c.64-1.47,1.31-3,2-4.59l-.26-.11c-.4-.17-.8-.33-1.2-.47l-.56-.19c-.5-.15-1-.27-1.51-.37l-.29,0-.16,0c-.43-.07-.85-.11-1.27-.14h-.12l-.35,0a14.42,14.42,0,0,0-1.62,0h-.12l-1.42,3.22ZM1766,122l2.76,6.5a17.9,17.9,0,0,1,5.8-1.57h.07a10.43,10.43,0,0,1,1.23-.09l-2.61-6.17h-.07a14.79,14.79,0,0,0-1.63,0h-.18l-.22,0a11.14,11.14,0,0,0-1.35.15l-.13,0-.18,0a13.52,13.52,0,0,0-1.58.4l-.28.1c-.57.2-1,.39-1.49.59l-.11,0Zm60.06,6h0l0-.32Zm2.35-.35h0Zm-7.32-2.44c.54.24,1,.42,1.44.58l.38.13a13.92,13.92,0,0,0,1.57.41l.19,0,.16,0c.42.07.87.12,1.32.15h.4a14.73,14.73,0,0,0,1.63,0h.07l2.61-6.18a17.78,17.78,0,0,1-7.1-1.65l-3.19,7.56Zm-88.42,1.3h.17a12.63,12.63,0,0,0,1.53,0h.37c.44,0,.9-.08,1.38-.16l.3,0a12.82,12.82,0,0,0,1.56-.41l.38-.13a14.45,14.45,0,0,0,1.35-.53l.11,0,.05,0-2.73-6.5a17.69,17.69,0,0,1-7.13,1.66Zm87.8,0h0l.08-.24Zm-78.06-.26a.49.49,0,0,1,.13.12l0-.05a1.66,1.66,0,0,1-.06-.21A1.21,1.21,0,0,1,1742.45,126.14Zm0-.93v0a1.55,1.55,0,0,1,.07.23,1.27,1.27,0,0,1,.06-.18Zm57.4-2.5.28.19.33.26.29.23c.42.33.85.68,1.28,1l.63.55.08.08c-.26-.25-.52-.48-.78-.72l-.38-.34c-.62-.53-1.2-1-1.79-1.46l-.57-.42c-.28-.22-.39-.3-.51-.38l-.73-.5a1.2,1.2,0,0,1-.39-.45l-.13.12a1.13,1.13,0,0,1,0,.92,1.12,1.12,0,0,1,.25-.11,1.2,1.2,0,0,1,1,.17Zm-37.19-.53-.06,0-.43.33c-.58.44-1.18.93-1.78,1.46l-.39.34-.67.6.59-.51c.43-.38.87-.74,1.3-1.07l.6-.47.26-.18,1.16-.83a1.19,1.19,0,0,1,.22-.12l0-.16-.18.12-.47.35Zm-17.75,2.69h0Zm55.13-5,.52.38.36.27.28.21c.62.47,1.24,1,1.89,1.56l.16.14h0l.24.2c.56.5,1.11,1,1.66,1.55l.3.28,2.47-6.11-.68-.67-.49-.47c-.56-.54-1.13-1.06-1.7-1.58l-.4-.34c-.47-.41-1-.81-1.43-1.18-.19-.16-.31-.26-.44-.35l-.12-.08-.09-.06Zm-46-1.52,2.47,6.11.3-.29c.55-.52,1.1-1,1.67-1.53l.39-.35c.65-.56,1.28-1.08,1.9-1.56l.37-.28.09-.07.15-.11c.27-.21.4-.31.54-.4l-2.53-6.25-.07,0-.14.1-.43.34c-.48.38-1,.77-1.44,1.18h0l-.07.06-.82-.81.7.91-.21.18c-.57.51-1.14,1-1.7,1.58Zm-13-2.14,2.53,6.26,0,0,.16-.11.31-.24.13-.1c.49-.39,1-.77,1.42-1.17l.17-.16.83.81-.75-.87.17-.15c.52-.46,1.06-1,1.7-1.57l1.17-1.14-2.47-6.11A44.43,44.43,0,0,1,1741,116.21Zm76.9,5.92.25.2.13.09.08,0,2.52-6.25a45.43,45.43,0,0,1-5.41-4.59l-2.47,6.11,1.18,1.14c.56.54,1.13,1.06,1.7,1.57l.41.36c.47.41.94.8,1.42,1.17l.14.11Zm-28.22-3v.34l0-.34Zm-38.43-.59a1.24,1.24,0,0,1,.5.37l-.17-.42a1.14,1.14,0,0,1,.22-1.21,1.26,1.26,0,0,1-.51.27v0A1.11,1.11,0,0,1,1751.29,118.55Zm59-1a1.18,1.18,0,0,1,.06,1l-.17.41a1.16,1.16,0,0,1,.49-.36,1.19,1.19,0,0,1-.05-1l.19-.47A1.12,1.12,0,0,1,1810.28,117.52Zm-35.68,1h0l0,0Zm14.45-1.74a17,17,0,0,1,1.74.12l.14,0a14.68,14.68,0,0,1,1.58.28l.25.06c.54.13,1,.26,1.47.42l.35.12h0q.69.24,1.35.54l.11,0,.1,0,2.75-6.49,0,0-.1,0c-.5-.22-1-.41-1.42-.57l-.34-.11a14.07,14.07,0,0,0-1.61-.42l-.22,0a12.62,12.62,0,0,0-1.49-.18h-.29a13.42,13.42,0,0,0-1.68,0h-.06Zm-27.28-5.47,3,7.14.16-.06.17-.07c.44-.19.8-.34,1.14-.46l.59-.2c.38-.12.75-.23,1.12-.32l.12,0,.45-.11a12.13,12.13,0,0,1,1.24-.22l.17,0,.29,0c.59-.07,1.13-.11,1.65-.12l-2.61-6.17h-.16a13.19,13.19,0,0,0-1.57,0h-.31a13.25,13.25,0,0,0-1.48.18l-.11,0h-.11a15.6,15.6,0,0,0-1.63.42l-.88.3-.13.07c-.24.09-.49.2-.74.31Zm21.26,2.57,1.84,4.5,7.92-19.4a1.63,1.63,0,0,0,.14-.68,1.72,1.72,0,0,0-1.37-1.7,1.7,1.7,0,0,0-1.9,1v0Zm38.92,2.86h0ZM1749,108.36l2.47,6.1.34-.32c.54-.52,1.07-1,1.61-1.49l.41-.37c.61-.53,1.24-1,1.89-1.54l.18-.14.09-.06.35-.26c.27-.21.4-.3.54-.4l-2.5-6.17-.48.26A50.86,50.86,0,0,0,1749,108.36Zm55,1.52c.14.09.26.19.5.37l.66.49c.63.48,1.27,1,1.89,1.55l.41.37c.53.47,1.07,1,1.61,1.48l.34.32,2.47-6.1a52.13,52.13,0,0,0-5.34-4.74Zm-47.48,4.54h0Zm5-3.46v0h0Zm-2.15-.16a.47.47,0,0,1,0,.1l.1-.06Zm3.12-.25h0Zm51.71-1.69v0l0,0Zm-43.67-.22.07,0,0-.07ZM1758,102l2.78,6.51.15-.06.2-.08c.41-.18.76-.32,1.1-.44l.62-.22c.36-.11.72-.22,1.08-.3l.61-.16c.35-.07.72-.14,1.18-.21l.51-.07a14.89,14.89,0,0,1,1.63-.12l-2.57-6.06-.24-.13A13.85,13.85,0,0,0,1758,102Zm36,4.85a15.08,15.08,0,0,1,1.63.12l.37,0,.22,0c.45.06.78.12,1.1.19l.33.08.26.06c.43.12.77.21,1.1.32l.65.22.4.15.68.28.18.07.19.08,2.75-6.51a13.77,13.77,0,0,0-7.24-1.32Z" style="fill:url(#linear-gradient-7)"/></g><g id="progress--2"><path id="overlay--1" d="M119.17,90.07H559.66a40.93,40.93,0,0,1,41.14,40.72h0a40.93,40.93,0,0,1-41.14,40.73H119.17c-22.72,0-42.7-19.4-42.7-41.9v-.44C76.47,106.69,96.45,90.07,119.17,90.07Z" style="fill:#78e1f2;fill-rule:evenodd;opacity:.495303213596344;isolation:isolate"/><path id="overlay--1-2" d="M119.17,90.07s389.49.64,390.05.09l-.45,81.58-389.6-.22c-22.72,0-42.7-19.4-42.7-41.9v-.44C76.47,106.69,96.45,90.07,119.17,90.07Z" data-name="overlay--1" style="fill-rule:evenodd;fill:url(#linear-gradient-8)"/><g id="progress--1"><path d="M555.35,108.26h2.16A22.73,22.73,0,0,1,580.24,131h0a22.73,22.73,0,0,1-22.73,22.73h-2.16A22.72,22.72,0,0,1,532.62,131h0A22.72,22.72,0,0,1,555.35,108.26Z" style="fill-rule:evenodd;fill:url(#linear-gradient-9)"/><path d="M557.51,157h-2.16a26,26,0,1,1,0-51.95h2.16a26,26,0,1,1,0,52Zm-2.16-45.46a19.48,19.48,0,0,0,0,39h2.16a19.48,19.48,0,1,0,0-39Z" style="fill:url(#linear-gradient-10)"/><path d="M555.35,105h2.16a26,26,0,0,1,26,26h0a26,26,0,0,1-26,26h-2.16a26,26,0,0,1-26-26h0A26,26,0,0,1,555.35,105Z" style="fill:none;stroke-width:2px;stroke:url(#linear-gradient-11)"/></g><g id="check--1"><path d="M418.92,152.86h0a8.79,8.79,0,0,1-6.37-2.75l-12.14-12.94a8.73,8.73,0,0,1,.39-12.34,8.54,8.54,0,0,1,6.26-2.37,8.65,8.65,0,0,1,6.09,2.75l5.69,6,16.44-18a8.74,8.74,0,1,1,12.91,11.79l-22.81,25a8.79,8.79,0,0,1-6.39,2.84Zm-9.46-24.24h0Z" style="fill:#d6a758"/><path d="M418.88,146.62a2.54,2.54,0,0,1-1.82-.79L404.92,132.9a2.5,2.5,0,0,1,3.64-3.42l10.3,11,21-23a2.5,2.5,0,1,1,3.69,3.37l-22.81,25a2.53,2.53,0,0,1-1.83.81Z" style="fill:#fff"/></g></g><g id="text--4" style="filter:url(#f2)"><path d="M1612.56,135.59c-.07-.25-.17-.58-1-.72a2.21,2.21,0,0,1-1.51-1,2.24,2.24,0,0,1-.28-1.78,30.38,30.38,0,0,0,1.1-7.74,8.79,8.79,0,0,0-.89-4.42,8.37,8.37,0,0,0-4.16-3.14,11.54,11.54,0,0,0-3-.36c-2.6,0-3.54.59-3.87,1-1.74,1.84-3.72,5.18-5.89,9.92-.84,2-1.48,3.56-1.88,4.58a12,12,0,0,0-1,4.21,4.33,4.33,0,0,0,1.22,3.06c1.35,1,3.59,1.59,6.67,1.61a2.26,2.26,0,0,1,1.56.66,4,4,0,0,1,1,2.93c0,.41,0,.7,0,.88,0,0,0,0,0,.06.46,3,1.67,3.45,2.07,3.59a5.67,5.67,0,0,0,1.88.29c3.09,0,3.82-1.26,4.13-2.49a18.1,18.1,0,0,0,.26-3.92,3.46,3.46,0,0,1,3.09-3.65c.33-.2.57-.56.57-1.47a2.3,2.3,0,0,1,.05-.45A9.63,9.63,0,0,0,1612.56,135.59Zm-9.14-1.92a3.22,3.22,0,0,1-3.14,1.89,3.56,3.56,0,0,1-3.63-2.53,2.3,2.3,0,0,1-.09-.82,8.18,8.18,0,0,1,1.06-3.85c.88-1.71,1.53-3,2-3.79a2.23,2.23,0,0,1,4.18.83c.2,2,.29,3.49.29,4.64A9.42,9.42,0,0,1,1603.42,133.67Zm-88-4a2.16,2.16,0,0,1,0,.36v.14a3,3,0,0,1-1.26,2.5,2.84,2.84,0,0,1-2.07.85,6.11,6.11,0,0,0-2-.07,2.26,2.26,0,0,0-1.56.86,2.22,2.22,0,0,0-.45,1.63,17,17,0,0,1-.31,2.36,2.31,2.31,0,0,0,0,.37,4,4,0,0,0,2.1,3.63,2.26,2.26,0,0,0,1.69.22,2.7,2.7,0,0,1,1.76-.08c.66.26.68.49.71.72a3.85,3.85,0,0,1-.81,2.6,9.18,9.18,0,0,1-3.16,2.82,8.08,8.08,0,0,1-4.1,1,8.9,8.9,0,0,1-3.77-.76,9.41,9.41,0,0,1-1.82-1.9c-.6-1.1-1.54-4.11-1.58-12.23a94.7,94.7,0,0,1,1-13.2,8,8,0,0,1,1.26-3.89l7.13-.72.23,0a16.65,16.65,0,0,1,3.4-.37c1.79,0,2.24.38,2.23.38h0a2.45,2.45,0,0,1,.14.91,1.87,1.87,0,0,1-.71,1.58,4.17,4.17,0,0,1-2.74.75,7.42,7.42,0,0,1-.76,0,2.21,2.21,0,0,0-2.29,1.27,7.76,7.76,0,0,0-.59,3.09c-.07,1.61-.11,2-.11,2a2.16,2.16,0,0,0,0,.84,3.33,3.33,0,0,0,2.68,2.55,2.28,2.28,0,0,0,1.87-.43,3.2,3.2,0,0,1,2-.6A2.36,2.36,0,0,1,1515.45,129.63Zm-24.83-12a3.44,3.44,0,0,1,.88,2.62,31.31,31.31,0,0,1-.72,4.45c-.52,3-1.36,7.48-2.48,13.44-.93,4.75-2.36,8.29-4.27,10.53a3.17,3.17,0,0,1-1.72.4,6.27,6.27,0,0,1-3-.74,4.18,4.18,0,0,1-1.23-2.21,18.6,18.6,0,0,1-.4-3.86,29.83,29.83,0,0,0-.38-4.62,2.28,2.28,0,0,0-.69-1.2,3.14,3.14,0,0,0-2.6-.92,2.21,2.21,0,0,0-1.87,1.77c0,.24-.17.81-.65,5.84a19.22,19.22,0,0,1-.92,4.87,2.44,2.44,0,0,1-2.47,1.59c-2.61.18-4.47-.89-5.88-3.39l-.13-.2a16.76,16.76,0,0,1-2.28-6.25,48.72,48.72,0,0,1-.87-10c.08-9.53,1.66-11.54,2.15-11.94a2.92,2.92,0,0,1,1.82-.69c.9,0,1.91.18,2.49,2.3,0,.15.19.87.59,4l.14,8a2.2,2.2,0,0,0,.47,1.33,3.07,3.07,0,0,0,2.46,1.29,2.22,2.22,0,0,0,1.74-.84,5.1,5.1,0,0,0,1-2.89l.07-1.12c.37-1.09.93-2.67,1.65-4.63a3,3,0,0,1,2.14-2c.35,0,.57.15.82.61a12.28,12.28,0,0,1,.94,3.78c.24,1.62.27,2.26.28,2.43a5.79,5.79,0,0,0,.19,3.38,2.27,2.27,0,0,0,1.64,1.45,2.81,2.81,0,0,0,2.34-.44,2.72,2.72,0,0,0,1.06-2c.38-6.46,1.41-11.15,3.08-13.94.45-.78.78-1,.87-1a2.49,2.49,0,0,0,.28-.15,3.2,3.2,0,0,1,1-.23A3.05,3.05,0,0,1,1490.62,117.65Zm73.56,13.85a2.22,2.22,0,0,0,0,2.38c.43.71,1.18,2,2.25,3.86,2.37,4.28,2.87,6.63,2.87,7.85a4.92,4.92,0,0,1-1,3,2.89,2.89,0,0,1-1.88.74s-1.12-.25-3.34-4a26.59,26.59,0,0,1-2.82-5.82,2.25,2.25,0,0,0-.56-.94,4.34,4.34,0,0,0-1.85-1,2.18,2.18,0,0,0-.67-.1,2.23,2.23,0,0,0-1.57.65l-.33.33a2.24,2.24,0,0,0-.62,1.95,28.12,28.12,0,0,1,.48,4.37,7.23,7.23,0,0,1-.58,3.2,5.13,5.13,0,0,1-2.83.73,3.61,3.61,0,0,1-2.26-.63c-.74-.56-2.45-2.94-2.41-12.88a77.4,77.4,0,0,1,1-12.44c.62-3.76,1.16-5,1.36-5.38a2.34,2.34,0,0,0,.56-.53,2.93,2.93,0,0,1,2.67-1.07c1.72,0,2.29.57,2.55,1,0,.57.06,1,.06,1.4,0,.57-.07,1.75-.19,3.51-.17,2.5-.19,3.13-.19,3.39a2.39,2.39,0,0,0,.19.91,2.85,2.85,0,0,0,2.65,1.74,2.73,2.73,0,0,0,2.6-1.81,2.29,2.29,0,0,0,.1-1.24,15.9,15.9,0,0,1,1.51-5.12c1.3-3.08,2.41-3.92,2.89-4.15,3.66-.15,4.48,1.34,4.76,1.84a3.39,3.39,0,0,1,.38,1.68,14.53,14.53,0,0,1-2.68,7.78C1566.56,127.87,1565.53,129.43,1564.18,131.5Zm-24.64-1.87a2.28,2.28,0,0,1,0,.37v.13a3.06,3.06,0,0,1-1.26,2.51,2.88,2.88,0,0,1-2.07.84,6.11,6.11,0,0,0-2-.07,2.24,2.24,0,0,0-2,2.5,16.62,16.62,0,0,1-.31,2.34,2.53,2.53,0,0,0,0,.38,4,4,0,0,0,2.11,3.63,2.24,2.24,0,0,0,1.68.22,2.7,2.7,0,0,1,1.76-.08c.66.26.69.49.71.72a3.89,3.89,0,0,1-.81,2.61,9.26,9.26,0,0,1-3.16,2.81,8.18,8.18,0,0,1-4.1,1,8.9,8.9,0,0,1-3.77-.76,9.05,9.05,0,0,1-1.81-1.9c-.61-1.1-1.55-4.11-1.59-12.23a94.49,94.49,0,0,1,1-13.2,8,8,0,0,1,1.26-3.89l7.14-.72.23,0a16.56,16.56,0,0,1,3.39-.37c1.8,0,2.24.38,2.24.38h0a2.68,2.68,0,0,1,.14.91,1.88,1.88,0,0,1-.72,1.58,4.15,4.15,0,0,1-2.74.75,7.56,7.56,0,0,1-.76,0,2.23,2.23,0,0,0-2.29,1.26,7.87,7.87,0,0,0-.58,3.1c-.08,1.6-.11,2-.12,2a2.32,2.32,0,0,0,0,.83,3.33,3.33,0,0,0,2.68,2.56,2.28,2.28,0,0,0,1.87-.43,3.21,3.21,0,0,1,2.05-.6A2.36,2.36,0,0,1,1539.54,129.63Z" style="fill:#fff"/><path d="M1467.5,154.09a10.19,10.19,0,0,1-9.14-5.56,21,21,0,0,1-3-7.88,53.39,53.39,0,0,1-1-10.91c.07-8.6,1.26-13.35,3.86-15.4h0a7.23,7.23,0,0,1,4.56-1.65c3.4,0,5.82,2,6.8,5.64.09.37.22,1,.5,3a7.11,7.11,0,0,1,4.79-3.15,2.07,2.07,0,0,1,.35,0,5.3,5.3,0,0,1,4.72,2.45,21,21,0,0,1,2.06-5,6.62,6.62,0,0,1,2.73-2.75,7.08,7.08,0,0,1,2.8-.82,7.5,7.5,0,0,1,6.11,2.36,7.2,7.2,0,0,1,2.06,4,8.15,8.15,0,0,1,3-4.87,2.26,2.26,0,0,1,1-.38l7.73-.79a21.48,21.48,0,0,1,4.19-.44c3.47,0,5.63,1.11,6.42,3.31a6.94,6.94,0,0,1,.41,2.44,6.34,6.34,0,0,1-2.29,5,7.42,7.42,0,0,1-3.41,1.58l.65,0a6.84,6.84,0,0,1,5.22,2.41q.24-2.81.65-5.83c.5-3.64,1.65-6,3.49-7.27a2.26,2.26,0,0,1,1-.38l7.73-.79a21.48,21.48,0,0,1,4.19-.44c3.47,0,5.63,1.11,6.42,3.31a6.94,6.94,0,0,1,.41,2.44,6.34,6.34,0,0,1-2.29,5,7.37,7.37,0,0,1-3.41,1.58l.66,0a6.85,6.85,0,0,1,5.37,2.6c.16-1.59.37-3.16.62-4.7.91-5.53,1.86-7.4,3.07-8.26a7.45,7.45,0,0,1,5.92-2.46c3.92,0,5.76,1.91,6.62,3.66a8.06,8.06,0,0,1,4.51-3.9,1.85,1.85,0,0,1,.47-.08c5.54-.34,8.08,2,9.22,4.1a7.81,7.81,0,0,1,.94,3.85,18.87,18.87,0,0,1-3.41,10.23c-.56.84-1.33,2-2.3,3.49l1.61,2.78c2.32,4.2,3.44,7.47,3.44,10a9.29,9.29,0,0,1-1.85,5.7,6.74,6.74,0,0,1-5.1,2.52c-3.24.34-5.8-3.24-7.46-6a9,9,0,0,1-1.21,3,2.23,2.23,0,0,1-.51.55,9.39,9.39,0,0,1-5.87,1.87,8,8,0,0,1-5-1.54c-2.87-2.18-4.19-7.4-4.16-16.43,0-.26,0-.52,0-.78a8.41,8.41,0,0,1-1.42,1.51,7.5,7.5,0,0,1-3.85,1.84,5.83,5.83,0,0,1,1.74.41,5.17,5.17,0,0,1,3.46,4.36,8.25,8.25,0,0,1-1.54,5.59,13.7,13.7,0,0,1-4.65,4.19A12.53,12.53,0,0,1,1530,154a13.42,13.42,0,0,1-5.69-1.2,11.47,11.47,0,0,1-3.47-3.25,2.2,2.2,0,0,1-.17-.25c-1.53-2.54-2.26-7.18-2.29-14.62h0a8.59,8.59,0,0,1-1.32,1.38,7.53,7.53,0,0,1-3.86,1.84,5.69,5.69,0,0,1,1.74.41,5.19,5.19,0,0,1,3.47,4.36,8.2,8.2,0,0,1-1.55,5.59,13.67,13.67,0,0,1-4.64,4.19,12.56,12.56,0,0,1-6.31,1.56,13.39,13.39,0,0,1-5.69-1.2,11.19,11.19,0,0,1-3.47-3.25,2.2,2.2,0,0,1-.17-.25c-1.53-2.54-2.26-7.18-2.3-14.62,0-1.64,0-3.39.15-5.24-.47,2.57-1.06,5.75-1.79,9.59-1.12,5.76-2.9,9.94-5.45,12.81a1.6,1.6,0,0,1-.27.25,7.17,7.17,0,0,1-4.64,1.48,10.8,10.8,0,0,1-5.42-1.42,1.69,1.69,0,0,1-.31-.21,8,8,0,0,1-1.9-2.25l0,0a6.83,6.83,0,0,1-6.28,4.36C1468.08,154.07,1467.79,154.09,1467.5,154.09Zm-6.45-36.25c-.49.4-2.07,2.41-2.15,11.94a48.72,48.72,0,0,0,.87,10,16.76,16.76,0,0,0,2.28,6.25l.13.2c1.41,2.5,3.27,3.57,5.88,3.39a2.44,2.44,0,0,0,2.47-1.59,19.22,19.22,0,0,0,.92-4.87c.48-5,.6-5.6.65-5.84a2.21,2.21,0,0,1,1.87-1.77,3.14,3.14,0,0,1,2.6.92,2.28,2.28,0,0,1,.69,1.2,29.83,29.83,0,0,1,.38,4.62,18.6,18.6,0,0,0,.4,3.86,4.18,4.18,0,0,0,1.23,2.21,6.27,6.27,0,0,0,3,.74,3.17,3.17,0,0,0,1.72-.4c1.91-2.24,3.34-5.78,4.27-10.53,1.12-6,2-10.48,2.48-13.44a31.31,31.31,0,0,0,.72-4.45,3.44,3.44,0,0,0-.88-2.62,3.05,3.05,0,0,0-2.54-1.13,3.2,3.2,0,0,0-1,.23,2.49,2.49,0,0,1-.28.15c-.09,0-.42.24-.87,1-1.67,2.79-2.7,7.48-3.08,13.94a2.72,2.72,0,0,1-1.06,2,2.81,2.81,0,0,1-2.34.44,2.27,2.27,0,0,1-1.64-1.45,5.79,5.79,0,0,1-.19-3.38c0-.17,0-.81-.28-2.43a12.28,12.28,0,0,0-.94-3.78c-.25-.46-.47-.59-.82-.61a3,3,0,0,0-2.14,2c-.72,2-1.28,3.54-1.65,4.63l-.07,1.12a5.1,5.1,0,0,1-1,2.89,2.22,2.22,0,0,1-1.74.84,3.07,3.07,0,0,1-2.46-1.29,2.2,2.2,0,0,1-.47-1.33l-.14-8c-.4-3.17-.56-3.89-.59-4-.58-2.12-1.59-2.3-2.49-2.3A2.92,2.92,0,0,0,1461.05,117.84Zm63.4,29a9.05,9.05,0,0,0,1.81,1.9,8.9,8.9,0,0,0,3.77.76,8.18,8.18,0,0,0,4.1-1,9.26,9.26,0,0,0,3.16-2.81,3.89,3.89,0,0,0,.81-2.61c0-.23,0-.46-.71-.72a2.7,2.7,0,0,0-1.76.08,2.24,2.24,0,0,1-1.68-.22,4,4,0,0,1-2.11-3.63,2.53,2.53,0,0,1,0-.38,16.62,16.62,0,0,0,.31-2.34,2.24,2.24,0,0,1,2-2.5,6.11,6.11,0,0,1,2,.07,2.88,2.88,0,0,0,2.07-.84,3.06,3.06,0,0,0,1.26-2.51V130a2.28,2.28,0,0,0,0-.37,2.36,2.36,0,0,0-1.9-.93,3.21,3.21,0,0,0-2.05.6,2.28,2.28,0,0,1-1.87.43,3.33,3.33,0,0,1-2.68-2.56,2.32,2.32,0,0,1,0-.83s0-.39.12-2a7.87,7.87,0,0,1,.58-3.1A2.23,2.23,0,0,1,1534,120a7.56,7.56,0,0,0,.76,0,4.15,4.15,0,0,0,2.74-.75,1.88,1.88,0,0,0,.72-1.58,2.68,2.68,0,0,0-.14-.91h0s-.44-.38-2.24-.38a16.56,16.56,0,0,0-3.39.37l-.23,0-7.14.72a8,8,0,0,0-1.26,3.89,94.49,94.49,0,0,0-1,13.2C1522.9,142.74,1523.84,145.75,1524.45,146.85Zm-24.1,0a9.41,9.41,0,0,0,1.82,1.9,8.9,8.9,0,0,0,3.77.76,8.08,8.08,0,0,0,4.1-1,9.18,9.18,0,0,0,3.16-2.82,3.85,3.85,0,0,0,.81-2.6c0-.23,0-.46-.71-.72a2.7,2.7,0,0,0-1.76.08,2.26,2.26,0,0,1-1.69-.22,4,4,0,0,1-2.1-3.63,2.31,2.31,0,0,1,0-.37,17,17,0,0,0,.31-2.36,2.22,2.22,0,0,1,.45-1.63,2.26,2.26,0,0,1,1.56-.86,6.11,6.11,0,0,1,2,.07,2.84,2.84,0,0,0,2.07-.85,3,3,0,0,0,1.26-2.5V130a2.16,2.16,0,0,0,0-.36,2.36,2.36,0,0,0-1.91-.93,3.2,3.2,0,0,0-2,.6,2.28,2.28,0,0,1-1.87.43,3.33,3.33,0,0,1-2.68-2.55,2.16,2.16,0,0,1,0-.84s0-.38.11-2a7.76,7.76,0,0,1,.59-3.09,2.21,2.21,0,0,1,2.29-1.27,7.42,7.42,0,0,0,.76,0,4.17,4.17,0,0,0,2.74-.75,1.87,1.87,0,0,0,.71-1.58,2.45,2.45,0,0,0-.14-.91h0s-.44-.38-2.23-.38a16.65,16.65,0,0,0-3.4.37l-.23,0-7.13.72a8,8,0,0,0-1.26,3.89,94.7,94.7,0,0,0-1,13.2C1498.81,142.74,1499.75,145.75,1500.35,146.85Zm56.82-9.27a2.18,2.18,0,0,1,.67.1,4.34,4.34,0,0,1,1.85,1,2.25,2.25,0,0,1,.56.94,26.59,26.59,0,0,0,2.82,5.82c2.22,3.71,3.33,4,3.34,4a2.89,2.89,0,0,0,1.88-.74,4.92,4.92,0,0,0,1-3c0-1.22-.5-3.57-2.87-7.85-1.07-1.85-1.82-3.15-2.25-3.86a2.22,2.22,0,0,1,0-2.38c1.35-2.07,2.38-3.63,3.07-4.67a14.53,14.53,0,0,0,2.68-7.78,3.39,3.39,0,0,0-.38-1.68c-.28-.5-1.1-2-4.76-1.84-.48.23-1.59,1.07-2.89,4.15a15.9,15.9,0,0,0-1.51,5.12,2.29,2.29,0,0,1-.1,1.24,2.73,2.73,0,0,1-2.6,1.81,2.85,2.85,0,0,1-2.65-1.74,2.39,2.39,0,0,1-.19-.91c0-.26,0-.89.19-3.39.12-1.76.19-2.94.19-3.51,0-.36,0-.83-.06-1.4-.26-.45-.83-1-2.55-1A2.93,2.93,0,0,0,1550,117a2.34,2.34,0,0,1-.56.53c-.2.36-.74,1.62-1.36,5.38a77.4,77.4,0,0,0-1,12.44c0,9.94,1.67,12.32,2.41,12.88a3.61,3.61,0,0,0,2.26.63,5.13,5.13,0,0,0,2.83-.73,7.23,7.23,0,0,0,.58-3.2,28.12,28.12,0,0,0-.48-4.37,2.24,2.24,0,0,1,.62-1.95l.33-.33A2.23,2.23,0,0,1,1557.17,137.58Zm-25-1.64s0,0,0,.06Zm-24.09,0v0Zm27.49-11.49v0l.18,0Zm-24.09,0v0l.17,0Zm48.43-.61Zm-.15-.16.15.15Zm0,0h0Zm0,0Zm0,0Zm0,0Zm-10.3-6.31Zm55.09,36.29a9.92,9.92,0,0,1-3.39-.56c-1.86-.67-4.21-2.42-5-7a5.81,5.81,0,0,1-.08-.95,13.44,13.44,0,0,1-7.7-2.63,1.7,1.7,0,0,1-.19-.19,8.77,8.77,0,0,1-2.55-6.23,16.05,16.05,0,0,1,1.34-5.85c.4-1,1-2.61,1.94-4.73,2.44-5.32,4.62-9,6.72-11.19,1.49-1.58,3.82-2.34,7.12-2.34a15.78,15.78,0,0,1,4.26.55l.22.07a12.81,12.81,0,0,1,6.43,5,12.66,12.66,0,0,1,1.56,6.77,32.91,32.91,0,0,1-.78,6.92,5.17,5.17,0,0,1,2.33,3.06,11.72,11.72,0,0,1,.28,3.31,1.93,1.93,0,0,1-.07.53,5.7,5.7,0,0,1-3.54,5.18l-.11,0a19.55,19.55,0,0,1-.39,4.37C1612.47,150,1610.65,153.64,1604.56,153.64Zm-4-8.4s0,0,0,.06c.46,3,1.67,3.45,2.07,3.59a5.67,5.67,0,0,0,1.88.29c3.09,0,3.82-1.26,4.13-2.49a18.1,18.1,0,0,0,.26-3.92,3.46,3.46,0,0,1,3.09-3.65c.33-.2.57-.56.57-1.47a2.3,2.3,0,0,1,.05-.45,9.63,9.63,0,0,0-.1-1.61c-.07-.25-.17-.58-1-.72a2.21,2.21,0,0,1-1.51-1,2.24,2.24,0,0,1-.28-1.78,30.38,30.38,0,0,0,1.1-7.74,8.79,8.79,0,0,0-.89-4.42,8.37,8.37,0,0,0-4.16-3.14,11.54,11.54,0,0,0-3-.36c-2.6,0-3.54.59-3.87,1-1.74,1.84-3.72,5.18-5.89,9.92-.84,2-1.48,3.56-1.88,4.58a12,12,0,0,0-1,4.21,4.33,4.33,0,0,0,1.22,3.06c1.35,1,3.59,1.59,6.67,1.61a2.26,2.26,0,0,1,1.56.66,4,4,0,0,1,1,2.93C1600.59,144.77,1600.59,145.06,1600.6,145.24Zm-.2-.6Zm0,0h0Zm0,0Zm-4.29-.6Zm4.17-8.47a3.56,3.56,0,0,1-3.63-2.53,2.3,2.3,0,0,1-.09-.82,8.18,8.18,0,0,1,1.06-3.85c.88-1.71,1.53-3,2-3.79a2.23,2.23,0,0,1,4.18.83c.2,2,.29,3.49.29,4.64a9.42,9.42,0,0,1-.64,3.63A3.22,3.22,0,0,1,1600.28,135.56Z" style="fill:#d6a758"/></g><g id="text--3" style="filter:url(#f2)"><path d="M1049.3,116.09a5.12,5.12,0,0,1,3.2-1.17q3.57,0,4.65,4c.12.5.34,2,.65,4.41l.14,8.18a.92.92,0,0,0,.71.42,3.17,3.17,0,0,0,.47-1.64l.09-1.41c.38-1.13,1-2.81,1.79-5a5.16,5.16,0,0,1,4-3.43,3.12,3.12,0,0,1,3,1.79,15.14,15.14,0,0,1,1.18,4.51,15.44,15.44,0,0,1,.28,3.14,3.53,3.53,0,0,0,.09,2.26c.44.09.68,0,.71-.38q.6-10.29,3.38-14.93a4.43,4.43,0,0,1,1.88-1.93,4.59,4.59,0,0,1,2-.56,5.27,5.27,0,0,1,4.32,1.74,5.62,5.62,0,0,1,1.55,4.22,34.75,34.75,0,0,1-.75,4.84q-.8,4.52-2.49,13.48-1.54,7.93-4.93,11.74a5,5,0,0,1-3.24,1,8.54,8.54,0,0,1-4.32-1.12,6.28,6.28,0,0,1-2.12-3.52,20.35,20.35,0,0,1-.46-4.33,31.13,31.13,0,0,0-.33-4.22,1.11,1.11,0,0,0-.8-.38q-.15.7-.61,5.64a22,22,0,0,1-1.08,5.49,4.69,4.69,0,0,1-4.37,3q-5.22.38-8-4.51a18.58,18.58,0,0,1-2.66-7.11,51,51,0,0,1-.91-10.45Q1046.39,118.39,1049.3,116.09Zm57.86,12.59a4.39,4.39,0,0,1,.14,1.45,5.22,5.22,0,0,1-2,4.18,5,5,0,0,1-3.94,1.37,3.62,3.62,0,0,0-1.41-.05,13.61,13.61,0,0,1-.33,3,1.84,1.84,0,0,0,1,1.7,4.77,4.77,0,0,1,3.14,0,3,3,0,0,1,2.12,2.53,6.05,6.05,0,0,1-1.18,4.11,11.36,11.36,0,0,1-3.9,3.5,10.34,10.34,0,0,1-5.21,1.27,11,11,0,0,1-4.74-1,10.19,10.19,0,0,1-2.68-2.63q-1.92-3.19-2-13.48a97.48,97.48,0,0,1,1-13.52q.61-4.43,2.54-5.73l7.84-.8a19,19,0,0,1,3.85-.42q3.67,0,4.32,1.83a4.71,4.71,0,0,1,.29,1.69,4.09,4.09,0,0,1-1.51,3.29,6.3,6.3,0,0,1-4.18,1.26,9.43,9.43,0,0,1-1,0,6.1,6.1,0,0,0-.37,2.25c-.07,1.32-.11,2.07-.15,2.26a1.15,1.15,0,0,0,1,.84,5.35,5.35,0,0,1,3.43-1.08A4.77,4.77,0,0,1,1107.16,128.68Zm24.09,0a4.39,4.39,0,0,1,.14,1.45,5.22,5.22,0,0,1-2,4.18,5,5,0,0,1-3.94,1.37,3.62,3.62,0,0,0-1.41-.05,13.61,13.61,0,0,1-.33,3,1.84,1.84,0,0,0,1,1.7,4.77,4.77,0,0,1,3.14,0,3,3,0,0,1,2.12,2.53,6.05,6.05,0,0,1-1.18,4.11,11.32,11.32,0,0,1-3.89,3.5,10.38,10.38,0,0,1-5.22,1.27,11,11,0,0,1-4.74-1,10.19,10.19,0,0,1-2.68-2.63q-1.92-3.19-2-13.48a96.09,96.09,0,0,1,1-13.52c.4-3,1.25-4.86,2.53-5.73l7.85-.8a18.88,18.88,0,0,1,3.85-.42q3.66,0,4.32,1.83a5,5,0,0,1,.28,1.69,4.11,4.11,0,0,1-1.5,3.29,6.34,6.34,0,0,1-4.18,1.26,9.51,9.51,0,0,1-1,0,6.1,6.1,0,0,0-.37,2.25c-.07,1.32-.11,2.07-.14,2.26a1.12,1.12,0,0,0,1,.84,5.35,5.35,0,0,1,3.43-1.08A4.77,4.77,0,0,1,1131.25,128.68Zm6.48-13.06h0a5.19,5.19,0,0,1,4.46-2q3.62,0,4.75,2.68c.06.81.09,1.47.09,2s-.06,1.85-.19,3.66-.19,2.9-.19,3.24a.63.63,0,0,0,.61.43.52.52,0,0,0,.52-.38.62.62,0,0,1,0-.33,17.49,17.49,0,0,1,1.69-6.1q2-4.8,4.51-5.5,5.31-.33,7.14,3a5.57,5.57,0,0,1,.66,2.77,16.67,16.67,0,0,1-3,9q-1,1.55-3.06,4.65.66,1.08,2.3,3.94,3.15,5.68,3.15,8.93a7.07,7.07,0,0,1-1.41,4.36,4.67,4.67,0,0,1-3.52,1.65c-1.5.15-3.3-1.52-5.4-5a28.88,28.88,0,0,1-3-6.34,2.91,2.91,0,0,0-.94-.42l-.33.33a30.23,30.23,0,0,1,.52,4.74,8.63,8.63,0,0,1-1.13,4.74,7.18,7.18,0,0,1-4.51,1.41,5.79,5.79,0,0,1-3.62-1.08q-3.33-2.53-3.28-14.65a78.54,78.54,0,0,1,1-12.8C1136.13,118.39,1136.89,116.09,1137.73,115.62Zm61.1,16.25h.05c-.13.41,0,.66.52.75a2.89,2.89,0,0,1,1.17.38q2.45,1.83,2.44,5.68a16.92,16.92,0,0,1-.37,3.38,10.79,10.79,0,0,1-3.1,5.36,11.74,11.74,0,0,1-5.64,3.24,19.2,19.2,0,0,1-4.51.56q-5.54,0-8.12-3.24a7.25,7.25,0,0,1-1.6-4.79,9.59,9.59,0,0,1,.42-2.63,8.63,8.63,0,0,1,.8-1.27,2,2,0,0,1,1-.82,3.35,3.35,0,0,1,1-.16,11.5,11.5,0,0,1,2.35.47,13,13,0,0,0,2.25.47c1,0,1.62-.63,1.74-1.88a2.25,2.25,0,0,0-1.83-1.6c-.59-.09-1.49-.27-2.68-.52a2.18,2.18,0,0,1-1.5-2,3.86,3.86,0,0,1-.19-1.27,3,3,0,0,1,.8-2.25,12.1,12.1,0,0,1,3.05-1.27c1.35-.44,2-1.13,2.12-2.07a1.87,1.87,0,0,0-1.32-1.31,7.92,7.92,0,0,0-2.65.56,14.86,14.86,0,0,1-2,.61,4,4,0,0,1-2.82-1.38,4.26,4.26,0,0,1-1.36-3q0-3.66,5.45-6.62a11.06,11.06,0,0,1,5.45-1.27,13.83,13.83,0,0,1,8.26,2.54c3,2.12,4.62,4.3,4.93,6.52a11.54,11.54,0,0,1,.1,1.46A7.71,7.71,0,0,1,1198.83,131.87Z" style="fill:#fff"/><path d="M1057.12,154.09c-3.88,0-7-1.91-9.13-5.56a21,21,0,0,1-3-7.88,53.39,53.39,0,0,1-1-10.91c.07-8.6,1.26-13.35,3.85-15.4h0a7.26,7.26,0,0,1,4.57-1.65c3.4,0,5.81,2,6.8,5.64.09.37.22,1,.49,3a7.13,7.13,0,0,1,4.8-3.15,2,2,0,0,1,.35,0,5.3,5.3,0,0,1,4.72,2.45,20.56,20.56,0,0,1,2.06-5,6.66,6.66,0,0,1,2.72-2.75,7.08,7.08,0,0,1,2.8-.82,7.52,7.52,0,0,1,6.12,2.36,7.2,7.2,0,0,1,2.06,4,8.14,8.14,0,0,1,3-4.87,2.3,2.3,0,0,1,1-.38l7.72-.79a21.48,21.48,0,0,1,4.19-.44c3.47,0,5.63,1.11,6.42,3.31a6.94,6.94,0,0,1,.41,2.44,6.34,6.34,0,0,1-2.29,5,7.32,7.32,0,0,1-3.41,1.58l.66,0a6.8,6.8,0,0,1,5.21,2.41c.17-1.87.38-3.81.66-5.83.5-3.64,1.64-6,3.49-7.27a2.22,2.22,0,0,1,1-.38l7.73-.79a21.33,21.33,0,0,1,4.19-.44c3.47,0,5.63,1.11,6.41,3.31a6.93,6.93,0,0,1,.42,2.44,6.35,6.35,0,0,1-2.3,5,7.32,7.32,0,0,1-3.41,1.58l.66,0a6.87,6.87,0,0,1,5.38,2.6c.16-1.59.37-3.16.62-4.7.9-5.53,1.86-7.4,3.06-8.26a7.48,7.48,0,0,1,5.92-2.46c3.93,0,5.77,1.91,6.63,3.66a8.06,8.06,0,0,1,4.51-3.9,1.85,1.85,0,0,1,.47-.08c5.54-.34,8.07,2,9.22,4.1a7.81,7.81,0,0,1,.94,3.85,18.8,18.8,0,0,1-3.42,10.23c-.56.84-1.32,2-2.29,3.49l1.61,2.78c2.32,4.2,3.44,7.47,3.44,10a9.29,9.29,0,0,1-1.86,5.7,6.73,6.73,0,0,1-5.09,2.52c-3.25.34-5.8-3.24-7.47-6a9,9,0,0,1-1.2,3,2.23,2.23,0,0,1-.51.55,9.41,9.41,0,0,1-5.87,1.87,8,8,0,0,1-5-1.54c-2.87-2.18-4.2-7.4-4.16-16.43v-.78a7.75,7.75,0,0,1-1.42,1.51,7.5,7.5,0,0,1-3.85,1.84,5.69,5.69,0,0,1,1.74.41,5.16,5.16,0,0,1,3.46,4.36,8.19,8.19,0,0,1-1.54,5.59,13.61,13.61,0,0,1-4.65,4.19,12.51,12.51,0,0,1-6.31,1.56,13.38,13.38,0,0,1-5.68-1.2,11.36,11.36,0,0,1-3.47-3.25l-.18-.25c-1.52-2.54-2.25-7.18-2.29-14.62h0a7.8,7.8,0,0,1-1.32,1.38,7.5,7.5,0,0,1-3.85,1.84,5.76,5.76,0,0,1,1.74.41,5.16,5.16,0,0,1,3.46,4.36,8.19,8.19,0,0,1-1.54,5.59,13.61,13.61,0,0,1-4.65,4.19,12.51,12.51,0,0,1-6.31,1.56,13.38,13.38,0,0,1-5.68-1.2,11.08,11.08,0,0,1-3.47-3.25,2.27,2.27,0,0,1-.18-.25c-1.53-2.54-2.26-7.18-2.29-14.62,0-1.64,0-3.39.15-5.24-.47,2.57-1.07,5.75-1.79,9.59-1.12,5.76-2.91,9.94-5.46,12.81a2,2,0,0,1-.26.25,7.2,7.2,0,0,1-4.64,1.48,10.84,10.84,0,0,1-5.43-1.42,2.11,2.11,0,0,1-.31-.21,8.19,8.19,0,0,1-1.9-2.25v0a6.85,6.85,0,0,1-6.28,4.36C1057.71,154.07,1057.41,154.09,1057.12,154.09Zm-6.44-36.25c-.49.39-2.08,2.4-2.16,11.94a48.69,48.69,0,0,0,.88,10,16.77,16.77,0,0,0,2.27,6.25l.13.2c1.42,2.5,3.28,3.57,5.89,3.39a2.45,2.45,0,0,0,2.47-1.59,19.72,19.72,0,0,0,.92-4.87c.48-5,.59-5.6.64-5.84a2.23,2.23,0,0,1,1.88-1.77,3.15,3.15,0,0,1,2.6.92,2.28,2.28,0,0,1,.69,1.2,30.19,30.19,0,0,1,.37,4.62,18.51,18.51,0,0,0,.41,3.86,4.11,4.11,0,0,0,1.23,2.21,6.27,6.27,0,0,0,3,.74,3.19,3.19,0,0,0,1.72-.4c1.9-2.24,3.34-5.78,4.26-10.53,1.13-6,2-10.48,2.48-13.44a31.31,31.31,0,0,0,.72-4.45,3.44,3.44,0,0,0-.87-2.62,3,3,0,0,0-3.54-.9l-.28.15c-.09,0-.42.24-.87,1-1.67,2.79-2.7,7.48-3.09,13.94a2.69,2.69,0,0,1-1.06,2,2.8,2.8,0,0,1-2.33.44,2.25,2.25,0,0,1-1.64-1.45,5.71,5.71,0,0,1-.19-3.38c0-.17,0-.81-.29-2.43a12.79,12.79,0,0,0-.93-3.78c-.25-.46-.47-.59-.82-.61a3,3,0,0,0-2.15,2c-.71,2-1.27,3.54-1.64,4.63l-.08,1.12a5,5,0,0,1-1,2.89,2.21,2.21,0,0,1-1.73.84,3.09,3.09,0,0,1-2.47-1.29,2.19,2.19,0,0,1-.46-1.33l-.14-8c-.41-3.17-.56-3.89-.6-4-.57-2.12-1.58-2.3-2.48-2.3A2.9,2.9,0,0,0,1050.68,117.84Zm63.39,29a9.18,9.18,0,0,0,1.82,1.9,8.89,8.89,0,0,0,3.76.76,8.25,8.25,0,0,0,4.11-1,9.26,9.26,0,0,0,3.16-2.81,3.87,3.87,0,0,0,.8-2.61c0-.23,0-.46-.71-.72a2.67,2.67,0,0,0-1.75.08,2.26,2.26,0,0,1-1.69-.22,4,4,0,0,1-2.11-3.63,1.69,1.69,0,0,1,0-.38,16.62,16.62,0,0,0,.31-2.34,2.24,2.24,0,0,1,.45-1.64,2.22,2.22,0,0,1,1.56-.86,6,6,0,0,1,2,.07,2.89,2.89,0,0,0,2.08-.84,3.06,3.06,0,0,0,1.26-2.51V130a2.28,2.28,0,0,0,0-.37,2.36,2.36,0,0,0-1.91-.93,3.16,3.16,0,0,0-2,.6,2.29,2.29,0,0,1-1.87.43,3.31,3.31,0,0,1-2.68-2.56,2.11,2.11,0,0,1,0-.83s0-.39.11-2a7.86,7.86,0,0,1,.59-3.1,2.22,2.22,0,0,1,2.29-1.26,7.29,7.29,0,0,0,.76,0,4.17,4.17,0,0,0,2.74-.75,1.87,1.87,0,0,0,.71-1.58,2.68,2.68,0,0,0-.14-.91h0s-.44-.38-2.23-.38a16.58,16.58,0,0,0-3.4.37l-.23,0-7.13.72a8,8,0,0,0-1.27,3.89,94.35,94.35,0,0,0-1,13.2C1112.53,142.74,1113.47,145.75,1114.07,146.85Zm-24.09,0a9.06,9.06,0,0,0,1.82,1.9,8.85,8.85,0,0,0,3.76.76,8.05,8.05,0,0,0,4.1-1,9.18,9.18,0,0,0,3.16-2.82,3.8,3.8,0,0,0,.81-2.6c0-.23-.05-.46-.71-.72a2.7,2.7,0,0,0-1.76.08,2.24,2.24,0,0,1-1.68-.22,4,4,0,0,1-2.11-3.63,2.31,2.31,0,0,1,0-.37,16.4,16.4,0,0,0,.32-2.36,2.24,2.24,0,0,1,2-2.49,6,6,0,0,1,2,.07,2.86,2.86,0,0,0,2.08-.85,3,3,0,0,0,1.25-2.5.71.71,0,0,1,0-.14,2.17,2.17,0,0,0,0-.36,2.33,2.33,0,0,0-1.9-.93,3.21,3.21,0,0,0-2.05.6,2.26,2.26,0,0,1-1.86.43,3.33,3.33,0,0,1-2.68-2.55,2.16,2.16,0,0,1,0-.84s0-.38.11-2a8,8,0,0,1,.58-3.09,2.22,2.22,0,0,1,2.29-1.27,7.56,7.56,0,0,0,.76,0,4.2,4.2,0,0,0,2.75-.75,1.87,1.87,0,0,0,.71-1.58,2.68,2.68,0,0,0-.14-.91h0s-.44-.38-2.24-.38a16.56,16.56,0,0,0-3.39.37l-.23,0-7.13.72a7.93,7.93,0,0,0-1.27,3.89,94.55,94.55,0,0,0-1,13.2C1088.43,142.74,1089.37,145.75,1090,146.85Zm56.82-9.27a2.16,2.16,0,0,1,.66.1,4.28,4.28,0,0,1,1.85,1,2.15,2.15,0,0,1,.56.94,27.19,27.19,0,0,0,2.83,5.82c2.21,3.71,3.32,4,3.33,4a2.87,2.87,0,0,0,1.88-.74,4.86,4.86,0,0,0,1-3c0-1.22-.49-3.57-2.86-7.85-1.07-1.85-1.83-3.15-2.26-3.86a2.25,2.25,0,0,1,0-2.38q2-3.1,3.06-4.67a14.53,14.53,0,0,0,2.68-7.78,3.4,3.4,0,0,0-.37-1.68c-.28-.5-1.12-2-4.76-1.84-.49.23-1.59,1.07-2.89,4.15a16,16,0,0,0-1.52,5.12,2.2,2.2,0,0,1-.09,1.24,2.74,2.74,0,0,1-2.61,1.81,2.83,2.83,0,0,1-2.64-1.74,2.22,2.22,0,0,1-.19-.91c0-.26,0-.89.19-3.39.12-1.76.18-2.94.18-3.51,0-.36,0-.83-.06-1.4-.25-.45-.83-1-2.55-1a3,3,0,0,0-2.67,1.07,2.13,2.13,0,0,1-.55.53c-.21.36-.75,1.62-1.37,5.38a77.4,77.4,0,0,0-1,12.44c0,9.94,1.68,12.32,2.41,12.88a3.63,3.63,0,0,0,2.27.63,5.08,5.08,0,0,0,2.82-.73,7.22,7.22,0,0,0,.59-3.2,28.39,28.39,0,0,0-.49-4.37,2.24,2.24,0,0,1,.62-1.95l.33-.33A2.27,2.27,0,0,1,1146.8,137.58Zm-25-1.64a.13.13,0,0,1,0,.06A.13.13,0,0,0,1121.81,135.94Zm-24.09,0a.43.43,0,0,0,0,.05S1097.72,136,1097.72,135.94Zm27.5-11.49v0l.18,0Zm-24.1,0v0l.18,0Zm48.43-.61Zm-.14-.16.14.15Zm0,0h0Zm0,0Zm0,0Zm0,0h0Zm-10.3-6.31Zm50.3,36.1c-4.39,0-7.71-1.37-9.86-4.08a9.44,9.44,0,0,1-2.09-6.22,12.1,12.1,0,0,1,.53-3.27,2.3,2.3,0,0,1,.17-.39,10.32,10.32,0,0,1,1-1.56,4.14,4.14,0,0,1,2.07-1.58,6.83,6.83,0,0,1,1-.22,4.45,4.45,0,0,1-1.09-2.36,6,6,0,0,1-.24-1.76,5.34,5.34,0,0,1,1.24-3.6,6.61,6.61,0,0,1-3.37-2,6.44,6.44,0,0,1-2-4.59c0-3.31,2.23-6.2,6.62-8.58a13.3,13.3,0,0,1,6.51-1.54,16.12,16.12,0,0,1,9.55,3c3.48,2.49,5.45,5.19,5.85,8a13.14,13.14,0,0,1,.11,1.77,10.21,10.21,0,0,1-2.72,7.31,9,9,0,0,1,2.63,6.87,19.14,19.14,0,0,1-.42,3.83,13,13,0,0,1-3.71,6.48,13.9,13.9,0,0,1-6.69,3.83A20.88,20.88,0,0,1,1189.39,153.45Zm-7.23-12a7.68,7.68,0,0,0-.26,1.83,5,5,0,0,0,1.11,3.33c1.29,1.62,3.38,2.4,6.38,2.4a16.82,16.82,0,0,0,4-.5,9.41,9.41,0,0,0,4.59-2.65,8.54,8.54,0,0,0,2.5-4.24,15.12,15.12,0,0,0,.32-2.92,4.64,4.64,0,0,0-1.4-3.78l-.4-.09a2.8,2.8,0,0,1-2-1.33,2.62,2.62,0,0,1-.36-1.65,2.19,2.19,0,0,1,1.16-1.93,5.52,5.52,0,0,0,3.09-5.4,9,9,0,0,0-.08-1.17c-.22-1.56-1.57-3.25-4-5a11.55,11.55,0,0,0-7-2.12,9,9,0,0,0-4.38,1c-2,1.07-4.29,2.74-4.29,4.67a2,2,0,0,0,.72,1.47,2.41,2.41,0,0,0,1.05.69c.21-.06.63-.19,1.4-.46a9.35,9.35,0,0,1,3.5-.69,2.45,2.45,0,0,1,.61.13,4,4,0,0,1,2.75,2.88,2.57,2.57,0,0,1,.06.68c-.07,1.09-.64,3.06-3.65,4a23.21,23.21,0,0,0-2.23.83,1.69,1.69,0,0,0-.08.57,1.41,1.41,0,0,0,.06.51,2.57,2.57,0,0,1,.12.55.13.13,0,0,0,0,.06c1,.21,1.77.36,2.3.44l.14,0a4.45,4.45,0,0,1,3.48,3.13,2.27,2.27,0,0,1,.08.86,3.89,3.89,0,0,1-4,3.88,11.94,11.94,0,0,1-2.82-.54,15,15,0,0,0-1.81-.4l-.15,0,0,0-.11.15A5.88,5.88,0,0,0,1182.16,141.43Zm.64-1Zm16.19-5.9h0Zm-13.79-3Z" style="fill:#d6a758"/></g><g id="text--2" style="filter:url(#f2)"><path d="M642,116.09a5.14,5.14,0,0,1,3.2-1.17q3.57,0,4.65,4c.12.5.34,2,.65,4.41l.15,8.18a.89.89,0,0,0,.7.42,3.07,3.07,0,0,0,.47-1.64l.09-1.41c.38-1.13,1-2.81,1.79-5a5.16,5.16,0,0,1,4-3.43,3.13,3.13,0,0,1,3,1.79,15.2,15.2,0,0,1,1.17,4.51,15.44,15.44,0,0,1,.28,3.14,3.47,3.47,0,0,0,.1,2.26c.43.09.67,0,.7-.38q.61-10.29,3.38-14.93a4.43,4.43,0,0,1,1.88-1.93,4.63,4.63,0,0,1,2-.56,5.25,5.25,0,0,1,4.32,1.74,5.58,5.58,0,0,1,1.55,4.22,34.75,34.75,0,0,1-.75,4.84q-.79,4.52-2.49,13.48-1.54,7.93-4.93,11.74a5,5,0,0,1-3.24,1,8.54,8.54,0,0,1-4.32-1.12,6.27,6.27,0,0,1-2.11-3.52,19.65,19.65,0,0,1-.47-4.33,31.13,31.13,0,0,0-.33-4.22,1.11,1.11,0,0,0-.8-.38c-.09.47-.3,2.35-.61,5.64a22,22,0,0,1-1.08,5.49,4.69,4.69,0,0,1-4.37,3c-3.47.25-6.14-1.25-8-4.51a18.75,18.75,0,0,1-2.66-7.11,51,51,0,0,1-.91-10.45Q639,118.39,642,116.09Zm57.86,12.59a4.39,4.39,0,0,1,.14,1.45,5.22,5.22,0,0,1-2,4.18,5,5,0,0,1-3.94,1.37,3.62,3.62,0,0,0-1.41-.05,13.61,13.61,0,0,1-.33,3,1.84,1.84,0,0,0,1,1.7,4.77,4.77,0,0,1,3.14,0,3,3,0,0,1,2.12,2.53,6.05,6.05,0,0,1-1.18,4.11,11.42,11.42,0,0,1-3.89,3.5,10.38,10.38,0,0,1-5.22,1.27,11,11,0,0,1-4.74-1,10.19,10.19,0,0,1-2.68-2.63q-1.92-3.19-2-13.48a96.09,96.09,0,0,1,1-13.52c.4-3,1.25-4.86,2.53-5.73l7.85-.8a18.88,18.88,0,0,1,3.85-.42q3.66,0,4.32,1.83a5,5,0,0,1,.28,1.69,4.11,4.11,0,0,1-1.5,3.29,6.34,6.34,0,0,1-4.18,1.26,9.51,9.51,0,0,1-1,0,6.1,6.1,0,0,0-.37,2.25c-.07,1.32-.11,2.07-.14,2.26a1.12,1.12,0,0,0,1,.84,5.35,5.35,0,0,1,3.43-1.08A4.77,4.77,0,0,1,699.81,128.68Zm24.09,0a4.4,4.4,0,0,1,.15,1.45,5.25,5.25,0,0,1-2,4.18,5,5,0,0,1-3.95,1.37,3.62,3.62,0,0,0-1.41-.05,13,13,0,0,1-.33,3,1.84,1.84,0,0,0,1,1.7,4.8,4.8,0,0,1,3.15,0,3,3,0,0,1,2.11,2.53,6,6,0,0,1-1.17,4.11,11.36,11.36,0,0,1-3.9,3.5,10.35,10.35,0,0,1-5.22,1.27,11,11,0,0,1-4.74-1,10.35,10.35,0,0,1-2.68-2.63q-1.92-3.19-2-13.48a96.09,96.09,0,0,1,1-13.52q.61-4.43,2.53-5.73l7.85-.8a18.88,18.88,0,0,1,3.85-.42q3.66,0,4.32,1.83a4.72,4.72,0,0,1,.28,1.69,4.11,4.11,0,0,1-1.5,3.29,6.32,6.32,0,0,1-4.18,1.26,9.63,9.63,0,0,1-1,0,6.32,6.32,0,0,0-.37,2.25c-.06,1.32-.11,2.07-.14,2.26a1.12,1.12,0,0,0,1,.84,5.37,5.37,0,0,1,3.43-1.08A4.77,4.77,0,0,1,723.9,128.68Zm6.49-13.06h0a5.19,5.19,0,0,1,4.46-2c2.41,0,4,.89,4.75,2.68.06.81.09,1.47.09,2s-.06,1.85-.19,3.66-.18,2.9-.18,3.24a.62.62,0,0,0,.61.43.51.51,0,0,0,.51-.38s0-.14,0-.33a17.27,17.27,0,0,1,1.69-6.1c1.34-3.2,2.85-5,4.5-5.5q5.31-.33,7.14,3a5.57,5.57,0,0,1,.66,2.77,16.67,16.67,0,0,1-3,9q-1,1.55-3,4.65.64,1.08,2.3,3.94,3.14,5.68,3.14,8.93a7.07,7.07,0,0,1-1.41,4.36,4.65,4.65,0,0,1-3.52,1.65c-1.5.15-3.3-1.52-5.4-5a28.88,28.88,0,0,1-3.05-6.34,2.91,2.91,0,0,0-.94-.42l-.33.33a30.23,30.23,0,0,1,.52,4.74,8.63,8.63,0,0,1-1.13,4.74A7.16,7.16,0,0,1,734,151a5.74,5.74,0,0,1-3.61-1.08q-3.35-2.53-3.29-14.65a78.54,78.54,0,0,1,1-12.8C728.78,118.39,729.54,116.09,730.39,115.62Zm64.38,12.45a19.43,19.43,0,0,1-3.85,7.86,14,14,0,0,1-6.62,4.58l.09.52c.28,0,1.13,0,2.54-.12s2.35-.11,2.82-.11a7.59,7.59,0,0,1,3.71.65,4.59,4.59,0,0,1,2.06,4.23,3.75,3.75,0,0,1-1.22,3,11.35,11.35,0,0,1-6,2.35,55.35,55.35,0,0,1-6.15.23,17.73,17.73,0,0,1-6.44-1.92,6.94,6.94,0,0,1-2.91-3.48,11.43,11.43,0,0,1-.8-3.66q0-2.58,2.49-7.61a19.2,19.2,0,0,1,5.31-5.87q3.57-2.87,3.66-2.86l-.47-.24a10.58,10.58,0,0,1-6,1.6,5.3,5.3,0,0,1-1.78-.24,4.81,4.81,0,0,1-3.39-3.75,6.39,6.39,0,0,1,1.6-4.79,12.55,12.55,0,0,1,9.63-4.32,14.31,14.31,0,0,1,3.85.51q3.52,1,5.92,5.17a13.78,13.78,0,0,1,2,7A7.72,7.72,0,0,1,794.77,128.07Z" style="fill:#fff"/><path d="M649.77,154.09c-3.88,0-7-1.91-9.13-5.56a21,21,0,0,1-3-7.88,53.39,53.39,0,0,1-1-10.91c.07-8.6,1.26-13.35,3.85-15.4h0a7.28,7.28,0,0,1,4.57-1.65c2,0,5.47.73,6.8,5.64a30.55,30.55,0,0,1,.49,3,7.13,7.13,0,0,1,4.8-3.15,2,2,0,0,1,.35,0,5.27,5.27,0,0,1,4.72,2.45,20.56,20.56,0,0,1,2.06-5,6.62,6.62,0,0,1,2.73-2.75,7,7,0,0,1,2.79-.82,7.47,7.47,0,0,1,6.12,2.36,7.2,7.2,0,0,1,2.06,4,8.11,8.11,0,0,1,3-4.87,2.22,2.22,0,0,1,1-.38l7.73-.79a21.33,21.33,0,0,1,4.19-.44c3.47,0,5.63,1.11,6.41,3.31a7,7,0,0,1,.42,2.44,6.35,6.35,0,0,1-2.3,5,7.32,7.32,0,0,1-3.41,1.58l.66,0a6.8,6.8,0,0,1,5.21,2.41q.26-2.81.66-5.83c.5-3.64,1.64-6,3.49-7.27a2.26,2.26,0,0,1,1-.38l7.73-.79a21.48,21.48,0,0,1,4.19-.44c3.47,0,5.63,1.11,6.42,3.31a7,7,0,0,1,.41,2.44,6.32,6.32,0,0,1-2.3,5,7.33,7.33,0,0,1-3.4,1.58l.65,0a6.87,6.87,0,0,1,5.38,2.6c.16-1.59.37-3.16.62-4.7.9-5.53,1.86-7.4,3.06-8.26a7.48,7.48,0,0,1,5.92-2.46c4.09,0,5.87,2.15,6.63,3.67a8,8,0,0,1,4.51-3.91,1.85,1.85,0,0,1,.47-.08c5.55-.34,8.07,2,9.22,4.1a7.81,7.81,0,0,1,.94,3.85,18.87,18.87,0,0,1-3.41,10.23c-.57.84-1.33,2-2.3,3.49l1.61,2.78c2.32,4.2,3.44,7.47,3.44,10a9.29,9.29,0,0,1-1.85,5.7,6.77,6.77,0,0,1-5.1,2.52c-3.25.34-5.8-3.24-7.47-6a8.82,8.82,0,0,1-1.2,3,2.23,2.23,0,0,1-.51.55,9.41,9.41,0,0,1-5.87,1.87,8,8,0,0,1-5-1.54c-2.87-2.18-4.19-7.4-4.16-16.43v-.78a8,8,0,0,1-1.41,1.51,7.53,7.53,0,0,1-3.86,1.84,5.69,5.69,0,0,1,1.74.41,5.19,5.19,0,0,1,3.47,4.36,8.24,8.24,0,0,1-1.55,5.59,13.67,13.67,0,0,1-4.64,4.19A12.57,12.57,0,0,1,712.3,154a13.38,13.38,0,0,1-5.68-1.2,11.19,11.19,0,0,1-3.47-3.25,2.2,2.2,0,0,1-.17-.25c-1.53-2.54-2.26-7.18-2.3-14.62h0a7.8,7.8,0,0,1-1.32,1.38,7.5,7.5,0,0,1-3.85,1.84,5.69,5.69,0,0,1,1.74.41,5.16,5.16,0,0,1,3.46,4.36,8.18,8.18,0,0,1-1.54,5.59,13.61,13.61,0,0,1-4.65,4.19,12.51,12.51,0,0,1-6.31,1.56,13.38,13.38,0,0,1-5.68-1.2,11.19,11.19,0,0,1-3.47-3.25l-.18-.25c-1.53-2.54-2.25-7.18-2.29-14.62,0-1.64,0-3.39.15-5.24-.48,2.6-1.08,5.81-1.79,9.59-1.12,5.76-2.91,9.94-5.45,12.81a2.11,2.11,0,0,1-.27.25,7.2,7.2,0,0,1-4.64,1.48,10.84,10.84,0,0,1-5.43-1.42,2.11,2.11,0,0,1-.31-.21,8.37,8.37,0,0,1-1.9-2.25v0a6.85,6.85,0,0,1-6.28,4.36C650.36,154.07,650.07,154.09,649.77,154.09Zm-6.44-36.25c-.49.4-2.07,2.41-2.15,11.94a48.72,48.72,0,0,0,.87,10,16.58,16.58,0,0,0,2.28,6.25l.13.2c1.41,2.5,3.29,3.58,5.88,3.39a2.45,2.45,0,0,0,2.47-1.59,19.22,19.22,0,0,0,.92-4.87c.48-5,.6-5.6.64-5.84a2.23,2.23,0,0,1,1.88-1.77,3.15,3.15,0,0,1,2.6.92,2.28,2.28,0,0,1,.69,1.2,28.81,28.81,0,0,1,.37,4.62,18.51,18.51,0,0,0,.41,3.86,4.11,4.11,0,0,0,1.23,2.21,6.27,6.27,0,0,0,3,.74,3.19,3.19,0,0,0,1.72-.4c1.9-2.24,3.34-5.78,4.27-10.53,1.11-5.91,1.95-10.44,2.48-13.44a31.87,31.87,0,0,0,.71-4.45,3.48,3.48,0,0,0-.87-2.63,3.05,3.05,0,0,0-3.54-.89l-.28.15c-.09,0-.42.24-.87,1-1.67,2.79-2.7,7.48-3.09,13.94a2.65,2.65,0,0,1-1.06,2,2.83,2.83,0,0,1-2.33.44,2.25,2.25,0,0,1-1.64-1.45,5.71,5.71,0,0,1-.19-3.38c0-.17,0-.81-.28-2.43a12.39,12.39,0,0,0-.94-3.78c-.25-.46-.47-.59-.82-.61a3,3,0,0,0-2.15,2c-.71,2-1.27,3.53-1.64,4.63l-.08,1.12a5,5,0,0,1-1,2.89,2.22,2.22,0,0,1-1.74.84,3.07,3.07,0,0,1-2.46-1.29,2.2,2.2,0,0,1-.47-1.33l-.14-8c-.4-3.09-.55-3.85-.59-4-.58-2.12-1.59-2.3-2.49-2.3A2.9,2.9,0,0,0,643.33,117.84Zm63.39,29a9.41,9.41,0,0,0,1.82,1.9,8.89,8.89,0,0,0,3.76.76,8.25,8.25,0,0,0,4.11-1,9.26,9.26,0,0,0,3.16-2.81,3.89,3.89,0,0,0,.81-2.61c0-.23,0-.46-.71-.72a2.7,2.7,0,0,0-1.76.08,2.26,2.26,0,0,1-1.69-.22,4,4,0,0,1-2.1-3.63,2.53,2.53,0,0,1,0-.38,16.62,16.62,0,0,0,.31-2.34,2.24,2.24,0,0,1,2-2.5,6.11,6.11,0,0,1,2,.07,2.86,2.86,0,0,0,2.07-.85,3,3,0,0,0,1.26-2.5V130a2.16,2.16,0,0,0,0-.36,2.36,2.36,0,0,0-1.91-.93,3.12,3.12,0,0,0-2,.6,2.28,2.28,0,0,1-1.87.43,3.33,3.33,0,0,1-2.68-2.56,2.11,2.11,0,0,1,0-.83s0-.39.11-2a7.76,7.76,0,0,1,.59-3.09,2.21,2.21,0,0,1,2.29-1.27,7.42,7.42,0,0,0,.76,0,4.17,4.17,0,0,0,2.74-.75,1.87,1.87,0,0,0,.71-1.58,2.45,2.45,0,0,0-.14-.91h0s-.44-.38-2.23-.38a16.65,16.65,0,0,0-3.4.37l-.23,0-7.13.72a8,8,0,0,0-1.27,3.89,94.35,94.35,0,0,0-1,13.2C705.18,142.74,706.12,145.75,706.72,146.85Zm-24.09,0a9.41,9.41,0,0,0,1.82,1.9,8.89,8.89,0,0,0,3.76.76,8.25,8.25,0,0,0,4.11-1,9.26,9.26,0,0,0,3.16-2.81,3.87,3.87,0,0,0,.8-2.61c0-.23,0-.46-.71-.72a2.7,2.7,0,0,0-1.76.08,2.24,2.24,0,0,1-1.68-.22,4,4,0,0,1-2.11-3.63,1.69,1.69,0,0,1,0-.38,16.81,16.81,0,0,0,.31-2.34,2.24,2.24,0,0,1,2-2.5,6,6,0,0,1,2,.07,2.86,2.86,0,0,0,2.08-.85,3,3,0,0,0,1.26-2.5V130a2.16,2.16,0,0,0,0-.36,2.36,2.36,0,0,0-1.91-.93,3.1,3.1,0,0,0-2,.6,2.28,2.28,0,0,1-1.87.43,3.33,3.33,0,0,1-2.68-2.56,2.11,2.11,0,0,1,0-.83s0-.35.11-2a8,8,0,0,1,.58-3.09,2.23,2.23,0,0,1,2.3-1.27,7.29,7.29,0,0,0,.76,0,4.19,4.19,0,0,0,2.74-.75,1.87,1.87,0,0,0,.71-1.58,2.68,2.68,0,0,0-.14-.91h0s-.44-.38-2.23-.38a16.58,16.58,0,0,0-3.4.37l-.23,0-7.13.72a8,8,0,0,0-1.27,3.89,94.38,94.38,0,0,0-1,13.21C681.09,142.74,682,145.75,682.63,146.85Zm56.82-9.27a2.11,2.11,0,0,1,.66.1,4.28,4.28,0,0,1,1.85,1,2.06,2.06,0,0,1,.56.94,27.19,27.19,0,0,0,2.83,5.82c2.22,3.71,3.32,4,3.33,4a2.91,2.91,0,0,0,1.89-.74,4.92,4.92,0,0,0,1-3c0-1.22-.49-3.57-2.86-7.85-1.07-1.85-1.82-3.15-2.26-3.86a2.25,2.25,0,0,1,0-2.38q2-3.1,3.06-4.67a14.45,14.45,0,0,0,2.68-7.78,3.4,3.4,0,0,0-.37-1.68c-.28-.5-1.12-2-4.76-1.84-.48.23-1.59,1.07-2.89,4.15a15.65,15.65,0,0,0-1.51,5.13,2.22,2.22,0,0,1-.1,1.22,2.72,2.72,0,0,1-2.6,1.82,2.85,2.85,0,0,1-2.65-1.74,2.18,2.18,0,0,1-.19-.91c0-.27,0-.91.19-3.39.15-2.19.18-3.12.18-3.51s0-.83-.06-1.4c-.25-.45-.83-1-2.55-1a3,3,0,0,0-2.67,1.07,2.31,2.31,0,0,1-.55.53c-.2.36-.75,1.61-1.36,5.38a77.49,77.49,0,0,0-1,12.44c0,9.94,1.67,12.32,2.4,12.88a3.67,3.67,0,0,0,2.27.63,5.13,5.13,0,0,0,2.83-.73,7.38,7.38,0,0,0,.58-3.2,26.94,26.94,0,0,0-.49-4.37,2.21,2.21,0,0,1,.63-1.95l.32-.33A2.27,2.27,0,0,1,739.45,137.58Zm-25-1.64a.13.13,0,0,0,0,.06Zm-24.1,0a.11.11,0,0,1,0,.05Zm-40.92-5.24Zm68.42-6.25v0l.17,0Zm-24.09,0v0l.17,0Zm48.39-.66h0Zm-.09-.1.09.1Zm0,0h0Zm0,0Zm0,0h0Zm0,0Zm0,0h0Zm-10.31-6.32Zm50.39,36.19a1.72,1.72,0,0,1-.32,0,19.72,19.72,0,0,1-7.26-2.22,9.13,9.13,0,0,1-3.84-4.57,13.28,13.28,0,0,1-1-4.42c0-2.13.85-5,2.73-8.67a16,16,0,0,1,3.2-4.22,5.8,5.8,0,0,1-1.21-.29,7,7,0,0,1-4.81-5.38,1.49,1.49,0,0,1,0-.36A8.5,8.5,0,0,1,771.8,117a14.74,14.74,0,0,1,11.28-5.06,16.32,16.32,0,0,1,4.45.6c2.92.81,5.36,2.9,7.25,6.2a16,16,0,0,1,2.31,8.14,9.92,9.92,0,0,1-.12,1.55.85.85,0,0,1,0,.17,21.81,21.81,0,0,1-4.29,8.75,16,16,0,0,1-1.17,1.29,7.44,7.44,0,0,1,3.15.91,6.71,6.71,0,0,1,3.13,6.13,5.91,5.91,0,0,1-2,4.75,13.52,13.52,0,0,1-7.17,2.86A57.36,57.36,0,0,1,782.14,153.54Zm2.43-25.71c-.21.16-.92.7-3.38,2.68a17,17,0,0,0-4.71,5.13c-2,4-2.27,5.81-2.26,6.57a9.23,9.23,0,0,0,.66,2.91,4.64,4.64,0,0,0,2,2.36,15.7,15.7,0,0,0,5.44,1.61,55.38,55.38,0,0,0,5.71-.22,9.32,9.32,0,0,0,4.87-1.85c.09-.08.41-.35.41-1.34,0-1.52-.53-2-1-2.33a5.68,5.68,0,0,0-2.54-.33c-.3,0-1,0-2.7.12-1.47.08-2.36.12-2.66.12a2.23,2.23,0,0,1-2.19-1.83l-.09-.52a2.23,2.23,0,0,1,1.5-2.52,11.7,11.7,0,0,0,5.59-3.87,17.46,17.46,0,0,0,3.39-6.89,6.26,6.26,0,0,0,0-.78,11.65,11.65,0,0,0-1.73-5.89c-1.3-2.28-2.8-3.63-4.58-4.13a11.92,11.92,0,0,0-3.25-.43,10.3,10.3,0,0,0-8,3.59,4.11,4.11,0,0,0-1,3,2.58,2.58,0,0,0,1.88,1.94A3.16,3.16,0,0,0,777,125a8.4,8.4,0,0,0,4.74-1.23,2.26,2.26,0,0,1,2.22-.13l.47.23a2.24,2.24,0,0,1,1.17,2.51A2.19,2.19,0,0,1,784.57,127.83Z" style="fill:#d6a758"/></g><g id="text--1" style="filter:url(#f2)"><path d="M195.92,116.09a5.12,5.12,0,0,1,3.2-1.17q3.56,0,4.64,4c.13.5.35,2,.66,4.42l.14,8.17a.92.92,0,0,0,.71.42,3.17,3.17,0,0,0,.47-1.64l.09-1.41c.38-1.13,1-2.81,1.79-5a5.16,5.16,0,0,1,4-3.43,3.12,3.12,0,0,1,3,1.79,15.14,15.14,0,0,1,1.18,4.51,15.44,15.44,0,0,1,.28,3.14,3.53,3.53,0,0,0,.09,2.26c.44.09.68,0,.71-.38q.6-10.27,3.38-14.93a4.48,4.48,0,0,1,1.88-1.93,4.59,4.59,0,0,1,2-.56,5.27,5.27,0,0,1,4.32,1.74,5.62,5.62,0,0,1,1.55,4.22,34.75,34.75,0,0,1-.75,4.84q-.79,4.52-2.49,13.48-1.54,7.93-4.93,11.74a5,5,0,0,1-3.24,1,8.55,8.55,0,0,1-4.32-1.13,6.28,6.28,0,0,1-2.12-3.52,20.92,20.92,0,0,1-.47-4.32,30,30,0,0,0-.32-4.23,1.11,1.11,0,0,0-.8-.38q-.15.7-.61,5.64a22,22,0,0,1-1.08,5.49,4.68,4.68,0,0,1-4.37,3q-5.22.38-8-4.51a18.58,18.58,0,0,1-2.66-7.11,50.28,50.28,0,0,1-.91-10.45Q193,118.39,195.92,116.09Zm57.86,12.59a4.39,4.39,0,0,1,.14,1.45,5.22,5.22,0,0,1-2,4.18,5,5,0,0,1-3.94,1.37,3.62,3.62,0,0,0-1.41-.05,13.67,13.67,0,0,1-.33,3,1.83,1.83,0,0,0,1,1.69,4.77,4.77,0,0,1,3.14,0,3,3,0,0,1,2.12,2.53,6.05,6.05,0,0,1-1.18,4.11,11.36,11.36,0,0,1-3.9,3.5,10.24,10.24,0,0,1-5.21,1.27,11,11,0,0,1-4.74-1,10.19,10.19,0,0,1-2.68-2.63q-1.92-3.19-2-13.48a97.48,97.48,0,0,1,1-13.52c.41-3,1.26-4.85,2.54-5.73l7.84-.8a19,19,0,0,1,3.85-.42q3.67,0,4.32,1.83a4.71,4.71,0,0,1,.29,1.69A4.09,4.09,0,0,1,251.1,121a6.31,6.31,0,0,1-4.18,1.27,9,9,0,0,1-1,0,6.28,6.28,0,0,0-.38,2.25c-.06,1.32-.1,2.07-.14,2.26a1.15,1.15,0,0,0,1,.84,5.35,5.35,0,0,1,3.43-1.08A4.77,4.77,0,0,1,253.78,128.68Zm24.09,0a4.39,4.39,0,0,1,.14,1.45,5.22,5.22,0,0,1-2,4.18,5,5,0,0,1-3.94,1.37,3.62,3.62,0,0,0-1.41-.05,13.67,13.67,0,0,1-.33,3,1.83,1.83,0,0,0,1,1.69,4.77,4.77,0,0,1,3.14,0,3,3,0,0,1,2.12,2.53,6.05,6.05,0,0,1-1.18,4.11,11.42,11.42,0,0,1-3.89,3.5,10.27,10.27,0,0,1-5.22,1.27,11,11,0,0,1-4.74-1,10.19,10.19,0,0,1-2.68-2.63q-1.92-3.19-2-13.48a96.09,96.09,0,0,1,1-13.52c.4-3,1.25-4.85,2.53-5.73l7.84-.8a19,19,0,0,1,3.86-.42q3.66,0,4.32,1.83a5,5,0,0,1,.28,1.69,4.11,4.11,0,0,1-1.5,3.29,6.34,6.34,0,0,1-4.18,1.27,9.08,9.08,0,0,1-1,0,6.1,6.1,0,0,0-.37,2.25c-.07,1.32-.11,2.07-.14,2.26a1.12,1.12,0,0,0,1,.84,5.35,5.35,0,0,1,3.43-1.08A4.77,4.77,0,0,1,277.87,128.68Zm6.48-13.06h0a5.19,5.19,0,0,1,4.46-2q3.61,0,4.74,2.68c.07.81.1,1.47.1,2s-.06,1.85-.19,3.66-.19,2.9-.19,3.24a.63.63,0,0,0,.61.43.52.52,0,0,0,.52-.38.62.62,0,0,1-.05-.33,17.49,17.49,0,0,1,1.69-6.1q2-4.8,4.51-5.5,5.31-.33,7.14,3a5.57,5.57,0,0,1,.66,2.77,16.67,16.67,0,0,1-3,9q-1,1.55-3.06,4.65.66,1.08,2.3,3.94,3.15,5.68,3.15,8.93a7,7,0,0,1-1.41,4.36,4.67,4.67,0,0,1-3.52,1.65c-1.5.15-3.3-1.52-5.4-5a28.43,28.43,0,0,1-3.05-6.34,2.91,2.91,0,0,0-.94-.42l-.33.33a30,30,0,0,1,.51,4.74,8.61,8.61,0,0,1-1.12,4.74A7.18,7.18,0,0,1,288,151a5.79,5.79,0,0,1-3.62-1.08q-3.33-2.53-3.28-14.65a78.54,78.54,0,0,1,1-12.8C282.75,118.39,283.51,116.09,284.35,115.62Zm62.37,17.43h-.05a54.9,54.9,0,0,1-.94,9.3,35.34,35.34,0,0,1-1,5.11,5.13,5.13,0,0,1-2.58,3,8.26,8.26,0,0,1-4.14,1A5.43,5.43,0,0,1,334,150a9.17,9.17,0,0,1-3-6.72c0-.53.16-2.27.47-5.21.19-1.72.38-3.36.56-4.93.29-2.38.54-3.69.76-3.94,0-.35-.18-.49-.52-.43h-.89a2.89,2.89,0,0,1-2.77-2.25c-.07-.75-.1-1.27-.1-1.55a9.64,9.64,0,0,1,2.73-7,20.59,20.59,0,0,1,2.67-2,24.49,24.49,0,0,1,2.16-1.32,6,6,0,0,1,2.63-.61q3.29,0,5.4,3.57a18.87,18.87,0,0,1,2.26,7.42c.12,1.16.22,3.87.28,8.12Z" style="fill:#fff"/><path d="M203.74,154.09c-3.88,0-7-1.91-9.13-5.57a20.86,20.86,0,0,1-3-7.87,53.39,53.39,0,0,1-1-10.91c.07-8.6,1.26-13.35,3.85-15.4h0a7.26,7.26,0,0,1,4.57-1.65c2,0,5.47.73,6.8,5.64a30.55,30.55,0,0,1,.49,3,7.13,7.13,0,0,1,4.8-3.15,2,2,0,0,1,.34,0,5.28,5.28,0,0,1,4.73,2.45,21,21,0,0,1,2.05-5,6.74,6.74,0,0,1,2.73-2.75,7.08,7.08,0,0,1,2.8-.82,7.48,7.48,0,0,1,6.12,2.36,7.26,7.26,0,0,1,2.06,4,8.1,8.1,0,0,1,3-4.87,2.26,2.26,0,0,1,1-.38l7.73-.78a20.77,20.77,0,0,1,4.19-.45c3.47,0,5.63,1.11,6.42,3.31a7,7,0,0,1,.41,2.44,6.34,6.34,0,0,1-2.29,5,7.44,7.44,0,0,1-3.41,1.59q.33,0,.66,0a6.81,6.81,0,0,1,5.21,2.41c.16-1.86.38-3.81.66-5.83.5-3.64,1.64-6,3.49-7.27a2.22,2.22,0,0,1,1-.38l7.73-.78a20.62,20.62,0,0,1,4.19-.45c3.47,0,5.63,1.11,6.41,3.31a7,7,0,0,1,.42,2.44,6.35,6.35,0,0,1-2.3,5,7.44,7.44,0,0,1-3.41,1.59q.33,0,.66,0a6.87,6.87,0,0,1,5.38,2.6c.16-1.59.36-3.16.62-4.7.9-5.53,1.85-7.4,3.06-8.26a7.45,7.45,0,0,1,5.92-2.46c4.08,0,5.87,2.15,6.63,3.67a8,8,0,0,1,4.51-3.91,2.46,2.46,0,0,1,.46-.08c5.54-.34,8.08,2,9.23,4.1a7.81,7.81,0,0,1,.94,3.85,18.8,18.8,0,0,1-3.42,10.23l-2.29,3.49,1.61,2.78c2.32,4.2,3.44,7.47,3.44,10a9.29,9.29,0,0,1-1.86,5.7,6.77,6.77,0,0,1-5.09,2.53c-3.26.33-5.8-3.25-7.47-6a9,9,0,0,1-1.2,3,2.23,2.23,0,0,1-.51.55,9.41,9.41,0,0,1-5.87,1.87,8,8,0,0,1-5-1.54c-2.87-2.18-4.2-7.4-4.16-16.43v-.78a7.75,7.75,0,0,1-1.42,1.51,7.5,7.5,0,0,1-3.85,1.84,5.76,5.76,0,0,1,1.74.41,5.16,5.16,0,0,1,3.46,4.36,8.18,8.18,0,0,1-1.54,5.59,13.61,13.61,0,0,1-4.65,4.19,12.51,12.51,0,0,1-6.31,1.56,13.38,13.38,0,0,1-5.68-1.2,11.19,11.19,0,0,1-3.47-3.25l-.18-.25c-1.53-2.54-2.25-7.18-2.29-14.62h0a7.8,7.8,0,0,1-1.32,1.38,7.5,7.5,0,0,1-3.85,1.84,5.83,5.83,0,0,1,1.74.41,5.16,5.16,0,0,1,3.46,4.36,8.18,8.18,0,0,1-1.54,5.59,13.61,13.61,0,0,1-4.65,4.19,12.51,12.51,0,0,1-6.31,1.56,13.38,13.38,0,0,1-5.68-1.2,11.08,11.08,0,0,1-3.47-3.25,1.44,1.44,0,0,1-.18-.25c-1.53-2.54-2.26-7.18-2.29-14.62,0-1.64,0-3.39.15-5.24-.48,2.6-1.08,5.82-1.79,9.59-1.12,5.76-2.91,9.94-5.46,12.81a2,2,0,0,1-.26.25,7.15,7.15,0,0,1-4.64,1.48,10.74,10.74,0,0,1-5.43-1.42,2.11,2.11,0,0,1-.31-.21,8.19,8.19,0,0,1-1.9-2.25v0a6.85,6.85,0,0,1-6.28,4.36C204.33,154.08,204,154.09,203.74,154.09Zm-6.44-36.25c-.49.4-2.08,2.41-2.16,11.94a48.69,48.69,0,0,0,.88,10,16.77,16.77,0,0,0,2.27,6.25l.13.2c1.42,2.5,3.3,3.58,5.89,3.39a2.45,2.45,0,0,0,2.47-1.59,19.72,19.72,0,0,0,.92-4.87c.42-4.43.56-5.44.64-5.84a2.23,2.23,0,0,1,1.88-1.77,3.15,3.15,0,0,1,2.6.92,2.28,2.28,0,0,1,.69,1.2,31.44,31.44,0,0,1,.37,4.62,18.51,18.51,0,0,0,.41,3.86,4.11,4.11,0,0,0,1.23,2.21,6.27,6.27,0,0,0,3,.74,3.13,3.13,0,0,0,1.71-.4c1.91-2.24,3.35-5.78,4.27-10.53,1.12-5.91,2-10.44,2.48-13.44a31.31,31.31,0,0,0,.72-4.45,3.45,3.45,0,0,0-.87-2.62,3.09,3.09,0,0,0-3.54-.9l-.28.15c-.09,0-.42.24-.87,1-1.67,2.79-2.71,7.48-3.09,13.94a2.69,2.69,0,0,1-1.06,2,2.84,2.84,0,0,1-2.33.44,2.23,2.23,0,0,1-1.64-1.45,5.8,5.8,0,0,1-.2-3.38,22,22,0,0,0-.28-2.43,12.91,12.91,0,0,0-.93-3.78c-.25-.46-.47-.59-.82-.61a3,3,0,0,0-2.15,2c-.71,1.95-1.27,3.52-1.64,4.62l-.08,1.12a5.1,5.1,0,0,1-1,2.89,2.25,2.25,0,0,1-1.74.84,3.09,3.09,0,0,1-2.47-1.29,2.18,2.18,0,0,1-.46-1.32l-.14-8c-.4-3.09-.55-3.85-.6-4-.57-2.12-1.58-2.3-2.48-2.3A3,3,0,0,0,197.3,117.84Zm63.39,29a9.41,9.41,0,0,0,1.82,1.9,8.89,8.89,0,0,0,3.76.76,8.25,8.25,0,0,0,4.11-1,9.26,9.26,0,0,0,3.16-2.81,3.87,3.87,0,0,0,.8-2.61c0-.23,0-.46-.71-.72a2.69,2.69,0,0,0-1.76.08,2.24,2.24,0,0,1-1.68-.22,4,4,0,0,1-2.11-3.62,1.58,1.58,0,0,1,0-.38,17,17,0,0,0,.31-2.35,2.24,2.24,0,0,1,2-2.5,6,6,0,0,1,2,.07,2.89,2.89,0,0,0,2.08-.84,3,3,0,0,0,1.25-2.5s0-.1,0-.14a2.28,2.28,0,0,0,0-.37,2.36,2.36,0,0,0-1.91-.93,3.1,3.1,0,0,0-2,.6,2.28,2.28,0,0,1-1.87.43,3.31,3.31,0,0,1-2.68-2.56,2.11,2.11,0,0,1,0-.83s0-.35.11-2a8,8,0,0,1,.58-3.09,2.23,2.23,0,0,1,2.3-1.27,7.29,7.29,0,0,0,.76,0,4.19,4.19,0,0,0,2.74-.75,1.87,1.87,0,0,0,.71-1.58,2.68,2.68,0,0,0-.14-.91h0s-.44-.38-2.23-.38a16.58,16.58,0,0,0-3.4.37l-.23,0-7.13.72a8,8,0,0,0-1.27,3.89,94.38,94.38,0,0,0-1,13.21C259.14,142.74,260.09,145.75,260.69,146.85Zm-24.09,0a5.42,5.42,0,0,0,5.58,2.66,8.18,8.18,0,0,0,4.1-1,9.26,9.26,0,0,0,3.16-2.81,3.83,3.83,0,0,0,.81-2.61c0-.23-.05-.46-.71-.72a2.7,2.7,0,0,0-1.76.08,2.24,2.24,0,0,1-1.68-.22,4,4,0,0,1-2.11-3.62,2.34,2.34,0,0,1,0-.38,18.54,18.54,0,0,0,.32-2.35,2.18,2.18,0,0,1,.44-1.64,2.26,2.26,0,0,1,1.57-.86,6,6,0,0,1,2,.07,2.89,2.89,0,0,0,2.08-.84,3,3,0,0,0,1.25-2.5.61.61,0,0,1,0-.14,2.26,2.26,0,0,0,0-.37,2.35,2.35,0,0,0-1.9-.93,3.15,3.15,0,0,0-2,.6,2.26,2.26,0,0,1-1.86.43,3.31,3.31,0,0,1-2.68-2.56,2.11,2.11,0,0,1,0-.83s0-.35.11-2a7.82,7.82,0,0,1,.58-3.09,2.22,2.22,0,0,1,2.29-1.27,7.56,7.56,0,0,0,.76,0,4.2,4.2,0,0,0,2.75-.75,1.87,1.87,0,0,0,.71-1.58,2.68,2.68,0,0,0-.14-.91h0s-.44-.38-2.24-.38a16.56,16.56,0,0,0-3.39.37l-.23,0-7.13.72a7.93,7.93,0,0,0-1.27,3.89,94.38,94.38,0,0,0-1,13.21C235.05,142.74,236,145.75,236.6,146.85Zm56.82-9.27a2.16,2.16,0,0,1,.66.1,4.45,4.45,0,0,1,1.85,1,2.24,2.24,0,0,1,.56.95,27.19,27.19,0,0,0,2.83,5.82c2.21,3.71,3.32,4,3.33,4a2.91,2.91,0,0,0,1.89-.74,4.92,4.92,0,0,0,1-3c0-1.22-.49-3.57-2.86-7.85-1.07-1.85-1.83-3.15-2.26-3.86a2.22,2.22,0,0,1,0-2.38q2-3.1,3.06-4.67a14.51,14.51,0,0,0,2.68-7.78,3.4,3.4,0,0,0-.37-1.68c-.28-.5-1.1-2-4.76-1.84-.49.23-1.59,1.07-2.89,4.15a15.78,15.78,0,0,0-1.52,5.13,2.22,2.22,0,0,1-.09,1.22,2.74,2.74,0,0,1-2.61,1.82,2.83,2.83,0,0,1-2.64-1.74,2.19,2.19,0,0,1-.2-.91c0-.27,0-.91.2-3.39.15-2.19.18-3.11.18-3.51s0-.83-.06-1.4c-.25-.45-.83-1-2.55-1a3,3,0,0,0-2.67,1.07,2.31,2.31,0,0,1-.55.53c-.2.36-.75,1.61-1.37,5.38a77.49,77.49,0,0,0-1,12.44c0,9.94,1.68,12.32,2.41,12.88a3.63,3.63,0,0,0,2.27.63,5.08,5.08,0,0,0,2.82-.73,7.22,7.22,0,0,0,.59-3.2,27.91,27.91,0,0,0-.49-4.36,2.25,2.25,0,0,1,.62-2l.33-.33A2.25,2.25,0,0,1,293.42,137.58Zm-25-1.64a.13.13,0,0,1,0,.06A.13.13,0,0,0,268.43,135.94Zm-24.09,0s0,0,0,.06S244.34,136,244.34,135.94Zm27.5-11.49v0l.17,0Zm-24.1,0v0l.18,0Zm48.4-.66h0Zm-.1-.1.1.1Zm0,0Zm0,0Zm0,0h0Zm0,0Zm0,0Zm-10.32-6.32ZM338,153.73a7.63,7.63,0,0,1-5.49-2.13,11.35,11.35,0,0,1-3.64-8.32c0-.42.06-1.43.49-5.44.18-1.74.37-3.39.56-5,.1-.82.19-1.49.28-2.05a5.09,5.09,0,0,1-3.62-3.64,1.86,1.86,0,0,1-.09-.48c-.07-.84-.11-1.42-.11-1.73a11.85,11.85,0,0,1,3.37-8.61,21.83,21.83,0,0,1,3-2.3,24.25,24.25,0,0,1,2.41-1.46,8.18,8.18,0,0,1,3.62-.85c2.08,0,5,.81,7.32,4.66a21.07,21.07,0,0,1,2.55,8.3c.14,1.25.23,3.94.3,8.25v.13a2.14,2.14,0,0,1-.05.45,58.64,58.64,0,0,1-1,9.17c-.66,3.86-.92,5.13-1.21,5.73a7.34,7.34,0,0,1-3.52,4A10.48,10.48,0,0,1,338,153.73Zm-3.17-23.45a26.6,26.6,0,0,0-.48,3.12c-.19,1.56-.38,3.2-.56,4.91-.42,3.88-.46,4.77-.46,5a7,7,0,0,0,2.29,5.13,3.22,3.22,0,0,0,2.38.87,6,6,0,0,0,3-.75,2.87,2.87,0,0,0,1.55-1.71c0-.09.06-.19.1-.28.08-.29.3-1.28.87-4.57a53,53,0,0,0,.9-8.89,3.14,3.14,0,0,1,0-.45c-.07-4.82-.18-6.7-.26-7.42a16.5,16.5,0,0,0-2-6.53c-1.31-2.22-2.61-2.47-3.48-2.47a3.78,3.78,0,0,0-1.66.39,20.92,20.92,0,0,0-1.91,1.17,18,18,0,0,0-2.32,1.73,7.41,7.41,0,0,0-2.07,5.47c0,.21,0,.57.06,1.09a.67.67,0,0,0,.66.49h.67a2.63,2.63,0,0,1,2,.57,2.67,2.67,0,0,1,.92,2.08A2.15,2.15,0,0,1,334.81,130.28Zm8.31,15.62Zm0,0Zm0,0h0Zm-8.59-15.23Zm0,0Z" style="fill:#d6a758"/></g><rect id="sep" width="8.2" height="122.38" x="507.26" y="70.43" style="fill:url(#linear-gradient-12)"/><rect id="sep-2" width="8.2" height="122.38" x="922.27" y="70.43" data-name="sep" style="fill:url(#linear-gradient-13)"/><rect id="sep-3" width="8.2" height="122.38" x="1338.62" y="70.43" data-name="sep" style="fill:url(#linear-gradient-14)"/></svg>