<svg xmlns="http://www.w3.org/2000/svg" xmlns:xlink="http://www.w3.org/1999/xlink" id="Layer_1" data-name="Layer 1" viewBox="0 0 176.87 68.75"><defs><filter id="week1-title-shadow" width="200%" height="200%" name="week1-title-shadow"><feOffset dx="1" dy="1" in="SourceAlpha" result="offOut"/><feGaussianBlur in="offOut" result="blurOut" stdDeviation="4"/><feComponentTransfer><feFuncA slope=".3" type="linear"/></feComponentTransfer><feMerge><feMergeNode/><feMergeNode in="SourceGraphic"/></feMerge></filter><linearGradient id="linear-gradient" x1="88.6" x2="88.27" y1="8.41" y2="57.96" gradientUnits="userSpaceOnUse"><stop offset="0" stop-color="#be914a"/><stop offset="1" stop-color="#ffe9b6"/></linearGradient><linearGradient id="linear-gradient-2" x1="88.27" x2="88.6" y1="60.11" y2="5.24" gradientUnits="userSpaceOnUse"><stop offset="0" stop-color="#d2981c"/><stop offset="1" stop-color="#ffce5b"/></linearGradient><filter id="week1-text-shadow" width="150" height="150" name="week1-text-shadow"><feOffset dy="1" in="SourceAlpha" result="offOut"/><feGaussianBlur in="offOut" result="blurOut" stdDeviation="2"/><feComponentTransfer><feFuncA slope=".2" type="linear"/></feComponentTransfer><feMerge><feMergeNode/><feMergeNode in="SourceGraphic"/></feMerge></filter></defs><title>week__title</title><g id="week2"><path d="M157.43,60.38h-138a13.52,13.52,0,0,1-13.5-13.5v-28a13.51,13.51,0,0,1,13.5-13.5h138a13.51,13.51,0,0,1,13.5,13.5v28A13.51,13.51,0,0,1,157.43,60.38Z" style="fill:#f4d57a;filter:url(#week1-title-shadow)"/><path d="M153.93,57.88h-131a14.52,14.52,0,0,1-14.5-14.5v-21a14.52,14.52,0,0,1,14.5-14.5h131a14.51,14.51,0,0,1,14.5,14.5v21A14.52,14.52,0,0,1,153.93,57.88Zm-131-43a7.51,7.51,0,0,0-7.5,7.5v21a7.52,7.52,0,0,0,7.5,7.5h131a7.51,7.51,0,0,0,7.5-7.5v-21a7.5,7.5,0,0,0-7.5-7.5Z" style="fill:url(#linear-gradient)"/><path d="M157.43,60.38h-138a13.52,13.52,0,0,1-13.5-13.5v-28a13.51,13.51,0,0,1,13.5-13.5h138a13.51,13.51,0,0,1,13.5,13.5v28A13.51,13.51,0,0,1,157.43,60.38Zm-138-50a8.51,8.51,0,0,0-8.5,8.5v28a8.52,8.52,0,0,0,8.5,8.5h138a8.51,8.51,0,0,0,8.5-8.5v-28a8.51,8.51,0,0,0-8.5-8.5Z" style="fill:url(#linear-gradient-2)"/><g style="filter:url(#week1-text-shadow)"><path d="M113.5,26.62a5.29,5.29,0,0,0-.65-2.61c-.63-1.13-2.23-3-5.91-2.76l-.27,0-.26.07a4.66,4.66,0,0,0-1.91,1.11,5.28,5.28,0,0,0-3.29-1A5.07,5.07,0,0,0,97.29,23a2.92,2.92,0,0,0-.4.39c-.59-.85-1.76-1.74-4.08-1.74a11.7,11.7,0,0,0-2.31.24l-4.43.45-.53.36a4.21,4.21,0,0,0-.74.66c-.6-.84-1.77-1.71-4.06-1.71a11.7,11.7,0,0,0-2.31.24L74,22.36l-.53.36a4.67,4.67,0,0,0-.75.66l0-.05a5.11,5.11,0,0,0-4.17-1.58h0a5,5,0,0,0-1.91.56,4.76,4.76,0,0,0-1.89,1.89,8,8,0,0,0-.48.92,4.28,4.28,0,0,0-1.76-.33l-.4,0a5.25,5.25,0,0,0-1.27.41,4.7,4.7,0,0,0-4.53-3.2,5.06,5.06,0,0,0-3.15,1.12c-1.69,1.33-2.42,4-2.46,8.79a27.41,27.41,0,0,0,.51,5.75,11.81,11.81,0,0,0,1.67,4.42,6.49,6.49,0,0,0,5.75,3.43l.54,0a5,5,0,0,0,3.17-1.33l.3.2a6.71,6.71,0,0,0,3.41.9,5,5,0,0,0,3.19-1.05l.3-.29a10.92,10.92,0,0,0,1.84-3A6.79,6.79,0,0,0,72,42.47l.2.28a6.44,6.44,0,0,0,2.23,2,7.93,7.93,0,0,0,3.43.73,7.65,7.65,0,0,0,3.84-1,8.22,8.22,0,0,0,2.4-2l.17.23a6.44,6.44,0,0,0,2.23,2,7.93,7.93,0,0,0,3.43.73,7.71,7.71,0,0,0,3.85-1,8.58,8.58,0,0,0,2.39-2,4.86,4.86,0,0,0,1.3,1.55,5.27,5.27,0,0,0,3.33,1.06,6.08,6.08,0,0,0,3.79-1.22l.25-.2a4.48,4.48,0,0,0,3.27,1.71,2.17,2.17,0,0,0,.36,0A4.7,4.7,0,0,0,112,43.6a6,6,0,0,0,1.21-3.69,12.19,12.19,0,0,0-1.91-5.71l-.38-.66c.27-.42.5-.76.69-1A10.83,10.83,0,0,0,113.5,26.62Z" style="fill:#d6a758"/><path d="M123.07,46.16a7.28,7.28,0,0,1-6-2.49,5.85,5.85,0,0,1-1.28-3.81,7.46,7.46,0,0,1,.33-2,1.69,1.69,0,0,1,.11-.27,7.29,7.29,0,0,1,.61-1,2.7,2.7,0,0,1,1.32-1l.29-.08a2.82,2.82,0,0,1-.5-1.25,3.61,3.61,0,0,1-.15-1.08,3.41,3.41,0,0,1,.61-2,4.31,4.31,0,0,1-1.83-1.14,4.05,4.05,0,0,1-1.24-2.86c0-2,1.36-3.8,4-5.25a8.07,8.07,0,0,1,4-.94,9.77,9.77,0,0,1,5.79,1.79c2.11,1.51,3.3,3.16,3.55,4.89a9.79,9.79,0,0,1,.07,1.08,6.26,6.26,0,0,1-1.54,4.32,5.57,5.57,0,0,1,1.54,4.11,11.51,11.51,0,0,1-.26,2.31,7.9,7.9,0,0,1-2.26,4,8.54,8.54,0,0,1-4.08,2.32A12.78,12.78,0,0,1,123.07,46.16Zm-4.16-7.25a4.41,4.41,0,0,0-.14,1,2.78,2.78,0,0,0,.63,1.86,4.38,4.38,0,0,0,3.67,1.37,9.63,9.63,0,0,0,2.34-.3,5.39,5.39,0,0,0,2.66-1.53,4.83,4.83,0,0,0,1.44-2.43,8.4,8.4,0,0,0,.2-1.7,2.43,2.43,0,0,0-.77-2.08l-.21,0a1.87,1.87,0,0,1-1.31-.87,1.71,1.71,0,0,1-.24-1.08,1.45,1.45,0,0,1,.78-1.29,3.1,3.1,0,0,0,1.75-3.06,4.91,4.91,0,0,0-.05-.67c-.12-.87-.92-1.86-2.31-2.86a6.82,6.82,0,0,0-4-1.23,5.12,5.12,0,0,0-2.51.57c-1.13.61-2.47,1.56-2.47,2.62a1,1,0,0,0,.38.75,1.53,1.53,0,0,0,.5.36l.78-.26a6.07,6.07,0,0,1,2.14-.42,2,2,0,0,1,.42.08,2.6,2.6,0,0,1,1.74,1.84,1.2,1.2,0,0,1,0,.46A2.86,2.86,0,0,1,122,32.57c-.7.23-1.06.37-1.24.45a1.09,1.09,0,0,0,0,.22.94.94,0,0,0,0,.23,1.28,1.28,0,0,1,.07.28l1.28.24a2.89,2.89,0,0,1,2.31,2,1.42,1.42,0,0,1,.06.58A2.53,2.53,0,0,1,122,39a7.48,7.48,0,0,1-1.73-.33,7,7,0,0,0-1.06-.23l0,.06h0A3.67,3.67,0,0,0,118.91,38.91Zm9.77-4Zm0,0h0Zm-7.23-5.34Z" style="fill:#d6a758"/><path d="M129.51,38.9a8.4,8.4,0,0,0,.2-1.7,2.43,2.43,0,0,0-.77-2.08l-.21,0a1.87,1.87,0,0,1-1.31-.87,1.71,1.71,0,0,1-.24-1.08,1.45,1.45,0,0,1,.78-1.29,3.1,3.1,0,0,0,1.75-3.06,4.91,4.91,0,0,0-.05-.67c-.12-.87-.92-1.86-2.31-2.86a6.82,6.82,0,0,0-4-1.23,5.12,5.12,0,0,0-2.51.57c-1.13.61-2.47,1.56-2.47,2.62a1,1,0,0,0,.38.75,1.53,1.53,0,0,0,.5.36l.78-.26a6.07,6.07,0,0,1,2.14-.42,2,2,0,0,1,.42.08,2.6,2.6,0,0,1,1.74,1.84,1.2,1.2,0,0,1,0,.46A2.86,2.86,0,0,1,122,32.57c-.7.23-1.06.37-1.24.45a1.09,1.09,0,0,0,0,.22.94.94,0,0,0,0,.23,1.28,1.28,0,0,1,.07.28l1.28.24a2.89,2.89,0,0,1,2.31,2,1.42,1.42,0,0,1,.06.58A2.53,2.53,0,0,1,122,39a7.48,7.48,0,0,1-1.73-.33,7,7,0,0,0-1.06-.23l0,.06a3.67,3.67,0,0,0-.23.37,4.41,4.41,0,0,0-.14,1,2.78,2.78,0,0,0,.63,1.86,4.38,4.38,0,0,0,3.67,1.37,9.63,9.63,0,0,0,2.34-.3,5.39,5.39,0,0,0,2.66-1.53A4.83,4.83,0,0,0,129.51,38.9Z" style="fill:#fff"/></g><path d="M68.76,24.24a2.32,2.32,0,0,0-1.93,1.25C65.91,27,65.34,29.54,65.14,33c0,.17-.13.24-.35.19A1.77,1.77,0,0,1,64.74,32a8.24,8.24,0,0,0-.14-1.58A7.55,7.55,0,0,0,64,28.19a1.57,1.57,0,0,0-1.51-.89,2.6,2.6,0,0,0-2,1.72c-.4,1.11-.7,1.95-.89,2.52l0,.7a1.65,1.65,0,0,1-.23.83.48.48,0,0,1-.36-.22l-.07-4.09c-.15-1.22-.26-2-.33-2.21a2.3,2.3,0,0,0-2.32-2,2.5,2.5,0,0,0-1.6.59c-1,.76-1.48,3.05-1.51,6.84a25.24,25.24,0,0,0,.46,5.24,9.24,9.24,0,0,0,1.33,3.56,4,4,0,0,0,4,2.26,2.36,2.36,0,0,0,2.19-1.48,11.55,11.55,0,0,0,.54-2.75c.15-1.65.26-2.59.3-2.83a.56.56,0,0,1,.4.19,14.11,14.11,0,0,1,.17,2.13,9.94,9.94,0,0,0,.23,2.17,3.21,3.21,0,0,0,1.06,1.77,4.26,4.26,0,0,0,2.17.57,2.51,2.51,0,0,0,1.62-.5,12.39,12.39,0,0,0,2.47-5.89c.57-3,1-5.25,1.25-6.76a17,17,0,0,0,.37-2.43,2.82,2.82,0,0,0-.77-2.12A2.66,2.66,0,0,0,68.76,24.24Z" style="fill:#fff"/><path d="M80.72,35a2.5,2.5,0,0,0,2-.68,2.63,2.63,0,0,0,1-2.1,2,2,0,0,0-.07-.73,2.37,2.37,0,0,0-2-1.1,2.65,2.65,0,0,0-1.71.54c-.29-.07-.45-.2-.5-.42s0-.47.07-1.12a3.11,3.11,0,0,1,.19-1.12h.52a3.11,3.11,0,0,0,2.09-.64,2.05,2.05,0,0,0,.76-1.64,2.26,2.26,0,0,0-.15-.85c-.22-.61-.94-.92-2.16-.92a9.49,9.49,0,0,0-1.93.21l-3.93.4a4,4,0,0,0-1.27,2.87,46.73,46.73,0,0,0-.49,6.78q0,5.16,1,6.75a5.12,5.12,0,0,0,1.35,1.32,5.49,5.49,0,0,0,2.37.49,5.15,5.15,0,0,0,2.61-.63,5.67,5.67,0,0,0,2-1.75A3,3,0,0,0,83,38.55a1.47,1.47,0,0,0-1-1.27,2.35,2.35,0,0,0-1.58,0,.91.91,0,0,1-.49-.85A6.75,6.75,0,0,0,80,34.92,1.82,1.82,0,0,1,80.72,35Z" style="fill:#fff"/><path d="M92.79,35a2.5,2.5,0,0,0,2-.68,2.63,2.63,0,0,0,1-2.1,2,2,0,0,0-.07-.73,2.37,2.37,0,0,0-2-1.1,2.65,2.65,0,0,0-1.71.54c-.29-.07-.45-.2-.5-.42s0-.47.07-1.12a3.11,3.11,0,0,1,.19-1.12h.52a3.11,3.11,0,0,0,2.09-.64,2.05,2.05,0,0,0,.76-1.64,2.26,2.26,0,0,0-.15-.85c-.22-.61-.94-.92-2.16-.92a9.49,9.49,0,0,0-1.93.21l-3.93.4a4,4,0,0,0-1.27,2.87,48.19,48.19,0,0,0-.49,6.78q0,5.16,1,6.75a5.12,5.12,0,0,0,1.35,1.32,5.49,5.49,0,0,0,2.37.49,5.15,5.15,0,0,0,2.61-.63,5.58,5.58,0,0,0,2-1.75,3.08,3.08,0,0,0,.59-2.06A1.5,1.5,0,0,0,94,37.28a2.35,2.35,0,0,0-1.58,0,.91.91,0,0,1-.49-.85,6.75,6.75,0,0,0,.16-1.51A1.81,1.81,0,0,1,92.79,35Z" style="fill:#fff"/><path d="M111,26.62a2.8,2.8,0,0,0-.33-1.39c-.61-1.1-1.81-1.59-3.58-1.48-.83.23-1.58,1.15-2.26,2.75a8.73,8.73,0,0,0-.84,3.06c0,.09,0,.15,0,.16a.26.26,0,0,1-.26.19.33.33,0,0,1-.31-.21c0-.17,0-.71.1-1.62s.09-1.52.09-1.84,0-.58,0-1a2.31,2.31,0,0,0-2.38-1.34,2.61,2.61,0,0,0-2.24,1h0q-.63.36-1.14,3.45a39.34,39.34,0,0,0-.51,6.41c0,4.05.54,6.49,1.65,7.34a2.89,2.89,0,0,0,1.81.54,3.58,3.58,0,0,0,2.26-.7,4.32,4.32,0,0,0,.57-2.38,15.34,15.34,0,0,0-.26-2.38l.16-.16a1.4,1.4,0,0,1,.47.21,14.31,14.31,0,0,0,1.53,3.18c1.05,1.75,2,2.59,2.71,2.51A2.29,2.29,0,0,0,110,42.1a3.57,3.57,0,0,0,.71-2.19,10.27,10.27,0,0,0-1.58-4.47c-.55-.95-.93-1.61-1.15-2,.67-1,1.18-1.82,1.53-2.33A8.34,8.34,0,0,0,111,26.62Z" style="fill:#fff"/><path d="M130.2,33.63h0v0Z" style="fill:#fff"/></g></svg>