<svg xmlns="http://www.w3.org/2000/svg" xmlns:xlink="http://www.w3.org/1999/xlink" id="Layer_1" data-name="Layer 1" viewBox="0 0 864.51 806.65"><defs><linearGradient id="linear-gradient" x1="589.84" x2="589.84" y1="-761.14" y2="-761.02" gradientTransform="translate(24579.19 -59278.79) rotate(180) scale(41.51 78.88)" gradientUnits="userSpaceOnUse"><stop offset="0" stop-color="#9f6634"/><stop offset="1" stop-color="#ae723b"/></linearGradient><linearGradient id="linear-gradient-2" x1="594.26" x2="594.26" y1="-766.92" y2="-766.8" gradientTransform="translate(18656.97 -45412.63) rotate(180) scale(31.34 60.22)" xlink:href="#linear-gradient"/><linearGradient id="linear-gradient-3" x1="569.73" x2="570.97" y1="-750.82" y2="-749.7" gradientTransform="matrix(190.96, 0, 0, -192.86, -108434, -143915.2)" gradientUnits="userSpaceOnUse"><stop offset="0" stop-color="#057a97"/><stop offset=".73" stop-color="#00aed9"/><stop offset="1" stop-color="#78e1f2"/></linearGradient><linearGradient id="linear-gradient-4" x1="575.49" x2="575.75" y1="-752.6" y2="-752.45" gradientTransform="translate(271425.33 -109224.32) rotate(180) scale(471.08 146.19)" xlink:href="#linear-gradient-3"/><linearGradient id="linear-gradient-5" x1="573.64" x2="573.76" y1="-749.84" y2="-749.74" gradientTransform="matrix(885.91, 0, 0, -198.05, -507703.4, -147731.38)" xlink:href="#linear-gradient-3"/></defs><title>week__bg--3-1</title><g id="ship"><g id="Group-57"><path id="Path-93" d="M125.79,659.64s-16.59,5.68-22.15,5.68S91.25,667,91.25,659.64s-13.36-12-21.2-12S40.28,650.44,34.36,654q-5.92,3.56-18.76,5.64L27.41,686l72.89,7.05Z" style="fill:#9f6634;fill-rule:evenodd"/><g id="Path-79"><path d="M99.5,666.54c-3.29,0-5.59-.65-6.87-1.55a3.35,3.35,0,0,1-1.56-2.71v-.34a8.61,8.61,0,0,0-2.91-7.18c-3.88-3.42-13.73-6.74-38.6-3.19A102.28,102.28,0,0,0,35,654.92a89.83,89.83,0,0,1-11.64,2.77,304.55,304.55,0,0,1-38.81,2.7l0-2.42A305,305,0,0,0,23,655.29a87.11,87.11,0,0,0,11.34-2.71,103.68,103.68,0,0,1,14.85-3.41c20.7-3,34.34-1.69,40.54,3.77a10.92,10.92,0,0,1,3.73,9v.3A1.06,1.06,0,0,0,94,663c1.71,1.2,8,2.35,19.8-1.87l.82,2.29A46.24,46.24,0,0,1,99.5,666.54Z" style="fill:#163150"/></g><path id="Path-92" d="M64.74,690.26q-10.48,0-25-12.13l-9.38-9.66q.33-7.44-10.3-10.25T1.86,661.73l11,28.53Q35.92,706,39.77,706C43.62,706,75.21,690.26,64.74,690.26Z" style="fill:#ae723b;fill-rule:evenodd"/><g id="Path-70"><path d="M447.41,447.56c26.71-5,40.23-42.63,26.82-67.93s-39.14-31.56-54.43-31.56-40.84,1.14-50.21,16.35q-9.36,15.21,0,92.39L219.41,523.62q-65,35.11-70.12,55.24c-5.09,20.13,10.81,45.82-11.6,67.26S57.88,688,43.43,688s-20.57-3-37.86-29c-40.19-2.79-103.19,16-110.93,16s-14.74,27,0,30.67c5.71,22.6,5.71,72.75,48.47,115q42.77,42.21,298.24,17,23.32,6.86,63.58,2.1c40.26-4.75,133.27-108.11,154.73-148q21.46-39.95,38.76-121.3,15.29,0,19.25-10c4-10,5.24-18.73-12.38-36.92q-17.62-18.19-56.16-47A202.37,202.37,0,0,0,447.41,447.56Z" style="fill:#ae723b;fill-rule:evenodd"/><path d="M79.89,848.35q-22.19,0-40.91-1.07c-49.77-2.85-82.3-11.5-96.7-25.71-34.93-34.48-41.5-73.93-45.84-100-1-5.73-1.79-10.71-2.78-14.82-7.67-2.36-9.5-10.68-8.62-17.84.9-7.36,4.74-15,9.6-15,2,0,8.75-1.52,17.28-3.45,24.13-5.46,64.52-14.6,93.73-12.57l.58,0,.33.49C24,684.66,29.88,686.86,43.43,686.86s71.12-20.23,93.45-41.59c14.14-13.53,12.58-28.77,11.06-43.51-.83-8.19-1.63-15.93.2-23.19,3.51-13.88,26.64-32.2,70.71-56l.08,0,149.39-66.45c-6.23-51.68-6.14-81.88.27-92.29,9.33-15.16,33.7-16.91,51.21-16.91,18.57,0,42.9,8.45,55.47,32.18,7.24,13.66,7.21,31.53-.08,46.66-5.79,12-15.4,20.29-26.48,22.77A202.15,202.15,0,0,1,450.32,476c25.38,19,44.15,34.75,55.81,46.79,18.28,18.87,16.66,28.09,12.64,38.18-2.75,6.9-9.27,10.5-19.39,10.71-11.46,53.63-24.47,94.24-38.68,120.69C449.62,713,420.62,749,390.19,779.87c-49.61,50.34-74.62,59.93-85.12,61.17-26.74,3.16-48.22,2.46-63.83-2.07C177.87,845.21,123.82,848.35,79.89,848.35ZM-3.17,660c-27.82,0-62.7,7.89-84.39,12.79-9.35,2.11-15.52,3.51-17.8,3.51-3,0-6.43,6.14-7.26,12.88-.38,3.09-1,13.35,7.54,15.46l.69.17.17.69c1.1,4.33,2,9.58,3,15.67,4.29,25.8,10.79,64.8,45.17,98.74,28.11,27.75,128.14,33.37,297.3,16.71l.22,0,.22.06c15.33,4.5,36.56,5.19,63.12,2.05,17.33-2,47.84-24.09,83.7-60.48,30.3-30.74,59.13-66.5,70.12-87,14.19-26.4,27.19-67.11,38.65-121l.2-.93h.95c9.74,0,15.68-3,18.16-9.24,3.82-9.59,5.19-17.77-12.14-35.66-11.65-12-30.5-27.81-56-46.91l-.49-.36,0-.61a202.62,202.62,0,0,0-1.71-28.85l-.13-1.1,1.08-.21c10.79-2,20.22-9.94,25.88-21.69,7-14.47,7-31.53.12-44.53-12.09-22.81-35.5-30.93-53.39-30.93-16.95,0-40.49,1.63-49.2,15.79-6.07,9.86-6,40.69.17,91.63l.1.87-.8.35L219.93,524.68c-42.83,23.13-66.21,41.45-69.5,54.47-1.73,6.85-1,14.39-.14,22.37,1.5,14.59,3.19,31.12-11.78,45.45-23.16,22.17-80.82,42.25-95.08,42.25-15,0-21.56-3.62-38.52-29C2.3,660.05-.4,660-3.17,660Z" style="fill:#163150"/></g><g id="Path-95"><path d="M225.47,618.27a1.17,1.17,0,0,1-.67-2.14c39.81-27.79,101.62-46.65,129.69-39.57a1.18,1.18,0,0,1-.58,2.29c-27.52-6.94-88.41,11.75-127.76,39.21A1.14,1.14,0,0,1,225.47,618.27Z" style="fill:#163150"/></g><g id="Path-95-Copy"><path d="M191.68,667.81a1.18,1.18,0,0,1-.55-2.23c9.73-5.12,19.88-11.08,30.63-17.39,39.94-23.45,85.22-50,132.51-47.07a1.2,1.2,0,0,1,1.11,1.26,1.17,1.17,0,0,1-1.26,1.1c-46.57-2.93-91.51,23.46-131.17,46.75-10.77,6.32-20.94,12.3-30.72,17.44A1.18,1.18,0,0,1,191.68,667.81Z" style="fill:#163150"/></g><path id="Path-88" d="M373.23,511.65q-153.36,56.29-170.15,66.74T182.72,600.5q1.07,51.45-7.2,58.13c-8.26,6.69-89.28,52.07-110.64,57.14S7.24,732.57-10,691.18c-10.37-17.89-87.54,13.51-96.17,13.51-5.84-4-7.24-8.27-6.08-16.63.71-5.1,3.47-9.83,6.08-11.85,4.65-1.75,9.39-1.7,14.26-2.64,6.92-1.33,14.16-3.43,22.16-4.93,10.24-1.93,24.57-4.53,45.52-7.62q8.92-1.31,29.65-.64,11.3,17.48,22,25.64c6.36,4.86,23.38,3.1,43.7-3.53a261.9,261.9,0,0,0,43.71-19.44c36-19.84,36.11-33.22,36.11-56.5,0-11.91-2.81-19.3-1.12-26.24,1.62-6.63,5.55-11.77,20.16-23.16,21.71-16.93,58.31-35.92,129-67.49q21.19-9.46,70.64-32.85a48.49,48.49,0,0,1,7.46,26.66A99.25,99.25,0,0,1,373.23,511.65Z" style="fill:#9f6634;fill-rule:evenodd"/><g id="Path-72"><path d="M30.71,722C3.6,722-3.71,706.27-9.23,694.36c-.87-1.89-1.7-3.67-2.54-5.25-2.91-5.4-21.44-6.71-93.21,17.78a1.18,1.18,0,0,1-1.5-.74,1.18,1.18,0,0,1,.74-1.5C-45.2,684-14.68,678.71-9.69,688c.88,1.63,1.72,3.45,2.61,5.37,6,12.89,14.16,30.55,50,25.36,42.92-6.23,125.9-52.75,131.65-60.79,6.22-8.68,7-31.38,7-50.19,0-19.58,20-30.76,37.48-38.32,8.79-3.8,43.81-17,77.67-29.69,35.64-13.39,72.48-27.23,75.93-29.12,1.24-.69,2.71-4.5,3.11-13.15.76-16.53-2.76-36.92-6.84-39.68a1.18,1.18,0,0,1,1.32-2c5.8,3.92,8.54,27.34,7.88,41.75-.4,8.66-1.86,13.75-4.33,15.11-3.6,2-38.88,15.23-76.24,29.26-33.83,12.72-68.82,25.87-77.56,29.65-32,13.83-36.06,26.59-36.06,36.15,0,20.35-.88,42.39-7.46,51.57-3.53,4.93-27,19-53.35,32.14-15.44,7.65-54.13,25.87-79.88,29.6A87.18,87.18,0,0,1,30.71,722Z" style="fill:#163150"/></g><g id="Group-51"><g id="Path-71"><path d="M447.41,448.78c-13.55,0-33.5-2.21-45.42-3.53-4.69-.51-8.4-.92-9.33-.92-4.18,0-16.8-11-16.8-31.13,0-20.3,6.6-33.41,16.8-33.41,8.79,0,13.83,6.67,13.83,18.31,0,10-2.75,20.81-8.79,20.81a1.21,1.21,0,1,1,0-2.42c3.51,0,6.37-8.25,6.37-18.39,0-13.13-6.2-15.89-11.41-15.89-8.6,0-14.37,12.45-14.37,31,0,19.06,11.95,28.7,14.37,28.7,1.06,0,4.46.38,9.59.94,11.88,1.32,31.75,3.51,45.16,3.51a1.22,1.22,0,0,1,0,2.43Z" style="fill:#163150"/></g><path id="Path-89" d="M444.36,528.58q56,41.19,56,40.87a19.81,19.81,0,0,0,13.29-5.92c3.09-3.18,5-7.27,5-14q0-20-69.54-70.63Z" style="fill:#9f6634;fill-rule:evenodd"/><path id="Path-90" d="M445.58,448.44l-52.22-4q-.19,147.22-16.31,194.42c-16.12,47.19-47.79,128.35-77.66,160.8s-38.82,42.14-38.82,42.14l28-1.48q35.64-7.51,65.41-40.66t53.62-92.31Q436.35,631,440.35,570.84c1.69-25.39,4.21-50.72,7.06-76.36Q449.12,479.06,445.58,448.44Z" style="fill:#9f6634;fill-rule:evenodd"/><g id="Path-73"><path d="M498.42,571.7a1.21,1.21,0,0,1-.74-.26c-31.17-25.15-48.9-39-52.69-41.21a1.18,1.18,0,1,1,1.18-2c3.95,2.28,21.29,15.83,53,41.41a1.18,1.18,0,0,1,.18,1.66A1.16,1.16,0,0,1,498.42,571.7Z" style="fill:#163150"/></g><g id="Path-74"><path d="M270.82,843A116.39,116.39,0,0,1,241,839l-2.12-.56,1.6-1.5c48.94-45.6,81.6-100.13,97-162.08C353.06,612.7,362.36,559,365.2,515.31a1.21,1.21,0,0,1,2.42.16c-2.85,43.87-12.17,97.67-27.7,159.93-15.4,61.72-47.73,116.13-96.13,161.75,30.82,7.56,59.93,2.38,86.54-15.44,42.18-28.23,69.05-93.39,87.75-147,19.82-56.83,29.83-179.11,29.83-198.11a1.22,1.22,0,0,1,2.43,0c0,19.07-10.06,141.82-30,198.91-18.82,54-45.91,119.6-88.69,148.23C312.56,836.52,292.18,843,270.82,843Z" style="fill:#163150"/></g><g id="Path-75"><path d="M260.57,843a1.22,1.22,0,0,1-.85-.35,1.2,1.2,0,0,1,0-1.71,570.67,570.67,0,0,0,57.39-68.63c24.28-34.18,46.2-87.94,63.38-155.47,13.67-53.75,11.93-129.72,11.19-162.16-.12-5-.21-9-.21-11.55a1.21,1.21,0,1,1,2.42,0c0,2.54.1,6.49.21,11.49.75,32.54,2.49,108.75-11.26,162.82-17.25,67.81-39.3,121.85-63.75,156.27a574.79,574.79,0,0,1-57.63,68.93A1.24,1.24,0,0,1,260.57,843Z" style="fill:#163150"/></g><g id="Path-76"><path d="M402.11,438.89a1.18,1.18,0,0,1-.56-2.21c12.7-7,23.63-26.51,19.92-50.41-2.22-14.3-9.54-24-19.58-26a1.18,1.18,0,0,1-.93-1.39,1.17,1.17,0,0,1,1.38-.93c11.06,2.16,19.08,12.6,21.46,27.93a61.94,61.94,0,0,1-2.89,30c-3.78,10.45-10.08,18.34-18.23,22.8A1.15,1.15,0,0,1,402.11,438.89Z" style="fill:#163150"/></g></g><g id="Path-78"><path d="M53.25,687.07c-10.41,0-22.46-16.83-25.71-23.22-2.27-4.48-9.66-5.72-21.95-3.69l-.32-2c13.43-2.22,21.3-.67,24.06,4.75a65.43,65.43,0,0,0,11,14.74c4,4,9.84,8.51,14.8,7.15l.52,1.92A8.63,8.63,0,0,1,53.25,687.07Z" style="fill:#163150"/></g><g id="Path-91"><path d="M-20.29,765.54c-36.47,0-62.71-9.56-79.8-29a1.19,1.19,0,0,1,.11-1.67,1.17,1.17,0,0,1,1.66.11c20.29,23,54,31.82,103.19,26.82,38.79-3.94,86.71-16.37,150.81-39.11a1.18,1.18,0,1,1,.79,2.22C92.18,747.74,44.09,760.21,5.11,764.17A252.07,252.07,0,0,1-20.29,765.54Z" style="fill:#163150"/></g><g id="Path-94-Copy-3"><path d="M469.33,667.49a.87.87,0,0,1-.77-.47l-.31-.61c-3-5.9-11.06-21.58-34.42-28.45a.87.87,0,0,1,.49-1.67c24.08,7.09,32.35,23.24,35.47,29.33l.31.61a.87.87,0,0,1-.37,1.17A.93.93,0,0,1,469.33,667.49Z" style="fill:#163150"/></g><g id="path-9"><ellipse cx="97.62" cy="757.64" rx="16.34" ry="31.05" style="fill:#313034"/><path d="M97.62,790.35c-10.09,0-18-14.37-18-32.71s7.91-32.72,18-32.72,18,14.37,18,32.72S107.72,790.35,97.62,790.35Zm0-62.09c-8,0-14.67,13.45-14.67,29.38S89.67,787,97.62,787s14.67-13.46,14.67-29.38S105.57,728.26,97.62,728.26Z" style="fill:url(#linear-gradient)"/></g><path d="M97.62,789.35c-9.37,0-17-14.23-17-31.71s7.63-31.72,17-31.72,17,14.23,17,31.72S107,789.35,97.62,789.35Zm0-62.09C89,727.26,82,740.89,82,757.64S89,788,97.62,788s15.67-13.63,15.67-30.38S106.26,727.26,97.62,727.26Z" style="fill:#163150"/><g id="Oval-Copy-24"><g id="path-11"><ellipse cx="32.28" cy="769.65" rx="12.33" ry="23.7" style="fill:#313034"/><path d="M32.28,795c-7.85,0-14-11.14-14-25.37s6.15-25.36,14-25.36,14,11.14,14,25.36S40.13,795,32.28,795Zm0-47.4c-5.15,0-10.67,8.85-10.67,22s5.52,22,10.67,22S43,782.84,43,769.65,37.43,747.62,32.28,747.62Z" style="fill:url(#linear-gradient-2)"/></g><path d="M32.28,794c-7.17,0-13-10.93-13-24.37s5.83-24.36,13-24.36,13,10.93,13,24.36S39.45,794,32.28,794Zm0-47.4c-6.43,0-11.67,10.33-11.67,23s5.24,23,11.67,23S44,782.36,44,769.65,38.71,746.62,32.28,746.62Z" style="fill:#163150"/></g></g></g><g id="wave"><path d="M460.59,686.07c24.32-45.41,74.58-43.63,84.72-4.39-27.43-15-43.76,23.61-46.89,29.69s-7.7,33.09,28.49,55.13q21.89,13.32,53.61,8.53,24.48,23.61-14,27.89t-126.28-9.56Q436.28,731.49,460.59,686.07Z" style="fill-rule:evenodd;fill:url(#linear-gradient-3)"/><path d="M545.7,804.71c-25.65,0-61-3.54-105.63-10.58a.79.79,0,0,1-.67-.72c-2.6-41.21,4.29-77.45,20.5-107.71h0c6.41-12,15.09-21.45,25.09-27.4,9.28-5.52,19.24-7.83,28.81-6.68,15.87,1.9,27.93,13.07,32.28,29.87a.81.81,0,0,1-.28.81.79.79,0,0,1-.87.07c-6.26-3.44-12.42-4.23-18.3-2.36-14.27,4.54-23.3,23.09-26.7,30.08-.33.68-.6,1.23-.81,1.64-3.06,5.94-7.25,32.52,28.2,54.1,14.36,8.74,32.22,11.57,53.09,8.42a.79.79,0,0,1,.66.21c7.94,7.66,11,13.77,9.32,18.67-1.89,5.55-9.69,9-23.83,10.57A191.09,191.09,0,0,1,545.7,804.71Zm-104.76-12c57.83,9.1,100,12.28,125.44,9.46,13.29-1.48,20.87-4.68,22.52-9.52,1.41-4.15-1.5-9.79-8.64-16.75-21.08,3.11-39.17.19-53.76-8.7-10.78-6.56-24.62-17.79-29.34-34-3.1-10.65-1-19.16.56-22.16.21-.4.47-1,.8-1.61,3.47-7.15,12.71-26.15,27.63-30.89,5.79-1.85,11.82-1.29,17.92,1.65-4.53-15.19-15.81-25.22-30.46-27-19.7-2.36-40.24,10.69-52.33,33.26l-.69-.37.69.37C445.3,716.29,438.46,752,440.94,792.68Z" style="fill:#163150"/></g><path d="M332.35,744.08c-24-44.81-97.27-38.07-110.71,0,66-3.53,30.44,34.51,0,37-19.83,1.65-27.27-1.88-63.46,20.16Q136.3,814.61-31.39,817.45q163.8,5.29,202.32,9.56t126.28-9.56Q356.67,789.49,332.35,744.08Z" style="fill-rule:evenodd;fill:url(#linear-gradient-4)"/><path d="M191.71,828.8a191,191,0,0,1-20.86-1c-25.55-2.84-93.6-6.06-202.27-9.56a.79.79,0,0,1-.76-.8.79.79,0,0,1,.77-.78c111.13-1.88,174.78-7.28,189.18-16,30.59-18.62,40.87-19.1,55.11-19.76,2.72-.12,5.54-.25,8.69-.52,17.43-1.45,37.25-15.08,36.57-25.14-.54-7.78-13.82-11.55-36.46-10.33a.76.76,0,0,1-.67-.31.82.82,0,0,1-.12-.74c6.11-17.29,25.37-29.63,49.08-31.44,21.51-1.63,49.37,5.73,63.08,31.33,7.19,13.44,9,25.95,5.24,37.17-4.72,14.24-18.42,26.79-40.74,37.28a.86.86,0,0,1-.21.07C252.74,825.26,217.35,828.8,191.71,828.8ZM-2.06,817.64c91.71,3.13,149.87,6,173.08,8.59,25.48,2.83,67.86-.38,126-9.54,21.85-10.29,35.25-22.51,39.82-36.31,3.57-10.79,1.84-22.88-5.14-35.93-13.35-24.93-40.56-32.1-61.57-30.5-22.57,1.72-41,13.17-47.3,29.29,14-.65,36.12.2,36.92,11.85.75,11-19.5,25.28-38,26.82-3.18.27-6,.4-8.75.52-14,.65-24.12,1.12-54.36,19.53C145.08,810.18,92.42,815.33-2.06,817.64Z" style="fill:#163150"/><path d="M451.7,695.63c42.48-28.68,99.78-9.56,105.21,31-30.43-15.22-59.47,7.81-63.27,31s41,33.35,74.85,20,30.1,30,107.84,11q77.74-19,155,24.07l-486.09,8.1Q106.47,851.33,137.58,827C343,805.12,409.23,724.3,451.7,695.63Z" style="fill-rule:evenodd;fill:url(#linear-gradient-5)"/><path d="M163.06,838.59c-23.95,0-28.56-3-29.62-5.52-.81-1.94.38-4.13,3.65-6.69a.77.77,0,0,1,.4-.16c171.79-18.31,246.19-78,290.65-113.58,8.69-7,16.2-13,23.12-17.67h0c22.66-15.29,51.43-18.2,75.08-7.59,17.66,7.92,29.08,22.18,31.35,39.11a.78.78,0,0,1-1.13.8c-12.69-6.34-26.41-6.4-38.62-.16s-21.51,18.3-23.52,30.63c-1,5.84,1.33,11.18,6.62,15.44,13.85,11.18,44,12.86,67.17,3.73,14.49-5.7,22.25-1.26,32.09,4.36,13.76,7.85,30.89,17.63,75.85,6.63,51.78-12.68,104.13-4.55,155.57,24.14a.79.79,0,0,1-.37,1.48l-486,8.09C277.24,830.32,225,835.73,190,837.71,179,838.33,170.18,838.59,163.06,838.59Zm-25.17-10.83c-1.74,1.39-3.59,3.28-3,4.71,1.26,3,11.82,6.11,55,3.67,35-2,87.24-7.39,155.27-16.07h.09l483.13-8C778.11,784.67,727,777.08,676.52,789.45c-45.57,11.15-63.74.78-77-6.8-9.47-5.41-16.95-9.68-30.74-4.25-23.65,9.31-54.49,7.53-68.73-4-5.75-4.64-8.24-10.49-7.19-16.92,2.1-12.81,11.66-25.28,24.36-31.78,12.24-6.25,25.92-6.42,38.69-.5-2.64-15.73-13.58-29-30.21-36.41-23.16-10.39-51.35-7.54-73.55,7.46-6.88,4.64-14.36,10.64-23,17.59C384.55,749.59,310,809.38,137.89,827.76Z" style="fill:#163150"/></svg>