<svg xmlns="http://www.w3.org/2000/svg" xmlns:xlink="http://www.w3.org/1999/xlink" width="890" height="91" version="1.1" viewBox="0 0 890 91"><title>progress bar</title><desc>Created with Sketch.</desc><defs><linearGradient id="linearGradient-1" x1="50%" x2="50%" y1="88.648%" y2="12.323%"><stop offset="0%" stop-color="#FFD166"/><stop offset="100%" stop-color="#FEF4DC"/></linearGradient><linearGradient id="linearGradient-2" x1="50%" x2="50%" y1="12.323%" y2="88.648%"><stop offset="0%" stop-color="#BE914A"/><stop offset="100%" stop-color="#FFE9B6"/></linearGradient><linearGradient id="linearGradient-3" x1="50%" x2="50%" y1="88.648%" y2="12.323%"><stop offset="0%" stop-color="#D2981C"/><stop offset="100%" stop-color="#FFCE5B"/></linearGradient><rect id="path-4" width="848" height="60" x="0" y="10.455" rx="30"/><filter id="filter-5" width="101.7%" height="123.3%" x="-.8%" y="-8.3%" filterUnits="objectBoundingBox"><feOffset dx="0" dy="2" in="SourceAlpha" result="shadowOffsetOuter1"/><feGaussianBlur in="shadowOffsetOuter1" result="shadowBlurOuter1" stdDeviation="2"/><feComposite in="shadowBlurOuter1" in2="SourceAlpha" operator="out" result="shadowBlurOuter1"/><feColorMatrix in="shadowBlurOuter1" type="matrix" values="0 0 0 0 0.0062833811 0 0 0 0 0.0133333518 0 0 0 0 0.0214277627 0 0 0 0.368771853 0"/></filter><linearGradient id="linearGradient-6" x1="50%" x2="50%" y1="88.648%" y2="12.323%"><stop offset="0%" stop-color="#057A97"/><stop offset="100%" stop-color="#00AED9"/></linearGradient><linearGradient id="linearGradient-7" x1="50%" x2="50%" y1="12.323%" y2="88.648%"><stop offset="0%" stop-color="#BE914A"/><stop offset="100%" stop-color="#FFE9B6"/></linearGradient><linearGradient id="linearGradient-8" x1="50%" x2="50%" y1="88.648%" y2="12.323%"><stop offset="0%" stop-color="#D2981C"/><stop offset="100%" stop-color="#FFCE5B"/></linearGradient><rect id="path-9" width="25" height="24" x="185" y="28" rx="12"/><filter id="filter-10" width="156%" height="158.3%" x="-28%" y="-20.8%" filterUnits="objectBoundingBox"><feOffset dx="0" dy="2" in="SourceAlpha" result="shadowOffsetOuter1"/><feGaussianBlur in="shadowOffsetOuter1" result="shadowBlurOuter1" stdDeviation="2"/><feComposite in="shadowBlurOuter1" in2="SourceAlpha" operator="out" result="shadowBlurOuter1"/><feColorMatrix in="shadowBlurOuter1" type="matrix" values="0 0 0 0 0.0062833811 0 0 0 0 0.0133333518 0 0 0 0 0.0214277627 0 0 0 0.368771853 0"/></filter><linearGradient id="linearGradient-11" x1="50%" x2="50%" y1="88.648%" y2="12.323%"><stop offset="0%" stop-color="#FFD166"/><stop offset="100%" stop-color="#FEF4DC"/></linearGradient><linearGradient id="linearGradient-12" x1="50%" x2="50%" y1="12.323%" y2="88.648%"><stop offset="0%" stop-color="#BE914A"/><stop offset="100%" stop-color="#FFE9B6"/></linearGradient><linearGradient id="linearGradient-13" x1="50%" x2="50%" y1="88.648%" y2="12.323%"><stop offset="0%" stop-color="#D2981C"/><stop offset="100%" stop-color="#FFCE5B"/></linearGradient><path id="path-14" d="M228.847319,10.4545455 L228.847319,70.1881748"/><filter id="filter-15" width="1346.3%" height="122.9%" x="-623.1%" y="-8.3%" filterUnits="objectBoundingBox"><feOffset dx="0" dy="2" in="SourceAlpha" result="shadowOffsetOuter1"/><feGaussianBlur in="shadowOffsetOuter1" result="shadowBlurOuter1" stdDeviation="2"/><feComposite in="shadowBlurOuter1" in2="SourceAlpha" operator="out" result="shadowBlurOuter1"/><feColorMatrix in="shadowBlurOuter1" type="matrix" values="0 0 0 0 0.0062833811 0 0 0 0 0.0133333518 0 0 0 0 0.0214277627 0 0 0 0.368771853 0"/></filter><path id="path-16" d="M418.847319,10.4545455 L418.847319,70.1881748"/><filter id="filter-17" width="1346.3%" height="122.9%" x="-623.1%" y="-8.3%" filterUnits="objectBoundingBox"><feOffset dx="0" dy="2" in="SourceAlpha" result="shadowOffsetOuter1"/><feGaussianBlur in="shadowOffsetOuter1" result="shadowBlurOuter1" stdDeviation="2"/><feComposite in="shadowBlurOuter1" in2="SourceAlpha" operator="out" result="shadowBlurOuter1"/><feColorMatrix in="shadowBlurOuter1" type="matrix" values="0 0 0 0 0.0062833811 0 0 0 0 0.0133333518 0 0 0 0 0.0214277627 0 0 0 0.368771853 0"/></filter><path id="path-18" d="M609.847319,10.4545455 L609.847319,70.1881748"/><filter id="filter-19" width="1346.3%" height="122.9%" x="-623.1%" y="-8.3%" filterUnits="objectBoundingBox"><feOffset dx="0" dy="2" in="SourceAlpha" result="shadowOffsetOuter1"/><feGaussianBlur in="shadowOffsetOuter1" result="shadowBlurOuter1" stdDeviation="2"/><feComposite in="shadowBlurOuter1" in2="SourceAlpha" operator="out" result="shadowBlurOuter1"/><feColorMatrix in="shadowBlurOuter1" type="matrix" values="0 0 0 0 0.0062833811 0 0 0 0 0.0133333518 0 0 0 0 0.0214277627 0 0 0 0.368771853 0"/></filter><linearGradient id="linearGradient-20" x1="50%" x2="50%" y1="88.648%" y2="12.323%"><stop offset="0%" stop-color="#FFD166"/><stop offset="100%" stop-color="#FEF4DC"/></linearGradient><linearGradient id="linearGradient-21" x1="50%" x2="50%" y1="12.323%" y2="88.648%"><stop offset="0%" stop-color="#BE914A"/><stop offset="100%" stop-color="#FFE9B6"/></linearGradient><linearGradient id="linearGradient-22" x1="50%" x2="50%" y1="88.648%" y2="12.323%"><stop offset="0%" stop-color="#D2981C"/><stop offset="100%" stop-color="#FFCE5B"/></linearGradient><rect id="path-23" width="82" height="82" x="0" y="0" rx="41"/><filter id="filter-24" width="117.1%" height="117.8%" x="-8.5%" y="-6.8%" filterUnits="objectBoundingBox"><feOffset dx="0" dy="2" in="SourceAlpha" result="shadowOffsetOuter1"/><feGaussianBlur in="shadowOffsetOuter1" result="shadowBlurOuter1" stdDeviation="2"/><feComposite in="shadowBlurOuter1" in2="SourceAlpha" operator="out" result="shadowBlurOuter1"/><feColorMatrix in="shadowBlurOuter1" type="matrix" values="0 0 0 0 0.0062833811 0 0 0 0 0.0133333518 0 0 0 0 0.0214277627 0 0 0 0.368771853 0"/></filter><linearGradient id="linearGradient-25" x1="50%" x2="50%" y1="88.648%" y2="12.323%"><stop offset="0%" stop-color="#FFD166"/><stop offset="100%" stop-color="#FEF4DC"/></linearGradient><linearGradient id="linearGradient-26" x1="50%" x2="50%" y1="12.323%" y2="88.648%"><stop offset="0%" stop-color="#BE914A"/><stop offset="100%" stop-color="#A08F68"/></linearGradient><text id="text-27" fill="#FFF" font-family="BubbleGum" font-size="16" font-weight="normal"><tspan x="98" y="48">Week 1</tspan></text><filter id="filter-28" width="135.2%" height="211.8%" x="-17.6%" y="-44.1%" filterUnits="objectBoundingBox"><feOffset dx="0" dy="2" in="SourceAlpha" result="shadowOffsetOuter1"/><feGaussianBlur in="shadowOffsetOuter1" result="shadowBlurOuter1" stdDeviation="2"/><feColorMatrix in="shadowBlurOuter1" type="matrix" values="0 0 0 0 0.00784313725 0 0 0 0 0.0117647059 0 0 0 0 0.0196078431 0 0 0 0.18321132 0"/></filter><text id="text-29" fill="#FFF" font-family="BubbleGum" font-size="16" font-weight="normal"><tspan x="305" y="48">Week 2</tspan></text><filter id="filter-30" width="135.2%" height="211.8%" x="-17.6%" y="-44.1%" filterUnits="objectBoundingBox"><feOffset dx="0" dy="2" in="SourceAlpha" result="shadowOffsetOuter1"/><feGaussianBlur in="shadowOffsetOuter1" result="shadowBlurOuter1" stdDeviation="2"/><feColorMatrix in="shadowBlurOuter1" type="matrix" values="0 0 0 0 0.00784313725 0 0 0 0 0.0117647059 0 0 0 0 0.0196078431 0 0 0 0.18321132 0"/></filter><text id="text-31" fill="#FFF" font-family="BubbleGum" font-size="16" font-weight="normal"><tspan x="486" y="48">Week 3</tspan></text><filter id="filter-32" width="135.2%" height="211.8%" x="-17.6%" y="-44.1%" filterUnits="objectBoundingBox"><feOffset dx="0" dy="2" in="SourceAlpha" result="shadowOffsetOuter1"/><feGaussianBlur in="shadowOffsetOuter1" result="shadowBlurOuter1" stdDeviation="2"/><feColorMatrix in="shadowBlurOuter1" type="matrix" values="0 0 0 0 0.00784313725 0 0 0 0 0.0117647059 0 0 0 0 0.0196078431 0 0 0 0.18321132 0"/></filter><text id="text-33" fill="#FFF" font-family="BubbleGum" font-size="16" font-weight="normal"><tspan x="683" y="48">Week 4</tspan></text><filter id="filter-34" width="135.2%" height="211.8%" x="-17.6%" y="-44.1%" filterUnits="objectBoundingBox"><feOffset dx="0" dy="2" in="SourceAlpha" result="shadowOffsetOuter1"/><feGaussianBlur in="shadowOffsetOuter1" result="shadowBlurOuter1" stdDeviation="2"/><feColorMatrix in="shadowBlurOuter1" type="matrix" values="0 0 0 0 0.00784313725 0 0 0 0 0.0117647059 0 0 0 0 0.0196078431 0 0 0 0.18321132 0"/></filter></defs><g id="Page-1" fill="none" fill-rule="evenodd" stroke="none" stroke-width="1"><g id="week1/pirate-hat" transform="translate(-524.000000, -36.000000)"><g id="progress-bar" transform="translate(528.000000, 39.000000)"><g id="Rectangle"><use fill="#000" fill-opacity="1" filter="url(#filter-5)" xlink:href="#path-4"/><rect width="833.44" height="45.44" x="7.28" y="17.735" fill="url(#linearGradient-1)" fill-rule="evenodd" stroke="url(#linearGradient-2)" stroke-linejoin="square" stroke-width="14.56" rx="22.72"/><rect width="837.6" height="49.6" x="5.2" y="15.655" stroke="url(#linearGradient-3)" stroke-linejoin="square" stroke-width="10.4" rx="24.8"/></g><rect id="Rectangle" width="203" height="33" x="14" y="24" fill="#78E1F2" rx="16.5"/><g id="Rectangle-Copy-13"><use fill="#000" fill-opacity="1" filter="url(#filter-10)" xlink:href="#path-9"/><rect width="22" height="21" x="186.5" y="29.5" fill="url(#linearGradient-6)" fill-rule="evenodd" stroke="url(#linearGradient-7)" stroke-linejoin="square" stroke-width="3" rx="10.5"/><use stroke="url(#linearGradient-8)" stroke-width="2" xlink:href="#path-9"/></g><g id="Path-16"><use fill="#000" fill-opacity="1" filter="url(#filter-15)" xlink:href="#path-14"/><path fill="url(#linearGradient-11)" fill-rule="evenodd" stroke="url(#linearGradient-12)" stroke-linejoin="square" stroke-width="7.28"/><use stroke="url(#linearGradient-13)" stroke-width="5.2" xlink:href="#path-14"/></g><g id="Path-16-Copy"><use fill="#000" fill-opacity="1" filter="url(#filter-17)" xlink:href="#path-16"/><path fill="url(#linearGradient-11)" fill-rule="evenodd" stroke="url(#linearGradient-12)" stroke-linejoin="square" stroke-width="7.28"/><use stroke="url(#linearGradient-13)" stroke-width="5.2" xlink:href="#path-16"/></g><g id="Path-16-Copy-2"><use fill="#000" fill-opacity="1" filter="url(#filter-19)" xlink:href="#path-18"/><path fill="url(#linearGradient-11)" fill-rule="evenodd" stroke="url(#linearGradient-12)" stroke-linejoin="square" stroke-width="7.28"/><use stroke="url(#linearGradient-13)" stroke-width="5.2" xlink:href="#path-18"/></g><g id="Group-38" transform="translate(800.327367, 0.000000)"><g id="Rectangle-Copy-12"><use fill="#000" fill-opacity="1" filter="url(#filter-24)" xlink:href="#path-23"/><rect width="74.72" height="74.72" x="3.64" y="3.64" fill="url(#linearGradient-20)" fill-rule="evenodd" stroke="url(#linearGradient-21)" stroke-linejoin="square" stroke-width="7.28" rx="37.36"/><use stroke="url(#linearGradient-22)" stroke-width="5.2" xlink:href="#path-23"/></g><path id="Shape" fill="url(#linearGradient-25)" stroke="url(#linearGradient-26)" stroke-width="1.04" d="M34.5684125,27.672499 C34.569042,27.6708703 34.5689113,27.6715586 34.5637245,27.6899684 C34.5623425,27.6951459 34.5623425,27.6951459 34.5607499,27.7011471 C34.551215,27.7373637 34.551215,27.7373637 34.5337229,27.793597 L34.4067443,28.1729464 L34.0075185,28.1474858 C32.4961703,28.0510997 30.9927592,28.4302799 29.7153346,29.2270132 C28.2933723,30.1529815 26.9813227,31.2411988 25.8058092,32.4690637 C24.6645301,33.6660467 23.3905469,34.7282528 21.9998192,35.6405792 C20.962374,36.2907152 19.7703476,36.6495013 18.5431973,36.6797206 C18.2006579,36.6853194 17.8826145,36.8612595 17.6936005,37.1512666 C17.4939923,37.45469 17.4572246,37.8384155 17.5954876,38.1748184 L18.9305576,41.4172397 L20.7645952,45.8520034 L22.4171681,49.8554541 C22.5656531,50.2231402 22.9044883,50.4774222 23.29387,50.5156962 C23.5171413,50.536529 23.7376076,50.5467472 23.9522292,50.5464269 C25.296109,50.5344569 26.6107802,50.1530766 27.7437293,49.4496876 C29.1665275,48.5227104 30.4779816,47.4352447 31.651785,46.209152 C32.7939684,45.0104867 34.0680635,43.947307 35.4688226,43.028357 C35.884184,42.7811824 36.3209075,42.5720879 36.7735073,42.4037373 L37.8909517,41.9880887 L37.4353233,43.0898367 L31.5837355,57.2394419 C31.1924953,58.2023531 31.6458217,59.3018787 32.5959129,59.7043032 C32.819981,59.7971526 33.0597932,59.8447879 33.3028931,59.8445039 C34.065866,59.8453641 34.7548551,59.3862461 35.0493291,58.6815064 L40.9082714,44.4850718 L41.389014,45.649455 L46.7700522,58.6826081 C46.9590448,59.1435357 47.3233669,59.5091098 47.7847383,59.6995946 C48.2426733,59.8914616 48.7584534,59.8914616 49.2177718,59.6990172 C50.1731707,59.3019553 50.6274216,58.2019182 50.2316017,57.242257 L43.931227,41.9923688 L45.0445821,42.4024242 C45.4915675,42.5670516 45.9235485,42.7721912 46.335604,43.0152482 L46.4585158,43.1159312 C46.4353367,43.0919399 46.4308897,43.0873371 46.4265334,43.0834888 C46.4257471,43.0828838 46.42743,43.0843871 46.4308771,43.0874663 L46.3678107,43.0387416 C47.7499889,43.9464741 49.0242903,45.0098419 50.1643759,46.2067006 C51.3393769,47.4333451 52.6506539,48.5206758 54.0622803,49.4406308 C55.205341,50.1501014 56.5201025,50.5315079 57.8587829,50.5431104 C58.0860988,50.5431104 58.3022781,50.5332159 58.5205078,50.51252 C58.9125832,50.4749693 59.252097,50.2215779 59.4025389,49.8517592 L61.0537194,45.8517218 L62.8871501,41.4175438 L64.2249504,38.1768947 C64.3633498,37.8410107 64.3265236,37.4574479 64.1254581,37.151799 C63.9377362,36.8635219 63.6201897,36.6878864 63.2727115,36.6821915 C62.0497749,36.6516617 60.8578339,36.2927997 59.811193,35.6367601 C58.4291043,34.7288406 57.1552381,33.6657894 56.0153635,32.4691524 C54.8398436,31.2416373 53.52755,30.1535616 52.1136822,29.232512 C50.8303499,28.4323281 49.3302955,28.0531937 47.8217154,28.1475264 L47.4246557,28.1723549 L47.2968335,27.7956132 C47.1237869,27.2855777 46.7400881,26.8750761 46.2417442,26.6677927 C45.7842498,26.4750133 45.2691817,26.4734993 44.8105324,26.6635426 C44.351352,26.8536878 43.9869164,27.2197548 43.7972339,27.6826452 L40.9078714,34.667923 L40.4277086,33.5046815 L38.0236847,27.6806976 C37.7338211,26.9779299 37.0512186,26.52 36.2945867,26.52 C35.5379439,26.52 34.8555686,26.977513 34.5683061,27.6728395 Z M47.0404993,37.4325167 L46.8870601,37.3786032 C46.7013432,37.3144701 46.5122926,37.258621 46.3127724,37.2090506 C46.2993313,37.2055114 46.2993313,37.2055114 46.2862186,37.2020639 C46.2510142,37.1928518 46.2510142,37.1928518 46.2186201,37.184693 C46.2044233,37.1812013 46.2044233,37.1812013 46.1923024,37.1783209 C45.97108,37.1270401 45.7566243,37.0876446 45.5287125,37.0575548 L45.4959671,37.0516876 C45.2549352,37.0208624 45.0115522,37.0030777 44.7664014,36.9982946 L44.0064328,36.9834668 L45.5646126,33.1964799 L45.8632124,33.1572762 L45.9278488,33.149432 C46.1914392,33.1280186 46.4562652,33.1220603 46.7020567,33.1312451 C46.7669283,33.1328564 46.7669283,33.1328564 46.8118075,33.1366424 C46.8218339,33.1375294 46.8218339,33.1375294 46.8305379,33.1383219 C46.8517714,33.1402332 46.8517714,33.1402332 46.8634202,33.1410301 C47.1024845,33.1558478 47.340994,33.1850735 47.5647358,33.226322 L47.6813436,33.2452644 C47.941828,33.2971412 48.1989151,33.3649021 48.4460795,33.4466778 C48.4913247,33.4612468 48.5278887,33.474345 48.5951798,33.4993186 C48.6042275,33.5026717 48.6042275,33.5026717 48.6061411,33.5034363 C48.8236554,33.5804023 49.044829,33.6714371 49.2757878,33.7781832 C49.2806753,33.7804065 49.2806753,33.7804065 49.2925325,33.7853562 C49.308337,33.7917774 49.308337,33.7917774 49.3317543,33.801231 L49.8160494,33.9980758 L49.6166334,34.4813179 L48.9834657,36.015664 L48.1907805,37.9374484 L47.6974581,37.7067606 C47.6942261,37.705294 47.6942261,37.705294 47.6695808,37.6956302 C47.6382365,37.6835048 47.6382365,37.6835048 47.5837615,37.6596682 C47.4075191,37.5763298 47.2272448,37.5011102 47.0404993,37.4325167 Z M52.6604053,30.261964 C53.5769553,30.9509913 54.4443982,31.7044717 55.2568645,32.5171087 L55.5022092,32.762505 L53.9097998,36.6187269 L53.3618576,36.1193014 L53.3105713,36.0724201 C53.2859701,36.049246 53.2859701,36.049246 53.2594736,36.0247005 C53.2413048,36.0079219 53.2413048,36.0079219 53.2223564,35.990433 C53.1981451,35.9680411 53.1981451,35.9680411 53.1737004,35.9451759 C52.9258845,35.7133548 52.6794025,35.4903723 52.4320579,35.2745312 C52.4073,35.2527527 52.4073,35.2527527 52.3829188,35.2312543 C52.3109173,35.1677412 52.2801419,35.1407478 52.2431228,35.1088775 C51.9608779,34.8665315 51.675698,34.6367687 51.3863256,34.4188162 C51.3588361,34.398049 51.3377511,34.3827422 51.2822794,34.3430346 C51.2781862,34.3401087 51.2781862,34.3401087 51.2740586,34.3371586 C51.2390102,34.3121064 51.2390102,34.3121064 51.201196,34.2847342 C51.1493503,34.246641 51.1493503,34.246641 51.1002057,34.2100206 C51.0896175,34.2021252 51.0896175,34.2021252 51.0791426,34.1943142 C50.9710054,34.1136894 50.9167406,34.074531 50.8552242,34.0339112 L50.4975564,33.7977408 L50.6610968,33.4015624 L51.4672592,31.4486249 L52.1234753,29.8583206 L52.6604053,30.261964 Z M55.5792331,38.9721005 C55.6034519,38.9930909 55.6039403,38.9935194 55.6277224,39.0143829 C55.6564353,39.039646 55.6564353,39.039646 55.683096,39.0630241 C55.7200942,39.0951844 55.7200942,39.0951844 55.7618961,39.1300854 C56.0409612,39.369803 56.3276404,39.6007524 56.6226603,39.8236741 C56.6512669,39.8453286 56.6735536,39.8614884 56.7322543,39.903432 C56.742418,39.9106865 56.742418,39.9106865 56.7527929,39.9180968 C56.777392,39.9356917 56.777392,39.9356917 56.8036451,39.9546551 C56.8639524,39.9988479 56.8639524,39.9988479 56.9207194,40.0411192 C56.9228715,40.0427218 56.9228715,40.0427218 56.9250189,40.0443211 C57.0388912,40.1291206 57.0903489,40.1663525 57.1526257,40.207775 L57.5086045,40.4445489 L57.3451219,40.8395885 L56.5364724,42.7936099 L55.8846659,44.3626039 L55.3515157,43.9748647 C55.3351221,43.9633203 55.3351221,43.9633203 55.3064398,43.9447535 C55.281557,43.9288447 55.281557,43.9288447 55.2284824,43.8932998 C55.1774252,43.855819 55.1303631,43.8194685 55.0590531,43.7631343 C55.0424145,43.7499817 55.0424145,43.7499817 55.0260902,43.737066 C55.0168281,43.72974 55.0168281,43.72974 55.0138108,43.7272796 C54.7785593,43.5470985 54.5476951,43.3602992 54.3217076,43.1672105 C54.3010963,43.1497377 54.3010963,43.1497377 54.279441,43.1314774 C54.2780719,43.1303231 54.2780719,43.1303231 54.2766989,43.1291654 C54.2030535,43.0670679 54.1671205,43.0361211 54.1307565,43.0027076 C53.8549805,42.7619803 53.5813607,42.5134399 53.3133594,42.2602406 C53.2599178,42.2103997 53.2599178,42.2103997 53.2077489,42.1609344 C53.1790439,42.1336167 53.1790439,42.1336167 53.1507481,42.1066021 C53.1282643,42.0851256 53.1282643,42.0851256 53.107552,42.0653436 C53.0406004,42.0019528 52.9839797,41.9477058 52.8621632,41.8305909 C52.8083301,41.7788697 52.8083301,41.7788697 52.7549052,41.7276977 L52.4981084,41.4820595 L54.0953881,37.6114368 L54.6442426,38.1215483 L54.6925395,38.1664711 C54.7337571,38.2051292 54.7337571,38.2051292 54.7790901,38.2466305 C54.8025105,38.2680303 54.8025105,38.2680303 54.8304706,38.293683 C55.0813032,38.5282827 55.3305618,38.7541733 55.5792051,38.9720699 Z M60.2717438,45.5237842 C60.2626394,45.5246988 60.2496728,45.5258962 60.229279,45.5277794 L60.2448007,45.5267032 C59.9855316,45.5485821 59.7254136,45.5549531 59.4835701,45.546123 C59.4350394,45.546123 59.3944574,45.5434926 59.3354779,45.5382605 C59.3102178,45.5361192 59.3102178,45.5361192 59.2917662,45.5348638 C59.0677185,45.5209124 58.8441872,45.4946125 58.6222007,45.4562208 C58.6118149,45.4544799 58.6118149,45.4544799 58.5989022,45.4524686 C58.591928,45.4514005 58.591928,45.4514005 58.5842482,45.4502387 C58.5451546,45.4443782 58.5451546,45.4443782 58.4863489,45.4339971 C58.2299453,45.3830969 57.9767761,45.3166482 57.7269809,45.2346955 C57.6784865,45.2182762 57.6784865,45.2182762 57.6358056,45.2028643 C57.6195122,45.1969301 57.6195122,45.1969301 57.6041014,45.1912897 C57.5818052,45.1831344 57.5818052,45.1831344 57.5628852,45.176303 C57.3477734,45.0999191 57.1275203,45.0090493 56.8812472,44.8951567 C56.8820689,44.8955364 56.8812065,44.895153 56.8682381,44.8893861 C56.861897,44.8865967 56.861897,44.8865967 56.8538746,44.883039 C56.8353254,44.8747212 56.8353254,44.8747212 56.8105166,44.8627787 L56.3748559,44.6474602 L57.9879906,40.7384824 L58.4835022,40.9754726 C58.4806412,40.974179 58.4806412,40.974179 58.4855524,40.9762075 C58.4934946,40.9793213 58.4934946,40.9793213 58.5082521,40.9849332 C58.5430774,40.9981307 58.5430774,40.9981307 58.5931867,41.0202833 C58.6253031,41.0350827 58.6551993,41.0475159 58.7233995,41.0748342 C58.7382733,41.0807912 58.7382733,41.0807912 58.7537303,41.0870002 C58.7936537,41.1031233 58.7936537,41.1031233 58.8370542,41.1213134 L58.8328295,41.119539 C59.046058,41.2079903 59.2555246,41.2846707 59.4619469,41.3495675 C59.5802847,41.386812 59.6593922,41.4104647 59.7386336,41.431595 C59.9524743,41.4895796 60.1734467,41.5371237 60.406675,41.576011 C60.4661081,41.5867031 60.4661081,41.5867031 60.5148079,41.5965321 C60.5224125,41.5980632 60.5224125,41.5980632 60.5297227,41.5995307 C60.5767901,41.6088143 60.5899402,41.6112207 60.6067692,41.6136372 C60.8712985,41.6504943 61.1393402,41.6717999 61.4097093,41.6776306 L62.1684418,41.6939931 L60.5900729,45.5237842 L60.2717438,45.5237842 Z M56.8812472,44.8951567 C56.8811917,44.8951311 56.8811362,44.8951054 56.8810808,44.8950798 C56.8811505,44.8951119 56.8812157,44.895142 56.8812724,44.8951682 Z M50.6740238,45.914 L52.2686533,42.0512041 L52.8173824,42.5605232 L52.8599513,42.6000385 L53.0021587,42.7311991 C53.244912,42.9579505 53.4922485,43.1817237 53.7444457,43.4028374 C53.7844164,43.4380664 53.7844164,43.4380664 53.8224517,43.4717014 C53.8778949,43.5205521 53.8995165,43.5393856 53.9326841,43.5674743 C54.2128905,43.8076619 54.4985378,44.0380158 54.7853041,44.2552627 C54.8282808,44.2868386 54.8282808,44.2868386 54.8752358,44.3205053 C54.8832523,44.3262434 54.8832523,44.3262434 54.8913764,44.3320565 C54.9327965,44.3617009 54.9327965,44.3617009 54.9759499,44.3930368 C55.0306348,44.4330992 55.0306348,44.4330992 55.082816,44.4717857 C55.0872606,44.4750815 55.0872606,44.4750815 55.0916887,44.4783649 C55.2063295,44.5633703 55.260168,44.6022595 55.3234383,44.6446463 L55.6770596,44.8815488 L54.0522963,48.8190464 L53.5153677,48.4154041 C52.5987998,47.7263634 51.7312948,46.9724667 50.9191044,46.1593577 L50.6740238,45.914 Z M50.4874261,39.6091645 L50.4151408,39.5466422 C50.1218618,39.2954036 49.8368008,39.065387 49.552699,38.8519157 C49.5218275,38.8284982 49.4987117,38.8117351 49.4371901,38.7678574 C49.4085974,38.7475263 49.4085974,38.7475263 49.3741426,38.7228854 C49.3286018,38.6894154 49.3286018,38.6894154 49.2846032,38.6567382 C49.2716046,38.6470745 49.2716046,38.6470745 49.2587326,38.637502 C49.1417981,38.5505486 49.0857974,38.5099823 49.0215011,38.4667837 L48.6686881,38.2297405 L50.2857664,34.3105043 L50.8202402,34.6992057 C50.832065,34.7075207 50.832065,34.7075207 50.8575889,34.7238996 C50.8863917,34.7421071 50.8863917,34.7421071 50.9432239,34.7801994 C51.0116425,34.8302289 51.0746294,34.8798767 51.1563313,34.94676 C51.3912946,35.1262501 51.6224755,35.3132873 51.8490014,35.5072107 C51.8812473,35.5345663 51.8812473,35.5345663 51.9149725,35.5629212 C51.9757793,35.6139744 51.9757793,35.6139744 52.0442598,35.6726203 C52.3158657,35.9114666 52.5858702,36.1571851 52.8522796,36.4079967 C52.9123313,36.4642872 52.9123313,36.4642872 52.9698804,36.5190539 C52.9840981,36.5325979 52.9840981,36.5325979 52.9981832,36.5460173 C53.0400491,36.5858794 53.0400491,36.5858794 53.0834002,36.6268197 C53.1907309,36.7291522 53.3024221,36.837066 53.4193353,36.9512836 L53.6707883,37.196939 L53.5365398,37.5218275 L52.996713,38.828237 L52.0744123,41.0584775 L51.5263517,40.5537818 L51.4678506,40.4999079 L51.3552181,40.3956599 C51.1042114,40.1568558 50.8517924,39.9267418 50.5968098,39.704502 L50.4874261,39.6091645 Z M48.9813324,39.1260645 C48.9873503,39.1301844 48.9873503,39.1301844 49.0025898,39.1399827 C49.0059463,39.1421241 49.0059463,39.1421241 49.0096339,39.1444741 C49.0452052,39.1670397 49.0452052,39.1670397 49.0971466,39.2038099 C49.1417989,39.2367395 49.1719725,39.2597108 49.2429197,39.3145137 C49.2846581,39.3469531 49.2846581,39.3469531 49.3252317,39.3785897 C49.3519787,39.3994195 49.3519787,39.3994195 49.3787674,39.4201848 C49.5726728,39.5706037 49.7666799,39.7275289 49.9623751,39.8921923 C50.009338,39.9319965 50.009338,39.9319965 50.0565857,39.9720277 C50.0802416,39.9920755 50.0802416,39.9920755 50.1039383,40.0121699 C50.1751507,40.0726086 50.1751507,40.0726086 50.2519752,40.138212 C50.5096972,40.3648697 50.7632067,40.5948514 51.0092214,40.8252404 C51.0577966,40.8693499 51.1034635,40.9125934 51.171239,40.9780138 C51.1894895,40.9956416 51.1894895,40.9956416 51.2074355,41.0129914 C51.2451773,41.0494576 51.2451773,41.0494576 51.2807519,41.0835239 C51.381109,41.1787727 51.4841199,41.2773127 51.5879702,41.3773818 L51.8428846,41.6230146 L50.2384114,45.5100698 L49.6879894,44.9726495 C48.9094235,44.2124744 48.0713772,43.5161465 47.1816445,42.8901219 L46.8415659,42.6508392 L48.4498886,38.753886 L48.9813324,39.1260645 Z M58.4545976,49.957842 C57.2550235,50.0690812 56.0490889,49.8400503 54.9742007,49.2965756 L54.5444985,49.0793137 L54.7281347,48.6342019 L55.3143651,47.2132552 L56.1606941,45.175668 L56.652802,45.4057884 C56.654142,45.4064239 56.654142,45.4064239 56.6750732,45.41457 C56.6768453,45.4152484 56.6768453,45.4152484 56.6787105,45.4159622 C56.7098513,45.427809 56.7098513,45.427809 56.7624776,45.4503279 C56.8017647,45.4683495 56.8374676,45.483123 56.9175676,45.5150266 C56.9190091,45.5156007 56.9190091,45.5156007 56.9204547,45.5161765 C56.9649122,45.5338802 56.9649122,45.5338802 57.0132554,45.5535757 C57.2325048,45.6439929 57.4346357,45.7177629 57.6311213,45.7778637 C57.7585122,45.8176945 57.8352113,45.8406166 57.9138758,45.8616283 C58.133104,45.920402 58.3512945,45.9672938 58.5787577,46.0049435 C58.6436554,46.0162336 58.6436554,46.0162336 58.6943744,46.0265225 C58.7017469,46.0280132 58.7017469,46.0280132 58.7087736,46.0294293 C58.7550498,46.0385444 58.7661312,46.0405332 58.7877302,46.0433623 C59.0533074,46.0805074 59.3203715,46.1018745 59.5875647,46.1073046 L60.3500939,46.1228013 L58.7663878,49.928929 L58.4545976,49.957842 Z M62.1371943,41.082556 L62.0718078,41.0901462 C61.8143647,41.1113403 61.5567504,41.1175187 61.3196672,41.1087451 C61.2765153,41.1087451 61.2445639,41.1069888 61.1886014,41.1025298 C61.1757577,41.1014502 61.1757577,41.1014502 61.164169,41.1004485 C61.1342004,41.0978804 61.1342004,41.0978804 61.1086849,41.0962329 C60.8928549,41.0817948 60.678876,41.0565284 60.4686725,41.0205827 C60.4510753,41.0177771 60.4510753,41.0177771 60.4240205,41.0139579 C60.3764875,41.0073394 60.3460282,41.0025814 60.3102224,40.9953391 C60.0579014,40.9447811 59.8086251,40.8790826 59.5619377,40.7980387 C59.5220458,40.7845583 59.5220458,40.7845583 59.4847249,40.7713318 C59.4575695,40.7615844 59.4575695,40.7615844 59.4318729,40.7522401 C59.4069231,40.7431501 59.4069231,40.7431501 59.3856335,40.7354245 C59.1711605,40.6589838 58.9579607,40.571417 58.7431865,40.4718545 C58.7330907,40.4673141 58.7330907,40.4673141 58.7156573,40.4597676 C58.7042789,40.454842 58.7042789,40.454842 58.690511,40.4487806 C58.669262,40.4392637 58.669262,40.4392637 58.6437701,40.4270678 L58.2049814,40.2124229 L58.3918011,39.7610844 L59.2430806,37.7044753 L59.8218639,36.3029087 L60.3184126,36.5431321 C61.2311975,36.9847251 62.2281612,37.2224673 63.2405979,37.2398422 L64.0032243,37.2529299 L62.4388617,41.0456408 L62.1371943,41.082556 Z M59.1452645,36.4785898 L59.1349272,36.505709 L57.7219481,39.9228383 L57.1894665,39.5433276 C57.1753499,39.5335438 57.1753499,39.5335438 57.1498246,39.5169938 C57.1295753,39.5039701 57.1295753,39.5039701 57.1043953,39.4874971 C57.0909337,39.4785563 57.0909337,39.4785563 57.0637801,39.4597018 C57.018701,39.4267186 56.9830952,39.3993479 56.9116531,39.3434797 C56.9094889,39.3417873 56.9094889,39.3417873 56.9073328,39.3401011 C56.8754338,39.3151576 56.8754338,39.3151576 56.8468019,39.292968 C56.6145617,39.1152526 56.3856365,38.9297997 56.1609972,38.7374447 C56.1304009,38.7115167 56.1304009,38.7115167 56.0984991,38.6846919 C56.0823164,38.6710936 56.0823164,38.6710936 56.0658266,38.6572274 C56.0154404,38.614767 56.0154404,38.614767 55.9614716,38.5683398 C55.6912284,38.3325543 55.4212346,38.0887899 55.1472026,37.8330149 C55.1233828,37.8103193 55.0113926,37.7021568 54.9809498,37.673293 C54.9459753,37.6403013 54.9459753,37.6403013 54.903076,37.6008463 C54.7648121,37.4690681 54.6941724,37.4018381 54.6266055,37.3382584 C54.6068528,37.3196866 54.6068528,37.3196866 54.587095,37.3011777 L54.3245573,37.0554778 L55.931011,33.1636249 L56.481407,33.7005221 C57.2610909,34.4610837 58.0993507,35.1577679 58.9881185,35.7837209 L59.309126,36.0098042 L59.1452645,36.4785898 Z M51.4480105,30.0380214 L50.8303015,31.5354295 L50.0215054,33.5006339 L49.528363,33.2713195 C49.5137546,33.2645265 49.503266,33.2602327 49.4588237,33.2427879 C49.4152997,33.2258543 49.4152997,33.2258543 49.3596847,33.2025228 L49.3605091,33.2028795 C49.208705,33.1373481 49.1516341,33.1130178 49.0754882,33.0819003 C49.0192641,33.058924 48.9675549,33.0386219 48.9159088,33.0193654 C48.8433531,32.9919929 48.7710389,32.9670582 48.6523882,32.927833 C48.518391,32.8833409 48.3797685,32.8422551 48.2319652,32.802921 C48.1609116,32.7838509 48.1609116,32.7838509 48.0942956,32.766479 C48.0472993,32.7544186 48.0070759,32.7447338 47.9663388,32.7358297 C47.8385239,32.7070679 47.705077,32.683014 47.5248593,32.6548653 C47.4687842,32.6461126 47.4687842,32.6461126 47.4186869,32.6376871 C47.3431061,32.6250278 47.3171762,32.6209744 47.2838221,32.6169524 C47.0548526,32.5892836 46.828255,32.5729023 46.6181167,32.568706 L45.8296244,32.568706 L47.4036126,28.7458178 L47.7165022,28.7166238 C48.9164483,28.6046637 50.1236948,28.8328961 51.2011128,29.3752497 L51.6319507,29.592126 L51.4480105,30.0380214 Z M44.3060647,27.8927512 L44.3056622,27.8937295 C44.5454324,27.3091706 45.1650313,26.9761402 45.7840699,27.1008577 C46.4022547,27.2255248 46.8453641,27.771356 46.8417824,28.3980703 C46.8423843,28.5811204 46.8033036,28.762025 46.7352145,28.9081617 L42.6309783,38.8417049 L41.2089145,35.4000564 L44.3060647,27.8927512 Z M38.3410314,41.4763713 L38.2821409,41.4797168 L38.3293569,41.4771142 C37.5056051,41.5598409 36.7030568,41.7834172 35.9565586,42.1383267 L35.4616773,42.3736093 L35.2526164,41.8670929 L34.9409278,41.1119283 L33.8501189,38.4685098 L34.2818674,38.2518929 C34.3224022,38.2324611 34.3224022,38.2324611 34.3503233,38.220536 C34.3714122,38.2116285 34.3714122,38.2116285 34.374282,38.210507 C34.5887124,38.1101977 34.8078908,38.0204797 35.03157,37.9405824 C35.0420628,37.9367773 35.0420628,37.9367773 35.052985,37.9327897 C35.0598121,37.9302931 35.0598121,37.9302931 35.0667956,37.9277354 C35.1311059,37.9041183 35.1659273,37.891693 35.2039745,37.8793372 C35.4499539,37.7975939 35.7006654,37.7312538 35.9578612,37.6799676 C36.0194191,37.6690922 36.0194191,37.6690922 36.06481,37.6626639 C36.0734819,37.6614273 36.0734819,37.6614273 36.081403,37.6602872 C36.0979591,37.6578616 36.0979591,37.6578616 36.1068131,37.6564737 C36.3231786,37.6189437 36.5408399,37.5933905 36.789468,37.5792432 C36.7939849,37.5792432 36.7959766,37.5791045 36.8344374,37.5757138 C36.8797203,37.5713984 36.9109128,37.5690198 36.9433042,37.5682171 C37.1998893,37.5591207 37.4585041,37.5652946 37.7316246,37.5878848 L38.0807342,37.626478 L39.6526857,41.4347746 L38.8785526,41.4375991 C38.7265477,41.4381537 38.5709578,41.4501633 38.3410314,41.4763713 Z M29.9644726,35.5071912 C30.1950061,35.3098162 30.4260241,35.122833 30.6565603,34.9471901 C30.6794858,34.9295481 30.6794858,34.9295481 30.7031753,34.9110566 C30.7467741,34.876776 30.7467741,34.876776 30.7929285,34.8402571 C30.8244362,34.8153856 30.8244362,34.8153856 30.8659551,34.7830866 C30.8999013,34.7577738 30.9266977,34.7399477 30.9716293,34.7115278 C30.9964777,34.6958988 30.9964777,34.6958988 31.0139521,34.6846398 L31.5395029,34.3407125 L33.1445848,38.2262743 L32.792816,38.463639 C32.7279697,38.5073957 32.6733538,38.5469471 32.5531189,38.6361079 C32.5484834,38.6395454 32.5484834,38.6395454 32.5438321,38.6429945 C32.4999723,38.6755084 32.4933196,38.6804401 32.4694124,38.6977128 L32.4694124,38.6992841 L32.2620973,38.8553048 C31.9790912,39.0682887 31.6937424,39.2986259 31.4030983,39.5475998 L31.2185337,39.7072284 C30.9598068,39.9315395 30.7058269,40.1615614 30.4522541,40.4012615 L30.3456091,40.4995646 L29.7401219,41.0606943 L29.4543604,40.3700822 L28.81632,38.8281019 L28.1410719,37.1939654 L28.3969168,36.9482195 C28.4627807,36.8848698 28.4627807,36.8848698 28.5288709,36.821074 C28.6282163,36.7250718 28.6282163,36.7250718 28.7415399,36.6161937 C28.7778386,36.583121 28.7778386,36.583121 28.8160153,36.5468192 C28.8456168,36.5183665 28.8456168,36.5183665 28.8770328,36.4879605 C28.9166362,36.449715 28.9166362,36.449715 28.9584418,36.4102149 C29.2289155,36.1552152 29.4996091,35.9089453 29.7714411,35.6706557 C29.8080469,35.6388358 29.836987,35.6143198 29.8985378,35.5626611 C29.9323511,35.5342971 29.9327262,35.5339825 29.9644592,35.5071993 Z M27.7683477,48.8195112 L26.1441952,44.8844797 L26.4946056,44.6469584 C26.5373143,44.6180088 26.5803834,44.5871146 26.6450065,44.539478 C26.6855104,44.5095572 26.6855104,44.5095572 26.7281421,44.478101 C26.7876017,44.4344948 26.7876017,44.4344948 26.8436379,44.3947195 C26.8853136,44.3644136 26.8853136,44.3644136 26.9249907,44.3359047 C26.934748,44.328896 26.934748,44.328896 26.944372,44.3219805 C26.9914625,44.2880853 26.9914625,44.2880853 27.031626,44.2585857 C27.3214525,44.0395842 27.6047595,43.8100479 27.8861458,43.5661143 C27.9168574,43.5401177 27.9384791,43.5212842 27.9939225,43.4724331 C28.0319574,43.4387985 28.0319574,43.4387985 28.0729181,43.4027019 C28.3236288,43.1835208 28.5707559,42.9600182 28.816511,42.7301368 L28.9551963,42.6019052 L29.5477203,42.0519366 L31.1422509,45.9144931 L30.8975225,46.1598364 C30.087746,46.9716475 29.2214784,47.7253242 28.3053451,48.4151597 L27.7683477,48.8195112 Z M24.260295,45.1736559 C24.2414243,45.1804057 24.241236,45.1804736 24.2219033,45.1874396 C24.163181,45.2087301 24.163181,45.2087301 24.0879197,45.2359111 C23.8408953,45.3165397 23.5904699,45.3823953 23.3393241,45.4327151 C23.302614,45.4402073 23.2724624,45.4449837 23.2249321,45.4517014 C23.2031486,45.4548087 23.2031486,45.4548087 23.1949688,45.4559564 C22.9750036,45.4944124 22.7527897,45.5205151 22.5369649,45.533657 C22.5235086,45.5346855 22.5235086,45.5346855 22.5092018,45.5358029 C22.4395873,45.5412988 22.4003867,45.5438706 22.3581787,45.5450097 C22.0968863,45.5550169 21.8356097,45.5489198 21.5600807,45.5249909 L21.216479,45.4846111 L19.6474615,41.6932661 L20.4074081,41.6768979 C20.678119,41.6710672 20.9461219,41.6497646 21.2061059,41.6135116 C21.2254441,41.6106551 21.2393329,41.6080813 21.287563,41.5985236 C21.2920392,41.5976259 21.2920392,41.5976259 21.2966239,41.5967055 C21.348897,41.5861824 21.348897,41.5861824 21.4110077,41.5752424 C21.6466847,41.5355271 21.8671257,41.4881816 22.0809711,41.4302881 C22.1580775,41.4097319 22.2371888,41.3860781 22.355676,41.3487864 C22.5612744,41.2841487 22.7702954,41.207569 22.9835113,41.1191237 C23.0329414,41.0988286 23.0329414,41.0988286 23.0778806,41.0809658 C23.0818511,41.0793891 23.0818511,41.0793891 23.0857831,41.0778281 C23.1595122,41.0485564 23.1906515,41.0357133 23.2284618,41.0183795 C23.2621709,41.0037561 23.2621709,41.0037561 23.2879185,40.9936802 C23.3013287,40.9885326 23.3013287,40.9885326 23.3116188,40.9846398 C23.3238911,40.9798353 23.3275736,40.978429 23.3276101,40.9785408 L23.8247345,40.7266551 L24.0390514,41.246325 L24.8060275,43.1060686 L25.4412208,44.6507384 L25.006519,44.8659277 C24.9968902,44.8706481 24.9968902,44.8706481 24.9881531,44.8747895 C24.9628553,44.886413 24.9628553,44.886413 24.9481815,44.8928784 C24.9369748,44.8980598 24.9369748,44.8980598 24.910215,44.9114028 C24.6932171,45.0095628 24.4765774,45.0969939 24.2603003,45.1736536 Z M25.189455,39.8278335 L25.1944686,39.8240188 C25.4766707,39.6119817 25.7617314,39.3819653 26.0531458,39.1323318 L26.2347889,38.9752553 C26.4880723,38.7523322 26.7395909,38.5245741 26.9891626,38.2922413 C27.0558111,38.2300847 27.0558111,38.2300847 27.1087708,38.1820715 C27.1284807,38.1630479 27.1284807,38.1630479 27.1440319,38.1486164 C27.1573441,38.1363374 27.1573441,38.1363374 27.1663736,38.1279363 L27.7158066,37.6125715 L29.3141947,41.4903603 L29.0573082,41.7358937 C29.0003355,41.7904297 29.0003355,41.7904297 28.9428076,41.8456748 C28.9386878,41.8496316 28.9386878,41.8496316 28.9345654,41.853591 C28.822804,41.9609412 28.7721102,42.0094529 28.7109685,42.0672929 L28.5004702,42.2680763 C28.2291726,42.5225281 27.9562583,42.7700376 27.6827318,43.0097754 C27.6410424,43.0460247 27.6410424,43.0460247 27.6024111,43.0788917 C27.5699405,43.1064669 27.5699405,43.1064669 27.5399653,43.1321612 C27.5193112,43.1500373 27.5193112,43.1500373 27.491348,43.174674 C27.2666574,43.366336 27.0363245,43.5525563 26.7982303,43.7353157 C26.7669878,43.7592309 26.7669878,43.7592309 26.73371,43.7851025 C26.7230959,43.7933687 26.7230959,43.7933687 26.7122771,43.801799 C26.6520883,43.8486793 26.6227713,43.8712264 26.5899715,43.8955275 C26.5553018,43.9218629 26.5262854,43.9412541 26.4825538,43.9689644 C26.4686683,43.9777833 26.4686683,43.9777833 26.4581715,43.9845384 C26.451684,43.9887699 26.451684,43.9887699 26.4468059,43.992048 L25.9191158,44.3498196 L25.6747196,43.7609835 L25.2753781,42.7988185 L24.3104091,40.4468294 L24.6597113,40.2097548 C24.7309396,40.1614115 24.7893513,40.1189981 24.9216599,40.0207628 C24.9225168,40.0201266 24.9225168,40.0201266 24.9233741,40.01949 C24.9665798,39.9874118 24.9665798,39.9874118 25.0266387,39.9435502 C25.103886,39.8909683 25.1474611,39.8601896 25.189455,39.8278335 Z M28.9484367,30.4197246 L28.9484367,28.0432554 L29.9494031,30.4788488 L30.3475271,31.4475838 L31.317442,33.7938466 L30.9652073,34.0312043 C30.9016694,34.0740201 30.844648,34.1151866 30.7330455,34.1978212 C30.7241597,34.2044013 30.7241597,34.2044013 30.7152154,34.2110253 C30.6661407,34.2473598 30.6661407,34.2473598 30.6146732,34.285102 C30.5777214,34.3118656 30.5777214,34.3118656 30.5427826,34.3368883 C30.5290958,34.3466885 30.5290958,34.3466885 30.5157418,34.3562635 C30.4703264,34.3889454 30.4703264,34.3889454 30.4291228,34.4195135 C30.1398908,34.6370064 29.8549895,34.8666161 29.5730244,35.1093844 C29.5352122,35.1417531 29.5051377,35.1680734 29.4333921,35.2313145 C29.4090621,35.2527627 29.4090621,35.2527627 29.3829656,35.2757134 C29.136971,35.4903723 28.8904891,35.7133548 28.643535,35.9443678 C28.6182284,35.9680411 28.6182284,35.9680411 28.5940171,35.990433 C28.5750688,36.0079219 28.5750688,36.0079219 28.5569,36.0247005 C28.5304035,36.049246 28.5304035,36.049246 28.4983108,36.0793843 L27.90651,36.618785 L26.3145914,32.7625558 L26.5597896,32.5171932 C27.3101185,31.7663617 28.1079465,31.0657751 28.9484367,30.4197246 Z M33.2078278,33.4984216 L33.2085059,33.4974588 C33.2229212,33.4922843 33.2229212,33.4922843 33.2382045,33.4867589 C33.2950053,33.4661608 33.3258235,33.4552587 33.3605141,33.4439357 C33.6148413,33.3597991 33.873307,33.2917212 34.133549,33.2402875 C34.1781135,33.2321133 34.1781135,33.2321133 34.2083233,33.2277222 C34.2120491,33.227183 34.2120491,33.227183 34.2154786,33.2266884 C34.2329418,33.2241457 34.2329418,33.2241457 34.2367719,33.2235374 C34.4711449,33.180814 34.7077051,33.1516173 34.9796477,33.1349073 C34.9806735,33.1349073 34.980021,33.1349507 35.0117495,33.1323148 C35.0448743,33.1293401 35.0448743,33.1293401 35.0965642,33.1264599 C35.3603923,33.1168911 35.6241571,33.1229652 35.8424054,33.1429638 C35.8948154,33.1407838 35.9707137,33.1475651 36.0550839,33.1773102 L36.2744153,33.2546367 L37.8111819,36.9853825 L37.0503872,36.9997655 C36.8276133,37.0039771 36.5970759,37.0207964 36.352589,37.0497009 C36.3290589,37.0524936 36.311896,37.0552251 36.2547371,37.0650892 C36.2520555,37.0655567 36.2520555,37.0655567 36.2493411,37.0660301 C36.2131349,37.0723484 36.2131349,37.0723484 36.1659105,37.0800122 C35.9816557,37.107124 35.8193571,37.1362589 35.6713569,37.169484 C35.6218353,37.1809847 35.579392,37.1917947 35.4861964,37.2162567 C35.4612315,37.2228103 35.4612315,37.2228103 35.4347116,37.2297409 C35.2849522,37.2684887 35.13414,37.3132928 34.9790357,37.3651607 C34.896627,37.3921407 34.8182072,37.4194889 34.7408245,37.4483565 C34.601276,37.5000114 34.4539626,37.5611355 34.2786361,37.6392745 C34.2233332,37.66252 34.2233332,37.66252 34.1828671,37.6779766 C34.1771945,37.68015 34.1771945,37.68015 34.1719107,37.6821789 C34.1391977,37.6949631 34.1342248,37.697016 34.1257498,37.7010735 L33.6301135,37.9383666 L33.4205136,37.4303988 L32.8350895,36.0116158 L32.0147475,34.0225471 L32.4582399,33.8100021 C32.489919,33.7952621 32.489919,33.7952621 32.5116873,33.785765 C32.528299,33.7784936 32.528299,33.7784936 32.535502,33.775168 C32.7596349,33.6696093 32.9836053,33.5773473 33.2078278,33.4984216 Z M33.693405,29.732209 C33.7967941,29.7358525 33.9002457,29.7424842 34.0036353,29.7521277 L37.5655328,30.0843581 L33.0983192,28.2912858 L33.693405,29.732209 Z M34.052072,29.2328293 L34.0519279,29.234375 L33.8582287,29.7169521 L33.8564038,29.7162196 L34.050103,29.2336425 L34.052072,29.2328293 Z M34.052072,29.2328293 L34.5307281,29.0351495 L35.9814058,32.5477777 L35.2225207,32.5645507 C34.9917772,32.5696507 34.7603765,32.5863032 34.5285081,32.6145235 C34.4986578,32.6183748 34.4986578,32.6183748 34.46173,32.6242033 C34.4403631,32.6277066 34.4403631,32.6277066 34.4169176,32.6316409 C34.3724595,32.6391027 34.3724595,32.6391027 34.3245248,32.6465062 C34.1396594,32.6749839 33.9873443,32.7024394 33.8504424,32.7327024 C33.7753369,32.750236 33.6961953,32.770517 33.5949328,32.7979588 C33.450098,32.8353105 33.3054881,32.8780539 33.1635908,32.9253991 C33.082769,32.9526997 33.082769,32.9526997 33.00653,32.9790652 C32.9570539,32.9965783 32.9570539,32.9965783 32.9073346,33.0150828 C32.7718604,33.0654769 32.6278455,33.1253311 32.4599412,33.2001254 C32.3999457,33.2257072 32.3999457,33.2257072 32.3560758,33.2425673 C32.3521634,33.244076 32.3521634,33.244076 32.3484212,33.2455204 C32.3129368,33.2593954 32.3067019,33.2619573 32.2969187,33.2665844 L31.8026316,33.5003616 L31.5939526,32.9949662 L30.9926671,31.5387207 L30.1831334,29.5927751 L30.6152608,29.3752497 C31.6927071,28.8328818 32.8999515,28.6046691 34.1002204,28.7166223 L34.052072,29.2328293 Z M25.8791583,33.1628924 L27.4839662,37.0507583 L27.2273292,37.2964179 C27.1292143,37.3903361 27.0276873,37.4883486 26.8862805,37.6251757 C26.8528182,37.6560189 26.8528182,37.6560189 26.8181,37.6891023 C26.7812592,37.7245841 26.7812592,37.7245841 26.742162,37.7625084 C26.7045415,37.7988791 26.7045415,37.7988791 26.6629387,37.8383159 C26.3585913,38.1227056 26.1014007,38.3556562 25.8519097,38.5708696 C25.7976169,38.6175563 25.7976169,38.6175563 25.7466372,38.6603917 C25.7383218,38.6673707 25.7383218,38.6673707 25.73011,38.6742613 C25.6898306,38.7080784 25.6898306,38.7080784 25.6514861,38.7407451 C25.4287215,38.9310073 25.2006402,39.1155364 24.9688964,39.2932696 C24.9381091,39.317093 24.9381091,39.317093 24.9056656,39.3423499 C24.8313722,39.4001183 24.7950197,39.4278965 24.7480989,39.4620492 C24.7174923,39.4843082 24.6928516,39.5007507 24.6511265,39.5276344 C24.6283048,39.54233 24.6283048,39.54233 24.6113117,39.5535464 L24.083405,39.9066937 L23.8414071,39.3194668 L22.6826948,36.5077606 L22.4823341,36.0217458 L22.8221649,35.7825418 C23.7105205,35.1572361 24.5487855,34.4606369 25.3287623,33.6997896 L25.8791583,33.1628924 Z M21.9972758,36.3019763 L23.6110676,40.2125461 L23.1760816,40.4280917 C23.1360321,40.4471782 23.1360321,40.4471782 23.1089733,40.4590042 C23.0887485,40.4678801 23.0887485,40.4678801 23.0814467,40.4713057 L23.0749589,40.4743881 C22.8569128,40.5761441 22.6390241,40.6640003 22.4338709,40.7329158 C22.4112348,40.7410459 22.4112348,40.7410459 22.3861378,40.7502261 C22.3698161,40.7562025 22.3698161,40.7562025 22.3525024,40.76251 C22.3051332,40.7796035 22.3051332,40.7796035 22.2522934,40.7972806 C22.0061819,40.8778708 21.7564837,40.94377 21.4951293,40.9962971 C21.4468548,41.0045056 21.4468548,41.0045056 21.4109251,41.009721 C21.381332,41.0140745 21.381332,41.0140745 21.357328,41.0182383 C21.136318,41.0558671 20.9143871,41.08172 20.6594772,41.0966602 C20.6554182,41.0966602 20.6536189,41.0967749 20.6165927,41.0997291 C20.574845,41.1032573 20.574845,41.1032573 20.5190678,41.1058315 C20.257983,41.1154163 19.9976125,41.109338 19.7824861,41.0893359 C19.7642443,41.0894694 19.7642443,41.0894694 19.7189251,41.0871416 C19.6604372,41.0811873 19.6604372,41.0811873 19.5826265,41.0611736 L19.3518595,40.9894989 L17.7725829,37.2503591 L18.5451197,37.2398141 C19.5695555,37.2258306 20.5782645,36.9877073 21.5007209,36.5419343 L21.9972758,36.3019763 Z M23.3636095,49.4571521 L22.9243216,49.6383156 L21.4761535,46.1267773 L22.236108,46.1113329 C22.5033006,46.1059028 22.7703648,46.0845358 23.0416865,46.0466199 C23.0587494,46.044427 23.070297,46.0423788 23.117393,46.0332143 C23.1245188,46.031796 23.1245188,46.031796 23.1319833,46.0303054 C23.1831846,46.0200469 23.1831846,46.0200469 23.24309,46.0096907 C23.4800888,45.9697526 23.6995469,45.922534 23.9068902,45.865653 C23.9935913,45.8424115 24.0851996,45.815175 24.1886231,45.7820938 C24.3820358,45.7213447 24.5850246,45.6473229 24.8073423,45.5578189 C24.8553622,45.5381762 24.8553622,45.5381762 24.8997165,45.5204466 C24.9233156,45.5110137 24.9233156,45.5110137 24.9457871,45.5019734 C24.9931638,45.4828511 25.0269105,45.4685764 25.0620658,45.4524722 C25.1040892,45.434578 25.1040892,45.434578 25.1327141,45.4238497 C25.1414474,45.4206054 25.1414474,45.4206054 25.1483312,45.4180594 C25.152809,45.4162942 25.1556,45.4152044 25.1570995,45.4146497 L25.6491172,45.1542321 L25.8680787,45.6813948 L26.5064542,47.2183249 L27.2767594,49.0842882 L26.8455196,49.3011246 C25.7617641,49.8460597 24.5464283,50.073635 23.3396184,49.9576796 L23.3636095,49.4571521 Z M31.2451092,44.7071434 L29.973338,41.6312531 L30.2283757,41.385465 C30.3371937,41.2805936 30.4389521,41.1833434 30.5335237,41.0939335 C30.6424199,40.9892158 30.7214011,40.91393 30.8017146,40.838647 C31.0563626,40.600258 31.3096147,40.3703421 31.5691078,40.1421767 C31.6410735,40.0806084 31.6410735,40.0806084 31.7124352,40.0200434 C31.7361112,39.9999665 31.7361112,39.9999665 31.7596803,39.9799856 C31.8066668,39.9401419 31.8066668,39.9401419 31.8524773,39.9011775 C32.0486368,39.7335612 32.2448779,39.5749243 32.4381195,39.4278436 C32.464551,39.4073605 32.464551,39.4073605 32.4914352,39.3864473 C32.5321954,39.354714 32.5321954,39.354714 32.574044,39.3222544 C32.6450586,39.2675111 32.6749745,39.2447703 32.7169604,39.21382 C32.7705329,39.1757302 32.7705329,39.1757302 32.8058784,39.1531783 C32.8117029,39.1494478 32.8117029,39.1494478 32.8167151,39.1462278 C32.8293108,39.1380572 32.8293108,39.1380572 32.8350411,39.1341212 L33.3666137,38.7618524 L33.6140507,39.3617928 L34.132921,40.6198558 L34.9749982,42.6587098 L34.6344663,42.897997 C33.7454117,43.5227239 32.9072602,44.2179757 32.1279492,44.977102 L31.2451092,45.8370756 L31.2451092,44.7071434 Z M34.5380596,58.462331 L34.5385265,58.4611962 C34.2616931,59.1363337 33.4907631,59.4590482 32.8166447,59.181086 C32.1433637,58.9031131 31.8223903,58.1313238 32.099475,57.4555786 L38.4843379,42.00486 L38.8233402,41.9969859 C39.0802891,41.9910176 39.3371915,42.0001744 39.5932123,42.0244328 L39.9053011,42.0540038 L40.6081511,43.7576253 L34.5380596,58.462331 Z M49.7164621,58.4655106 C49.5840012,58.7908215 49.3267599,59.0494294 49.003626,59.1825122 C48.3312272,59.4617234 47.5607261,59.1414188 47.2823449,58.4678637 L41.1640901,43.6499441 L39.6301135,39.9283543 L39.4469399,39.4835422 C39.4408684,39.4684176 39.4408684,39.4684176 39.4376409,39.4601772 C39.4353265,39.4546032 39.4353265,39.4546032 39.428465,39.4391487 L38.5284501,37.259018 L37.8964277,35.727358 L35.0721863,28.8904972 C34.8195464,28.2235293 35.1410145,27.4758647 35.7987729,27.20267 C36.457835,26.9283283 37.214698,27.2302168 37.5117128,27.895912 L40.6521123,35.501985 L42.366695,39.6518936 L42.379168,39.680647 L49.7119245,57.4477487 C49.8509155,57.7745902 49.8518767,58.144512 49.714154,58.4718186 L48.7148562,58.2701416 L48.7148562,58.2694092 L49.2348562,58.2694092 L49.7164621,58.4655106 Z M42.9316677,39.5703701 L43.7400243,37.6240363 L44.0442005,37.5895175 L44.1226047,37.5809053 C44.3709183,37.5610037 44.6200907,37.5554232 44.8506314,37.5638623 C44.9104057,37.5638623 44.9522128,37.5665266 45.0381966,37.5738574 C45.0422283,37.5742011 45.0422283,37.5742011 45.0461646,37.574536 C45.0695192,37.5765045 45.0695192,37.5765045 45.087091,37.5778346 C45.2818812,37.590839 45.4778069,37.6140507 45.6719206,37.6464641 C45.6990216,37.6506253 45.6990216,37.6506253 45.7313958,37.6552587 C45.7992842,37.6649015 45.8380975,37.6709884 45.8888346,37.6810677 C46.1229873,37.7291723 46.3545115,37.7904665 46.5795397,37.8636485 C46.6571024,37.8882825 46.7201268,37.9108582 46.8392588,37.9552901 C47.0233843,38.0224031 47.2061473,38.0977262 47.38912,38.1818605 C47.408268,38.1905254 47.408268,38.1905254 47.4327415,38.2012709 C47.4392857,38.2041424 47.4392857,38.2041424 47.446169,38.2071686 C47.4831426,38.2234982 47.4831426,38.2234982 47.5281254,38.2447176 L47.9678391,38.4578512 L47.7824286,38.9099541 C47.4839258,39.6378205 47.2008835,40.3248188 46.927639,40.9843651 L46.3650603,42.3695639 L45.8676856,42.1338373 C45.2774039,41.8540782 44.6521481,41.6560047 44.0089422,41.5450204 L43.7261061,41.4962175 L42.9316677,39.5703701 Z"/></g><g id="Week-1" stroke="#D6A758" stroke-width="5"><use fill="#FFF" fill-opacity="1" stroke-opacity="1" filter="url(#filter-28)" xlink:href="#text-27"/><use fill="#FFF" fill-opacity="1" stroke-opacity="1" xlink:href="#text-27"/><use xlink:href="#text-27"/></g><g id="Week-2" stroke="#D6A758" stroke-width="5"><use fill="#FFF" fill-opacity="1" stroke-opacity="1" filter="url(#filter-30)" xlink:href="#text-29"/><use fill="#FFF" fill-opacity="1" stroke-opacity="1" xlink:href="#text-29"/><use xlink:href="#text-29"/></g><g id="Week-3" stroke="#D6A758" stroke-width="5"><use fill="#FFF" fill-opacity="1" stroke-opacity="1" filter="url(#filter-32)" xlink:href="#text-31"/><use fill="#FFF" fill-opacity="1" stroke-opacity="1" xlink:href="#text-31"/><use xlink:href="#text-31"/></g><g id="Week-4" stroke="#D6A758" stroke-width="5"><use fill="#FFF" fill-opacity="1" stroke-opacity="1" filter="url(#filter-34)" xlink:href="#text-33"/><use fill="#FFF" fill-opacity="1" stroke-opacity="1" xlink:href="#text-33"/><use xlink:href="#text-33"/></g></g></g></g></svg>