<svg xmlns="http://www.w3.org/2000/svg" xmlns:xlink="http://www.w3.org/1999/xlink" id="Layer_1" data-name="Layer 1" viewBox="0 0 1920 1080"><defs><linearGradient id="linear-gradient" x1="-1590.88" x2="-1590.88" y1="-469" y2="-468" gradientTransform="matrix(1934, 0, 0, -650, 3077722.39, -304489.52)" gradientUnits="userSpaceOnUse"><stop offset="0" stop-color="#84f3fb"/><stop offset="1" stop-color="#105bf8"/></linearGradient><linearGradient id="linear-gradient-2" x1="-1590.88" x2="-1590.88" y1="-468.57" y2="-466.63" gradientTransform="matrix(1921.78, 0, 0, -805.57, 3058267.58, -376381.48)" gradientUnits="userSpaceOnUse"><stop offset="0" stop-color="#00cbfe"/><stop offset="1" stop-color="#057a97"/></linearGradient><pattern id="pattern-27" width="160.74" height="160.74" data-name="pattern-27" patternTransform="matrix(1, 0, 0, -1, 1778.87, 2028.98)" patternUnits="userSpaceOnUse" viewBox="0 0 160.74 160.74"><rect width="160.74" height="160.74" style="fill:none"/></pattern><linearGradient id="linear-gradient-3" x1="-1588.56" x2="-1587.79" y1="-493.85" y2="-493.84" gradientTransform="matrix(430.37, 0, 0, -53.12, 684677.08, -25156.31)" gradientUnits="userSpaceOnUse"><stop offset="0" stop-color="#057a97"/><stop offset="1" stop-color="#00aed9"/></linearGradient><mask id="mask" width="569" height="702" x="1564" y="402" maskUnits="userSpaceOnUse"><g id="mask-31"><rect id="path-30" width="356" height="678" x="1564" y="402" style="fill:#fff"/></g></mask><mask id="mask-2" width="92.18" height="175.28" x="1763.38" y="533.31" maskUnits="userSpaceOnUse"><g id="mask-33"><polygon id="path-32" points="1764.73 533.31 1855.56 533.31 1855.56 703.41 1764.73 703.41 1764.73 533.31" style="fill:#fff;fill-rule:evenodd"/></g></mask><mask id="mask-3" width="159.73" height="44.47" x="1773.05" y="647.87" maskUnits="userSpaceOnUse"><g id="mask-35"><polygon id="path-34" points="1776.46 647.87 1932.78 647.87 1932.78 690.53 1776.46 690.53 1776.46 647.87" style="fill:#fff;fill-rule:evenodd"/></g></mask><mask id="mask-4" width="253.28" height="126.25" x="1589.76" y="1047.23" maskUnits="userSpaceOnUse"><g id="mask-37"><polygon id="path-36" points="1639.03 1061.88 1843.04 1061.88 1843.04 1078.25 1639.03 1078.25 1639.03 1061.88" style="fill:#fff;fill-rule:evenodd"/></g></mask><clipPath id="clip-path"><path d="M1781.3,1066.16h-87.23a4.31,4.31,0,0,1,0-8.57h87.23a4.31,4.31,0,0,1,0,8.57" style="fill:none;clip-rule:evenodd"/></clipPath><mask id="mask-5" width="121.31" height="31.65" x="1880.26" y="952.48" maskUnits="userSpaceOnUse"><g id="mask-44"><path id="path-43" d="M1880.69,953.8c21.14-1,42.07,2.34,62.32,8.36h0c19.83,5.9,38.41,14.63,57.7,21.93h0c.68.26,1.22-.83.56-1.17h0c-36.55-18.36-79.31-33.1-120.65-30h0a.32.32,0,0,0-.14,0h0c-.36.18-.26.9.21.88" style="fill:#fff;fill-rule:evenodd"/></g></mask><mask id="mask-6" width="82.25" height="10.15" x="1916.01" y="995.19" maskUnits="userSpaceOnUse"><g id="mask-46"><path id="path-45" d="M1916.76,1005.33a337.26,337.26,0,0,1,39-6.34h0c14-1.42,28-1.13,42-2h0a.53.53,0,0,0,.06-1h0c-26.66-2.73-55.46,2.12-81.29,8.09h0a.44.44,0,0,0-.16.06h0a.65.65,0,0,0,.42,1.21" style="fill:#fff;fill-rule:evenodd"/></g></mask><mask id="mask-7" width="104.4" height="91.39" x="1672" y="982.78" maskUnits="userSpaceOnUse"><g id="mask-48"><path id="path-47" d="M1672.25,983.75c21.32,9.59,40.22,23.45,57.12,39.57h0c16.55,15.79,30.45,33.74,45.77,50.64h0c.54.59,1.62-.21,1.13-.88h0c-26.75-36.48-61.43-72.51-103.63-90.27h0a.51.51,0,0,0-.17,0h0c-.43,0-.69.75-.22,1" style="fill:#fff;fill-rule:evenodd"/></g></mask><mask id="mask-8" width="85.07" height="33.65" x="1681.49" y="1052.33" maskUnits="userSpaceOnUse"><g id="mask-50"><path id="path-49" d="M1682,1053.72a372.65,372.65,0,0,1,41.46,13.22h0c14.47,5.59,28,12.82,42.24,19h0a.58.58,0,0,0,.58-1h0c-24.82-15.93-55.54-25.54-83.9-32.57h0l-.19,0h0a.71.71,0,0,0-.19,1.39" style="fill:#fff;fill-rule:evenodd"/></g></mask><mask id="mask-9" width="43.16" height="97.54" x="1749.37" y="984.99" maskUnits="userSpaceOnUse"><g id="mask-52"><path id="path-51" d="M1749.5,986.27c18.88,30.13,31,62.23,42,95.88h0a.54.54,0,0,0,1-.29h0c-6.82-34.22-22.9-67.24-41.51-96.47h0a.83.83,0,0,0-.71-.4h0a.85.85,0,0,0-.79,1.28" style="fill:#fff;fill-rule:evenodd"/></g></mask><mask id="mask-10" width="11.27" height="157.55" x="1792.17" y="911.34" maskUnits="userSpaceOnUse"><g id="mask-54"><path id="path-53" d="M1797.57,912.39c8,52.46-1,103.45-5.4,155.65h0a.84.84,0,0,0,1.65.23h0c9.15-50.88,13.45-105.07,5.32-156.33h0a.66.66,0,0,0-.67-.6h0a.92.92,0,0,0-.9,1" style="fill:#fff;fill-rule:evenodd"/></g></mask><mask id="mask-11" width="76.21" height="100.07" x="1797.23" y="982.05" maskUnits="userSpaceOnUse"><g id="mask-56"><path id="path-55" d="M1872.5,982.15c-32.5,25.05-61.69,60-75.24,99.17h0a.64.64,0,0,0,1.16.49h0c9-18.51,18.11-36.44,30.52-53h0a254.24,254.24,0,0,1,44.31-45.69h0c.44-.36,0-1.08-.45-1.08h0a.49.49,0,0,0-.3.1" style="fill:#fff;fill-rule:evenodd"/></g></mask><mask id="mask-12" width="91.98" height="72.5" x="1793.84" y="1016.37" maskUnits="userSpaceOnUse"><g id="mask-58"><path id="path-57" d="M1884.2,1016.5c-32.81,17.35-71.53,37.14-90.24,71.08h0a.88.88,0,0,0,1.52.89h0c11.52-15.79,24.06-29.23,40-40.69h0c15.69-11.28,32.78-20.39,49.81-29.42h0c1-.55.41-2-.57-2h0a1.1,1.1,0,0,0-.51.13" style="fill:#fff;fill-rule:evenodd"/></g></mask><mask id="mask-13" width="151.6" height="44.57" x="1882.44" y="537.64" maskUnits="userSpaceOnUse"><g id="mask-60"><path id="path-59" d="M1883.27,539.26c52.84,4.94,100.14,26,149.72,42.9h0a.84.84,0,0,0,.62-1.54h0c-47.15-21.19-98.69-38.47-150.4-43h0a.64.64,0,0,0-.74.5h0a.9.9,0,0,0,.8,1.12" style="fill:#fff;fill-rule:evenodd"/></g></mask><mask id="mask-14" width="186.14" height="99.92" x="1893.53" y="630.44" maskUnits="userSpaceOnUse"><g id="mask-62"><path id="path-61" d="M1895.05,646.69c.82-.17,82.69-16.25,182.07,82.26h0l1.14-1.16C2026,676,1979,656.3,1948.67,648.87h0c-32.9-8.08-53.75-3.81-54-3.76h0Z" style="fill:#fff;fill-rule:evenodd"/></g></mask><clipPath id="clip-path-2"><path d="M1895.05,646.69c.82-.17,82.69-16.25,182.07,82.26h0l1.14-1.16C2026,676,1979,656.3,1948.67,648.87h0c-32.9-8.08-53.75-3.81-54-3.76h0Z" style="fill:none;clip-rule:evenodd"/></clipPath><mask id="mask-15" width="41.51" height="22.99" x="1861.75" y="634.41" maskUnits="userSpaceOnUse"><g id="mask-65"><path id="path-64" d="M1901.34,644.63s-15.7-10.22-37.42,8h0c20.4,4.8,24.92-.85,37.42-8" style="fill:#fff;fill-rule:evenodd"/></g></mask><clipPath id="clip-path-3"><path d="M1901.34,644.63s-15.7-10.22-37.42,8h0c20.4,4.8,24.92-.85,37.42-8" style="fill:none;clip-rule:evenodd"/></clipPath><mask id="mask-16" width="38.43" height="18.73" x="1880.05" y="626.7" maskUnits="userSpaceOnUse"><g id="mask-68"><path id="path-67" d="M1882.11,629c13.92,15.84,20.73,13.82,34.83,15.24h0S1909.86,626.7,1882.11,629Z" style="fill:#fff;fill-rule:evenodd"/></g></mask><clipPath id="clip-path-4"><path d="M1882.11,629c13.92,15.84,20.73,13.82,34.83,15.24h0S1909.86,626.7,1882.11,629Z" style="fill:none;clip-rule:evenodd"/></clipPath><mask id="mask-17" width="36.15" height="21.61" x="1883.12" y="642.64" maskUnits="userSpaceOnUse"><g id="mask-71"><path id="path-70" d="M1884.55,662.9c13.72-3.1,20.62-1.94,32.74-19.18h0c-14.64.57-23,6-27.56,10.88h0a22.85,22.85,0,0,0-5.18,8.3" style="fill:#fff;fill-rule:evenodd"/></g></mask><clipPath id="clip-path-5"><path d="M1884.55,662.9c13.72-3.1,20.62-1.94,32.74-19.18h0c-14.64.57-23,6-27.56,10.88h0a22.85,22.85,0,0,0-5.18,8.3" style="fill:none;clip-rule:evenodd"/></clipPath><mask id="mask-18" width="31.73" height="28.24" x="1904.28" y="620.1" maskUnits="userSpaceOnUse"><g id="mask-74"><path id="path-73" d="M1934.86,646.74S1933.14,628,1906,621.55h0c8.73,19.22,15.79,19.45,28.82,25.19" style="fill:#fff;fill-rule:evenodd"/></g></mask><clipPath id="clip-path-6"><path d="M1934.86,646.74S1933.14,628,1906,621.55h0c8.73,19.22,15.79,19.45,28.82,25.19" style="fill:none;clip-rule:evenodd"/></clipPath><mask id="mask-19" width="35.79" height="27.7" x="1900.1" y="644.77" maskUnits="userSpaceOnUse"><g id="mask-77"><path id="path-76" d="M1901.32,671c14.48-4.88,22.16-4.24,32.81-25h0c-13.11,1.74-21,6.79-25.8,11.9h0a26.82,26.82,0,0,0-7,13.09" style="fill:#fff;fill-rule:evenodd"/></g></mask><clipPath id="clip-path-7"><path d="M1901.32,671c14.48-4.88,22.16-4.24,32.81-25h0c-13.11,1.74-21,6.79-25.8,11.9h0a26.82,26.82,0,0,0-7,13.09" style="fill:none;clip-rule:evenodd"/></clipPath></defs><title>week__bg--3-1</title><g id="Path"><path d="M1908.58,477a138.21,138.21,0,0,1-37.45-5.5c-72.92-20.27-98-17.23-156.62-2.54a1,1,0,0,1-1.21-.73A1,1,0,0,1,1714,467c59-14.78,84.26-17.85,157.64,2.56,33.2,9.23,53.9,4.71,72.17.72,12.19-2.67,23.71-5.18,37.29-3.3a1,1,0,1,1-.27,2c-13.24-1.83-24.58.65-36.59,3.27C1933.78,474.53,1922.51,477,1908.58,477Z" style="fill:#163150"/></g><g id="summmer"><polygon id="Rectangle" points="-11 -289 1923 -289 1923 361 -11 315 -11 -289" style="fill-rule:evenodd;fill:url(#linear-gradient)"/><g id="cloud"><g id="Combined-Shape"><path d="M1274.41,238.5h316.41l1.35-.13a28.5,28.5,0,0,0,11-53.29l-1-.54.23-1.09a63.51,63.51,0,0,0-112.13-52.52l-.45.58h-.72a32.5,32.5,0,0,0-31.94,27.85l-.42,2.88-2.1-2a42.52,42.52,0,0,0-59.83,1.19l-1.14,1.18-1.07-1.24A42.51,42.51,0,0,0,1318.1,184l-.08.76-.67.37a28.5,28.5,0,0,0-9.08,8.09l-.85,1.15-1.19-.78a19,19,0,0,0-29.41,15.89V210l0,1.54h-1.54a13.5,13.5,0,0,0-1.81,26.88Z" style="fill:#fff;fill-rule:evenodd"/><path d="M1590.82,240H1274.31l-1-.13a15,15,0,0,1,2-29.87h0v-.5a20.5,20.5,0,0,1,31.73-17.15h0a30.45,30.45,0,0,1,9.56-8.51h0a44,44,0,0,1,77.12-23.47,44,44,0,0,1,61.93-1.23A34.19,34.19,0,0,1,1489.08,130h0a65,65,0,0,1,114.78,53.75h0a30,30,0,0,1-11.54,56.1h0V240Zm-316.31-3h316.17l1.34-.13a27,27,0,0,0,10.38-50.49l-1.94-1.08.47-2.18A62.06,62.06,0,0,0,1540.32,108a61.66,61.66,0,0,0-48.88,23.85l-.89,1.14h-1.45a31.17,31.17,0,0,0-30.47,26.56l-.82,5.76-4.22-4a41,41,0,0,0-57.71,1.15l-2.29,2.36-2.14-2.5a41,41,0,0,0-71.86,21.87l-.17,1.52-1.33.75a27.24,27.24,0,0,0-8.61,7.66l-1.69,2.31-2.38-1.57a17.5,17.5,0,0,0-27.09,14.64v.43l.08,3.07h-3.08a12,12,0,0,0-1.61,23.89Z" style="fill:#2a455f"/></g><path d="M1362.77,238.41q-9.4-.07-21.21-.22h-69.81s-14-5.05-11.43-13.19q2.57-8.15,13-11.72l4.25-3.28,1.58-9L1292,191q13.07.72,15.68,5.4c-10,23.92,20.73,41.21,69.32,40.52,26.44-3.13,49.4-8.1,65.29-17.74,19-11.5,25.58-34.88,15.69-53.79-1.08-9.54,1.21-18.39,11.31-26.82q10.1-8.43,21.32-6.18-10.73,29.54,5.52,53.59c12.37,18.32,59.81,49,104.07-.28,5.65,1.26,16.65,10.9,16.66,24.3,0,3.25,1,11.06-5.48,19.12q-2,2.46-15.64,9.43-267.45,3-234.45,0Z" style="fill:#d3e6f2;fill-rule:evenodd;opacity:.284853994846344;isolation:isolate"/></g><g id="Group-3-Copy"><g id="Group-8"><g id="Group-13"><path d="M1733.83,103.5l-.65-.08a11,11,0,0,1-3.91-20.6l1-.53-.23-1.1A25.5,25.5,0,0,1,1774.81,60l.45.55h.74a12.5,12.5,0,0,1,12.37,10.71l.41,2.85,2.1-2a17,17,0,0,1,23.6.34l1.13,1.13,1.05-1.21a17,17,0,0,1,29.77,9.56l.07.76.65.39a11.15,11.15,0,0,1,3.42,3.21l.83,1.21,1.23-.81a7,7,0,0,1,10.87,5.83c0,.14,0,.28,0,.41l-.09,1.59h1.6a4.5,4.5,0,0,1,0,9Z" style="fill:#fff;fill-rule:evenodd"/><path d="M1865,105H1733.74l-.74-.09a12.5,12.5,0,0,1-4.44-23.41h0A27.37,27.37,0,0,1,1728,76a27,27,0,0,1,48-17h0a14.07,14.07,0,0,1,13.88,12h0a18.5,18.5,0,0,1,25.67.38h0a18.5,18.5,0,0,1,32.39,10.4h0a12.64,12.64,0,0,1,3.88,3.65h0A8.5,8.5,0,0,1,1865,92.5c0,.17,0,.33,0,.5h0a6,6,0,1,1,0,12Zm-131.08-3H1865a3,3,0,0,0,0-6h-3.19l.18-3.18c0-.11,0-.22,0-.33a5.51,5.51,0,0,0-8.54-4.59L1851,89.55l-1.67-2.43a9.51,9.51,0,0,0-2.95-2.77l-1.31-.79-.14-1.51a15.49,15.49,0,0,0-27.13-8.71l-2.11,2.42-2.27-2.26a15.5,15.5,0,0,0-21.51-.32l-4.2,3.94-.82-5.7A11,11,0,0,0,1776,62h-1.45l-.9-1.11A24,24,0,0,0,1731,76a24.22,24.22,0,0,0,.5,4.89l.45,2.19-2,1.06a9.5,9.5,0,0,0,3.37,17.79Z" style="fill:#2a455f"/><path d="M1817.81,104q5.25,0,12.44-.13h32.31s6.49-2.33,5.29-6.11c-.79-2.51-2.8-4.32-6-5.43l-2-1.52-.73-4.17-6-4.63c-4,.22-6.45,1.06-7.25,2.5,4.8,11.47-10.6,19.64-34.44,18.71H1811c-11-1.47-20.54-3.74-27.3-7.85a18.83,18.83,0,0,1-7.26-24.87c.5-4.41-.55-8.5-5.22-12.4-3.11-2.6-5.11-4.06-6-4.39q5.88,19.19-1.62,30.31c-5.71,8.47-26.55,9.13-32.75-2,0,2.52-9.21,8.1-6.85,15.48.38,1.2,2.22,3,5.5,5.49q106.88,2.7,91.64,1.31Z" style="fill:#d3e6f2;fill-rule:evenodd;opacity:.284853994846344;isolation:isolate"/></g></g></g><g id="Group-10"><g id="Group-11"><g id="Rectangle-Copy-8"><path d="M-.61,272.93Q-2.76,964.31,1.44,1078.5c26.36-.06,382.41-1,558.9-1.47q220.92-.54,419.21-.91c491.47-.88,825.09-.79,939.09.61-.41-55.71-.17-182,.59-402.67.06-18.8.13-38.49.21-61.33.9-254.24,1-289,1-336q-412.9,1.05-1921-3.76Z" style="fill-rule:evenodd;fill:url(#linear-gradient-2)"/><path d="M0,1080l0-1.45c-2.79-75.76-3.48-346.81-2.06-805.62v-1.5h1.5c1000.79,3.19,1647.13,4.46,1921,3.76h1.51v1.51c0,47.34-.1,82.43-1,336l-.21,61.34c-.81,233.32-1,350-.59,402.65v1.53l-1.53,0c-63.72-.78-199.75-1.18-406.2-1.18q-215.55,0-532.87.57c-128.28.24-265.41.53-419.2.91-111.36.27-294.19.76-420.59,1.1L1.45,1080ZM.88,274.44c-1.4,455-.73,725,2,802.56l136.86-.37c126.41-.34,309.24-.83,420.59-1.1,153.8-.38,290.92-.67,419.2-.91q317-.57,532.87-.57c204.88,0,340.34.39,404.72,1.16-.37-53.4-.2-170.06.6-401.15l.21-61.34c.89-250.91,1-287.93,1-334.53q-72.95.18-180.7.18C1404.67,278.37,822.3,277.06.88,274.44Z" style="fill:#163150"/></g><g id="Path-14"><path d="M362.22,313.2h0l-113.22-1a1,1,0,0,1,0-2l113.22,1a1,1,0,0,1,0,2Z" style="fill:#163150"/></g><g id="Path-3-Copy-2"><path d="M650.27,385c-8.59,0-18.31-3.44-28.59-7.09-7.35-2.61-14.95-5.3-22.24-6.71-17.28-3.33-35.84.13-64.05,12a1,1,0,0,1-.78-1.85c28.61-12,47.5-15.49,65.2-12.07,7.45,1.43,15.12,4.15,22.54,6.78,10.12,3.59,19.67,7,27.92,7a188.5,188.5,0,0,0,20.82-1.56A243.07,243.07,0,0,1,699,379.52a1,1,0,0,1,0,2,242.24,242.24,0,0,0-27.69,1.92A191.36,191.36,0,0,1,650.27,385Z" style="fill:#163150"/></g></g></g><g id="Group-3"><g id="Group-5-Copy"><path d="M396.18,222.5H228.84l-.72-.07a14.26,14.26,0,0,1-5.53-26.7l1-.54-.24-1.09a32.69,32.69,0,0,1,32.16-39.6,32.91,32.91,0,0,1,25.94,12.58l.45.56h.72a16.45,16.45,0,0,1,16.21,14l.42,2.86,2.1-2a21.89,21.89,0,0,1,30.67.61l1.14,1.17,1.07-1.24a21.84,21.84,0,0,1,38.19,11.54l.09.76.67.37a14.5,14.5,0,0,1,4.58,4.06l.84,1.14,1.19-.77A9.37,9.37,0,0,1,394.25,208c0,.07,0,.15,0,.23l1.5,1.53h0a6.39,6.39,0,0,1,.86,12.72Z" style="fill:#fff;fill-rule:evenodd"/><path d="M396.28,224H228.69l-.72-.07a15.75,15.75,0,0,1-6.1-29.5,33.71,33.71,0,0,1-.78-7.23,34.45,34.45,0,0,1,61.52-21,18.06,18.06,0,0,1,17.69,15.32h0a23.4,23.4,0,0,1,32.78.65h0a23.33,23.33,0,0,1,40.81,12.35h0a16.06,16.06,0,0,1,5.06,4.47,10.87,10.87,0,0,1,16.79,8.63l.66.68a7.88,7.88,0,0,1,.4,15.68Zm-167.37-3H396.08l.33,0a4.89,4.89,0,0,0-.66-9.74h-.64l-2.38-2.44,0-.82a7.87,7.87,0,0,0-12.16-6.51L378.21,203l-1.68-2.3a13.25,13.25,0,0,0-4.11-3.63l-1.33-.75-.18-1.51a20.33,20.33,0,0,0-35.56-10.74l-2.14,2.47-2.28-2.33a20.39,20.39,0,0,0-28.57-.57l-4.21,4-.82-5.73a15,15,0,0,0-14.74-12.75h-1.44l-.9-1.14a31.45,31.45,0,0,0-56.16,19.19,30.93,30.93,0,0,0,.71,6.59l.47,2.19-2,1.08a12.76,12.76,0,0,0,5,23.89Z" style="fill:#2a455f"/><path d="M349.27,223.14,360.5,223h37s7.42-2.66,6.06-7q-1.36-4.31-6.89-6.19l-2.25-1.73-.84-4.75-6.82-5.28c-4.61.26-7.37,1.21-8.3,2.85,5.31,12.63-11,21.75-36.7,21.39-14-1.65-26.15-4.28-34.57-9.36a21.48,21.48,0,0,1-8.31-28.4c.58-5-.64-9.7-6-14.15q-5.34-4.45-11.29-3.27,5.67,15.6-2.92,28.29c-6.55,9.67-33.21,23.28-54.12,0q-18.89,12.49-1.44,25.91,144.42,3.42,127,1.84Z" style="fill:#d3e6f2;fill-rule:evenodd;opacity:.284853994846344;isolation:isolate"/></g></g></g><g id="octopus"><g id="Group-84"><g id="Group"><path id="Path-209" d="M1308.57,515.65c-16.27-30-70.12-54.52-75-61.27S1245,431,1262.29,423.44s186.34-113.41,30-124c-44,0-38.84,7-20.75,10,4.94.82,53.32,11.64,43.42,28.49-10.37,17.66-85.57,47.32-107.9,69.3s-25.66,50.84-19,63.44,30.78,41.32,49.87,48.77C1259.77,524.25,1291.94,528.08,1308.57,515.65Z" style="fill:#9165ff;fill-rule:evenodd"/><g id="Group-7"><g id="Oval-Copy-19"><ellipse cx="1201.78" cy="457.59" rx="11.6" ry="5.6" transform="translate(485.57 1525.63) rotate(-77)" style="fill:#532cb2"/><path d="M1199.8,469.87a4,4,0,0,1-.84-.09c-1.81-.42-3.15-2.15-3.77-4.89a20.16,20.16,0,0,1,.25-8.76c1.57-6.83,5.59-11.54,9.15-10.72,1.82.42,3.16,2.15,3.77,4.88A22.15,22.15,0,0,1,1204.5,467C1203,468.89,1201.37,469.87,1199.8,469.87Zm4-22.74c-2.16,0-5.24,3.63-6.58,9.41a18.48,18.48,0,0,0-.24,7.95c.45,2,1.33,3.27,2.41,3.52s2.44-.51,3.71-2.1a20.46,20.46,0,0,0,3.52-15.22c-.45-2-1.33-3.27-2.42-3.52h0A1.75,1.75,0,0,0,1203.78,447.13Z" style="fill:#163150"/></g><ellipse cx="1200.98" cy="457.59" rx="11.6" ry="5.6" transform="translate(484.95 1524.85) rotate(-77)" style="fill:#532cb2"/><path d="M1199,469.47a3.19,3.19,0,0,1-.75-.08c-1.66-.38-2.89-2-3.47-4.58a21.87,21.87,0,0,1,3.79-16.42c1.65-2.06,3.47-3,5.13-2.59h0c1.66.38,2.89,2,3.47,4.58a19.84,19.84,0,0,1-.24,8.59C1205.51,465.09,1202.14,469.47,1199,469.47Zm4-22.74c-1.13,0-2.42.81-3.61,2.3a20.76,20.76,0,0,0-3.59,15.55c.48,2.14,1.47,3.54,2.71,3.82,2.7.63,6.11-3.8,7.46-9.66a18.89,18.89,0,0,0,.25-8.14c-.49-2.14-1.48-3.53-2.72-3.82h0A2.73,2.73,0,0,0,1203,446.73Z" style="fill:#163150"/></g><g id="Group-7-Copy-10"><ellipse cx="1227.24" cy="416.48" rx="11.6" ry="5.6" transform="translate(-23.08 757.47) rotate(-34)" style="fill:#532cb2"/><path d="M1221.23,425.37a5,5,0,0,1-4.36-1.89c-1-1.55-.84-3.73.57-6.15a20.35,20.35,0,0,1,6.16-6.24c5.82-3.92,12-4.62,14-1.6,1,1.55.84,3.73-.57,6.15a22.22,22.22,0,0,1-14.25,9.61A10.86,10.86,0,0,1,1221.23,425.37Zm12-15.94a16.49,16.49,0,0,0-8.61,3.16,18.46,18.46,0,0,0-5.61,5.66c-1,1.75-1.26,3.29-.63,4.21s2.13,1.29,4.15,1a20.37,20.37,0,0,0,12.94-8.74c1-1.75,1.26-3.29.64-4.21A3.34,3.34,0,0,0,1233.23,409.43Z" style="fill:#163150"/><ellipse cx="1226.66" cy="415.94" rx="11.6" ry="5.6" transform="translate(-22.88 757.05) rotate(-34)" style="fill:#532cb2"/><path d="M1220.64,424.42a4.59,4.59,0,0,1-4-1.71c-.95-1.41-.74-3.44.58-5.72a19.88,19.88,0,0,1,6-6.11c5.63-3.8,11.54-4.55,13.45-1.71,1,1.41.75,3.44-.58,5.72a21.85,21.85,0,0,1-14,9.42A9.82,9.82,0,0,1,1220.64,424.42Zm12-15.95a17.19,17.19,0,0,0-8.88,3.25,18.8,18.8,0,0,0-5.73,5.78c-1.11,1.9-1.33,3.59-.62,4.64s2.37,1.48,4.54,1.17a20.88,20.88,0,0,0,13.23-8.93c1.11-1.9,1.33-3.59.62-4.64A3.62,3.62,0,0,0,1232.69,408.47Z" style="fill:#163150"/></g><g id="Group-7-Copy-11"><ellipse cx="1267.81" cy="390.11" rx="10.44" ry="5.04" transform="translate(-51.64 526.38) rotate(-23)" style="fill:#532cb2"/><path d="M1263,397.1c-2.73,0-4.82-.88-5.54-2.59-1.29-3,2.26-7.32,8.07-9.79s11.37-2,12.65,1h0c1.28,3-2.27,7.32-8.07,9.79A18.74,18.74,0,0,1,1263,397.1Zm9.64-12.34a17,17,0,0,0-6.47,1.46c-5.22,2.22-8,5.81-7.21,7.65s5.29,2.34,10.51.13,8-5.81,7.21-7.65h0C1276.25,385.36,1274.74,384.76,1272.63,384.76Z" style="fill:#163150"/><ellipse cx="1267.38" cy="389.53" rx="10.44" ry="5.04" transform="translate(-51.45 526.17) rotate(-23)" style="fill:#532cb2"/><path d="M1262.53,396.17c-2.56,0-4.51-.81-5.18-2.39-.6-1.4-.06-3.16,1.5-4.95a19.68,19.68,0,0,1,14-5.92c2.37.11,4,.95,4.6,2.36h0c.6,1.41.07,3.17-1.5,5a17.81,17.81,0,0,1-6.38,4.37A18.45,18.45,0,0,1,1262.53,396.17Zm9.71-12.36a17.48,17.48,0,0,0-6.65,1.5,17,17,0,0,0-6,4.12c-1.3,1.49-1.79,2.94-1.35,4,1,2.28,6,2.43,11,.32a17,17,0,0,0,6.06-4.13c1.3-1.48,1.79-2.94,1.34-4h0c-.44-1.06-1.83-1.72-3.81-1.81Z" style="fill:#163150"/></g><g id="Group-7-Copy-12"><ellipse cx="1301.78" cy="367.66" rx="9.4" ry="4.54" transform="translate(-3.42 722.98) rotate(-31)" style="fill:#532cb2"/><path d="M1297,374.61c-1.83,0-3.19-.6-3.86-1.73-1.52-2.53,1.1-6.81,6-9.73s9.87-3.24,11.39-.7h0c.78,1.29.53,3.05-.72,4.94a18,18,0,0,1-11.93,7.18C1297.51,374.59,1297.23,374.61,1297,374.61Zm9.62-12.41a13.93,13.93,0,0,0-6.76,2.2c-4.37,2.63-6.39,6.18-5.46,7.72.46.78,1.66,1.13,3.31,1a16.54,16.54,0,0,0,10.84-6.51c.91-1.38,1.16-2.62.7-3.39h0A3,3,0,0,0,1306.58,362.2Z" style="fill:#163150"/><ellipse cx="1301.33" cy="367.2" rx="9.4" ry="4.54" transform="translate(-3.25 722.68) rotate(-31)" style="fill:#532cb2"/><path d="M1296.53,373.82a4,4,0,0,1-3.6-1.57c-1.43-2.38,1.14-6.46,5.85-9.29s9.53-3.19,11-.81h0c1.43,2.37-1.15,6.45-5.86,9.29A15.1,15.1,0,0,1,1296.53,373.82Zm9.64-12.42a14.45,14.45,0,0,0-7,2.26c-4.18,2.51-6.73,6.25-5.58,8.17s5.65,1.41,9.83-1.1,6.73-6.24,5.57-8.16h0A3.15,3.15,0,0,0,1306.17,361.4Z" style="fill:#163150"/></g><g id="Group-7-Copy-13"><ellipse cx="1323.63" cy="343.28" rx="7.52" ry="3.63" transform="translate(821.6 1615.21) rotate(-83)" style="fill:#532cb2"/><path d="M1322.93,351.34l-.29,0c-1.2-.14-2.18-1.17-2.76-2.89a13.11,13.11,0,0,1-.44-5.66c.56-4.51,2.85-7.83,5.18-7.54,1.19.15,2.17,1.18,2.76,2.9a13,13,0,0,1,.43,5.66C1327.28,348.12,1325.17,351.34,1322.93,351.34Zm1.41-14.95c-1.42,0-3.25,2.59-3.73,6.52a12,12,0,0,0,.38,5.14c.42,1.25,1.08,2,1.79,2.11,1.43.18,3.37-2.46,3.87-6.51a12,12,0,0,0-.38-5.14c-.43-1.25-1.08-2-1.8-2.11Z" style="fill:#163150"/><ellipse cx="1323.11" cy="343.33" rx="7.52" ry="3.63" transform="translate(821.09 1614.74) rotate(-83)" style="fill:#532cb2"/><path d="M1322.42,351.14l-.26,0c-1.1-.13-2-1.1-2.55-2.72a12.76,12.76,0,0,1-.43-5.55,13,13,0,0,1,1.76-5.28c.92-1.44,2-2.15,3.13-2s2,1.1,2.55,2.71a14.18,14.18,0,0,1-1.33,10.84A3.7,3.7,0,0,1,1322.42,351.14Zm1.4-14.95a3.13,3.13,0,0,0-2.33,1.73,13.54,13.54,0,0,0-1.26,10.27c.46,1.35,1.19,2.18,2,2.28s1.72-.53,2.5-1.73a13.5,13.5,0,0,0,1.26-10.26c-.46-1.35-1.19-2.18-2-2.28h-.17Z" style="fill:#163150"/></g><path d="M1308.57,515.65c-16.27-30-70-55.43-75-61.27s3.82-19.19,28.74-30.94c17.31-7.59,186.34-113.41,30-124-44,0-38.84,3.89-20.75,6.87,4.94.81,61.37,15.26,65,31.55s5.3,28.93-61.45,73.88c-5.75,3.87-31.05,17.16-35.52,21-47.46,40.62-19.15,79.88-1.71,86.68C1259.77,524.25,1291.94,528.08,1308.57,515.65Z" style="fill:#a682ff;fill-rule:evenodd"/><path d="M1275.3,524.79c-13.69,0-27.72-2.44-37.58-4.64l-.11,0c-19.09-7.44-43.41-36-50.29-49.14-6.61-12.57-3.62-41.94,19.18-64.38,10.71-10.53,33.36-22.76,55.27-34.59,24.27-13.11,47.19-25.48,52.51-34.55a7.33,7.33,0,0,0,.49-7.25c-5.35-11.4-37.63-19.1-43.35-20-4.29-.7-14.24-2.72-14-6.19s12-5.37,34.84-5.37c41.15,2.8,63.44,12.51,66.29,28.87,1.82,10.47-3.83,29.36-41.12,59.84-23.41,19.14-49.06,34.32-54.86,36.86-13.52,5.92-26.73,17.56-28.86,25.41a4.9,4.9,0,0,0,.45,4.33c1.39,1.91,7.48,5.66,15.21,10.41,18.1,11.15,48.4,29.79,59.87,50.94a.81.81,0,0,1-.23,1C1300.51,522.68,1288.05,524.79,1275.3,524.79Zm-37.17-6.19c18.57,4.14,52,9.16,69.4-3.19-11.51-20.52-41.17-38.77-59-49.72-8.18-5-14.09-8.67-15.67-10.84a6.45,6.45,0,0,1-.7-5.69c2.24-8.25,15.87-20.37,29.77-26.45,12.51-5.49,101-60.66,95-95-2.71-15.54-24.5-24.8-64.76-27.54-32.5,0-33.19,3.86-33.2,3.9-.06.74,3,2.9,12.63,4.48.38.06,38.25,7.53,44.53,20.94a8.92,8.92,0,0,1-.55,8.74c-5.55,9.45-28.66,21.93-53.13,35.14-21.81,11.78-44.36,24-54.9,34.33-22.25,21.9-25.27,50.37-18.89,62.5C1195.51,483.12,1219.4,511.26,1238.13,518.6Z" style="fill:#163150"/></g><path id="Path-210" d="M1441.91,545.16q-11.45-41-5.72-72.87c5.72-31.85,30.24-42.73,42.12-45.71,17.25-4.32,46.78-1.72,59,9.35,22.38,20.32,17.89,57.14,1.27,73.66s-41.9,13.38-50.28,6.4-6.54-14.86-3.51-14.86,10.91,13.39,27,6.4,31.36-70.43-23.54-51.28c-7.82,4.14-36.92,19-10,85.07Q1455.75,548.19,1441.91,545.16Z" style="fill:#a682ff;fill-rule:evenodd"/><path d="M1441.91,545.16q-11.45-41-5.72-72.87c5.72-31.85,30.24-42.73,42.12-45.71,17.25-4.32,46.78-1.72,59,9.35,22.38,20.32,17.89,57.14,1.27,73.66s-41.9,13.38-50.28,6.4,10.34,9.47,26.94,3.68c30.59-10.66,36.37-61.78,8.54-78.64-9.14-5.53-30.33-14.45-57.13,0-7.83,4.14-30.56,38-3.62,104.13Q1446,546.09,1441.91,545.16Z" style="fill:#9165ff;fill-rule:evenodd"/><path d="M1451.16,546.88a43.83,43.83,0,0,1-9.42-.94l-.47-.1-.13-.47c-7.62-27.33-9.55-52-5.74-73.22,6.22-34.63,34.27-44.23,42.71-46.34,18.21-4.57,47.62-1.46,59.72,9.53,9.69,8.8,15.21,21.52,15.53,35.82.34,15-5.12,29.93-14.24,39-17.44,17.34-43.07,13.35-51.35,6.44-5.8-4.84-7.16-10.41-5.94-13.78a3.3,3.3,0,0,1,2.94-2.49c1.07,0,2.2.91,3.9,2.29,4.23,3.43,11.32,9.16,22.83,4.18,4.41-1.91,9.1-8.66,11.94-17.2,3-9.2,3.36-18.6.81-25.12-3.12-8-11.84-15.78-35.64-7.49l-.1.05c-3.87,2-12.91,6.81-17.6,19-5.9,15.38-3.16,37.23,8.14,64.94l.33.81-.84.26C1468.07,545.28,1458.91,546.88,1451.16,546.88Zm-8.61-2.4c8.83,1.8,20.49.57,34.68-3.67-11.17-27.71-13.81-49.68-7.81-65.3,4.9-12.79,14.32-17.76,18.34-19.89l.26-.13c11.32-3.94,31.28-8.11,37.72,8.41,2.72,7,2.43,16.51-.79,26.2-3,9.09-7.93,16-12.81,18.17-12.41,5.37-20.26-1-24.48-4.41-1.17-.95-2.38-1.93-2.89-1.93s-1.11.54-1.43,1.44c-1,2.75.28,7.69,5.46,12,8.2,6.85,33.12,9.64,49.19-6.34,8.82-8.77,14.1-23.27,13.77-37.83-.31-13.86-5.64-26.17-15-34.67-9.69-8.8-36.66-14.59-58.26-9.17-8.21,2.06-35.47,11.39-41.52,45.07C1433.22,493.32,1435.1,517.56,1442.55,544.48Z" style="fill:#163150"/><path id="Path-211" d="M1571.19,503.75s15.94-32.9,35.25-53.21,44.93-56,53-83.37.49-43-8-43-29.16,51.48-52.28,54.13-37.66-10-34.71-49.19,16.54,15.18,21.48,18.71,11.6.13,25.93-27.57,40.56-49.58,63.8-35.78,31.26,46.05,31.26,63.35-7.16,58.39-26.07,93.49-45.8,62.46-48.91,62.46Z" style="fill:#a682ff;fill-rule:evenodd"/><path d="M1571.19,503.75s15.94-32.9,35.25-53.21c18.89-19.87,104-66.44,100.41-108.71-2-23.9-21-60.75-46.15-60.75s-38.49,94.55-61.61,97.2-37.66-10-34.71-49.19,10.59,24,15.53,27.54,17.55-8.7,31.88-36.4,40.56-49.58,63.8-35.78,31.26,46.05,31.26,63.35-7.16,58.39-26.07,93.49-45.8,62.46-48.91,62.46Z" style="fill:#9165ff;fill-rule:evenodd"/><g id="Group-7-Copy-31"><ellipse cx="1621.83" cy="477.08" rx="11.6" ry="5.6" transform="translate(182.07 1363.11) rotate(-48)" style="fill:#532cb2"/><path d="M1616.35,487.38a4.25,4.25,0,0,1-2.89-1c-1.38-1.25-1.71-3.42-.93-6.11A22.25,22.25,0,0,1,1624,467.5c2.59-1.06,4.78-1,6.16.29h0c1.39,1.24,1.72,3.41.93,6.1a20.29,20.29,0,0,1-4.46,7.55C1623.28,485.2,1619.31,487.38,1616.35,487.38Zm10.94-18.79a6.86,6.86,0,0,0-2.57.59,20.47,20.47,0,0,0-10.45,11.6c-.57,2-.42,3.5.41,4.25,1.65,1.48,6.42-.13,10.64-4.81a18.4,18.4,0,0,0,4.07-6.84c.57-1.95.42-3.5-.4-4.24h0A2.47,2.47,0,0,0,1627.29,468.59Z" style="fill:#163150"/><ellipse cx="1621.13" cy="476.69" rx="11.6" ry="5.6" transform="translate(182.13 1362.46) rotate(-48)" style="fill:#532cb2"/><path d="M1615.68,486.61a3.85,3.85,0,0,1-2.65-.92c-2.54-2.29-1-8,3.56-13.08s10.1-7.2,12.64-4.91h0c2.55,2.29,1,8-3.56,13.08C1622.36,484.46,1618.51,486.61,1615.68,486.61Zm10.92-18.81c-2.5,0-6.19,2.09-9.25,5.49-4,4.46-5.69,9.8-3.64,11.65s7.18-.37,11.21-4.84,5.69-9.8,3.64-11.65A2.88,2.88,0,0,0,1626.6,467.8Z" style="fill:#163150"/></g><g id="Group-7-Copy-32"><ellipse cx="1662.63" cy="436.28" rx="11.6" ry="5.6" transform="translate(225.89 1379.93) rotate(-48)" style="fill:#532cb2"/><path d="M1657.15,446.58a4.25,4.25,0,0,1-2.89-1c-2.71-2.45-1.15-8.44,3.54-13.65s10.49-7.38,13.2-4.94h0c2.71,2.44,1.16,8.43-3.53,13.65C1664.08,444.4,1660.11,446.58,1657.15,446.58Zm11-18.78c-2.23,0-5.76,1.78-9,5.34-4.22,4.68-5.32,9.6-3.67,11.09s6.42-.12,10.64-4.81,5.32-9.6,3.67-11.08h0A2.44,2.44,0,0,0,1668.11,427.8Z" style="fill:#163150"/><ellipse cx="1661.93" cy="435.89" rx="11.6" ry="5.6" transform="translate(225.95 1379.28) rotate(-48)" style="fill:#532cb2"/><path d="M1656.47,445.81a3.84,3.84,0,0,1-2.64-.92c-1.26-1.14-1.55-3.16-.81-5.69a21.76,21.76,0,0,1,11.27-12.52c2.44-1,4.48-.92,5.74.22s1.56,3.16.82,5.69a21.85,21.85,0,0,1-11.27,12.52A8.49,8.49,0,0,1,1656.47,445.81ZM1667.39,427a7.37,7.37,0,0,0-2.72.62A20.87,20.87,0,0,0,1654,439.48c-.61,2.11-.42,3.81.52,4.66s2.65.86,4.69,0a20.87,20.87,0,0,0,10.68-11.86c.61-2.11.42-3.81-.52-4.66h0A2.89,2.89,0,0,0,1667.39,427Z" style="fill:#163150"/></g><g id="Group-7-Copy-34"><ellipse cx="1629.02" cy="307.57" rx="8.12" ry="3.92" transform="translate(615.41 1619.4) rotate(-63)" style="fill:#532cb2"/><path d="M1626.27,315.66a2.59,2.59,0,0,1-1.23-.29c-2.27-1.16-2.31-5.49-.08-9.87s5.76-6.89,8-5.73h0c1.16.59,1.78,2,1.74,4a15.6,15.6,0,0,1-5.47,10.72A5.09,5.09,0,0,1,1626.27,315.66Zm5.51-14.9c-1.53,0-4,1.92-5.69,5.32-2,3.93-1.86,7.46-.47,8.16.69.35,1.74.06,2.88-.8a14.39,14.39,0,0,0,5-9.74c0-1.42-.35-2.44-1-2.8A1.5,1.5,0,0,0,1631.78,300.76Z" style="fill:#163150"/><ellipse cx="1628.47" cy="307.44" rx="8.12" ry="3.92" transform="translate(615.23 1618.84) rotate(-63)" style="fill:#532cb2"/><path d="M1625.73,315.24a2.5,2.5,0,0,1-1.11-.25c-2.13-1.09-2.11-5.26,0-9.49a13.9,13.9,0,0,1,3.74-4.72c1.47-1.12,2.86-1.43,3.92-.89,2.14,1.08,2.12,5.25,0,9.49C1630.47,312.94,1627.8,315.24,1625.73,315.24Zm5.49-14.9a4.23,4.23,0,0,0-2.39,1,13.11,13.11,0,0,0-3.53,4.48c-1.91,3.75-2.07,7.66-.35,8.54s4.79-1.56,6.7-5.3,2.07-7.66.35-8.54A1.66,1.66,0,0,0,1631.22,300.34Z" style="fill:#163150"/></g><g id="Group-7-Copy-35"><ellipse cx="1616.17" cy="333.02" rx="7.31" ry="3.53" transform="translate(585.72 1621.85) rotate(-63)" style="fill:#532cb2"/><path d="M1613.68,340.3a2.39,2.39,0,0,1-1.09-.25c-2-1.05-2.08-4.95-.08-8.89s5.19-6.2,7.23-5.16h0c2,1.05,2.09,4.95.08,8.89C1618.14,338.18,1615.65,340.3,1613.68,340.3Zm5-13.41c-1.37,0-3.56,1.73-5.12,4.79-1.8,3.54-1.67,6.71-.42,7.35s3.89-1.13,5.69-4.66,1.67-6.71.42-7.35A1.29,1.29,0,0,0,1618.65,326.89Z" style="fill:#163150"/><ellipse cx="1615.68" cy="332.9" rx="7.31" ry="3.53" transform="translate(585.56 1621.35) rotate(-63)" style="fill:#532cb2"/><path d="M1613.21,339.93a2.19,2.19,0,0,1-1-.23c-1.93-1-1.91-4.73,0-8.54a12.6,12.6,0,0,1,3.36-4.25c1.32-1,2.58-1.29,3.53-.8h0c.95.48,1.46,1.67,1.43,3.33a12.71,12.71,0,0,1-1.46,5.21,12.46,12.46,0,0,1-3.36,4.24A4.33,4.33,0,0,1,1613.21,339.93Zm4.94-13.41a3.82,3.82,0,0,0-2.16.9,11.84,11.84,0,0,0-3.17,4c-1.72,3.37-1.86,6.89-.32,7.68.72.36,1.76.09,2.86-.74a13.12,13.12,0,0,0,4.57-9c0-1.38-.37-2.38-1.08-2.74h0A1.47,1.47,0,0,0,1618.15,326.52Z" style="fill:#163150"/></g><g id="Group-7-Copy-36"><ellipse cx="1605.06" cy="357.53" rx="6.58" ry="3.18" transform="translate(335.15 1402.21) rotate(-52)" style="fill:#532cb2"/><path d="M1602.13,363.57a2.3,2.3,0,0,1-1.44-.46c-.83-.65-1.11-1.86-.77-3.41a11.57,11.57,0,0,1,2.23-4.45c2.45-3.13,5.64-4.59,7.27-3.31.83.65,1.11,1.86.77,3.41a11.57,11.57,0,0,1-2.23,4.45C1606.11,362.16,1603.84,363.57,1602.13,363.57Zm5.84-11.06c-1.26,0-3.27,1.15-5,3.38a10.39,10.39,0,0,0-2,4c-.24,1.12-.09,2,.4,2.38,1,.78,3.63-.32,5.83-3.14a10.39,10.39,0,0,0,2-4c.24-1.12.1-2-.4-2.38A1.33,1.33,0,0,0,1608,352.51Z" style="fill:#163150"/><ellipse cx="1604.64" cy="357.33" rx="6.58" ry="3.18" transform="translate(335.14 1401.81) rotate(-52)" style="fill:#532cb2"/><path d="M1601.74,363.16a2,2,0,0,1-1.32-.42c-1.53-1.19-.87-4.51,1.5-7.54s5.42-4.47,6.95-3.28.87,4.51-1.5,7.55C1605.57,361.78,1603.36,363.16,1601.74,363.16Zm5.81-11.08c-1.42,0-3.52,1.35-5.18,3.48-2.1,2.68-2.83,5.77-1.6,6.73s4-.49,6.15-3.18,2.83-5.77,1.6-6.73A1.5,1.5,0,0,0,1607.55,352.08Z" style="fill:#163150"/></g><g id="Group-7-Copy-37"><ellipse cx="1583.04" cy="366.94" rx="2.86" ry="5.92" transform="matrix(0.03, -1, 1, 0.03, 1161.08, 1936.22)" style="fill:#532cb2"/><path d="M1583.38,370.27h-.45a10.33,10.33,0,0,1-4.35-1c-1.27-.66-1.95-1.55-1.91-2.5s.77-1.79,2.08-2.37a11.29,11.29,0,0,1,8.76.31c1.27.66,2,1.55,1.91,2.5h0c0,.95-.77,1.79-2.08,2.37A10,10,0,0,1,1583.38,370.27Zm-.67-5.73a9.06,9.06,0,0,0-3.59.66c-.95.42-1.51,1-1.53,1.55s.5,1.17,1.42,1.66a9.43,9.43,0,0,0,4,.92,9.17,9.17,0,0,0,4-.65c1-.42,1.51-1,1.53-1.55h0c0-.57-.5-1.17-1.42-1.65a9.31,9.31,0,0,0-3.95-.93Z" style="fill:#163150"/><ellipse cx="1582.97" cy="366.54" rx="2.86" ry="5.92" transform="matrix(0.03, -1, 1, 0.03, 1161.4, 1935.75)" style="fill:#532cb2"/><path d="M1583.31,369.66h-.45c-3.46-.12-6.13-1.58-6.07-3.32,0-.87.73-1.65,2-2.19a10.06,10.06,0,0,1,4.33-.71c3.46.12,6.12,1.58,6.06,3.33h0C1589.08,368.43,1586.56,369.66,1583.31,369.66Zm-.68-5.72a9.32,9.32,0,0,0-3.67.67c-1,.45-1.63,1.08-1.65,1.73,0,1.41,2.5,2.69,5.57,2.8s5.69-1,5.74-2.4h0c.05-1.41-2.5-2.69-5.56-2.8Z" style="fill:#163150"/></g><g id="Group-7-Copy-38"><ellipse cx="1569.8" cy="345.05" rx="2.57" ry="5.33" transform="translate(-34.65 249.82) rotate(-9)" style="fill:#532cb2"/><path d="M1570.43,350.75a2.83,2.83,0,0,1-2.18-1.45,9.32,9.32,0,0,1-1.4-3.78c-.51-3.18.39-5.88,2.05-6.14a2.65,2.65,0,0,1,2.45,1.43,10.21,10.21,0,0,1,1.23,7.8c-.37,1.23-1,2-1.88,2.12h0Zm-1.27-10.56H1569c-1,.16-1.81,2.33-1.36,5.19a8.44,8.44,0,0,0,1.26,3.43c.53.77,1.12,1.16,1.64,1.08h0c.5-.08.94-.63,1.21-1.53a8.41,8.41,0,0,0,.15-3.65,8.53,8.53,0,0,0-1.27-3.43A2.1,2.1,0,0,0,1569.16,340.19Z" style="fill:#163150"/><ellipse cx="1570.14" cy="344.92" rx="2.57" ry="5.33" transform="translate(-34.63 249.87) rotate(-9)" style="fill:#532cb2"/><path d="M1570.77,350.44a2.67,2.67,0,0,1-2-1.38,10,10,0,0,1-1.22-7.65c.35-1.17,1-1.88,1.76-2s1.58.36,2.28,1.36a10.08,10.08,0,0,1,1.21,7.65c-.35,1.17-1,1.88-1.75,2h-.24Zm-1.27-10.55h-.16c-.57.09-1.06.69-1.35,1.65a8.78,8.78,0,0,0-.15,3.73,8.64,8.64,0,0,0,1.3,3.5c.57.82,1.22,1.24,1.79,1.15h0c.57-.09,1.07-.69,1.35-1.65a8.47,8.47,0,0,0,.15-3.73,8.64,8.64,0,0,0-1.29-3.5A2.24,2.24,0,0,0,1569.5,339.89Z" style="fill:#163150"/></g><path d="M1612.32,505.72c-17.47,0-39.76-1.1-41.17-1.17l-1.2-.06.52-1.09c.16-.33,16.22-33.25,35.39-53.41,20.39-21.45,45.08-56.86,52.79-83.05,5.76-19.57,3.27-32.61-1-38.3-1.81-2.41-4-3.69-6.3-3.69-2.88,0-8.35,8.25-14.14,17-10.48,15.8-23.52,35.47-38,37.14-11,1.26-19.65-1-25.63-6.76-8.19-7.87-11.54-22.44-10-43.29,1-12.68,3-14.6,4.65-14.85,3.52-.54,7,7.6,12,20.09,2.34,5.87,4.77,11.94,6.07,12.87a4.5,4.5,0,0,0,3.88.87c4.86-1.17,11.68-10.37,20.87-28.14,10.49-20.27,25.63-34.92,40.51-39.17a29.94,29.94,0,0,1,24.42,3.07c23.22,13.79,31.65,45.85,31.65,64,0,17.51-7.1,58.48-26.16,93.87-18.3,34-40.3,59.92-49.38,62.84C1629.29,505.42,1621.46,505.72,1612.32,505.72ZM1572.45,503c7.93.37,51.9,2.32,59.17,0,7.43-2.39,29-25.87,48.46-62.08,18.92-35.13,26-75.76,26-93.11,0-17.82-8.22-49.2-30.87-62.66a28.43,28.43,0,0,0-23.16-2.9c-14.46,4.13-29.24,18.48-39.52,38.36-9.68,18.71-16.44,27.65-21.92,29a6.12,6.12,0,0,1-5.19-1.12c-1.6-1.15-3.56-5.92-6.62-13.59-2.91-7.29-7.77-19.5-10.3-19.1-.54.08-2.38,1.29-3.29,13.39-1.53,20.35,1.66,34.49,9.49,42,5.62,5.4,13.8,7.53,24.33,6.32,13.79-1.59,27.15-21.73,36.9-36.44,6.81-10.27,11.73-17.7,15.47-17.7,2.8,0,5.49,1.54,7.58,4.34s8.69,14.36,1.23,39.7c-7.78,26.43-32.63,62.12-53.16,83.7C1590,469,1575.4,497.15,1572.45,503Z" style="fill:#163150"/><g id="Group-83"><path id="Path-213" d="M1694.75,418q-1.68-.24-15.3-9l13.49-25.85,1.49,2.93,5,20.7Q1696.42,418.2,1694.75,418Z" style="fill:none"/><g id="Group-7-Copy-33"><ellipse cx="1693.89" cy="400.17" rx="11.6" ry="5.6" transform="translate(868.94 1932.78) rotate(-75)" style="fill:#532cb2"/><path d="M1691.6,412.38a3.73,3.73,0,0,1-.94-.12c-1.8-.49-3.08-2.27-3.61-5a20.21,20.21,0,0,1,.56-8.75c1.81-6.77,6-11.34,9.52-10.4h0c3.52,1,4.86,7,3,13.77C1698.52,408,1694.9,412.38,1691.6,412.38Zm4.59-22.59c-2.16,0-5.31,3.51-6.83,9.17a18.37,18.37,0,0,0-.52,7.94c.38,2,1.21,3.32,2.28,3.6,2.15.58,5.67-3,7.31-9.11s.37-11-1.77-11.54A1.84,1.84,0,0,0,1696.19,389.79Z" style="fill:#163150"/><ellipse cx="1693.09" cy="400.15" rx="11.6" ry="5.6" transform="translate(868.38 1931.98) rotate(-75)" style="fill:#532cb2"/><path d="M1690.82,412a3.12,3.12,0,0,1-.86-.11c-3.31-.89-4.52-6.72-2.77-13.27s5.73-11,9-10.12h0c3.3.89,4.52,6.72,2.76,13.28C1697.38,407.72,1693.93,412,1690.82,412Zm4.55-22.6c-2.58,0-5.75,4.09-7.2,9.48-1.55,5.81-.61,11.32,2,12s6.24-3.59,7.79-9.4.62-11.31-2-12h0A2.33,2.33,0,0,0,1695.37,389.35Z" style="fill:#163150"/></g></g><g id="Group-2"><path id="Path-212" d="M1431.28,414.56c-7.62-7.12-27.84-36.08-21.21-78.51s31.94-63.62,45.66-68.53,46.39-4.91,58.22,21.2,0,51.82-13.39,62.32-34.42,16.45-44.83,0,1.9-33.29,10.41-36.14,25.83,0,9.21,4.8-12.7,20.84,1.26,20.84,18.23-18.78,18.23-25.64-8.84-28.82-28.7-20.69-56.07,81.69,10.47,110.63C1463.53,420.11,1445.22,416.9,1431.28,414.56Z" style="fill:#a682ff;fill-rule:evenodd"/><path d="M1450.68,416.55c-20.63-11.78-39.61-43.8-34.27-85.24s25.6-58.88,39.32-63.79,46.39-4.91,58.22,21.2,0,51.82-13.39,62.32-34.42,16.45-44.83,0,1.9-33.29,10.41-36.14,25.83,0,9.21,4.8-12.7,25.28,1.26,25.28,27.16-16.74,26.09-33.62-14.76-29.63-34.62-21.5-58,86,8.53,115C1463.53,420.11,1455.73,414.56,1450.68,416.55Z" style="fill:#9165ff;fill-rule:evenodd"/><g id="Group-7-Copy-14"><ellipse cx="1454.92" cy="401.98" rx="5.6" ry="11.6" transform="translate(291.13 1363.22) rotate(-55)" style="fill:#532cb2"/><path d="M1460.93,411a10.61,10.61,0,0,1-1.71-.15,22.2,22.2,0,0,1-14.08-9.86c-1.37-2.44-1.53-4.63-.46-6.15s3.18-2.12,5.94-1.67A22.2,22.2,0,0,1,1464.7,403c1.37,2.44,1.53,4.63.47,6.15A4.89,4.89,0,0,1,1460.93,411Zm-12-16.16a3.23,3.23,0,0,0-2.75,1c-.64.91-.43,2.45.56,4.23a18.58,18.58,0,0,0,5.51,5.75,18.34,18.34,0,0,0,7.28,3.2c2,.33,3.53,0,4.17-.92h0c.64-.91.43-2.45-.56-4.23a20.5,20.5,0,0,0-12.79-8.95A9.17,9.17,0,0,0,1448.91,394.81Z" style="fill:#163150"/><ellipse cx="1455.22" cy="401.24" rx="5.6" ry="11.6" transform="translate(291.86 1363.15) rotate(-55)" style="fill:#532cb2"/><path d="M1461.23,409.83a10.79,10.79,0,0,1-1.64-.14,21.87,21.87,0,0,1-13.8-9.66c-1.29-2.31-1.46-4.34-.49-5.73s3-1.93,5.55-1.51a21.87,21.87,0,0,1,13.8,9.66c1.29,2.3,1.46,4.34.49,5.73h0A4.5,4.5,0,0,1,1461.23,409.83Zm-12-16.16a3.61,3.61,0,0,0-3.1,1.21c-.73,1-.53,2.74.54,4.65a20.88,20.88,0,0,0,13.08,9.16c2.17.35,3.83-.05,4.56-1.09h0c.73-1,.53-2.74-.54-4.65a20.88,20.88,0,0,0-13.08-9.16A9.67,9.67,0,0,0,1449.23,393.67Z" style="fill:#163150"/></g><g id="Group-7-Copy-15"><ellipse cx="1430.7" cy="363.56" rx="4.48" ry="9.28" transform="translate(-44.32 305.4) rotate(-12)" style="fill:#532cb2"/><path d="M1432.17,373.41c-1.28,0-2.59-.81-3.77-2.33a16.2,16.2,0,0,1-2.79-6.44c-1.16-5.49.16-10.26,3-10.87,1.46-.31,3,.5,4.39,2.27a17.7,17.7,0,0,1,2.86,13.45c-.53,2.18-1.63,3.55-3.09,3.85A2.54,2.54,0,0,1,1432.17,373.41Zm-2.94-18.25-.3,0c-1.74.37-3,4.22-1.9,9.15a14.76,14.76,0,0,0,2.51,5.85c1,1.29,2.07,1.92,2.94,1.74h0c.87-.19,1.59-1.2,2-2.78a16.27,16.27,0,0,0-2.6-12.22A3.77,3.77,0,0,0,1429.23,355.16Z" style="fill:#163150"/><ellipse cx="1431.28" cy="363.29" rx="4.48" ry="9.28" transform="translate(-44.25 305.52) rotate(-12)" style="fill:#532cb2"/><path d="M1432.75,372.82a4.75,4.75,0,0,1-3.52-2.21,15.83,15.83,0,0,1-2.73-6.31c-1.12-5.31.09-9.92,2.77-10.49s5.66,3.15,6.79,8.46a15.81,15.81,0,0,1,.08,6.87c-.5,2.05-1.51,3.34-2.84,3.62A2.57,2.57,0,0,1,1432.75,372.82Zm-2.93-18.25a1.58,1.58,0,0,0-.38,0c-2.16.46-3.14,4.82-2.14,9.52a15,15,0,0,0,2.57,6c1.08,1.39,2.26,2.06,3.26,1.85h0c1-.21,1.8-1.31,2.22-3a15.1,15.1,0,0,0-.08-6.51C1434.33,358,1431.9,354.57,1429.82,354.57Z" style="fill:#163150"/></g><g id="Group-7-Copy-16"><ellipse cx="1432.37" cy="323.9" rx="9.28" ry="4.48" transform="translate(659.78 1572.78) rotate(-71)" style="fill:#532cb2"/><path d="M1430.09,333.52a2.92,2.92,0,0,1-1-.16c-2.76-.95-3.49-5.85-1.67-11.15s5.43-8.72,8.18-7.77h0c2.76.95,3.49,5.85,1.67,11.16a16.19,16.19,0,0,1-3.55,6A5.39,5.39,0,0,1,1430.09,333.52Zm4.58-17.79c-1.73,0-4.36,2.61-5.86,6.95-1.64,4.77-.91,8.73.77,9.31.84.29,2-.21,3.13-1.36a14.94,14.94,0,0,0,3.21-5.51c1.64-4.76.91-8.73-.77-9.31A1.51,1.51,0,0,0,1434.67,315.73Z" style="fill:#163150"/><ellipse cx="1431.73" cy="323.83" rx="9.28" ry="4.48" transform="translate(659.41 1572.13) rotate(-71)" style="fill:#532cb2"/><path d="M1429.45,333.14a2.57,2.57,0,0,1-.87-.15c-2.59-.89-3.24-5.61-1.47-10.75s5.19-8.46,7.77-7.56h0c2.59.89,3.24,5.61,1.47,10.74C1434.77,330,1431.89,333.14,1429.45,333.14Zm4.56-17.8c-2,0-4.72,3.05-6.13,7.17-1.57,4.55-1.13,9,1,9.72s5.18-2.52,6.74-7.07,1.13-9-1-9.72h0A2.11,2.11,0,0,0,1434,315.34Z" style="fill:#163150"/></g><g id="Group-7-Copy-17"><ellipse cx="1446.81" cy="293.18" rx="9.28" ry="4.48" transform="translate(245.67 1151.36) rotate(-47)" style="fill:#532cb2"/><path d="M1442.38,301.35a3.38,3.38,0,0,1-2.39-.85c-2.14-2-.81-6.76,3-10.87a16.19,16.19,0,0,1,5.71-4.08c2.09-.82,3.83-.7,4.93.31,2.13,2,.8,6.77-3,10.87a16.32,16.32,0,0,1-5.7,4.09A7,7,0,0,1,1442.38,301.35Zm8.86-14.89a5.72,5.72,0,0,0-2,.44,14.8,14.8,0,0,0-5.16,3.72c-3.44,3.69-4.39,7.61-3.09,8.82.65.61,1.89.62,3.41,0a14.83,14.83,0,0,0,5.17-3.73c3.44-3.68,4.38-7.6,3.09-8.81A2,2,0,0,0,1451.24,286.46Z" style="fill:#163150"/><ellipse cx="1446.26" cy="292.86" rx="9.28" ry="4.48" transform="translate(245.73 1150.86) rotate(-47)" style="fill:#532cb2"/><path d="M1441.83,300.71a3.1,3.1,0,0,1-2.18-.76c-2-1.87-.67-6.45,3-10.42a16,16,0,0,1,5.59-4c2-.76,3.6-.67,4.59.26h0c1,.93,1.2,2.55.58,4.56a17.52,17.52,0,0,1-9.19,9.86A6.87,6.87,0,0,1,1441.83,300.71Zm8.85-14.88a6,6,0,0,0-2.12.45,15,15,0,0,0-5.28,3.8c-3.28,3.52-4.69,7.77-3.08,9.27.75.7,2.11.73,3.75.09a16.6,16.6,0,0,0,8.71-9.34c.52-1.67.39-3-.35-3.73h0A2.34,2.34,0,0,0,1450.68,285.83Z" style="fill:#163150"/></g><g id="Group-7-Copy-19"><ellipse cx="1505.61" cy="290.65" rx="4.03" ry="8.35" transform="translate(84.6 866.91) rotate(-33)" style="fill:#532cb2"/><path d="M1509,298.64c-2.2,0-5.09-2.08-7.27-5.44a14.48,14.48,0,0,1-2.33-5.87c-.25-2,.23-3.5,1.35-4.23s2.69-.56,4.42.49a14.53,14.53,0,0,1,4.41,4.51c2.75,4.24,3.18,8.67,1,10.1h0A2.86,2.86,0,0,1,1509,298.64ZM1502.29,284a1.53,1.53,0,0,0-.87.24c-.67.43-1,1.52-.76,3a13.18,13.18,0,0,0,2.12,5.32c2.47,3.81,5.69,5.49,7,4.62s1.11-4.49-1.36-8.3a13.09,13.09,0,0,0-4-4.1A4.41,4.41,0,0,0,1502.29,284Z" style="fill:#163150"/><ellipse cx="1506.02" cy="290.24" rx="4.03" ry="8.35" transform="translate(84.89 867.06) rotate(-33)" style="fill:#532cb2"/><path d="M1509.34,298a5.36,5.36,0,0,1-2.69-.89,14.32,14.32,0,0,1-4.32-4.43c-2.66-4.1-3.13-8.36-1.06-9.7s5.77.81,8.43,4.91a14.14,14.14,0,0,1,2.28,5.75c.24,1.89-.19,3.29-1.22,4h0A2.62,2.62,0,0,1,1509.34,298Zm-6.65-14.69a1.82,1.82,0,0,0-1,.28c-1.67,1.08-1.09,5.06,1.27,8.7a13.56,13.56,0,0,0,4.09,4.19c1.35.82,2.57,1,3.33.51h0c.77-.5,1.1-1.69.9-3.26a13.48,13.48,0,0,0-2.17-5.44C1507.15,285.25,1504.49,283.26,1502.69,283.26Z" style="fill:#163150"/></g><g id="Group-7-Copy-20"><ellipse cx="1510.5" cy="324.09" rx="7.52" ry="3.63" transform="translate(644.17 1603.19) rotate(-68)" style="fill:#532cb2"/><path d="M1508.37,331.78a2.34,2.34,0,0,1-.91-.18c-2.19-.88-2.57-4.88-.87-9.09s4.75-6.82,7-5.93,2.57,4.88.87,9.09C1512.93,329.33,1510.43,331.78,1508.37,331.78Zm4.26-14.2c-1.4,0-3.58,2-5,5.37-1.53,3.79-1.11,7,.22,7.56s3.89-1.49,5.42-5.28,1.11-7-.22-7.56A1.23,1.23,0,0,0,1512.63,317.58Z" style="fill:#163150"/><ellipse cx="1511.01" cy="324.17" rx="7.52" ry="3.63" transform="translate(644.41 1603.72) rotate(-68)" style="fill:#532cb2"/><path d="M1508.9,331.6a2.31,2.31,0,0,1-.83-.15h0c-2.06-.84-2.38-4.68-.73-8.76s4.55-6.62,6.61-5.79c1,.41,1.65,1.58,1.76,3.28a14.15,14.15,0,0,1-4.09,10.12A4.22,4.22,0,0,1,1508.9,331.6Zm-.58-.76c.76.3,1.8-.07,2.86-1a12.26,12.26,0,0,0,2.89-4.41,12.13,12.13,0,0,0,1-5.18c-.09-1.42-.58-2.42-1.35-2.72-1.65-.67-4.29,1.81-5.75,5.43s-1.29,7.23.37,7.9Z" style="fill:#163150"/></g><g id="Group-7-Copy-21"><ellipse cx="1495.03" cy="345.66" rx="6.77" ry="3.27" transform="translate(-0.22 690.36) rotate(-26)" style="fill:#532cb2"/><path d="M1491.74,350.36c-1.57,0-2.78-.51-3.27-1.5h0c-.93-1.92,1.22-4.82,4.89-6.61s7.29-1.7,8.22.21c.48,1,.18,2.22-.83,3.51a11.89,11.89,0,0,1-4.06,3.1A11.68,11.68,0,0,1,1491.74,350.36Zm-2.32-2c.57,1.17,3.5,1.34,6.81-.27a10.83,10.83,0,0,0,3.69-2.81c.74-.93,1-1.8.71-2.38-.57-1.17-3.5-1.34-6.8.27s-5,4-4.41,5.19Z" style="fill:#163150"/><ellipse cx="1495.32" cy="346.38" rx="6.77" ry="3.27" transform="translate(-0.51 690.56) rotate(-26)" style="fill:#532cb2"/><path d="M1492,350.85c-1.47,0-2.59-.46-3-1.37s-.15-2.05.8-3.26a11.57,11.57,0,0,1,4-3c3.56-1.74,7-1.69,7.91.1s-1.23,4.57-4.79,6.3A11.49,11.49,0,0,1,1492,350.85Zm6.64-8.34a11,11,0,0,0-4.63,1.2,10.9,10.9,0,0,0-3.78,2.87c-.79,1-1.06,2-.74,2.64.71,1.44,4,1.37,7.12-.17s5.22-4.06,4.51-5.51C1500.79,342.85,1499.87,342.51,1498.65,342.51Z" style="fill:#163150"/></g><g id="Group-7-Copy-22"><ellipse cx="1468.1" cy="352.45" rx="2.94" ry="6.09" transform="translate(570.03 1566.14) rotate(-67)" style="fill:#532cb2"/><path d="M1470.94,356.53a10.93,10.93,0,0,1-4.17-.93c-3.39-1.44-5.46-4-4.71-5.71h0c.75-1.76,4-2,7.38-.58a10.68,10.68,0,0,1,3.8,2.6c1,1.1,1.29,2.21.91,3.11s-1.4,1.43-2.87,1.5Zm-8-6.27c-.46,1.07,1.16,3.17,4.2,4.46a9.59,9.59,0,0,0,4.09.85c1.07-.05,1.81-.39,2-.92s0-1.31-.75-2.11a9.59,9.59,0,0,0-3.45-2.35c-3-1.29-5.68-1-6.13.07Z" style="fill:#163150"/><ellipse cx="1467.79" cy="353.08" rx="2.94" ry="6.09" transform="translate(569.27 1566.22) rotate(-67)" style="fill:#532cb2"/><path d="M1470.62,357a10.67,10.67,0,0,1-4.08-.92,10.29,10.29,0,0,1-3.73-2.55c-.91-1-1.22-2.06-.87-2.88h0c.35-.83,1.3-1.32,2.68-1.38a11.46,11.46,0,0,1,8.14,3.45c.91,1,1.23,2.07.88,2.89s-1.31,1.31-2.69,1.38Zm-5.66-7.21h-.31c-1.15.05-2,.44-2.22,1.05h0a2.37,2.37,0,0,0,.78,2.33,9.82,9.82,0,0,0,3.53,2.41,10,10,0,0,0,4.19.87c1.15-.06,2-.44,2.22-1.06s0-1.46-.79-2.33a9.85,9.85,0,0,0-3.53-2.4A10.2,10.2,0,0,0,1465,349.74Z" style="fill:#163150"/></g><path d="M1447.38,417.53a65.3,65.3,0,0,1-16.52-2.19l-.19-.06-.14-.13c-8.16-7.63-27.89-36.73-21.25-79.22,6.9-44.11,33.23-64.53,46.18-69.16,14.83-5.31,47.43-4.41,59.21,21.62,12.8,28.27-1.55,53.82-13.61,63.28-7.77,6.1-20,11.93-31,10a21.52,21.52,0,0,1-15-10.23,24.83,24.83,0,0,1-2.6-22.26c2.8-7.88,8.87-13.54,13.42-15.07,5.35-1.8,14.34-1.51,16.59.53a1.69,1.69,0,0,1,.59,1.67c-.21.9-1.22,2.31-7.49,4.12-5.26,1.52-11.11,5.41-10.27,11.35.54,3.82,4.31,7.93,11.31,7.93,13.3,0,17.43-18.21,17.43-24.84,0-4.23-3.54-14.17-10.62-18.91-4.9-3.29-10.61-3.64-17-1-10.81,4.43-27,29.72-27.34,55.59-.18,16.85,6.23,39.82,37.83,53.57l1,.43-.7.82C1468.88,415.1,1457.09,417.53,1447.38,417.53Zm-15.91-3.68c5.29,1.43,29.49,6.89,43.81-8.72-31.53-14.14-38-37.45-37.78-54.61.3-27.44,17.26-52.51,28.34-57,6.89-2.82,13.1-2.42,18.48,1.19,7.9,5.3,11.32,16,11.32,20.24,0,7.06-4.51,26.44-19,26.44-7.95,0-12.26-4.83-12.89-9.31s2-10.39,11.4-13.1c6.2-1.79,6.38-2.94,6.38-2.95a1.14,1.14,0,0,0-.52-.39c-2.47-1.28-10-1.48-14.59.06-4.18,1.41-9.8,6.7-12.42,14.09a23.23,23.23,0,0,0,2.44,20.87,20,20,0,0,0,13.89,9.52c10.52,1.81,22.28-3.83,29.77-9.72,11.68-9.16,25.57-33.93,13.15-61.36-11.36-25.08-42.87-25.91-57.22-20.78-12.65,4.52-38.36,24.54-45.14,67.91a102.26,102.26,0,0,0,5.11,52.08C1420.78,400.85,1427.29,409.87,1431.47,413.85Z" style="fill:#163150"/></g><g id="Group-7-Copy-18"><ellipse cx="1476.65" cy="275.75" rx="4.03" ry="8.35" transform="translate(1149.54 1741.88) rotate(-88)" style="fill:#532cb2"/><path d="M1477.12,280.44h-.63a14.54,14.54,0,0,1-6.14-1.46c-1.79-.94-2.74-2.2-2.7-3.54s1.09-2.52,2.94-3.33a14.35,14.35,0,0,1,6.22-1,14.63,14.63,0,0,1,6.15,1.46c1.78.94,2.74,2.19,2.69,3.53h0c-.05,1.34-1.09,2.53-2.93,3.34A14.17,14.17,0,0,1,1477.12,280.44Zm-.95-8.08a13,13,0,0,0-5.06.93c-1.34.59-2.12,1.39-2.15,2.19s.7,1.65,2,2.33a13.26,13.26,0,0,0,5.58,1.32,13.47,13.47,0,0,0,5.66-.92c1.34-.59,2.13-1.39,2.16-2.19h0c0-.8-.7-1.65-2-2.34a13.41,13.41,0,0,0-5.58-1.31Z" style="fill:#163150"/><ellipse cx="1476.54" cy="275.18" rx="4.03" ry="8.35" transform="translate(1150 1741.22) rotate(-88)" style="fill:#532cb2"/><path d="M1477,279.59h-.64c-4.89-.17-8.65-2.24-8.56-4.7s4-4.26,8.87-4.09,8.64,2.23,8.55,4.7h0C1485.17,277.84,1481.61,279.59,1477,279.59Zm-.94-8.08c-4.08,0-7.46,1.5-7.53,3.39s3.53,3.8,7.85,4,8-1.4,8.11-3.39h0c.07-2-3.52-3.79-7.85-3.94Z" style="fill:#163150"/></g><g id="Group-7-Copy-23"><ellipse cx="1441.63" cy="523.87" rx="4.03" ry="8.35" transform="translate(-64.2 231.97) rotate(-9)" style="fill:#532cb2"/><path d="M1442.62,532.79c-1.19,0-2.39-.79-3.41-2.27a16,16,0,0,1-1.94-12.23c.58-1.93,1.63-3.11,3-3.32s2.69.59,3.84,2.24a14.46,14.46,0,0,1,2.2,5.92,14.71,14.71,0,0,1-.26,6.31c-.58,1.93-1.63,3.11-3,3.32Zm-2-16.54h-.2c-.79.13-1.49,1-1.91,2.41a14.74,14.74,0,0,0,1.76,11.1c.83,1.21,1.76,1.82,2.56,1.7s1.49-1,1.91-2.41a13.11,13.11,0,0,0,.22-5.72,13.28,13.28,0,0,0-2-5.38A3.3,3.3,0,0,0,1440.63,516.25Z" style="fill:#163150"/><ellipse cx="1441.1" cy="524.08" rx="4.03" ry="8.35" transform="translate(-64.24 231.89) rotate(-9)" style="fill:#532cb2"/><path d="M1442.09,532.72c-1.09,0-2.21-.75-3.18-2.15a15.74,15.74,0,0,1-1.9-12c.55-1.82,1.52-2.93,2.73-3.12h0c1.2-.19,2.47.56,3.55,2.12a14.41,14.41,0,0,1,2.15,5.8,14.27,14.27,0,0,1-.25,6.18c-.55,1.82-1.52,2.93-2.73,3.12A2.22,2.22,0,0,1,1442.09,532.72Zm-2-16.55-.25,0h0c-.9.15-1.68,1.1-2.14,2.61a15,15,0,0,0,1.8,11.35c.9,1.3,1.94,2,2.84,1.82s1.68-1.09,2.14-2.61a15,15,0,0,0-1.8-11.35A3.56,3.56,0,0,0,1440.1,516.17Z" style="fill:#163150"/></g><g id="Group-7-Copy-24"><ellipse cx="1440.06" cy="490.13" rx="8.35" ry="4.03" transform="translate(875.24 1902.56) rotate(-87)" style="fill:#532cb2"/><path d="M1439.72,499.12h-.13c-1.34-.07-2.51-1.13-3.29-3a14.72,14.72,0,0,1-.92-6.25,14.54,14.54,0,0,1,1.57-6.11c1-1.77,2.25-2.71,3.58-2.64h0c1.34.07,2.51,1.14,3.29,3a14.74,14.74,0,0,1,.92,6.25C1444.48,495.33,1442.29,499.12,1439.72,499.12Zm.68-16.68c-.78,0-1.62.71-2.31,1.95a13.38,13.38,0,0,0-1.4,5.56,13.14,13.14,0,0,0,.82,5.67c.56,1.35,1.35,2.15,2.15,2.2h.06c1.58,0,3.48-3.05,3.71-7.52a13.16,13.16,0,0,0-.82-5.67c-.56-1.35-1.35-2.15-2.15-2.19h-.06Z" style="fill:#163150"/><ellipse cx="1439.49" cy="490.23" rx="8.35" ry="4.03" transform="translate(874.6 1902.09) rotate(-87)" style="fill:#532cb2"/><path d="M1439.16,498.93H1439c-1.23-.06-2.3-1.06-3-2.81a14.29,14.29,0,0,1-.9-6.12,14.48,14.48,0,0,1,1.53-6c.92-1.66,2.08-2.54,3.32-2.48h0c1.22.07,2.3,1.07,3,2.82a15.78,15.78,0,0,1-.64,12.11C1441.47,498.06,1440.34,498.93,1439.16,498.93Zm.67-16.68c-.89,0-1.82.76-2.56,2.11a15,15,0,0,0-.6,11.47c.62,1.46,1.49,2.32,2.41,2.37s1.87-.72,2.63-2.1a14.92,14.92,0,0,0,.6-11.48c-.61-1.46-1.48-2.32-2.4-2.37h-.08Z" style="fill:#163150"/></g><g id="Group-7-Copy-25"><ellipse cx="1447.31" cy="453.64" rx="8.35" ry="4.03" transform="translate(367.29 1518.57) rotate(-62)" style="fill:#532cb2"/><path d="M1444.38,461.91a2.74,2.74,0,0,1-1.3-.31c-1.18-.63-1.79-2.09-1.71-4.11a15.94,15.94,0,0,1,5.81-10.93c1.62-1.19,3.17-1.5,4.36-.87s1.79,2.09,1.71,4.1a14.55,14.55,0,0,1-1.8,6C1449.48,459.54,1446.62,461.91,1444.38,461.91Zm5.84-15.23a4.08,4.08,0,0,0-2.27.94,14.78,14.78,0,0,0-5.28,9.93c-.06,1.46.32,2.52,1,2.89,1.42.76,4.47-1.2,6.6-5.21a13.37,13.37,0,0,0,1.66-5.49c0-1.46-.32-2.52-1-2.89h0A1.45,1.45,0,0,0,1450.22,446.68Z" style="fill:#163150"/><ellipse cx="1446.75" cy="453.5" rx="8.35" ry="4.03" transform="translate(367.13 1518) rotate(-62)" style="fill:#532cb2"/><path d="M1443.84,461.48a2.51,2.51,0,0,1-1.18-.29c-2.18-1.16-2.08-5.44.21-9.76s5.8-6.79,8-5.63h0c1.09.57,1.64,1.94,1.57,3.83a15.75,15.75,0,0,1-5.7,10.71A5,5,0,0,1,1443.84,461.48Zm5.82-15.24c-1.81,0-4.41,2.26-6.15,5.53-2,3.83-2.26,7.84-.51,8.78.81.43,2,.14,3.28-.8a13.5,13.5,0,0,0,3.71-4.53,13.71,13.71,0,0,0,1.69-5.62c.06-1.57-.37-2.73-1.18-3.16h0A1.8,1.8,0,0,0,1449.66,446.24Z" style="fill:#163150"/></g><g id="Group-7-Copy-26"><ellipse cx="1477.25" cy="428.97" rx="7.52" ry="3.63" transform="translate(-60.87 450.65) rotate(-17)" style="fill:#532cb2"/><path d="M1474.33,433.67c-2.48,0-4.37-.83-4.83-2.33-.69-2.26,2.17-5.07,6.52-6.4a13.24,13.24,0,0,1,5.66-.56c1.79.28,3,1.07,3.32,2.22.69,2.26-2.17,5.07-6.51,6.4A14.39,14.39,0,0,1,1474.33,433.67Zm5.86-8.22a13.49,13.49,0,0,0-3.83.61c-3.9,1.2-6.15,3.56-5.73,4.94s3.61,2.07,7.51.88,6.16-3.56,5.74-4.93c-.21-.69-1.08-1.2-2.38-1.41A9.19,9.19,0,0,0,1480.19,425.45Z" style="fill:#163150"/><ellipse cx="1476.99" cy="428.52" rx="7.52" ry="3.63" transform="translate(-60.75 450.56) rotate(-17)" style="fill:#532cb2"/><path d="M1474,433c-2.35,0-4.12-.76-4.55-2.14-.65-2.13,2.14-4.8,6.35-6.08s8-.63,8.66,1.49c.32,1-.19,2.27-1.45,3.43a12.73,12.73,0,0,1-4.9,2.65A14.35,14.35,0,0,1,1474,433Zm5.9-8.21a13.56,13.56,0,0,0-3.91.62c-3.73,1.14-6.43,3.54-5.91,5.25s4.11,2.2,7.84,1.06a12.13,12.13,0,0,0,4.64-2.5c1.05-1,1.51-2,1.27-2.76C1483.54,425.34,1482,424.75,1479.94,424.75Z" style="fill:#163150"/></g><g id="Group-7-Copy-27"><ellipse cx="1510.79" cy="426.64" rx="3.63" ry="7.52" transform="matrix(0.19, -0.98, 0.98, 0.19, 803.72, 1828.27)" style="fill:#532cb2"/><path d="M1512.91,431.07a15.7,15.7,0,0,1-2.92-.29,13.16,13.16,0,0,1-5.25-2.16c-1.46-1.09-2.13-2.34-1.9-3.53s1.32-2.09,3.08-2.55a14.33,14.33,0,0,1,10.93,2.13c1.46,1.08,2.13,2.33,1.9,3.52s-1.32,2.09-3.08,2.55A10.88,10.88,0,0,1,1512.91,431.07Zm-4.23-7.68a9.43,9.43,0,0,0-2.46.29c-1.28.33-2.09.93-2.23,1.64s.39,1.57,1.45,2.36a13.24,13.24,0,0,0,9.93,1.93c1.28-.34,2.09-.94,2.23-1.65h0c.13-.7-.39-1.56-1.45-2.35a11.86,11.86,0,0,0-4.78-1.95A14.1,14.1,0,0,0,1508.68,423.39Z" style="fill:#163150"/><ellipse cx="1510.78" cy="426.12" rx="3.63" ry="7.52" transform="translate(804.21 1827.83) rotate(-79)" style="fill:#532cb2"/><path d="M1512.91,430.3A15.72,15.72,0,0,1,1510,430c-4.32-.84-7.37-3.21-6.94-5.38s4.13-3.23,8.45-2.39,7.37,3.2,7,5.38h0C1518.15,429.29,1515.89,430.3,1512.91,430.3Zm-4.22-7.69c-2.65,0-4.71.82-5,2.14-.34,1.76,2.6,3.87,6.43,4.61s7.34-.11,7.68-1.86-2.6-3.87-6.42-4.62A14.57,14.57,0,0,0,1508.69,422.61Z" style="fill:#163150"/></g><g id="Group-7-Copy-28"><ellipse cx="1539.38" cy="443.2" rx="3.27" ry="6.77" transform="translate(15.34 936.58) rotate(-34)" style="fill:#532cb2"/><path d="M1542.15,449.62c-1.78,0-4.12-1.63-5.92-4.3-2.29-3.39-2.7-7-.93-8.17s4.93.54,7.22,3.93,2.7,7,.94,8.17h0A2.33,2.33,0,0,1,1542.15,449.62Zm-5.54-11.78a1.27,1.27,0,0,0-.72.19c-1.07.72-.84,3.65,1.22,6.7s4.68,4.37,5.75,3.64.84-3.65-1.21-6.7C1540,439.17,1537.89,437.84,1536.61,437.84Z" style="fill:#163150"/><ellipse cx="1539.69" cy="442.86" rx="3.27" ry="6.77" transform="translate(15.59 936.7) rotate(-34)" style="fill:#532cb2"/><path d="M1542.45,449.06a4.34,4.34,0,0,1-2.14-.69,11.45,11.45,0,0,1-3.57-3.52c-2.21-3.28-2.65-6.73-1-7.84.82-.56,2-.44,3.33.34a11.45,11.45,0,0,1,3.57,3.52,11.61,11.61,0,0,1,1.93,4.62c.22,1.52-.11,2.67-.94,3.22A2.08,2.08,0,0,1,1542.45,449.06Zm-5.51-11.8a1.48,1.48,0,0,0-.86.24c-1.34.9-.81,4.11,1.15,7a11.11,11.11,0,0,0,3.37,3.34c1.11.65,2.1.78,2.71.36h0c.62-.41.87-1.38.68-2.64a12.12,12.12,0,0,0-5.2-7.72A3.83,3.83,0,0,0,1536.94,437.26Z" style="fill:#163150"/></g><g id="Group-7-Copy-29"><ellipse cx="1547.92" cy="474.64" rx="6.09" ry="2.94" transform="translate(1019.54 2005.05) rotate(-88)" style="fill:#532cb2"/><path d="M1547.75,481.2h-.06c-1.92-.06-3.32-3-3.19-6.68a10.59,10.59,0,0,1,1.07-4.47c.68-1.3,1.58-2,2.57-2,1.92.07,3.32,3,3.19,6.68a10.6,10.6,0,0,1-1.07,4.48A3,3,0,0,1,1547.75,481.2Zm0-.95c.6,0,1.2-.51,1.7-1.45a9.84,9.84,0,0,0,1-4.07c.11-3.31-1.1-5.66-2.27-5.7-.59,0-1.2.51-1.7,1.46a9.8,9.8,0,0,0-1,4.07c-.11,3.3,1.1,5.65,2.27,5.69Z" style="fill:#163150"/><ellipse cx="1548.33" cy="474.56" rx="6.09" ry="2.94" transform="translate(1020.02 2005.38) rotate(-88)" style="fill:#532cb2"/><path d="M1548.17,480.91h-.06c-1.8-.06-3.11-2.9-3-6.46a10.4,10.4,0,0,1,1.05-4.39c.64-1.22,1.49-1.87,2.38-1.85,1.79.06,3.1,2.9,3,6.46a10.48,10.48,0,0,1-1,4.39C1549.86,480.26,1549,480.91,1548.17,480.91Zm.32-12.17c-.65,0-1.33.57-1.85,1.57a9.77,9.77,0,0,0-1,4.16c-.11,3.15,1,5.86,2.46,5.91h0c.66,0,1.33-.57,1.86-1.57a9.87,9.87,0,0,0,1-4.15c.11-3.16-1-5.87-2.47-5.92Z" style="fill:#163150"/></g><g id="Group-7-Copy-30"><ellipse cx="1542.28" cy="500.32" rx="5.48" ry="2.65" transform="translate(337.85 1585.82) rotate(-60)" style="fill:#532cb2"/><path d="M1540.25,505.67a1.83,1.83,0,0,1-.92-.24,2.7,2.7,0,0,1-1-2.72,10.48,10.48,0,0,1,4.06-7,2.72,2.72,0,0,1,2.88-.47c1.49.86,1.36,3.78-.29,6.65C1543.6,504.19,1541.71,505.67,1540.25,505.67Zm4.06-9.85a2.77,2.77,0,0,0-1.47.56,9.66,9.66,0,0,0-3.69,6.39c-.07,1,.15,1.66.61,1.92.9.52,3-.68,4.44-3.26s1.52-5,.61-5.49A1,1,0,0,0,1544.31,495.82Z" style="fill:#163150"/><ellipse cx="1542.65" cy="500.43" rx="5.48" ry="2.65" transform="translate(337.94 1586.18) rotate(-60)" style="fill:#532cb2"/><path d="M1540.62,505.61a1.62,1.62,0,0,1-.84-.22h0c-1.41-.81-1.25-3.63.36-6.41a9.41,9.41,0,0,1,2.68-3.05,2.13,2.13,0,0,1,3.63,2.1,9.46,9.46,0,0,1-1.3,3.85C1543.84,504.16,1542,505.61,1540.62,505.61ZM1540,505c1.13.64,3.27-.88,4.69-3.33A8.93,8.93,0,0,0,1546,498c.08-1-.17-1.79-.69-2.09a2.14,2.14,0,0,0-2.16.44,8.86,8.86,0,0,0-2.53,2.89c-1.42,2.45-1.66,5.08-.54,5.73Z" style="fill:#163150"/></g></g><g id="Path-214"><path d="M1296.2,535.34a.8.8,0,0,1,0-1.6c16.37,0,27.83-7.45,28.23-12.39.19-2.42-2.78-3.27-4.57-3.56a.8.8,0,1,1,.25-1.58c5.65.91,6,4,5.91,5.27C1325.51,527.89,1312.37,535.34,1296.2,535.34Z" style="fill:#163150"/></g><g id="Path-215"><path d="M1275.4,533.14c-11.52,0-23.93-1.08-32.61-3.31-7.51-1.94-12-4.58-13.38-7.84a.8.8,0,0,1,1.48-.61c1.14,2.73,5.4,5.12,12.3,6.9,19.42,5,54.76,3.86,60.52-.71a.8.8,0,0,1,1,1.26C1301.12,531.67,1288.87,533.14,1275.4,533.14Z" style="fill:#163150"/></g><g id="Path-216"><path d="M1445.13,551.05c-7.36,0-12-1.35-12.47-3.9-.46-2.29,2.54-4.45,8.24-5.93a.8.8,0,0,1,.4,1.55c-5.5,1.42-7.24,3.21-7.07,4.06.32,1.62,6.78,4.1,24.64,1.46a.8.8,0,0,1,.24,1.59A98.61,98.61,0,0,1,1445.13,551.05Z" style="fill:#163150"/></g><g id="Path-217"><path d="M1471.29,549.51a.8.8,0,0,1-.07-1.6,35.54,35.54,0,0,0,9.76-2.73.8.8,0,0,1,.6,1.48,36.82,36.82,0,0,1-10.22,2.84Z" style="fill:#163150"/></g><g id="Path-218"><path d="M1617.61,511.49c-3.55,0-7.34-.05-11.33-.1-4.45-.05-9-.11-13.84-.11a.8.8,0,1,1,0-1.6c4.8,0,9.4.06,13.86.11,17.15.21,30.69.38,36.17-3a.8.8,0,1,1,.83,1.37C1638.78,511,1629.57,511.49,1617.61,511.49Z" style="fill:#163150"/></g><g id="Path-219"><path d="M1455.22,421.4a.8.8,0,0,1-.1-1.6c5.84-.72,22.05-5,25.64-10.91,1.18-1.92,1.57-3.45,1.13-4.41s-1.43-1.41-3.12-1.71a.8.8,0,0,1-.65-.93.81.81,0,0,1,.92-.65c2.25.4,3.7,1.28,4.31,2.63.68,1.51.28,3.44-1.22,5.9-4.16,6.81-21.35,11-26.81,11.67Z" style="fill:#163150"/></g><g id="Path-220"><path d="M1430.87,419.36c-4.1,0-7.79-1.58-8.28-3.82-.22-1,0-2.77,4.06-3.83a.8.8,0,1,1,.41,1.54c-1.92.51-3.06,1.27-2.91,1.95.29,1.33,4.25,3.2,9.13,2.35a.8.8,0,0,1,.27,1.58A15.16,15.16,0,0,1,1430.87,419.36Z" style="fill:#163150"/></g></g><g id="island"><path id="path-26" d="M1923,1087.15H1151.11Q1464.27,917.84,1922,919,1922,1018,1923,1087.15Z" style="fill:#ffd166;fill-rule:evenodd"/><path d="M1923,1087.15H1151.11Q1464.27,917.84,1922,919,1922,1018,1923,1087.15Z" style="fill-rule:evenodd;opacity:.10000000149011612;fill:url(#pattern-27)"/><path d="M1924.52,1088.65H1151.11l-.71-2.82c104-56.24,221.67-98.91,349.68-126.84s270-41.88,421.89-41.49h1.5V919c0,65.68.35,122.25,1,168.13Zm-767.44-3h764.4c-.67-45.27-1-100.82-1-165.15-151.17-.32-292.4,13.64-419.75,41.42C1375.13,989.32,1259.55,1030.94,1157.08,1085.65Z" style="fill:#163150"/></g><g id="stars"><circle cx="1282.5" cy="1047" r="1" style="fill:#163150"/><path d="M1282.5,1048.25a1.25,1.25,0,1,1,1.25-1.25A1.25,1.25,0,0,1,1282.5,1048.25Zm0-2a.75.75,0,1,0,.75.75A.76.76,0,0,0,1282.5,1046.25Z" style="fill:#979797"/><g id="Group-34"><g id="Path-17"><path d="M1263.11,1054.25c3.88-2.73,10.65-6,13.93-9.69s8.19-3.52,12.16,1.27,10.74,3.93,13.09,6q-1.29,2.45-14.85,1.19,1.89,6.3-1.43,8.54c-3.46-.62-7-7.29-9-7.29S1259.23,1057,1263.11,1054.25Z" style="fill:#a682ff;fill-rule:evenodd"/><path d="M1286,1062h-.08c-2.06-.37-4-2.57-5.74-4.52-1.15-1.3-2.46-2.77-3.15-2.77-.48,0-1.9.18-3.54.39-8.6,1.07-11.06,1.09-11.45.09-.26-.66.49-1.19.77-1.39h0c1.27-.89,2.83-1.83,4.48-2.83,3.37-2,7.19-4.35,9.37-6.78a7.46,7.46,0,0,1,5.79-2.73c2.53,0,5,1.43,7.12,4,2.33,2.81,5.78,3.61,8.55,4.25,1.87.43,3.49.8,4.49,1.68a.5.5,0,0,1,.11.61c-.61,1.15-2.8,2.55-14.61,1.51,1.06,4,.45,6.86-1.83,8.4A.54.54,0,0,1,1286,1062Zm-9-8.29c1.14,0,2.36,1.37,3.9,3.11s3.3,3.72,5,4.15c1.85-1.39,2.21-4,1.06-7.87a.51.51,0,0,1,.09-.46.52.52,0,0,1,.43-.18c10,.93,13.16.15,14.08-.59a13.24,13.24,0,0,0-3.65-1.18c-2.92-.67-6.55-1.51-9.1-4.58-1.94-2.35-4.14-3.61-6.37-3.65a6.45,6.45,0,0,0-5,2.39c-2.27,2.54-6.16,4.9-9.59,7-1.64,1-3.18,1.93-4.42,2.8l-.27.21c1.36.39,7.3-.36,10.24-.73C1275.12,1053.93,1276.5,1053.75,1277,1053.75Z" style="fill:#163150"/></g><g id="Path-18"><path d="M1269.21,1045.94a21.43,21.43,0,0,0,7.83-1.38,30.73,30.73,0,0,1-5.76,4.71C1267.09,1047.05,1266.41,1045.94,1269.21,1045.94Z" style="fill:#9165ff;fill-rule:evenodd"/><path d="M1271.28,1049.77a.5.5,0,0,1-.24-.06c-3.55-1.88-4.17-2.74-4-3.43s1.2-.84,2.16-.84a19.6,19.6,0,0,0,6.88-1.1l.81-.26a.5.5,0,0,1,.51.81,31.07,31.07,0,0,1-5.86,4.8A.45.45,0,0,1,1271.28,1049.77Zm-3.2-3.21c.16.23.79.85,3.17,2.13a39.69,39.69,0,0,0,4-3,20.7,20.7,0,0,1-6,.78A3.61,3.61,0,0,0,1268.08,1046.56Z" style="fill:#163150"/></g></g><g id="Path-19"><path d="M1271.79,1061l1-3,2.82,2.44H1279l-1.58,2.31L1279,1065l-4-.89-2.23,1.86-1-2.43-3.29-1.78Z" style="fill:#f4d57a;fill-rule:evenodd"/><path d="M1272.76,1066.43h-.12a.49.49,0,0,1-.34-.3l-.91-2.27-3.13-1.69a.51.51,0,0,1-.26-.51.52.52,0,0,1,.4-.42l3-.62.89-2.76a.47.47,0,0,1,.34-.33.48.48,0,0,1,.46.1l2.67,2.32H1279a.5.5,0,0,1,.44.27.47.47,0,0,1,0,.51l-1.38,2,1.38,1.92a.48.48,0,0,1,0,.56.49.49,0,0,1-.52.22l-3.78-.84-2,1.71A.52.52,0,0,1,1272.76,1066.43Zm-2.82-4.5,2.09,1.13a.53.53,0,0,1,.22.25l.72,1.8,1.69-1.42a.52.52,0,0,1,.43-.11l2.75.61L1277,1063a.5.5,0,0,1,0-.57l1-1.53h-2.48a.5.5,0,0,1-.33-.12l-2.24-2-.75,2.32a.46.46,0,0,1-.37.33Z" style="fill:#163150"/></g><g id="Path-19-Copy"><path d="M1259.5,1060.3l.74-2.3,2.15,1.85H1265l-1.2,1.75,1.2,1.66-3.06-.67-1.7,1.41-.74-1.84-2.5-1.35Z" style="fill:#fbb444;fill-rule:evenodd"/><path d="M1260.24,1064.5h-.12a.53.53,0,0,1-.34-.3l-.67-1.68-2.35-1.26a.49.49,0,0,1,.14-.92l2.22-.47.65-2a.49.49,0,0,1,.34-.33.48.48,0,0,1,.46.1l2,1.73H1265a.5.5,0,0,1,.41.78l-1,1.46,1,1.38a.5.5,0,0,1-.52.78l-2.82-.62-1.51,1.25A.47.47,0,0,1,1260.24,1064.5Zm-1.79-3.48,1.29.7a.51.51,0,0,1,.23.25l.48,1.21,1.17-1a.5.5,0,0,1,.42-.11l1.79.39-.43-.6a.5.5,0,0,1,0-.58l.66-1h-1.66a.51.51,0,0,1-.33-.13l-1.57-1.35-.51,1.58a.49.49,0,0,1-.38.33Z" style="fill:#163150"/></g><circle cx="1282.5" cy="1046.5" r="1" style="fill:#163150"/><circle cx="1282.75" cy="1049.25" r="1" style="fill:#163150"/><circle id="Oval-Copy-12" cx="1277.5" cy="1047" r="1" style="fill:#163150"/><circle id="Oval-Copy-13" cx="1273.25" cy="1049.75" r="1" style="fill:#163150"/><circle id="Oval-Copy-14" cx="1267.75" cy="1052.75" r="1" style="fill:#163150"/><circle id="Oval-Copy-10" cx="1284" cy="1053.5" r="1" style="fill:#163150"/><circle id="Oval-Copy-11" cx="1285.5" cy="1058" r="1" style="fill:#163150"/></g><g id="Path-61-Copy"><path d="M1031,1080c22-11.11,128-33,196.07-30.92-57.86,26.84,21.15,6.68,36.2,9.88,9.23,21,105,9.93,198.1,23.57C1400.28,1124.65,1102.36,1086.53,1031,1080Z" style="fill-rule:evenodd;fill:url(#linear-gradient-3)"/><path d="M1331.76,1103.05q-22.35,0-48.16-1c-78.76-2.95-165.12-12-216.72-17.43-14.57-1.53-27.15-2.85-36-3.65a1,1,0,0,1-.89-.81,1,1,0,0,1,.53-1.08c22.7-11.47,128-33,196.55-31a1,1,0,0,1,.39,1.9c-18,8.35-20.13,11-20.31,11.71,1.62,1.53,16.47-.38,26.33-1.65,12.14-1.57,24.68-3.18,30-2.06a1,1,0,0,1,.71.58c5.16,11.77,41.15,13.07,86.71,14.72,33.79,1.23,72.08,2.61,110.61,8.26a1,1,0,0,1,.83.76,1,1,0,0,1-.4,1C1442.94,1096.45,1399.23,1103.05,1331.76,1103.05Zm-296.91-23.69c8.49.81,19.62,2,32.24,3.3,100.53,10.56,334.15,35.08,391.49.48-37.54-5.31-74.79-6.66-107.75-7.86-47.46-1.72-81.92-3-88.25-15.43-5.23-.86-17.21.68-28.81,2.17-19.6,2.52-27.66,3.25-28.53.24-.5-1.74.52-4.13,17.56-12.28-39.9-.64-86.29,6.32-110.89,10.62C1078.27,1066.47,1048.38,1073.79,1034.85,1079.36Z" style="fill:#163150"/></g><g id="jungle"><g style="mask:url(#mask)"><g id="palm"><path d="M1761.08,706.88l131-115.36s-64.4-44.63-131,115.36" style="fill:#059767;fill-rule:evenodd"/><path d="M1762,707.9l-2.16-1.55c19.85-47.7,52.44-107.18,95-119.64,22.74-6.67,37.45,3.27,38.06,3.69l1.44,1Zm108.07-120.72a51.52,51.52,0,0,0-14.61,2.18c-39.83,11.75-71,66.48-90.78,112.54l125.08-110.15A42.72,42.72,0,0,0,1870.06,587.18Z" style="fill:#163150"/><g id="Fill-3"><path d="M1770.18,712.34l-141-103.81s103.75-24,141,103.81" style="fill:#08aa75;fill-rule:evenodd"/><path d="M1772.62,715.83,1626,607.87l2.89-.67c.27-.06,26.66-6,57.26,4a113.15,113.15,0,0,1,47.29,30c16.7,17.55,29.5,41.34,38.06,70.71ZM1632.55,609.31l135.15,99.5c-8.4-27.12-20.57-49.18-36.19-65.62a110.48,110.48,0,0,0-46.09-29.36A118.08,118.08,0,0,0,1632.55,609.31Z" style="fill:#163150"/></g><path d="M1769.78,703.24l-79.64-146.55s86.63-5.35,79.64,146.55" style="fill:#059767;fill-rule:evenodd"/><path d="M1770.92,708.19l-83-152.73,2.14-.13c1-.07,25.48-1.31,47.59,20.46,25,24.6,36.27,67.5,33.5,127.51Zm-78.49-150.13,76.18,140.17c1.9-56.61-9.15-97.14-32.88-120.5C1718.24,560.51,1698.87,558.3,1692.43,558.06Z" style="fill:#163150"/><g id="Group-9"><g style="mask:url(#mask-2)"><g id="Fill-7"><path d="M1767.15,703.41l68.55-158.67s-86.34,10.82-68.55,158.67" style="fill:#059767;fill-rule:evenodd"/><path d="M1766.4,708.59l-.61-5c-4.08-33.9-3-63.39,3.24-87.68,5-19.51,13.32-35.72,24.72-48.19,19.48-21.31,40.88-24.21,41.79-24.33l2.37-.29Zm67-162c-6.14,1.42-22.75,6.58-37.8,23.12-17,18.7-35.39,56.1-27.7,128.48Z" style="fill:#163150"/></g></g></g><g id="Group-12"><g style="mask:url(#mask-3)"><g id="Fill-10"><path d="M1776.46,690.53l146.66-18.93s-84.95-51.35-146.66,18.93" style="fill:#08aa75;fill-rule:evenodd"/><path d="M1773.05,692.34l2.39-2.71c32.28-36.76,70.94-40,97.68-36.27a148.89,148.89,0,0,1,50.7,17.08l3.35,2Zm82.53-37.51c-29.36,0-54.73,11.35-75.63,33.87l138.83-17.91a149,149,0,0,0-46.13-14.74A124,124,0,0,0,1855.58,654.83Z" style="fill:#163150"/></g></g></g><path d="M1778.37,714.16,1611,701.89s65.91-72.1,167.37,12.27" style="fill:#059767;fill-rule:evenodd"/><path d="M1782.51,715.83,1608.09,703,1610,701c.69-.75,17.09-18.41,46.31-25.91,17.15-4.39,35.13-4.31,53.44.27,22.82,5.69,46.2,18.4,69.5,37.78Zm-168.4-15.08,160.05,11.73c-21.84-17.55-43.69-29.15-65-34.48a105.22,105.22,0,0,0-52.07-.33A101.87,101.87,0,0,0,1614.11,700.75Z" style="fill:#163150"/><path d="M1765.63,692.76l144.63,45.07s-13.55-64.29-117.57-49.75c-8.43,1.18-17.48,2.42-27.06,4.68" style="fill:#059767;fill-rule:evenodd"/><path d="M1912.08,739.82l-151.62-47.24,4.86-1.15c9.34-2.2,18-3.42,26.37-4.59l.81-.11c29.94-4.19,71.4-4.16,98.88,19.74,16.54,14.39,20.07,30.4,20.22,31.08ZM1770.94,693l137.31,42.78a63.26,63.26,0,0,0-18.8-27.36c-26.71-23.11-67.26-23.08-96.57-19l-.81.12C1785.28,690.5,1778.3,691.47,1770.94,693Z" style="fill:#163150"/><path d="M1770.18,695c-.29-.06,121.08,111.07,121.08,111.07S1916.91,727,1770.18,695" style="fill:#08aa75;fill-rule:evenodd"/><path d="M1891.9,808.55l-1.57-1.44-60.56-55.48c-15.14-13.87-30.28-27.75-41.63-38.17l-13.7-12.6-3.84-3.55c-1.84-1.7-2.12-2-1.63-2.9l.48-.92,1,.22c58.74,12.8,97.25,34.51,114.49,64.52,14.7,25.59,7.89,47.38,7.59,48.3ZM1774.8,697.48c15.78,14.56,79.11,72.58,115.69,106.07,1.27-6,3.6-24-7.94-44C1866.18,731.07,1829.93,710.21,1774.8,697.48Z" style="fill:#163150"/><path d="M1777.46,704.38,1633.74,797s16.53-98.21,143.72-92.62" style="fill:#08aa75;fill-rule:evenodd"/><path d="M1631.88,799.82l.51-3c0-.25,4.43-25.2,24.47-49.06,18.47-22,54.41-47.62,120.66-44.71l4.28.19Zm135.34-94.31c-24.64,0-46.57,4.11-65.33,12.23a114.79,114.79,0,0,0-66.1,76.32l137.27-88.47C1771.1,705.54,1769.15,705.51,1767.22,705.51Z" style="fill:#163150"/><path d="M1764.72,701.41l-82,163.87s-40.66-78,60.69-150.09q9.75-6.93,21.3-13.78" style="fill:#059767;fill-rule:evenodd"/><path d="M1682.76,868.28l-1.24-2.37c-.42-.81-10.32-20.18-7.81-48.76,4.18-47.65,39.79-82.35,68.92-103.07,6.63-4.72,13.83-9.37,21.4-13.84l4-2.35ZM1761.4,705c-6,3.68-11.8,7.47-17.19,11.3-28.62,20.36-63.61,54.4-67.77,100.94a97.34,97.34,0,0,0,6.36,44.86Z" style="fill:#163150"/><path d="M1759.27,691.4l88,175.7s31.77-103.3-88-175.7" style="fill:#059767;fill-rule:evenodd"/><path d="M1847.63,870.75l-91.7-183,4,2.44c27.5,16.62,49.27,36.26,64.72,58.39a153,153,0,0,1,24.88,57.51c7,34.81-.86,61.11-.94,61.37Zm-85-175.67L1846.9,863.2a140,140,0,0,0,0-56.67,150.07,150.07,0,0,0-24.46-56.43C1807.94,729.42,1787.85,710.93,1762.64,695.08Z" style="fill:#163150"/><path d="M1756.25,706.13s5.11,88.64-31.25,176c-43.46,104.4-14.49,181.59-14.49,181.59h57.68s-42.23-60.92-15.5-152.62c31.42-107.76,26.27-207,26.27-207Z" style="fill:#ae723b;fill-rule:evenodd"/><path d="M1770.8,1065.1h-61.24l-.33-.89c-.08-.19-7.34-19.86-9.14-52.05-1.66-29.65,1.1-76.37,23.65-130.54,35.81-86.06,31.2-174.53,31.15-175.41l-.08-1.33,25.44-2.22.08,1.42c.05,1,4.79,100.67-26.33,207.41-13.72,47.06-8.81,85.77-2.27,110,7.08,26.17,17.48,41.36,17.58,41.51Zm-59.33-2.73h54.22c-3.12-5.08-10.85-19-16.59-40.21-6.63-24.52-11.62-63.76,2.28-111.43,29-99.4,26.74-192.6,26.28-205.1l-20,1.74c.43,11.42,2.25,94.41-31.42,175.3-22.34,53.69-25.07,100-23.43,129.34C1704.38,1040,1710.08,1058.25,1711.47,1062.37Z" style="fill:#163150"/><g style="opacity:.1462286114692688;isolation:isolate"><path d="M1746.53,1007a199.64,199.64,0,0,1-3.15-30.56c-13.93-6.79-27.72-13.49-39.49-19.22a279.05,279.05,0,0,0-1.79,63.73c12.68-4,29.09-9.15,44.43-14" style="fill:#6d4e2d;fill-rule:evenodd"/></g><g style="opacity:.1462286114692688;isolation:isolate"><path d="M1754,910.74c.26-.91.49-1.81.74-2.71-10.5-7.22-21-14.44-30.44-20.9a333.71,333.71,0,0,0-16,56.48c11.72.77,25.17,1.72,38.54,2.69a237.12,237.12,0,0,1,7.11-35.56" style="fill:#6d4e2d;fill-rule:evenodd"/></g><g style="opacity:.1462286114692688;isolation:isolate"><path d="M1711.28,1063.73h57.08a108.14,108.14,0,0,1-8.14-15.08c-20.46-4.82-40-9.43-55.53-13.14,2.76,18,6.59,28.22,6.59,28.22" style="fill:#6d4e2d;fill-rule:evenodd"/></g><g id="Fill-35" style="opacity:.1462286114692688;isolation:isolate"><path d="M1779.28,751.71l-22.63-3.87c-.45,6.16-1.08,12.86-1.93,20,8.44-2.32,16.76-4.57,24-6.51.22-3.34.4-6.56.56-9.65" style="fill:#6d4e2d;fill-rule:evenodd"/></g><g id="Fill-37" style="opacity:.1462286114692688;isolation:isolate"><path d="M1768.36,849.12c-9.31-5-18.42-9.79-26.16-13.88-3.06,11.32-6.75,22.91-11.13,34.56l32.28,3.67q2.81-12.39,5-24.35" style="fill:#6d4e2d;fill-rule:evenodd"/></g><g id="Fill-39" style="opacity:.1462286114692688;isolation:isolate"><path d="M1773.82,801l-24.35-4.89c-1.32,7.63-2.9,15.55-4.76,23.67l27.11-2.86q1.11-8.14,2-15.92" style="fill:#6d4e2d;fill-rule:evenodd"/></g><g id="Group-43"><g style="mask:url(#mask-4)"><g id="Fill-41"><g id="path-38"><path d="M1781.3,1066.16h-87.23a4.31,4.31,0,0,1,0-8.57h87.23a4.31,4.31,0,0,1,0,8.57" style="fill:#f3c65c;fill-rule:evenodd"/></g><g style="opacity:.10000000149011612"><g style="clip-path:url(#clip-path)"><rect width="126.25" height="126.25" x="1716.01" y="1047.23" style="fill:none"/><rect width="126.25" height="126.25" x="1589.76" y="1047.23" style="fill:none"/></g></g></g></g></g><path d="M1740.78,696a19.12,19.12,0,1,0,20.27,17.87A19.11,19.11,0,0,0,1740.78,696" style="fill:#91523a;fill-rule:evenodd"/><path d="M1742,735.55a20.48,20.48,0,0,1-1.27-40.92h0a20.48,20.48,0,0,1,2.59,40.88C1742.83,735.54,1742.39,735.55,1742,735.55Zm-1.09-38.2a17.74,17.74,0,1,0,12.84,4.4,17.78,17.78,0,0,0-12.84-4.4Z" style="fill:#163150"/><g id="Fill-46"><path d="M1750.78,672.32a19.12,19.12,0,1,0,20.27,17.87,19.11,19.11,0,0,0-20.27-17.87" style="fill:#a35e44;fill-rule:evenodd"/><path d="M1752,711.88A20.48,20.48,0,0,1,1750.7,671h0a20.48,20.48,0,0,1,2.58,40.88C1752.84,711.87,1752.41,711.88,1752,711.88Zm-1.11-38.2a17.76,17.76,0,1,0,18.82,16.6,17.77,17.77,0,0,0-18.82-16.6Z" style="fill:#163150"/></g><g id="Fill-48"><path d="M1774.43,696a19.12,19.12,0,1,0,20.27,17.87A19.11,19.11,0,0,0,1774.43,696" style="fill:#91523a;fill-rule:evenodd"/><path d="M1775.61,735.55a20.48,20.48,0,0,1-1.26-40.92h0a20.48,20.48,0,0,1,2.58,40.88C1776.49,735.54,1776,735.55,1775.61,735.55Zm-1.09-38.2a17.76,17.76,0,0,0-10.6,31,17.57,17.57,0,0,0,12.84,4.4,17.76,17.76,0,0,0-2.24-35.44Z" style="fill:#163150"/></g><g id="Fill-50"><path d="M1783.53,672.32a19.12,19.12,0,1,0,20.27,17.88,19.12,19.12,0,0,0-20.27-17.88" style="fill:#a35e44;fill-rule:evenodd"/><path d="M1784.7,711.88a20.47,20.47,0,0,1-20.39-19.18A20.47,20.47,0,1,1,1786,711.84C1785.58,711.87,1785.14,711.88,1784.7,711.88Zm0-38.23-1.13,0a17.76,17.76,0,0,0-10.6,31,17.58,17.58,0,0,0,12.84,4.4,17.75,17.75,0,0,0-1.11-35.47Z" style="fill:#163150"/></g></g><g id="Group-7-Copy"><path d="M1870.86,759.07c-10.7,11.82-22.46,69.17-20.68,82.29h0c10.7-6,42.43-6,46-3.19h0c-16.4-1.42-44.21,14.18-44.21,14.18h0s2.85,29.44,10,42.92h0c16-19.86,47.07-25.18,53.48-24.12h0c-27.81,6-46.7,37.6-46.7,37.6h0s22.1,32.64,43.85,42.57h0c10.34-14.19,34.94-32.28,39.22-30.51h0c-12.12,6.74-27.81,38.31-27.81,38.31h0s37.89,18.48,75.36,18.56h.48a92.91,92.91,0,0,0,20.78-2.24h0c8.55-34.05,6.59-78.57,6.59-78.57h0s-31,5-38.32,11.17h0c5-10.81,37-25.3,37-25.3h0s-18.78-36.41-34-50.84h0c-17.35,4.26-30.9,20.57-37.56,28.62h0c4.28-12.54,24-35.24,29.24-38.08h0c-7.84-8.28-39-33.34-39-33.34h0l-25.2,14.42s2.14-7.56,9.27-21h0C1908.65,770.42,1870.86,759.07,1870.86,759.07Z" style="fill:#028355;fill-rule:evenodd"/><path d="M1999.82,978.68h-.48c-37.27-.08-75.42-18.47-75.8-18.66a1,1,0,0,1-.51-.58,1.05,1.05,0,0,1,0-.76c.58-1.16,12.78-25.55,24.09-35.7-8.16,4.1-25.15,17.07-33.79,28.93a1,1,0,0,1-1.22.32c-9.15-4.18-19.39-12.68-30.42-25.26a202.73,202.73,0,0,1-13.85-17.66,1,1,0,0,1,0-1.07,108.53,108.53,0,0,1,13.06-16.71c6.2-6.55,15.45-14.57,26.62-19-11.76,1.74-32.58,8.22-44.82,23.37a1,1,0,0,1-.87.37,1,1,0,0,1-.79-.53c-7.14-13.5-10-42.08-10.09-43.29a1,1,0,0,1,.5-1c1-.54,20.6-11.47,36.62-13.92-10.62-.75-29.37.13-37.42,4.67a1,1,0,0,1-1.48-.74c-1.91-14,10.28-71.32,20.93-83.1a1,1,0,0,1,1-.28c.38.11,38.14,11.52,58,23.51a1,1,0,0,1,.37,1.32,148.07,148.07,0,0,0-8.38,18.41L1944,788.23a1,1,0,0,1,1.13.09c1.27,1,31.28,25.2,39.08,33.43a1,1,0,0,1,.26.85,1,1,0,0,1-.51.72c-4,2.18-18.56,18.29-25.65,30.86,7.47-8.48,19.09-19.78,33.25-23.25a1,1,0,0,1,.93.24c15.16,14.38,33.42,49.62,34.18,51.12a1,1,0,0,1,.06.78,1,1,0,0,1-.53.58c-.28.13-25,11.39-33.89,21.16,10.91-5.08,33.58-8.75,34.68-8.93a1,1,0,0,1,.79.21,1,1,0,0,1,.37.74c0,.44,1.87,45-6.62,78.85a1,1,0,0,1-.75.73A93.75,93.75,0,0,1,1999.82,978.68Zm-74.48-20c6,2.77,40.4,18,74,18h.48a92.13,92.13,0,0,0,20-2.08c7.52-30.44,6.69-69.45,6.46-76.56-5.59,1-30.47,5.46-36.72,10.77a1,1,0,0,1-1.25,0,1,1,0,0,1-.3-1.21c4.65-10.09,31-22.79,36.49-25.35-3-5.71-19.41-36.18-32.9-49.27-16.84,4.39-30.09,20.41-36.49,28.14a1,1,0,0,1-1.26.24,1,1,0,0,1-.46-1.2c4.05-11.87,21.82-33,28.61-37.92-8.21-8.23-33.51-28.74-37.51-32l-24.6,14.08a1,1,0,0,1-1.46-1.14c.09-.31,2.16-7.51,8.91-20.4-18.41-10.84-51.19-21.13-56.1-22.64-9.69,11.82-21.06,64.21-20.15,79.6,11.65-5.26,41.73-5.63,45.75-2.43a1,1,0,0,1,.31,1.16,1,1,0,0,1-1,.62c-14.64-1.24-39,11.56-43,13.75.45,4.25,3.22,28.05,9.13,40.55,16.71-19.4,47.28-24.32,53.43-23.29a1,1,0,0,1,0,2c-14.11,3.06-25.88,13-33.26,20.77a108.9,108.9,0,0,0-12.45,15.82c2.93,4.2,22.83,32,42.34,41.35,10.27-13.62,34.84-32.27,39.91-30.18a1,1,0,0,1,.1,1.8C1941.7,927.57,1928,953.45,1925.34,958.66Z" style="fill:#163150"/></g><path d="M2121.23,751c-7.64.06-15.31,3.16-22.43,6.35-18.74,8.4-37.29,17.91-52.64,31.54s-27.41,31.87-30.16,52.21c-1.64,12.14-.19,25.41-6.84,35.7-3.56,5.52-9.06,9.45-14.43,13.24-10.29,7.27-20.87,14.68-33.07,17.83-9.31,2.4-19.08,2.19-28.6,3.55-39.64,5.66-72.64,42-74.48,81.92-.4,8.77-.63,19.65-8.56,23.45-5.88,2.81-12.72-.13-19.2-.89q-62.1,3.71-58.46,69.1H2132V751.35l-4.67.31a25.37,25.37,0,0,0-5.67-.66Z" style="fill:#028355;fill-rule:evenodd"/><path d="M2133,1086H1771.42l-.06-.94c-2.45-44.06,17.54-67.66,59.4-70.16h.18c1.82.21,3.68.6,5.49,1,4.73,1,9.2,1.9,13.15,0,7.14-3.42,7.58-13.16,8-21.76l0-.84c.9-19.56,9.18-38.9,23.33-54.45s32.61-25.64,52-28.41c3.6-.52,7.28-.81,10.84-1.1a103.1,103.1,0,0,0,17.65-2.43c12.18-3.14,22.63-10.53,32.74-17.67,5-3.54,10.66-7.55,14.17-13,4.67-7.22,5.24-16.25,5.79-25,.22-3.39.44-6.91.9-10.29,2.55-18.88,13.37-37.64,30.48-52.83,16-14.23,35.74-24,52.9-31.7,6.88-3.09,14.89-6.38,22.83-6.44h.44a26.94,26.94,0,0,1,5.75.65l5.59-.37Zm-359.69-2H2131V752.42l-3.75.25-.14,0a24.94,24.94,0,0,0-5.45-.63h-.43c-7.55.06-15.33,3.26-22,6.26-17,7.63-36.56,17.33-52.39,31.38-16.75,14.87-27.35,33.19-29.83,51.6-.45,3.31-.67,6.79-.88,10.15-.57,9-1.15,18.28-6.11,26-3.72,5.75-9.55,9.88-14.7,13.52-9.77,6.91-20.86,14.74-33.39,18-5.9,1.52-12.05,2-18,2.49-3.53.28-7.18.57-10.72,1.08-18.94,2.7-37,12.57-50.81,27.78s-21.93,34.1-22.81,53.19l0,.84c-.39,8.7-.87,19.54-9.09,23.47-4.57,2.19-9.58,1.15-14.43.15-1.73-.36-3.52-.73-5.23-.94-20.27,1.23-35.37,7.54-44.87,18.77S1772.29,1063,1773.31,1084Z" style="fill:#163150"/><g id="Group-25-Copy-3"><path d="M1930.2,834.4c-.93,6.44.51,13,2.39,19.21h0c8.23,27.29,24.72,51.21,41,74.63h0A104.52,104.52,0,0,0,1940.23,907h0c-5.09-2-12.35-2.84-14.66,2.11h0c-1.79,3.83,1,8.15,3.68,11.39h0a200,200,0,0,0,22,22.45h0A115.87,115.87,0,0,0,1878,931.19h0c-9.23,1.61-20.81,4.51-24.54,14.29h0c-3.85,10.09,3.85,20,12,25.08h0c13.09,8.05,29.07,9.89,43.76,13.17h0a182.62,182.62,0,0,0,48.3,4.7h0c-22.35,1-41.79-1.76-62.47,6.75h0c-5.14,2.12-10.83,5.76-10.92,11.34h0c-.07,4.11,3.22,7.7,7,9.26h0c3.82,1.56,8.07,1.51,12.18,1.37h0c18.74-.66,55.33-9.15,55.33-9.15h0s-32.3,9.82-28.08,17.24h0c5.43,9.56,53.88-14.25,53.88-14.25h0L2049,971.7a79.36,79.36,0,0,0,38.34-38.35h0c1.08-2.34,1.65-5.85-.72-6.87h0c-1.26-.54-2.69,0-3.92.59h0a83.68,83.68,0,0,0-15.29,9.3h0c6.67-9.27,13.34-18.57,19.1-28.44h0c6.85-11.72,12.44-26.1,7.07-38.61h0a9,9,0,0,0-3.38-4.41h0c-2.82-1.65-6.38-.48-9.33.89h0A87.1,87.1,0,0,0,2041.53,903h0c7.83-21.38,16.18-48.91,3.27-49.27h0c-19.86-.55-27.72,51.41-30.07,60.65h0a85.66,85.66,0,0,0-10.64-57.45h0A85.54,85.54,0,0,0,1958.82,820h0c-5.82-2-12.35-3.34-18-.93h0c-.31.13-.61.28-.91.43h0c-5.44,2.77-8.82,8.8-9.7,14.9" style="fill:#009a63;fill-rule:evenodd"/><path d="M1936.56,1028.41c-3.29,0-5.74-.78-6.82-2.67a3.88,3.88,0,0,1-.2-3.44c1.48-3.69,8.37-7.41,15.07-10.26-12.39,2.51-30,5.71-41.22,6.11-4.39.15-8.67.16-12.58-1.44s-7.73-5.36-7.65-10.21,4.07-9.17,11.54-12.24c10.88-4.48,21.43-5.88,32.17-6.33q-8.68-1.18-17.84-3.22c-2.92-.66-6-1.26-8.89-1.85-12.07-2.42-24.55-4.91-35.17-11.45-8.77-5.4-16.41-15.93-12.46-26.28,3.79-9.92,14.92-13.11,25.3-14.92a116.11,116.11,0,0,1,67.49,8.71,202.05,202.05,0,0,1-16.82-17.8c-4.15-5-5.4-9-3.82-12.45,2.43-5.21,9.76-5.07,15.93-2.62a106.52,106.52,0,0,1,27.56,16.12c-14.6-21.16-29-43.2-36.52-68.27-1.76-5.83-3.42-12.72-2.42-19.64s4.92-12.94,10.24-15.65c.32-.17.64-.32,1-.46,6.46-2.75,13.78-.8,18.72.91a85.61,85.61,0,0,1,57.75,80.58c4.26-18.81,12.42-46.93,27.59-46.93h.35a6.82,6.82,0,0,1,5.78,3c3.63,5.36,2,17.79-5,38.83a87.3,87.3,0,0,1,34.92-29.65c2.8-1.3,6.92-2.8,10.25-.84a10,10,0,0,1,3.8,4.88c4.55,10.59,2.22,23.51-7.12,39.51-4.77,8.17-10.22,16-15.67,23.64a85.29,85.29,0,0,1,10.56-5.91c1.53-.72,3.16-1.29,4.74-.61a3.54,3.54,0,0,1,1.94,2c.72,1.87.11,4.41-.7,6.17a80.86,80.86,0,0,1-38.78,38.82l-64.5,39.25C1980.85,1013.89,1950.79,1028.41,1936.56,1028.41Zm22.13-21.41a1,1,0,0,1,.29,2c-7,2.12-25.46,8.77-27.58,14.09a1.87,1.87,0,0,0,.08,1.71c3.62,6.36,34.16-5.62,52.56-14.66l64.48-39.24.1-.06a78.72,78.72,0,0,0,37.85-37.86c.66-1.43,1.12-3.41.65-4.62a1.52,1.52,0,0,0-.86-.91c-.85-.37-2,.06-3.1.58a82.7,82.7,0,0,0-15.1,9.18,1,1,0,0,1-1.31-.07,1,1,0,0,1-.11-1.3c6.54-9.11,13.31-18.52,19.05-28.36,9-15.41,11.29-27.75,7-37.71a7.89,7.89,0,0,0-3-4c-2.52-1.48-6-.17-8.4.94a85.92,85.92,0,0,0-38.92,36.75,1,1,0,0,1-1.82-.82c3.42-9.34,13.82-37.76,8.36-45.81a4.85,4.85,0,0,0-4.18-2.12h-.28c-16.29,0-24.49,39.48-27.59,54.39-.5,2.4-.9,4.3-1.2,5.51a1,1,0,0,1-2-.42A83.74,83.74,0,0,0,1958.49,821c-4.63-1.6-11.47-3.44-17.29-1l-.85.4c-4.74,2.42-8.25,7.84-9.16,14.15h0c-1,6.54.66,13.16,2.36,18.78,8.26,27.4,24.82,51.27,40.83,74.35a1,1,0,0,1-1.5,1.29,104.49,104.49,0,0,0-33-21.05c-4-1.57-11.24-3-13.38,1.6-1.23,2.63-.07,6,3.54,10.33a199.78,199.78,0,0,0,21.87,22.34,1,1,0,0,1-1.13,1.64,114.25,114.25,0,0,0-72.6-11.64c-9.84,1.71-20.35,4.67-23.78,13.66-3.54,9.29,3.55,18.88,11.64,23.87,10.32,6.35,22.61,8.81,34.51,11.19,3,.59,6,1.2,8.94,1.85,17.11,3.82,32.81,5.35,48,4.68h0a1,1,0,0,1,1,1,1,1,0,0,1-1,1c-5.59.25-11,.27-16.28.29-15.69,0-30.51.08-45.85,6.4-4.65,1.91-10.22,5.28-10.3,10.42-.07,3.89,3.27,7.05,6.4,8.33,3.55,1.45,7.59,1.43,11.76,1.29,18.43-.65,54.78-9,55.14-9.13A.9.9,0,0,1,1958.69,1007ZM1930.2,834.4h0Z" style="fill:#163150"/><g style="mask:url(#mask-5)"><path d="M1880.69,953.8c21.14-1,42.07,2.34,62.32,8.36h0c19.83,5.9,38.41,14.63,57.7,21.93h0c.68.26,1.22-.83.56-1.17h0c-36.55-18.36-79.31-33.1-120.65-30h0a.32.32,0,0,0-.14,0h0c-.36.18-.26.9.21.88" style="fill:#163150;fill-rule:evenodd"/></g><g style="mask:url(#mask-6)"><path d="M1916.76,1005.33a337.26,337.26,0,0,1,39-6.34h0c14-1.42,28-1.13,42-2h0a.53.53,0,0,0,.06-1h0c-26.66-2.73-55.46,2.12-81.29,8.09h0a.44.44,0,0,0-.16.06h0a.65.65,0,0,0,.42,1.21" style="fill:#163150;fill-rule:evenodd"/></g></g><path d="M1781.23,891.69c-4.15,5.87-6,13-7.29,20.11h0c-5.59,31-1.35,62.77,2.91,94h0a115.51,115.51,0,0,0-22.19-37.62h0c-4-4.54-10.74-9-15.51-5.27h0c-3.68,2.87-3.13,8.5-2.09,13h0a221.46,221.46,0,0,0,10.39,33.11h0a128.14,128.14,0,0,0-66.3-48.28h0c-9.9-3-22.77-6-31.37,1.77h0c-8.86,8-6.26,21.63-.71,30.7h0c8.85,14.49,23.68,24.31,36.51,34.9h0c14,11.51,28.75,21.34,45.25,28.83h0c-22.53-10.23-40.31-22.68-65-24.67h0c-6.14-.49-13.56.23-16.46,5.68h0c-2.13,4-.7,9.19,2.27,12.63h0c3,3.45,7.19,5.53,11.32,7.45h0c18.8,8.74,59.13,18.73,59.13,18.73h0s-36.76-6.52-36.33,2.9h0c.55,12.11,60.26,13,60.26,13h0l83.36-6.29a87.92,87.92,0,0,0,57.06-18.52h0c2.24-1.76,4.56-4.93,2.74-7.12h0c-1-1.16-2.65-1.33-4.16-1.38h0a93.28,93.28,0,0,0-19.74,1.48h0c11.23-5.78,22.48-11.57,33.11-18.39h0c12.64-8.11,25.37-19.45,26.36-34.45h0a9.94,9.94,0,0,0-1.12-6h0c-2-3-6.05-3.66-9.64-3.8h0a96.51,96.51,0,0,0-57.49,16.85h0c18.45-17.12,40.52-40,28-46.84h0c-19.31-10.5-53.15,36.68-60.11,44.59h0a94.42,94.42,0,0,0,18.37-61.85h0a94.4,94.4,0,0,0-26.09-59h0c-4.73-4.89-10.5-9.47-17.28-9.94h0l-1.11,0h0c-6.76,0-13.12,4.23-17,9.79" style="fill:#009a63;fill-rule:evenodd"/><path d="M1746.13,1093.64c-6.3-.09-60.77-1.25-61.34-13.94a4.13,4.13,0,0,1,1.49-3.39c3.42-3,12.67-3.09,21-2.44-13.52-3.74-33.19-9.59-44.69-14.93-4.41-2-8.61-4.18-11.65-7.7s-4.9-9.07-2.4-13.76,8.56-6.91,17.42-6.2c13.4,1.08,24.81,5.22,36,10.4-5.65-3.86-11.28-8.12-17-12.8-2.56-2.11-5.25-4.23-7.85-6.28-10.68-8.42-21.71-17.12-28.89-28.87-5.9-9.67-8.14-23.8.9-32,8.68-7.82,21.21-5.39,32.33-2a128.44,128.44,0,0,1,62.5,42.87,224.87,224.87,0,0,1-7.86-26.53c-1.58-6.94-.78-11.54,2.46-14.06,5-3.86,12-.07,16.87,5.39a117.59,117.59,0,0,1,19.35,30.33c-3.8-28.36-7-57.48-1.81-86.17,1.2-6.61,3-14.21,7.46-20.5s11.3-10.22,17.87-10.22c.39,0,.78,0,1.18,0,7.71.53,13.92,6.1,17.93,10.24a94.33,94.33,0,0,1,16,108.93c13.67-16.48,36.47-41.07,51.57-32.85a7.4,7.4,0,0,1,4.14,5.77c.9,7.14-7.08,18.7-25,36.12a96.73,96.73,0,0,1,49.92-12c3.39.12,8.17.7,10.45,4.25a11,11,0,0,1,1.28,6.65c-.84,12.66-9.61,24.18-26.82,35.22-9,5.75-18.46,10.82-27.81,15.66a94,94,0,0,1,13.93-.59c1.84.06,3.71.31,4.9,1.74a3.78,3.78,0,0,1,.86,2.9c-.23,2.17-2.09,4.34-3.75,5.65a89.34,89.34,0,0,1-57.66,18.73Zm-46.79-18.07c-5.3,0-9.84.57-11.74,2.24a2.11,2.11,0,0,0-.81,1.8c.11,2.51,4.09,7.16,29.44,10.09,14.77,1.7,29.69,1.94,29.84,1.94l83.27-6.29h.11a87.33,87.33,0,0,0,56.4-18.31c1.69-1.32,2.87-3,3-4.28a1.78,1.78,0,0,0-.41-1.41c-.69-.82-2-1-3.43-1a92.48,92.48,0,0,0-19.52,1.47,1,1,0,0,1-.64-1.88c11-5.67,22.41-11.53,33-18.34,16.64-10.68,25.11-21.69,25.9-33.67.16-2.43-.14-4.16-1-5.44-1.78-2.76-5.9-3.23-8.84-3.34a95.48,95.48,0,0,0-56.89,16.67,1,1,0,0,1-1.24-1.55c8.07-7.49,32.62-30.27,31.28-41A5.46,5.46,0,0,0,1884,969c-16.1-8.76-44.31,26.35-54.93,39.56-1.7,2.11-3,3.78-3.95,4.81a1,1,0,0,1-1.38.12,1,1,0,0,1-.17-1.37A92.45,92.45,0,0,0,1816,892.57c-3.78-3.91-9.61-9.16-16.63-9.64l-1,0c-5.93,0-12.15,3.59-16.23,9.37h0c-4.23,6-6,13.31-7.13,19.7-5.61,31.12-1.28,62.9,2.92,93.65a1,1,0,0,1-1.94.46,115.14,115.14,0,0,0-22-37.29c-3.14-3.56-9.65-8.64-14.14-5.14-2.56,2-3.13,5.93-1.74,12a221,221,0,0,0,10.35,32.95,1,1,0,0,1-.45,1.25,1,1,0,0,1-1.3-.3,126.56,126.56,0,0,0-65.77-47.89c-10.59-3.25-22.48-5.61-30.41,1.55-8.2,7.4-6,20.45-.53,29.44,7,11.44,17.88,20,28.42,28.34,2.61,2.05,5.31,4.18,7.88,6.31,15,12.35,29.69,21.73,45,28.69a1,1,0,0,1,.5,1.32,1,1,0,0,1-1.32.5c-5.64-2.56-11-5.27-16.19-7.89-15.5-7.82-30.14-15.21-48.45-16.69-5.58-.45-12.8.08-15.5,5.15-2,3.83-.31,8.66,2.15,11.51,2.78,3.22,6.78,5.24,11,7.19,18.51,8.61,58.55,18.57,58.95,18.67a1,1,0,0,1-.41,2A147,147,0,0,0,1699.34,1075.57Zm81.89-183.88h0Z" style="fill:#163150"/><g style="mask:url(#mask-7)"><path d="M1672.25,983.75c21.32,9.59,40.22,23.45,57.12,39.57h0c16.55,15.79,30.45,33.74,45.77,50.64h0c.54.59,1.62-.21,1.13-.88h0c-26.75-36.48-61.43-72.51-103.63-90.27h0a.51.51,0,0,0-.17,0h0c-.43,0-.69.75-.22,1" style="fill:#163150;fill-rule:evenodd"/></g><g style="mask:url(#mask-8)"><path d="M1682,1053.72a372.65,372.65,0,0,1,41.46,13.22h0c14.47,5.59,28,12.82,42.24,19h0a.58.58,0,0,0,.58-1h0c-24.82-15.93-55.54-25.54-83.9-32.57h0l-.19,0h0a.71.71,0,0,0-.19,1.39" style="fill:#163150;fill-rule:evenodd"/></g><g style="mask:url(#mask-9)"><path d="M1749.5,986.27c18.88,30.13,31,62.23,42,95.88h0a.54.54,0,0,0,1-.29h0c-6.82-34.22-22.9-67.24-41.51-96.47h0a.83.83,0,0,0-.71-.4h0a.85.85,0,0,0-.79,1.28" style="fill:#163150;fill-rule:evenodd"/></g><g id="Group-18"><g style="mask:url(#mask-10)"><g id="Fill-16"><path d="M1797.57,912.39c8,52.46-1,103.45-5.4,155.65h0a.84.84,0,0,0,1.65.23h0c9.15-50.88,13.45-105.07,5.32-156.33h0a.66.66,0,0,0-.67-.6h0a.92.92,0,0,0-.9,1" style="fill:none"/></g></g></g><g style="mask:url(#mask-11)"><path d="M1872.5,982.15c-32.5,25.05-61.69,60-75.24,99.17h0a.64.64,0,0,0,1.16.49h0c9-18.51,18.11-36.44,30.52-53h0a254.24,254.24,0,0,1,44.31-45.69h0c.44-.36,0-1.08-.45-1.08h0a.49.49,0,0,0-.3.1" style="fill:#163150;fill-rule:evenodd"/></g><g style="mask:url(#mask-12)"><path d="M1884.2,1016.5c-32.81,17.35-71.53,37.14-90.24,71.08h0a.88.88,0,0,0,1.52.89h0c11.52-15.79,24.06-29.23,40-40.69h0c15.69-11.28,32.78-20.39,49.81-29.42h0c1-.55.41-2-.57-2h0a1.1,1.1,0,0,0-.51.13" style="fill:#163150;fill-rule:evenodd"/></g><g id="Group-25-Copy-4"><path d="M1859.23,550.12c4.69,5.44,11.19,9,17.74,11.93h0c28.7,12.92,60.58,16.5,91.87,19.91h0A115.36,115.36,0,0,0,1927,594.39h0c-5.37,2.78-11.31,8.25-8.86,13.77h0c1.89,4.27,7.49,5.1,12.15,5.19h0a222.93,222.93,0,0,0,34.64-2.07h0A128.17,128.17,0,0,0,1902,663.93h0c-5.34,8.87-11.32,20.64-5.88,30.86h0c5.62,10.53,19.48,11.31,29.62,8.12h0c16.2-5.08,29.32-17.1,42.7-27h0c14.55-10.75,27.66-22.73,38.92-36.92h0c-15.37,19.39-31.76,33.62-39.65,57.07h0c-2,5.83-3.06,13.22,1.52,17.34h0c3.38,3,8.75,2.9,12.81.85h0c4.07-2,7.1-5.63,10-9.17h0c13-16.14,32.49-52.85,32.49-52.85h0s-15.23,34.1-6,36h0c11.89,2.39,27.18-55.34,27.18-55.34h0l14.06-82.41a87.92,87.92,0,0,0-4.16-59.84h0c-1.17-2.6-3.68-5.61-6.25-4.38h0c-1.36.66-1.93,2.25-2.34,3.71h0a92.32,92.32,0,0,0-3.34,19.51h0c-2.89-12.29-5.79-24.61-9.84-36.58h0c-4.81-14.22-12.73-29.32-27-33.91h0a9.87,9.87,0,0,0-6.13-.37h0c-3.41,1.15-5,5-6,8.44h0a96.42,96.42,0,0,0,2.43,59.85h0c-12.14-22.05-29-49-38.68-38.47h0c-14.86,16.19,22.74,60.44,28.73,69.11h0a94.36,94.36,0,0,0-55.57-32.78h0a94.36,94.36,0,0,0-63.57,11h0c-5.89,3.41-11.73,7.9-13.82,14.37h0c-.12.35-.22.71-.31,1.07h0c-1.63,6.55.94,13.75,5.38,18.91" style="fill:#028355;fill-rule:evenodd"/><path d="M1975.84,716.77a10.65,10.65,0,0,1-7.26-2.62c-5.07-4.56-3.78-12.53-1.8-18.4,4.29-12.75,11.07-22.81,18.79-32.38q-7.66,6.82-16.52,13.36c-2.66,2-5.37,4.06-8,6.09-10.75,8.32-21.87,16.93-35,21-10.81,3.39-25.06,2.14-30.8-8.61-5.5-10.31-.1-21.89,5.91-31.85a128.49,128.49,0,0,1,56.71-50.27,223.81,223.81,0,0,1-27.64,1.21c-7.12-.14-11.38-2-13-5.79-2.55-5.74,2.84-11.7,9.32-15.06a117.34,117.34,0,0,1,34.1-11.44c-28.44-3.17-57.47-7.13-84-19.09-6.12-2.76-13-6.36-18.09-12.2h0c-5-5.85-7.18-13.44-5.59-19.81.1-.38.2-.76.33-1.13,2.37-7.35,9.28-12,14.27-14.92a94.3,94.3,0,0,1,109.57,10.81c-12.69-17.25-31-45.31-19.4-58a7.45,7.45,0,0,1,6.61-2.62c7.14.85,16.43,11.39,29,33a96.72,96.72,0,0,1,.42-51.35c.94-3.26,2.66-7.76,6.65-9.11a10.91,10.91,0,0,1,6.76.37c12.08,3.87,21.14,15.17,27.69,34.54,3.41,10.1,6,20.53,8.47,30.77a93.35,93.35,0,0,1,2.8-13.65c.5-1.77,1.19-3.53,2.87-4.34a3.82,3.82,0,0,1,3-.13c2,.74,3.71,3.07,4.57,5a89.36,89.36,0,0,1,4.23,60.47l-14,82.35c-1.57,6-15.25,56.23-27.49,56.23a4.27,4.27,0,0,1-.87-.08,4.17,4.17,0,0,1-2.94-2.27c-2.08-4,.07-13,2.71-20.95-6.89,12.22-17.33,29.89-25.3,39.75-3,3.78-6.13,7.34-10.29,9.45A15.15,15.15,0,0,1,1975.84,716.77ZM2007.38,638a1.05,1.05,0,0,1,.62.21,1,1,0,0,1,.16,1.41c-3.85,4.85-7.77,9.4-11.57,13.8-11.34,13.14-22,25.55-27.92,43-1.78,5.3-3,12.44,1.25,16.28,3.23,2.9,8.32,2.4,11.69.7,3.8-1.92,6.73-5.31,9.63-8.91,12.83-15.88,32.19-52.32,32.38-52.69a1,1,0,0,1,1.8.88c-3.28,7.35-11.17,27.68-8.25,33.34a2.13,2.13,0,0,0,1.55,1.23c2.47.5,7.94-2.24,16.91-26.14,5.24-13.93,9.07-28.33,9.1-28.47l14.05-82.32a.36.36,0,0,1,0-.11,87.4,87.4,0,0,0-4.11-59.16c-.88-1.95-2.23-3.5-3.43-3.94a1.83,1.83,0,0,0-1.47.05c-1,.47-1.45,1.76-1.82,3.08a92.36,92.36,0,0,0-3.3,19.3,1,1,0,0,1-2,.17c-2.84-12.06-5.78-24.53-9.82-36.49-6.33-18.73-15-29.61-26.4-33.28a8.84,8.84,0,0,0-5.5-.38c-3.11,1.06-4.56,4.94-5.38,7.77a95.36,95.36,0,0,0,2.41,59.23,1,1,0,0,1-1.81.83c-5.31-9.64-21.47-39-32.18-40.26a5.46,5.46,0,0,0-4.89,2c-12.39,13.5,14.85,49.36,25.1,62.87,1.64,2.16,2.93,3.86,3.71,5a1,1,0,0,1-1.59,1.2,92.46,92.46,0,0,0-117.87-21.51c-4.7,2.72-11.2,7.11-13.37,13.81-.11.33-.2.66-.29,1-1.43,5.75.55,12.65,5.17,18h0c4.78,5.55,11.47,9,17.39,11.68,28.83,13,60.73,16.46,91.57,19.83a1,1,0,0,1,0,2,115.26,115.26,0,0,0-41.51,12.31c-4.21,2.19-10.72,7.28-8.41,12.48,1.32,3,5,4.48,11.26,4.6a222,222,0,0,0,34.48-2.06,1,1,0,0,1,1.11.73,1,1,0,0,1-.61,1.19,126.52,126.52,0,0,0-62.38,52.24c-5.72,9.48-10.88,20.44-5.85,29.87,5.19,9.75,18.38,10.79,28.44,7.64,12.78-4,23.75-12.51,34.36-20.72,2.63-2,5.35-4.14,8-6.12,15.59-11.52,28.24-23.52,38.69-36.7l0,0h0A1,1,0,0,1,2007.38,638Z" style="fill:#163150"/><g style="mask:url(#mask-13)"><path d="M1883.27,539.26c52.84,4.94,100.14,26,149.72,42.9h0a.84.84,0,0,0,.62-1.54h0c-47.15-21.19-98.69-38.47-150.4-43h0a.64.64,0,0,0-.74.5h0a.9.9,0,0,0,.8,1.12" style="fill:none"/></g></g><path d="M1865.82,937.05c-8.12,9-17,52.51-15.68,62.47h0c8.11-4.58,32.17-4.58,34.88-2.43h0c-12.44-1.07-33.53,10.77-33.53,10.77h0s2.16,22.35,7.57,32.58h0c12.17-15.07,35.69-19.11,40.56-18.31h0c-21.09,4.58-35.42,28.55-35.42,28.55h0s16.76,24.77,33.26,32.31h0c7.84-10.77,26.49-24.5,29.74-23.16h0c-9.2,5.12-21.09,29.08-21.09,29.08h0s28.74,14,57.15,14.09h.37a70.64,70.64,0,0,0,15.75-1.7h0c6.5-25.85,5-59.64,5-59.64h0s-23.53,3.76-29.07,8.48h0c3.79-8.21,28-19.21,28-19.21h0s-14.24-27.64-25.78-38.59h0c-13.15,3.23-23.43,15.62-28.48,21.72h0c3.25-9.51,18.21-26.75,22.17-28.9h0c-5.94-6.28-29.56-25.31-29.56-25.31h0l-19.11,10.95s1.63-5.75,7-16h0C1894.48,945.67,1865.82,937.05,1865.82,937.05Z" style="fill:#00a76c;fill-rule:evenodd"/><path d="M1963.63,1104h-.37c-28.32-.06-57.3-14-57.59-14.19a1,1,0,0,1-.46-1.34c.42-.84,8.84-17.7,17.1-26-6.52,3.75-18,12.87-24,21.11a1,1,0,0,1-1.22.32c-16.56-7.57-33-31.64-33.67-32.66a1,1,0,0,1,0-1.08c.52-.86,11.39-18.78,28.28-26.4-9.08,1.72-23.21,6.69-31.78,17.31a1,1,0,0,1-.88.37,1,1,0,0,1-.79-.53c-5.43-10.29-7.59-32-7.68-33a1,1,0,0,1,.51-1c.69-.39,14-7.79,25.71-10.21-8.22-.28-20.7.57-26.08,3.61a1,1,0,0,1-1.48-.74c-1.46-10.69,7.82-54.3,15.93-63.27a1,1,0,0,1,1-.29c.29.09,29,8.76,44,17.87a1,1,0,0,1,.37,1.33,114.08,114.08,0,0,0-6.11,13.32l16.8-9.63a1,1,0,0,1,1.13.09c1,.78,23.73,19.14,29.66,25.4a1,1,0,0,1-.25,1.57c-2.81,1.52-12.48,12.14-18.13,21.25,5.68-6.17,13.89-13.51,23.73-15.92a1,1,0,0,1,.92.24c11.53,10.94,25.4,37.73,26,38.86a1,1,0,0,1-.48,1.37c-.2.1-17.49,8-24.79,15.14,8.66-3.62,24.46-6.18,25.26-6.31a1,1,0,0,1,.79.21,1,1,0,0,1,.37.73c0,.34,1.42,34.24-5,59.93a1,1,0,0,1-.74.73A71.16,71.16,0,0,1,1963.63,1104Zm-56.16-15.56c5.13,2.35,30.76,13.5,55.79,13.56h.37a70.2,70.2,0,0,0,14.93-1.54c5.56-22.69,5-51.59,4.87-57.63-4.71.82-22.87,4.16-27.46,8.07a1,1,0,0,1-1.25,0,1,1,0,0,1-.31-1.22c3.5-7.6,22.93-17.08,27.57-19.25-2.55-4.83-14.67-27.22-24.7-37-12.63,3.36-22.59,15.41-27.42,21.25a1,1,0,0,1-1.26.23,1,1,0,0,1-.45-1.19c3-8.91,16.21-24.65,21.56-28.74-6.33-6.27-24.74-21.22-28.11-23.94l-18.51,10.6a1,1,0,0,1-1.46-1.13c.07-.24,1.62-5.65,6.67-15.33-13.79-8.07-38-15.71-42.14-17C1858.92,947.28,1850.5,986,1851,998c9.21-4,31.43-4.22,34.63-1.67a1,1,0,0,1,.31,1.15,1,1,0,0,1-1,.63c-10.87-.93-28.94,8.47-32.38,10.33.39,3.57,2.44,20.82,6.73,30.21,12.79-14.56,35.85-18.26,40.5-17.48a1,1,0,0,1,0,2c-18.67,4.06-32.16,24-34.44,27.54,2.51,3.57,17.27,24,31.75,31.08,7.53-9.86,26.14-24.61,30.44-22.82a1,1,0,0,1,.62.86,1,1,0,0,1-.51.93C1919.86,1065.06,1909.74,1084,1907.47,1088.44Z" style="fill:#163150"/><g id="Group-7-Copy-2"><path d="M1908.82,440.05c-8.12,9-17,52.51-15.68,62.47h0c8.11-4.58,32.17-4.58,34.88-2.43h0c-12.44-1.07-33.53,10.77-33.53,10.77h0s2.16,22.35,7.57,32.58h0c12.17-15.07,35.69-19.11,40.56-18.31h0c-21.09,4.58-35.42,28.55-35.42,28.55h0S1924,578.45,1940.46,586h0c7.84-10.77,26.49-24.5,29.74-23.16h0c-9.2,5.12-21.09,29.08-21.09,29.08h0s28.74,14,57.15,14.09h.37a70.64,70.64,0,0,0,15.75-1.7h0c6.5-25.85,5-59.64,5-59.64h0s-23.53,3.76-29.07,8.48h0c3.79-8.21,28-19.21,28-19.21h0s-14.24-27.64-25.78-38.59h0c-13.15,3.23-23.43,15.62-28.48,21.72h0c3.25-9.51,18.21-26.75,22.17-28.9h0c-5.94-6.28-29.56-25.31-29.56-25.31h0l-19.11,10.95s1.63-5.75,7-16h0C1937.48,448.67,1908.82,440.05,1908.82,440.05Z" style="fill:#009a63;fill-rule:evenodd"/><path d="M2006.63,607h-.37c-28.32-.06-57.3-14-57.59-14.19a1,1,0,0,1-.46-1.34c.42-.84,8.84-17.7,17.1-26-6.52,3.75-18,12.87-24,21.11a1,1,0,0,1-1.22.32c-16.56-7.57-33-31.64-33.67-32.66a1,1,0,0,1,0-1.08c.52-.86,11.39-18.78,28.28-26.4-9.08,1.71-23.21,6.69-31.78,17.31a1,1,0,0,1-.88.37,1,1,0,0,1-.79-.53c-5.43-10.29-7.59-32-7.68-32.95a1,1,0,0,1,.51-1c.69-.39,14-7.79,25.72-10.21-8.22-.28-20.71.57-26.09,3.61a1,1,0,0,1-1.48-.74c-1.46-10.69,7.82-54.3,15.93-63.27a1,1,0,0,1,1-.29c.29.09,29,8.76,44,17.87a1,1,0,0,1,.37,1.33,114.08,114.08,0,0,0-6.11,13.32l16.8-9.63a1,1,0,0,1,1.13.09c1,.78,23.73,19.14,29.66,25.4a1,1,0,0,1-.25,1.57c-2.81,1.52-12.48,12.14-18.13,21.25,5.68-6.17,13.89-13.51,23.73-15.92a1,1,0,0,1,.92.24c11.53,10.95,25.4,37.73,26,38.86a1,1,0,0,1-.48,1.37c-.2.1-17.49,8-24.79,15.14,8.66-3.62,24.46-6.18,25.26-6.31a1,1,0,0,1,.79.21,1,1,0,0,1,.37.73c0,.34,1.42,34.24-5,59.93a1,1,0,0,1-.74.73A71.16,71.16,0,0,1,2006.63,607Zm-56.16-15.56c5.13,2.35,30.76,13.5,55.79,13.56h.37a70.2,70.2,0,0,0,14.93-1.54c5.56-22.69,5-51.59,4.87-57.63-4.71.82-22.87,4.16-27.46,8.07a1,1,0,0,1-1.56-1.18c3.5-7.6,22.93-17.08,27.57-19.25-2.55-4.83-14.67-27.22-24.7-37-12.63,3.36-22.59,15.41-27.42,21.25a1,1,0,0,1-1.71-1c3-8.91,16.21-24.65,21.56-28.74-6.33-6.27-24.74-21.22-28.11-23.94l-18.51,10.6a1,1,0,0,1-1.11-.08,1,1,0,0,1-.35-1.06c.07-.23,1.62-5.64,6.67-15.32-13.79-8.07-38-15.71-42.14-17C1901.92,450.28,1893.5,489,1894,501c9.21-4,31.43-4.22,34.63-1.67a1,1,0,0,1,.31,1.15,1,1,0,0,1-1,.63c-10.86-.94-28.94,8.47-32.38,10.33.39,3.57,2.44,20.82,6.73,30.21,12.79-14.56,35.83-18.25,40.5-17.48a1,1,0,0,1,0,2c-18.67,4-32.16,24-34.44,27.54,2.51,3.57,17.27,24,31.75,31.08,7.53-9.86,26.14-24.6,30.44-22.82a1,1,0,0,1,.62.86,1,1,0,0,1-.51.93C1962.86,568.06,1952.74,587,1950.47,591.44Z" style="fill:#163150"/></g><g id="Group-55-Copy"><g style="mask:url(#mask-14)"><g style="clip-path:url(#clip-path-2)"><polygon points="1894.72 646.38 1983.26 728.95 1894.72 728.95 1894.72 646.38" style="fill:#176744;fill-rule:evenodd"/><polygon points="1925.89 630.44 2031.52 728.95 1983.26 728.95 1894.72 646.38 1894.72 630.44 1925.89 630.44" style="fill:#176744;fill-rule:evenodd"/></g><path d="M2077.12,730.36l-.71-.7c-98.91-98-180.33-82.16-181.15-82l-1,.21-.76-3.55,1-.2c.21,0,21.41-4.33,54.39,3.76,30.43,7.47,77.69,27.27,130.06,79.19l.72.71Z" style="fill:#163150"/></g><g style="mask:url(#mask-15)"><g style="clip-path:url(#clip-path-3)"><polygon points="1889.43 657.4 1901.34 644.63 1901.34 657.4 1889.43 657.4" style="fill:#00ae70;fill-rule:evenodd"/><polygon points="1874.43 657.4 1895.88 634.41 1901.34 634.41 1901.34 644.63 1889.43 657.4 1874.43 657.4" style="fill:#00ae70;fill-rule:evenodd"/><polygon points="1863.92 652.6 1880.88 634.41 1895.88 634.41 1874.43 657.4 1863.92 657.4 1863.92 652.6" style="fill:#009a63;fill-rule:evenodd"/><polygon points="1880.88 634.41 1863.92 652.6 1863.92 634.41 1880.88 634.41" style="fill:#009a63;fill-rule:evenodd"/></g><path d="M1877,655.38a58.88,58.88,0,0,1-13.28-1.8l-1.94-.46,1.53-1.29c11.46-9.6,21.3-11.3,27.53-11a23.38,23.38,0,0,1,11.07,3l1.38.9-1.43.81c-1.79,1-3.4,2-5,3C1890.41,652.38,1885.48,655.38,1877,655.38Zm-10.82-3.3c15.5,3.29,20.93,0,29.68-5.34,1.1-.67,2.22-1.35,3.42-2a23.87,23.87,0,0,0-8.65-1.9C1885,642.58,1876.38,644.07,1866.15,652.08Z" style="fill:#163150"/></g><g style="mask:url(#mask-16)"><g style="clip-path:url(#clip-path-4)"><polygon points="1916.38 644.87 1916.94 644.27 1916.94 644.87 1916.38 644.87" style="fill:#00ae70;fill-rule:evenodd"/><polygon points="1891.86 644.87 1908.81 626.7 1916.94 626.7 1916.94 644.27 1916.38 644.87 1891.86 644.87" style="fill:#00ae70;fill-rule:evenodd"/><polygon points="1882.11 629.03 1884.29 626.7 1908.81 626.7 1891.86 644.87 1882.11 644.87 1882.11 629.03" style="fill:#009a63;fill-rule:evenodd"/><polygon points="1884.29 626.7 1882.11 629.03 1882.11 626.7 1884.29 626.7" style="fill:#009a63;fill-rule:evenodd"/></g><path d="M1918.49,645.43l-1.65-.16c-2-.21-3.88-.34-5.67-.47-10.62-.75-17.63-1.25-29.81-15.1l-1.31-1.49,2-.17c14.65-1.24,23.6,3.1,28.52,7a24.13,24.13,0,0,1,7.32,8.91Zm-34.26-15.53c10.78,11.75,17,12.19,27.08,12.91l3.89.29a24.86,24.86,0,0,0-6-6.61C1903,631.66,1894.38,629.39,1884.23,629.9Z" style="fill:#163150"/></g><g style="mask:url(#mask-17)"><g style="clip-path:url(#clip-path-5)"><polygon points="1900.43 662.9 1917.29 644.83 1917.29 662.9 1900.43 662.9" style="fill:#00ae70;fill-rule:evenodd"/><polygon points="1891.21 662.9 1909.1 643.72 1917.29 643.72 1917.29 644.83 1900.43 662.9 1891.21 662.9" style="fill:#00ae70;fill-rule:evenodd"/><polygon points="1884.55 660.16 1899.88 643.72 1909.1 643.72 1891.21 662.9 1884.55 662.9 1884.55 660.16" style="fill:#009a63;fill-rule:evenodd"/><polygon points="1899.88 643.72 1884.55 660.16 1884.55 643.72 1899.88 643.72" style="fill:#009a63;fill-rule:evenodd"/></g><path d="M1883.12,664.25l.46-1.63a23.75,23.75,0,0,1,5.42-8.7c4.46-4.78,13-10.61,28.25-11.2l2-.08-1.17,1.65c-10.59,15.08-17.44,16.42-27.81,18.45-1.75.34-3.56.69-5.52,1.14Zm32.13-19.42c-13.29,1-20.79,6.16-24.79,10.45a24.66,24.66,0,0,0-4.29,6.24l3.74-.75C1899.74,658.85,1905.83,657.67,1915.25,644.83Z" style="fill:#163150"/></g><g style="mask:url(#mask-18)"><g style="clip-path:url(#clip-path-6)"><polygon points="1908.71 646.74 1932.19 621.55 1934.86 621.55 1934.86 646.74 1908.71 646.74" style="fill:#00ae70;fill-rule:evenodd"/><polygon points="1906.04 621.55 1906.04 621.55 1932.19 621.55 1908.71 646.74 1906.04 646.74 1906.04 621.55" style="fill:#009a63;fill-rule:evenodd"/></g><path d="M1936,648.34l-1.55-.69c-1.87-.82-3.6-1.52-5.27-2.2-9.89-4-16.43-6.68-24.06-23.49l-.85-1.86,2,.48c14.31,3.41,21.58,10.27,25.16,15.42a24.28,24.28,0,0,1,4.43,10.65ZM1907.84,623c6.9,14.38,12.72,16.74,22.1,20.55,1.16.47,2.34.95,3.57,1.48a25,25,0,0,0-3.79-8C1926.5,632.46,1920.12,626.43,1907.84,623Z" style="fill:#163150"/></g><g style="mask:url(#mask-19)"><g style="clip-path:url(#clip-path-7)"><polygon points="1918.89 671 1914.94 646.01 1934.13 646.01 1934.13 671 1918.89 671" style="fill:#009a63;fill-rule:evenodd"/><polygon points="1914.94 646.01 1918.89 671 1901.32 671 1901.32 646.01 1914.94 646.01" style="fill:#009a63;fill-rule:evenodd"/></g><path d="M1900.1,672.47l.23-1.61c0-.28,1.06-7,7.27-13.63s15-10.7,26.4-12.21l1.89-.25-.87,1.7c-9.31,18.12-16.56,20.32-27.53,23.64-1.85.56-3.77,1.14-5.85,1.84Zm32.23-25.18c-10,1.63-17.8,5.43-23.27,11.3a27.7,27.7,0,0,0-6.36,10.9c1.47-.47,2.86-.89,4.21-1.3C1917.4,665,1923.87,663.06,1932.33,647.29Z" style="fill:#163150"/></g></g></g></g></svg>