<svg xmlns="http://www.w3.org/2000/svg" xmlns:xlink="http://www.w3.org/1999/xlink" class="week__progress--1" viewBox="0 0 1923.3 275.15"><defs><filter id="week__progress-shadow" width="200%" height="200%" name="week__progress-shadow"><feOffset dx="3" dy="4" in="SourceAlpha" result="offOut"/><feGaussianBlur in="offOut" result="blurOut" stdDeviation="10"/><feComponentTransfer><feFuncA slope=".3" type="linear"/></feComponentTransfer><feMerge><feMergeNode/><feMergeNode in="SourceGraphic"/></feMerge></filter><linearGradient id="linear-gradient" x1="965.92" x2="967.14" y1="83.58" y2="194.61" gradientUnits="userSpaceOnUse"><stop offset="0" stop-color="#fef2d7"/><stop offset="1" stop-color="#ffd36a"/></linearGradient><linearGradient id="linear-gradient-2" x1="924.65" x2="925.98" y1="89.36" y2="175.82" gradientUnits="userSpaceOnUse"><stop offset="0" stop-color="#be914a"/><stop offset="1" stop-color="#ffe9b6"/></linearGradient><linearGradient id="linear-gradient-3" x1="535.9" x2="535.9" y1="1102.99" y2="1103.85" gradientTransform="matrix(1722.47, 0, 0, -106.64, -922141, 117803.51)" gradientUnits="userSpaceOnUse"><stop offset="0" stop-color="#d2981c"/><stop offset="1" stop-color="#ffce5b"/></linearGradient><linearGradient id="linear-gradient-4" x1="530.6" x2="530.6" y1="1103.78" y2="1102.65" gradientTransform="matrix(155.87, 0, 0, -155.88, -80921.09, 172104.23)" gradientUnits="userSpaceOnUse"><stop offset="0" stop-color="#fef2d7"/><stop offset=".81" stop-color="#edc155"/></linearGradient><linearGradient id="linear-gradient-5" x1="530.6" x2="530.6" y1="1103.76" y2="1102.67" gradientTransform="matrix(155.87, 0, 0, -155.88, -80921.09, 172104.23)" xlink:href="#linear-gradient-2"/><linearGradient id="linear-gradient-6" x1="531.03" x2="531.03" y1="1102.72" y2="1103.69" gradientTransform="matrix(168.15, 0, 0, -168.16, -87508.39, 185647.17)" xlink:href="#linear-gradient-3"/><linearGradient id="linear-gradient-7" x1="527.84" x2="527.84" y1="1104.06" y2="1103.15" gradientTransform="matrix(105.8, 0, 0, -77.3, -54064.87, 85441.5)" gradientUnits="userSpaceOnUse"><stop offset="0" stop-color="#be914a"/><stop offset="1" stop-color="#a08f68"/></linearGradient><filter id="f1" width="200%" height="200%" name="f1"><feOffset dx="1" dy="2" in="SourceAlpha" result="offOut"/><feGaussianBlur in="offOut" result="blurOut" stdDeviation="4"/><feComponentTransfer><feFuncA slope=".2" type="linear"/></feComponentTransfer><feMerge><feMergeNode/><feMergeNode in="SourceGraphic"/></feMerge></filter><linearGradient id="linear-gradient-8" x1="-1165.07" x2="-1165.07" y1="1103.06" y2="1103.6" gradientTransform="matrix(1, 0, 0, -172.89, 1676.43, 190885.55)" xlink:href="#linear-gradient-3"/><linearGradient id="linear-gradient-9" x1="-750.06" x2="-750.06" y1="1103.06" y2="1103.6" gradientTransform="matrix(1, 0, 0, -172.89, 1676.43, 190885.55)" xlink:href="#linear-gradient-3"/><linearGradient id="linear-gradient-10" x1="-333.71" x2="-333.71" y1="1103.06" y2="1103.6" gradientTransform="matrix(1, 0, 0, -172.89, 1676.43, 190885.55)" xlink:href="#linear-gradient-3"/></defs><title>Week Progress Bar</title><g class="ab__base-bar"><g id="base-middle" style="filter:url(#week__progress-shadow)"><path d="M117.39,73.3l1605.74.54c-3.32-2.66,23.28-26.61,57.87-25.94,59.86,1.15,85.79,49.88,85.79,87.13,0,66-76.48,82.47-76.48,82.47-54.54-2.66-65.28-23.74-72.5-29.93L117.39,190c-28.3,0-51.24-26.13-51.24-58.36h0C66.15,99.43,89.09,73.3,117.39,73.3Z" style="fill-rule:evenodd;fill:url(#linear-gradient)"/></g><path d="M102.13,83.81h300.5a22.91,22.91,0,0,1,22.9,23.5c-.18,7.15-.37,15.59-.37,24.89h0c0,9.63-.13,18.45-.24,25.84A22.91,22.91,0,0,1,402,180.58H102.13C80.52,180.58,63,158.92,63,132.2h0C63,105.48,80.52,83.81,102.13,83.81Z" class="ab__complete--1" style="fill:#78e1f2"/><path d="M1245.24,83.81h380c11.1,0,30,10.62,29.73,23.5-.16,7.15-.33,15.59-.33,24.89h0c0,9.63-.11,18.45-.21,25.84-.17,12.51-19,22.54-29.73,22.54H1245.24V132.2h1.33C1246.57,105.48,1245.24,83.81,1245.24,83.81Z" class="ab__complete--4" style="fill:#78e1f2"/><path d="M848.85,83.81H1259.4c11.1,0,30,10.62,29.73,23.5-.16,7.15-.32,15.59-.32,24.89h0c0,9.63-.11,18.45-.21,25.84-.17,12.51-19,22.54-29.73,22.54h-410V132.2h0Z" class="ab__complete--3" style="fill:#78e1f2"/><path d="M407.24,83.81H844.39c11.1,0,30,10.62,29.73,23.5-.16,7.15-.32,15.59-.32,24.89h0c0,9.63-.11,18.45-.21,25.84-.17,12.51-19,22.54-29.74,22.54H407.24V132.2h0Z" class="ab__complete--2" style="fill:#78e1f2"/><path id="base-background" d="M1733.21,193H117.39a61.53,61.53,0,0,1,0-123H1733.21a61.53,61.53,0,1,1,0,123.05ZM117.39,90.54a41,41,0,0,0,0,81.93H1733.21a41,41,0,0,0,0-81.93Z" style="fill:url(#linear-gradient-2)"/><path id="base-border" d="M1733.21,193H117.39a61.53,61.53,0,0,1,0-123H1733.21a61.53,61.53,0,1,1,0,123.05ZM117.39,86.38a45.13,45.13,0,0,0,0,90.25H1733.21a45.13,45.13,0,0,0,0-90.25Z" style="fill:url(#linear-gradient-3)"/></g><g class="ab__week4-complete"><path d="M1781.05,44.88a87.75,87.75,0,1,0,87.74,87.75A87.83,87.83,0,0,0,1781.05,44.88Z" style="fill:url(#linear-gradient-4)"/><path d="M1781.05,216.7a84.08,84.08,0,1,1,84.07-84.08A84.17,84.17,0,0,1,1781.05,216.7Zm0-155.88a71.8,71.8,0,1,0,71.8,71.81A71.88,71.88,0,0,0,1781.05,60.82Z" style="fill:url(#linear-gradient-5)"/><path d="M1781.05,222.3a89.68,89.68,0,1,1,89.67-89.68A89.77,89.77,0,0,1,1781.05,222.3Zm0-168.16a78.48,78.48,0,1,0,78.48,78.49A78.57,78.57,0,0,0,1781.05,54.14Z" style="fill:url(#linear-gradient-6)"/><path d="M1763.79,171.59a5.4,5.4,0,0,1-2-.41,5.57,5.57,0,0,1-3-7.19L1772,132a17.37,17.37,0,0,0-2.64,1.28,47.76,47.76,0,0,0-8.36,7,51,51,0,0,1-9,7.54,17.74,17.74,0,0,1-9.22,2.69h0c-.54,0-1.07,0-1.6-.08a3.62,3.62,0,0,1-3-2.26l-10.88-26.5a3.75,3.75,0,0,1,.33-3.47,3.56,3.56,0,0,1,2.92-1.63,14.07,14.07,0,0,0,7.17-2.17,48.22,48.22,0,0,0,8.36-7,51,51,0,0,1,9-7.54,17.33,17.33,0,0,1,10.39-2.65l0-.1h0a1.87,1.87,0,0,1,.07-.22,5.43,5.43,0,0,1,10.06,0L1781,110l5.39-13.11a5.41,5.41,0,0,1,7.12-3,5.49,5.49,0,0,1,3.06,3.27,17.34,17.34,0,0,1,10.37,2.65,51,51,0,0,1,9,7.54,48.35,48.35,0,0,0,8.36,7,14.1,14.1,0,0,0,7.17,2.17,3.57,3.57,0,0,1,2.92,1.62,3.75,3.75,0,0,1,.33,3.47l-10.89,26.5a3.62,3.62,0,0,1-3,2.26c-.54.05-1.07.07-1.62.07a17.68,17.68,0,0,1-9.21-2.69,50.93,50.93,0,0,1-9-7.53,47.92,47.92,0,0,0-8.08-6.83,1,1,0,0,1-.27-.17l0,0,0,0A17.24,17.24,0,0,0,1790,132l13.16,32a5.52,5.52,0,0,1-3,7.18,5.44,5.44,0,0,1-7.13-3L1781,138.73l-12.1,29.46a5.45,5.45,0,0,1-5.08,3.4Zm35-3h0Zm-28-72a1.7,1.7,0,0,0-.66.14,1.79,1.79,0,0,0-1,2.27l9.78,24a.42.42,0,0,1,0,.1l17.62,43.29a1.74,1.74,0,0,0,1.86,1.08l.89-.34.49-.81a1.82,1.82,0,0,0,0-1.3l-27.43-67.39A1.75,1.75,0,0,0,1770.77,96.59Zm5.51,34L1762.16,165a1.78,1.78,0,0,0,1,2.32,1.71,1.71,0,0,0,1.33,0,1.76,1.76,0,0,0,1-1h0l13.52-33-1.12-2.72A11.13,11.13,0,0,0,1776.28,130.6ZM1813,145.11a13.76,13.76,0,0,0,7.23,1.33l2.63-6.18a15.2,15.2,0,0,1-1.9-.15l-.25,0-.25,0c-.57-.09-1.11-.2-1.65-.34l-.7-.2c-.47-.14-1-.32-1.51-.54l-.2-.08h0l-.39-.16-.12-.05-.09,0Zm-71,1.36a13.82,13.82,0,0,0,6.88-1.36l-2.76-6.5a.86.86,0,0,1-.21.07h0l-.32.13-.3.12c-.55.22-1,.39-1.52.54l-.7.2a15.5,15.5,0,0,1-1.63.34l-.22,0a2.14,2.14,0,0,1-.29.05,17.57,17.57,0,0,1-1.91.16l2.52,5.82a1.1,1.1,0,0,1,.35.26Zm68.41-1.17,0,0s0,0,0,0Zm-51.69-6.15-.16.17a55.43,55.43,0,0,1-4.54,4.13,49.34,49.34,0,0,0,4.76-4.27Zm45.29-1.42a50.87,50.87,0,0,0,5.34,4.73l2.54-6.26c-.14-.09-.26-.18-.51-.37l-.66-.48c-.64-.5-1.27-1-1.88-1.55l-.41-.37c-.55-.49-1.08-1-1.61-1.48l-.34-.32Zm-55-1.52,2.54,6.25a49.88,49.88,0,0,0,5.34-4.73l-2.47-6.1-.34.32c-.53.5-1.07,1-1.62,1.48l-.41.37c-.62.54-1.23,1-1.88,1.55l-.83.62Zm69.1.84h0l0-.24Zm-81.46-.61h.06a12.79,12.79,0,0,0,1.64,0h.3a14.69,14.69,0,0,0,1.46-.17h.11l.18,0a15.48,15.48,0,0,0,1.59-.41l.26-.09.1,0c.46-.16.93-.34,1.4-.54l.1-.05.22.43-2.94-6.95h0l-.08,0-.15.06-.36.15-.22.09c-.52.2-1,.39-1.54.54l-.69.2c-.51.14-1.06.25-1.65.35l-.22,0-.27.05q-.95.12-1.92.15ZM1817,135.1l0,0c.57.25,1.05.44,1.5.6l.36.12a13.71,13.71,0,0,0,1.59.41l.16,0,.11,0a14.16,14.16,0,0,0,1.41.16h.36a13.84,13.84,0,0,0,1.58,0h.13l2.61-6.17a17.55,17.55,0,0,1-1.91-.15l-.25,0-.24-.05a16,16,0,0,1-1.65-.35l-.69-.19c-.5-.16-1-.34-1.54-.55h0l-.16-.06-.43-.17-.11,0-.11,0Zm-2.58.91-.06.2,0,.09a1.07,1.07,0,0,1,.16-.14A.47.47,0,0,1,1814.46,136Zm-70.07.09,0,.05,0-.05Zm13.65-6.75,2.42,6c0,.05,0,.09,0,.14a44.52,44.52,0,0,1,5.42-4.58l-2.53-6.26,0,0-.14.09-.57.45c-.41.31-.81.65-1.21,1l-.6.52c-.54.48-1.07,1-1.6,1.48l-.57.55Zm38,1.52a46.29,46.29,0,0,1,5.41,4.58l2.47-6.1-.79-.77-.08-.08-.31-.31c-.54-.5-1.07-1-1.61-1.48l-.6-.52c-.41-.35-.81-.68-1.21-1l-.58-.45-.12-.09,0,0Zm-49.59,4.34v0a1.42,1.42,0,0,1,.07.22l.06-.17Zm67.93.09a.78.78,0,0,1,0,.14.44.44,0,0,0,0-.1Zm-33.4-.75h.15l-.1-.26-.1.25Zm28.06-6.81,1.15,1.12c.57.55,1.14,1.08,1.72,1.59l.3.26.1.09c.46.41.94.8,1.43,1.18l-.62,1,.73-.9.33.26.1.06.1.08,2.54-6.25a6,6,0,0,1-.5-.37l-.35-.26-.31-.23c-.64-.49-1.27-1-1.89-1.55l-.3-.27-.1-.09q-.81-.72-1.62-1.5l-.34-.32Zm-64-1.54,2.53,6.27,0,0a.85.85,0,0,0,.16-.11l.45-.35c.49-.38,1-.77,1.43-1.18l.4-.35c.57-.51,1.14-1,1.71-1.58l1.16-1.13-2.47-6.11s-.09.08-.09.09l-.23.22-1.64,1.51-.4.35c-.67.58-1.28,1.09-1.9,1.55-.1.09-.21.16-.4.3l-.17.13h0ZM1793.3,131l.2.11a1.55,1.55,0,0,1,.07-.23l.1-.25A1.09,1.09,0,0,1,1793.3,131Zm-38-2.41a1.46,1.46,0,0,1,.3.17,1.09,1.09,0,0,1,.29-.48l.93-.91a1.17,1.17,0,0,1-1,.23,1.19,1.19,0,0,1-.69-.44l.19.46A1.13,1.13,0,0,1,1755.29,128.56Zm51-.05a1.08,1.08,0,0,1,.49.21,1.15,1.15,0,0,1-.15-1.13l.18-.46a1.14,1.14,0,0,1-.67.44,1.18,1.18,0,0,1-1-.27l1,1A.86.86,0,0,1,1806.28,128.51Zm-18.84-1.42a18.75,18.75,0,0,1,4.65,1.39l.82-1.91c.64-1.47,1.31-3,2-4.59l-.26-.11c-.4-.17-.8-.33-1.2-.47l-.56-.19c-.5-.15-1-.27-1.51-.37l-.29,0-.16,0c-.43-.07-.85-.11-1.27-.14h-.12l-.35,0a14.42,14.42,0,0,0-1.62,0h-.12l-1.42,3.22ZM1766,122l2.76,6.5a17.9,17.9,0,0,1,5.8-1.57h.07a10.43,10.43,0,0,1,1.23-.09l-2.61-6.17h-.07a14.79,14.79,0,0,0-1.63,0h-.18l-.22,0a11.14,11.14,0,0,0-1.35.15l-.13,0-.18,0a13.52,13.52,0,0,0-1.58.4l-.28.1c-.57.2-1,.39-1.49.59l-.11,0Zm60.06,6h0l0-.32Zm2.35-.35h0Zm-7.32-2.44c.54.24,1,.42,1.44.58l.38.13a13.92,13.92,0,0,0,1.57.41l.19,0,.16,0c.42.07.87.12,1.32.15h.4a14.73,14.73,0,0,0,1.63,0h.07l2.61-6.18a17.78,17.78,0,0,1-7.1-1.65l-3.19,7.56Zm-88.42,1.3h.17a12.63,12.63,0,0,0,1.53,0h.37c.44,0,.9-.08,1.38-.16l.3,0a12.82,12.82,0,0,0,1.56-.41l.38-.13a14.45,14.45,0,0,0,1.35-.53l.11,0,.05,0-2.73-6.5a17.69,17.69,0,0,1-7.13,1.66Zm87.8,0h0l.08-.24Zm-78.06-.26a.49.49,0,0,1,.13.12l0-.05a1.66,1.66,0,0,1-.06-.21A1.21,1.21,0,0,1,1742.45,126.14Zm0-.93v0a1.55,1.55,0,0,1,.07.23,1.27,1.27,0,0,1,.06-.18Zm57.4-2.5.28.19.33.26.29.23c.42.33.85.68,1.28,1l.63.55.08.08c-.26-.25-.52-.48-.78-.72l-.38-.34c-.62-.53-1.2-1-1.79-1.46l-.57-.42c-.28-.22-.39-.3-.51-.38l-.73-.5a1.2,1.2,0,0,1-.39-.45l-.13.12a1.13,1.13,0,0,1,0,.92,1.12,1.12,0,0,1,.25-.11,1.2,1.2,0,0,1,1,.17Zm-37.19-.53-.06,0-.43.33c-.58.44-1.18.93-1.78,1.46l-.39.34-.67.6.59-.51c.43-.38.87-.74,1.3-1.07l.6-.47.26-.18,1.16-.83a1.19,1.19,0,0,1,.22-.12l0-.16-.18.12-.47.35Zm-17.75,2.69h0Zm55.13-5,.52.38.36.27.28.21c.62.47,1.24,1,1.89,1.56l.16.14h0l.24.2c.56.5,1.11,1,1.66,1.55l.3.28,2.47-6.11-.68-.67-.49-.47c-.56-.54-1.13-1.06-1.7-1.58l-.4-.34c-.47-.41-1-.81-1.43-1.18-.19-.16-.31-.26-.44-.35l-.12-.08-.09-.06Zm-46-1.52,2.47,6.11.3-.29c.55-.52,1.1-1,1.67-1.53l.39-.35c.65-.56,1.28-1.08,1.9-1.56l.37-.28.09-.07.15-.11c.27-.21.4-.31.54-.4l-2.53-6.25-.07,0-.14.1-.43.34c-.48.38-1,.77-1.44,1.18h0l-.07.06-.82-.81.7.91-.21.18c-.57.51-1.14,1-1.7,1.58Zm-13-2.14,2.53,6.26,0,0,.16-.11.31-.24.13-.1c.49-.39,1-.77,1.42-1.17l.17-.16.83.81-.75-.87.17-.15c.52-.46,1.06-1,1.7-1.57l1.17-1.14-2.47-6.11A44.43,44.43,0,0,1,1741,116.21Zm76.9,5.92.25.2.13.09.08,0,2.52-6.25a45.43,45.43,0,0,1-5.41-4.59l-2.47,6.11,1.18,1.14c.56.54,1.13,1.06,1.7,1.57l.41.36c.47.41.94.8,1.42,1.17l.14.11Zm-28.22-3v.34l0-.34Zm-38.43-.59a1.24,1.24,0,0,1,.5.37l-.17-.42a1.14,1.14,0,0,1,.22-1.21,1.26,1.26,0,0,1-.51.27v0A1.11,1.11,0,0,1,1751.29,118.55Zm59-1a1.18,1.18,0,0,1,.06,1l-.17.41a1.16,1.16,0,0,1,.49-.36,1.19,1.19,0,0,1-.05-1l.19-.47A1.12,1.12,0,0,1,1810.28,117.52Zm-35.68,1h0l0,0Zm14.45-1.74a17,17,0,0,1,1.74.12l.14,0a14.68,14.68,0,0,1,1.58.28l.25.06c.54.13,1,.26,1.47.42l.35.12h0q.69.24,1.35.54l.11,0,.1,0,2.75-6.49,0,0-.1,0c-.5-.22-1-.41-1.42-.57l-.34-.11a14.07,14.07,0,0,0-1.61-.42l-.22,0a12.62,12.62,0,0,0-1.49-.18h-.29a13.42,13.42,0,0,0-1.68,0h-.06Zm-27.28-5.47,3,7.14.16-.06.17-.07c.44-.19.8-.34,1.14-.46l.59-.2c.38-.12.75-.23,1.12-.32l.12,0,.45-.11a12.13,12.13,0,0,1,1.24-.22l.17,0,.29,0c.59-.07,1.13-.11,1.65-.12l-2.61-6.17h-.16a13.19,13.19,0,0,0-1.57,0h-.31a13.25,13.25,0,0,0-1.48.18l-.11,0h-.11a15.6,15.6,0,0,0-1.63.42l-.88.3-.13.07c-.24.09-.49.2-.74.31Zm21.26,2.57,1.84,4.5,7.92-19.4a1.63,1.63,0,0,0,.14-.68,1.72,1.72,0,0,0-1.37-1.7,1.7,1.7,0,0,0-1.9,1v0Zm38.92,2.86h0ZM1749,108.36l2.47,6.1.34-.32c.54-.52,1.07-1,1.61-1.49l.41-.37c.61-.53,1.24-1,1.89-1.54l.18-.14.09-.06.35-.26c.27-.21.4-.3.54-.4l-2.5-6.17-.48.26A50.86,50.86,0,0,0,1749,108.36Zm55,1.52c.14.09.26.19.5.37l.66.49c.63.48,1.27,1,1.89,1.55l.41.37c.53.47,1.07,1,1.61,1.48l.34.32,2.47-6.1a52.13,52.13,0,0,0-5.34-4.74Zm-47.48,4.54h0Zm5-3.46v0h0Zm-2.15-.16a.47.47,0,0,1,0,.1l.1-.06Zm3.12-.25h0Zm51.71-1.69v0l0,0Zm-43.67-.22.07,0,0-.07ZM1758,102l2.78,6.51.15-.06.2-.08c.41-.18.76-.32,1.1-.44l.62-.22c.36-.11.72-.22,1.08-.3l.61-.16c.35-.07.72-.14,1.18-.21l.51-.07a14.89,14.89,0,0,1,1.63-.12l-2.57-6.06-.24-.13A13.85,13.85,0,0,0,1758,102Zm36,4.85a15.08,15.08,0,0,1,1.63.12l.37,0,.22,0c.45.06.78.12,1.1.19l.33.08.26.06c.43.12.77.21,1.1.32l.65.22.4.15.68.28.18.07.19.08,2.75-6.51a13.77,13.77,0,0,0-7.24-1.32Z" style="fill:url(#linear-gradient-7)"/></g><g class="ab__week4-text" style="filter:url(#f1)"><path d="M1603.56,135.57c-.07-.25-.17-.58-1-.72a2.28,2.28,0,0,1-1.51-1,2.24,2.24,0,0,1-.28-1.78,30.38,30.38,0,0,0,1.1-7.74,8.79,8.79,0,0,0-.89-4.42,8.37,8.37,0,0,0-4.16-3.14,11.54,11.54,0,0,0-3-.36c-2.6,0-3.54.59-3.87.94-1.74,1.85-3.72,5.19-5.89,9.92-.84,2-1.48,3.56-1.88,4.59a12,12,0,0,0-1,4.21,4.29,4.29,0,0,0,1.22,3c1.35,1.05,3.59,1.6,6.67,1.62a2.26,2.26,0,0,1,1.56.66,4,4,0,0,1,1,2.93c0,.41,0,.7,0,.87,0,0,0,0,0,.06.46,3,1.67,3.45,2.07,3.6a5.67,5.67,0,0,0,1.88.29c3.09,0,3.82-1.26,4.13-2.49a18.32,18.32,0,0,0,.26-3.93,3.45,3.45,0,0,1,3.09-3.64c.33-.21.57-.56.57-1.47a2.22,2.22,0,0,1,.05-.45A9.63,9.63,0,0,0,1603.56,135.57Zm-9.14-1.93a3.21,3.21,0,0,1-3.14,1.89,3.55,3.55,0,0,1-3.63-2.52,2.3,2.3,0,0,1-.09-.82,8.15,8.15,0,0,1,1.06-3.85c.88-1.72,1.53-3,2-3.79a2.23,2.23,0,0,1,4.18.83c.2,2,.29,3.49.29,4.64A9.33,9.33,0,0,1,1594.42,133.64Zm-88-4a2.16,2.16,0,0,1,0,.36v.14a3,3,0,0,1-1.26,2.5,2.78,2.78,0,0,1-2.07.84,6.44,6.44,0,0,0-2-.06,2.21,2.21,0,0,0-1.56.85,2.26,2.26,0,0,0-.45,1.64,16.82,16.82,0,0,1-.31,2.35,2.53,2.53,0,0,0,0,.38,4.05,4.05,0,0,0,2.1,3.63,2.21,2.21,0,0,0,1.69.21,2.74,2.74,0,0,1,1.76-.07c.66.26.68.49.71.72a3.86,3.86,0,0,1-.81,2.6,9.16,9.16,0,0,1-3.16,2.81,8,8,0,0,1-4.1,1,8.9,8.9,0,0,1-3.77-.76,9.41,9.41,0,0,1-1.82-1.9c-.6-1.1-1.54-4.12-1.58-12.23a94.6,94.6,0,0,1,1-13.2,8,8,0,0,1,1.26-3.89l7.13-.73a1.6,1.6,0,0,0,.23,0,16.7,16.7,0,0,1,3.4-.38c1.79,0,2.24.39,2.23.39h0a2.45,2.45,0,0,1,.14.91,1.87,1.87,0,0,1-.71,1.58,4.23,4.23,0,0,1-2.74.74,5.34,5.34,0,0,1-.76,0,2.24,2.24,0,0,0-2.29,1.27,7.84,7.84,0,0,0-.59,3.09c-.07,1.61-.11,2-.11,2a2.16,2.16,0,0,0,0,.84,3.3,3.3,0,0,0,2.68,2.55,2.24,2.24,0,0,0,1.87-.42,3.14,3.14,0,0,1,2-.6A2.36,2.36,0,0,1,1506.45,129.61Zm-24.83-12a3.48,3.48,0,0,1,.88,2.63,31.31,31.31,0,0,1-.72,4.45c-.52,3-1.36,7.48-2.48,13.44-.93,4.75-2.36,8.29-4.27,10.52a3.08,3.08,0,0,1-1.72.4,6.38,6.38,0,0,1-3-.73,4.18,4.18,0,0,1-1.23-2.21,18.6,18.6,0,0,1-.4-3.86,29.7,29.7,0,0,0-.38-4.62,2.28,2.28,0,0,0-.69-1.2,3.19,3.19,0,0,0-2.6-.93,2.23,2.23,0,0,0-1.87,1.77c0,.25-.17.82-.65,5.85a19.34,19.34,0,0,1-.92,4.87,2.45,2.45,0,0,1-2.47,1.59c-2.61.18-4.47-.89-5.88-3.39a1.37,1.37,0,0,0-.13-.2,16.82,16.82,0,0,1-2.28-6.26,48.59,48.59,0,0,1-.87-10c.08-9.52,1.66-11.54,2.15-11.93a2.94,2.94,0,0,1,1.82-.7c.9,0,1.91.18,2.49,2.31,0,.14.19.87.59,4l.14,8a2.22,2.22,0,0,0,.47,1.33,3,3,0,0,0,2.46,1.28,2.21,2.21,0,0,0,1.74-.83,5.1,5.1,0,0,0,1-2.89l.07-1.12c.37-1.1.93-2.67,1.65-4.63a2.92,2.92,0,0,1,2.14-2c.35,0,.57.14.82.61a12.28,12.28,0,0,1,.94,3.78c.24,1.62.27,2.26.28,2.43a5.79,5.79,0,0,0,.19,3.38,2.24,2.24,0,0,0,1.64,1.44,2.82,2.82,0,0,0,2.34-.43,2.72,2.72,0,0,0,1.06-2c.38-6.46,1.41-11.15,3.08-14,.45-.78.78-1,.87-1l.28-.15a2.58,2.58,0,0,1,1-.23A3,3,0,0,1,1481.62,117.62Zm73.56,13.86a2.21,2.21,0,0,0,0,2.37c.43.71,1.18,2,2.25,3.87,2.37,4.28,2.87,6.63,2.87,7.84a4.88,4.88,0,0,1-1,3.05,2.85,2.85,0,0,1-1.88.75s-1.12-.26-3.34-4a26.59,26.59,0,0,1-2.82-5.82,2.35,2.35,0,0,0-.56-1,4.34,4.34,0,0,0-1.85-1,2.18,2.18,0,0,0-.67-.1,2.23,2.23,0,0,0-1.57.65l-.33.33a2.24,2.24,0,0,0-.62,2,28.12,28.12,0,0,1,.48,4.37,7.23,7.23,0,0,1-.58,3.2,5.13,5.13,0,0,1-2.83.72,3.61,3.61,0,0,1-2.26-.62c-.74-.56-2.45-2.94-2.41-12.88a77.4,77.4,0,0,1,1-12.44c.62-3.77,1.16-5,1.36-5.39a2.34,2.34,0,0,0,.56-.53,3,3,0,0,1,2.67-1.06c1.72,0,2.29.57,2.55,1,0,.57.06,1,.06,1.4,0,.56-.07,1.75-.19,3.51-.17,2.5-.19,3.13-.19,3.39a2.3,2.3,0,0,0,.19.9,2.84,2.84,0,0,0,2.65,1.75,2.72,2.72,0,0,0,2.6-1.82,2.26,2.26,0,0,0,.1-1.23,15.83,15.83,0,0,1,1.51-5.12c1.3-3.09,2.41-3.93,2.89-4.15,3.66-.15,4.48,1.34,4.76,1.84a3.39,3.39,0,0,1,.38,1.68,14.53,14.53,0,0,1-2.68,7.78C1557.56,127.85,1556.53,129.4,1555.18,131.48Zm-24.64-1.87a2.28,2.28,0,0,1,0,.37v.13a3,3,0,0,1-1.26,2.5,2.84,2.84,0,0,1-2.07.84,6.44,6.44,0,0,0-2-.06,2.19,2.19,0,0,0-1.56.86,2.22,2.22,0,0,0-.45,1.63,16.63,16.63,0,0,1-.31,2.35,2.53,2.53,0,0,0,0,.38,4,4,0,0,0,2.11,3.63,2.19,2.19,0,0,0,1.68.21,2.74,2.74,0,0,1,1.76-.07c.66.26.69.49.71.72a3.86,3.86,0,0,1-.81,2.6,9.28,9.28,0,0,1-3.16,2.82,8.18,8.18,0,0,1-4.1,1,8.9,8.9,0,0,1-3.77-.76,9.05,9.05,0,0,1-1.81-1.9c-.61-1.1-1.55-4.11-1.59-12.23a94.49,94.49,0,0,1,1-13.2,8,8,0,0,1,1.26-3.89l7.14-.73.23,0a16.6,16.6,0,0,1,3.39-.38c1.8,0,2.24.39,2.24.39h0a2.68,2.68,0,0,1,.14.91,1.88,1.88,0,0,1-.72,1.58,4.21,4.21,0,0,1-2.74.74,5.41,5.41,0,0,1-.76,0,2.25,2.25,0,0,0-2.29,1.27,7.82,7.82,0,0,0-.58,3.09c-.08,1.61-.11,2-.12,2a2.37,2.37,0,0,0,0,.84,3.3,3.3,0,0,0,2.68,2.55,2.24,2.24,0,0,0,1.87-.42,3.15,3.15,0,0,1,2.05-.6A2.36,2.36,0,0,1,1530.54,129.61Z" style="fill:#fff"/><path d="M1458.5,154.06a10.19,10.19,0,0,1-9.14-5.56,20.86,20.86,0,0,1-3-7.87,53.39,53.39,0,0,1-1-10.91c.07-8.6,1.26-13.35,3.86-15.4h0a7.28,7.28,0,0,1,4.56-1.64c3.4,0,5.82,2,6.8,5.64.09.36.22,1,.5,3a7.11,7.11,0,0,1,4.79-3.15l.35,0a5.31,5.31,0,0,1,4.72,2.46,21.23,21.23,0,0,1,2.06-5,6.65,6.65,0,0,1,2.73-2.74,6.77,6.77,0,0,1,2.8-.82,7.47,7.47,0,0,1,6.11,2.36,7.16,7.16,0,0,1,2.06,4,8.12,8.12,0,0,1,3-4.87,2.26,2.26,0,0,1,1-.38l7.73-.79a21.48,21.48,0,0,1,4.19-.44c3.47,0,5.63,1.11,6.42,3.3a7,7,0,0,1,.41,2.45,6.34,6.34,0,0,1-2.29,5,7.62,7.62,0,0,1-3.41,1.58l.65,0a6.86,6.86,0,0,1,5.22,2.4q.24-2.79.65-5.82c.5-3.64,1.65-6,3.49-7.27a2.26,2.26,0,0,1,1-.38l7.73-.79a21.48,21.48,0,0,1,4.19-.44c3.47,0,5.63,1.11,6.42,3.3a7,7,0,0,1,.41,2.45,6.34,6.34,0,0,1-2.29,5,7.57,7.57,0,0,1-3.41,1.58l.66,0a6.84,6.84,0,0,1,5.37,2.59c.16-1.58.37-3.15.62-4.69.91-5.54,1.86-7.41,3.07-8.26a7.42,7.42,0,0,1,5.92-2.46c3.92,0,5.76,1.91,6.62,3.66a8.06,8.06,0,0,1,4.51-3.9,1.85,1.85,0,0,1,.47-.08c5.54-.34,8.08,2,9.22,4.09a7.85,7.85,0,0,1,.94,3.86,18.92,18.92,0,0,1-3.41,10.23c-.56.84-1.33,2-2.3,3.49l1.61,2.78c2.32,4.19,3.44,7.47,3.44,10a9.29,9.29,0,0,1-1.85,5.71,6.77,6.77,0,0,1-5.1,2.52c-3.24.33-5.8-3.24-7.46-6a9,9,0,0,1-1.21,3,2.27,2.27,0,0,1-.51.56,9.39,9.39,0,0,1-5.87,1.87,8,8,0,0,1-5-1.54c-2.87-2.18-4.19-7.41-4.16-16.43,0-.26,0-.52,0-.78a8.76,8.76,0,0,1-1.42,1.51,7.5,7.5,0,0,1-3.85,1.84,5.54,5.54,0,0,1,1.74.41,5.16,5.16,0,0,1,3.46,4.36,8.22,8.22,0,0,1-1.54,5.58,13.63,13.63,0,0,1-4.65,4.2,12.53,12.53,0,0,1-6.31,1.55,13.42,13.42,0,0,1-5.69-1.19,11.47,11.47,0,0,1-3.47-3.25,2.2,2.2,0,0,1-.17-.25c-1.53-2.54-2.26-7.18-2.29-14.62h0a9,9,0,0,1-1.32,1.38,7.53,7.53,0,0,1-3.86,1.84,5.41,5.41,0,0,1,1.74.41,5.19,5.19,0,0,1,3.47,4.36,8.18,8.18,0,0,1-1.55,5.58,13.59,13.59,0,0,1-4.64,4.2,12.56,12.56,0,0,1-6.31,1.55,13.39,13.39,0,0,1-5.69-1.19,11.45,11.45,0,0,1-3.47-3.25,2.2,2.2,0,0,1-.17-.25c-1.53-2.54-2.26-7.18-2.3-14.62,0-1.64,0-3.39.15-5.24-.47,2.57-1.06,5.75-1.79,9.59-1.12,5.75-2.9,9.94-5.45,12.81a2.16,2.16,0,0,1-.27.25,7.17,7.17,0,0,1-4.64,1.48,10.8,10.8,0,0,1-5.42-1.42,1.69,1.69,0,0,1-.31-.21,8,8,0,0,1-1.9-2.25l0,0a6.84,6.84,0,0,1-6.28,4.36Zm-6.45-36.24c-.49.39-2.07,2.41-2.15,11.93a48.59,48.59,0,0,0,.87,10,16.82,16.82,0,0,0,2.28,6.26,1.37,1.37,0,0,1,.13.2c1.41,2.5,3.27,3.57,5.88,3.39a2.45,2.45,0,0,0,2.47-1.59,19.34,19.34,0,0,0,.92-4.87c.48-5,.6-5.6.65-5.85a2.23,2.23,0,0,1,1.87-1.77,3.19,3.19,0,0,1,2.6.93,2.28,2.28,0,0,1,.69,1.2,29.7,29.7,0,0,1,.38,4.62,18.6,18.6,0,0,0,.4,3.86,4.18,4.18,0,0,0,1.23,2.21,6.38,6.38,0,0,0,3,.73,3.08,3.08,0,0,0,1.72-.4c1.91-2.23,3.34-5.77,4.27-10.52,1.12-6,2-10.49,2.48-13.44a31.31,31.31,0,0,0,.72-4.45,3.48,3.48,0,0,0-.88-2.63,3,3,0,0,0-2.54-1.12,2.58,2.58,0,0,0-1,.23l-.28.15c-.09,0-.42.23-.87,1-1.67,2.8-2.7,7.49-3.08,14a2.72,2.72,0,0,1-1.06,2,2.82,2.82,0,0,1-2.34.43,2.24,2.24,0,0,1-1.64-1.44,5.79,5.79,0,0,1-.19-3.38c0-.17,0-.81-.28-2.43a12.28,12.28,0,0,0-.94-3.78c-.25-.47-.47-.59-.82-.61a2.92,2.92,0,0,0-2.14,2c-.72,2-1.28,3.53-1.65,4.63l-.07,1.12a5.1,5.1,0,0,1-1,2.89,2.21,2.21,0,0,1-1.74.83,3,3,0,0,1-2.46-1.28,2.22,2.22,0,0,1-.47-1.33l-.14-8c-.4-3.16-.56-3.89-.59-4-.58-2.13-1.59-2.31-2.49-2.31A2.94,2.94,0,0,0,1452.05,117.82Zm63.4,29a9.05,9.05,0,0,0,1.81,1.9,8.9,8.9,0,0,0,3.77.76,8.18,8.18,0,0,0,4.1-1,9.28,9.28,0,0,0,3.16-2.82,3.86,3.86,0,0,0,.81-2.6c0-.23,0-.46-.71-.72a2.74,2.74,0,0,0-1.76.07,2.19,2.19,0,0,1-1.68-.21,4,4,0,0,1-2.11-3.63,2.53,2.53,0,0,1,0-.38,16.63,16.63,0,0,0,.31-2.35,2.22,2.22,0,0,1,.45-1.63,2.19,2.19,0,0,1,1.56-.86,6.44,6.44,0,0,1,2,.06,2.84,2.84,0,0,0,2.07-.84,3,3,0,0,0,1.26-2.5V130a2.28,2.28,0,0,0,0-.37,2.36,2.36,0,0,0-1.9-.93,3.15,3.15,0,0,0-2.05.6,2.24,2.24,0,0,1-1.87.42,3.3,3.3,0,0,1-2.68-2.55,2.37,2.37,0,0,1,0-.84s0-.38.12-2a7.82,7.82,0,0,1,.58-3.09A2.25,2.25,0,0,1,1525,120a5.41,5.41,0,0,0,.76,0,4.21,4.21,0,0,0,2.74-.74,1.88,1.88,0,0,0,.72-1.58,2.68,2.68,0,0,0-.14-.91h0s-.44-.39-2.24-.39a16.6,16.6,0,0,0-3.39.38l-.23,0-7.14.73a8,8,0,0,0-1.26,3.89,94.49,94.49,0,0,0-1,13.2C1513.9,142.72,1514.84,145.73,1515.45,146.83Zm-24.1,0a9.41,9.41,0,0,0,1.82,1.9,8.9,8.9,0,0,0,3.77.76,8,8,0,0,0,4.1-1,9.16,9.16,0,0,0,3.16-2.81,3.86,3.86,0,0,0,.81-2.6c0-.23,0-.46-.71-.72a2.74,2.74,0,0,0-1.76.07,2.21,2.21,0,0,1-1.69-.21,4.05,4.05,0,0,1-2.1-3.63,2.53,2.53,0,0,1,0-.38,16.82,16.82,0,0,0,.31-2.35,2.26,2.26,0,0,1,.45-1.64,2.21,2.21,0,0,1,1.56-.85,6.44,6.44,0,0,1,2,.06,2.78,2.78,0,0,0,2.07-.84,3,3,0,0,0,1.26-2.5V130a2.16,2.16,0,0,0,0-.36,2.36,2.36,0,0,0-1.91-.93,3.14,3.14,0,0,0-2,.6,2.24,2.24,0,0,1-1.87.42,3.3,3.3,0,0,1-2.68-2.55,2.16,2.16,0,0,1,0-.84s0-.38.11-2a7.84,7.84,0,0,1,.59-3.09,2.24,2.24,0,0,1,2.29-1.27,5.34,5.34,0,0,0,.76,0,4.23,4.23,0,0,0,2.74-.74,1.87,1.87,0,0,0,.71-1.58,2.45,2.45,0,0,0-.14-.91h0s-.44-.39-2.23-.39a16.7,16.7,0,0,0-3.4.38,1.6,1.6,0,0,1-.23,0l-7.13.73a8,8,0,0,0-1.26,3.89,94.6,94.6,0,0,0-1,13.2C1489.81,142.71,1490.75,145.73,1491.35,146.83Zm56.82-9.27a2.18,2.18,0,0,1,.67.1,4.34,4.34,0,0,1,1.85,1,2.35,2.35,0,0,1,.56,1,26.59,26.59,0,0,0,2.82,5.82c2.22,3.7,3.33,4,3.34,4a2.85,2.85,0,0,0,1.88-.75,4.88,4.88,0,0,0,1-3.05c0-1.21-.5-3.56-2.87-7.84-1.07-1.86-1.82-3.16-2.25-3.87a2.21,2.21,0,0,1,0-2.37c1.35-2.08,2.38-3.63,3.07-4.67a14.53,14.53,0,0,0,2.68-7.78,3.39,3.39,0,0,0-.38-1.68c-.28-.5-1.1-2-4.76-1.84-.48.22-1.59,1.06-2.89,4.15a15.83,15.83,0,0,0-1.51,5.12,2.26,2.26,0,0,1-.1,1.23,2.72,2.72,0,0,1-2.6,1.82,2.84,2.84,0,0,1-2.65-1.75,2.3,2.3,0,0,1-.19-.9c0-.26,0-.89.19-3.39.12-1.76.19-3,.19-3.51,0-.36,0-.83-.06-1.4-.26-.45-.83-1-2.55-1a3,3,0,0,0-2.67,1.06,2.34,2.34,0,0,1-.56.53c-.2.37-.74,1.62-1.36,5.39a77.4,77.4,0,0,0-1,12.44c0,9.94,1.67,12.32,2.41,12.88a3.61,3.61,0,0,0,2.26.62,5.13,5.13,0,0,0,2.83-.72,7.23,7.23,0,0,0,.58-3.2,28.12,28.12,0,0,0-.48-4.37,2.24,2.24,0,0,1,.62-2l.33-.33A2.23,2.23,0,0,1,1548.17,137.56Zm-25-1.64s0,0,0,.06Zm-24.09,0v0Zm27.49-11.5v0l.18,0Zm-24.09,0v0l.17,0Zm48.43-.61Zm-.15-.16.15.16Zm0,0Zm0,0Zm0,0h0Zm0,0Zm-10.3-6.31Zm55.09,36.28a9.92,9.92,0,0,1-3.39-.55c-1.86-.67-4.21-2.43-5-7a5.58,5.58,0,0,1-.08-.94,13.37,13.37,0,0,1-7.7-2.64,1.07,1.07,0,0,1-.19-.18,8.78,8.78,0,0,1-2.55-6.23,16.05,16.05,0,0,1,1.34-5.85q.6-1.56,1.94-4.73c2.44-5.32,4.62-9,6.72-11.19,1.49-1.58,3.82-2.35,7.12-2.35a16.19,16.19,0,0,1,4.26.55l.22.08a12.81,12.81,0,0,1,6.43,5,12.66,12.66,0,0,1,1.56,6.77,32.75,32.75,0,0,1-.78,6.91,5.22,5.22,0,0,1,2.33,3.07,11.66,11.66,0,0,1,.28,3.31,1.81,1.81,0,0,1-.07.52,5.71,5.71,0,0,1-3.54,5.19l-.11,0a19.55,19.55,0,0,1-.39,4.37C1603.47,149.93,1601.65,153.61,1595.56,153.61Zm-4-8.4s0,0,0,.06c.46,3,1.67,3.45,2.07,3.6a5.67,5.67,0,0,0,1.88.29c3.09,0,3.82-1.26,4.13-2.49a18.32,18.32,0,0,0,.26-3.93,3.45,3.45,0,0,1,3.09-3.64c.33-.21.57-.56.57-1.47a2.22,2.22,0,0,1,.05-.45,9.63,9.63,0,0,0-.1-1.61c-.07-.25-.17-.58-1-.72a2.28,2.28,0,0,1-1.51-1,2.24,2.24,0,0,1-.28-1.78,30.38,30.38,0,0,0,1.1-7.74,8.79,8.79,0,0,0-.89-4.42,8.37,8.37,0,0,0-4.16-3.14,11.54,11.54,0,0,0-3-.36c-2.6,0-3.54.59-3.87.94-1.74,1.85-3.72,5.19-5.89,9.92-.84,2-1.48,3.56-1.88,4.59a12,12,0,0,0-1,4.21,4.29,4.29,0,0,0,1.22,3c1.35,1.05,3.59,1.6,6.67,1.62a2.26,2.26,0,0,1,1.56.66,4,4,0,0,1,1,2.93C1591.59,144.75,1591.59,145,1591.6,145.21Zm-.2-.59Zm0,0h0Zm0,0Zm-4.29-.6Zm4.17-8.48a3.55,3.55,0,0,1-3.63-2.52,2.3,2.3,0,0,1-.09-.82,8.15,8.15,0,0,1,1.06-3.85c.88-1.72,1.53-3,2-3.79a2.23,2.23,0,0,1,4.18.83c.2,2,.29,3.49.29,4.64a9.33,9.33,0,0,1-.64,3.62A3.21,3.21,0,0,1,1591.28,135.53Z" style="fill:#d6a758"/></g><g class="ab__week3-text" style="filter:url(#f1)"><path d="M1035.3,116.07a5.12,5.12,0,0,1,3.2-1.17q3.57,0,4.65,4c.12.5.34,2,.65,4.41l.14,8.17a.91.91,0,0,0,.71.43,3.21,3.21,0,0,0,.47-1.65l.09-1.41c.38-1.12,1-2.8,1.79-5a5.14,5.14,0,0,1,4-3.43,3.1,3.1,0,0,1,3,1.79,15.06,15.06,0,0,1,1.18,4.5,15.47,15.47,0,0,1,.28,3.15,3.5,3.5,0,0,0,.09,2.25c.44.1.68,0,.71-.37q.6-10.29,3.38-14.94a4.4,4.4,0,0,1,1.88-1.92,4.59,4.59,0,0,1,2-.56,5.29,5.29,0,0,1,4.32,1.73,5.63,5.63,0,0,1,1.55,4.23,34.75,34.75,0,0,1-.75,4.84q-.8,4.5-2.49,13.48-1.54,7.94-4.93,11.74a5.07,5.07,0,0,1-3.24,1,8.54,8.54,0,0,1-4.32-1.12,6.31,6.31,0,0,1-2.12-3.53,20.32,20.32,0,0,1-.46-4.32,31.13,31.13,0,0,0-.33-4.22,1.07,1.07,0,0,0-.8-.38q-.15.71-.61,5.64a22,22,0,0,1-1.08,5.49,4.69,4.69,0,0,1-4.37,3q-5.22.38-8-4.51a18.71,18.71,0,0,1-2.66-7.11,51,51,0,0,1-.91-10.45Q1032.39,118.37,1035.3,116.07Zm57.86,12.59a4.39,4.39,0,0,1,.14,1.45,5.24,5.24,0,0,1-2,4.18,5,5,0,0,1-3.94,1.36,3.68,3.68,0,0,0-1.41,0,13.66,13.66,0,0,1-.33,3,1.82,1.82,0,0,0,1,1.69,4.9,4.9,0,0,1,3.14,0,3,3,0,0,1,2.12,2.54,6.07,6.07,0,0,1-1.18,4.11,11.36,11.36,0,0,1-3.9,3.5,10.33,10.33,0,0,1-5.21,1.26,11,11,0,0,1-4.74-1,10.19,10.19,0,0,1-2.68-2.63q-1.92-3.19-2-13.48a97.72,97.72,0,0,1,1-13.53q.61-4.41,2.54-5.72l7.84-.8a19,19,0,0,1,3.85-.43q3.67,0,4.32,1.84a4.71,4.71,0,0,1,.29,1.69,4.07,4.07,0,0,1-1.51,3.28,6.25,6.25,0,0,1-4.18,1.27,9.43,9.43,0,0,1-1,0,6.06,6.06,0,0,0-.37,2.25c-.07,1.31-.11,2.07-.15,2.25a1.16,1.16,0,0,0,1,.85,5.35,5.35,0,0,1,3.43-1.08A4.74,4.74,0,0,1,1093.16,128.66Zm24.09,0a4.39,4.39,0,0,1,.14,1.45,5.24,5.24,0,0,1-2,4.18,5,5,0,0,1-3.94,1.36,3.68,3.68,0,0,0-1.41,0,13.66,13.66,0,0,1-.33,3,1.82,1.82,0,0,0,1,1.69,4.9,4.9,0,0,1,3.14,0,3,3,0,0,1,2.12,2.54,6.07,6.07,0,0,1-1.18,4.11,11.32,11.32,0,0,1-3.89,3.5,10.37,10.37,0,0,1-5.22,1.26,11,11,0,0,1-4.74-1,10.19,10.19,0,0,1-2.68-2.63q-1.92-3.19-2-13.48a96.33,96.33,0,0,1,1-13.53c.4-2.94,1.25-4.85,2.53-5.72l7.85-.8a18.91,18.91,0,0,1,3.85-.43q3.66,0,4.32,1.84a5,5,0,0,1,.28,1.69,4.09,4.09,0,0,1-1.5,3.28,6.29,6.29,0,0,1-4.18,1.27,9.51,9.51,0,0,1-1,0,6.06,6.06,0,0,0-.37,2.25c-.07,1.31-.11,2.07-.14,2.25a1.13,1.13,0,0,0,1,.85,5.35,5.35,0,0,1,3.43-1.08A4.74,4.74,0,0,1,1117.25,128.66Zm6.48-13.06h0a5.19,5.19,0,0,1,4.46-2q3.62,0,4.75,2.67.09,1.23.09,2c0,.62-.06,1.84-.19,3.66s-.19,2.9-.19,3.24a.64.64,0,0,0,.61.42.51.51,0,0,0,.52-.37.62.62,0,0,1,0-.33,17.59,17.59,0,0,1,1.69-6.11q2-4.79,4.51-5.49,5.31-.33,7.14,3a5.54,5.54,0,0,1,.66,2.77,16.69,16.69,0,0,1-3,9q-1,1.55-3.06,4.64.66,1.08,2.3,3.95,3.15,5.69,3.15,8.92a7.08,7.08,0,0,1-1.41,4.37,4.63,4.63,0,0,1-3.52,1.64q-2.25.24-5.4-5a29.1,29.1,0,0,1-3-6.34,2.52,2.52,0,0,0-.94-.42l-.33.33a30.23,30.23,0,0,1,.52,4.74,8.66,8.66,0,0,1-1.13,4.74,7.18,7.18,0,0,1-4.51,1.41,5.79,5.79,0,0,1-3.62-1.08q-3.33-2.53-3.28-14.65a78.45,78.45,0,0,1,1-12.8Q1122.47,116.3,1123.73,115.6Zm61.1,16.25h.05c-.13.41,0,.66.52.75a2.89,2.89,0,0,1,1.17.38q2.45,1.83,2.44,5.68a16.92,16.92,0,0,1-.37,3.38,10.76,10.76,0,0,1-3.1,5.35,11.74,11.74,0,0,1-5.64,3.24,18.71,18.71,0,0,1-4.51.57q-5.54,0-8.12-3.24a7.26,7.26,0,0,1-1.6-4.79,9.59,9.59,0,0,1,.42-2.63,8.63,8.63,0,0,1,.8-1.27,2,2,0,0,1,1-.82,3.37,3.37,0,0,1,1-.17,12.28,12.28,0,0,1,2.35.47,12,12,0,0,0,2.25.47c1,0,1.62-.62,1.74-1.88a2.26,2.26,0,0,0-1.83-1.59c-.59-.1-1.49-.27-2.68-.52a2.18,2.18,0,0,1-1.5-2,3.91,3.91,0,0,1-.19-1.27,3,3,0,0,1,.8-2.25,11.7,11.7,0,0,1,3.05-1.27c1.35-.44,2-1.13,2.12-2.07a1.87,1.87,0,0,0-1.32-1.31,7.67,7.67,0,0,0-2.65.56,14.86,14.86,0,0,1-2,.61,4,4,0,0,1-2.82-1.38,4.26,4.26,0,0,1-1.36-3c0-2.45,1.82-4.65,5.45-6.63a11.17,11.17,0,0,1,5.45-1.26,13.89,13.89,0,0,1,8.26,2.53q4.47,3.2,4.93,6.53a11.54,11.54,0,0,1,.1,1.46A7.71,7.71,0,0,1,1184.83,131.85Z" style="fill:#fff"/><path d="M1043.12,154.06c-3.88,0-7-1.91-9.13-5.56a20.86,20.86,0,0,1-3-7.87,53.39,53.39,0,0,1-1-10.91c.07-8.6,1.26-13.35,3.85-15.4h0a7.3,7.3,0,0,1,4.57-1.64c3.4,0,5.81,2,6.8,5.64.09.36.22,1,.49,3a7.13,7.13,0,0,1,4.8-3.15l.35,0a5.31,5.31,0,0,1,4.72,2.46,20.81,20.81,0,0,1,2.06-5,6.69,6.69,0,0,1,2.72-2.74,6.77,6.77,0,0,1,2.8-.82,7.48,7.48,0,0,1,6.12,2.36,7.16,7.16,0,0,1,2.06,4,8.11,8.11,0,0,1,3-4.87,2.3,2.3,0,0,1,1-.38l7.72-.79a21.48,21.48,0,0,1,4.19-.44c3.47,0,5.63,1.11,6.42,3.3a7,7,0,0,1,.41,2.45,6.34,6.34,0,0,1-2.29,5,7.53,7.53,0,0,1-3.41,1.58l.66,0a6.82,6.82,0,0,1,5.21,2.4c.17-1.86.38-3.8.66-5.82.5-3.64,1.64-6,3.49-7.27a2.22,2.22,0,0,1,1-.38l7.73-.79a21.33,21.33,0,0,1,4.19-.44c3.47,0,5.63,1.11,6.41,3.3a7,7,0,0,1,.42,2.45,6.35,6.35,0,0,1-2.3,5,7.53,7.53,0,0,1-3.41,1.58l.66,0a6.86,6.86,0,0,1,5.38,2.59c.16-1.58.37-3.15.62-4.69.9-5.54,1.86-7.41,3.06-8.26a7.45,7.45,0,0,1,5.92-2.46c3.93,0,5.77,1.91,6.63,3.66a8.06,8.06,0,0,1,4.51-3.9,1.85,1.85,0,0,1,.47-.08c5.54-.34,8.07,2,9.22,4.09A7.85,7.85,0,0,1,1150,119a18.86,18.86,0,0,1-3.42,10.23c-.56.84-1.32,2-2.29,3.49l1.61,2.78c2.32,4.19,3.44,7.47,3.44,10a9.3,9.3,0,0,1-1.86,5.71,6.77,6.77,0,0,1-5.09,2.52c-3.25.33-5.8-3.24-7.47-6a8.94,8.94,0,0,1-1.2,3,2.27,2.27,0,0,1-.51.56,9.41,9.41,0,0,1-5.87,1.87,8,8,0,0,1-5-1.54c-2.87-2.18-4.2-7.41-4.16-16.43v-.78a8,8,0,0,1-1.42,1.51,7.5,7.5,0,0,1-3.85,1.84,5.41,5.41,0,0,1,1.74.41,5.15,5.15,0,0,1,3.46,4.36,8.17,8.17,0,0,1-1.54,5.58,13.54,13.54,0,0,1-4.65,4.2,12.5,12.5,0,0,1-6.31,1.55,13.37,13.37,0,0,1-5.68-1.19,11.36,11.36,0,0,1-3.47-3.25l-.18-.25c-1.52-2.54-2.25-7.18-2.29-14.62h0a8.15,8.15,0,0,1-1.32,1.38,7.5,7.5,0,0,1-3.85,1.84,5.47,5.47,0,0,1,1.74.41,5.16,5.16,0,0,1,3.46,4.36,8.17,8.17,0,0,1-1.54,5.58,13.54,13.54,0,0,1-4.65,4.2,12.5,12.5,0,0,1-6.31,1.55,13.37,13.37,0,0,1-5.68-1.19,11.34,11.34,0,0,1-3.47-3.25,2.27,2.27,0,0,1-.18-.25c-1.53-2.54-2.26-7.18-2.29-14.62,0-1.64,0-3.39.15-5.24-.47,2.57-1.07,5.75-1.79,9.59-1.12,5.75-2.91,9.94-5.46,12.81a3.07,3.07,0,0,1-.26.25,7.2,7.2,0,0,1-4.64,1.48,10.84,10.84,0,0,1-5.43-1.42,2.11,2.11,0,0,1-.31-.21,8.19,8.19,0,0,1-1.9-2.25v0A6.86,6.86,0,0,1,1044,154Zm-6.44-36.24c-.49.39-2.08,2.4-2.16,11.93a48.56,48.56,0,0,0,.88,10,16.84,16.84,0,0,0,2.27,6.26,1.37,1.37,0,0,1,.13.2c1.42,2.5,3.28,3.57,5.89,3.39a2.46,2.46,0,0,0,2.47-1.59,19.84,19.84,0,0,0,.92-4.87c.48-5,.59-5.6.64-5.85a2.26,2.26,0,0,1,1.88-1.77,3.2,3.2,0,0,1,2.6.93,2.28,2.28,0,0,1,.69,1.2,30.06,30.06,0,0,1,.37,4.62,18.51,18.51,0,0,0,.41,3.86,4.11,4.11,0,0,0,1.23,2.21,6.38,6.38,0,0,0,3,.73,3.11,3.11,0,0,0,1.72-.4c1.9-2.23,3.34-5.77,4.26-10.52,1.13-6,2-10.49,2.48-13.44a31.31,31.31,0,0,0,.72-4.45,3.48,3.48,0,0,0-.87-2.63,3.05,3.05,0,0,0-2.54-1.12,2.5,2.5,0,0,0-1,.23l-.28.15c-.09,0-.42.23-.87,1-1.67,2.8-2.7,7.49-3.09,14a2.69,2.69,0,0,1-1.06,2,2.8,2.8,0,0,1-2.33.43,2.22,2.22,0,0,1-1.64-1.44,5.71,5.71,0,0,1-.19-3.38c0-.17,0-.81-.29-2.43a12.79,12.79,0,0,0-.93-3.78c-.25-.47-.47-.59-.82-.61a2.93,2.93,0,0,0-2.15,2c-.71,2-1.27,3.53-1.64,4.63l-.08,1.12a5,5,0,0,1-1,2.89,2.2,2.2,0,0,1-1.73.83,3.08,3.08,0,0,1-2.47-1.28,2.21,2.21,0,0,1-.46-1.33l-.14-8c-.41-3.16-.56-3.89-.6-4-.57-2.13-1.58-2.31-2.48-2.31A2.92,2.92,0,0,0,1036.68,117.82Zm63.39,29a9.18,9.18,0,0,0,1.82,1.9,8.89,8.89,0,0,0,3.76.76,8.25,8.25,0,0,0,4.11-1,9.28,9.28,0,0,0,3.16-2.82,3.85,3.85,0,0,0,.8-2.6c0-.23,0-.46-.71-.72a2.7,2.7,0,0,0-1.75.07,2.21,2.21,0,0,1-1.69-.21,4,4,0,0,1-2.11-3.63,1.69,1.69,0,0,1,0-.38,16.63,16.63,0,0,0,.31-2.35,2.22,2.22,0,0,1,.45-1.63,2.15,2.15,0,0,1,1.56-.86,6.36,6.36,0,0,1,2,.06,2.84,2.84,0,0,0,2.08-.84,3,3,0,0,0,1.26-2.5V130a2.28,2.28,0,0,0,0-.37,2.36,2.36,0,0,0-1.91-.93,3.1,3.1,0,0,0-2,.6,2.25,2.25,0,0,1-1.87.42,3.29,3.29,0,0,1-2.68-2.55,2.16,2.16,0,0,1,0-.84s0-.38.11-2a7.8,7.8,0,0,1,.59-3.09,2.24,2.24,0,0,1,2.29-1.27,5.26,5.26,0,0,0,.76,0,4.23,4.23,0,0,0,2.74-.74,1.87,1.87,0,0,0,.71-1.58,2.68,2.68,0,0,0-.14-.91h0s-.44-.39-2.23-.39a16.62,16.62,0,0,0-3.4.38,1.6,1.6,0,0,1-.23,0l-7.13.73a8,8,0,0,0-1.27,3.89,94.35,94.35,0,0,0-1,13.2C1098.53,142.72,1099.47,145.73,1100.07,146.83Zm-24.09,0a9.06,9.06,0,0,0,1.82,1.9,8.85,8.85,0,0,0,3.76.76,8,8,0,0,0,4.1-1,9.16,9.16,0,0,0,3.16-2.81,3.81,3.81,0,0,0,.81-2.6c0-.23-.05-.46-.71-.72a2.74,2.74,0,0,0-1.76.07,2.19,2.19,0,0,1-1.68-.21,4,4,0,0,1-2.11-3.63,2.53,2.53,0,0,1,0-.38,16.2,16.2,0,0,0,.32-2.35,2.26,2.26,0,0,1,.45-1.64,2.19,2.19,0,0,1,1.56-.85,6.36,6.36,0,0,1,2,.06,2.8,2.8,0,0,0,2.08-.84,3,3,0,0,0,1.25-2.5.71.71,0,0,1,0-.14,2.17,2.17,0,0,0,0-.36,2.33,2.33,0,0,0-1.9-.93,3.15,3.15,0,0,0-2.05.6,2.22,2.22,0,0,1-1.86.42,3.3,3.3,0,0,1-2.68-2.55,2.16,2.16,0,0,1,0-.84s0-.38.11-2a8,8,0,0,1,.58-3.09,2.25,2.25,0,0,1,2.29-1.27,5.41,5.41,0,0,0,.76,0,4.26,4.26,0,0,0,2.75-.74,1.87,1.87,0,0,0,.71-1.58,2.68,2.68,0,0,0-.14-.91h0s-.44-.39-2.24-.39a16.6,16.6,0,0,0-3.39.38,1.81,1.81,0,0,1-.23,0l-7.13.73a7.93,7.93,0,0,0-1.27,3.89,94.45,94.45,0,0,0-1,13.2C1074.43,142.71,1075.37,145.73,1076,146.83Zm56.82-9.27a2.16,2.16,0,0,1,.66.1,4.28,4.28,0,0,1,1.85,1,2.24,2.24,0,0,1,.56,1,27.19,27.19,0,0,0,2.83,5.82c2.21,3.7,3.32,4,3.33,4a2.83,2.83,0,0,0,1.88-.75,4.82,4.82,0,0,0,1-3.05c0-1.21-.49-3.56-2.86-7.84-1.07-1.86-1.83-3.16-2.26-3.87a2.23,2.23,0,0,1,0-2.37c1.35-2.08,2.37-3.63,3.06-4.67a14.53,14.53,0,0,0,2.68-7.78,3.4,3.4,0,0,0-.37-1.68c-.28-.5-1.12-2-4.76-1.84-.49.22-1.59,1.06-2.89,4.15a16,16,0,0,0-1.52,5.12,2.16,2.16,0,0,1-.09,1.23,2.73,2.73,0,0,1-2.61,1.82,2.82,2.82,0,0,1-2.64-1.75,2.14,2.14,0,0,1-.19-.9c0-.26,0-.89.19-3.39.12-1.76.18-3,.18-3.51,0-.36,0-.83-.06-1.4-.25-.45-.83-1-2.55-1a3,3,0,0,0-2.67,1.06,2.13,2.13,0,0,1-.55.53c-.21.37-.75,1.62-1.37,5.39a77.4,77.4,0,0,0-1,12.44c0,9.94,1.68,12.32,2.41,12.88a3.63,3.63,0,0,0,2.27.62,5.07,5.07,0,0,0,2.82-.72,7.22,7.22,0,0,0,.59-3.2,28.39,28.39,0,0,0-.49-4.37,2.24,2.24,0,0,1,.62-2l.33-.33A2.27,2.27,0,0,1,1132.8,137.56Zm-25-1.64a.13.13,0,0,1,0,.06A.13.13,0,0,0,1107.81,135.92Zm-24.09,0s0,0,0,.06S1083.72,135.93,1083.72,135.91Zm27.5-11.49v0l.18,0Zm-24.1,0v0l.18,0Zm48.43-.61Zm-.14-.16.14.16Zm0,0h0Zm0,0Zm0,0h0Zm0,0h0Zm-10.3-6.31Zm50.3,36.1c-4.39,0-7.71-1.38-9.86-4.08a9.44,9.44,0,0,1-2.09-6.22,12,12,0,0,1,.53-3.27,2.83,2.83,0,0,1,.17-.4,10.87,10.87,0,0,1,1-1.56,4.26,4.26,0,0,1,2.07-1.58,6.77,6.77,0,0,1,1-.21,4.45,4.45,0,0,1-1.09-2.36,6,6,0,0,1-.24-1.76,5.32,5.32,0,0,1,1.24-3.6,6.61,6.61,0,0,1-3.37-1.95,6.45,6.45,0,0,1-2-4.59c0-3.31,2.23-6.2,6.62-8.58a13.3,13.3,0,0,1,6.51-1.54,16.12,16.12,0,0,1,9.55,3c3.48,2.49,5.45,5.19,5.85,8a13,13,0,0,1,.11,1.77,10.23,10.23,0,0,1-2.72,7.31,9,9,0,0,1,2.63,6.87,19.14,19.14,0,0,1-.42,3.83,13,13,0,0,1-3.71,6.48,13.9,13.9,0,0,1-6.69,3.83A20.88,20.88,0,0,1,1175.39,153.43Zm-7.23-12a7.68,7.68,0,0,0-.26,1.83,5,5,0,0,0,1.11,3.33c1.29,1.61,3.38,2.4,6.38,2.4a16.82,16.82,0,0,0,4-.5,9.49,9.49,0,0,0,4.59-2.65,8.54,8.54,0,0,0,2.5-4.24,15.2,15.2,0,0,0,.32-2.92,4.66,4.66,0,0,0-1.4-3.79l-.4-.08a2.85,2.85,0,0,1-2-1.33,2.62,2.62,0,0,1-.36-1.65,2.17,2.17,0,0,1,1.16-1.93,5.52,5.52,0,0,0,3.09-5.4,9,9,0,0,0-.08-1.17c-.22-1.56-1.57-3.25-4-5a11.62,11.62,0,0,0-7-2.12,9,9,0,0,0-4.38,1c-2,1.06-4.29,2.73-4.29,4.67a2,2,0,0,0,.72,1.46,2.35,2.35,0,0,0,1.05.7l1.4-.46a9.35,9.35,0,0,1,3.5-.69,2.07,2.07,0,0,1,.61.12,4.06,4.06,0,0,1,2.75,2.88,2.69,2.69,0,0,1,.06.69c-.07,1.09-.64,3.06-3.65,4a23.21,23.21,0,0,0-2.23.83,1.65,1.65,0,0,0-.08.57,1.41,1.41,0,0,0,.06.51,2.48,2.48,0,0,1,.12.54.15.15,0,0,0,0,.07c1,.21,1.77.35,2.3.44l.14,0a4.48,4.48,0,0,1,3.48,3.14,2.27,2.27,0,0,1,.08.86,3.89,3.89,0,0,1-4,3.88,11.94,11.94,0,0,1-2.82-.54,10.9,10.9,0,0,0-1.81-.4l-.15,0,0,0-.11.15A4.82,4.82,0,0,0,1168.16,141.41Zm.64-1Zm16.19-5.89h0Zm-13.79-3.05Z" style="fill:#d6a758"/></g><g class="ab__week2-text" style="filter:url(#f1)"><path d="M642,116.07a5.14,5.14,0,0,1,3.2-1.17q3.57,0,4.65,4c.12.5.34,2,.65,4.41l.15,8.17a.88.88,0,0,0,.7.43,3.12,3.12,0,0,0,.47-1.65l.09-1.41c.38-1.12,1-2.8,1.79-5a5.14,5.14,0,0,1,4-3.43,3.12,3.12,0,0,1,3,1.79,15.12,15.12,0,0,1,1.17,4.5,15.47,15.47,0,0,1,.28,3.15,3.44,3.44,0,0,0,.1,2.25c.43.1.67,0,.7-.37q.61-10.29,3.38-14.94a4.4,4.4,0,0,1,1.88-1.92,4.63,4.63,0,0,1,2-.56,5.27,5.27,0,0,1,4.32,1.73,5.59,5.59,0,0,1,1.55,4.23,34.75,34.75,0,0,1-.75,4.84q-.79,4.5-2.49,13.48-1.54,7.94-4.93,11.74a5,5,0,0,1-3.24,1,8.54,8.54,0,0,1-4.32-1.12,6.29,6.29,0,0,1-2.11-3.53,19.63,19.63,0,0,1-.47-4.32,31.13,31.13,0,0,0-.33-4.22,1.07,1.07,0,0,0-.8-.38c-.09.47-.3,2.35-.61,5.64a22,22,0,0,1-1.08,5.49,4.69,4.69,0,0,1-4.37,3c-3.47.25-6.14-1.25-8-4.51a18.88,18.88,0,0,1-2.66-7.11,51,51,0,0,1-.91-10.45Q639,118.37,642,116.07Zm57.86,12.59a4.39,4.39,0,0,1,.14,1.45,5.24,5.24,0,0,1-2,4.18,5,5,0,0,1-3.94,1.36,3.68,3.68,0,0,0-1.41,0,13.66,13.66,0,0,1-.33,3,1.82,1.82,0,0,0,1,1.69,4.9,4.9,0,0,1,3.14,0,3,3,0,0,1,2.12,2.54,6.07,6.07,0,0,1-1.18,4.11,11.42,11.42,0,0,1-3.89,3.5,10.37,10.37,0,0,1-5.22,1.26,11,11,0,0,1-4.74-1,10.19,10.19,0,0,1-2.68-2.63q-1.92-3.19-2-13.48a96.33,96.33,0,0,1,1-13.53c.4-2.94,1.25-4.85,2.53-5.72l7.85-.8a18.91,18.91,0,0,1,3.85-.43q3.66,0,4.32,1.84a5,5,0,0,1,.28,1.69,4.09,4.09,0,0,1-1.5,3.28,6.29,6.29,0,0,1-4.18,1.27,9.51,9.51,0,0,1-1,0,6.06,6.06,0,0,0-.37,2.25c-.07,1.31-.11,2.07-.14,2.25a1.13,1.13,0,0,0,1,.85,5.35,5.35,0,0,1,3.43-1.08A4.74,4.74,0,0,1,699.81,128.66Zm24.09,0a4.4,4.4,0,0,1,.15,1.45,5.27,5.27,0,0,1-2,4.18,5,5,0,0,1-3.95,1.36,3.68,3.68,0,0,0-1.41,0,13,13,0,0,1-.33,3,1.82,1.82,0,0,0,1,1.69,4.94,4.94,0,0,1,3.15,0,3,3,0,0,1,2.11,2.54,6.06,6.06,0,0,1-1.17,4.11,11.36,11.36,0,0,1-3.9,3.5,10.35,10.35,0,0,1-5.22,1.26,11,11,0,0,1-4.74-1,10.35,10.35,0,0,1-2.68-2.63q-1.92-3.19-2-13.48a96.33,96.33,0,0,1,1-13.53q.61-4.41,2.53-5.72l7.85-.8a18.91,18.91,0,0,1,3.85-.43q3.66,0,4.32,1.84a4.72,4.72,0,0,1,.28,1.69,4.09,4.09,0,0,1-1.5,3.28,6.27,6.27,0,0,1-4.18,1.27,9.63,9.63,0,0,1-1,0,6.27,6.27,0,0,0-.37,2.25c-.06,1.31-.11,2.07-.14,2.25a1.13,1.13,0,0,0,1,.85,5.37,5.37,0,0,1,3.43-1.08A4.74,4.74,0,0,1,723.9,128.66Zm6.49-13.06h0a5.19,5.19,0,0,1,4.46-2c2.41,0,4,.89,4.75,2.67q.09,1.23.09,2c0,.62-.06,1.84-.19,3.66s-.18,2.9-.18,3.24a.62.62,0,0,0,.61.42.5.5,0,0,0,.51-.37s0-.14,0-.33a17.36,17.36,0,0,1,1.69-6.11c1.34-3.19,2.85-5,4.5-5.49q5.31-.33,7.14,3a5.54,5.54,0,0,1,.66,2.77,16.69,16.69,0,0,1-3,9q-1,1.55-3,4.64.64,1.08,2.3,3.95,3.14,5.69,3.14,8.92a7.08,7.08,0,0,1-1.41,4.37,4.61,4.61,0,0,1-3.52,1.64q-2.25.24-5.4-5a29.1,29.1,0,0,1-3.05-6.34,2.52,2.52,0,0,0-.94-.42l-.33.33a30.23,30.23,0,0,1,.52,4.74,8.66,8.66,0,0,1-1.13,4.74A7.16,7.16,0,0,1,734,151a5.74,5.74,0,0,1-3.61-1.08q-3.35-2.53-3.29-14.65a78.45,78.45,0,0,1,1-12.8Q729.12,116.3,730.39,115.6Zm64.38,12.45a19.56,19.56,0,0,1-3.85,7.86,14,14,0,0,1-6.62,4.58l.09.52c.28,0,1.13,0,2.54-.12s2.35-.12,2.82-.12a7.57,7.57,0,0,1,3.71.66,4.58,4.58,0,0,1,2.06,4.23,3.76,3.76,0,0,1-1.22,3.05,11.43,11.43,0,0,1-6,2.35,58,58,0,0,1-6.15.23,17.93,17.93,0,0,1-6.44-1.92,7,7,0,0,1-2.91-3.48,11.43,11.43,0,0,1-.8-3.66q0-2.58,2.49-7.61a19.09,19.09,0,0,1,5.31-5.87q3.57-2.86,3.66-2.86l-.47-.24a10.66,10.66,0,0,1-6,1.6,5.3,5.3,0,0,1-1.78-.24,4.83,4.83,0,0,1-3.39-3.75,6.39,6.39,0,0,1,1.6-4.79,12.53,12.53,0,0,1,9.63-4.33,14.32,14.32,0,0,1,3.85.52q3.52,1,5.92,5.17a13.77,13.77,0,0,1,2,7A7.85,7.85,0,0,1,794.77,128.05Z" style="fill:#fff"/><path d="M649.77,154.06c-3.88,0-7-1.91-9.13-5.56a20.86,20.86,0,0,1-3-7.87,53.39,53.39,0,0,1-1-10.91c.07-8.6,1.26-13.35,3.85-15.4h0a7.32,7.32,0,0,1,4.57-1.64c2,0,5.47.73,6.8,5.64a30.55,30.55,0,0,1,.49,3,7.13,7.13,0,0,1,4.8-3.15l.35,0a5.28,5.28,0,0,1,4.72,2.46,20.81,20.81,0,0,1,2.06-5,6.83,6.83,0,0,1,5.52-3.56,7.47,7.47,0,0,1,6.12,2.36,7.2,7.2,0,0,1,2.06,4,8.08,8.08,0,0,1,3-4.87,2.22,2.22,0,0,1,1-.38l7.73-.79a21.33,21.33,0,0,1,4.19-.44c3.47,0,5.63,1.11,6.41,3.3a7,7,0,0,1,.42,2.45,6.35,6.35,0,0,1-2.3,5,7.53,7.53,0,0,1-3.41,1.58l.66,0a6.82,6.82,0,0,1,5.21,2.4q.26-2.79.66-5.82c.5-3.64,1.64-6,3.49-7.27a2.26,2.26,0,0,1,1-.38l7.73-.79a21.48,21.48,0,0,1,4.19-.44c3.47,0,5.63,1.11,6.42,3.3a7,7,0,0,1,.41,2.45,6.32,6.32,0,0,1-2.3,5,7.54,7.54,0,0,1-3.4,1.58l.65,0a6.86,6.86,0,0,1,5.38,2.59c.16-1.58.37-3.15.62-4.69.9-5.53,1.86-7.4,3.06-8.26a7.48,7.48,0,0,1,5.92-2.46c4.09,0,5.87,2.15,6.63,3.66a8.06,8.06,0,0,1,4.51-3.9,1.85,1.85,0,0,1,.47-.08c5.55-.34,8.07,2,9.22,4.09a7.85,7.85,0,0,1,.94,3.86,18.92,18.92,0,0,1-3.41,10.23c-.57.84-1.33,2-2.3,3.49l1.61,2.78c2.32,4.19,3.44,7.47,3.44,10a9.29,9.29,0,0,1-1.85,5.71,6.81,6.81,0,0,1-5.1,2.52c-3.25.33-5.8-3.24-7.47-6a8.74,8.74,0,0,1-1.2,3,2.27,2.27,0,0,1-.51.56,9.41,9.41,0,0,1-5.87,1.87,8,8,0,0,1-5-1.54c-2.87-2.18-4.19-7.41-4.16-16.43v-.78a8.32,8.32,0,0,1-1.41,1.51,7.53,7.53,0,0,1-3.86,1.84,5.41,5.41,0,0,1,1.74.41,5.17,5.17,0,0,1,3.47,4.35,8.23,8.23,0,0,1-1.55,5.59,13.59,13.59,0,0,1-4.64,4.2,12.57,12.57,0,0,1-6.32,1.55,13.37,13.37,0,0,1-5.68-1.19,11.45,11.45,0,0,1-3.47-3.25,2.2,2.2,0,0,1-.17-.25c-1.53-2.54-2.26-7.18-2.3-14.62h0a8.15,8.15,0,0,1-1.32,1.38,7.5,7.5,0,0,1-3.85,1.84,5.41,5.41,0,0,1,1.74.41,5.16,5.16,0,0,1,3.46,4.36,8.17,8.17,0,0,1-1.54,5.58,13.54,13.54,0,0,1-4.65,4.2,12.5,12.5,0,0,1-6.31,1.55,13.37,13.37,0,0,1-5.68-1.19,11.45,11.45,0,0,1-3.47-3.25l-.18-.25c-1.53-2.54-2.25-7.18-2.29-14.62,0-1.64,0-3.4.15-5.24-.48,2.6-1.08,5.81-1.79,9.59-1.12,5.75-2.91,9.94-5.45,12.81a3.2,3.2,0,0,1-.27.25,7.2,7.2,0,0,1-4.64,1.48,10.84,10.84,0,0,1-5.43-1.42,2.11,2.11,0,0,1-.31-.21,8.37,8.37,0,0,1-1.9-2.25v0a6.86,6.86,0,0,1-6.28,4.36C650.36,154.05,650.07,154.06,649.77,154.06Zm-6.44-36.24c-.49.39-2.07,2.41-2.15,11.93a48.59,48.59,0,0,0,.87,10,16.64,16.64,0,0,0,2.28,6.26l.13.2c1.41,2.5,3.29,3.57,5.88,3.39a2.46,2.46,0,0,0,2.47-1.59,19.34,19.34,0,0,0,.92-4.87c.48-5,.6-5.6.64-5.85a2.26,2.26,0,0,1,1.88-1.77,3.2,3.2,0,0,1,2.6.93,2.28,2.28,0,0,1,.69,1.2,28.77,28.77,0,0,1,.37,4.61,18.54,18.54,0,0,0,.41,3.87,4.11,4.11,0,0,0,1.23,2.21,6.38,6.38,0,0,0,3,.73,3.11,3.11,0,0,0,1.72-.4c1.9-2.23,3.34-5.77,4.27-10.52,1.11-5.91,1.95-10.44,2.48-13.44a31.87,31.87,0,0,0,.71-4.45,3.48,3.48,0,0,0-.87-2.63,3,3,0,0,0-2.54-1.12,2.5,2.5,0,0,0-1,.23l-.28.15c-.09,0-.42.23-.87,1-1.67,2.8-2.7,7.49-3.09,14a2.65,2.65,0,0,1-1.06,2,2.79,2.79,0,0,1-2.33.43,2.21,2.21,0,0,1-1.64-1.45,5.68,5.68,0,0,1-.19-3.37c0-.17,0-.81-.28-2.43a12.28,12.28,0,0,0-.94-3.78c-.25-.47-.47-.59-.82-.61a2.93,2.93,0,0,0-2.15,2c-.71,1.95-1.27,3.53-1.64,4.63L654,130.4a5.05,5.05,0,0,1-1,2.89,2.21,2.21,0,0,1-1.74.83,3,3,0,0,1-2.46-1.28,2.22,2.22,0,0,1-.47-1.33l-.14-8c-.4-3.08-.55-3.85-.59-4-.58-2.13-1.59-2.31-2.49-2.31A2.92,2.92,0,0,0,643.33,117.82Zm63.39,29a9.41,9.41,0,0,0,1.82,1.9,8.89,8.89,0,0,0,3.76.76,8.14,8.14,0,0,0,4.11-1,9.16,9.16,0,0,0,3.16-2.81,3.86,3.86,0,0,0,.81-2.6c0-.23,0-.46-.71-.72a2.74,2.74,0,0,0-1.76.07,2.21,2.21,0,0,1-1.69-.21,4,4,0,0,1-2.1-3.63,2.53,2.53,0,0,1,0-.38,16.63,16.63,0,0,0,.31-2.35,2.22,2.22,0,0,1,.45-1.63,2.17,2.17,0,0,1,1.56-.86,6.44,6.44,0,0,1,2,.06,2.79,2.79,0,0,0,2.07-.84,3,3,0,0,0,1.26-2.5V130a2.16,2.16,0,0,0,0-.36,2.36,2.36,0,0,0-1.91-.93,3.17,3.17,0,0,0-2,.59,2.21,2.21,0,0,1-1.87.43,3.3,3.3,0,0,1-2.68-2.55,2.16,2.16,0,0,1,0-.84s0-.38.11-2a7.84,7.84,0,0,1,.59-3.09,2.22,2.22,0,0,1,2.29-1.27,5.34,5.34,0,0,0,.76,0,4.23,4.23,0,0,0,2.74-.74,1.87,1.87,0,0,0,.71-1.58,2.45,2.45,0,0,0-.14-.91h0s-.44-.39-2.23-.39a16.7,16.7,0,0,0-3.4.38,1.6,1.6,0,0,1-.23,0l-7.13.73a8,8,0,0,0-1.27,3.89,94.35,94.35,0,0,0-1,13.2C705.18,142.71,706.12,145.73,706.72,146.83Zm-24.09,0a9.41,9.41,0,0,0,1.82,1.9,8.89,8.89,0,0,0,3.76.76,8.14,8.14,0,0,0,4.11-1,9.16,9.16,0,0,0,3.16-2.81,3.85,3.85,0,0,0,.8-2.6c0-.23,0-.46-.71-.72a2.74,2.74,0,0,0-1.76.07,2.2,2.2,0,0,1-1.68-.21,4,4,0,0,1-2.11-3.63,1.69,1.69,0,0,1,0-.38,16.82,16.82,0,0,0,.31-2.35,2.26,2.26,0,0,1,.45-1.64,2.19,2.19,0,0,1,1.56-.85,6.36,6.36,0,0,1,2,.06,2.8,2.8,0,0,0,2.08-.84,3,3,0,0,0,1.26-2.5V130a2.16,2.16,0,0,0,0-.36,2.36,2.36,0,0,0-1.91-.93,3.16,3.16,0,0,0-2,.59,2.21,2.21,0,0,1-1.87.43,3.3,3.3,0,0,1-2.68-2.55,2.11,2.11,0,0,1,0-.83s0-.35.11-2a8,8,0,0,1,.58-3.09,2.26,2.26,0,0,1,2.3-1.27,5.26,5.26,0,0,0,.76,0,4.25,4.25,0,0,0,2.74-.74,1.87,1.87,0,0,0,.71-1.58,2.68,2.68,0,0,0-.14-.91h0s-.44-.39-2.23-.39a16.62,16.62,0,0,0-3.4.38,1.6,1.6,0,0,1-.23,0l-7.13.73A8,8,0,0,0,682,121.4a94.35,94.35,0,0,0-1,13.2C681.09,142.71,682,145.73,682.63,146.83Zm56.82-9.27a2.11,2.11,0,0,1,.66.1,4.28,4.28,0,0,1,1.85,1,2.15,2.15,0,0,1,.56,1,27.19,27.19,0,0,0,2.83,5.82c2.22,3.7,3.32,4,3.33,4a2.87,2.87,0,0,0,1.89-.75,4.88,4.88,0,0,0,1-3.05c0-1.21-.49-3.56-2.86-7.84-1.07-1.86-1.82-3.16-2.26-3.87a2.23,2.23,0,0,1,0-2.37c1.35-2.08,2.37-3.63,3.06-4.67A14.45,14.45,0,0,0,752.2,119a3.4,3.4,0,0,0-.37-1.68c-.28-.5-1.12-2-4.76-1.84-.48.22-1.59,1.06-2.89,4.15a15.62,15.62,0,0,0-1.51,5.12,2.25,2.25,0,0,1-.1,1.23,2.73,2.73,0,0,1-2.6,1.82,2.85,2.85,0,0,1-2.65-1.74,2.22,2.22,0,0,1-.19-.91c0-.28,0-.91.19-3.39.15-2.19.18-3.12.18-3.51s0-.83-.06-1.4c-.25-.45-.83-1-2.55-1a3,3,0,0,0-2.67,1.06,2.13,2.13,0,0,1-.55.53c-.2.36-.75,1.62-1.36,5.39a77.4,77.4,0,0,0-1,12.44c0,9.94,1.67,12.32,2.4,12.88a3.66,3.66,0,0,0,2.27.62,5.13,5.13,0,0,0,2.83-.72,7.38,7.38,0,0,0,.58-3.2,26.94,26.94,0,0,0-.49-4.37,2.21,2.21,0,0,1,.63-2l.32-.33A2.27,2.27,0,0,1,739.45,137.56Zm-25-1.64a.13.13,0,0,0,0,.06Zm-24.1,0a.11.11,0,0,1,0,.05Zm-40.92-5.24Zm68.42-6.26v0l.17,0Zm-24.09,0v0l.17,0Zm48.39-.65Zm-.09-.1.09.1Zm0,0h0Zm0,0h0Zm0,0Zm0,0Zm0,0h0Zm-10.31-6.32Zm50.39,36.19-.32,0a19.91,19.91,0,0,1-7.26-2.22,9.17,9.17,0,0,1-3.84-4.57,13.28,13.28,0,0,1-1-4.42c0-2.13.85-5,2.73-8.67a16.19,16.19,0,0,1,3.2-4.23,5.82,5.82,0,0,1-1.21-.28,7,7,0,0,1-4.81-5.38,1.5,1.5,0,0,1,0-.37A8.5,8.5,0,0,1,771.8,117a14.73,14.73,0,0,1,11.28-5,16.32,16.32,0,0,1,4.45.6c2.92.81,5.36,2.9,7.25,6.2a15.94,15.94,0,0,1,2.31,8.14,9.92,9.92,0,0,1-.12,1.55,1,1,0,0,1,0,.17,21.81,21.81,0,0,1-4.29,8.75q-.55.67-1.17,1.29a7.44,7.44,0,0,1,3.15.91,6.71,6.71,0,0,1,3.13,6.13,5.93,5.93,0,0,1-2,4.75,13.68,13.68,0,0,1-7.17,2.86A57.36,57.36,0,0,1,782.14,153.52Zm2.43-25.71c-.21.15-.92.7-3.38,2.68a17,17,0,0,0-4.71,5.13c-2,3.95-2.27,5.81-2.26,6.57a9.29,9.29,0,0,0,.66,2.91,4.64,4.64,0,0,0,2,2.36,15.51,15.51,0,0,0,5.44,1.6,53.31,53.31,0,0,0,5.71-.21,9.32,9.32,0,0,0,4.87-1.85c.09-.08.41-.36.41-1.34,0-1.52-.53-2-1-2.33a5.68,5.68,0,0,0-2.54-.33c-.3,0-1,0-2.7.11-1.47.09-2.36.13-2.66.13a2.24,2.24,0,0,1-2.19-1.84l-.09-.51a2.23,2.23,0,0,1,1.5-2.52,11.77,11.77,0,0,0,5.59-3.87,17.44,17.44,0,0,0,3.39-6.9,6,6,0,0,0,0-.78,11.68,11.68,0,0,0-1.73-5.89c-1.3-2.28-2.8-3.63-4.58-4.12a11.92,11.92,0,0,0-3.25-.44,10.31,10.31,0,0,0-8,3.6,4.09,4.09,0,0,0-1,3A2.58,2.58,0,0,0,776,124.9,3.16,3.16,0,0,0,777,125a8.4,8.4,0,0,0,4.74-1.23,2.21,2.21,0,0,1,2.22-.13l.47.23a2.23,2.23,0,0,1,1.17,2.51A2.19,2.19,0,0,1,784.57,127.81Z" style="fill:#d6a758"/></g><g class="ab__week1-complete"><rect width="8.2" height="122.38" x="507.26" y="70.43" style="fill:url(#linear-gradient-8)"/></g><g class="ab__week1-complete-2" data-name="ab__week1-complete"><rect width="8.2" height="122.38" x="922.27" y="70.43" style="fill:url(#linear-gradient-9)"/></g><g class="ab__week1-complete-3" data-name="ab__week1-complete"><rect width="8.2" height="122.38" x="1338.62" y="70.43" style="fill:url(#linear-gradient-10)"/></g><g class="ab__week1-text" style="filter:url(#f1)"><path d="M231.92,116.07a5.12,5.12,0,0,1,3.2-1.17q3.56,0,4.64,4,.19.75.66,4.41l.14,8.17a.91.91,0,0,0,.71.43,3.21,3.21,0,0,0,.47-1.65l.09-1.41c.38-1.12,1-2.8,1.79-5a5.14,5.14,0,0,1,4-3.43,3.1,3.1,0,0,1,3,1.79,15.06,15.06,0,0,1,1.18,4.5,15.47,15.47,0,0,1,.28,3.15,3.5,3.5,0,0,0,.09,2.25c.44.1.68,0,.71-.37q.6-10.29,3.38-14.94a4.4,4.4,0,0,1,1.88-1.92,4.59,4.59,0,0,1,2-.56,5.29,5.29,0,0,1,4.32,1.73,5.63,5.63,0,0,1,1.55,4.23,34.75,34.75,0,0,1-.75,4.84q-.8,4.5-2.49,13.48-1.55,7.94-4.93,11.74a5.07,5.07,0,0,1-3.24,1,8.54,8.54,0,0,1-4.32-1.12,6.31,6.31,0,0,1-2.12-3.53,20.92,20.92,0,0,1-.47-4.32,30,30,0,0,0-.32-4.22,1.07,1.07,0,0,0-.8-.38q-.15.71-.61,5.64a22,22,0,0,1-1.08,5.49,4.69,4.69,0,0,1-4.37,3q-5.22.38-8-4.51a18.71,18.71,0,0,1-2.66-7.11,50.34,50.34,0,0,1-.91-10.45Q229,118.37,231.92,116.07Zm57.86,12.59a4.39,4.39,0,0,1,.14,1.45,5.24,5.24,0,0,1-2,4.18,5,5,0,0,1-3.94,1.36,3.68,3.68,0,0,0-1.41,0,13.66,13.66,0,0,1-.33,3,1.82,1.82,0,0,0,1,1.69,4.9,4.9,0,0,1,3.14,0,3,3,0,0,1,2.12,2.54,6.07,6.07,0,0,1-1.18,4.11,11.36,11.36,0,0,1-3.9,3.5,10.33,10.33,0,0,1-5.21,1.26,11,11,0,0,1-4.74-1,10.19,10.19,0,0,1-2.68-2.63q-1.92-3.19-2-13.48a97.72,97.72,0,0,1,1-13.53q.62-4.41,2.54-5.72l7.84-.8a19,19,0,0,1,3.85-.43q3.67,0,4.32,1.84a4.71,4.71,0,0,1,.29,1.69A4.07,4.07,0,0,1,287.1,121a6.25,6.25,0,0,1-4.18,1.27,9.43,9.43,0,0,1-1,0,6.23,6.23,0,0,0-.38,2.25c-.06,1.31-.1,2.07-.14,2.25a1.16,1.16,0,0,0,1,.85,5.35,5.35,0,0,1,3.43-1.08A4.74,4.74,0,0,1,289.78,128.66Zm24.09,0a4.39,4.39,0,0,1,.14,1.45,5.24,5.24,0,0,1-2,4.18,5,5,0,0,1-3.94,1.36,3.68,3.68,0,0,0-1.41,0,13.66,13.66,0,0,1-.33,3,1.82,1.82,0,0,0,1,1.69,4.9,4.9,0,0,1,3.14,0,3,3,0,0,1,2.12,2.54,6.07,6.07,0,0,1-1.18,4.11,11.42,11.42,0,0,1-3.89,3.5,10.37,10.37,0,0,1-5.22,1.26,11,11,0,0,1-4.74-1,10.19,10.19,0,0,1-2.68-2.63q-1.92-3.19-2-13.48a96.33,96.33,0,0,1,1-13.53c.4-2.94,1.25-4.85,2.53-5.72l7.84-.8a19,19,0,0,1,3.86-.43q3.66,0,4.32,1.84a5,5,0,0,1,.28,1.69,4.09,4.09,0,0,1-1.5,3.28,6.29,6.29,0,0,1-4.18,1.27,9.51,9.51,0,0,1-1,0,6.06,6.06,0,0,0-.37,2.25c-.07,1.31-.11,2.07-.14,2.25a1.13,1.13,0,0,0,1,.85,5.35,5.35,0,0,1,3.43-1.08A4.74,4.74,0,0,1,313.87,128.66Zm6.48-13.06h0a5.19,5.19,0,0,1,4.46-2q3.61,0,4.74,2.67c.07.82.1,1.48.1,2s-.06,1.84-.19,3.66-.19,2.9-.19,3.24a.64.64,0,0,0,.61.42.51.51,0,0,0,.52-.37.62.62,0,0,1-.05-.33,17.59,17.59,0,0,1,1.69-6.11q2-4.79,4.51-5.49,5.31-.33,7.14,3a5.54,5.54,0,0,1,.66,2.77,16.69,16.69,0,0,1-3,9q-1,1.55-3.06,4.64.66,1.08,2.3,3.95,3.15,5.69,3.15,8.92a7.08,7.08,0,0,1-1.41,4.37,4.63,4.63,0,0,1-3.52,1.64q-2.25.24-5.4-5a28.63,28.63,0,0,1-3.05-6.34,2.52,2.52,0,0,0-.94-.42l-.33.33a30,30,0,0,1,.51,4.74,8.66,8.66,0,0,1-1.12,4.74A7.18,7.18,0,0,1,324,151a5.79,5.79,0,0,1-3.62-1.08q-3.33-2.53-3.28-14.65a78.45,78.45,0,0,1,1-12.8Q319.09,116.3,320.35,115.6ZM382.72,133h-.05a54.71,54.71,0,0,1-.94,9.3,35.32,35.32,0,0,1-1,5.12,5.16,5.16,0,0,1-2.58,3,8.26,8.26,0,0,1-4.14,1A5.43,5.43,0,0,1,370,150a9.17,9.17,0,0,1-3-6.72c0-.53.16-2.27.47-5.21.19-1.72.38-3.37.56-4.93.29-2.38.54-3.7.76-4,0-.34-.18-.48-.52-.42h-.89a2.9,2.9,0,0,1-2.77-2.25c-.07-.76-.1-1.27-.1-1.55a9.64,9.64,0,0,1,2.73-7,20.39,20.39,0,0,1,2.67-2,23.71,23.71,0,0,1,2.16-1.31,6,6,0,0,1,2.63-.61q3.29,0,5.4,3.57a18.87,18.87,0,0,1,2.26,7.42c.12,1.15.22,3.86.28,8.12Z" style="fill:#fff"/><path d="M239.74,154.06c-3.88,0-7-1.91-9.13-5.56a20.86,20.86,0,0,1-3-7.87,53.39,53.39,0,0,1-1-10.91c.07-8.6,1.26-13.35,3.85-15.4h0a7.3,7.3,0,0,1,4.57-1.64c2,0,5.47.73,6.8,5.64a30.55,30.55,0,0,1,.49,3,7.13,7.13,0,0,1,4.8-3.15l.34,0a5.29,5.29,0,0,1,4.73,2.46,21.23,21.23,0,0,1,2.05-5,6.83,6.83,0,0,1,5.53-3.56,7.48,7.48,0,0,1,6.12,2.36,7.26,7.26,0,0,1,2.06,4,8.07,8.07,0,0,1,3-4.87,2.26,2.26,0,0,1,1-.38l7.73-.79a21.48,21.48,0,0,1,4.19-.44c3.47,0,5.63,1.11,6.42,3.3a7,7,0,0,1,.41,2.45,6.34,6.34,0,0,1-2.29,5,7.53,7.53,0,0,1-3.41,1.58l.66,0a6.84,6.84,0,0,1,5.21,2.4q.24-2.79.66-5.82c.5-3.64,1.64-6,3.49-7.27a2.22,2.22,0,0,1,1-.38l7.73-.79a21.33,21.33,0,0,1,4.19-.44c3.47,0,5.63,1.11,6.41,3.3a7,7,0,0,1,.42,2.45,6.35,6.35,0,0,1-2.3,5,7.53,7.53,0,0,1-3.41,1.58l.66,0a6.86,6.86,0,0,1,5.38,2.59c.16-1.58.36-3.15.62-4.69.9-5.53,1.85-7.4,3.06-8.26a7.45,7.45,0,0,1,5.92-2.46c4.08,0,5.87,2.15,6.63,3.66a8.06,8.06,0,0,1,4.51-3.9,1.85,1.85,0,0,1,.46-.08c5.54-.34,8.08,2,9.23,4.09a7.85,7.85,0,0,1,.94,3.86,18.83,18.83,0,0,1-3.42,10.23c-.56.84-1.32,2-2.29,3.49l1.61,2.78c2.32,4.19,3.44,7.47,3.44,10a9.3,9.3,0,0,1-1.86,5.71,6.77,6.77,0,0,1-5.09,2.52c-3.26.33-5.8-3.24-7.47-6a8.94,8.94,0,0,1-1.2,3,2.27,2.27,0,0,1-.51.56,9.41,9.41,0,0,1-5.87,1.87,8,8,0,0,1-5-1.54c-2.87-2.18-4.2-7.41-4.16-16.43v-.78a8,8,0,0,1-1.42,1.51,7.5,7.5,0,0,1-3.85,1.84,5.47,5.47,0,0,1,1.74.41,5.15,5.15,0,0,1,3.46,4.35,8.17,8.17,0,0,1-1.54,5.59,13.54,13.54,0,0,1-4.65,4.2,12.5,12.5,0,0,1-6.31,1.55,13.37,13.37,0,0,1-5.68-1.19,11.45,11.45,0,0,1-3.47-3.25l-.18-.25c-1.53-2.54-2.25-7.18-2.29-14.62h0a8.15,8.15,0,0,1-1.32,1.38,7.5,7.5,0,0,1-3.85,1.84,5.54,5.54,0,0,1,1.74.41,5.16,5.16,0,0,1,3.46,4.36,8.17,8.17,0,0,1-1.54,5.58,13.54,13.54,0,0,1-4.65,4.2,12.5,12.5,0,0,1-6.31,1.55,13.37,13.37,0,0,1-5.68-1.19A11.34,11.34,0,0,1,269,149.5a1.44,1.44,0,0,1-.18-.25c-1.53-2.54-2.26-7.18-2.29-14.62,0-1.64,0-3.4.15-5.24-.48,2.6-1.08,5.81-1.79,9.59-1.12,5.75-2.91,9.94-5.46,12.81a3.07,3.07,0,0,1-.26.25,7.2,7.2,0,0,1-4.64,1.48,10.84,10.84,0,0,1-5.43-1.42,2.11,2.11,0,0,1-.31-.21,8.19,8.19,0,0,1-1.9-2.25v0a6.86,6.86,0,0,1-6.28,4.36Zm-6.44-36.24c-.49.39-2.08,2.41-2.16,11.93a48.56,48.56,0,0,0,.88,10,16.84,16.84,0,0,0,2.27,6.26,1.37,1.37,0,0,1,.13.2c1.42,2.5,3.3,3.57,5.89,3.39a2.46,2.46,0,0,0,2.47-1.59,19.84,19.84,0,0,0,.92-4.87c.42-4.43.56-5.44.64-5.85a2.26,2.26,0,0,1,1.88-1.77,3.2,3.2,0,0,1,2.6.93,2.28,2.28,0,0,1,.69,1.2,31.4,31.4,0,0,1,.37,4.61,18.54,18.54,0,0,0,.41,3.87,4.11,4.11,0,0,0,1.23,2.21,6.38,6.38,0,0,0,3,.73,3,3,0,0,0,1.71-.4c1.91-2.23,3.35-5.77,4.27-10.52,1.12-5.91,1.95-10.44,2.48-13.44a31.31,31.31,0,0,0,.72-4.45,3.48,3.48,0,0,0-.87-2.63,3,3,0,0,0-2.54-1.12,2.5,2.5,0,0,0-1,.23l-.28.15c-.09,0-.42.23-.87,1-1.67,2.8-2.71,7.49-3.09,14a2.69,2.69,0,0,1-1.06,2,2.8,2.8,0,0,1-2.33.43,2.2,2.2,0,0,1-1.64-1.45,5.77,5.77,0,0,1-.2-3.37,22,22,0,0,0-.28-2.43,12.79,12.79,0,0,0-.93-3.78c-.25-.47-.47-.59-.82-.61a2.93,2.93,0,0,0-2.15,2c-.71,1.95-1.27,3.53-1.64,4.63L244,130.4a5.13,5.13,0,0,1-1,2.89,2.24,2.24,0,0,1-1.74.83,3.08,3.08,0,0,1-2.47-1.28,2.21,2.21,0,0,1-.46-1.33l-.14-8c-.4-3.08-.55-3.85-.6-4-.57-2.13-1.58-2.31-2.48-2.31A2.92,2.92,0,0,0,233.3,117.82Zm63.39,29a9.41,9.41,0,0,0,1.82,1.9,8.89,8.89,0,0,0,3.76.76,8.14,8.14,0,0,0,4.11-1,9.16,9.16,0,0,0,3.16-2.81,3.85,3.85,0,0,0,.8-2.6c0-.23,0-.46-.71-.72a2.73,2.73,0,0,0-1.76.07,2.2,2.2,0,0,1-1.68-.21,4,4,0,0,1-2.11-3.63,1.69,1.69,0,0,1,0-.38,16.82,16.82,0,0,0,.31-2.35,2.26,2.26,0,0,1,.45-1.64,2.19,2.19,0,0,1,1.56-.85,6.36,6.36,0,0,1,2,.06,2.8,2.8,0,0,0,2.08-.84,3,3,0,0,0,1.25-2.5s0-.09,0-.14a2.16,2.16,0,0,0,0-.36,2.36,2.36,0,0,0-1.91-.93,3.16,3.16,0,0,0-2,.59,2.21,2.21,0,0,1-1.87.43,3.29,3.29,0,0,1-2.68-2.55,2.11,2.11,0,0,1,0-.83s0-.35.11-2a8,8,0,0,1,.58-3.09,2.24,2.24,0,0,1,2.3-1.27,5.26,5.26,0,0,0,.76,0,4.25,4.25,0,0,0,2.74-.74,1.87,1.87,0,0,0,.71-1.58,2.68,2.68,0,0,0-.14-.91h0s-.44-.39-2.23-.39a16.62,16.62,0,0,0-3.4.38,1.81,1.81,0,0,1-.23,0l-7.13.73a8,8,0,0,0-1.27,3.89,94.35,94.35,0,0,0-1,13.2C295.14,142.71,296.09,145.73,296.69,146.83Zm-24.09,0a5.42,5.42,0,0,0,5.58,2.66,8.08,8.08,0,0,0,4.1-1,9.16,9.16,0,0,0,3.16-2.81,3.81,3.81,0,0,0,.81-2.6c0-.23-.05-.46-.71-.72a2.74,2.74,0,0,0-1.76.07,2.19,2.19,0,0,1-1.68-.21,4,4,0,0,1-2.11-3.63,2.53,2.53,0,0,1,0-.38,18.29,18.29,0,0,0,.32-2.35,2.2,2.2,0,0,1,2-2.49,6.36,6.36,0,0,1,2,.06,2.84,2.84,0,0,0,2.08-.84,3,3,0,0,0,1.25-2.5.71.71,0,0,1,0-.14,2.17,2.17,0,0,0,0-.36,2.35,2.35,0,0,0-1.9-.93,3.2,3.2,0,0,0-2.05.59,2.19,2.19,0,0,1-1.86.43,3.29,3.29,0,0,1-2.68-2.55,2.11,2.11,0,0,1,0-.83s0-.35.11-2a7.86,7.86,0,0,1,.58-3.09,2.25,2.25,0,0,1,2.29-1.27,5.41,5.41,0,0,0,.76,0,4.26,4.26,0,0,0,2.75-.74,1.87,1.87,0,0,0,.71-1.58,2.68,2.68,0,0,0-.14-.91h0s-.44-.39-2.24-.39a16.6,16.6,0,0,0-3.39.38,1.81,1.81,0,0,1-.23,0l-7.13.73A7.93,7.93,0,0,0,272,121.4a94.35,94.35,0,0,0-1,13.2C271.05,142.71,272,145.73,272.6,146.83Zm56.82-9.27a2.16,2.16,0,0,1,.66.1,4.23,4.23,0,0,1,1.85,1,2.18,2.18,0,0,1,.56,1,27.42,27.42,0,0,0,2.83,5.82c2.21,3.7,3.32,4,3.33,4a2.87,2.87,0,0,0,1.89-.75,4.88,4.88,0,0,0,1-3.05c0-1.21-.49-3.56-2.86-7.84-1.07-1.86-1.83-3.16-2.26-3.87a2.21,2.21,0,0,1,0-2.37c1.35-2.08,2.37-3.63,3.06-4.67a14.53,14.53,0,0,0,2.68-7.78,3.37,3.37,0,0,0-.37-1.68c-.28-.5-1.1-2-4.76-1.84-.49.22-1.59,1.06-2.89,4.15a15.75,15.75,0,0,0-1.52,5.12,2.25,2.25,0,0,1-.09,1.23,2.74,2.74,0,0,1-2.61,1.82,2.82,2.82,0,0,1-2.64-1.75,2.15,2.15,0,0,1-.2-.9c0-.28,0-.91.2-3.39.15-2.19.18-3.12.18-3.51s0-.83-.06-1.4c-.25-.45-.83-1-2.55-1a3,3,0,0,0-2.67,1.06,2.13,2.13,0,0,1-.55.53c-.2.36-.75,1.62-1.37,5.39a77.49,77.49,0,0,0-1,12.44c0,9.94,1.68,12.32,2.41,12.88a3.63,3.63,0,0,0,2.27.62,5.07,5.07,0,0,0,2.82-.72,7.22,7.22,0,0,0,.59-3.2,28.13,28.13,0,0,0-.49-4.37,2.24,2.24,0,0,1,.62-2l.33-.33A2.25,2.25,0,0,1,329.42,137.56Zm-25-1.64a.11.11,0,0,1,0,.05A.09.09,0,0,0,304.43,135.92Zm-24.09,0a.43.43,0,0,0,0,.05S280.34,135.94,280.34,135.92Zm27.5-11.5v0l.17,0Zm-24.1,0v0l.18,0Zm48.4-.65Zm-.1-.1.1.1Zm0,0Zm0,0h0Zm0,0h0Zm0,0Zm0,0h0Zm-10.32-6.32ZM374,153.71a7.63,7.63,0,0,1-5.49-2.13,11.35,11.35,0,0,1-3.64-8.32c0-.43.06-1.43.49-5.45.18-1.73.37-3.39.56-5,.1-.82.19-1.49.28-2.06a5.07,5.07,0,0,1-3.62-3.63,2,2,0,0,1-.09-.48c-.07-.84-.11-1.42-.11-1.73a11.85,11.85,0,0,1,3.37-8.61,21.05,21.05,0,0,1,3-2.3,27.16,27.16,0,0,1,2.41-1.47,8.3,8.3,0,0,1,3.62-.84c2.08,0,5,.81,7.32,4.66a21.07,21.07,0,0,1,2.55,8.3c.14,1.25.23,3.94.3,8.25v.13a2.14,2.14,0,0,1-.05.45,58.75,58.75,0,0,1-1,9.17c-.66,3.85-.92,5.13-1.21,5.73a7.32,7.32,0,0,1-3.52,4A10.49,10.49,0,0,1,374,153.71Zm-3.17-23.45a26.14,26.14,0,0,0-.48,3.12c-.19,1.56-.38,3.2-.56,4.91-.42,3.87-.46,4.77-.46,5a7,7,0,0,0,2.29,5.13,3.25,3.25,0,0,0,2.38.86,6,6,0,0,0,3-.74,2.87,2.87,0,0,0,1.55-1.71,2.31,2.31,0,0,1,.1-.28c.08-.29.3-1.28.87-4.57a53.06,53.06,0,0,0,.9-8.9,3.42,3.42,0,0,1,0-.45c-.07-4.82-.18-6.69-.26-7.41a16.6,16.6,0,0,0-2-6.54c-1.31-2.21-2.61-2.47-3.48-2.47a3.78,3.78,0,0,0-1.66.39c-.17.09-.69.38-1.91,1.17a18.56,18.56,0,0,0-2.32,1.74,7.4,7.4,0,0,0-2.07,5.47q0,.31.06,1.08a.66.66,0,0,0,.66.49h.67a2.62,2.62,0,0,1,2,.58,2.67,2.67,0,0,1,.92,2.07A2.19,2.19,0,0,1,370.81,130.26Zm8.31,15.61Zm0,0Zm0,0h0Zm-8.59-15.23Zm0,0h0Z" style="fill:#d6a758"/></g></svg>