<?xml version="1.0" encoding="UTF-8"?>
<svg width="1920px" height="1080px" viewBox="0 0 1920 1080" version="1.1" xmlns="http://www.w3.org/2000/svg" xmlns:xlink="http://www.w3.org/1999/xlink">
    <!-- Generator: Sketch 56.3 (81716) - https://sketch.com -->
    <title>week2/2</title>
    <desc>Created with Sketch.</desc>
    <defs>
        <linearGradient x1="50%" y1="100%" x2="50%" y2="3.061617e-15%" id="linearGradient-1">
            <stop stop-color="#84F3FB" offset="0%"></stop>
            <stop stop-color="#105BF8" offset="100%"></stop>
        </linearGradient>
        <linearGradient x1="50%" y1="100%" x2="50%" y2="-93.1348022%" id="linearGradient-2">
            <stop stop-color="#00CBFE" offset="0%"></stop>
            <stop stop-color="#057A97" offset="100%"></stop>
        </linearGradient>
        <linearGradient x1="-74.1442936%" y1="130.696359%" x2="82.486177%" y2="-12.5109061%" id="linearGradient-3">
            <stop stop-color="#057A97" offset="0%"></stop>
            <stop stop-color="#00AED9" offset="72.5322002%"></stop>
            <stop stop-color="#78E1F2" offset="100%"></stop>
        </linearGradient>
        <linearGradient x1="-5.69892148%" y1="61.2873811%" x2="26.9697763%" y2="42.061413%" id="linearGradient-4">
            <stop stop-color="#057A97" offset="0%"></stop>
            <stop stop-color="#00AED9" offset="72.5322002%"></stop>
            <stop stop-color="#78E1F2" offset="100%"></stop>
        </linearGradient>
        <linearGradient x1="-5.69892148%" y1="62.1227964%" x2="26.9697763%" y2="41.4738527%" id="linearGradient-5">
            <stop stop-color="#057A97" offset="0%"></stop>
            <stop stop-color="#00AED9" offset="72.5322002%"></stop>
            <stop stop-color="#78E1F2" offset="100%"></stop>
        </linearGradient>
        <linearGradient x1="48.5317999%" y1="58.4666564%" x2="64.4395404%" y2="45.7975365%" id="linearGradient-6">
            <stop stop-color="#057A97" offset="0%"></stop>
            <stop stop-color="#00AED9" offset="72.5322002%"></stop>
            <stop stop-color="#78E1F2" offset="100%"></stop>
        </linearGradient>
        <linearGradient x1="48.5317999%" y1="67.1562349%" x2="64.4395404%" y2="41.4844246%" id="linearGradient-7">
            <stop stop-color="#057A97" offset="0%"></stop>
            <stop stop-color="#00AED9" offset="72.5322002%"></stop>
            <stop stop-color="#78E1F2" offset="100%"></stop>
        </linearGradient>
        <linearGradient x1="371.199402%" y1="189.482601%" x2="50%" y2="35.2822757%" id="linearGradient-8">
            <stop stop-color="#057A97" offset="0%"></stop>
            <stop stop-color="#00AED9" offset="100%"></stop>
        </linearGradient>
        <linearGradient x1="255.567618%" y1="407.075459%" x2="50%" y2="12.3226259%" id="linearGradient-9">
            <stop stop-color="#057A97" offset="0%"></stop>
            <stop stop-color="#00AED9" offset="100%"></stop>
        </linearGradient>
        <path d="M784.119748,955.646435 C797.524984,956.090799 801.101217,944.584504 799.90347,940.707035 C798.705722,936.829565 792.272879,932.48357 791.35075,939.020398 C790.428621,945.557227 790.428621,950.469341 784.119748,955.646435 Z" id="path-10"></path>
    </defs>
    <g id="week2/2" stroke="none" stroke-width="1" fill="none" fill-rule="evenodd">
        <rect fill="#FFFFFF" x="0" y="0" width="1920" height="1080"></rect>
        <g id="summmer" transform="translate(-14.000000, -295.000000)">
            <polygon id="Rectangle" fill="url(#linearGradient-1)" points="3 6 1937 6 1937 656 3 610"></polygon>
            <g id="cloud" transform="translate(1274.000000, 400.000000)">
                <path d="M14.4072919,133.5 L330.815798,133.5 L330.815798,133.493428 L332.167597,133.359213 C346.666548,131.91967 357.815798,119.678891 357.815798,105 C357.815798,94.5282235 352.120754,85.0575934 343.129688,80.0653037 L342.157242,79.5253525 L342.391487,78.4380029 C343.335458,74.0561633 343.815798,69.5596632 343.815798,65 C343.815798,29.9299184 315.385879,1.5 280.315798,1.5 C260.515302,1.5 242.22294,10.6198515 230.258485,25.9246523 L229.811997,26.4957954 L229.087061,26.5007873 C212.962576,26.6118213 199.410209,38.5352565 197.145667,54.3506063 L196.733183,57.2313556 L194.626159,55.2240411 C186.775084,47.7444964 176.380828,43.5 165.315798,43.5 C153.660871,43.5 142.759534,48.212173 134.804779,56.41403 L133.65996,57.5944112 L132.58944,56.3462534 C124.562528,46.9873861 112.886483,41.5 100.315798,41.5 C78.6983717,41.5 60.5904904,57.7249087 58.104715,79.0167088 L58.0161807,79.7750455 L57.3509518,80.149723 C53.7814993,82.1601495 50.6787355,84.9233703 48.2656774,88.235098 L47.4243018,89.3898182 L46.2300276,88.6055985 C43.1602582,86.5898357 39.5708733,85.5 35.8157978,85.5 C25.3223876,85.5 16.8157978,94.0065898 16.8157978,104.5 C16.8157978,104.654941 16.8176493,104.80965 16.8213465,104.964106 L16.8581253,106.5006 L15.321191,106.500001 C15.3184945,106.5 15.3184945,106.5 15.3157978,106.5 C7.85995371,106.5 1.81579784,112.544156 1.81579784,120 C1.81579784,126.785418 6.85163508,132.493312 13.5139018,133.380968 L14.4072919,133.5 Z" id="Combined-Shape" stroke="#2A455F" stroke-width="3" fill="#FFFFFF"></path>
                <path d="M102.766531,133.414658 C96.5037086,133.364967 89.4349063,133.288457 81.5601238,133.185128 C35.019902,133.185128 11.7497911,133.185128 11.7497911,133.185128 C11.7497911,133.185128 -2.2583239,128.14351 0.315797836,120 C2.03187899,114.570994 6.36521233,110.664331 13.3157978,108.280013 C16.1491515,106.093338 17.5658284,105 17.5658284,105 C17.5658284,105 18.0941865,102 19.1509026,96 L32.0349398,86 C40.7422787,86.4833659 45.9668782,88.2848812 47.7087384,91.404546 C37.6790553,115.324272 68.4446108,132.605514 117.03487,131.920522 C143.470013,128.794806 166.427101,123.816341 182.315798,114.181672 C201.280645,102.681672 207.904102,79.3011961 198.012318,60.3883207 C196.92959,50.8494632 199.220839,42 209.315798,33.5685259 C216.045771,27.9475431 223.154693,25.8864838 230.642565,27.3853479 C223.494248,47.0794928 225.333695,64.9443831 236.160905,80.9800187 C248.531993,99.3022139 295.970098,130 340.233056,80.7013216 C345.883652,81.9613096 356.878852,91.5999634 356.890356,105 C356.893186,108.24662 357.932418,116.056986 351.405406,124.119873 C350.080355,125.756723 344.868375,128.899431 335.769466,133.547999 C157.46702,135.547999 79.3157978,135.547999 101.315798,133.547999 C101.800236,133.503959 102.28382,133.459517 102.766531,133.414658 Z" id="Combined-Shape" fill="#D3E6F2" style="mix-blend-mode: multiply;" opacity="0.284853981"></path>
            </g>
            <g id="Group-3-Copy" transform="translate(1810.500000, 372.000000) scale(-1, 1) translate(-1810.500000, -372.000000) translate(1736.000000, 344.000000)">
                <g id="Group-8">
                    <g id="Group-13">
                        <path d="M137.165801,54.5 L137.821881,54.421538 C143.31701,53.764364 147.5,49.0834398 147.5,43.5 C147.5,39.4150324 145.25504,35.7273231 141.725901,33.8179069 L140.744793,33.2870849 L140.970799,32.1947172 C141.321615,30.4991017 141.5,28.7615153 141.5,27 C141.5,12.9167389 130.083261,1.5 116,1.5 C108.211463,1.5 101.001889,5.01164376 96.1874705,10.9451332 L95.7363191,11.5011509 L95.0202939,11.5000161 C95.0101484,11.5000027 95.0101484,11.5000027 95,11.5 C88.7636421,11.5 83.5043586,16.0956534 82.6274483,22.2069231 L82.21857,25.0564337 L80.1173554,23.0887476 C76.987728,20.1580026 72.8757146,18.5 68.5,18.5 C63.9509995,18.5 59.6893461,20.2928482 56.5246715,23.4338683 L55.3872301,24.5628078 L54.3358914,23.3532772 C51.1253866,19.6596968 46.4893866,17.5 41.5,17.5 C32.7023328,17.5 25.3785798,24.2127668 24.5731862,32.9109703 L24.5030925,33.6679781 L23.8511293,34.0590253 C22.497554,34.8708992 21.3305157,35.9672378 20.4347349,37.2673039 L19.5977115,38.482094 L18.3691574,37.665407 C17.2314074,36.9090826 15.8980591,36.5 14.5,36.5 C10.6340068,36.5 7.5,39.6340068 7.5,43.5 C7.5,43.6383163 7.50399326,43.7760657 7.51194535,43.9131497 L7.60421564,45.5037721 L6.01092368,45.5000129 C6.00546316,45.5000021 6.00546316,45.5000021 6,45.5 C3.51471863,45.5 1.5,47.5147186 1.5,50 C1.5,52.4852814 3.51471863,54.5 6,54.5 L137.165801,54.5 Z" id="Combined-Shape" stroke="#2A455F" stroke-width="3" fill="#FFFFFF"></path>
                        <path d="M53.1908835,54.9860431 C49.6888303,54.9660542 45.5421574,54.924594 40.7508648,54.8616628 C19.2092886,54.8616628 8.43850051,54.8616628 8.43850051,54.8616628 C8.43850051,54.8616628 1.9547137,52.5257964 3.14616998,48.7527715 C3.94047416,46.2374216 5.94619795,44.4273993 9.16334135,43.3227046 C10.4747856,42.3095811 11.1305077,41.8030194 11.1305077,41.8030194 C11.1305077,41.8030194 11.3750631,40.4130689 11.864174,37.6331681 L17.827671,33 C21.8579441,33.2239515 24.2761987,34.0586239 25.082435,35.504017 C20.2805249,46.9673798 35.6815315,55.1399349 59.5187873,54.2133013 C59.6740005,54.2072676 59.8283066,54.2013915 59.9816728,54.1956716 C70.9893403,52.7325001 80.5225182,50.4556623 87.2845266,46.3518097 C96.046091,41.0344297 99.1060602,30.2237446 94.5361579,21.4787927 C94.0359485,17.0682074 95.0944819,12.9763848 99.7582493,9.07783246 C102.867428,6.47879754 104.874534,5.01520299 105.779568,4.68704882 C101.85594,17.4811117 102.395157,27.5854288 107.397217,35 C113.112532,43.4718327 133.948498,44.1257701 140.147071,33.028629 C140.129415,35.5467493 149.359461,41.1265157 147,48.5069406 C146.61654,49.706407 144.783207,51.5374268 141.5,54 C70.2451317,55.7957142 39.6995845,56.2311904 49.8633586,55.3064287 C50.9827811,55.2045768 52.0923283,55.0980725 53.1908835,54.9860431 Z" id="Combined-Shape" fill="#D3E6F2" style="mix-blend-mode: multiply;" opacity="0.284853981"></path>
                    </g>
                </g>
            </g>
            <g id="Group-10" transform="translate(0.000000, 566.000000)">
                <g id="Group-11">
                    <path d="M1.4999865,1.50284338 L1.49919125,90.044229 C16.4876659,546.296124 21.1459716,785.502293 15.4590803,809.347972 C13.7492539,816.517438 33.1162207,823.143048 71.9928988,827.905666 C109.235501,832.468099 163.933556,835.430262 234.796387,836.916173 C358.088215,839.501461 526.439759,837.616924 735.874312,832.115368 C821.741331,829.859761 912.212448,827.061716 1012.77733,823.631476 C1057.83166,822.094685 1102.88763,820.502753 1157.43508,818.5344 C1170.33032,818.069073 1258.81172,814.857442 1281.71049,814.037264 C1369.39196,810.896729 1414.80442,809.479673 1439.30128,809.242534 C1491.29951,808.739173 1529.42154,811.579182 1604.11071,819.805612 C1619.27916,821.476298 1619.97616,821.552841 1625.69783,822.171077 C1683.8917,828.45903 1721.25041,830.955748 1764.52785,830.305049 C1818.84399,829.488377 1874.86451,823.064615 1938.39828,809.505443 C1943.71548,753.473426 1947.99928,602.47082 1950.36182,411.713424 C1952.4772,240.913248 1952.56693,71.1970278 1950.54496,3.35350457 C1675.28408,4.05887227 1025.60353,3.44198337 1.49998652,1.50284335 Z" id="Rectangle-Copy-8" stroke="#163150" stroke-width="3" fill="url(#linearGradient-2)"></path>
                    <g id="Group-4" transform="translate(836.000000, 520.000000)"></g>
                    <path d="M263,40.1847416 L376.218577,41.1987984" id="Path-14" stroke="#163150" stroke-width="2" stroke-linecap="round"></path>
                    <path d="M914,97 L1027.21858,98.0140568" id="Path-14-Copy-15" stroke="#163150" stroke-width="3" stroke-linecap="round"></path>
                    <path d="M1088.08744,158.781518 L1292.88945,159.218482" id="Path-14-Copy-12" stroke="#163150" stroke-width="3" stroke-linecap="round"></path>
                    <path d="M1333,192.041447 C1351.70257,184.745292 1357.51754,192.777787 1374.3158,189.884019 C1391.11406,186.990252 1418.3158,175 1440,190.991886" id="Path-3" stroke="#163150" stroke-width="2" stroke-linecap="round"></path>
                    <path d="M1547,96.2447358 C1575.66562,84.2275393 1594.25054,80.8764619 1611.62527,84.2275393 C1629,87.5786167 1647.65075,98.0140568 1662.27342,98.0140568 C1676.89609,98.0140568 1691.64395,94.516047 1711,94.516047" id="Path-3-Copy" stroke="#163150" stroke-width="2" stroke-linecap="round"></path>
                    <path d="M549,111.244736 C577.665625,99.2275393 596.250539,95.8764619 613.62527,99.2275393 C631,102.578617 649.650752,113.014057 664.273422,113.014057 C678.896092,113.014057 693.643947,109.516047 713,109.516047" id="Path-3-Copy-2" stroke="#163150" stroke-width="2" stroke-linecap="round"></path>
                </g>
            </g>
            <g id="Group-3" transform="translate(227.684202, 448.000000)">
                <g id="Group-5-Copy" transform="translate(95.000000, 35.500000) scale(-1, 1) translate(-95.000000, -35.500000) ">
                    <path d="M7.50410878,69.5 L174.846899,69.5 L175.563027,69.4293447 C182.877647,68.7076635 188.5,62.5736186 188.5,55.2222222 C188.5,49.9780645 185.629454,45.2344241 181.094255,42.7320605 L180.116326,42.1924741 L180.352964,41.1009157 C180.841776,38.8461297 181.090529,36.5321481 181.090529,34.1851852 C181.090529,16.1357775 166.362306,1.5 148.189415,1.5 C137.92751,1.5 128.449469,6.19571803 122.250169,14.0760193 L121.80366,14.6436043 L121.081511,14.6485458 C112.896092,14.7045572 106.018917,20.7171487 104.870607,28.6865021 L104.457616,31.5526876 L102.354708,29.5618688 C98.3294533,25.7511681 93.0008476,23.5888889 87.3259053,23.5888889 C81.3485263,23.5888889 75.7599598,25.9894198 71.6816056,30.1680676 L70.540273,31.3374675 L69.4726041,30.1004472 C65.3573996,25.3324978 59.3716546,22.537037 52.9247911,22.537037 C41.8409249,22.537037 32.5593529,30.8012517 31.2859013,41.6404803 L31.1965992,42.4005919 L30.5287493,42.7743846 C28.7279056,43.7823092 27.1625151,45.1676448 25.9454182,46.8275276 L25.1055464,47.9729489 L23.9160447,47.1967658 C22.4049975,46.2107653 20.6385099,45.6777778 18.7883008,45.6777778 C13.6225623,45.6777778 9.43871866,49.8353602 9.43871866,54.9592593 C9.43871866,55.0349983 9.43962933,55.1106154 9.44144764,55.1861013 L7.94130127,56.7222227 C7.94001001,56.7222223 7.94001001,56.7222223 7.93871866,56.7222222 C4.38060562,56.7222222 1.5,59.5847468 1.5,63.1111111 C1.5,66.319922 3.89967487,69.0227727 7.07710481,69.4434646 L7.50410878,69.5 Z" id="Combined-Shape" stroke="#2A455F" stroke-width="3" fill="#FFFFFF"></path>
                    <path d="M54.4112325,70.137858 C51.0952903,70.1116292 47.3526103,70.0712443 43.1831923,70.016703 C18.5417958,70.016703 6.22109758,70.016703 6.22109758,70.016703 C6.22109758,70.016703 -1.19570239,67.3555378 0.167203752,63.0570718 C1.07580785,60.1914278 3.37015413,58.1293371 7.05024259,56.8707998 C8.55040287,55.7165861 9.30048301,55.1394793 9.30048301,55.1394793 C9.30048301,55.1394793 9.58022986,53.5559608 10.1397236,50.3889238 L16.9613642,45.1105288 C21.5715913,45.3656684 24.3378314,46.3165793 25.2600846,47.9632616 C19.9497231,60.5890377 36.2389934,69.7107601 61.9658122,69.3491942 C75.9622823,67.6993178 88.1172461,65.0714874 96.5297475,59.9859287 C106.570961,53.9157744 110.077847,41.5746355 104.840498,31.5916727 C104.267232,26.5566869 105.480367,21.8855907 110.82529,17.4351256 C114.388571,14.4681489 118.152494,13.3802403 122.117056,14.1714 C118.332276,24.5667477 119.306198,33.9965424 125.038822,42.4607843 C131.588874,52.1319627 158.245125,65.7407407 179.153627,42.4607843 C191.739934,50.7931009 192.218697,59.4296296 180.589916,68.3703704 C84.3104996,70.6512963 41.9949013,71.2639198 53.6431209,70.2082407 C53.8996139,70.1849948 54.1556545,70.1615365 54.4112325,70.137858 Z" id="Combined-Shape" fill="#D3E6F2" style="mix-blend-mode: multiply;" opacity="0.284853981"></path>
                </g>
            </g>
        </g>
        <path d="M622.915722,923.518722 C653.809242,865.825656 717.662258,868.090478 730.549856,917.943194 C695.69678,898.815589 674.958213,947.940495 670.978178,955.658956 C666.996201,963.381183 661.188523,997.703584 707.171515,1025.69708 C725.701095,1036.97751 748.40505,1040.58971 775.28338,1036.53368 C796.01108,1056.53423 790.059537,1068.34561 757.428752,1071.96784 C724.797966,1075.59007 671.321716,1071.53965 597,1059.81659 C593.681474,1007.41339 602.320048,961.980767 622.915722,923.518722 Z" id="Path-61" stroke="#163150" stroke-width="2" fill="url(#linearGradient-3)" stroke-linejoin="round"></path>
        <path d="M6.85888892,997.21855 C37.3458051,940.284809 130.433168,948.84806 147.514311,997.21855 C63.7185231,992.733737 108.843156,1041.06115 147.514311,1044.28155 C172.705681,1046.3794 182.148732,1041.89989 228.131724,1069.89339 C246.661303,1081.17381 326.940008,1088.01764 468.967837,1090.42486 C330.237665,1094.90347 244.557186,1098.95389 211.926401,1102.57611 C179.295615,1106.19834 125.819365,1102.14792 51.4976492,1090.42486 C1.14280162,1066.74937 -13.7367851,1035.68059 6.85888892,997.21855 Z" id="Path-61" stroke="#163150" stroke-width="2" fill="url(#linearGradient-4)" stroke-linejoin="round" transform="translate(233.429444, 1030.761519) scale(-1, 1) translate(-233.429444, -1030.761519) "></path>
        <path d="M1115.96784,1022.55416 C1146.45475,965.620415 1248.47443,959.908707 1256.62326,1022.55416 C1225.95418,1011.7412 1217.9521,1066.39676 1256.62326,1069.61716 C1281.81463,1071.71501 1371.67491,1066.74795 1417.6579,1094.74145 C1436.18748,1106.02188 1489.66044,1113.02822 1578.07678,1115.76047 C1439.34661,1120.23907 1353.66613,1124.28949 1321.03535,1127.91172 C1288.40456,1131.53395 1234.92831,1127.48353 1160.6066,1115.76047 C1110.25175,1092.08497 1095.37216,1061.0162 1115.96784,1022.55416 Z" id="Path-61-Copy" stroke="#163150" stroke-width="2" fill="url(#linearGradient-5)" stroke-linejoin="round"></path>
        <path d="M611.628177,935.658956 C665.585613,899.227029 738.381823,923.518722 745.281966,974.995909 C706.619658,955.658956 669.729145,984.912917 664.904597,1014.43753 C660.080049,1043.96214 717,1056.80437 760,1039.88373 C803,1022.96309 798.231486,1078.05304 897,1053.87914 C962.845676,1037.76321 1028.48375,1047.95517 1093.91421,1084.455 L476.372008,1094.74145 C274.153451,1120.56378 186.213734,1123.16959 212.552858,1102.55889 C473.461187,1074.75641 557.670741,972.090884 611.628177,935.658956 Z" id="Path-60" stroke="#163150" stroke-width="2" fill="url(#linearGradient-6)" stroke-linejoin="round"></path>
        <path d="M1428.5,932.412771 C1482.45744,895.980844 1571.86776,906.837595 1571.86776,974.757471 C1529.13441,955.246542 1503.51063,989.20532 1507.40745,1019.87944 C1511.30428,1050.55357 1543.58579,1056.56593 1586.58579,1039.64529 C1629.58579,1022.72465 1624.81728,1077.8146 1723.58579,1053.64071 C1789.43147,1037.52478 1855.06954,1047.71673 1920.5,1084.21656 L1379,1080 C1379.33333,1046.07547 1379.5,1009.66368 1379.5,970.764611 C1399.99841,953.960756 1414.09036,942.142124 1428.5,932.412771 Z" id="Path-60-Copy" stroke="#163150" stroke-width="2" fill="url(#linearGradient-7)" stroke-linejoin="round" transform="translate(1649.750000, 998.053156) scale(-1, 1) translate(-1649.750000, -998.053156) "></path>
        <path d="M1715,454.036697 C1749.01803,452.923388 1766.88483,477.582981 1823.72553,468.03211 C1899.20005,455.350223 1923.32841,461.126086 1980.25766,481.9164" id="Path" stroke="#163150" stroke-width="2" stroke-linecap="round" stroke-linejoin="round" transform="translate(1847.628828, 467.958200) scale(-1, 1) rotate(-6.000000) translate(-1847.628828, -467.958200) "></path>
        <path d="M772.119748,987.021647 C787.503853,974.304013 801.665709,983.689832 803.61155,989.04481 C805.55739,994.399788 801.750557,1005.0456 795.010256,998.701217 C788.269955,992.356833 792.49537,988.421852 772.119748,987.021647 Z" id="Path-62" stroke="#163150" stroke-width="2" fill="url(#linearGradient-8)" stroke-linejoin="round"></path>
        <mask id="mask-11" fill="white">
            <use xlink:href="#path-10"></use>
        </mask>
        <use id="Path-62-Copy" stroke="#163150" stroke-width="2" fill="url(#linearGradient-9)" stroke-linejoin="round" xlink:href="#path-10"></use>
        <path d="M1532.6526,813.740753 C1540.56948,808.823822 1557.63605,784.918803 1557.63605,781.459402" id="Path-94" stroke="#979797" stroke-width="3" mask="url(#mask-11)"></path>
        <path d="M1492.302,793.301058 C1496.18434,790.036525 1513.79845,790.036525 1545.14432,793.301058" id="Path-108" stroke="#979797" mask="url(#mask-11)"></path>
        <path d="M1518.72316,700.134307 C1523.37208,695.674219 1529.8374,685.924035 1526.60474,677.926721" id="Path-124" stroke="#163150" mask="url(#mask-11)"></path>
    </g>
</svg>